<?xml version="1.0" encoding="UTF-8"?>
<svg id="a" data-name="Layer 1" xmlns="http://www.w3.org/2000/svg" viewBox="0 0 1234.33814 1119.37432">
  <defs>
    <style>
      .b {
        fill: #fff;
      }
    </style>
  </defs>
  <g>
    <path class="b" d="M974.82138,579.45878c9.01986-9.7075,21.13369,3.15862,13.08294,11.4175-7.87277,8.0763-20.99125-2.90629-13.08294-11.4175Z"/>
    <path class="b" d="M982.59424,538.18352c7.92894-6.45468,19.94423,4.90949,10.78035,13.54725-8.29398,7.8178-20.3756-5.73609-10.78035-13.54725Z"/>
    <circle class="b" cx="946.51437" cy="630.39529" r="8.45"/>
    <circle class="b" cx="945.74722" cy="591.83063" r="8.14124"/>
    <path class="b" d="M986.40339,615.12725c6.82589,8.44575-7.04312,20.38268-13.11522,10.34694-4.56988-7.55292,7.41595-17.39871,13.11522-10.34694Z"/>
  </g>
  <path class="b" d="M1052.66933,525.72424c.56068,10.52102,4.59235,20.38944,3.20688,31.09598,51.44159-6.1268,105.68487-5.18998,153.53323,16.52933,5.34382,2.42566,22.98193,11.35784,24.72881,16.53369.28687.84997.18814,1.7454.16344,2.61159-1.64547,1.61048-18.83294-5.15058-22.30039-6.12484-40.44112-11.36285-78.64928-17.2881-120.98194-15.04645-7.5655.40062-24.00827,1.89797-30.98815,3.58166-5.75555,1.38835-4.517,11.89094-5.61712,17.80126-.54708,2.93915-4.10967,14.10111-4.03152,14.86735.19892,1.9503,20.82136,4.69841,24.46829,5.54538,31.3495,7.28068,62.46429,19.82733,88.8901,38.23861,9.93638,6.92283,38.28193,30.34889,41.07583,41.47306.6548,2.60717.59409,5.02048-2.92778,4.03867-2.12011-.59104-19.62695-14.89728-23.65057-17.63298-33.81332-22.99001-87.27469-49.78056-128.52084-52.15895-2.35412-.13575-4.78518-.58113-6.67663,1.09472-3.88455,3.44176-9.12829,22.30901-16.13414,26.2197,46.27483,25.11094,98.31758,64.37067,117.92295,115.12649,1.15758,2.99681,6.66817,15.32453-.10726,13.5081-2.55817-.68582-13.1657-17.45873-15.89335-20.92588-30.59062-38.88421-69.20864-72.68528-114.98992-92.44121-16.90558,13.31448-35.29875,20.6888-56.76717,23.08897-11.58296,40.07476-31.82947,81.42303-63.98906,108.86137-12.54653,10.70461-42.4301,28.25749-38.75919-3.08033,2.23063-19.04241,13.03674-39.91226,10.31203-59.93684-41.23039,38.83886-65.33343,96.21325-67.46175,152.77163,8.32292-7.26884,22.50993-26.88313,30.92333-8.07328,7.65617,17.11693-2.04512,53.68363-8.61127,71.10028-2.5274,6.70389-13.73635,25.68576-14.32404,29.25509-.6352,3.85785,2.79117,11.50648,3.19339,16.40679.97536,11.88275-1.8158,22.9214-8.70628,32.63564-8.08777,11.4022-7.41899,11.10961-13.09942,23.70099-19.82474,43.94405-68.63029,66.85685-115.93706,62.44739-4.05085-.37758-8.97695-3.04468-11.11574-3.19736-3.89251-.27787-15.72806,2.93881-21.19839,3.26479-71.5892,4.26604-138.39343-37.99735-174.35549-97.83762-20.91825-34.80761-30.532-74.99493-50.20442-110.37921-1.46231-2.63022-8.81282-15.69083-10.21383-16.57998-3.9067-2.47939-12.59681,11.231-14.374,14.67981-7.19007,13.953-9.18871,31.79391-10.17895,47.26072-1.57414.11848-2.95693.11534-4.43241-.58628-2.81953-1.34074-16.00749-15.54581-20.08115-18.94885-44.17337-36.90143-97.26195-61.44844-144.22424-94.42087-59.0284-41.4441-111.55609-94.73163-140.35115-161.85831-5.73289-13.36443-9.67291-27.33536-14.86723-40.89099-7.10789,12.65115-11.70775,26.79942-14.71963,41.02755-.82417,3.89339-1.91484,18.51054-3.09319,20.32399-.84183,1.29556-1.80054,1.3315-3.2067.94709-7.9582-2.17558-19.00578-48.58438-20.46968-57.60984-11.26254-69.43749,3.37321-141.04265,32.00485-204.30826-6.70918,2.35076-12.82643,5.87237-18.85249,9.57282-3.97201,2.43911-20.45023,15.5127-22.07188,15.94419-1.80711.48084-4.15766-.97442-4.51483-2.78306-1.32122-6.69038,11.93396-38.67153,15.49806-46.55306,22.98013-50.81756,58.45228-96.29263,97.89615-135.24535C75.84723,232.84525,26.92684,167.65948,23.25044,104.60472c-3.39326-58.1986,28.81878-71.23432,80.88409-69.73204,68.13012,1.96582,136.36597,31.29251,203.94313,40.18524C375.67272,29.36821,455.98816,3.4877,537.84132.30256c115.73479-4.50357,229.27148,41.83552,325.80759,101.19039,31.24079-4.68727,60.52212-17.17745,89.27632-29.57701,28.84682-12.4395,74.22313-44.29159,100.07123-11.25185,18.77678,24.00099,15.75362,70.93758,8.82212,98.95708-7.08657,28.64636-20.91785,53.90798-39.20886,76.76735,14.43301,22.7743,19.71938,44.84465,13.56063,71.55002-2.26422,9.81803-11.32919,25.83572-10.31066,34.10276,1.0962,8.8975,13.8884,28.42723,17.77472,39.11561,10.67367,29.35533,9.82712,57.44719-1.71205,86.42629-1.82242,4.57678-8.99679,15.08269-7.89807,18.99227l12.49115,22.14908c46.05173-15.96496,94.7274-25.55422,143.4158-16.26157,5.4939,1.04856,11.5201,2.49491,16.7705,4.41762,3.71884,1.36185,13.86591,4.01745,7.91267,8.45277-54.58932-4.96102-110.461,1.53261-161.94508,20.39087ZM1016.83782,312.58775c15.47527-44.6401-11.68128-72.0885-42.34498-98.70406-64.58351-56.05735-131.55934-110.91126-210.82059-144.91675-82.07334-35.21196-157.20806-56.02474-248.07765-48.53488-61.99384,5.1098-131.26378,25.55944-181.21914,63.00173.70369,1.31905,3.30249.34255,4.46224.00122,13.95432-4.10689,30.59652-13.22116,45.13589-18.42804,95.40545-34.16685,200.40592-38.59045,296.95711-5.8571,52.06256,17.65055,101.80043,46.69748,139.09857,87.27967.74109-2.68835-2.11915-6.55306-3.43889-8.82783-4.3036-7.41787-10.72093-16.18945-16.11554-22.91521-3.26124-4.06597-8.85299-7.29905-9.99739-12.85207,1.86471-1.7569,33.76076,17.10149,37.81571,19.60384,43.48881,26.83731,89.60957,65.43338,128.86508,98.6284,7.38371,6.24377,16.61683,13.42358,22.92037,20.57103,1.65271,1.87398,10.36404,12.51285,8.89669,13.96365-16.9913.95558-31.70046,10.28564-44.08289,21.16293-20.10378,17.66007-41.29876,54.48859-72.38493,50.14595-1.23653-.17274-5.99787-1.91826-6.24756-2.9171-.84475-3.37922,1.54092-12.96132,1.02081-18.62846-2.20289-24.00284-19.43135-52.35892-36.65188-68.71605,6.97076,15.60015,14.69279,31.08836,18.40104,47.93984,5.55912,25.26243.61563,47.96125-13.95115,69.14076,13.30028-2.461,21.83475-14.48777,29.56678-24.51805,4.96049-1.07079,2.92529,16.89783-.53797,19.52025,10.09401,7.1927,24.66493,1.91842,34.93342-2.95668,31.06729-14.74961,58.39588-61.85964,91.89041-66.46074,16.24764-2.23191,20.79353,5.26724,24.30281,19.72675l1.60364,14.547ZM373.38965,144.20431c1.02002-1.12657-8.08357-11.91833-9.452-13.39749-35.30207-38.15886-77.35012-39.76006-124.36859-50.71217-46.97275-10.94146-129.36878-38.33083-175.01943-23.38082-10.45864,3.42507-19.07849,10.5259-19.57027,21.69073,20.83216-21.01323,56.80989-14.78419,83.29498-9.68324,35.62095,6.86049,69.45462,21.06441,104.81917,29.00052,24.19898,5.43046,49.26685,7.10259,73.15886,13.82393,24.14094,6.79137,46.53569,18.67817,67.13727,32.65854ZM888.61203,117.42946c26.45223,1.44891,53.45344-6.02697,77.34095-16.87348,13.09697-5.94689,44.83447-27.06449,56.94805-26.52058,5.74117.25778,9.36704,5.28644,11.01136,10.17342,7.85473,23.34459-1.05115,60.45909-10.52985,82.69804-6.3925,14.9981-15.27474,28.80712-25.52934,41.42009.00033,1.67983,9.93605,11.74997,11.7488,11.7486,3.69247-.0028,14.88602-17.20097,17.06754-20.88742,17.74027-29.97847,29.13125-78.83603,19.48654-112.72587-6.72655-23.63595-21.10942-26.40083-42.66887-18.62737-22.31539,8.04602-43.82896,22.31238-66.17515,30.84412l-48.70004,18.75045ZM173.78608,191.0304c-2.32817-2.66447-4.2991-5.75448-6.66141-8.38192-20.647-22.96431-79.10461-79.90902-107.13727-88.01706-23.79806-6.88324-18.49622,11.04452-15.23222,27.49964,6.25178,31.51778,22.77384,61.61074,39.79476,88.44911,29.47331,46.47316,69.72444,101.9528,132.72189,91.98354.13777,1.57553.12778,2.9551-.57686,4.43063-2.74096,5.73959-12.52608,16.74992-16.61269,23.53246-52.53281,87.18863-54.75738,185.80736-1.1177,273.03839,34.89411,56.74622,92.02029,97.50422,154.3626,119.39881-13.08179-10.39847-27.72072-18.5993-41.14499-28.54139-120.51889-89.25693-164.68533-220.51697-91.02528-358.43349,22.29032-41.73502,53.18022-77.47801,90.90923-105.90586-18.75328,6.9762-36.37713,17.63177-52.3029,29.65029-4.57803,3.45485-13.31809,13.22022-17.91896,14.4208-16.035,4.18428-47.20881-4.20239-62.13284-11.53402-4.57083-2.24548-17.90259-10.16437-20.99445-13.57404-2.69384-2.97073-2.43122-5.43508,1.89988-5.35353,5.11191.09625,12.61516,2.69232,18.20193,3.09275,10.12525.72573,23.13511.68996,32.87796-1.6533-18.36836-12.99327-37.79703-24.49182-56.10398-37.56987-5.46476-3.90389-32.65632-23.16656-34.05094-27.2845-.2876-.8492-.18622-1.74633-.16271-2.61234,18.20905,1.16275,35.13443,8.3311,52.40696,13.36489ZM424.69826,263.51595c51.22784-10.15704,97.57282.57825,142.37428,25.46916,45.5607,25.31272,93.46809,72.49031,149.28454,68.25938,44.47318-3.3711,60.21227-43.63696,41.26771-81.50055-17.52656-35.02949-76.53912-78.42583-115.00986-84.62133-1.14441-.1843-2.99389-.74166-2.68182,1.02017,37.58024,18.10843,90.43565,56.13878,101.78374,98.39383,6.03072,22.45562-5.39984,40.00069-28.76687,42.1131-50.70701,4.58399-115.95656-61.63057-164.48521-81.9302-39.97538-16.72178-91.32057-20.00082-123.7665,12.79644ZM644.3964,359.42864c-9.42682,33.18424-54.5066,41.01797-75.81532,13.91556-14.19243-18.05124-15.0627-41.78153-4.97688-61.89528-17.0891-9.59929-41.71552-19.26538-61.45866-20.07896-1.57966-.0651-3.30794-.33896-4.42953,1.13242-2.15727,2.83005-2.98174,17.70716-2.74603,21.75252,2.52372,43.314,35.85791,72.13107,75.57477,82.77441,24.93941,6.68327,65.6087,8.53056,86.63212-8.63666,3.51906-2.87358,13.26866-13.15424,13.98611-17.27315.38868-2.23139-.41482-1.38685-1.44154-1.90548-7.91309-3.99719-17.19404-6.20153-25.32503-9.78539ZM985.51455,308.22127c-1.53291-1.1061-19.06753,6.0313-19.85198,8.46523-.71785,2.22725,4.82825,14.47599,5.34555,18.8892,5.7179,48.78025-46.14936,80.6146-66.84485,27.22011-.51596-.37831-10.45922,3.22131-12.17767,3.92921-1.3029.53672-5.22857,1.37015-4.48005,3.2792.96014,2.44878,10.7179,8.71515,13.38356,11.157,4.7669,4.36667,15.89857,17.7367,20.64396,19.50195,8.02986,2.98704,24.58981,1.06723,32.82205-1.68943,35.50764-11.89015,46.66298-59.36199,31.15943-90.75246ZM638.80409,415.20095c-24.3553,2.99023-46.77244,3.84429-70.72705-2.32197-55.22927-14.21679-87.55784-57.34128-126.64021-94.70849,3.40238,9.78219,9.49508,20.03231,15.13793,28.89968,36.87779,57.95107,105.04593,98.38758,174.17721,71.77123l8.05212-3.64046ZM943.40242,349.23984c6.38368,4.02056,14.1819-12.09417,7.09525-16.55234-4.66364,1.36527-11.76814,13.60927-7.09525,16.55234ZM936.55853,417.4308c3.67481,3.82111,12.24707,5.18251,17.30191,5.54762,37.91402,2.73857,68.32529-33.56055,57.40155-70.23127l-11.35637,25.9824c-13.53217,23.58024-35.95855,37.41284-63.34709,38.70125ZM943.23852,468.71704c-12.10602-29.13095-32.75888-57.20004-57.45169-76.91421-3.41527-2.72667-7.63966-6.19734-11.67715-7.82684,19.15009,19.55031,34.91179,42.1809,48.14383,66.14911,1.80633,3.27194,5.68886,13.62515,7.04655,15.25673,1.79799,2.16069,10.8734.32073,13.93845,3.33521ZM687.87109,409.6253c-9.34284-1.94961-17.37624-4.68547-27.24968-3.29121l-17.34476,7.72974c13.56266-2.73853,26.99299-2.78807,40.70864-3.33501,1.35385-.05399,4.14725.84098,3.88579-1.10351ZM757.01688,433.02103c-8.68826-9.55559-23.1941-15.8292-35.67828-10.01276l35.67828,10.01276ZM639.15589,553.11743c-4.06296-3.64933-3.49232-12.39508.67197-15.8223-23.67267-16.42423-49.25839-30.16976-71.24132-49.17933-4.61794-1.2966-8.96868,7.38486-13.68768,6.07535-46.44976-22.5768-97.36665-38.64647-148.75921-45.3883-34.29142-4.49845-71.39172-6.51496-105.64991-1.14114-4.35281.68279-8.62773,2.39163-12.94844,3.22716l20.63361,2.20494c92.678.64037,187.4868,25.27215,270.8158,64.84859,6.76349,3.21226,32.98369,15.149,33.06207,22.72001.10275,9.92571-26.8043-2.76609-31.19611-4.51301-4.87305-1.93834-32.01524-14.8854-34.07774-14.65871-3.77558.41498-12.14759,28.38652-8.75547,30.97867l64.36604,26.82707c7.08851,6.81945,1.76832,10.41981-6.49335,9.84193-18.51232-1.29489-41.31168-12.23074-58.01614-20.04871-1.92385,3.86448,1.35266,25.74108,3.85976,27.36477,1.90996,1.23696,10.63174.34297,14.493,2.23446,2.56998,1.25894,8.62539,7.53092,12.41073,9.89255,9.54047,5.9522,21.82359,10.80976,32.51597,14.32092,5.72776,1.88087,21.22291,3.11682,22.99055,9.42956,2.85596,10.19946-18.24049,5.42593-23.48467,4.44655-11.00233-2.05474-24.39326-6.34064-34.3915-11.33024-2.03105-1.01359-13.66174-9.12039-14.44654-8.40295,39.89223,61.27659,123.6842,58.91704,187.55799,45.36403,24.16562-5.12756,71.81501-16.19539,93.12027-26.20228,8.90789-4.18396,14.32619-13.78783,15.7016-23.35398,1.21046-8.41893-9.4465-14.74948-14.21753-20.9362-9.72803-12.61461-1.13135-9.23595,3.02501-18.10812,3.54061-7.5578,1.92331-14.47296-3.0446-20.91368-1.28167-.91576-3.60211,3.94735-5.001,5.05943-28.40701,22.58288-73.04186-17.7106-83.95372-44.33787-5.85499-14.28743-4.3009-24.18171-15.30602-37.1067-20.20943-23.73502-59.01488-33.85613-89.09629-29.96506-17.73964,2.29465-36.94891,9.24999-50.86545,20.50493,16.30115,1.29411,32.03489,5.17211,45.61496,14.59378,3.46679,2.40521,13.18085,8.91372,9.65309,13.91041-2.49799,3.53813-14.22131-3.33334-17.89497-4.55336-13.1147-4.3554-26.82921-7.81915-40.72336-7.77483,10.36179,11.03621,24.3946,18.44167,36.21122,27.89926,11.87654,9.50554,22.51844,20.75326,34.55571,30.11493,7.89708,12.57758-8.48776,20.42882-18.00832,11.87749ZM1024.65644,624.84045h-20.63054c-1.22714,0-4.91374-3.24452-5.07847-5.07237-.93562-10.38178,24.76563-8.74361,30.47524-10.79193,5.67273-2.03508,8.86406-23.77584,8.6155-29.86104-6.61045-1.27332-32.31046,11.88312-32.25027-.56047.04858-10.04322,30.34569-13.46181,32.85001-17.23038,1.60186-2.41052-1.48136-23.72451-3.06138-27.13731-.58953-1.27337-.71519-1.84093-2.32901-1.74557-6.15746.36385-19.29163,11.40878-24.717,5.35549-6.7515-7.53291,15.75658-17.84692,20.6759-20.71938-10.09426-31.49771-39.51299-59.66909-73.12102-63.98506-1.28417.12801-.39666,2.39697-.05483,3.39944,7.38537,21.65875,18.80792,32.62072,11.68942,58.44185-4.78996,17.37477-24.93621,42.76409-43.40433,45.9226-10.92078,1.86773,6.36251-14.24031-1.14237-17.9942-8.51619-4.25974-23.16042,11.55004-24.45403,20.15665-1.20073,7.98868,4.67225,12.88172,2.43623,18.03494-.4062.93615-8.95252,10.76899-10.27367,12.04965-5.21046,5.05078-19.93579,13.28933-22.88213,17.26378-1.17148,1.58027-7.36191,18.55451-7.91057,21.10381-1.80112,8.36876,8.41142,12.64148,14.79199,16.5737,33.99844,20.95259,83.41237,38.22699,119.663,13.58208-2.65096-4.76192-26.58094-8.23332-15.50844-15.02287,6.65416-4.08027,20.39014,6.03996,28.87346,2.19184,3.05072-1.38384,18.5177-22.40138,16.7473-23.95524ZM948.44978,485.82013c-15.04231-15.43875-51.78702,7.96083-70.45507,9.64356-33.73179,3.04058-64.12652-17.83753-98.1062-14.4688-17.23486,1.70865-27.05074,12.00618-18.39733,28.98105,24.6587-26.2336,61.89518-1.53651,91.19788,3.02263,15.8481,2.46577,29.37883,1.94139,44.83395-2.46715,17.59875-5.02001,37.06049-20.9625,54.63659-9.47446.37177-4.98217-.02518-11.45507-3.70982-15.23682ZM522.83836,534.51775c-70.1081-15.50538-145.80523-17.7761-215.47296,1.42661-15.54767,4.28545-33.9956,9.78023-46.59615,19.74467,15.7388-1.73958,31.17317-6.6121,46.81347-9.49087,48.75115-8.97322,98.31782-11.7748,147.7773-7.22018,21.88776,2.01559,43.72466,5.72637,65.23128,10.03144l2.24707-14.49166ZM520.44498,582.62147c-33.35204-1.33974-66.69443,2.91617-99.10444,10.42466-42.83505,9.92369-94.17401,29.44979-127.01161,59.22058-4.62236,4.19066-2.26044,4.66464,2.56004,2.55947,13.44073-5.86973,26.77698-14.44409,40.8622-20.47104,58.08968-24.8561,122.77027-38.52297,186.19219-37.39991l-3.49838-14.33376ZM540.66974,634.87099l-9.39761-15.23713c-28.65084,2.93173-54.2253,20.39242-68.12501,45.32828-23.37624,41.93661-13.247,83.69391-1.08936,127.15133,13.30185,47.5474,30.24127,101.56133,47.37179,147.78193,18.00827,48.58889,42.18865,88.14011,100.9292,84.15956,43.82467-2.96978,71.26137-17.23042,118.79033-7.24544,12.17542,2.55783,30.71887,12.02116,41.03722,12.58907,13.66021.75184,23.02051-15.35676,21.38966-27.63243-4.52994,3.94425-8.794,8.01886-15.1396,8.82171-10.26605,1.29887-34.59227-10.22467-47.2605-12.76291-44.66023-8.94825-72.22519,2.21957-114.4856,7.14305-62.95406,7.33436-81.80497-47.43557-98.57379-96.29314-16.87889-49.17828-49.71166-145.51464-43.32476-195.03739,4.91239-38.08966,29.11792-70.95211,67.87804-78.76648ZM821.69658,658.29537h17.28504c1.32857,0,9.52783,5.58554,10.07649,7.86083l12.77576-5.61614c-7.40639-3.68756-13.00972-11.54224-22.35612-8.43015l-17.78118,6.18546ZM781.69749,708.32895c7.89741,4.87607,24.64392-25.22549,25.3311-31.92617,1.10236-10.74901-27.19672-6.998-30.47101.87619-1.80071,4.33044,2.20579,29.23838,5.13991,31.04998ZM830.35473,669.73645c-3.06346.0955-15.63734,3.58881-16.22525,7.07592-.20615,1.22273.95945,2.90523.87012,4.3326-.11958,1.91057-1.08755,3.62165-1.00573,5.46912.17466,3.94392,2.18069,20.70143,6.24686,21.727,7.39778,1.86586,21.66478-23.37197,22.45437-29.71918.76714-6.16675-7.11472-9.04837-12.34036-8.88546ZM877.2276,675.24422c-2.99984-5.19522-16.15528-3.00053-20.95763-.77579-8.79202,4.07299-7.2945,8.63747-6.68046,17.82471,1.50197,22.47239,6.9691,26.34506,19.41236,6.05897,2.39191-3.8995,10.34553-19.43674,8.22572-23.10789ZM741.50007,711.72279c5.64828,3.94958,19.19979-16.83978,21.29223-21.44581,1.14239-2.51471,5.81169-12.94263,3.20698-14.767-2.01342-1.41022-28.76684,4.83923-29.6776,6.13904-2.21899,3.16686,3.05678,28.59023,5.17838,30.07377ZM937.58869,690.7149l-40.83861-11.01869-3.09303,2.04683c-1.11286,6.59398-8.1366,16.46762-9.25972,21.96804-1.36066,6.66372.30235,16.00599-.26306,23.15539-1.96077,24.79337-9.368,49.13671-15.59616,73.04796,3.05463,2.85947,22.4164-17.04461,25.10231-20.05041,21.39864-23.94722,38.0713-57.59462,43.94826-89.14912ZM713.51992,685.06509c-21.36905,3.15342-43.15721,4.68603-64.67737,2.21924-1.45618,1.42853,3.17621,35.19189,3.40215,40.65574.59213,14.31902-.20204,31.3927-1.17898,45.76403-.53664,7.89431-3.33959,18.35067-3.38794,25.7128-.00871,1.32673.42948,3.58957,1.75027,3.85342,5.42036,1.08278,23.62117-21.58478,27.09082-26.41635,18.97169-26.41856,31.51128-59.7931,37.00105-91.78887ZM847.3452,727.44677c-12.19084,2.44038-22.98904,12.95255-30.55154,22.40737-28.79188,35.99636-49.45843,99.3751-42.90624,145.2707.6384,4.47175,1.17664,10.40453,3.76013,14.05989,3.43346.00872,1.47396-19.5764,1.68406-22.82666,2.74503-42.46403,17.93567-85.48208,40.36713-121.33204,8.25944-13.20023,18.0148-25.40114,27.64645-37.57926ZM630.99774,847.86759c-3.03047,3.10091-9.73096-9.17421-10.57275-11.1615-5.10266-12.04618-3.92988-25.5445-6.45052-38.15604-6.86082-34.32684-32.9628-64.45654-70.49468-61.06128-2.82975.25599-10.27357.8278-6.68798,4.42403,51.64414,51.79724,4.05569,89.86135,32.4106,140.44005,2.64994,4.7269,17.9138,24.78004,23.12715,23.41237,4.62874-1.21431,21.50308-32.90273,27.63257-38.26655,13.4531-11.7726,21.26046,4.56124,23.87764,16.04799,3.06138,13.43633,3.50323,27.63522,2.18036,41.33478,16.05332,7.3063,38.49414,5.70339,55.18991.44689,25.86028-8.14185,41.93128-28.20281,32.43079-55.75157-1.14951-3.33327-6.2068-11.20732-6.28106-13.33082-.14219-4.06624,6.20154-20.91044,7.19537-28.04671,2.58118-18.53444,1.90473-37.71166-10.42223-52.82481-3.41452-4.18629-15.75589-16.09262-20.55644-9.38449-2.22733,3.1124,1.49809,21.44282,1.06749,27.83787-.819,12.16345-12.43956,46.45304-23.46108,52.36961-1.63532.87787-3.65923,1.51633-3.32844-1.07864.73022-5.72829,4.70326-12.29073,5.42452-19.12838.40087-3.80025.39006-26.85646-3.75826-27.15819-9.32049,6.50626-23.74256,25.87923-36.55688,19.78726l-7.50593-7.00106c-6.05209,10.98383-6.6886,24.07304-4.46015,36.24917ZM546.23972,794.33978c1.40416-16.68364-6.7054-44.80311-27.86217-42.36478-1.42916,1.26598,7.6962,9.19463,8.88562,10.61829,3.22205,3.8566,6.18991,8.02474,8.97507,12.21304l10.00147,19.53344ZM690.10708,1083.18415c-65.11474,17.91756-135.33627-.38527-180.11462-51.29306-36.72976-41.75747-46.21773-97.39739-72.44598-145.01101-32.62571-59.22727-88.24885-100.6737-153.3527-118.17282l38.93011,22.94455c39.09626,24.24943,72.57842,55.61808,97.13721,94.67101,39.3849,62.62912,43.57495,133.05987,108.24371,180.58379,43.85076,32.22514,114.09168,49.59047,161.60226,16.27754ZM628.70635,881.37605c-.8781-.55049-2.40795-.20066-3.36417.67627-2.35,2.15512-10.33671,17.45118-13.50325,21.92993-4.60283,6.51023-10.24055,14.29156-15.43559,20.24966-6.20742,7.11917-24.80507,22.17392-28.08332,28.78379-2.71137,5.46687-1.43996,13.98657,1.12999,19.41794,6.06828,12.8248,31.99897,21.44857,43.1663,11.50265,7.83662-6.97951,15.75366-38.92743,17.12909-49.78077.88939-7.01812,2.81275-50.36471-1.03905-52.77947ZM816.12076,910.88003c.53436-5.0252,0-11.47846,0-16.72746,0-.27602-1.02486-1.63436-2.22995-1.1257-1.7954.75783-13.41603,16.54394-16.1545,19.54167-5.62591,6.15854-12.79123,13.3432-18.94375,18.97183-2.27493,2.08122-14.3619,10.53284-14.84106,11.34915-.5131.87414,1.0792,16.3558.72856,20.25897-.46893,5.2199-6.5722,21.13836-6.3649,22.28224.68375,3.77293,11.22226,6.68537,14.76371,6.27164,12.31451-1.43864,26.94884-30.65204,31.29748-41.2692,4.22588-10.31742,10.59718-28.76456,11.7444-39.55314ZM668.9191,977.2323h16.16988c7.41152,0,8.56768-27.88399,2.24163-32.30098-4.01152-.25571-21.84691,26.08367-18.41151,32.30098ZM654.09175,946.18601c-2.79662.7791-12.47264,15.81562-14.35831,19.14567-1.05942,1.87093-6.26116,11.59839-6.36076,12.66262-.56136,5.99809,16.97687,3.16109,20.60496,1.58154,5.46025-2.37721,7.4197-15.15755,7.13001-20.71296-.22573-4.32882-1.40017-14.24135-7.0159-12.67688ZM719.08838,946.01068c-1.97566-1.3646-4.90618,2.08844-6.13064,3.33221-3.41118,3.46499-14.35815,19.60313-13.93546,23.95588.4998,5.1468,11.16274,4.63496,15.03267,3.90615,7.49936-1.41233,7.78686-16.85999,7.15488-22.71391-.13062-1.20995-1.76181-8.23192-2.12145-8.48032ZM745.47063,947.2449c-2.64471.73328-17.33717,23.08949-18.09259,26.63101-1.46429,6.86485,12.60799,9.86276,16.90267,6.78712,2.14141-1.53357,5.34386-12.41686,5.75729-15.42907.4701-3.42515,1.65094-19.71316-4.56737-17.98905ZM754.78633,1070.91705c-5.63412,2.57271-10.64036,6.16731-16.328,8.75182-10.71978,4.87114-20.76884,7.01178-32.31907,8.942-2.80359.46852-5.96936-.38867-8.55901.3623-2.84588.82527-10.55389,11.11367-14.1638,13.14627,26.26119-2.02723,54.08648-10.4334,71.36989-31.20238Z"/>
  <g>
    <path class="b" d="M632.92558,580.45163c14.54959-3.21887,20.13694,19.45642,4.22034,19.95043-14.38338.44642-15.12164-17.53868-4.22034-19.95043Z"/>
    <path class="b" d="M662.57053,502.51867c8.0315-7.46877,20.81462,3.33486,16.91858,11.89789-6.06716,13.33488-28.69369-.9478-16.91858-11.89789Z"/>
    <path class="b" d="M697.64047,546.99049c13.43023-2.55161,18.44206,18.32938,3.02059,18.79227-13.49692.40512-15.09089-16.49903-3.02059-18.79227Z"/>
    <path class="b" d="M680.41937,590.60771c8.41033-8.99411,23.3503,1.72832,17.36555,11.25217-7.14236,11.36602-26.4808-1.5042-17.36555-11.25217Z"/>
    <path class="b" d="M663.01924,626.20053c13.53149-3.11703,19.15319,12.62846,8.95697,16.74787-15.37203,6.2105-20.83557-14.01159-8.95697-16.74787Z"/>
  </g>
</svg>