<?xml version="1.0" encoding="UTF-8"?>
<svg id="a" data-name="Layer 1" xmlns="http://www.w3.org/2000/svg" viewBox="0 0 1173.20759 1089.13907">
  <defs>
    <style>
      .b {
        fill: #fff;
      }
    </style>
  </defs>
  <path class="b" d="M1117.23446,572.87992l15.654,25.85453c31.37331,58.86813,21.95661,142.21364-14.55042,196.86615-6.23199,9.32954-13.6116,20.06533-25.84879,11.76835l-15.1663-18.28408c-14.31965,49.35883-52.56817,87.8648-93.47999,116.82458-44.07809,31.20105-96.4775,53.4282-149.11222,65.49564-50.10455,108.46026-175.70992,121.59424-282.0494,116.94823-86.80478-3.79253-175.62023-32.73503-214.14214-116.93632-57.71948-13.68386-114.45225-38.41112-161.61021-74.56628-36.10226-27.67896-69.59921-64.13123-80.98791-109.3608l-14.70982,19.23917c-13.85452,11.49755-24.23628-7.39582-30.36068-17.83959-38.30321-65.31747-42.57915-154.89937,6.2602-216.00463-13.53259.00517-60.42573,10.6465-56.94701-14.28197,1.0093-7.23265,25.86017-42.15012,31.5142-51.6031,28.29748-47.31059,45.89636-93.36522,68.37999-142.99258,2.42097-5.34372,14.8158-27.00835,15.1146-30.20322.22069-2.35971-14.2771-12.31534-17.09633-14.88527C24.74139,252.05036,8.4704,134.09978,72.75276,55.21141c73.28166-89.93246,188.53503-59.74607,257.77595,17.25525,5.90597,6.5679,10.77036,14.80412,17.18759,20.51767,50.98893-28.0397,106.76091-50.52513,164.29014-61.16633,98.52363-18.22395,191.81735,1.74531,280.84449,44.20883,4.54158,2.16621,30.84932,16.96935,32.6898,16.93515,1.19213-.02215,2.02768-.66003,2.69618-1.57971,55.72053-79.21723,165.19526-126.48867,249.59974-58.77253,70.7495,56.761,80.0689,166.02094,34.45289,241.45212-14.20855,23.49543-33.15463,41.77887-54.19972,59.01727,26.8317,56.02602,47.97418,113.37433,79.44372,167.18669,9.66434,16.52584,24.00793,34.58203,32.33356,50.70572,3.39838,6.58141,5.37875,11.51731.04785,17.97031-9.49501,11.49362-39.30882,3.88372-52.68049,3.93806ZM534.87885,66.02085c-73.31439,9.28986-141.96482,39.58615-204.44154,77.67288-2.2297.20612-2.90708-.8525-4.28457-2.15241-6.37301-6.01404-14.61905-20.38428-21.50638-28.09426-52.78632-59.09143-141.31201-99.31029-200.49201-23.59877-50.92512,65.1507-36.9645,164.31192,27.92844,214.47693l25.25452-38.4217c-23.63127-25.82591-38.79375-59.93202-33.02888-95.50899,3.72946-23.01574,16.06611-45.04676,38.1239-54.6212,35.77624-15.5291,71.52311,11.4118,93.10035,38.15995,3.69155,4.57622,15.65572,20.56232,16.84261,25.30994.51241,2.04968.49879,2.02869-.56024,3.81728-2.29224,3.87137-16.78041,14.60924-21.13396,18.80472-62.54683,60.27602-102.97109,135.84265-134.26557,216.21852,49.12229,14.76534,96.22866,38.46784,135.34312,71.78045,3.46067,2.94735,21.54543,18.48351,20.89861,21.92561-1.23988,6.5981-15.57815-1.51413-19.49846-2.83556-53.19349-17.93013-107.54529-29.44647-164.22285-24.52041l-2.56948,1.74424-19.08117,31.60511-17.69778,25.96761c15.42268.41845,32.76513-3.94412,48.00839-2.17484,19.16848,2.22488-2.6546,24.54085-5.95386,32.36666,48.9141-11.27202,101.69191-10.72314,149.08926,6.75285,6.2387,2.30029,29.05175,11.74717,32.15696,16.36774,2.66514,3.96575.18908,6.38678-3.91686,7.01357-10.50876,1.6042-23.52819.97323-34.43007,2.23696-61.0111,7.07236-120.71393,26.45541-172.56487,59.25564-.36608,29.16389,4.89666,57.76176,17.25702,84.16204,9.70642-12.74321,21.76745-22.08766,35.14578-30.63856,39.36114-25.15809,89.00137-41.97148,136.31685-38.36219,4.83089.36851,21.85165,2.05044,13.43107,10.17503-4.45463,4.29805-19.40317,11.07156-25.72827,15.24601-28.55228,18.84395-55.31628,42.47369-74.74152,70.84673-3.68642,5.38449-12.28911,18.11618-14.04782,23.75593-1.66514,5.33972,4.52514,11.11022,7.84219,15.27949,17.31876,21.7683,42.823,42.46615,65.41588,58.60374,31.69941,22.64218,66.23829,42.45496,102.26595,57.34224.66922-10.00826-6.87293-30.85739-1.68475-39.39795,4.17302-6.86944,11.21259,3.9263,13.86902,7.80158,30.40328,44.35319,38.37414,85.88183,87.64939,118.33101,74.45717,49.0322,248.07797,49.30611,322.69463.42568,45.77756-29.9883,57.88897-69.95595,85.07155-113.35984,12.99058-20.74276,20.31262-22.29861,18.10573,6.24302-.23543,3.04479-3.8662,19.09535-3.20701,19.96813,28.00179-10.94084,55.08382-25.7922,80.35476-42.03611,27.88661-17.92524,60.03474-42.03137,81.95362-66.86992,2.51734-2.85266,13.83632-16.67092,14.36183-19.15181.83421-3.93818-15.01757-27.29252-18.35114-31.88937-19.15995-26.42076-43.94053-47.9866-71.06818-65.89261-6.13458-4.04922-21.67656-11.33249-25.72842-15.24586-7.98947-7.71638,7.09889-9.73423,12.35601-10.17182,46.77342-3.89334,96.1191,12.80171,135.23512,37.28047,13.90876,8.70408,27.26984,18.54337,37.29741,31.70081,12.76093-25.80755,17.91148-55.73316,16.75766-84.592-49.98312-31.03501-105.96122-50.42432-164.53051-57.71183-13.62968-1.69588-28.84345-1.37323-41.96157-3.33291-3.71463-.55492-6.2087-2.52965-4.38909-6.39009,3.40941-7.23332,41.09453-19.95492,49.92022-22.35071,43.40148-11.78161,88.08131-11.48292,131.79049-1.38563-1.93611-8.29225-21.42407-23.01609-10.74895-30.70925,8.05827-5.8073,42.021,1.89771,52.8291-.03638-13.1837-19.12505-26.7043-38.10985-37.40054-58.80609-46.5317-3.4402-93.98327,2.4562-138.6274,15.44673-11.82207,3.43998-30.36119,12.51991-40.72686,14.37621-4.50965.80759-6.54993-.54286-4.92982-5.02413,2.54331-7.03489,36.53065-33.02273,44.47185-38.57614,33.65178-23.53322,71.07861-40.64838,110.37238-52.58679-23.50345-57.52548-49.95948-114.81908-88.03733-164.26575-16.35053-21.23227-35.92144-41.58741-55.41206-59.9801-2.3472-2.21498-12.8108-9.76949-13.01935-11.85923-.92004-9.21913,30.42606-43.43886,38.37941-50.10354,66.49791-55.72337,128.03614,9.66536,106.97025,83.24476-5.52176,19.28655-17.13321,35.61158-29.75575,50.78965l25.20379,38.46322c64.90974-50.97286,78.85888-149.39918,27.47123-215.09816-62.2723-79.61499-155.26121-29.52447-207.00282,32.34999-5.41934,6.48064-10.35923,13.48811-15.08771,20.49119l-2.78459,1.64994c-14.5368-7.13819-28.42554-16.36446-42.9-23.97093-50.48279-26.5292-105.58351-46.50624-162.48446-53.73689l-2.10313,30.14469c50.75874,8.75704,110.58149,32.61882,144.41862,72.87881,4.55584,5.42061,17.91804,23.34839.81317,19.67198-7.65457-1.64522-28.46872-14.25916-37.79708-18.2763-35.54816-15.30836-74.19461-26.5877-112.88011-30.0033l-5.40585,40.96585c28.88936,5.97348,58.15052,17.1921,81.40026,35.62903,5.32764,4.22479,20.87512,16.80723,18.73036,24.01183-.70345,2.36301-4.3493,4.00284-6.70938,3.93532-6.11972-.17508-21.95916-6.66463-29.33071-8.48056-23.16881-5.7075-46.74116-10.15625-70.59432-11.48651-6,23.36889-10.01199,47.32912-16.92895,70.46141-1.51991,5.08301-8.56016,28.16336-12.14308,29.92989-2.20593,1.08762-4.91145.60961-6.90831-.672-3.39335-2.1779-10.13255-24.06611-11.71431-29.25755-7.0277-23.06528-11.53045-46.97902-16.89716-70.47441-34.19155,1.53037-67.38872,10.19738-99.95421,19.98212-15.59027-2.7726-.43115-17.15703,5.48984-22.61568,23.63973-21.79385,56.59108-35.06293,87.9285-40.96245l-5.39413-40.97522c-38.51863,3.19354-77.49141,14.73459-112.8912,30.01221-10.09197,4.35543-28.17049,15.68219-36.9805,18.01056-17.96909,4.74901-3.85488-14.84779,1.01486-20.54483,33.85385-39.60516,92.85846-63.85776,143.45777-71.69485-1.13394-9.88272-2.51569-20.46921-2.15284-30.1796Z"/>
  <path class="b" d="M787.50749,650.80044c-10.63487,62.44708-12.12945,126.26331-22.02622,188.80616-8.94256,56.51267-22.78074,104.93786-80.41624,127.72103-56.85799,22.47582-167.44694,22.41821-219.77808-11.57992-45.68505-29.68034-54.08429-88.73543-60.76721-138.74261-7.31898-54.76672-10.08939-110.24656-17.81627-164.93783-30.29311-14.3012-46.212-48.66865-32.74714-80.55423,3.4592-8.19159,13.73185-21.96319,22.99639-23.37672,17.58515-2.68305,2.64166,15.83164.74617,24.47217-6.05698,27.61058,8.80849,48.82995,36.13228,53.90871,35.04192,6.51335,102.27522-11.50349,134.00819-28.278,13.85218-7.32247,24.15869-14.57401,22.6636-32.19306-18.62108-9.02521-36.81851-19.24078-52.37124-33.04517-19.57272-17.37248-46.89242-47.95657-17.04049-69.94128,32.53243-23.95879,132.99763-23.03121,167.18013-2.55129,50.29584,30.13397-22.76309,82.69768-50.33282,97.82998-2.32976,1.27874-14.17399,6.27142-14.62706,6.94231-3.04119,4.50329,1.36317,16.27282,4.42834,20.46514,14.82336,20.27432,97.4368,40.4976,122.88283,42.11718,37.46955,2.38485,75.47841-11.52277,64.07456-56.52553-1.94175-7.66269-14.76295-28.95823,3.28248-22.71,13.73959,4.75733,24.32768,25.18409,25.78346,38.93813,2.86895,27.10536-11.78464,52.03523-36.25566,63.23484ZM735.308,658.22314c-51.78077-7.4647-103.63177-21.05574-149.03869-47.39115-44.15962,25.92104-95.84735,40.39188-146.68698,46.30699-2.62441.82157-1.9372,7.64508-1.80509,10.14607.85496,16.18607,10.77925,60.97511,24.30711,70.57839,6.71963,4.77019,9.60148-.15633,12.13852-6.18193,6.85515-16.28132,7.24621-39.23503,14.18355-54.83605,1.88637-4.24215,16.58329-7.28058,21.65033-8.54575,43.82935-10.94352,92.81309-11.64713,137.17449-3.41787,12.32621,2.28657,24.73047,5.48623,36.45892,9.91363,3.91737,3.82366,11.35358,46.59376,15.06615,56.11033,9.56696,24.52339,23.23957-7.86359,27.02179-18.35536,6.22179-17.25912,8.96211-36.02954,9.52992-54.32732ZM535.72806,813.68512c-56.62054,4.89106-76.16234,88.54639-32.05249,119.85044,33.52301,23.79074,132.49965,23.73934,165.93073,0,31.21782-22.16771,30.44992-73.75785,6.02087-100.77512-21.83392-24.14717-64.90263-28.25862-81.62591,3.60144-1.34024,2.55333-4.77735,15.48341-7.88647,14.74461-1.49013-.35409-7.21692-15.15302-8.97072-18.00022-8.63795-14.02326-25.22927-20.81942-41.41601-19.42116Z"/>
  <g>
    <path class="b" d="M798.87558,374.76563c38.5257-3.50402,77.63967,21.61664,89.46681,58.71091,3.1826,9.98182,4.24767,24.2065-9.15199,26.99042-16.54205,3.43679-17.8562-8.2643-24.23308-18.40924-24.72849-39.34043-71.56444-36.16825-97.08954.62163-3.6915,5.32064-5.28093,12.5215-11.04004,15.9208-14.85611,8.76878-28.82422-2.7693-24.82948-19.44044,7.94573-33.15969,43.33542-61.34335,76.87733-64.39409Z"/>
    <path class="b" d="M815.05012,289.57116c13.3745-.86782,32.41215,2.01995,30.44837,19.64857-1.74886,15.69926-22.6889,12.97542-33.85883,14.68247-10.42318,1.59293-21.80773,5.1248-31.29015,9.69025-8.82272,4.24783-22.69428,17.4524-31.96133,6.89629-5.91154-6.73385-2.07228-13.97068,2.70071-19.98044,14.76641-18.5927,40.52829-29.41667,63.96123-30.93714Z"/>
  </g>
  <g>
    <path class="b" d="M357.44959,375.06767c38.86509-4.33209,78.40199,20.94921,91.67277,57.62891,4.45387,12.31023,4.49518,27.47905-11.97449,29.04968-14.14133,1.3486-19.24002-16.88512-26.81767-25.84577-23.72203-28.05152-64.70056-30.36663-87.72057-.34201-7.86768,10.26168-14.99168,36.04469-33.66019,22.50747-16.65625-12.07807,4.26879-43.84184,14.09315-55.01568,13.84509-15.74685,33.5376-25.6564,54.407-27.9826Z"/>
    <path class="b" d="M348.08248,289.56888c16.11934-1.49046,39.02489,5.10552,52.98181,13.24458,9.68052,5.64525,32.75578,23.02281,25.33261,35.95238-7.95106,13.84904-26.16389-2.03779-35.64459-6.22863-17.57013-7.76669-29.10105-7.44664-47.17948-9.97739-22.88234-3.20324-21.40258-30.59499,4.50965-32.99093Z"/>
  </g>
</svg>