<?xml version="1.0" encoding="UTF-8"?>
<svg id="a" data-name="Layer 1" xmlns="http://www.w3.org/2000/svg" viewBox="0 0 842.23828 1210.16567">
  <defs>
    <style>
      .b {
        fill: #fff;
      }
    </style>
  </defs>
  <g>
    <path class="b" d="M450.78383,1002.06115c1.78315-7.83127,6.72417-14.58445,9.42601-22.37659,4.76384-13.73897,5.88093-26.78491,3.50502-41.25059-6.11955,2.11848-17.21847,2.34613-22.58912,4.91159-4.53641,2.16696-14.49753,17.11058-19.09678,17.52359-5.96558.53572-16.1784-15.24347-20.91395-17.52118-5.26468-2.53221-16.58763-2.48366-22.58468-4.90866-4.65399,23.0419,3.56112,43.22805,14.0245,63.07668.00402,2.88354-13.65589-2.57666-15.09415-3.23918-19.43478-8.95242-35.83232-31.12529-36.66797-52.84073-.17467-4.53893,3.29499-21.04881,2.74541-22.08217-.90724-1.70586-11.02733-8.01099-13.55665-10.24496-29.62447-26.16528-43.37548-51.43228-32.03285-91.37188,1.25054-4.4034,6.759-15.76554,6.76615-18.63914.01613-6.48474-8.39335-11.14235-3.59194-21.32512,2.2198-4.70773,20.10318-16.83908,25.30395-19.98896,54.75498-33.16262,122.37884-35.43826,179.37366-6.16055,8.70839,4.47342,27.92234,16.09281,33.98429,23.17257,9.44016,11.02516-1.57414,16.48963-1.57461,24.30043-.00013,2.10742,4.83113,12.02384,5.84801,15.64187,12.38235,44.0562-.4475,66.27603-32.87223,95.45186-2.0201,1.81769-12.05823,8.43857-12.44362,9.10633-.52198.90442,2.46639,9.94254,2.71359,12.45622,3.0259,30.76981-19.92244,62.18645-50.67206,66.30857ZM339.71163,839.22488c-5.85738,16.41709-.98301,33.13067,9.46864,41.9968,12.10857,10.27169,27.73133-7.87199,16.03035-18.6057l-25.49899-23.3911ZM496.76818,878.74304c9.53577-10.03254,10.4425-27.21077,5.2411-39.514l-28.559,25.87708c-9.96497,9.02918-.24128,25.27352,12.39577,20.67657,4.12104-1.4991,7.90449-3.8648,10.92213-7.03965Z"/>
    <path class="b" d="M414.96857,655.12869c38.54674-1.53695,89.43907,11.4145,122.80822,30.77317,10.80375,6.26765,18.6263,10.66588,19.80455,24.41114.95477,11.13821-.03199,49.03808-8.06816,56.70683-2.17168,2.07238-2.90144,2.64292-6.03658,1.66035-23.84492-18.43641-51.04167-32.54163-80.61455-39.13811-46.64136-10.40374-95.4258-2.39493-136.8269,21.06582-9.97003,5.64971-18.85812,13.52732-28.8342,18.52714-5.10086-.22628-6.62132-6.57646-7.88396-10.55771-4.47858-14.12151-8.05626-46.68166-.89966-59.60607,4.29371-7.7542,21.75658-15.72783,30.06287-19.54576,29.70925-13.65568,63.64625-22.98732,96.48837-24.29681Z"/>
    <path class="b" d="M552.94797,680.39551c-3.86135,3.57676-11.94449-3.69066-15.87192-5.65564-69.38405-34.71431-135.38612-40.37756-208.144-10.74488-5.60767,2.28388-34.1572,17.7912-36.17145,17.75175-6.36792-.12471-7.09795-15.40405-6.96689-19.91861.48427-16.68235,6.3999-49.27332,21.22773-58.56728,61.20595-38.36335,149.14015-37.14859,213.50617-7.95296,10.44906,4.73956,22.08517,9.33499,27.07065,20.38034,4.95996,10.98881,14.23539,56.47649,5.34971,64.70728Z"/>
    <path class="b" d="M418.19865,495.5268c32.02934-.82312,83.67331,11.25529,109.05815,31.58132,11.44657,9.16544,14.19932,26.67091,15.2298,40.84863.41391,5.69481,2.34097,25.51658-6.79763,24.11998-70.24156-38.12172-154.04692-37.63717-224.8214-1.07893-6.73717-.00825-6.05959-4.55255-5.39239-9.78369,1.76692-13.85346,21.03239-51.771,31.10703-61.62778,13.51649-13.22421,62.55669-23.56971,81.61644-24.05953Z"/>
    <path class="b" d="M842.23828,727.06658c-22.46203-21.98877-41.15722-48.92701-57.17802-75.99718l-75.99307-32.55042c-9.66121,6.43778-19.46198,12.70337-29.33676,18.82338-4.6834,2.90259-13.17093,6.12348-16.8888,8.99356-3.4632,2.67349-7.68741,9.47902-10.92066,12.80483-19.59458,20.15554-38.5713,34.8173-62.54125,49.61562-2.51952,1.55547-17.42305,11.19141-18.8899,9.67881,2.72862-8.50176-5.25556-23.8013-4.34165-30.67425.40115-3.01679,16.99813-15.12267,20.52767-18.37512,20.41444-18.81179,37.03009-37.92296,49.29436-63.15942,20.71889-8.07576,41.28492-22.78596,61.54632-30.90177,14.21435-5.69363,23.09896,2.34024,35.83402,8.82702,25.2443,12.85855,49.81781,27.28549,74.87834,40.51382,14.25752,32.52698,30.9953,66.55788,34.00939,102.40111Z"/>
    <path class="b" d="M181.92014,647.59905c-3.06986-2.48017-11.06201-5.5976-15.09354-8.09997-11.23373-6.9728-22.42828-14.01318-33.63855-21.00928-24.30812,12.79591-51.09228,20.89966-75.47512,33.10961-14.84735,23.79725-32.30132,50.94257-51.77251,71.1687-.82839.86051-4.90644,5.50605-5.94042,4.29359,4.0203-35.9708,19.96572-69.26494,34.49182-101.91869,28.3828-15.08397,56.28235-32.19417,85.18515-46.38349,8.07487-3.96422,12.68618-7.94887,22.37089-5.07065l65.59708,33.61933c11.52452,23.33328,26.8431,42.26627,45.76553,59.92076,3.66696,3.42124,20.92638,16.26693,22.12086,18.88861,2.09066,4.58864-4.94156,23.08704-3.80765,29.59039.06086.94606-.8488,2.57851-1.60575,2.73468-3.63984.75098-52.21785-33.71289-58.18295-38.85585-10.18208-8.77874-21.28832-24.93747-30.01484-31.98773Z"/>
    <path class="b" d="M273.90495,651.57119c-.95816.70661-10.85118-7.34918-12.36214-8.65105-8.75952-7.54734-31.33353-27.73031-36.61613-36.71721-7.58615-12.90577-10.45169-42.08744-15.20635-57.04856l-32.56613-38.67167c-2.99654-.85956-34.93058,8.76315-41.0529,10.28939-12.54478,3.12729-25.25687,5.7842-37.90974,8.46282-17.68252,12.75518-34.74785,26.72181-52.99888,38.6678-4.80503,3.14507-11.79514,8.72765-17.15162,8.73077,14.38523-28.35894,35.24265-52.75778,56.60163-76.04548,20.26902-7.64314,40.26648-16.16793,60.67043-23.44722,10.06886-3.59215,32.34125-12.90404,41.90033-13.09748,9.67375-.19576,25.23045,18.5901,32.7656,25.2445,5.38725,4.75757,32.79671,26.62048,34.0687,30.67654.22852,11.00462-2.20347,21.94435-1.74624,32.98036.66105,15.95531,3.17684,28.89243,11.45327,42.46934,2.68154,4.39888,16.22418,20.76351,16.62303,23.3557,1.05677,6.86808-6.80664,24.52539-6.47287,32.80146Z"/>
    <path class="b" d="M814.20403,577.15968c-1.24855,1.2982-22.48704-13.47536-25.13903-15.29112-10.13655-6.94027-35.58667-28.87151-44.18994-32.37869-11.56699-4.71536-36.08589-8.23421-49.74735-11.72324-9.79438-2.50141-19.60784-5.25159-29.24449-8.29531l-32.59912,40.44432c-5.47428,15.08554-7.80311,44.3589-15.92999,57.40335-4.38995,7.04631-29.61515,29.91834-37.14886,36.18448-3.32779,2.76788-6.97222,5.22703-10.26127,8.0519-1.70176-.01543-6.43539-29.05811-8.09223-32.8527,6.73996-9.65928,15.16934-18.46726,20.67963-28.9515,11.55412-21.98363,5.75858-48.01011,7.00513-71.65064,12.23398-10.77245,24.7927-21.26436,37.04133-32.04802,5.93121-5.22182,17.48563-18.70974,24.30447-20.98071,7.89671-2.62995,19.34902,2.48103,27.19855,5.03579,27.49175,8.94766,54.03176,20.98491,81.11221,31.04466,12.40935,15.23732,26.13437,29.45585,37.56192,45.4773,2.44096,3.42223,19.52535,28.37125,17.44904,30.53012Z"/>
    <path class="b" d="M281.46067,778.82447c-6.65013.63864-12.99982-1.27428-19.4225-2.67419-15.74109-3.43099-31.02453-8.34282-44.76291-16.70768-7.2134-4.39201-17.46485-13.9466-23.93897-17.04143-6.50338-3.10883-23.93484-6.01149-32.40375-8.57665-9.33386-2.82714-18.38041-6.53741-27.56061-9.76765-24.19275,17.22386-50.13345,31.79242-75.17084,47.73661-11.79838,26.70561-26.41086,57.48258-44.81743,80.28024-1.16283,1.44023-3.73908,4.97923-4.65185,1.58294-.41013-1.52604.82058-13.27013,1.10218-15.91657,3.2027-30.09922,13.35719-59.20568,22.02369-87.9763,28.91016-20.74929,55.83827-45.71616,84.71988-66.26052,7.29242-5.18732,8.67153-7.02528,18.48602-5.76435l71.31361,18.18997c10.84424,15.68343,22.57203,28.88179,39.47591,38.17116,4.77165,2.62222,25.28446,10.50261,27.04091,12.86106,3.26037,4.37782,5.25234,25.51475,8.56666,31.86337Z"/>
    <path class="b" d="M810.65019,748.94804c10.7449,34.42459,22.74265,70.00982,22.96576,106.44676-1.23336,1.41273-5.13385-4.50631-5.82605-5.4864-17.09114-24.19948-32.3177-50.30644-42.65423-78.1301-25.38747-15.40086-51.17081-30.26988-75.41418-47.43461-10.68989,3.02709-21.03148,7.23806-31.64588,10.55956-8.14076,2.54743-21.15148,4.28151-28.07345,7.51478-10.88722,5.08545-22.60492,17.76283-34.99986,23.23543-5.9314,2.61882-15.4602,5.43106-21.87324,7.2444-4.87702,1.37901-29.5165,7.94175-32.3501,5.92309l8.5298-31.90025c27.60398-11.10358,51.5386-25.20716,67.63564-50.99181l72.23144-18.3545c5.00814-.72684,9.72908.14753,13.73191,3.2946l87.74245,68.07905Z"/>
    <path class="b" d="M447.3012,415.7056c17.48732-1.88893,42.1217,8.53995,56.46232,18.4252,14.94448,10.3015,40.63245,36.88379,39.77226,56.17532-.2541,5.69866-5.0358,29.92982-13.07191,28.09176-2.6344-.60255-16.60065-10.09695-21.06412-12.25625-41.45532-20.0549-85.31337-25.77895-130.03025-13.86608-7.44604,1.98367-17.86303,6.95173-24.5494,7.89759-3.40931.48228-3.41761-1.35802-3.30711-4.38814.37821-10.3707,28.16611-38.95204,36.70107-46.42958,12.83747-11.247,42.39321-31.84659,59.08713-33.64982Z"/>
    <path class="b" d="M671.60745,796.29834c1.41762-.19419,2.31555-.20022,3.73628-.00234,8.91076,1.24112,35.33132,23.51002,42.90077,30.51072,8.44784,7.81309,34.4947,34.99139,35.51715,45.43474,1.05136,10.73867-9.63141,6.29026-16.64996,6.8982-16.11502,1.39588-29.30815,6.04153-41.57812,16.65299-2.90452,2.51192-3.14395,7.58246-9.19815,3.89505l-35.40777-45.46609c-3.60798-4.57297-3.31522-10.66144-2.31003-16.12876,1.23918-6.74002,8.37681-26.35288,11.68676-32.52945,2.52361-4.70921,5.62411-8.48714,11.30305-9.26507Z"/>
    <path class="b" d="M560.77845,837.6061c-.34331-3.76492-2.14432-11.23134-3.08956-15.24377-1.57969-6.70558-8.89466-17.83095-1.53599-21.73573,6.53967-3.47019,31.2845-7.81161,40.00763-9.59921,10.29724-2.11018,34.31369-8.18196,43.41017-6.32097,6.03649,1.23497,11.55994,5.66812,12.76204,11.90082-4.54688,10.46417-10.54568,41.264-20.00182,46.767-17.45986,4.67362-35.2037,9.54774-52.99712,12.78721-2.57824.46939-18.55535,4.25668-18.55535.85641,0-6.16577.54455-13.44002,0-19.41177Z"/>
    <path class="b" d="M289.83534,801.73812c2.80057,3.13835-2.94645,13.48824-3.97683,17.61471-1.52628,6.11247-3.72668,15.53218-4.2607,21.61813-.55353,6.30822,3.57524,17.50265-3.85025,17.71226-19.97137-5.21885-44.38908-7.2535-63.63214-14.12-10.01848-3.5749-11.1258-11.74907-14.63036-20.95788-2.49635-6.55958-8.24859-21.73982-7.56293-28.07313,2.02674-18.72066,38.03311-7.92087,49.84126-5.57775,5.8691,1.16462,46.42422,9.93719,48.07195,11.78365Z"/>
    <g>
      <path class="b" d="M417.09554,311.00272c.7455,1.14713.97417,3.4173-1.23456,2.91004-51.0926-11.734-107.17577-61.07467-110.71493-115.77228-2.16743-33.49743,15.30972-87.32945,56.64402-83.6057,37.10091,3.34237,48.42065,44.33307,40.1413,75.69478-7.91845,29.99465-33.86438,35.27998-22.34582,72.58899,6.00536,19.45156,20.97533,32.39542,34.51845,46.41082.82539.85418,2.76441,1.42387,2.99153,1.77334Z"/>
      <path class="b" d="M547.02578,470.12246c-15.12896-30.51149-40.31363-50.65651-72.75695-60.41854-6.12527-1.84306-17.34348-.40004-14.38813-9.45972.83165-2.54945,10.85004-12.09463,13.52956-14.51612,11.36416-10.26984,52.29887-39.88106,66.39326-40.45877,18.02-.73861,48.94311,26.78455,59.76866,40.50383,5.81322,7.36712,12.43625,14.27977,10.33258,24.30167-2.56917,12.23949-27.28474,40.48695-37.24824,49.01717-4.4487,3.80875-20.04842,16.42563-25.63073,11.03048Z"/>
      <path class="b" d="M630.4979,383.74728c-15.94126,15.26274-17.58513,2.57755-27.1061-8.26437-10.26454-11.68863-22.69858-23.00868-36.49739-30.36536-3.39253-1.80869-18.26835-7.39607-18.88359-9.1553-.58743-1.67972-.3039-4.27936.0732-6.05537,1.45239-6.84029,22.9818-31.50043,28.67083-39.2656,5.23362-7.14357,14.84161-25.46931,21.39066-29.29562,14.72218-8.60152,53.66049,6.05477,66.17496,16.54194,11.03342,9.24605,9.48028,15.31805,6.80053,28.39433-4.92585,24.0365-22.85373,60.45233-40.62309,77.46536Z"/>
      <path class="b" d="M674.72638,265.13286c-1.4546,1.4643-5.41883,3.71642-7.46273,3.41958-2.95863-.42969-17.04882-9.42784-22.08412-11.42588-12.15011-4.82124-25.25854-7.41238-38.35-8.02256-10.49606-6.2591-4.4069-18.78981-4.00255-28.371.33421-7.91925.3185-16.90576.05474-24.83806-.34481-10.36949-5.24876-30.39077,1.02631-38.78678,9.5166-12.73318,45.76225-17.09,59.63594-11.09115,11.87385,5.13414,16.83458,28.65539,18.80708,40.50665,2.6103,15.68324,3.75319,67.15545-7.62467,78.60919Z"/>
      <path class="b" d="M424.64296,15.57321c19.51584-2.3699,32.20688,27.07879,35.54282,42.62552,1.45738,6.79195,3.33537,16.4777.82205,22.8739-2.79564,7.1147-15.76211,13.40402-22.10744,18.87105-8.78958,7.57296-14.86945,17.02314-22.60557,24.84542-13.43095,13.58054-14.58615,1.1908-24.32245-7.00444-8.67862-7.30497-21.16565-11.89457-32.48522-12.86846-5.92236-.50953-13.71879,3.59294-13.37422-7.07604.36315-11.24418,19.68817-39.20886,27.5423-48.04359,10.65528-11.9856,34.87179-32.26633,50.98771-34.22336Z"/>
      <path class="b" d="M583.20085,28.47747c12.60907-1.23397,34.76828,19.61169,42.83806,28.86812,13.03859,14.9559,26.12065,37.57922,31.83478,56.59651,1.62623,5.41227,5.54632,17.13656-1.13253,20.59177-.69775.36097-12.8197-.7385-15.70006-.61039-7.42912.33043-15.51571,1.96891-22.58136,4.30501-9.52573,3.14947-15.69218,11.02747-24.08586,1.46833-9.76008-11.11527-15.19576-26.57414-27.63286-39.22982-10.1245-10.30243-14.34034-6.83686-13.36309-25.24946.7602-14.32303,13.65204-45.15753,29.82291-46.74007Z"/>
      <path class="b" d="M481.8304.52073c21.7054-1.99362,60.17791,1.44619,77.7954,15.39478,12.15786,9.62595,3.2091,13.41137-1.89088,21.6862-4.19656,6.80902-7.63054,14.83247-9.81651,22.53644-2.4589,8.66583-.40216,20.14961-13.5075,19.89895-9.6974-.18548-20.96844-4.5967-32.46352-4.38948-8.57427.15457-28.46254,6.97628-31.51276-5.0507-4.26016-16.79779-3.16578-24.94328-12.31721-41.60436-1.79017-3.25918-8.6336-11.14337-8.25954-13.96052,1.33756-10.0735,23.68725-13.75032,31.97252-14.51131Z"/>
    </g>
  </g>
  <g>
    <path class="b" d="M565.0933,1209.11412c17.38345-16.10789,36.1923-31.02446,53.99719-46.82342,2.86624-4.36795-.55161-18.17067,1.17819-20.93452,1.24147-1.98359,26.95659-10.97339,30.63843-14.18597,2.01071-3.20513-12.08153-28.19413-10.12068-34.81838,1.57497-5.32065,34.54298-24.17198,39.55535-30.63574.46051-1.81492-9.84868-32.42454-11.48767-35.6432-.51665-1.01459.28044-1.73482-1.83557-1.34991-15.19961,16.26477-34.83655,31.01478-49.05971,48.00467-9.221,11.0147-18.96113,26.58122-27.00674,38.77758-7.24676,10.98538-14.55252,22.36496-20.48078,33.99051-4.05336,3.14886-3.36705-19.33606-3.26742-21.07207,3.83955-66.89855,40.66183-119.65576,69.24276-177.718,4.27607-5.85104,19.24047-14.45081,26.05891-18.15678,7.54305-4.0998,25.94181-10.29872,30.88051-14.41362,3.51813-2.93129,6.30717-9.42501,11.38887-13.41505,17.11943-13.4418,53.38889-17.71373,68.42778.54006,11.98858,14.5514,27.55545,57.78935,29.12718,76.55944,2.71451,32.41744-22.27022,89.18606-39.43673,116.9011-33.04887,53.35682-84.84439,89.90386-144.96152,107.39144-16.52377,4.80663-35.74539,9.84032-52.83835,7.00186Z"/>
    <g>
      <path class="b" d="M161.84256,1062.32312l40.38115,29.28124c.98248,1.46979.34243,2.81688.06778,4.31701-1.70063,9.28882-8.69818,21.75382-11.41621,31.22579,5.17662,3.35432,28.83196,10.99279,31.35781,14.49449,3.01894,4.18528-.59135,16.05929.50836,19.01003.71849,1.92784,21.77932,20.10112,25.27622,23.14658,8.44294,7.35298,17.33324,14.36044,25.89991,21.59829,1.59825,1.35034,5.96673,2.43525,1.66436,3.76039-14.37889,4.42874-51.67738-6.8436-66.63883-12.16648-57.59112-20.4894-106.24858-59.68258-135.80034-113.31732-13.07087-23.72287-34.89041-76.14836-33.22493-102.62238,1.20243-19.11353,18.28235-68.49152,31.63458-82.13168,15.65712-15.99474,52.74878-10.58218,68.64955,3.38112,4.00495,3.51695,7.67756,10.92393,10.84477,12.88072,16.57597,10.24112,45.49946,16.42047,57.29607,34.3706,26.47082,54.40673,56.90415,99.57769,65.39393,161.07667.53773,3.89527,4.81815,34.91466-.36049,34.84855-15.8448-22.43496-29.25212-49.67375-46.94354-70.58375-14.81316-17.50811-34.98311-33.73053-51.19347-50.15761l-13.3967,37.58774Z"/>
      <path class="b" d="M158.14145,898.15406c-7.53438,6.45614-10.50731-2.55743-16.51922-6.98-8.27889-6.09023-22.0974-10.94778-32.29887-11.91786-10.83889-1.0307-27.97367,4.82077-17.88508-13.83257,9.2148-17.03776,55.95427-63.1006,74.03768-68.31028,16.39652-4.7237,22.46764,19.88944,26.16749,32.17675,2.96271,9.83923,6.08892,15.88292.13676,25.39627-4.66594,7.45758-27.93183,38.57748-33.63875,43.46768Z"/>
    </g>
  </g>
</svg>