<?xml version="1.0" encoding="UTF-8"?>
<svg id="a" data-name="Layer 1" xmlns="http://www.w3.org/2000/svg" viewBox="0 0 873.86056 1143.03928">
  <defs>
    <style>
      .b {
        fill: #fff;
      }
    </style>
  </defs>
  <path class="b" d="M755.64388,777.74566c-3.22048,19.80952-6.62248,39.73998-8.76679,59.71983-7.90438,73.64999.32443,132.47337-49.68845,194.07665-118.18095,145.56917-386.13965,147.98654-511.58195,10.84341-58.06889-63.48536-50.31465-120.0304-58.25809-199.53344-2.17991-21.8179-5.90695-43.48738-8.66405-65.21518-74.07626-14.9663-122.63722-89.58977-94.68698-163.1612,3.41789-8.99668,9.53297-17.34884,10.52673-27.22711,2.08714-20.74675-10.55393-45.42863-16.46658-65.48685C-66.70053,234.22626,158.97028-1.82932,443.0927.01068c261.95827,1.69647,477.52914,215.08899,421.97072,484.27243-5.81043,28.15183-17.07367,53.15639-23.7494,79.79894-7.21144,28.7805,4.02672,35.18631,11.34183,59.82508,21.00144,70.73707-27.4058,139.11798-97.01198,153.83852ZM623.57504,819.40393c3.81951-21.51527,12.61163-41.9192,31.21286-54.54249,35.68894-24.21945,78.3967-11.57358,115.47582-30.20443,26.44457-13.2874,49.32354-43.75601,50.05123-74.03306,1.00045-41.62621-30.84954-54.01222-16.78017-106.25182,8.33049-30.93112,20.35976-57.54509,26.09751-90.39388C873.97586,210.1098,656.94131,30.76513,416.01938,40.98903,181.85472,50.92617-7.77034,243.13714,48.0135,484.28083c7.48091,32.33866,27.84839,72.13596,25.41742,104.09867-1.66855,21.93827-17.46229,39.47321-19.45218,61.44559-3.98276,43.97772,27.1734,80.06358,67.98,91.64787,30.13343,8.55436,61.41704,3.37266,89.90147,19.09174,22.36457,12.34185,34.14551,33.95954,37.70932,58.83509,81.2031,26.4052,171.20171,31.7336,256.06973,23.98088,39.90496-3.64533,80.1384-10.91399,117.93579-23.97675ZM716.63945,782.99838c-21.80456,2.23744-32.08868,13.91977-37.45134,34.28305-17.01869,64.62399-11.58702,121.40618-77.03081,161.36392-81.38524,49.69105-271.16936,50.00973-346.87801-11.26905-48.2312-39.03845-47.18978-94.1011-60.43259-148.83126-4.99882-20.65923-14.9667-33.32718-37.26709-35.54566,1.99014,22.49504,5.56096,44.90356,7.54047,67.40546,5.72915,65.12565-.45138,113.80198,45.86307,166.62447,102.36498,116.74918,327.75402,118.90336,438.7626,13.48029,60.58978-57.54114,52.30011-111.33738,59.35431-187.65378,1.84922-20.00588,4.73613-39.98589,7.53939-59.85744ZM249.31336,840.1512v38.28432c0,8.00781,20.90893,18.46529,27.76569,20.77503,3.54804,1.19518,7.44501,2.56872,9.44486-1.92792,1.0727-2.41196,1.12725-34.89232.58949-39.36213-.50416-4.19055-2.57453-7.96075-6.49824-9.68341-2.68417-1.17845-30.16778-9.23703-31.3018-8.08589ZM623.82749,840.1512c-7.50255,2.13226-32.13278,6.05628-35.47835,12.54012-.79371,1.53825-1.03986,2.4265-1.24201,4.15114-.51831,4.42206-.52153,39.76722.551,41.55079,2.3212,3.86003,7.68127.99844,10.65024-.16694,6.68972-2.62584,25.51912-11.70498,25.51912-19.7908v-38.28432ZM310.52403,855.48421c-4.38477.99323-5.73478,6.07852-6.17069,10.00625-.85067,7.66494-.75992,24.59825.0162,32.34452.51973,5.18729,1.91412,10.04737,6.78468,12.63249,4.20502,2.23187,27.62412,7.25393,32.6585,7.368,5.3887.1221,8.52619-2.89963,9.13626-8.1018.9916-8.45543,1.00197-31.50697.00048-39.94971-.40786-3.43831-2.5084-6.73525-5.46737-8.5566-3.01921-1.85843-27.09448-5.76383-31.8323-5.9837-1.74749-.0811-3.40143-.15004-5.12577.24056ZM522.67738,915.33902c.64728.64532,3.88301,2.07184,4.82541,2.23087,4.509.76088,27.16371-4.2179,32.1556-6.19351,7.05345-2.79151,8.54531-6.19055,9.16277-13.49159.50753-6.00109.77893-33.93869-.85726-38.04194-1.95853-4.91163-5.97817-4.77394-10.49723-4.58034-5.85044.25064-23.58969,2.79963-28.86936,4.58735-5.21958,1.76737-7.77911,5.74242-8.38072,11.03772-.981,8.63465-.85775,27.92946-.0586,36.72024.20682,2.27509.9269,6.14352,2.51939,7.7312ZM500.47537,866.33678c-1.05288-1.22003-6.14224-3.38868-7.86235-3.46857-8.63551-.40105-27.61688,1.01046-36.63894,2.06333-5.18315.60488-9.63364,4.97471-10.2538,10.24456-.99173,8.42718-1.00166,31.53555.0001,39.95009.6345,5.32966,4.91986,9.58469,10.44188,9.83481,7.90032.35784,23.12653-.61729,31.12237-1.78308,10.31642-1.50413,14.92017-3.27128,15.70746-14.50114.64512-9.20197.86909-25.54836-.03845-34.55872-.19904-1.9761-1.26575-6.37628-2.47825-7.78129ZM377.44001,864.10711c-9.84789,2.20565-5.90802,18.2934-6.09907,25.11241-.41929,14.96486-6.75425,31.0033,13.43041,33.96399,8.99526,1.31943,24.53263,1.94839,33.50246,1.13664,6.45478-.58414,8.59232-2.80225,9.17398-9.16667.82749-9.05437,1.16392-32.44028-.00361-41.07939-.70976-5.25186-5.17726-8.60572-10.27553-9.14442-12.11788,1.7746-28.17198-3.41094-39.72864-.82257ZM249.31336,908.6316c-.882,2.86576,0,16.1829,0,20.4902,0,9.52367,17.21292,24.12609,24.92365,29.01787,5.5342,3.51097,11.94775,7.71788,12.91424-1.99449.62399-6.27057.86484-29.81165-2.79662-33.99751-4.42995-5.06441-23.82556-8.5675-29.5967-14.66431-1.64344-.90398-4.89011-.65326-5.44456,1.14823ZM623.82749,907.01395c-1.89567-.31695-3.36293.26519-5.09397.8425-3.99209,1.33139-23.87738,10.56896-27.19636,12.72624-2.7842,1.80968-4.0436,4.1533-4.43023,7.43605-.44314,3.76261-.69577,32.06724.65511,33.03104,3.8382,2.73839,9.9444-1.66279,13.32671-3.96242,5.97142-4.05996,22.73874-19.67682,22.73874-26.88712v-23.18628ZM309.46386,929.8395c-1.31133.36509-2.69521,1.9787-3.39582,3.14806-3.15431,5.26475-2.32895,34.49333,1.02918,39.76898,2.86769,4.50518,15.45931,7.99161,20.77169,9.44094,6.00329,1.63783,21.96549,7.38614,24.58024-.70841,1.21861-3.7725,1.09787-31.11402.50064-36.21523-.51029-4.35861-3.0814-7.5385-7.32506-8.85724-7.58611.3228-30.50759-8.15104-36.16087-6.5771ZM565.18182,974.59165c.9759-.97201,2.52258-3.88473,2.87223-5.22048,1.47662-5.64102,1.4817-26.44068.7542-32.72492-.60514-5.22732-2.63766-7.37639-7.97434-6.91094-4.48268.39097-32.49203,6.1489-35.51554,7.72058-3.61263,1.87792-4.66231,5.02488-5.10203,8.92164-.64738,5.73697-.72467,30.13242,1.00255,34.58481,1.14399,2.94894,2.82228,4.44645,5.96802,4.84187,5.79602.72856,33.99002-7.22364,37.99491-11.21256ZM378.5282,940.66198c-4.16979.52665-6.80089,3.82854-7.27467,7.85184-.81388,6.91138-.94767,27.83764-.02817,34.57745,1.44729,10.60851,14.83437,10.40136,23.26114,11.2672,6.0437.62098,18.1609,1.77784,23.76056,1.11117,3.36997-.40121,7.04047-2.49134,8.3312-5.69479,1.47698-3.66573,1.462-32.69592.84184-38.02961-1.4048-12.08201-20.68185-8.65162-29.69315-9.15405-4.9049-.27348-14.91783-2.46989-19.19875-1.9292ZM490.86989,940.74093c-5.59496.20211-12.07341,1.44175-17.61462,1.85021-9.93861.73261-25.91419-3.33277-27.53638,10.23067-.85785,7.1727-.70421,23.99195-.01596,31.34143.66118,7.06045,2.77788,10.64262,10.24401,11.33382,6.28357.58172,17.26756-.41688,23.78842-1.13686,9.7275-1.07404,21.74818-1.11653,23.23608-13.4491.66156-5.48337.83063-28.41108-.25253-33.22822-1.36821-6.08488-6.7222-7.12714-11.84903-6.94194Z"/>
  <path class="b" d="M254.4879,414.48797c45.10279-2.55502,92.28293,17.45686,109.75161,61.17178,43.02096,107.65884-141.41089,253.00827-220.72714,133.19832-58.88723-88.95121,12.84844-188.81131,110.97553-194.3701Z"/>
  <path class="b" d="M604.17818,414.48816c103.78492-6.27304,189.16712,101.6774,125.21998,195.2182-59.79465,87.46661-171.10045,30.95041-211.52615-43.83119-40.17528-74.31835,3.94019-146.40859,86.30616-151.38701Z"/>
  <path class="b" d="M432.49311,588.04675c9.29403-1.91302,15.64277,3.01756,22.39324,8.41096,18.08851,14.45208,47.60469,50.08587,55.64091,71.65833,20.43091,54.84484-36.64052,105.53169-73.95678,49.11481-16.49914,28.42127-49.3685,34.92605-68.97393,5.27062-18.8379-28.49445-5.88546-58.0327,11.86504-82.84498,8.33632-11.6528,39.99852-48.92712,53.03151-51.60975Z"/>
</svg>