<?xml version="1.0" encoding="UTF-8"?>
<svg id="a" data-name="Layer 1" xmlns="http://www.w3.org/2000/svg" viewBox="0 0 1234.33814 1224.23232">
  <defs>
    <style>
      .b {
        fill: #105f2d;
      }
    </style>
  </defs>
  <path class="b" d="M219.03961,977.91519c7.14085-36.27115,2.28359-74.95508-5.59402-110.78415-17.76953-80.81959-65.86079-168.57903-127.24102-224.32764-4.08946-3.71426-16.98577-15.57465-21.54951-16.19559-15.69355-2.13526-38.75982,2.84451-53.72226-.19932-13.72162-2.79141-15.11611-25.17849-.81839-29.44227l55.51947-.55896c53.03331-39.91177,95.11742-99.07835,121.56851-159.90209,24.47493-56.27961,39.82623-121.44898,31.60439-182.97066l-40.17963-39.62491c-6.27817-14.50365,9.32935-27.83615,22.76003-19.52417l39.56016,37.00852c49.90107,7.07293,101.78874-2.83317,149.36789-17.75638,83.15681-26.08215,161.11974-75.74514,211.6317-147.48597,2.5672-16.43428-2.65759-40.02452.50553-55.5729,2.92653-14.38538,26.90617-13.82172,29.70215.00016,3.15205,15.58207-2.05301,39.11481.50569,55.57275,55.98506,78.91545,145.88212,130.86889,238.69812,154.92935,39.05707,10.12467,81.76639,16.8572,121.86266,9.8742,13.84234-8.21998,27.40696-29.87759,40.44161-37.20579,13.07921-7.35325,29.03903,6.49762,21.69956,20.62084-6.09739,11.73311-30.77538,26.65365-39.08977,38.55791-6.94525,35.05571-2.00531,72.76453,5.97043,107.36641,20.86118,90.504,72.61401,179.61061,146.90254,235.94062l55.36169.71675c13.87549,6.30196,12.65657,23.69163-1.09305,29.19626l-54.46951.53049c-60.60309,46.06247-106.57104,116.72752-132.15152,188.14262-18.27228,51.0122-29.54295,108.10659-22.0703,162.30718,9.79491,9.53945,20.48021,18.44711,30.20735,28.02794,3.09315,3.04662,9.19097,8.31313,10.46549,12.18055,4.89014,14.83865-8.76282,24.33525-22.11099,18.8771l-40.71578-38.01011c-47.9961-7.73631-98.23112,1.24925-144.22902,15.32099-83.91456,25.67126-163.77537,75.2742-215.67951,146.67345l-.73908,55.33936c-5.18364,12.07632-26.69525,11.69882-29.46876-1.92331-2.90019-14.24434,1.60036-36.33139-.22285-51.54186-.60682-5.06248-14.67812-21.70982-18.88135-26.41277-49.69275-55.6008-116.56164-95.77377-187.16454-119.10999-48.94674-16.17826-101.8199-25.92775-153.40407-18.68303l-39.66726,36.90131c-13.21415,8.82502-29.80962-2.59172-23.54576-18.15277,1.5268-3.79297,8.05016-9.45134,11.18889-12.53737,9.08307-8.93053,18.93605-17.49703,28.28409-26.16275ZM602.20557,237.88085v-121.32354c-62.07293,66.88013-143.93014,113.87629-232.71635,135.56799-30.20581,7.3797-61.79478,12.76574-92.96965,12.18791,26.80355,27.245,55.23405,52.99509,83.11804,79.17482,78.40853,12.84269,175.34089-24.84304,226.94344-84.56503,2.32308-2.6886,15.20697-19.13211,15.62453-21.04214ZM632.40165,119.25339v118.62746c51.94755,74.12226,153.78351,118.78513,243.69656,105.65734l81.98944-79.22498c-45.06537-.11277-90.76207-10.17399-133.20628-24.79442-71.74683-24.71408-138.23122-66.25556-190.32286-121.35427-.56847-1.0188-2.08604.80345-2.15686,1.08887ZM114.75456,596.4593h125.63726c69.26368-49.81306,111.61559-146.62283,96.54851-231.35245l-84.13577-79.23552c-1.33978,116.68194-56.56906,229.31294-138.05001,310.58796ZM1119.85266,596.4593c-62.01426-62.15822-107.47791-140.58231-127.80898-226.45575-6.5123-27.50636-10.84823-55.73055-10.24103-84.13222l-84.63232,79.8174c-12.85738,85.65197,27.25435,180.17453,97.04506,230.77056h125.63726ZM632.40165,286.94948v110.53922c0,3.70985,22.1952,27.16494,26.39378,30.76309,27.21242,23.32083,68.5708,32.70101,102.97144,23.11193l77.69109-73.81298c-8.65076-1.64194-17.54491-1.22093-26.28135-2.30758-66.83686-8.31326-133.18828-41.1375-180.77496-88.29368ZM602.20557,398.56713v-110.53922c-54.47854,54.42096-128.88629,85.92012-205.98037,89.52034,4.53391,5.27132,9.50066,10.31144,14.53034,15.11596,21.30614,20.35235,43.20395,40.39487,65.00016,60.09789,50.21835,10.49037,99.2102-11.61618,126.44987-54.19496ZM289.46045,596.4593h114.85295c.85217,0,12.31896-8.34125,13.98763-9.73786,32.38543-27.10512,46.91479-73.06909,33.93933-113.67931l-80.80834-75.01393c.56985,73.46794-31.91804,145.81193-81.97158,198.43109ZM945.14677,596.4593c-5.43875-7.57567-12.49517-13.79414-18.30353-21.05922-39.79804-49.7793-63.16573-113.27106-63.66804-177.37188l-80.25417,75.5681c-11.27626,40.52028,1.46916,84.75569,33.38228,112.04958,1.83885,1.57269,14.0624,10.81341,15.06894,10.81341h113.77452ZM602.20557,574.89067v-128.33334c-25.83759,22.80063-57.70715,38.17332-92.74479,38.83434l92.74479,89.49901ZM632.40165,449.25341v122.94118c0,.12418,1.56762,2.15725,2.15686,1.08887l91.67759-87.36334c-29.92136-1.8986-57.80298-12.86561-81.87844-30.28939-2.64845-1.91673-8.51144-8.15142-10.35273-9.06454-1.79482-.89007-1.54969,1.81818-1.60327,2.68721ZM783.38205,596.4593c-21.855-23.96233-35.16922-55.86325-35.59903-88.43108l-91.65588,88.43108h127.25491ZM579.55851,596.4593l-91.65589-87.35266c-.58971,32.49307-14.03765,62.73611-34.52059,87.35266h126.17648ZM240.39182,626.65538h-125.63726c81.68704,83.96207,138.64762,197.90767,139.12844,317.05855l83.47809-78.81477c16.63969-88.71275-25.25739-185.22279-96.96927-238.24379ZM405.39183,626.65538h-117.00981c52.38933,53.88611,85.12853,126.60933,84.12844,202.74482l80.39279-77.58634c15.33153-46.92429-6.90074-98.93242-47.51142-125.15848ZM580.63694,626.65538h-128.33334c22.06485,24.37545,35.17702,55.37162,36.6772,88.43134l91.65614-88.43134ZM783.38205,626.65538h-129.41177l92.73432,89.50952c.75935-33.19765,13.80395-65.56931,36.67745-89.50952ZM945.14677,626.65538h-114.85295c-41.56416,26.5559-63.01551,78.64775-47.49381,126.21931l79.29675,76.52551c.11039-75.68796,31.2498-148.4677,83.05001-202.74482ZM1119.85266,626.65538h-126.71569c-70.82928,53.65904-110.24534,148.84679-97.04293,237.23902l84.63018,79.81954c-.37493-58.42141,15.3212-116.94185,38.64138-170.04559,24.04748-54.75991,58.96014-104.25824,100.48706-147.01296ZM602.20557,776.55735v-126.17648l-91.66646,88.42067c34.07747,1.22527,66.81233,14.55514,91.66646,37.7558ZM632.40165,650.38087v123.4804c0,.15685,1.30061,2.83536,1.61229,2.69087,24.09096-23.99378,57.52181-35.98197,91.14372-38.27917l-92.75601-87.89211ZM602.20557,941.55736v-115.93138c0-1.12169-11.16311-16.2172-12.97027-18.30424-27.89605-32.2163-73.90404-45.41102-114.85277-32.95017-26.88873,25.74878-54.35704,51.00512-80.31394,77.66519,77.69681.36826,154.26913,34.36346,208.13698,89.5206ZM632.40165,825.62598v113.2353c0,.12417,1.5676,2.15724,2.15686,1.08887,53.59087-53.55018,129.52059-87.83366,205.98011-87.91339l-79.23362-77.66707c-41.4981-12.60356-87.12896,1.1313-115.43827,33.44686-1.76341,2.01296-13.18515,16.72876-13.46509,17.80943ZM602.20557,1109.79267v-118.08824c-50.207-74.87093-153.03721-121.65977-242.56443-105.60363-27.02284,25.97912-54.51462,51.57862-80.96471,78.09285,121.72455,3.79318,239.41967,58.81135,323.52914,145.59903ZM955.93079,964.19364c-19.84186-19.45468-39.63304-39.15324-59.82421-58.25296-3.6675-3.46925-20.06874-19.47087-22.70214-20.43512-4.80608-1.75979-19.10469-3.02357-24.73266-3.30657-77.44054-3.89399-173.44471,43.80461-215.68495,109.01219.64387,35.71753-2.85736,73.9997-.63644,109.46561.17349,2.77053.68954,5.33511,1.1413,8.03633,11.92069-10.47472,22.98402-22.01677,35.06392-32.32531,78.48836-66.97903,183.72488-109.17464,287.37517-112.19417Z"/>
</svg>