<?xml version="1.0" encoding="UTF-8"?>
<svg id="a" data-name="Layer 1" xmlns="http://www.w3.org/2000/svg" viewBox="0 0 1234.33814 1224.23232">
  <defs>
    <style>
      .b {
        fill: #e9b22b;
      }

      .c {
        fill: #1e1e1e;
      }
    </style>
  </defs>
  <rect class="c" width="1234.33814" height="1234.33814" rx="239.54655" ry="239.54655"/>
  <path class="b" d="M252.32479,947.33296c6.54384-33.23874,2.09268-68.68854-5.12634-101.52216-16.28392-74.06275-60.35457-154.48517-116.60317-205.57297-3.74757-3.40373-15.56569-14.27255-19.74789-14.84157-14.38151-1.95674-35.51934,2.6067-49.23087-.18265-12.57444-2.55803-13.85235-23.07347-.74997-26.98078l50.87783-.51223c48.59952-36.57499,87.16523-90.79501,111.40491-146.53365,22.42873-51.57441,36.4966-111.29537,28.96214-167.67359l-36.82046-36.31211c-5.75329-13.29109,8.54938-25.50894,20.8572-17.89187l36.25277,33.91446c45.72915,6.48161,93.2788-2.59631,136.88015-16.27188,76.20458-23.90158,147.6495-69.41255,193.93846-135.15557,2.35257-15.06031-2.43541-36.67831.46327-50.92679,2.68186-13.1827,24.65671-12.66617,27.21894.00014,2.88853,14.27935-1.88137,35.84466.46341,50.92665,51.30449,72.31781,133.6858,119.92774,218.74203,141.97665,35.79174,9.27821,74.9304,15.44787,111.67446,9.04868,12.68507-7.53275,25.11563-27.37971,37.06053-34.09524,11.98574-6.73849,26.61125,5.95439,19.88539,18.89686-5.58763,10.75218-28.20244,24.4253-35.82172,35.33432-6.3646,32.12491-1.83765,66.68113,5.47128,98.39016,19.11711,82.93752,66.5432,164.59446,134.62091,216.21507l50.73324.65682c12.71544,5.77509,11.59843,21.71092-1.00167,26.75534l-49.91565.48614c-55.53644,42.21146-97.66129,106.96864-121.10314,172.41316-16.74464,46.74738-27.07304,99.06845-20.22513,148.73766,8.97602,8.74192,18.76798,16.90486,27.6819,25.6847,2.83455,2.79191,8.42257,7.61812,9.59054,11.16221,4.4813,13.59808-8.03022,22.30072-20.26242,17.2989l-37.31178-34.83232c-43.98344-7.08952-90.01861,1.1448-132.17091,14.04009-76.89898,23.52504-150.08311,68.98098-197.64786,134.41098l-.67729,50.71277c-4.75026,11.06669-24.46342,10.72075-27.00506-1.76252-2.65773-13.05346,1.46656-33.29395-.20422-47.23276-.55608-4.63924-13.45097-19.89479-17.30279-24.20456-45.53824-50.95235-106.81663-87.76671-171.51685-109.15193-44.85461-14.82569-93.30736-23.76009-140.57889-17.12105l-36.35092,33.81622c-12.10939,8.08721-27.31742-2.37504-21.57724-16.63513,1.39915-3.47586,7.37713-8.66117,10.25346-11.4892,8.32369-8.18391,17.35292-16.03421,25.91943-23.97544ZM603.45658,269.16838v-111.18042c-56.88339,61.28869-131.89702,104.35579-213.26035,124.23397-27.68049,6.76273-56.6285,11.69847-85.19703,11.16895,24.56267,24.96721,50.61627,48.56449,76.16905,72.55549,71.85327,11.76899,160.68171-22.76607,207.97008-77.49506,2.12886-2.46382,13.93561-17.53259,14.31826-19.28294ZM631.12815,160.45864v108.70974c47.60453,67.92535,140.92661,108.85422,223.32257,96.82397l75.13481-72.60146c-41.29773-.10334-83.17401-9.3234-122.06971-22.72151-65.74851-22.64789-126.67455-60.71634-174.41113-111.20858-.52094-.93363-1.91164.73628-1.97654.99784ZM156.75838,597.76828h115.1335c63.47296-45.64849,102.28409-134.36459,88.47668-212.01048l-77.10169-72.61112c-1.22777,106.92687-51.83966,210.14148-126.50849,284.62159ZM1077.82635,597.76828c-56.82962-56.96155-98.49233-128.82908-117.12365-207.52316-5.96785-25.20672-9.94128-51.07125-9.38484-77.09844l-77.55672,73.14435c-11.78246,78.49113,24.97578,165.11123,88.93172,211.47724h115.1335ZM631.12815,314.13468v101.29771c0,3.39969,20.33959,24.89385,24.18715,28.19117,24.93736,21.37111,62.83801,29.96707,94.36263,21.17968l71.19581-67.64192c-7.92753-1.50467-16.07808-1.11886-24.08412-2.11466-61.24903-7.61824-122.05321-37.69824-165.66147-80.91199ZM603.45658,416.42067v-101.29771c-49.92392,49.87115-118.11089,78.73686-188.75961,82.03609,4.15486,4.83061,8.70637,9.44937,13.31555,13.85221,19.52487,18.65082,39.59193,37.0177,59.56589,55.07347,46.0199,9.61334,90.91584-10.64502,115.87817-49.66405ZM316.85817,597.76828h105.25079c.78093,0,11.28905-7.64389,12.81821-8.92373,29.67788-24.83902,42.99253-66.96023,31.10187-104.17527l-74.05245-68.74247c.52221,67.32573-29.24957,133.62148-75.11843,181.84148ZM917.72655,597.76828c-4.98405-6.94232-11.45053-12.64089-16.77328-19.29858-36.47076-45.61755-57.88483-103.80116-58.34515-162.54289l-73.54461,69.25031c-10.33352,37.13262,1.34634,77.66979,30.59139,102.6818,1.68511,1.4412,12.88672,9.90937,13.80912,9.90937h104.26252ZM603.45658,578.00287v-117.60417c-23.67747,20.8944-52.8826,34.98188-84.99097,35.58763l84.99097,82.01654ZM631.12815,462.86937v112.66282c0,.1138,1.43656,1.9769,1.97654.99784l84.01298-80.05942c-27.41982-1.73987-52.97042-11.78999-75.03308-27.75708-2.42703-1.75648-7.79985-7.46993-9.48721-8.30671-1.64476-.81565-1.42013,1.66618-1.46923,2.46255ZM769.486,597.76828c-20.02784-21.95898-32.22893-51.19287-32.62281-81.0379l-83.99309,81.0379h116.6159ZM582.7029,597.76828l-83.9931-80.04964c-.54041,29.77653-12.86405,57.49113-31.63453,80.04964h115.62763ZM271.89187,625.43985h-115.1335c74.85768,76.94252,127.05613,181.36181,127.49676,290.55122l76.49899-72.22554c15.24855-81.29602-23.14577-169.73744-88.86226-218.32567ZM423.09724,625.43985h-107.22733c48.00938,49.38102,78.01145,116.02429,77.09497,185.79456l73.67164-71.09981c14.04975-43.00123-6.32382-90.66128-43.53928-114.69475ZM583.69117,625.43985h-117.60417c20.22014,22.33757,32.23608,50.74233,33.61084,81.03814l83.99333-81.03814ZM769.486,625.43985h-118.59244l84.98137,82.02618c.69587-30.4222,12.64988-60.08746,33.61107-82.02618ZM917.72655,625.43985h-105.25079c-38.08923,24.33572-57.74717,72.07249-43.52314,115.66688l72.66724,70.12768c.10116-69.36015,28.63719-136.05522,76.1067-185.79456ZM1077.82635,625.43985h-116.12177c-64.90768,49.17293-101.02839,136.40261-88.92976,217.4049l77.55477,73.14631c-.34359-53.53715,14.04029-107.16505,35.41081-155.82912,22.03701-50.18177,54.03084-95.54185,92.08595-134.7221ZM603.45658,762.80943v-115.62763l-84.00279,81.02836c31.22846,1.12284,61.22655,13.33827,84.00279,34.59927ZM631.12815,647.18179v113.15696c0,.14373,1.19188,2.59831,1.4775,2.46591,22.07686-21.9878,52.71276-32.97374,83.52375-35.07888l-85.00125-80.54398ZM603.45658,914.01479v-106.23906c0-1.02791-10.22983-14.86138-11.88591-16.77393-25.56383-29.52289-67.72537-41.61448-105.25063-30.19541-24.64073,23.59608-49.81258,46.7409-73.59938,71.17208,71.20105.33747,141.37163,31.49054,190.73591,82.03632ZM631.12815,807.77573v103.76839c0,.11379,1.43654,1.97689,1.97654.99784,49.11046-49.07318,118.69216-80.49043,188.75937-80.56349l-72.60938-71.1738c-38.0287-11.54986-79.84464,1.03672-105.78718,30.65057-1.61598,1.84467-12.08282,15.33017-12.33935,16.32049ZM603.45658,1068.18497v-108.2156c-46.0095-68.61143-140.2427-111.48854-222.28509-96.77476-24.76363,23.80716-49.95699,47.26645-74.19575,71.56398,111.5479,3.47606,219.40325,53.89449,296.48084,133.42638ZM927.60899,934.75859c-18.183-17.82819-36.31956-35.87988-54.82267-53.38279-3.36088-3.17921-18.39091-17.84303-20.80415-18.72666-4.40428-1.61266-17.50746-2.77079-22.66491-3.03013-70.96621-3.56844-158.94406,40.14237-197.65284,99.89834.59004,32.7314-2.61848,67.81304-.58323,100.31386.15899,2.5389.63189,4.88907,1.04588,7.36446,10.92407-9.599,21.06247-20.17608,32.13244-29.62279,71.92642-61.37932,168.36476-100.04721,263.34949-102.8143Z"/>
</svg>