<?xml version="1.0" encoding="UTF-8"?>
<svg id="a" data-name="Layer 1" xmlns="http://www.w3.org/2000/svg" viewBox="0 0 756.70618 1064.80813">
  <defs>
    <style>
      .b {
        fill: #0e0e10;
      }
    </style>
  </defs>
  <path class="b" d="M325.84544,825.85281c4.3898-3.09768,4.00481-48.66899,4.36706-56.55681,1.44098-31.37621,3.94664-57.57043-1.37464-89.12465-1.52883-9.06571-7.70347-20.93047-1.81046-28.37497,4.61736-5.833,24.58739-11.71613,32.67274-16.93432,16.25453-10.49049,15.15216-19.48626,22.12598-35.03088,26.03962-58.04221,71.66676-72.2782,119.1799-106.21227,24.61711-17.58164,40.34385-36.86215,68.43322-51.27267,48.69228-24.98032,82.56983-37.14864,119.90637-80.68188,12.41005-14.46973,20.80226-35.75129,43.73494-32.8853,28.71729,3.58891,24.07682,45.09026,22.06803,65.25689-13.84994,139.04224-118.64973,229.03932-255.04942,239.95062-36.37961,2.91019-58.92329-7.83276-76.94361,30.89953-20.34334,43.72529-22.15808,96.00847-19.57616,143.28885.51281,9.39067-1.35481,20.20242,3.89861,28.51803,2.2016.32464,3.6579-.96616,5.273-2.11696,8.92895-6.36207,22.31875-47.91624,29.47822-61.10645,44.94368-82.80169,133.65066-103.24038,221.46269-87.36792,15.0674,2.72351,46.60961,6.86551,45.05386,28.11691-.61409,8.38846-13.56191,33.89545-18.10682,42.3666-39.80196,74.18587-107.95385,135.76224-197.94049,125.31386-17.60342-2.04394-34.52915-7.5975-51.91949-10.65158-18.53506,4.15553-32.2197,28.27988-34.92253,45.9474-5.93238,38.77793-4.09713,83.39313-24.46109,118.97029-13.4451,23.48947-45.03013,38.88854-68.90598,20.55082-22.47005-17.258-9.29674-37.06448-3.26542-58.21242,8.34539-29.2619,23.84227-86.4106,10.44656-113.96873-5.75547-11.84035-16.54324-26.07099-30.97443-25.18185-16.10819.99246-37.01964,9.77774-55.09147,11.76652-95.59167,10.51976-178.45606-69.69602-211.22131-153.02297-12.96024-32.95985,10.95947-36.66406,36.96468-41.72386,94.41466-18.37012,180.3437.92358,230.11328,88.46946,7.47686,13.15198,21.45473,53.97177,31.57042,60.09045,1.26731.76656,3.62482,1.75926,4.81379.92026Z"/>
  <g>
    <path class="b" d="M161.79891,75.68628c16.56618-1.69701,39.99316,2.05353,54.46787,10.68356,13.16425,7.84871,8.39001,15.01705,8.25941,27.23988-.15752,14.74233,1.53832,24.9089-4.07494,39.06225-8.26271,20.83372-19.84649,33.18723-21.74923,58.0547-6.64737,86.87675,69.39248,101.9034,126.04483,142.45725,46.74193,33.45961,85.9136,86.70842,77.46961,147.33171-1.35685,9.74143-7.37073,38.81688-20.63181,37.50029-4.59819-.45652-19.55643-19.21911-24.9296-23.70098-35.06497-29.24833-85.34629-33.13362-124.45107-56.72542-43.83445-26.44519-53.46976-54.22953-79.43982-94.18764-30.8818-47.51542-75.57217-54.99483-87.2854-120.85187-11.32861-63.69453,23.13273-159.36655,96.32015-166.86374Z"/>
    <path class="b" d="M24.80306,316.1404c28.45207-4.14783,72.87241,24.49942,91.40062,44.99844,14.15719,15.66306,22.30431,35.17157,33.50721,52.7673,22.77509,35.77151,53.7489,62.54324,92.46354,80.08549,37.33406,16.91669,131.82757,33.73091,115.32218,93.37276-12.77931,46.17774-88.53515,47.32756-126.48049,40.72674C101.96228,605.64143,6.11864,497.21527.21252,366.05155c-.87587-19.45134-.15643-46.30347,24.59054-49.91116Z"/>
    <path class="b" d="M540.21081,213.06316c-2.76611,2.35156-6.80974,3.15007-10.1685,1.68653-1.66791-.72677-19.00908-17.12939-21.32046-19.65842-9.40849-10.29445-12.83619-22.55792-19.75052-34.17105-41.65304-69.95938-135.9706-78.52974-204.0318-44.0541-5.36909,2.71965-15.8838,10.51774-20.42516,11.95411-14.42417,4.56215-12.48847-23.30582-11.89062-31.3287,10.37707-139.25429,300.2406-127.53303,309.54809,23.65955,1.51302,24.57769-.81894,49.80937-10.6491,72.49432-1.95012,4.50026-7.94301,16.55373-11.31194,19.41776Z"/>
    <path class="b" d="M350.52457,125.2943c64.5464-5.88574,129.38522,29.76449,124.29076,101.64369-4.07921,57.55479-79.31914,96.98074-125.65991,60.85697-35.69394-27.82431-15.42116-80.15885,25.28799-68.42518,10.2224,2.94642,21.79162,17.35295,32.44675,6.5058,10.38599-10.57316-2.55189-23.22746-11.90806-28.12299-32.14628-16.82027-76.38413-3.39208-89.27027,31.55253-11.93082,32.354,3.30242,65.86069,31.10657,83.76804,3.83263,2.46842,19.13626,9.23282,20.28173,10.98397,4.54001,6.94065-5.58326,12.03857-11.44343,9.3001-23.89638-17.86719-51.95892-30.10634-76.77899-46.16692-92.33498-59.74818,4.10808-154.82553,81.64686-161.896Z"/>
    <path class="b" d="M600.67158,114.44265c6.10629-.94224,20.01637,2.51212,26.38617,4.37155,68.44139,19.97894,93.34578,100.14308,74.95153,163.84714-12.46688,43.17603-48.1559,81.73036-85.40597,105.4764-7.8097,4.9785-38.70675,22.77867-46.3362,21.55865-2.60609-.41674-5.86032-4.39473-5.88773-7.00024-.0421-4.00174,5.04682-18.14342,6.05314-24.06253,4.70311-27.66332,3.49659-60.01452-2.57849-87.38039-3.32441-14.97518-9.23827-28.97836-13.21861-43.7211,1.37655-9.84236,9.24258-16.58767,14.16789-24.74342,11.68857-19.35494,20.04647-46.63531,21.40067-69.18758.73568-12.25175-5.49932-36.69467,10.46761-39.15848Z"/>
    <path class="b" d="M513.07868,245.16181c6.74427.43049,11.63855,9.9779,14.37807,15.31221,24.15817,47.04015,23.4211,116.51777-1.81891,162.87473-16.5573,30.4099-49.92353,58.3454-81.04965,73.16687-20.42673,9.72669-13.14583-16.81813-14.17568-30.07578-2.33411-30.04791-17.41114-60.78198-34.99689-84.709-9.87432-13.4349-25.87367-20.05385-5.75174-33.9639,43.26915-29.91143,74.66793-28.16346,104.69929-80.79092,4.39649-7.70447,7.08349-22.55671,18.71551-21.81423Z"/>
  </g>
</svg>