<?xml version="1.0" encoding="UTF-8"?>
<svg id="a" data-name="Layer 1" xmlns="http://www.w3.org/2000/svg" viewBox="0 0 932.35097 1182.90961">
  <defs>
    <style>
      .b {
        fill: #0e0e10;
      }
    </style>
  </defs>
  <path class="b" d="M332.23883.92737c39.79475-3.06612,64.86084,15.66604,99.14556,28.54264,75.84909,28.48728,127.09899-57.14857,202.17972-19.9248,33.89434,16.80425,35.39675,40.78145,45.13404,72.41498,6.72667,21.85293,24.43164,33.31504,26.75603,59.5188,5.02189,56.61387-53.36828,89.38362-97.26946,109.51186-97.67102,44.78116-187.13802,44.16102-284.74374-.34214-46.47582-21.19057-107.30771-56.7094-95.10948-117.45224,4.32664-21.54513,19.08752-32.15375,24.86798-50.62222,2.87906-9.19856,3.8041-18.99564,7.25549-28.33275,11.78891-31.89278,37.8551-50.69999,71.78386-53.31414ZM309.26923,179.6244c4.66358.72396,10.77443-.52516,15.63726,0-.10641-1.89145-3.23298-.99099-5.09539-1.91382-14.25389-7.06282-19.76915-22.16727-18.66879-37.48818,1.98122-27.58564,30.25245-43.34792,49.11274-18.83878.61255-15.57459-14.65435-36.2654-31.32591-36.69602-42.29193-1.09238-52.45521,88.29337-9.6599,94.9368ZM608.53937,179.61344c45.66369,5.93466,52.6281-53.42965,30.16714-81.3871-23.60452-29.38084-54.38544-5.52126-58.229,24.76475l11.8249-10.82374c36.15938-15.0305,50.87286,37.97155,28.67203,59.94655l-12.43507,7.49953ZM331.09242,122.6937c-12.60292,1.235-11.49794,21.76492,1.33211,24.1425,16.87034,3.12631,12.68573-25.51615-1.33211-24.1425ZM591.61403,144.77543c10.93267,10.22306,28.06443-12.24849,13.59385-20.59213-11.78163-6.79321-22.1608,12.58123-13.59385,20.59213ZM397.9903,200.32594c-18.72133,2.56311-6.17017,25.10195,6.68938,28.39756,26.76116,6.85829,12.05311-30.96357-6.68938-28.39756ZM514.98484,227.87125c8.9596,8.42833,37.43977-11.72816,26.71416-24.01-12.58596-14.41211-37.195,14.15063-26.71416,24.01Z"/>
  <path class="b" d="M682.94583,316.57426c13.52406-3.2271,26.34699-9.67344,39.9042-13.46712,35.06372-9.81179,72.80974-12.94239,108.07341-2.39183,3.01216.90121,11.48925,3.11759,13.21916,5.11417,3.58154,4.13363,1.13343,23.3242.25456,29.31497-.68308,4.65615-7.11511,33.2145-10.08238,34.20042-1.27672.42421-17.02727-5.46726-20.41733-6.30945-41.49837-10.30936-96.07095,1.70976-130.65126,26.64435-2.35364,1.69713-10.19463,7.29766-11.0756,9.4201-.85601,2.06229,1.10278,1.70208,2.46727,1.39201,8.02309-1.82319,17.03325-5.94901,25.33012-8.10994,34.55831-9.00072,68.67054-12.86768,103.50824-2.74882,3.43466.99762,18.67122,5.98745,19.52834,8.55783,1.25979,3.77791-7.1288,19.31772-9.38309,23.72684-5.96481,11.66642-13.20943,22.89015-20.32794,33.85917-48.06474-17.95198-108.00501-6.98063-145.93071,27.43114.70721,1.15349,3.40058.50878,4.5845.27075,8.02999-1.61447,17.11144-5.68722,25.80315-7.62812,27.14188-6.06092,56.7645-8.02857,83.66688.05689,3.50511,1.05345,14.66191,3.54626,13.73283,7.92379-.67922,3.20027-16.30054,23.63193-19.52208,27.83811-2.75091,3.5917-17.74167,23.38991-19.86351,24.35679-3.75819,1.71253-16.81593-2.29062-22.0974-2.66255-23.07098-1.62473-55.41225,6.73567-73.76501,21.10926-2.15795,1.69007-11.15658,9.1815-4.64362,8.33008,7.23747-.94613,16.025-4.83644,23.93798-6.29062,16.20225-2.97751,40.47103-4.37213,55.64052,2.62807.94878.43783,1.9589-.65375,1.56794,1.72604-45.95015,56.02734-87.72821,114.95664-109.26048,185.16252l-11.01253,37.49514c-1.49299.01029-2.28389-7.64552-2.54265-9.29836-3.10972-19.86348-3.39966-40.17946-4.47833-60.22755-4.19944-78.04993-4.16723-157.44486,10.23113-234.59516,9.95942-53.36528,32.70434-109.71955,38.29569-162.29256.94794-8.91302-1.16229-14.23142,2.31114-23.57121,13.71609-36.88149,57.79109-88.26587,96.07306-100.20146,45.94488-14.32475,88.29313,19.81594,102.5109,62.02277,1.06405,3.15872,6.95713,19.37783,1.54134,19.00847-3.46795-.23651-11.03732-3.21298-15.61159-3.85979-48.78103-6.89774-107.78812,9.37398-141.51685,46.06485Z"/>
  <path class="b" d="M334.60709,783.5423c-2.27171.33221-1.75076.1259-2.41209-1.35853-2.29204-5.14472-3.32-12.9396-5.11306-18.60734-11.52007-36.414-24.70346-72.09412-43.37362-105.44992-19.23348-34.36222-43.89319-65.12042-67.61054-96.37526-.44282-2.90279,7.62765-4.52662,9.76513-5.04295,24.60488-5.94351,50.15083-.9002,73.71995,6.81919,1.81367-3.02167-2.45046-5.68329-4.5195-7.34428-19.20553-15.41791-49.78149-24.29853-74.26927-22.87797-4.53321.26298-22.49891,4.64287-24.51859,3.37284-6.56733-8.862-14.06652-17.21044-20.6398-26.06722-2.83268-3.81672-17.67662-23.70387-17.92118-26.40209-.4214-4.64928,10.43227-7.13999,14.30855-8.30108,29.09979-8.71647,60.67536-5.74881,89.71094,1.44799,6.2312,1.54447,14.00558,5.13661,19.75391,6.13243,1.5268.2645,3.98356,1.30517,3.50729-1.3489-33.08657-29.53487-85.45757-41.75119-128.54324-31.5085-3.47737.82667-14.04692,5.42896-16.27388,4.90951-2.67397-.62372-15.99271-24.07517-18.2026-28.22995-2.52816-4.75316-13.88589-25.86597-11.49797-29.67546.55916-.89204,16.9756-7.28205,19.46918-8.01918,33.84335-10.0045,70.84392-6.20036,104.36918,3.00132,8.81631,2.41981,17.9803,7.49619,26.95603,7.55371-3.20791-4.73613-8.89339-8.88561-13.67302-12.20927-34.27621-23.83499-83.45128-34.08436-124.39646-25.58023-4.08114.84763-24.46995,8.06019-25.76096,6.95537-1.87267-7.52042-4.5319-14.75245-6.21961-22.35106-1.79105-8.06388-7.03418-33.82845-2.97326-40.04789,2.67387-4.09513,20.92872-8.14871,26.35363-9.23504,41.36525-8.28332,78.01757-1.47841,117.0392,12.39277,6.25381,2.22307,12.09383,6.24836,18.85315,6.47894,3.00219-2.26952-26.35174-22.08405-28.7884-23.50448-30.62412-17.85198-66.63763-26.56054-102.22707-23.92172-8.60137.63776-17.11793,3.74459-25.33192,4.95589-3.48216.51351-3.36678-1.20542-3.03534-4.1348,2.78096-24.57901,24.43791-55.2163,45.16052-68.14547,61.20897-38.18926,118.71035,23.38222,146.76073,73.05643,12.43683,22.0243,9.89462,23.29648,12.89339,47.49877,4.9474,39.92911,19.43419,80.14252,28.2439,119.50121,20.70077,92.48374,21.83856,188.60883,15.82307,282.8804-1.2511,19.60654-3.67191,39.22485-5.38641,58.78183Z"/>
  <path class="b" d="M654.88628,695.107c-2.70653,2.36751-1.94988-2.2516-1.29673-4.00551,8.34759-22.416,34.43423-57.07999,49.39949-76.7769,54.55136-71.79915,118.56756-139.57655,150.36815-226.00442,38.65876-105.06705,5.55245-208.00115-112.89389-227.92904-7.55247-1.27066-16.65358,1.29386-17.63484-7.16909-1.65212-14.24889.26597-20.79878-5.34789-35.63251-7.34172-19.39933-26.39312-31.93194-23.27962-53.4255,1.72146-2.47845,26.63086-.36469,31.33245.07855,119.17122,11.23467,212.21077,93.18773,206.57439,218.41641-6.77776,150.58773-168.09868,314.54818-275.63192,409.21518-1.27965,1.12654-1.44739,3.10841-1.5896,3.23281Z"/>
  <path class="b" d="M278.52818,696.1878c-2.02861.4663-2.55571-1.14564-3.77078-2.14989-10.12309-8.3667-22.58651-21.71567-32.37937-31.24778C145.19157,568.19141,6.98757,425.65855.25418,282.65904-5.64678,157.33804,91.99558,75.28434,210.05916,64.23786c5.48755-.51344,22.72096-2.27336,26.80484-.93357,2.46524.80876,1.87006,4.78406,1.826,6.89326-.39229,18.77954-26.35708,38.97964-29.04457,65.88149-.51763,5.18148,1.85359,21.45696-3.04121,22.84115-5.30531,1.50028-14.78655,1.43333-21.03818,2.68732-65.98977,13.23661-112.61074,58.28057-120.54496,126.41584-17.07007,146.58967,138.75902,270.05408,202.91291,385.87749,1.39463,2.51786,11.4432,21.39168,10.59419,22.28697Z"/>
  <path class="b" d="M466.16744,456.78928l-9.24398,16.0776c-6.76489,10.63792-17.59461,24.04158-27.49962,31.8141-4.61163,3.61878-13.63088,10.81527-11.30157-.51137,1.27597-6.20461,7.19803-16.91723,9.52804-23.90922,8.30335-24.91707,14.68083-52.07477,14.80111-78.47378-38.58219-5.86276-69.76325-35.24585-93.79294-64.19851-14.15043-17.04944-28.40359-37.20753-39.72132-56.25908-1.98871-3.34767-15.71245-26.75476-14.22098-28.36603,8.6213,2.76798,15.97026,8.20317,24.06891,12.04752,13.56717,6.4402,27.85235,11.28605,41.27043,18.0433,9.20449,25.0905,18.24943,55.32598,37.07843,75.07845,1.77496,1.86202,7.75777,8.76868,7.5659,2.154-.24132-8.31968-3.72313-19.0885-4.29286-28.0741-.36614-5.77457-1.01302-35.4025,3.16589-37.76738,1.22336-.69231,23.57365,4.24636,27.71231,4.73232,33.51367,3.93522,65.31634,1.88193,98.39562-4.03419,2.43773,1.5455,2.56359,29.46731,2.33607,33.89578-.52023,10.12571-4.08398,21.89521-4.35472,31.24754-.19149,6.61459,5.79079-.29178,7.56593-2.15398,18.85912-19.78406,28.42783-50.41848,36.88589-75.80961,22.98682-8.33971,45.28328-18.54513,66.60522-30.44319,1.73809,2.26533-17.59847,33.75723-20.45651,38.307-29.58663,47.09966-71.48783,101.10659-128.96824,112.60115-2.70005,3.75894,4.15515,38.51683,5.66191,45.16931,4.57729,20.20911,11.80795,39.63999,20.4233,58.41201-.08895,8.50343-9.505.5958-13.04753-2.16035-14.83403-11.54109-28.39812-30.46417-36.16467-47.41931ZM487.73881,469.72227c-2.6411-10.73827-6.15818-21.23943-8.30014-32.13003-2.89094-14.69869-5.09303-32.14661-5.75312-47.09002-.3082-6.97722,1.32948-37.87217-.95495-41.10462-3.18898-4.51239-14.26399-2.64017-15.18222,2.23148,1.40724,40.34002-1.81402,80.6642-14.00362,119.17163,6.19848-3.35159,19.17138-37.06769,22.2126-37.68926,1.40136-.28641,2.37777,1.18883,3.036,2.18872,3.19973,4.86063,5.81172,14.09515,9.06563,20.04823,2.64823,4.845,6.00582,10.4247,9.87983,14.37387Z"/>
  <path class="b" d="M569.7038,526.88384l-4.35049,77.86685c-57.38581,35.92873-144.10052,37.28734-200.90677-.47949l-2.86066-77.39134c15.25816,6.30723,30.41748,12.5909,46.5555,16.51948,54.91194,13.36758,110.51887,6.96468,161.56243-16.5155Z"/>
  <path class="b" d="M576.17562,807.27559l8.11837,63.59526c-7.03757,6.91294-16.14607,11.87593-24.98085,16.05239-57.75817,27.30396-138.74659,24.46391-195.22972-5.05417-3.35949-1.75567-16.55206-8.93609-17.38932-11.73698l7.37014-62.83327c10.73636,3.68471,20.82716,10.01977,31.7544,14.01149,50.02692,18.27485,116.20358,17.32479,165.52442-2.74932,8.46292-3.4445,16.43671-8.42785,24.83257-11.28541Z"/>
  <path class="b" d="M362.10513,717.78796c54.11275,31.48022,129.74252,32.65844,187.07972,9.10502,3.23894-1.33052,15.62195-8.61744,17.71574-8.00331,1.10153.32309,1.65889,1.53537,1.73129,2.64765.7176,21.19144,3.79144,42.23574,4.13488,63.44874-9.22515,7.77119-20.35098,12.86671-31.61594,16.9121-43.91071,15.7689-96.92716,17.05579-141.58133,3.50446-7.51311-2.28003-41.21269-14.85655-43.18937-21.55411l5.72502-66.06055Z"/>
  <path class="b" d="M565.39119,628.25666c2.00099,21.86561.33413,43.90384,1.70463,65.8214-2.0026,6.42296-27.97139,16.77628-34.90238,19.05881-42.35917,13.94981-95.70406,14.32228-137.7474-.74808-5.45967-1.95701-30.19674-12.35786-31.59128-16.93814l.82309-63.47635c-.16487-1.19117.59281-3.50973,1.7-3.72185,1.32632-.2541,20.87128,9.40465,24.7542,10.80325,46.21466,16.64631,102.63472,16.46993,148.86219-.00039,9.00351-3.20785,17.43027-8.13497,26.39694-10.79866Z"/>
  <path class="b" d="M589.11192,892.46617l14.65956,45.31823c-3.25654,5.14768-73.90129,16.79962-84.36123,18.15753-23.7504,3.08328-48.1197,5.96805-71.96312,3.24973-37.69779-4.29782-76.08577-16.71444-112.10595-28.0841l-1.85747-2.50892,10.31976-37.2144c63.13607,38.35469,148.10627,44.80186,216.16574,15.60684,8.54384-3.665,18.42122-10.99426,25.96167-13.94162,1.10279-.43105,1.93193-.83999,3.18105-.58329Z"/>
  <g>
    <path class="b" d="M610.68321,813.74634c4.33677-30.65165,15.55518-63.03588,31.91256-89.42284,2.1556-3.47731,11.08955-17.30915,14.15204-18.2009,4.37272-1.27327,26.19872-.55738,32.17369-.26806,123.90908,5.9999,242.55936,100.4876,186.48987,234.02966-58.69442,139.79394-255.48033,158.94379-387.167,156.4514-33.7025-.63787-115.4314-10.95846-141.67632,9.21513-13.12986,10.09248-12.15734,24.90402,2.03022,33.37214,19.53505,11.65987,52.22358,8.4486,73.58975,3.4243,7.41604-1.7439,26.81823-10.23777,31.82026-10.22455,6.67074.01762,1.80293,9.64248-.29703,12.63004-40.83807,58.09935-214.70404,53.80152-208.58977-40.3582,3.8498-59.28695,71.66509-93.13169,121.61134-107.01229,93.63657-26.02262,196.12809-15.45315,286.40233-56.53887,28.4615-12.95344,76.64703-43.97852,64.37645-81.32404-11.78727-35.87458-74.76443-44.65244-106.82839-45.7729Z"/>
    <path class="b" d="M404.70522,971.18731c-45.97554,7.70193-94.46467,21.89243-130.99683,51.79787-9.62918,7.8825-16.57821,16.5602-24.95323,25.59069-52.09709-10.48863-110.2326-30.40975-151.41004-64.96851-52.83093-44.33911-71.35829-117.29661-36.83899-179.2166,34.56199-61.99657,112.63538-92.65817,180.83275-96.32414,6.0795-.3268,28.74752-1.0933,33.19832.21141,7.62792,2.23606,28.73979,49.26219,32.05478,58.53346,1.29779,3.62962,8.7128,26.41908,8.42981,28.09323-.60998,3.60849-12.71475.52723-15.41398.45952-31.00103-.77772-88.90511,2.39107-107.15708,32.04954-27.16166,44.13623,46.36222,82.95013,77.80499,97.59674,42.12737,19.62368,87.14472,33.48575,132.59124,43.19302l1.85828,2.98378Z"/>
    <path class="b" d="M314.05403,922.61761c-2.66434,1.91618-49.68382-20.67555-56.03344-24.19552-15.67102-8.68736-52.77637-32.14547-50.59695-52.75209,2.1325-20.16303,34.73367-28.42576,51.33793-30.67085,19.66154-2.65847,40.27778-3.08714,59.69788.33701,10.0496,35.54914,6.72545,72.46295-4.40543,107.28144Z"/>
    <path class="b" d="M623.76601,931.16132c-13.96431-30.65635-22.53695-65.24279-16.16842-98.93791,23.77667-.09137,60.9108,3.721,80.17506,19.28979,28.85318,23.31826-6.77689,52.68461-27.82832,64.86475-4.57975,2.6498-32.98593,16.82461-36.17832,14.78337Z"/>
  </g>
</svg>