<?xml version="1.0" encoding="UTF-8"?>
<svg id="a" data-name="Layer 1" xmlns="http://www.w3.org/2000/svg" viewBox="0 0 992.67822 635.00597">
  <defs>
    <style>
      .b {
        fill: #e9b22b;
      }

      .c {
        fill: #0b3d9f;
      }

      .d {
        fill: #e5e1d5;
      }

      .e {
        fill: #1e1e1e;
      }
    </style>
  </defs>
  <g>
    <g>
      <path class="d" d="M526.0317,298.63372c14.14939-9.73474,37.56931-7.57807,54.77042-12.7428,16.10055.5319,63.54761-26.47194,65.75564-7.60633-20.18941,7.28464-107.11634,33.96931-120.52606,20.34913Z"/>
      <path class="d" d="M577.72037,337.00947c3.68489-1.57205,58.936-40.71445,60.16669-39.41335,7.32076-4.47925,13.80834-12.41622,19.01312-1.23685.00106-.00191-70.56504,47.04615-70.56504,47.04615l-8.61478-6.39596Z"/>
      <path class="d" d="M670.79571,309.6415c24.5315,3.00252-49.90925,54.15152-49.99928,59.35268-.00217-.00492-7.65975-5.69022-7.65975-5.69022l57.65903-53.66246Z"/>
      <path class="d" d="M708.06601,325.43914l-24.09672,90.45381s-9.57198-7.10662-9.57198-7.10662c15.02196-14.10529,20.03917-93.68071,33.66869-83.34719Z"/>
      <path class="d" d="M682.99243,317.21267c2.29931,1.09213,6.71344,2.94725,9.07828,3.77175l-38.73173,72.16735-5.74319-4.26397c14.73756-22.21169,24.20108-47.22125,35.39664-71.67512Z"/>
      <path class="d" d="M798.11877,266.14375c47.62265,39.52997,111.3365,67.7312,162.99985,99.04911-.57062,31.05978-142.33951-67.24563-157.96099-78.91321-9.97394-7.81648-10.76851-7.69474-5.03886-20.1359Z"/>
      <path class="d" d="M803.52451,250.86302c38.65696,12.11098,80.63671,35.58314,117.77128,50.25282,10.29364,5.99233,83.8574,16.59201,52.86331,31.90723-20.70203-8.79331-188.86008-63.19721-170.63459-82.16005Z"/>
      <path class="d" d="M802.72357,233.94254c24.3947,9.18398,51.62666,9.55573,76.72339,14.68628,38.44804,8.08214,79.13135,23.37376,117.39255,33.32736,7.96713,2.32643,2.93377,8.11474,1.696,14.23196-5.49509-2.93543-12.45753-3.05792-18.67102-3.82399-34.76985-11.34901-69.80154-24.23424-105.02791-34.59191-16.06476-8.64856-69.91692-8.01317-72.11301-23.82969Z"/>
      <path class="d" d="M777.16154,176.37592c-27.97045-3.96073,52.58326-92.26058,60.81192-110.01212,36.21469-14.43039-58.54753,96.32431-60.81192,110.01212Z"/>
      <path class="d" d="M742.51598,161.04283c7.2443-17.40711,39.89853-137.4819,59.73993-114.4636-8.48001,12.90404-42.6598,125.42714-59.73993,114.4636Z"/>
      <path class="d" d="M847.63705,111.45059c7.2459-8.32383,15.91762-21.708,23.28295-5.6053-.00163-.00031-84.15627,83.59634-84.15627,83.59634-19.29033-9.20095,52.17586-63.28706,60.87333-77.99104Z"/>
      <path class="d" d="M787.74059,288.12191c-.99326,4.58105,117.90661,81.76468,93.29892,86.345-11.42765-3.68567-37.07157-25.66435-48.02605-33.99431-17.11524-14.03807-32.70177-30.13424-49.99847-43.98583.76243-.98909,3.5171-6.34684,4.72559-8.36487Z"/>
      <path class="d" d="M791.5799,198.95403c28.76601-11.57632,88.07347-62.64972,89.56872-62.60954,7.32256,8.92399,5.45534,12.09564-2.77422,18.71432-13.84879,8.62527-79.94083,66.16216-86.7945,43.89522Z"/>
      <path class="d" d="M665.86925,184.28222c-10.55762,14.55246-22.10614-6.20547-34.388-10.70211-19.14147-12.45126-38.45131-24.65321-57.16552-37.97674-4.03774-2.63472-8.40165-3.93182-12.19605-7.57227-3.28021-3.5862-10.0234-3.94476-7.44193-9.97499,2.05045-11.72065,17.69916,5.85251,22.90724,8.11068,30.59716,19.37955,57.63506,39.35573,88.28427,58.11544Z"/>
      <path class="d" d="M725.09997,158.50165c.09698-10.89683,5.8242-165.39306,22.43441-139.21331-7.03299,46.43383-13.79086,92.93203-15.51738,139.89629-1.54393-.17666-5.57239-.6145-6.91703-.68298Z"/>
      <path class="d" d="M681.77397,170.85969c-17.06117,14.47103-55.66831-44.85631-74.1997-55.11986-9.66649-7.79249-21.79599-14.55251-30.3818-24.01958,5.74606-5.56859,7.76233-8.14917,14.59525-2.59043,29.59104,26.75254,58.36965,56.95088,89.98625,81.72987Z"/>
      <path class="d" d="M705.79977,160.49824c-15.56467,2.23447-48.87208-120.25162-48.63387-138.48748,2.5115,1.63948,6.35531.41088,7.77114,3.46245,11.80958,45.50349,23.98822,91.1391,40.86273,135.02504Z"/>
      <path class="d" d="M712.46995,159.51378c-5.72103-48.27146-21.09357-97.72627-20.35723-145.73784,16.02941,4.54033,35.99455,146.04244,20.35723,145.73784Z"/>
      <path class="d" d="M691.9959,165.09136c-13.99495-13.88388-22.94848-32.65817-35.58912-47.99248-11.10545-17.20996-45.2893-44.97598-37.46709-65.59897-2.44555,2.36041,90.01314,115.82871,73.05622,113.59145Z"/>
      <path class="d" d="M798.55733,211.55519c33.4193-10.49947,72.47386-29.68625,106.53945-25.58597.65233,1.16403,1.68978,7.40271-.4785,7.84642l-58.93493,10.64016-45.42828,12.81237c-.32245-1.10232-1.5675-5.40308-1.69774-5.71297Z"/>
      <path class="d" d="M640.3571,230.64432c1.92565,18.96043-100.1066-3.29336-116.36726-6.27723-.53713-.50109-1.20516-1.65411-1.76281-2.73654-.63805-1.23849.00059-2.76604,1.33671-3.16067,34.03463-10.05218,80.29446,20.12851,116.79335,12.17444Z"/>
      <path class="d" d="M639.55089,259.72909c-38.80757,3.04785-79.9851,1.44464-118.54938,2.3876-2.66072-1.32108-3.88272-11.22652,1.69049-11.94354,21.16734-2.72325,57.20412,5.56089,80.85802,5.54904,9.66388,1.82868,34.69225-8.78112,36.00088,4.0069Z"/>
      <path class="d" d="M764.26889,313.73641c8.21154,20.66392,32.17168,56.51068,49.45892,69.38704.00338-.00254,10.82906,8.82061.33302,19.53641-11.59993-17.23744-68.72702-75.31589-49.79193-88.92345Z"/>
      <path class="d" d="M642.6746,217.52325c-19.29703-9.52186-108.16124-11.41859-102.08571-36.47135,34.04833,9.20038,71.66542,24.72395,104.43341,29.30937-.43884,1.08286-2.04286,6.0035-2.3477,7.16198Z"/>
      <path class="d" d="M720.94288,326.09445c-4.05052,29.65008-1.46611,68.83099-3.02867,97.19547-.37006.21239-7.98197,1.2745-8.3944,1.17735,4.79293-2.71327-8.99916-115.19265,11.42306-98.37282Z"/>
      <path class="d" d="M773.28677,305.58998c-.69474,4.6146,83.79022,77.0242,62.52558,79.90329-21.28952-12.90863-41.16566-43.80258-58.45478-63.03856-4.22999-5.78394-11.47689-10.79677-4.0708-16.86474Z"/>
      <path class="d" d="M648.32719,203.90996c-2.22891-4.88592-111.67162-35.52872-96.28929-48.35711,22.17164,9.3632,50.11983,18.40198,72.0603,31.45145,7.15825,6.00032,34.97822,6.3483,24.22899,16.90565Z"/>
      <path class="d" d="M802.19967,224.64857c10.88119-4.99008,122.46607-14.85559,110.64962,4.91427-17.17474-1.49106-34.65355-.6355-51.66867-3.57686-1.94471-2.20169-65.04734,9.71518-58.98095-1.33741Z"/>
      <path class="d" d="M730.48466,327.24198c13.46781,4.82247,10.95583,43.18356,17.49404,57.47744,1.65054,8.46559,11.50287,25.31725,9.01628,32.03463-19.43386,7.4439-28.02213-75.56681-26.51032-89.51207Z"/>
      <path class="d" d="M744.78223,325.98374c1.12604-1.03749,2.6007-5.34427,4.7559-2.40505,8.42117,19.87751,28.13047,63.03073,39.26168,81.11291-14.59085,21.38489-38.65466-68.46289-44.01757-78.70786Z"/>
    </g>
    <path class="b" d="M624.15256,191.53084c82.38615-133.02773,268.42671-18.93156,185.17839,111.86098-67.42542,120.89379-250.91199,8.99082-185.17839-111.86098ZM667.72403,218.48237c-9.27206,18.18377-5.69024,50.12648,7.59039,65.64406,145.59501,119.15607,120.60979-197.26321-7.59039-65.64406Z"/>
  </g>
  <g>
    <path class="e" d="M602.93377,286.10127s3.93227-4.61787,8.82374-3.00877,28.97503,11.19714,28.97503,11.19714l-11.33421,43.47845-47.32711,21.8842-21.05573-35.54363,41.9183-38.00739Z"/>
    <g>
      <path class="c" d="M499.07296,293.66326c-48.99905,10.02569-97.7743,21.43996-146.78807,31.43128.14958-1.92913-1.35609-3.64919-2.42016-5.10815-30.96193-42.45223-60.88824-86.97125-89.50893-131.05478-11.70465-18.02829-26.92843-39.4328-36.77468-58.04926-6.31332-11.9367-4.59622-21.16748,7.82912-27.53439,16.57408-8.49279,25.21805-.45911,38.38192,8.8401,23.51965,16.61473,47.31533,35.40973,70.32517,52.93318,54.21007,41.28441,107.91117,83.42294,158.95563,128.54201Z"/>
      <path class="c" d="M527.22134,399.09806c-27.51323,50.41681-49.77858,103.55163-74.60654,155.33529-6.13654,12.79897-12.31597,26.24764-18.95376,38.74101-5.22338,9.83121-9.47953,21.12396-21.25509,23.78847-16.11715,3.6469-36.88211.81643-53.54968,4.26719-9.71154-1.23897-6.62892-20.26666-6.16605-27.76756,1.56267-25.32354,5.96845-49.25761,9.97629-73.90817,4.4735-27.51456,8.6434-55.12992,12.66769-82.7379.34742-2.38341.51058-6.38242.22295-8.79399,49.37097-7.73169,102.92824-18.01299,151.66419-28.92434Z"/>
    </g>
    <path class="c" d="M185.61949,433.19809c-4.66808,14.93529-10.93223,29.75127-14.3585,45.14317-3.04485,13.67845-3.20826,38.87849-16.94724,46.53913-7.9129,4.41211-36.97853,10.19593-45.94305,8.87565-8.34992-1.22976-13.57205-4.9442-11.40239-14.11911,1.5337-6.48561,6.54412-15.37899,8.93504-22.17731,4.93097-14.02068,8.00011-28.57341,12.45945-42.71209,5.99874-19.01944,14.53842-37.15798,20.40778-56.22091,6.09476-.65752,12.32377-.81466,18.39712-1.69863,6.41214-.93328,24.61843-6.02861,29.35605-4.95093,3.21479.73128,5.67707,3.47538,6.38572,6.67493,1.82684,8.24815-4.59868,26.03542-7.28999,34.64611Z"/>
    <path class="d" d="M499.07296,293.66326c36.6944-7.50803,75.1717-18.22427,112.68454-10.57076-5.80335,9.90568-12.50425,19.49359-21.48433,26.79141-6.99397,5.68377-19.2716,9.45984-14.54473,21.27834,4.39778,10.9957,18.35207,6.89891,26.94315,3.99885,13.73988-4.63813,24.75234-12.86699,31.31669-25.98243,2.18697-4.36953,3.27555-9.11219,5.2089-13.29464.37233-.80547.45177-1.46624,1.53536-1.59439,2.5633-.30314,17.13908,9.33216,19.68476,11.6927,16.4746,15.27642,5.76234,35.71388-8.96104,47.57112-26.81858,21.59792-90.00846,37.88175-124.2349,45.54461-48.73594,10.91135-102.29322,21.19265-151.66419,28.92434-22.92121,3.58955-44.38785,4.92081-67.28117,7.12953-14.34643,1.38413-28.58486,4.44446-42.95659,5.67655-26.80671,2.29814-53.85346.29931-79.69991-7.63038,2.69131-8.61069,9.11683-26.39797,7.28999-34.64611-.70865-3.19955-3.17093-5.94365-6.38572-6.67493-4.73762-1.07768-22.94392,4.01765-29.35605,4.95093-6.07335.88397-12.30237,1.04111-18.39712,1.69863-27.14077-37.24335-50.94976-78.32972-63.79106-122.82395,12.05665-4.86592,28.97244-6.76683,41.79807-3.68574,20.20565,4.85398,42.10677,37.76418,57.87898,52.274,23.44883,21.57202,44.81614,30.27889,76.98165,24.13556,11.824-2.25828,20.37829-7.60631,31.50324-10.36096,21.87416-5.41627,46.69308-8.39453,69.14344-12.97097,49.01377-9.99132,97.78901-21.4056,146.78807-31.43128ZM520.69243,348.38419c3.139,4.21405,9.199,5.30408,13.53393,2.23162,8.65029-6.13105,3.96487-26.86067-7.84436-25.21905-9.58454,1.33236-10.48609,16.54818-5.68957,22.98743ZM495.03087,332.20713c-13.12112-.19604-11.15542,27.28612,3.45029,26.24644,13.07838-.93096,12.07799-26.01444-3.45029-26.24644ZM465.53018,337.8071c-14.04966-1.19303-13.54924,25.3706.59125,25.90341,14.12904.53238,11.547-24.87269-.59125-25.90341ZM427.50092,365.15577c2.56539,3.88461,9.44888,5.72393,13.39085,2.96044,9.75321-6.83743,2.15305-30.34203-10.59904-23.54199-6.30528,3.36228-6.29798,15.27238-2.79181,20.58156ZM402.28985,350.59118c-13.8981-.26347-11.50237,25.15073.35835,26.4276,4.15007.44678,8.95464-1.49845,10.31498-5.64733,2.87074-8.75537.15118-20.57506-10.67333-20.78027ZM369.36071,357.8605c-13.52635-.21597-12.60032,26.59101,2.12599,26.18344,12.67041-.35067,12.04779-25.95714-2.12599-26.18344ZM337.62796,363.04455c-16.409-.83953-11.86342,31.74308,4.86031,25.5303,11.17358-4.15093,6.01314-24.97398-4.86031-25.5303ZM310.79145,393.37772c7.60461-6.05595,2.70228-27.83263-10.60774-24.04102-14.15064,4.03108-3.39701,35.19374,10.60774,24.04102ZM263.15261,396.14724c2.96481,4.41192,7.07761,6.0379,12.21432,4.11119,9.728-3.64883,7.63656-22.04948-1.84357-24.81265-13.13084-3.82725-16.13477,12.12403-10.37075,20.70146Z"/>
  </g>
</svg>