<?xml version="1.0" encoding="UTF-8"?>
<svg id="a" data-name="Layer 1" xmlns="http://www.w3.org/2000/svg" viewBox="0 0 992.67822 635.00597">
  <defs>
    <style>
      .b {
        fill: #e9b22b;
      }

      .c {
        fill: #f1f0f2;
      }

      .d {
        fill: #0b3d9f;
      }

      .e {
        fill: #105f2d;
      }

      .f {
        fill: #cf2e2c;
      }
    </style>
  </defs>
  <path class="b" d="M768.25215,463.26657c.75059-87.05467-2.28935-174.02649-2.05209-261.29649.05031-18.57799-.20589-37.19169-.02826-55.77601.20869-21.84497,2.65362-44.45885,1.42447-66.35033-.30434-5.42198-1.32541-15.91261-5.05445-19.91384-7.39503-7.93492-29.82981-2.91968-40.11913-4.34058-.62109-8.82347-.43787-24.14511-11.58802-26.37265-10.26851-2.05147-10.82998,6.81711-11.66318,14.40809-.46706,4.2565-.63538,9.69152-.68972,14.01665l-51.30531,1.37145c.795-8.24694-1.72819-21.63403-12.59978-21.15991-10.76197.46939-10.07473,15.2069-9.96946,22.52452l-45.82945.68398c-.66861-7.56808-1.80645-20.42849-10.9219-22.93196-12.88486-3.53867-12.55351,14.61709-12.33489,22.24798l-44.46149.68398c-.37545-9.17959-1.1925-25.39459-14.03109-25.31354-11.55821.07313-9.38191,17.66308-9.22539,25.31354l-47.88154.68406c-1.09902-10.17131-3.34551-25.25942-17.28499-22.41405-8.40865,1.71639-6.65655,16.02744-6.65593,22.41405l-46.51358.68406c.19595-5.72616.53134-16.57633-4.5495-20.41731-5.87708-4.44283-16.86389-2.13353-17.96074,5.77313-.56861,4.09742-1.13815,10.45368-1.43037,14.64419h-45.14563c-.12981-8.72712-.20465-22.79423-10.4418-26.15256-15.06956-4.9435-12.87834,16.6264-12.78735,25.17395.01304,1.24234-.72357,2.64313-.71146,3.03062-10.81259,1.16858-23.95738.88855-33.98026,5.3511-15.23042,6.78093-17.41449,28.93303-18.03372,43.5283-1.15275,27.17138.94344,55.29901,1.39621,82.45288,1.04778,62.85517,2.00706,125.5293-.00714,188.44107-1.02791,32.10906-.96518,63.84384-.67699,96.11221.23508,26.30973-1.08691,53.58196,1.3723,79.6844,2.10612,22.35124,4.60509,36.2064,28.58514,41.18535,27.95411,5.80418,65.29106,5.5455,93.85073,3.62229,4.97836-.33523,10.04151-1.01906,15.04844-1.36803,39.25954-2.73645,77.74954-3.80966,116.96778-5.47217.7509-.03183,1.72229.20958,2.05209-.68402.44439-.05124.96393.08035,1.36796,0,2.83001.66589,7.00778,1.27681,9.89027,1.39618,47.35237,1.96106,94.61809,2.08869,141.9627,1.33989,25.71321-.40666,51.34288-.89096,76.92442-2.08027,29.63696-1.37785,50.27864,1.76608,53.71732-34.52162,2.99832-31.64278,1.09685-67.9859,1.37479-100.20256Z"/>
  <path class="c" d="M584.78314,437.41373c-81.65507-4.1522-63.51654,9.28322-64.49357,81.86409-.10422,7.74242,5.93137,14.19164,13.66144,14.64119,78.88158,4.58738,64.46107-8.85468,67.07789-78.77919.34998-9.35179-6.89949-17.25082-16.24575-17.72608Z"/>
  <path class="c" d="M712.15824,437.41373c-81.65507-4.1522-63.51654,9.28322-64.49357,81.86409-.10422,7.74242,5.93137,14.19164,13.66144,14.64119,78.88158,4.58738,64.46107-8.85468,67.07789-78.77919.34998-9.35179-6.89949-17.25082-16.24575-17.72608Z"/>
  <path class="f" d="M473.85812,437.0144c-81.65507-1.70705-63.51654,3.8165-64.49357,33.65582-.10422,3.18305,5.93137,5.83444,13.66144,6.01926,78.88158,1.88596,64.46107-3.64032,67.07789-32.38757.34998-3.84469-6.89949-7.09213-16.24575-7.28752Z"/>
  <path class="f" d="M473.85812,488.14084c-81.65507-1.70705-63.51654,3.8165-64.49357,33.65582-.10422,3.18305,5.93137,5.83444,13.66144,6.01926,78.88158,1.88596,64.46107-3.64032,67.07789-32.38757.34998-3.84469-6.89949-7.09213-16.24575-7.28752Z"/>
  <path class="c" d="M349.64108,437.41373c-81.65507-4.1522-63.51654,9.28322-64.49357,81.86409-.10422,7.74242,5.93137,14.19164,13.66144,14.64119,78.88158,4.58738,64.46107-8.85468,67.07789-78.77919.34998-9.35179-6.89949-17.25082-16.24575-17.72608Z"/>
  <path class="c" d="M584.78314,291.09028c-81.65507-4.1522-63.51654,9.28322-64.49357,81.86409-.10422,7.74242,5.93137,14.19164,13.66144,14.64119,78.88158,4.58738,64.46107-8.85468,67.07789-78.77919.34998-9.35179-6.89949-17.25082-16.24575-17.72608Z"/>
  <path class="c" d="M712.15824,291.09028c-81.65507-4.1522-63.51654,9.28322-64.49357,81.86409-.10422,7.74242,5.93137,14.19164,13.66144,14.64119,78.88158,4.58738,64.46107-8.85468,67.07789-78.77919.34998-9.35179-6.89949-17.25082-16.24575-17.72608Z"/>
  <path class="c" d="M473.85812,291.09028c-81.65507-4.1522-63.51654,9.28322-64.49357,81.86409-.10422,7.74242,5.93137,14.19164,13.66144,14.64119,78.88158,4.58738,64.46107-8.85468,67.07789-78.77919.34998-9.35179-6.89949-17.25082-16.24575-17.72608Z"/>
  <path class="c" d="M349.64108,291.09028c-81.65507-4.1522-63.51654,9.28322-64.49357,81.86409-.10422,7.74242,5.93137,14.19164,13.66144,14.64119,78.88158,4.58738,64.46107-8.85468,67.07789-78.77919.34998-9.35179-6.89949-17.25082-16.24575-17.72608Z"/>
  <path class="c" d="M584.78314,144.76682c-81.65507-4.1522-63.51654,9.28322-64.49357,81.86409-.10422,7.74242,5.93137,14.19164,13.66144,14.64119,78.88158,4.58738,64.46107-8.85468,67.07789-78.77919.34998-9.35179-6.89949-17.25082-16.24575-17.72608Z"/>
  <path class="c" d="M712.15824,144.76682c-81.65507-4.1522-63.51654,9.28322-64.49357,81.86409-.10422,7.74242,5.93137,14.19164,13.66144,14.64119,78.88158,4.58738,64.46107-8.85468,67.07789-78.77919.34998-9.35179-6.89949-17.25082-16.24575-17.72608Z"/>
  <path class="d" d="M473.85812,144.76682c-81.65507-4.1522-63.51654,9.28322-64.49357,81.86409-.10422,7.74242,5.93137,14.19164,13.66144,14.64119,78.88158,4.58738,64.46107-8.85468,67.07789-78.77919.34998-9.35179-6.89949-17.25082-16.24575-17.72608Z"/>
  <path class="d" d="M349.64108,144.76682c-81.65507-4.1522-63.51654,9.28322-64.49357,81.86409-.10422,7.74242,5.93137,14.19164,13.66144,14.64119,78.88158,4.58738,64.46107-8.85468,67.07789-78.77919.34998-9.35179-6.89949-17.25082-16.24575-17.72608Z"/>
  <path class="e" d="M591.27761,415.70475c26.44895-4.46128,36.29442,32.46905,17.75069,44.54639-21.98725,14.32008-43.38961-.63857-37.63031-25.88637,1.87421-8.21622,11.5752-17.25928,19.87962-18.66002Z"/>
  <path class="e" d="M470.03355,272.53935c26.44895-4.46128,36.29442,32.46905,17.75069,44.54639-21.98725,14.32008-43.38961-.63857-37.63031-25.88637,1.87421-8.21622,11.5752-17.25928,19.87962-18.66002Z"/>
  <path class="e" d="M708.33366,131.47933c26.44895-4.46128,36.29442,32.46905,17.75069,44.54639-21.98725,14.32008-43.38961-.63857-37.63031-25.88637,1.87421-8.21622,11.5752-17.25928,19.87962-18.66002Z"/>
  <path class="e" d="M351.89671,272.53935c26.44895-4.46128,36.29442,32.46905,17.75069,44.54639-21.98725,14.32008-43.38961-.63857-37.63031-25.88637,1.87421-8.21622,11.5752-17.25928,19.87962-18.66002Z"/>
</svg>