<?xml version="1.0" encoding="UTF-8"?>
<svg id="a" data-name="Layer 1" xmlns="http://www.w3.org/2000/svg" viewBox="0 0 992.67822 635.00597">
  <defs>
    <style>
      .b {
        fill: #f1f0f2;
      }

      .c {
        fill: #0b3d9f;
      }

      .d {
        fill: #cf2e2c;
      }

      .e {
        fill: #db88b9;
      }
    </style>
  </defs>
  <path class="b" d="M359.03398,580.91079c15.71468-.29902,190.86101-2.61496,292.48989-3.9509,40.76447-.53586,73.00201-8.06544,74.39522-17.37742,6.06398-40.53062,21.01183-144.7804,20.38167-183.55309,1.73592-120.28877-13.67395-253.69613-25.89534-272.39528-7.26422-11.11523-62.98641-19.1207-125.05131-17.94115-15.80648.3003-193.6275,2.43578-295.39254,3.64861-40.74887.48564-73.88802,7.67171-78.03593,16.93458-2.54508,5.68352-4.79895,11.20078-5.02102,13.36225-6.76085,65.80972-9.60695,122.34998-8.8173,170.93531-1.73592,120.28944,13.67395,253.6968,25.89534,272.39594,7.26494,11.11457,62.98641,19.1207,125.05131,17.94115Z"/>
  <path class="d" d="M371.08989,563.0515c14.44106-.30731,175.3924-2.68749,268.78462-4.06048,37.46065-.55072,67.08546-8.28914,68.36575-17.8594,5.57252-41.65477,19.3089-148.79601,18.72981-188.64408,1.59523-123.62508-12.56572-260.7326-23.79662-279.95039-6.67548-11.42352-57.88158-19.65102-114.91634-18.43877-14.52542.30862-177.93468,2.50334-271.45202,3.74981-37.44632.49911-67.89966,7.8845-71.71139,17.40427-2.33881,5.84115-4.41001,11.51144-4.61408,13.73286-6.21291,67.635-8.82834,125.74346-8.10269,175.67634-1.59523,123.62576,12.56572,260.73329,23.79662,279.95107,6.67615,11.42284,57.88158,19.65102,114.91634,18.43877Z"/>
  <path class="b" d="M315.26079,120.78358c-63.76661-4.51389-49.99424,12.65817-49.84855,53.58763.02347,6.59318,5.38064,11.9267,11.97386,11.92588,11.31296-.00141,27.96524-.00196,39.24588-.00217,6.18853-.00012,11.35149-4.71108,11.92293-10.87317,1.74341-18.79982,8.46435-53.09793-13.29412-54.63816Z"/>
  <path class="b" d="M276.88107,429.75511c9.53107.01354,26.75482.00405,42.29763.00602,16.47381.00208,17.57089-59.06071,5.96414-60.07125-18.71887-1.62975-31.98584-2.09366-48.63368-2.00966-13.49667.06809-24.33053,62.03979.3719,62.07489Z"/>
  <path class="c" d="M610.10861,513.54586c-.15752-1.88898-1.3775-22.94239-2.08125-35.15866-.28228-4.90008-4.2487-8.77519-9.15405-8.94266-21.35065-.72892-76.26717-2.52572-96.69178-2.44997-63.36551-.20867-133.64162,1.64367-143.49192,3.11274-5.85526.87319-10.07237,7.57126-9.45101,15.03176.15819,1.90001,1.28312,23.27494,1.92201,35.50758.25583,4.89821,4.04129,8.88169,8.92077,9.38029,2.99395.30593,5.90033.57686,7.03894.60355,34.66713.81269,64.45131,1.1548,90.04501,1.05988,63.36586.20867,133.64197-1.64367,143.49227-3.11274,5.85491-.87328,10.07237-7.57126,9.45101-15.03176Z"/>
  <path class="b" d="M664.54455,120.78358c-351.50608-10.57202-301.07495,12.65817-300.92926,53.58763.02347,6.59318,5.38064,11.9267,11.97386,11.92588,11.31296-.00141,279.04595-.00196,290.32659-.00217,6.18853-.00012,11.35149-4.71108,11.92293-10.87317,1.74341-18.79982,8.50893-53.98241-13.29412-54.63816Z"/>
  <path class="b" d="M378.67099,429.75511c9.53107.01354,277.83553.00405,293.37834.00602,16.47381.00208,17.57089-59.06071,5.96414-60.07125-18.71887-1.62975-283.06655-2.09366-299.71438-2.00966-13.49667.06809-24.33053,62.03979.3719,62.07489Z"/>
  <path class="b" d="M315.26079,201.14437c-63.76661-4.51389-49.99424,12.65817-49.84855,53.58763.02347,6.59318,5.38064,11.9267,11.97386,11.92588,11.31296-.00141,27.96524-.00196,39.24588-.00217,6.18853-.00012,11.35149-4.71108,11.92293-10.87317,1.74341-18.79982,8.46435-53.09793-13.29412-54.63816Z"/>
  <path class="b" d="M266.15592,295.10541c.40652,9.03601,1.17509,25.36356,1.85813,40.09812.72395,15.61715,59.77137,13.91431,60.26929,2.86427.80302-17.82104.68172-30.41957-.13589-46.19769-.66285-12.79158-63.04515-20.18405-61.99153,3.2353Z"/>
  <path class="b" d="M375.81628,350.48925c351.61062,6.18568,297.93947,14.78534,300.23725-57.33796.20995-6.58988-5.52902-11.85864-12.12172-11.77556-11.31206.14255-279.02421,3.48344-290.30396,3.6244-6.18804.07733-11.29183,4.85234-11.78635,11.02108-1.50872,18.82011-7.83477,54.08436,13.97477,54.46805Z"/>
  <path class="b" d="M663.4961,204.20777c-9.5305.10537-277.81395,3.46233-293.35558,3.65428-16.47256.20345-16.83266,59.27533-5.2142,60.14098,18.73775,1.39608,283.07064-1.43815,299.71613-1.72984,13.49477-.23648,23.55461-62.33851-1.14634-62.06542Z"/>
  <g>
    <path class="e" d="M645.5359,504.27393l60.5618,57.44386c1.40461,1.22144-14.22129-17.25139-12.87002-18.53159l11.60707-10.9966c5.6657-5.36771,51.91994-20.19929,46.02039-25.26882-.09007-.07739-34.03865-5.59183-34.13493-5.66134l-51.38366-15.88681c-3.87201-2.79519-9.20784-2.32951-12.5371,1.09416l-8.08107,8.31023c-.15035.15461-.29263.31947-.41157.49936-1.89548,2.86706-1.38958,6.72037,1.22907,8.99755Z"/>
    <path class="e" d="M794.06479,412.73044l-109.15755,117.10268c-2.37267,2.69239-2.31298,6.74636.13791,9.36773l21.05256,22.51693c10.27627,10.99107,27.78273,10.65111,37.63122-.65805.15035-.17265.29284-.35452.42807-.53926l79.70104-118.72564c5.43805-7.42923,4.60813-17.72201-1.94997-24.18398l-9.52393-6.33569c-.29616-.29182-.61217-.56822-.95748-.7998-5.50326-3.69072-12.93842-2.76442-17.36186,2.25508Z"/>
  </g>
</svg>