<?xml version="1.0" encoding="UTF-8"?>
<svg id="a" data-name="Layer 1" xmlns="http://www.w3.org/2000/svg" viewBox="0 0 1187.34327 813.68281">
  <defs>
    <style>
      .b {
        fill: #fff;
      }

      .c {
        fill: #1e1e1e;
      }

      .d {
        fill: #fafafb;
      }

      .e {
        fill: #db88b9;
      }
    </style>
  </defs>
  <g>
    <path class="e" d="M1019.51889,777.79259l2.61468-91.91808c-1.54479-3.45648.43591-101.19271-16.1661-142.26845-.09981-.24642.10215-.61565,0-.85895-.0928-.2199-.68779-.48465-.85934-.85856-.26435-.57783-.55912-1.15684-.85856-1.71752-.12789-.23784-.6527-.48114-.85934-.85856-2.25675-4.12282-6.46145-9.42392-7.73097-13.73896-1.95809.11658-2.22244-1.29486-3.11375-2.46925-9.42704-12.42304-20.65309-21.06092-33.82396-29.30266-12.37392-7.74306-24.80242-13.53348-39.33561-16.06472-4.12672-.71859-27.13559-2.31368-28.17273-3.64831l.47568-32.21601c-.98567-20.0967-.96696-40.39029-1.68827-60.5599-2.21152-61.81343-10.89541-155.24984-70.43962-189.77172-81.3709-47.17653-202.22323-45.73194-252.13842,43.77503-35.64402,63.91617-38.20256,128.93382-16.9615,198.17644,15.12116,49.29175,34.72463,67.93723,5.53114,119.27791-16.38366,28.81217-38.38659,54.17175-53.84073,83.57033-.91705-14.96988-.23394-30.08987-.45385-45.06053-.74471-50.74374-1.90428-101.58729-2.5484-152.43475-.942-74.31914-1.88322-148.47763-1.75378-222.86695.02963-16.99269.35637-33.68594-.0039-50.59402-.09592-4.46866.91198-20.4632-.75095-23.07671-1.3978-2.1971-17.59626-3.0116-21.03597-3.2124-.66205-.03821-1.21337-.78916-1.36699-.79306-1.4286-.03704-2.865.00468-4.29516,0-4.70221-.01521-11.84599.66283-17.17984.85856-1.42821.05225-2.8689-.06199-4.29516,0-57.20012,2.48874-116.32947,9.04767-171.80934,23.60776C148.23862,196.47125,47.05878,283.73901,8.42538,412.42836,5.7951,421.1914.19612,439.37875.03704,447.85326c-.01833.96462-.27527,1.50931.87338,1.2894.04835-.97631.62618-1.89024,1.26367-2.60025,93.8185-104.43708,190.84317-168.01326,331.0081-194.64081,38.247-7.26582,77.28278-8.73613,116.14856-10.56048-.1739,7.86626.20587,15.78088.03119,23.65377-.54703,24.64724-1.24846,49.47032-.89443,74.24155.10683,7.48572.75563,14.85291.85856,22.32615.58095,41.93937,1.26835,84.15051,1.7183,126.22829.16025,14.98821.77629,30.16707.90028,45.04026.29399,35.42022-2.76284,76.26241-.04367,110.85447.20743,2.63612-.42343,2.20996,2.57959,2.10508,8.26591-1.56857,31.5251-1.95692,38.59012,2.21191,3.20772,1.89219,6.19476,6.31368,6.01618,10.17682-.28619,6.17838-5.90311,8.90886-11.10284,10.36826-8.03977,2.25675-27.37733,3.03109-35.22137,2.14485v11.16327c9.42314-.99074,33.47773-1.67385,42.32148.19963,11.64948,2.46769,17.27225,15.66352,4.96891,21.74559-8.42889,4.16688-37.10927,6.15499-46.43182,4.67414v12.02183c4.40472-.9112,19.21981-.30022,24.51779-.03548,4.84492.24252,13.12409.81996,17.58768,2.16863,11.58865,3.50093,13.3167,15.61751.54118,19.4596-9.68827,2.91373-32.87806,3.79062-43.50522,3.30948.05615,11.18116-.53962,22.4844,1.71791,33.48899,1.68593.91432,2.86773,1.39234,4.82542,1.6177,7.86509.90691,17.7608,1.15411,25.70075.99386,2.18189-.04406,4.30139-1.11278,6.41154-.89404l26.19047-28.99074s28.32477,15.94532,51.15521,30.9653c21.10428,13.88435,47.36095,17.45507,71.33338,9.4871l64.31558-21.37725,8.63086,42.54567,49.48512.44431c10.49021.09419,20.85463-2.2882,30.25081-6.95353l43.9619-21.82765,79.8215,23.15311c18.61319,5.39896,38.29588,5.9611,57.18687,1.63327l46.39702-10.62932c6.09309-1.3959,8.75232-8.58467,5.03446-13.60978l-5.66258-7.65363Z"/>
    <path class="d" d="M79.95046,348.68227c17.76755-20.49194,32.38733-39.23156,53.7095-56.65272,84.75128-69.24552,194.34441-96.64516,302.343-100.49709,2.70639-.09653,9.36951-2.07506,11.65516-.47044,3.09081,2.16987-.0949,14.81394.81374,18.51616-25.4029-.58268-50.75172,1.10843-75.91758,4.39862-39.35299,5.14501-83.62098,18.43732-121.01578,31.87683-61.37776,22.05886-121.33028,61.44748-170.72902,103.68734l-.85901-.85869Z"/>
    <path class="d" d="M452.76245,681.85577c9.4233-.99052,33.47826-1.67394,42.32157.19954,11.64983,2.46805,17.27245,15.66354,4.96926,21.74558-8.42928,4.16699-37.1098,6.15525-46.43182,4.67441-12.9582-2.05846-14.28767-25.208-.85901-26.61953Z"/>
    <path class="d" d="M452.76245,745.39917c-2.76766-.12537-4.4943.68154-6.93965-1.22218-7.35312-5.72448-.1858-22.02831,7.79866-23.67996,4.40452-.91111,19.21979-.30031,24.51726-.03536,4.84548.24235,13.12415.81978,17.58812,2.16839,11.58847,3.50099,13.3166,15.6174.54123,19.45973-9.68838,2.91388-32.87803,3.7908-43.50563,3.30939Z"/>
    <path class="d" d="M452.76245,670.69274c-15.97082-1.80373-13.89743-21.93932,1.71803-24.90214,8.26605-1.56837,31.52496-1.95668,38.59052,2.21181,3.20745,1.89231,6.19438,6.31388,6.01564,10.17711-.28585,6.17826-5.90303,8.90872-11.1028,10.36832-8.03968,2.25676-27.37705,3.03084-35.2214,2.14491Z"/>
    <path class="d" d="M674.38817,204.42158l-9.44926,1.71737c-26.91023,5.80217-41.08003,15.63452-58.85447,36.05308-34.18423,39.26855-34.92699,87.06624-30.47471,136.96555,2.15966,24.20475,8.25266,49.21094,35.915,53.83512,2.67278,16.60674.34155,53.8166,13.47227,65.95867,21.98031,20.32518,82.2934,25.11804,109.73507,16.10118,49.16152-16.15382,50.46535-59.79998,61.88011-102.15348,7.08841-26.30003,17.19388-51.77171,19.50444-79.25285,7.39331-87.95375-56.69754-140.78137-141.72844-129.22464Z"/>
    <g>
      <path class="c" d="M630.39978,285.3924c16.23298-1.18088,34.49003,7.73396,40.70692,23.2059,13.55444,33.73285-11.38224,62.37234-46.10473,58.96793-47.29824-4.63742-49.01637-78.21544,5.39782-82.17382Z"/>
      <path class="c" d="M741.18388,280.20901c54.01412-7.30524,70.12475,69.29862,24.08842,82.47061-21.28211,6.08927-47.16517-5.70061-54.18739-27.06652-7.56738-23.02464,4.31756-51.91724,30.09896-55.40409Z"/>
      <path class="c" d="M695.00572,350.2252c.4878.04491.91381.34928,1.10446.80052,6.04353,14.30433,16.58772,27.67942,21.64286,42.3243.80136,2.32155,2.92719,9.22529-.10157,10.17161-6.0978.18955-12.72407,1.75156-18.83024,1.02467-1.75376-.20877-2.3795-.24015-3.18528-1.96831l-3.27999-35.43375c-.02458-5.13435-2.38159-17.3823,2.64975-16.91904Z"/>
      <path class="c" d="M685.35151,404.29381c-1.82791,1.81299-18.28182,1.34192-20.44675-.1898-4.53602-3.20931,2.90398-19.7416,4.49001-23.49552,3.54375-8.38757,8.27484-17.12199,12.31395-25.03634.84581-1.6573,1.57392-3.33453,2.95191-4.35855.59501-.44217,1.41904.05923,1.26577.78453-2.27632,10.77173,3.02282,48.72732-.5749,52.29569Z"/>
      <path class="c" d="M685.35609,434.70434c6.61604-.87355,7.50148,6.56285,7.91729,11.4527.63115,7.42222,1.70906,24.03707.89259,30.9208-1.10203,9.29125-11.07902,8.71919-12.7076.63981-2.32716-11.545-.85595-25.68879-2.76196-37.55907.49315-2.57589,4.21036-5.13083,6.65968-5.45423Z"/>
      <path class="c" d="M665.54605,436.50989c3.16514,4.01091,2.69577,23.68784,2.7938,29.4198.04376,2.55875,1.0413,4.826.95018,7.69749-.3717,11.71376-9.70182,13.15679-12.54537,3.03414-2.94951-10.49984-1.54682-23.96988-3.88871-34.79618.24762-6.26388,8.82806-10.2493,12.69011-5.35526Z"/>
      <path class="c" d="M740.33728,431.31005c.77781.79599,1.77235,5.6931,1.90438,7.11483.71401,7.68847,1.69401,23.61809.86667,30.9032-1.10308,9.71322-9.92722,9.42888-12.65463,1.48846-1.65181-4.80898-2.60716-29.45285-1.96692-34.99585.72074-6.23994,8.22724-8.21863,11.85049-4.51064Z"/>
      <path class="c" d="M703.85274,433.9407c2.94863-3.64918,9.67045-2.54307,11.37417,2.29272,1.7708,5.0262,2.09446,30.7565,1.20209,36.47953-.84692,5.43152-8.25286,7.87031-11.03234,3.40186-.86502-1.39066-1.49944-5.89527-1.69066-7.7561-.87682-8.53237-1.71743-21.59148-1.00497-29.97946.1353-1.59294.07875-3.11064,1.15173-4.43854Z"/>
      <path class="c" d="M758.34221,426.11238c2.83212-.58909,6.16544.73602,7.31744,3.50083.82192,1.97262,1.47772,11.98677,1.54152,14.78202.11677,5.11562.3405,21.91619-3.3967,25.00954-3.58051,2.96366-7.71254.90143-8.95855-3.22146-.87132-2.88308-1.29995-12.06835-1.46406-15.71032-.21265-4.71901-.71607-15.65659.05697-19.76382.37382-1.98611,2.97301-4.19527,4.90338-4.59679Z"/>
      <path class="c" d="M644.11874,475.56588c-3.35914,3.35665-9.92012,1.05459-11.44043-4.04276-1.3072-4.38283-3.19899-25.6698-3.01551-30.51646.20271-5.35451,6.29834-8.31679,10.71054-5.50764,3.36375,2.14162,4.59152,14.30228,4.84419,18.33738.21343,3.4084.49233,20.13956-1.09878,21.72949Z"/>
    </g>
    <g>
      <path class="d" d="M739.54432,591.81185c99.00644-22.32514,121.25715-5.64752,206.28722,23.44319,13.32318,4.55816,25.53419-9.30169,19.20502-21.88047-5.64381-11.21667-13.59402-16.12928-21.78996-19.2703-51.75028-19.83286-194.53813-41.62756-221.41712-5.6065-9.07485,12.16139,2.91243,26.65189,17.71484,23.31407Z"/>
      <path class="d" d="M972.32519,674.73947c-.7035-7.56322-6.37125-13.72098-13.83851-15.11282-41.02188-7.64619-80.53601-37.82843-109.04606-45.85017-29.16731-8.20668-113.85594-1.96445-121.18325,1.98033-12.18456,6.55978-14.05183,16.8872-1.2485,34.53894,8.18324,1.73857,79.28963-9.00378,104.35523-1.75572,31.41579,9.08431,63.69049,40.16941,115.15236,51.63402,14.35708,3.19845,27.56589-8.6942,26.01974-23.32175-.07459-.70569-.14566-1.41026-.21101-2.11282Z"/>
      <path class="d" d="M946.35075,741.96668c7.18667-28.74666-143.73331-86.23999-193.78615-74.32155-9.23022,2.19787-37.53082,2.47551-33.43333,17.96262,3.91265,45.82919,49.04427,16.84693,76.2995,20.4256,25.69372,3.37364,96.41167,35.15851,122.17332,50.30666,20.43675,4.35934,25.33426-.72373,28.74666-14.37333Z"/>
      <path class="d" d="M1030.87889,622.60599c.03704.94122-.26279,2.162.85895,2.57608-.04718-.93888.26942-2.162-.85895-2.57608Z"/>
      <path class="d" d="M1031.73784,628.61672l.85895.85856c-.02105-.61137-.85193-.79813-.85895-.85856Z"/>
    </g>
  </g>
  <g>
    <rect class="b" x="1001.239" y="76.99723" width="145.72945" height="15.18913" transform="translate(198.39613 712.27866) rotate(-40.13515)"/>
    <rect class="b" x="1015.37078" y=".15396" width="15.19057" height="298.94799" transform="translate(-3.77613 28.59672) rotate(-1.59863)"/>
    <rect class="b" x="1057.86621" y="122.58856" width="15.18981" height="164.0651" transform="translate(95.89168 691.46019) rotate(-37.53334)"/>
    <polygon class="b" points="900.68932 166.83974 897.25957 152.04079 1006.24308 126.79238 1187.34327 144.38913 1185.87465 159.5085 1007.24886 142.15208 900.68932 166.83974"/>
    <polygon class="b" points="964.74787 272.53887 950.68175 266.8068 1004.59348 134.49893 928.70288 38.69889 940.60909 29.26708 1022.00627 132.0186 964.74787 272.53887"/>
    <path class="b" d="M1026.32461,248.11972c-2.98619.00148-5.92492-1.09182-8.742-3.72199-5.39681-5.04078-23.62996-9.31016-33.42669-11.60359-7.90385-1.85135-11.49974-2.72511-13.89997-4.07505-1.49532-.84112-6.03766-3.39711-22.08716-36.23636-16.32542-33.40296-15.41903-39.48512-15.07784-41.77409,1.29802-8.71678,18.27765-73.40432,20.20911-80.75187l1.15116-4.37619,4.39696-1.07254c6.42929-1.56505,24.33311-6.19639,29.89755-8.77464,1.79498-.83222,5.31967-3.69232,8.43047-6.21568,8.64706-7.01526,17.57894-14.27677,26.65769-12.98171,11.3336,1.60807,67.2821,29.21961,67.80576,29.49257,6.58357,3.43271,6.54797,11.41815,6.50495,21.5279-.02374,5.4428-.05044,11.61249.98353,16.43965,1.10814,5.16687,9.66471,17.05677,14.7767,24.15955,2.42248,3.36596,4.51415,6.27205,6.02876,8.62332,1.82465,2.83043,5.21879,8.10115,1.36478,12.94908-1.255,1.5784-3.32591,2.91202-5.96794,2.99955-6.2943,7.03009-22.00854,38.02095-33.92217,64.80918l-13.14341-5.84481-.03264,6.82686h-.01038c-3.57364,0-12.05752,8.40822-17.12946,13.43417-7.48106,7.41431-16.31355,16.16669-24.76777,16.16669ZM978.2399,215.64541c1.8647.59932,5.97832,1.56208,9.3784,2.35869,16.27795,3.80951,31.5427,7.80149,39.51924,14.56753,3.06333-1.30099,9.3695-7.55079,13.26209-11.40777,8.84733-8.7687,17.99728-17.83558,27.82813-17.83558h.07566l-.02967,6.37737c2.21777-4.91765,9.08171-19.97769,16.49454-34.61642,5.33747-10.54291,9.93767-18.85471,13.67152-24.70546,1.67334-2.62127,3.84067-6.01689,6.456-8.70788-1.0666-1.51609-2.24595-3.15383-3.31997-4.64618-8.79689-12.22367-15.65787-22.1821-17.30005-29.85008-1.37961-6.43374-1.34846-13.47571-1.32176-19.6899.01335-2.97136.02967-6.82983-.22994-8.94968-11.44782-5.69943-54.45022-25.96936-61.02637-26.96476-2.87049-.14835-11.01614,6.54649-14.95174,9.73888-4.34801,3.52914-8.10411,6.57616-11.61397,8.20202-6.10145,2.82747-20.75205,6.7334-28.28207,8.65003-7.32975,27.96906-17.49587,67.57138-18.6767,74.42197.80997,8.7242,23.60622,54.98871,30.06667,63.05722Z"/>
    <path class="b" d="M1039.30187,183.0361c-2.09316-2.82895-3.95192-7.98247-.92271-16.47228,4.37174-12.25631,17.87118-27.68275,37.17687-32.58557l3.73831,14.72181c-18.75532,4.76486-27.86374,22.43132-27.29706,26.29424-.0178-.11719-.13796-.52514-.48361-.99243l-12.2118,9.03424Z"/>
    <path class="b" d="M1076.9846,148.94779c-3.15086,0-7.51815-1.00875-11.89138-5.27962-10.99389-10.73725-15.88187-36.45294-15.54809-45.06291l15.17871.58745c-.38718,10.0148,7.27338,33.41186,12.30674,34.57044l.86782,15.15646c-.29224.0178-.59635.02819-.91381.02819Z"/>
    <path class="b" d="M1058.04114,105.29154c-17.931,2.7498-26.60524-5.76085-32.34654-11.39232-1.97022-1.93382-3.83055-3.7587-5.34558-4.38261l5.78019-14.04832c4.25799,1.75279,7.28045,4.71816,10.20499,7.58708,5.02159,4.92609,8.9874,8.8184,19.40395,7.22174l2.30299,15.01443Z"/>
    <path class="b" d="M985.22624,143.49701l-12.59157-8.49723c2.81115-4.16703,6.8506-22.5411,8.97935-37.17538l.76695-5.26923,5.21583-1.0755c2.93724-.60673,5.738-.95238,8.44679-1.28467,8.59217-1.05919,14.26787-1.75789,19.44216-9.29533l12.52333,8.59514c-9.04611,13.18198-20.72535,14.61945-30.1082,15.77654-.71651.08752-1.41967.17505-2.11541.26405-1.72674,10.44946-5.56444,30.55917-10.55923,37.96161Z"/>
    <path class="b" d="M988.24283,179.06934c-1.37368-2.37353-2.74291-5.41609-4.19224-8.63816-2.88087-6.39962-8.24356-18.31325-12.90309-19.42733l3.53359-14.77521c11.91511,2.8512,18.18419,16.77788,23.22052,27.96758,1.28764,2.8601,2.50259,5.55999,3.49057,7.26596l-13.14935,7.60716Z"/>
    <path class="b" d="M1026.24153,196.34862l-6.91883-4.99183c-7.46475-5.2633-16.75414-11.81572-22.05008-12.06939l.72689-15.17278c8.00324.38421,16.44262,5.41016,24.76777,11.1185,6.58802-5.59114,17.036-8.98974,29.14692-2.40913l-7.25113,13.34813c-8.22724-4.46965-12.68799.70019-14.22337,3.13009l-4.19818,7.04641Z"/>
  </g>
</svg>