<?xml version="1.0" encoding="UTF-8"?>
<svg id="a" data-name="Layer 1" xmlns="http://www.w3.org/2000/svg" viewBox="0 0 428.59621 624.92377">
  <defs>
    <style>
      .c {
        fill: none;
      }

      .d {
        fill: #030203;
      }

      .e {
        fill: #f0eeef;
      }

      .f {
        fill: #d98cbd;
      }
    </style>
  </defs>
  <g>
    <path class="c" d="M135.17891,26.09184c-29.06714,10.12451-34.53442,39.82422-32.43311,63.03027.29419,3.24634.74121,6.3457,1.32422,9.3335,5.61353-6.81299,9.68945-11.90894,11.41504-14.42969,5.81592-8.49658,40.95801-12.9895,51.03467-12.33911,3.81543.24634,19.09033,6.50513,38.60303,15.25293.65137-1.81934,1.10815-3.11816,1.14966-3.63843,2.73682-34.36768-24.89746-73.30029-71.09351-57.20947Z"/>
    <path class="c" d="M190.67231,160.6226c2.92505-2.82861,8.4646-2.28223,10.30054,1.12939.01318.02441.02588.04907.03906.07373.01538-.57764.03516-1.15405.03516-1.73657,0-28.26172-18.38989-51.17236-41.07471-51.17236-16.06177,0-29.96094,11.49219-36.71338,28.23047,3.32324,4.01221,7.0061,8.01001,11.08521,12.10034,18.71216,18.76489,33.76978,33.18994,56.32812,11.375Z"/>
    <path class="c" d="M119.58638,169.38554c-.04004-.57178-.11621-1.16406-.24463-1.78857.07104.60059.15698,1.19482.24463,1.78857Z"/>
    <path class="d" d="M102.7458,89.12211c-2.10132-23.20605,3.36597-52.90576,32.43311-63.03027,46.19604-16.09082,73.83032,22.8418,71.09351,57.20947-.0415.52026-.49829,1.81909-1.14966,3.63843,7.88257,3.53369,16.45508,7.47314,25.24609,11.58765C239.43525,55.8433,214.94038,2.1165,155.75044.05668c-60.26831-2.09766-88.74341,54.46851-78.85742,96.28027,2.31836,9.80566,4.92603,18.23193,7.67896,25.48364,7.44531-8.87256,14.16699-16.89551,19.49805-23.36499-.58301-2.98779-1.03003-6.08716-1.32422-9.3335Z"/>
    <path class="d" d="M119.34175,167.59696c.12842.62451.20459,1.2168.24463,1.78857,3.51099,23.8208,20.25049,41.87598,40.38599,41.87598,22.21729,0,40.30298-21.97974,41.03955-49.43579-.01318-.02466-.02588-.04932-.03906-.07373-1.83594-3.41162-7.37549-3.95801-10.30054-1.12939-22.55835,21.81494-37.61597,7.38989-56.32812-11.375-4.0791-4.09033-7.76196-8.08813-11.08521-12.10034-2.78418,6.9021-4.36133,14.69043-4.36133,22.94189,0,2.55127.15479,5.05664.44409,7.50781Z"/>
    <path class="f" d="M401.89912,396.62553c-2.81201-11.33008-4.59131-23.2168-7.21826-33.67041-16.23926-64.62012-23.84131-111.22778-44.05273-173.70288-12.7251-39.33301-28.40625-44.88721-49.8374-56.14429-17.52539-9.20557-44.88574-22.62817-70.42188-34.58057-8.79102-4.1145-17.36353-8.05396-25.24609-11.58765-19.5127-8.7478-34.7876-15.00659-38.60303-15.25293-10.07666-.65039-45.21875,3.84253-51.03467,12.33911-1.72559,2.52075-5.80151,7.6167-11.41504,14.42969,2.90576,14.89429,9.39209,26.86304,19.18896,38.69165,6.75244-16.73828,20.65161-28.23047,36.71338-28.23047,22.68481,0,41.07471,22.91064,41.07471,51.17236,0,.58252-.01978,1.15894-.03516,1.73657-.73657,27.45605-18.82227,49.43579-41.03955,49.43579-20.1355,0-36.875-18.05518-40.38599-41.87598-.08765-.59375-.17358-1.18799-.24463-1.78857-.00317-.01611-.00513-.03149-.00854-.04761-.34497-1.64795-19.72363-6.11768-34.76123-45.72876C51.92695,160.72367,5.47724,215.8477,2.3542,226.94731c-6.21826,22.10254,1.31348,42.41992,6.10742,63.88916,20.77148,93.02637,46.15967,203.89209,73.604,294.40039,21.22607,70.00146,78.4292,26.89551,127.3418,23.03174,2.76416-3.4126,7.1543-3.55664,11.03467-4.6001,54.84668-14.74707,124.45361-26.69189,176.17236-45.17529,13.46875-4.81348,28.27441-16.92725,31.21094-31.33691,5.33496-26.18018-18.50781-100.64209-25.92627-130.53076Z"/>
    <path class="d" d="M119.3332,167.54936c.00342.01611.00537.03149.00854.04761-.28931-2.45117-.44409-4.95654-.44409-7.50781,0-8.25146,1.57715-16.03979,4.36133-22.94189-9.79688-11.82861-16.2832-23.79736-19.18896-38.69165-5.33105,6.46948-12.05273,14.49243-19.49805,23.36499,15.0376,39.61108,34.41626,44.08081,34.76123,45.72876Z"/>
  </g>
  <g>
    <path class="e" d="M190.58735,249.89164c-146.87354,15.57568-108.53784,264.81763,43.89014,230.69873,129.4895-28.98462,97.73999-245.71826-43.89014-230.69873Z"/>
    <path class="d" d="M189.66486,243.41117c-155.03809,16.44141-114.57129,279.53857,46.33008,243.52295,136.6875-30.5957,103.17334-259.37744-46.33008-243.52295ZM259.93683,459.15677v-62.53125l45.71094-9.61377c-2.02002,27.75732-19.66699,60.40479-45.71094,72.14502ZM298.20344,322.27836c7.44434,7.55799,12.89593,36.7304,11.78745,43.42006-.52953,3.19569-52.99253,18.45348-54.86021,16.51256-.6226-6.53579-10.74037-43.19175-10.23175-45.50106,6.85156-3.2998,49.73761-16.98673,53.3045-14.43155ZM207.01301,257.14701c24.88232,1.23242,47.654,7.88524,65.46064,25.03416,1.81787,1.75049,20.54408,24.64162,20.7931,25.72414,0,0-7.67269,1.13232-10.28548,2.32568-5.17529,2.36426-40.49613,12.49301-41.71452,12.24903-4.14893-10.46289-10.77914-24.18995-16.17025-34.12989-2.09619-3.86426-19.51709-29.92188-18.0835-31.20312ZM243.07834,385.30761c-8.00488,2.39648-50.9473,18.49105-57.68516,18.49105-.5127-8.50781-13.55178-45.60944-13.3908-46.85887,8.89795-1.92773,56.06456-18.32385,58.90805-17.08046,1.95654,7.00977,12.69357,41.45793,12.16792,45.44828ZM171.48664,262.51078c1.36035-1.2002,10.43262-3.18018,12.61475-2.97021,11.86572,1.14307,43.87256,62.75391,39.74609,67.32227l-55.33008,14.44678c-1.92773-13.83594-6.24316-70.67236,2.96924-78.79883ZM154.06476,269.14669c-5.30273,22.88721-1.93213,53.29182-.28857,76.68733l-47.81738,14.70752c-.83008-32.31689,17.1665-78.33284,48.10596-91.39485ZM120.38459,419.61771c-5.99316-3.75781-15.58594-38.20654-11.69092-44.30029,1.43457-2.24414,41.45312-12.52588,47.88135-13.76611l14.33594,47.07861c-10.62122.70068-44.74756,14.61182-50.52637,10.98779ZM132.43097,436.27592c-1.7998-4.19922,10.61739-6.85336,18.02402-8.32547,6.26964-1.24612,23.23704-7.73139,26.29451-7.01065,6.21875,18.6958,20.13068,36.12811,30.25129,52.62274-19.09766,3.27979-67.45996-20.69727-74.56982-37.28662ZM227.98762,470.83353c-9.93164-2.72266-38.49615-52.37898-37.8588-53.89374,10.7522-2.76904,50.16765-17.28007,55.81609-16.5977-.36768,13.21631,8.2219,77.66771-17.9573,70.49144Z"/>
  </g>
</svg>