<?xml version="1.0" encoding="UTF-8"?>
<svg id="a" data-name="Layer 1" xmlns="http://www.w3.org/2000/svg" viewBox="0 0 231.49729 360.46296">
  <defs>
    <style>
      .c {
        fill: #e5e1d5;
      }

      .d {
        fill: #1e1e1e;
      }

      .e {
        fill: #d688bb;
      }

      .f {
        fill: #105f2d;
      }
    </style>
  </defs>
  <rect class="c" x="103.81722" y="28.67647" width="65.48077" height="57.93103"/>
  <g>
    <path class="d" d="M127.89834,236.58682l-13.49288,2.69546c-3.76005.75114-6.95557-2.67733-6.03652-6.3999,5.20436-21.0799-2.75993-50.07551,4.63258-67.76212,4.27469-10.2278,39.09877-11.0581,46.56063-19.18667,7.57185-8.24839,16.88235-26.07452,16.18545-36.2254-7.85706-47.64584-72.7831-18.78892-102.19826-41.54427-14.18819,39.17284-7.38222,65.69985,26.07288,83.48351-5.65067,43.49259.43768,84.61231-17.5343,125.90683-1.32679,3.04858-5.38161,3.67752-7.55794,1.16399l-8.07163-9.32223c-.24518.55657-5.59423,2.41546-6.48484,4.71935.9294.9646,6.16079,24.50573,5.84796,26.13442-2.02585,10.5423-52.68396,64.74957-26.45087,59.90794,3.85668-.71174,43.11556-53.58541,48.37904-61.71352,7.27009-11.22678,7.83953-25.78922,13.10614-33.2125,1.02975-1.45134,28.37024-18.63159,30.1167-18.97487,1.21849-3.06561-3.18969-9.17628-3.07416-9.67003Z"/>
    <path class="f" d="M127.89834,236.58682c-.11553.49375,4.29265,6.60442,3.07416,9.67003,3.33232-.6552,20.19462,5.14021,33.65951,1.21833,31.32142-9.1236,61.39936-46.58392,66.86529-78.39618-40.06074-5.12813-94.21017,27.34883-103.59895,67.50782Z"/>
    <path class="f" d="M66.45836,269.39603c13.76248-31.24-28.60422-103.72922-62.59948-113.17284-11.21594,36.07544,3.08238,75.16476,29.12449,101.16543,8.44057,8.42709,22.36195,11.92754,26.99016,16.72676.8906-2.30388,6.23965-4.16277,6.48484-4.71935Z"/>
    <path class="e" d="M208.07976,63.18284c-4.79156-2.0225-10.24184-1.76225-14.7963.74907-.49225.27127-.99596.54364-1.49059.81508,4.03492-14.07104,1.79204-33.45691-12.30954-39.08793-4.21186-1.68157-11.48514,1.78368-15.77243-1.4073-5.73488-4.26936-2.26555-19.55848-21.4415-23.65485-14.9525-3.19349-22.96197,7.4523-29.68837,7.76548-8.78994.40936-15.85208-8.09425-26.06707-4.38623-17.37949,6.30932-13.71982,25.40318-20.38584,32.64063-1.52171,1.65252-26.76972,8.13669-8.07498,30.51319,33.17778,39.71211,60.40899,49.56673,74.88932,55.36509-.46784,1.55124-1.02908,3.18688-1.73066,4.93953l-.01272.03135c-.73778,1.83647.14193,4.00402,1.96063,4.78493,41.98028,18.03243,52.87262-15.23054,67.33816-41.37649,7.26427-13.13008,32.42487-17.20567,7.58189-27.69155ZM108.84178,79.661c-2.19239-3.05876-4.22608-6.09365-6.68554-9.27665-.52222-.67577-2.38513-15.37234-3.14809-15.75619-6.41795-3.22228-4.7573,5.33714-6.80336-1.93535-6.98755-24.83691,15.77653-37.10902,29.01371-18.28152,15.22032-4.47548,21.95643,6.26399,33.43743,10.04061,1.62021.53271,9.54621-5.16641,16.7081,1.14154,6.25897,5.51232,4.55277,22.88623,6.5251,26.62838-10.66838,5.60816-21.55933,11.02309-32.01008,15.68597-.51595.2302-.97577.57587-1.3269,1.01857-4.7107,5.93802-6.76554,10.56005-7.91209,14.96817-12.70857-11.1086-26.98362-23.09652-27.79827-24.23352Z"/>
    <path class="d" d="M171.36418,45.59337c-5.9622-5.25127-12.45386-2.18142-15.39631-1.31285-.80342.23716-1.3499,1.01516-1.26893,1.84894.47193,4.85996,3.65749,10.43486,2.66853,14.73266-6.18134,26.86075-11.23535,11.32099-20.37233,11.68694-2.6598.10636-7.03891,6.76475-10.20185,5.94108-6.81431-1.77473-23.44752-29.7408-6.71838-40.78455,3.28599-2.16925,3.38266-7.00196.30767-9.46117-15.80953-12.64363-37.4157,4.15462-31.87551,25.71172.12706.4944,4.64337,18.1281,8.31829,22.75169,3.57063,4.49253,10.10887,7.06132,13.36607,11.37328,4.34311,5.74896,3.91821,12.84776,7.25904,18.81315,2.01155,3.59182,10.57141,3.77069,14.32943,2.08997,1.90264-.85092,7.03602-7.07259,20.23074-14.9249,16.12135-9.59398,28.00471-7.32724,38.01931-20.24836.96313-1.24266,1.09133-2.81174-.43507-3.18847h0c-3.0992-.7436-10.61419,2.60069-11.23793,2.17724-2.71701-1.84251-.29867-21.31065-6.99277-27.20635Z"/>
    <path class="e" d="M138.00106,63.65831c8.41421.5021,11.59568-10.91897,4.19204-14.9485-2.79985-1.52386-5.61515-2.77561-8.39243-3.19738-13.65563-2.07458-8.57608,17.38347,4.20039,18.14588Z"/>
  </g>
</svg>