<?xml version="1.0" encoding="UTF-8"?>
<svg id="a" data-name="Layer 1" xmlns="http://www.w3.org/2000/svg" viewBox="0 0 734.57979 798.80137">
  <defs>
    <style>
      .c {
        fill: #0b3d9f;
      }

      .d {
        fill: #1e1e1e;
      }

      .e {
        fill: #f5f5f6;
      }

      .f {
        fill: #cf2e2c;
      }

      .g {
        fill: #db88b9;
      }
    </style>
  </defs>
  <path class="g" d="M479.47283,546.38594c15.12411-17.72694,51.82303-37.24101,73.47853-46.61779,11.20487-4.85168,14.00845-7.33944,11.94361,7.18052-7.56875,53.22341-38.6145,91.73454-95.54914,88.90911-1.71487-.0851-10.28992-.83652-10.91912-1.32512-1.05111-.81623-1.00059-1.74972-.8428-2.94134.57534-4.34495,5.30952-16.21521,7.24906-20.716,3.22203-7.47689,9.38404-18.32901,14.63987-24.48937Z"/>
  <circle class="f" cx="632.91777" cy="450.01239" r="14.7392"/>
  <circle class="f" cx="99.3129" cy="449.00766" r="14.65356"/>
  <path class="g" d="M119.28257,145.36386c6.87443,2.12393,13.40887-2.92947,18.86204-6.64682,12.85495-8.76302,28.94451-24.66512,46.33454-19.41781,12.79589,3.86106,11.30865,18.07054,6.116,27.63902-19.26055,35.49133-65.55786,27.77509-86.9355,55.95923-7.18345,9.47062-11.84952,21.62314-13.52997,33.42109-.74745,5.24762-3.10587,13.76817,4.87551,9.63468,13.94943-7.22429,22.62463-36.43553,42.14608-33.05334,16.14333,2.79691,8.27046,27.0708,3.55689,36.5724-19.18143,38.66591-68.83905,35.4596-55.39998,92.15994,4.74469,20.01817,12.7671,33.15426,3.47066,54.60247-.89633,2.06796-6.18558,13.04977-8.8232,7.90596-1.6748-3.26614-2.24495-9.05849-4.31869-13.37103-10.51742-21.87202-33.10857-27.09752-47.55318-43.62727-16.23162-18.57472-21.59452-42.68623-10.31553-65.46713,5.24507-10.5938,16.12228-11.7559,21.04589-.37977,3.38273,7.8159,1.5913,15.34976,3.344,23.19365,1.2171,5.44693,8.12245,19.8595,14.30895,20.40874,5.37093.47683,4.03955-14.28053,4.30246-17.2326,2.5154-28.24379,8.01075-39.63073-12.58531-62.95793-19.69354-22.30501-36.56936-34.10931-37.76678-67.70069-.56156-15.75355,7.0906-36.25928,26.3128-26.31526,19.92113,10.30559,19.82152,34.64619,26.2346,52.01728,1.09913,2.97722,5.72316,13.38254,9.61538,12.64964,2.767-.52102,6.34843-14.60695,6.92975-17.55785,8.28887-42.07611-31.64266-60.62338-35.74701-101.77331-1.36708-13.70624,1.20003-44.22331,21.3811-41.11296,14.13577,2.17864,24.70652,26.20972,28.46183,38.22109,2.99637,9.58387,4.52666,23.59659,8.12816,32.01862,3.43958,8.04338,5.64091-.63741,6.84043-4.4393,9.43363-29.90013,9.94072-56.18715,40.02377-74.97247,22.43739-14.011,44.28075-2.70013,32.72191,24.55649-9.21936,21.73996-30.70659,31.25252-45.37699,47.84481-7.09568,8.02524-12.70702,17.27283-16.66061,27.22043Z"/>
  <path class="g" d="M640.59059,132.35444c2.28122,1.30151,3.25668-2.98824,3.67905-4.65522,2.62968-10.37856,2.65839-20.00501,6.79625-30.62856,5.54452-14.235,24.69804-48.02216,44.06101-37.96015,15.56819,8.09005,12.61571,36.58995,8.0063,50.56129-10.75961,32.61288-44.08652,51.62575-38.72799,89.71302.21134,1.50215,2.243,11.52051,2.70915,11.91547.30482.25827,3.48165.3898,4.08013-.36527,8.66138-17.2944,15.05559-35.52454,30.54492-48.22092,20.83673-17.07957,34.59631-1.43854,32.65896,21.77173-2.59106,31.04185-22.18633,45.10432-41.51398,65.31685-17.46818,18.26792-21.67278,39.05851-19.74011,64.00474,1.23428,15.93154,12.44335,2.92287,16.64134-3.82155,6.44742-10.35833,11.308-31.09235,23.54723-35.64788,9.25664-3.44539,14.53706,4.44117,14.97401,12.87953.90467,17.47108-10.10084,41.11506-21.4476,54.13147-18.73988,21.49743-43.20011,25.95343-53.59933,56.63375-1.1755,3.46801-1.23067,11.82756-6.61859,6.28868-5.72421-5.88461-8.73799-21.94834-8.16485-29.9173,1.08882-15.13888,10.74393-28.84727,12.155-43.64266,3.76718-39.49965-27.556-41.80141-44.4309-68.35885-6.95995-10.95345-16.38406-38.43378-5.49518-48.9319,11.30549-10.89978,25.713,9.0746,30.53358,17.76944,4.85276,8.75289,8.9111,21.97805,20.40792,23.7881,3.89757-.80154.28172-24.88714-.56893-28.65717-11.09535-49.17409-56.6821-39.12353-86.4208-66.68071-8.87379-8.22284-18.51808-24.3024-11.79643-36.25229,9.47352-16.84223,36.97977-1.35498,47.82515,7.02808,3.82935,2.95994,28.55249,26.72138,32.33312,23.11662-4.08202-14.45377-15.65327-28.34653-26.89305-38.08301-15.66874-13.57308-37.51464-23.60292-45.55932-44.26023-9.30542-23.89466,7.01454-33.38533,27.76851-22.3249,27.54766,14.681,33.96815,43.98675,45.24964,69.7466.76163,1.73909,6.33585,13.36096,7.00578,13.74318Z"/>
  <path class="c" d="M395.09497,43.07099c3.26795,2.868,12.16224,6.59851,14.04733,8.74979.60243.68749.90231.87722.62484,1.91775-.27134,1.01755-10.72414,6.74627-12.80189,8.33675-5.3071,4.06248-9.45658,8.76354-12.43613,14.78192-4.16279,8.4084-5.76967,18.24509-10.14735,26.45046-.90108,1.68895-3.35078,1.95551-4.39247.34947-.05983-.09224-.11164-.18627-.15427-.28142-5.97419-17.82718-9.03597-32.14951-25.23463-43.49056-2.1674-1.51744-7.21801-3.60111-8.62544-4.99576-.77501-.76797-1.06511-.89623-.73164-2.0781.42772-1.51592,12.39764-8.49255,15.03297-10.88738,11.45401-10.40869,11.70777-21.1993,16.8859-34.14794,3.52572-8.81655,5.21193-10.55519,8.77835-3.04706,6.74933,14.20888,5.99339,26.79177,19.15444,38.34208Z"/>
  <path class="f" d="M561.92499,185.50807c-1.51831-1.72522-8.80078-9.42932-10.85986-8.82861-1.19409.71411-1.14307,1.84412-1.09448,3.03137.17749,4.34277,3.53735,11.05933,4.03174,16.44141,1.8623,20.2688-3.2085,40.2019-18.60669,54.02649-9.36743,8.41016-16.5166,12.76685-14.56372-4.35632,1.83008-16.04639,9.41016-27.95093,8.75513-45.66846-.91943-24.87524-18.89355-41.51599-12.43359-66.88281,2.13428-8.3811,6.97144-15.88782,8.98755-24.35474,3.86548-16.23389,1.4043-30.41431-8.24097-44.05273-2.68188-3.79224-11.32861-13.44666-15.88135-13.45996-4.62451-.01367.12769,9.17981.73218,12.27832,7.6228,39.06787-31.19141,53.70801-33.74146,86.76831-1.83789,23.83105,7.92456,38.19067-8.54102,60.86499-1.67651,2.30835-9.06152,11.52002-12.20605,8.2417-2.18433-2.27734-4.09741-18.73022-5.27954-23.29883-4.37402-16.9043-12.02295-23.99768-9.82471-43.55396,1.07935-9.60181,6.94897-19.40405,7.89429-28.8501,1.73657-17.35291-4.95264-34.35596-17.56299-46.21387-1.4751-1.38721-9.68701-8.84814-10.83984-5.30737-.79443,2.44019,2.60107,11.54932,3.12427,15.04431,5.87524,39.24402-27.72412,49.08167-34.31812,80.98938-2.61475,12.65332-.12134,26.34875-6.89307,38.01697-1.8291,3.15186-2.78223,5.30371-6.23682,1.92932-3.37549-3.29712-17.99854-31.30811-19.40625-36.38977-5.15479-18.60645,3.39868-36.23889-.64185-55.15515-1.79517-8.40466-6.4624-16.9137-11.95239-23.43091-4.00439-4.75342-11.27417-12.94043-17.67358-12.61108,1.29077,8.83008,4.02222,16.21729,3.39575,25.51025-1.5083,22.37805-18.97925,35.74512-21.68286,57.24976-1.89136,15.04517,5.36279,40.73633-2.89941,53.57458-3.27905,5.09509-10.354-5.00525-12.41968-7.80115-16.8269-22.77734-4.38721-40.96082-9.57617-65.27344-6.82373-31.97217-40.61621-39.927-37.021-77.7998.32422-3.4137,5.31128-17.5968,4.59912-18.71753-1.48975-2.34497-8.31787,2.7605-9.80615,3.98425-12.56885,10.33655-21.04883,29.65674-20.04907,45.93738,1.5,24.42578,20.77661,39.00342,19.03369,63.27966-1.19141,16.59216-11.59302,30.35864-12.90698,46.97327-1.09229,13.81006,3.12476,22.84717,4.06299,35.38123.18774,2.50696.54785,11.95715-1.48486,13.10999-2.10938,1.19629-2.41724-.78137-3.1355-1.13672-23.4917-11.62183-30.37134-44.9187-23.46094-68.65088.88354-3.03369,9.29028-18.78101,1.32446-15.00391-20.96411,9.94031-37.22998,45.92627-37.26001,68.27051-.03638,26.90332,9.27002,38.43201,18.55469,61.12146,5.36084,13.10071,7.07593,27.92395,5.32422,41.96704l366.76318.68042c-1.25366-10.24146-.58813-20.03552,2.38428-29.93713,5.01416-16.70349,17.91772-29.81763,24.16553-46.60144,10.68286-28.69751,5.60181-58.34351-14.63208-81.33569Z"/>
  <path class="c" d="M498.06309,770.4758c-6.93216,6.97393-20.43229-1.47881-26.06968-6.81259-16.41301-15.52904-22.04879-41.46527-.01273-54.99357,6.92706-4.25264,20.47192-7.01868,20.20766-17.20712-.23103-8.90696-11.97762-15.14169-15.11552-23.71896-6.69311-18.29523,13.46884-40.33763,28.79137-47.6716,15.99036-7.65363,25.15678,1.34992,18.8768,17.51592-2.83278,7.29217-13.43366,15.92675-12.80922,23.14454.59807,6.91287,8.47819,11.89185,12.56671,16.74338,12.68147,15.04812,8.84492,32.04313-6.9422,42.74689-9.22761,6.25637-21.82147,6.88254-19.88523,21.50674.46427,3.50655,2.88734,6.66038,3.72385,9.88372,1.4981,5.77262,1.11581,14.38823-3.33181,18.86266Z"/>
  <path class="g" d="M242.2383,534.11842c13.22655,10.9988,23.53579,27.4437,29.58329,43.56057.66327,1.76765,4.72525,13.54877,4.54843,14.2768-.43866,1.80612-4.03541,2.32125-5.69637,2.50513-30.84871,3.41513-62.54118-4.96504-81.17982-31.07822-10.97295-15.37336-19.67675-39.70599-21.82061-58.47323-.23914-2.0934-1.24798-8.93509,1.06331-9.70195,2.55719-.84845,15.40246,5.50498,18.61114,7.03939,17.01157,8.13501,40.56555,19.9592,54.89064,31.87152Z"/>
  <path class="f" d="M462.19721,679.93789c-.23081-.7884-.9722-.96031-1.67314-1.08999-4.59837-.84925-13.83269.07182-19.07443.02494-1.87656-.01696-3.62451-.70128-5.7581-.70859-2.78732-.00931-6.78059.68764-10.20676.68066-4.58628-39.50728-45.40828-62.20818-82.11711-47.07403-14.89246,6.13992-27.00059,19.37174-32.00068,34.68346-.65938,2.01937-2.21967,10.60063-2.53885,11.07014-.7354,1.08267-6.51574.65772-8.25526.66902-1.2772.00865-2.57131-.71258-3.01293-.70959-1.18521.00798-2.70357.70926-4.39117.71325-3.58964.00831-18.42665-.99256-20.50222.58889-.36527.27865-.7689.77609-.8761,1.21768-.58697,2.41839,9.87042,15.17572,12.14234,17.5715,13.30486,14.0302,32.06972,24.97099,51.05196,28.901,34.38786,11.83293,82.59664.66337,109.56223-23.46569,3.35825-3.00528,18.76968-19.24971,17.65022-23.07265Z"/>
  <path class="c" d="M212.32345,615.72461c13.70223-2.51199,32.80149,16.28665,39.08259,27.27969,5.80074,10.15233,7.02008,20.07473-.23391,29.93951-3.13703,4.26609-8.31719,7.4081-10.65998,12.47566-6.54495,14.157,10.49485,17.51146,19.14831,22.81913,21.52154,13.20042,16.43376,37.25276,1.17277,53.29864-7.80687,8.20838-27.02956,19.37279-31.82107,2.52611-3.26595-11.48291,5.95882-20.33005,4.28304-28.78132-1.65889-8.36615-12.97289-11.10734-19.37624-15.32449-16.09009-10.59669-20.86619-27.6691-7.88777-43.16218,4.2798-5.10904,12.55691-9.65895,13.13641-16.8588.73631-9.14803-12.63701-17.4786-14.09121-28.44082-.75231-5.67118.4889-14.53219,7.24704-15.77113Z"/>
  <path class="c" d="M367.64641,276.01771c3.14538-.02768,6.38947-.14918,9.52632,0,17.07405.812,39.85911,4.10305,56.47744,8.16541,1.95412.47769,4.4197.87803,6.12406,1.3609,14.83884,4.20404,37.85451,13.42783,51.71429,20.41353,18.09968,9.12273,42.04668,25.3741,58.5188,37.42481.07216.05279.06829,1.13041.71428,1.63935,17.7241,13.96381,37.75601,31.87395,52.71075,48.70442,2.06786,2.32722,14.51851,17.24963,14.64339,18.77476.05661.69136-.10534,1.03032-.36874,1.61782-.7792,1.73802-8.32474,10.17442-10.19194,12.28831-14.35426,16.25072-32.88011,33.1814-49.70135,46.92271-58.35277,47.66852-110.81248,72.76459-187.44548,74.86842-2.49461.06849-4.82392-.57273-6.80451,1.3609-3.16421-2.52709-8.58066-1.07652-12.58177-1.36747-79.32729-5.76861-150.91345-50.20351-207.21344-103.75272-4.35539-4.14259-29.34118-29.55534-29.2216-33.35634.06249-1.98618,14.81583-18.75698,17.31371-21.43899,13.62978-14.63449,35.53507-35.05243,51.38357-46.94162,17.28754-12.96872,46.8983-31.02024,66.68421-40.14662,14.75539-6.80602,36.86039-15.13502,52.39474-19.05263,2.44303-.61611,5.00906-.91311,7.48496-1.3609,18.35926-3.32043,39.2387-5.96035,57.83835-6.12406ZM533.2342,425.27327c.43349-.47551,1.27682-.67913,1.78319-1.24693,1.34782-1.51132,8.16469-9.51506,8.53965-10.59747.61061-1.76262-5.6246-8.19459-7.14081-9.84453-36.67175-39.90615-92.47105-72.78529-146.7515-79.83872-64.63956-8.39953-130.47296,18.60152-177.51936,61.80676-3.25681,2.9909-23.36381,23.0302-23.44666,25.5159-.06017,1.80548,9.89052,12.57909,11.88743,14.65818,42.24791,43.98671,111.3622,79.88648,173.5526,77.58998,58.7513-2.1695,120.01918-35.17951,159.09545-78.04317Z"/>
  <path class="e" d="M533.2342,425.27327c-39.07626,42.86366-100.34415,75.87367-159.09545,78.04317-62.1904,2.2965-131.3047-33.60327-173.5526-77.58998-1.99691-2.07909-11.94761-12.8527-11.88743-14.65818.08285-2.4857,20.18985-22.52499,23.44666-25.5159,47.04639-43.20524,112.8798-70.2063,177.51936-61.80676,54.28045,7.05343,110.07975,39.93256,146.7515,79.83872,1.51621,1.64994,7.75142,8.08191,7.14081,9.84453-.37497,1.0824-7.19183,9.08615-8.53965,10.59747-.50638.5678-1.3497.77142-1.78319,1.24693ZM329.54114,349.50643c-.19775.14613-.70578.09015-1.3609.68045-35.61377,22.18493-44.98506,73.83739-20.2879,107.72586,44.88374,61.58769,136.03249,24.1025,131.22989-50.25621-3.3188-51.38509-65.54359-90.69112-109.58109-58.15011Z"/>
  <g>
    <path class="d" d="M111.74872,335.60523c11.09595,7.37512,10.86304,14.453,16.03564,24.79138,1.11792,2.23413,1.76538,3.15808,3.11133.38342,5.06543-10.44324,4.73804-18.20715,16.06543-25.44214,1.53979-.98352,9.5293-4.31238,9.74512-5.23352.45581-1.9436-6.21094-4.22729-7.70386-5.21521-6.10767-4.0415-10.39966-9.1543-13.50781-15.75159-1.09351-2.32129-4.74365-14.24683-5.40674-14.66003-.29541-.1842-1.6936-.1925-1.91357-.0509-.74341.47961-4.90674,13.91882-6.25244,16.55249-2.62524,5.13745-5.95654,9.17297-10.57983,12.55542-1.60693,1.17554-9.58398,5.27319-9.72314,5.96509-.34058,1.6947,8.15015,4.78967,10.12988,6.10559Z"/>
    <path class="d" d="M288.34223,65.95765c8.36572,0,15.14746-6.78174,15.14746-15.14734s-6.78174-15.14734-15.14746-15.14734-15.14722,6.78162-15.14722,15.14734,6.78174,15.14734,15.14722,15.14734Z"/>
    <circle class="d" cx="457.45258" cy="50.95057" r="15.1355"/>
    <path class="d" d="M286.4748,757.24012c-.94897.21313-3.08691,1.60596-3.81836,2.30444-9.50195,9.07812,2.06445,24.25049,13.09253,17.17578,10.30347-6.60962,3.65161-22.38477-9.27417-19.48022Z"/>
    <path class="d" d="M442.72577,757.25794c-5.93408,0-10.74463,4.81055-10.74463,10.74438s4.81055,10.74438,10.74463,10.74438,10.74414-4.81055,10.74414-10.74438-4.8103-10.74438-10.74414-10.74438Z"/>
    <path class="d" d="M588.74652,336.28431c4.45117,3.15845,8.43457,8.06055,10.85107,12.9646.94067,1.90869,4.323,12.88293,5.20068,13.17188.82861.27271,1.48096.052,2.01416-.67896,1.20996-1.65881,2.88281-10.5603,4.43555-13.59631.72925-1.42639,5.7063-8.40198,6.80444-9.52625,2.31543-2.37061,14.70801-7.41492,14.28979-9.17651-.13745-.57837-8.50366-4.89478-10.15015-6.19067-4.47949-3.52637-8.25659-8.70886-10.59253-13.90381-1.13232-2.51831-3.89697-13.76685-4.46924-14.24634-3.14575-2.63623-5.16504,7.4187-5.96655,9.2771-2.9873,6.92749-6.47656,13.39026-12.42798,18.19238-1.74194,1.4054-9.31274,5.53076-9.8313,6.50476-.39697.74548-.55811,1.34998-.02271,2.09851.32324.4519,8.06909,3.83533,9.86475,5.10962Z"/>
    <path class="d" d="M364.59906,269.19862c-8.90698-16.56299-32.79175-60.34851-34.36938-59.18286l-20.42163,72.12598c18.35938-3.32043,39.23877-5.96033,57.83838-6.12402-.65283-2.3783-1.88599-4.65942-3.04736-6.81909Z"/>
    <path class="d" d="M492.60321,231.20448s-35.46509,36.00427-52.8291,54.3396c14.83887,4.20398,37.85449,13.42773,51.71436,20.41345.37012-8.25452,1.11475-74.75305,1.11475-74.75305Z"/>
    <path class="d" d="M416.96894,211.37818c-1.35645-.2865-27.01636,40.90393-36.94214,58.30774-1.12427,1.97095-2.29517,4.11707-2.854,6.33179,17.07397.81201,39.85913,4.10303,56.47729,8.16541l-16.68115-72.80493Z"/>
    <path class="d" d="M249.92841,302.55531c14.75537-6.80603,36.86035-15.13501,52.39478-19.05273-3.98047-5.9707-46.95288-52.73291-46.95288-52.73291,0,0-4.83472,52.2356-5.44189,71.78564Z"/>
    <path class="d" d="M316.55044,745.54368c.26983,1.84863,47.07957,51.19198,48.02544,52.26598,1.2201,1.38539,3.78042,1.31675,5.15307-.19015l47.51116-50.97163c.27842-.2987.40019-.71093.32875-1.11297h0c-.10987-.61837-.64642-1.06957-1.27447-1.07175l-98.44368-.34134c-.76779-.00266-1.41115.66211-1.30026,1.42186Z"/>
    <path class="d" d="M428.89106,623.72523c2.38477-8.76636,6.01807-17.10571,8.49927-25.85645,3.68628-13.0022,6.08008-26.28418,6.50146-39.7832.32764-10.49048-3.87939-7.05176-10.05518-3.23669-10.71484,6.61902-22.89624,18.60291-30.78735,28.41174-4.32886,5.3811-13.05124,20.58431-14.32224,20.285-.65649-9.00391-3.71638-19.36139-6.77908-27.80135-2.78089-7.66337-7.22947-24.16291-11.51977-33.58002-1.28736-2.82572-5.7931-2.48615-6.98851.3352-7.1011,16.75981-14.47962,42.12765-18.59499,58.78046-1.20483-.02563-26.26587-36.15173-44.88892-47.65247-9.78687-6.04395-9.43066-3.32922-9.21558,7.19104.43848,21.4314,7.19385,42.28027,14.30151,62.22559-15.38501-6.78345-56.03882-17.48193-54.79663-12.90454.75854,2.79492,5.16968,10.5918,6.81348,13.60327,10.81616,19.81592,25.34302,37.18359,40.50146,53.74097.44165-.00293,10.53271,1.12329,11.26831.04077.31909-.46973,1.87939-9.05078,2.53857-11.07007,5.00024-15.31177,17.1084-28.5437,32.00073-34.68359,36.70874-15.13428,77.53101,7.56665,82.11719,47.07397,3.42603.00708,7.41943-.69019,10.20679-.68066,16.04199-17.63892,32.07739-36.56934,43.22314-57.82373,1.26953-2.42065,5.80347-10.13672,4.76807-12.25342-.92236-1.88525-39.60107,9.0083-54.79175,15.63818Z"/>
    <path class="d" d="M646.96527,711.53187c-1.26587.19458-6.03662.91138-7.03027,1.09204-27.99878,5.09033-53.83301,24.81421-75.02856,42.74951-2.46924,3.67261,6.17603,4.4397,8.77515,4.92676,25.97778,4.86743,92.77271,7.47681,105.94946-21.57788,9.80078-21.61108-15.44385-29.83862-32.66577-27.19043Z"/>
    <path class="d" d="M660.29364,603.70814c25.27856-15.8606,61.87207-25.99902,70.73486-58.55103,6.57227-24.14014-8.09302-34.42834-29.74194-23.61768-16.81909,8.39868-26.71948,23.65527-40.35767,35.17236-1.05786.89355-7.33154,5.77649-8.1731,5.08862,3.22876-11.77808,8.35938-22.86792,14.68677-33.27783,19.08691-31.40137,50.15576-48.34839,59.39746-86.21924,4.29932-17.61853,7.91455-65.01831-23.05078-53.33081-21.979,8.29578-34.86646,41.74634-40.14648,63.28198-8.23462,33.58472-9.77026,67.26978-26.05225,98.81079-.59619,1.15527-4.1416,7.64868-4.5813,8.01465-1.45483,1.21106-1.9668-2.32007-2.03174-3.0498-.70142-7.90088.81128-16.2627.74292-23.81982-.1626-17.97131-6.18408-49.71069-23.40259-58.99377-16.29932-8.78748-26.55835,6.16052-28.28467,20.97217-4.17969,35.86194,26.26685,58.60168,28.51929,91.74817,1.06934,15.73779-3.89795,33.82642-11.98877,47.26318-1.63672,2.71802-4.05176,7.25317-7.09009,8.21973,1.1604-5.30737,1.8269-15.10107,2.06934-20.72559.82886-19.24194-2.03516-47.44019-17.0376-61.27026-12.10718-11.16089-20.40332,11.61841-22.67847,20.19336-9.57739,36.09473,9.97485,59.64648,8.41528,93.47168-.45117,9.78784-7.10132,37.96369-31.18238,71.02989-3.94998,5.42381-9.93069,12.19361-12.29467,16.81533-2.64648,5.17358,3.22309,9.22824,8.51366,4.95624,18.60797-15.02547,28.54395-23.9765,42.42017-35.33148,26.60986-21.77441,47.49414-27.89233,78.66577-39.36621,30.69727-11.29907,61.72949-35.41919,72.73169-67.46509,5.04004-14.67944-6.12695-14.95898-17.63672-13.55713-22.60205,2.75317-45.19824,15.84668-62.63672,29.90527-9.23364,7.44385-18.85742,18.84961-28.25537,25.15991l-.00024.00024c-.85913.57666-1.73047,1.04102-2.71484,1.3606,8.2041-26.98657,28.98242-48.16968,52.44116-62.88843Z"/>
    <path class="d" d="M139.22992,734.76673c-17.59521-12.04004-45.88354-26.69312-67.69702-24.46118-30.56934,3.12769-29.05029,31.23633-4.4248,43.50806,21.99219,10.95947,70.84839,11.68701,94.24658,4.8689,3.40088-.99097,5.95532-1.4314,2.4939-4.98755-5.69873-5.85449-17.61426-14.13501-24.61865-18.92822Z"/>
    <path class="d" d="M175.75922,702.66053c-2.92871-7.83105-5.06982-20.52612-5.47192-28.89087-1.68628-35.09473,19.2124-61.53467,8.15283-97.97241-4.54419-14.97156-13.01001-30.65784-26.40552-11.5011-9.91382,14.17761-13.6123,34.90955-13.01294,52.2804.20312,5.88354.75024,18.90674,2.03442,24.16284-1.60278-.18677-3.18799-2.52759-4.07349-3.75098-9.15967-12.65503-15.63477-32.61304-14.97119-48.2981,1.46973-34.74097,33.15601-59.3866,29.92114-95.25769-1.54712-17.15747-15.52759-32.06042-31.97827-19.07141-16.74146,13.21875-20.521,44.75195-20.43823,64.68311.02539,6.1062-.98828,19.34717-.98828,19.34717-3.13354-.1709-14.55688-31.78088-15.9502-36.43091-7.85742-26.22266-8.93359-53.94434-17.05151-79.91284-1.96753-6.29395-11.41974-36.54932-34.02246-52.39478-16.97266-10.65527-27.13867,4.10864-28.56836,20.08423-5.94287,66.41138,48.57837,83.1344,70.19409,135.28076,2.01733,4.8667,4.13843,10.14795,4.64136,15.42505-.65869.70239-5.33032-3.05554-6.12866-3.73096-14.61938-12.36865-36.6333-42.82861-58.17456-40.49463-14.13501,1.53149-15.06177,17.49902-12.0957,28.4303,8.01221,29.53137,40.58956,38.0169,62.57031,54.46716,55.40563,41.46523,55.3396,65.44043,55.3396,65.44043-2.24048-3.36426-16.15063-15.57471-20.09106-19.03491-18.13965-15.92969-41.0686-30.62817-64.11035-35.35767-4.4834-.92017-21.2168-2.82153-23.00684,2.63721-3.01733,9.20215,10.85107,31.77246,16.72314,39.1521,31.5708,39.67456,72.04126,38.1145,111.52173,62.67407,6.60791,4.11035,15.16455,9.7356,21.15137,14.57202,14.52515,11.73413,33.02495,27.09923,48.01597,35.32397,2.65501,1.45666,5.90476-2.93193,4.42367-5.04544-1.74671-2.49255-13.04436-13.58621-18.14781-20-8.08944-10.16646-15.69637-25.30246-20.00228-36.81613Z"/>
    <path class="d" d="M329.5412,349.50648c-.19775.146-.70581.09009-1.36084.68042-35.61377,22.18481-44.98511,73.8374-20.28809,107.72583,44.88379,61.58765,136.03271,24.10254,131.22998-50.25623-3.31885-51.38513-65.54346-90.69104-109.58105-58.15002Z"/>
  </g>
</svg>