<?xml version="1.0" encoding="UTF-8"?>
<svg id="a" data-name="Layer 1" xmlns="http://www.w3.org/2000/svg" viewBox="0 0 597.07107 806.97804">
  <defs>
    <style>
      .c {
        fill: #0b3d9f;
      }

      .d {
        fill: #1e1e1e;
      }

      .e {
        fill: #f5f5f6;
      }

      .f {
        fill: #cf2e2c;
      }

      .g {
        fill: #db88b9;
      }
    </style>
  </defs>
  <ellipse class="e" cx="295.32331" cy="659.18581" rx="149.03222" ry="143.93104"/>
  <g>
    <path class="d" d="M584.84132,517.20558c-13.55957.01196-23.96777,12.23181-33.47363,19.60303-.64014.49658-.43164,1.35327-2.24951.85291,4.4292-7.62097,7.78516-15.91956,12.13086-23.58594,4.00146-7.05872,11.18799-15.31299,14.2998-21.76355.61377-1.27234,1.84814-3.32178-.21484-3.64368-8.16016-1.27356-17.90234,9.10815-22.41455,15.03625-3.92822,5.16113-6.56689,11.20886-10.59912,16.27185,1.35791-6.54309,2.33301-13.20154,3.72803-19.74084,1.41895-6.65356,6.05371-19.95496,6.25293-25.63037.02783-.79468-.37305-1.48853-.47998-2.25269-11.40186,1.97803-16.07959,18.68604-18.84033,28.4248-1.0376,3.65967-5.3833,25.0542-6.32764,26.0022-1.12744,1.13171-1.16846-.17383-1.32715-1.03015-.98389-5.31238-1.77637-12.95813-2.05811-18.36792-.26758-5.1344,1.03662-17.88123-.1123-21.66174-.77148-2.53833-3.68652.21826-4.65332,1.25952-9.68652,10.43262-5.67334,30.72876-6.82031,43.53345-1.67578,18.71875-19.90381,23.15112-32.65039,32.33228-26.09912,18.79907-27.83887,48.42578-35.57715,77.03735l-2.52148,7.33521c-.26953-9.16919.32764-18.41333.02148-27.58276-.60303-18.04736-3.05908-33.93188-.62158-52.27979.88037-6.62793,3.92627-13.81567,3.99561-20.16028.1001-9.1687-3.25635-20.00964-7.87939-27.84412-16.89893-28.63831-58.69824-36.44189-85.34229-17.06567,15.4292-4.8894,34.01611,2.45581,41.08105,17.09741,7.05518,14.62183,2.56055,31.04126-7.73877,42.77563,23.34766.28101,37.34229,23.6748,23.83203,43.91235-7.2041,10.79126-21.84521,16.01733-34.38623,16.64722-5.52441.27759-11.47705-1.39673-16.66406-.6731-4.85742.67725-10.8667,6.07227-13.2915,10.18384-10.56351,17.9085-.24652,47.77606-.96243,66.72749-.01588.42038.52419.6464.78079.31305,1.53515-1.99433,2.2959-12.38355,2.66064-13.51636,5.94678-18.45996,13.41504-35.5459,29.63965-47.26245,13.5918-9.81543,29.64404-11.29663,44.23096-19.05103,1.35889-.72241,7.00586-4.75464,7.44385-4.82275,2.39062-.37158,1.70508,6.6665,1.61963,8.44189-.3252,6.77197-2.12354,16.81885-3.72852,23.49023-2.06299,8.5769-5.50146,16.23145-9.87451,23.80811,23.10449,17.42163-2.48926,58.81543-18.3623,73.15796-18.98003,17.14999-60.4909,40.67214-83.57645,53.35065-10.99891,6.04057-24.19568,6.48351-35.59641,1.24063-35.00506-16.09786-72.70543-45.74653-88.35595-65.50656-11.60059-14.64697-27.23975-47.72754-8.18408-62.24268-4.05176-7.7522-7.84229-15.20288-9.87402-23.80811-1.55078-6.56689-4.76709-24.25464-3.73291-30.28564.15869-.92676.45459-1.73145,1.59766-1.62207.86865.08301,10.84229,6.78809,13.22656,7.88794,12.46924,5.75171,24.6748,6.88623,36.69873,15.01538,17.94287,12.13086,24.82275,28.42383,31.41455,48.20923.43164,1.29517,1.01221,14.09351,3.10596,12.72241-.82324-17.72876,7.83154-43.91748,1.57959-61.64844-2.396-6.79443-8.31982-13.20312-15.49707-14.78271-18.29297,1.76953-40.79443.43311-51.57959-16.80615-12.62012-20.17188,1.45557-42.95215,24.36133-43.08057-11.73438-13.47571-15.85498-32.58691-4.646-47.84778,7.68115-10.45764,24.55811-16.14478,36.62744-12.70544-2.5708-3-7.82812-5.13623-11.5957-6.43616-36.88379-12.72449-80.73145,11.39001-80.26514,52.70679.0752,6.67078,2.99854,12.97766,3.98486,19.49048,2.73633,18.06946-.00146,36.255-.61084,54.31042-.28662,8.49048.27588,17.052.021,25.5415l-1.98193-5.15234c-6.15723-22.19165-8.57812-49.31836-23.59668-67.58374-3.12061-3.79578-7.35742-6.76672-10.47803-10.27551-9.13232-6.99573-24.73682-11.94934-30.75195-21.98279-8.99316-14.99988.90381-35.62769-8.58398-51.97632-1.09912-1.89355-6.08691-8.65625-6.93311-3.95044-.99072,5.51135.30762,14.90417-.00879,21.08496-.25928,5.07373-1.53613,10.49707-1.35742,15.65393l-1.34863,7.14307c-3.7876-12.64294-5.44043-26.33435-9.90332-38.75256-2.04688-5.69507-7.0542-15.9248-12.85303-18.44727-2.26465-.98486-3.6709-1.20166-3.5708,1.62671.20752,5.86938,4.9458,19.30884,6.37305,26.19067,1.24951,6.02319,2.71631,12.41479,2.92725,18.49683l-8.28467-13.1394c-4.34619-6.0907-12.10205-15.34375-19.59814-17.14526-8.31738-1.99902-5.58643,2.11987-2.61182,6.69385,7.58936,11.67004,18.5332,26.22754,23.16699,39.43359.38135,1.08691.7168,2.0249.52295,3.20996-1.08252-.34253-1.31104-1.79468-2.33789-2.75562-7.27393-6.80762-19.80615-16.71973-29.94824-17.68335-2.41797-.22974-8.94141-.96045-8.57324,2.40308.18652,1.70129,5.41895,3.65332,7.18311,5.11157,15.89209,13.13513,25.13428,26.11145,37.5249,42.08447,14.45703,18.63818,31.44092,29.02466,48.5625,44.6626,28.86279,26.36157,25.35889,48.33276,35.87305,82.52539,3.21533,10.4563,7.85986,20.21362,12.42969,30.09888l9.52637,14.28955c4.09082,2.70825,15.83691,16.69824,21.00977,21.54858.47656.44653,2.85986,2.16846,1.77686,2.95679-24.31494-4.05322-41.51904-23.67383-64.96777-29.61572-6.9917-1.77148-15.64453-2.9187-22.83301-2.40552-16.64355,1.18774-17.03516,8.1792-8.07959,20.38916,15.27246,20.82153,42.75977,30.1748,67.98389,28.62769,13.96973-.85693,32.63135-7.24658,46.24658-4.72607,2.64355.48926,18.51758,10.25122,23.0459,12.33765,20.7251,9.54956,44.01516,18.78345,74.48438,18.78345,27.55378,0,61.76758-10.90674,77.96045-18.31934,4.81543-2.2041,20.99463-12.2561,23.94238-12.80176,12.06787-2.23389,28.00879,2.73291,40.12646,4.0415,27.79688,3.00122,57.47412-4.80249,74.38379-28.34351,8.3584-11.63599,8.08545-18.49146-7.79688-19.87109-15.2915-1.32837-31.26221,3.88843-44.49707,11.12598-14.58691,7.97705-27.11475,18.46265-44.56348,20.75317-.4668-.63525.91113-1.62939,1.35156-2.04419,4.69141-4.42163,9.49414-8.57422,13.98486-13.23291,2.51855-2.61279,5.21533-7.26489,8.14746-9.20386l9.52637-14.28955c4.56006-9.8877,9.22803-19.63916,12.42773-30.10059,5.91309-19.33374,7.54932-41.94092,17.15723-59.73389,12.81934-23.74023,39.646-36.56396,57.53076-56.10437,13.57031-14.82654,23.41748-32.70007,38.7583-46.29834,2.2876-2.02795,15.68213-11.34558,15.69336-12.92114.01318-1.91003-4.41113-2.42981-5.81787-2.42859Z"/>
    <path class="e" d="M445.00913,506.36764c3.58346,7.65854,6.88295,16.50587,6.12406,25.17669-.07942.9074.11731,1.84328-.31863,2.71379l-6.48588,12.93658c.10019-9.1687-3.25637-20.00954-7.87951-27.84417-16.89912-28.63821-58.69814-36.4419-85.34229-17.0656-3.35219,1.06227-9.03936,4.6219-11.89306,6.81935-.83142.64022-4.33318,4.93228-5.11464,4.06446,1.16162-18.22739-11.31483-35.77691-29.26141-39.80502-4.88633-1.09674-7.33763-1.16145-12.27312-.02152-17.59408,4.06365-30.47172,21.91524-29.24277,39.82976-3.34229-2.87316-6.74676-5.9209-10.65878-8.0466-1.20828-.65655-6.63504-3.21552-7.7066-3.52088-2.57079-3.00005-7.82792-5.13623-11.59583-6.43612-36.88338-12.72444-80.73132,11.39009-80.26507,52.7068-1.14997-.49479-1.46154-1.47167-1.89077-2.52636-.74117-1.82121-4.33753-12.5364-4.91374-13.12402.29632-6.07375,1.84914-21.67061,6.12406-25.85714,4.13456-4.04908,16.8967-10.85567,22.47744-13.24624,22.49967-9.63798,47.3024-8.35433,64.63784-28.58397,14.95482-17.45157,9.96613-38.90303,8.20441-60.66197,0,0,11.45991-8.15772,99.96552-.96552-2.41928,19.41658-4.32033,39.8267,8.83428,55.50174,17.55466,20.91815,46.12333,22.99714,68.99795,35.11107,6.85547,3.63052,12.98973,8.65182,19.47655,12.84487Z"/>
    <path class="c" d="M415.74973,670.35636c-17.62926-13.29329-50.16264,7.48747-63.30936,20.0459-1.8817,1.7975-6.49575,8.29863-8.48753,9.20767-1.28697.58737-.92237-.88308-.85587-1.53255.39209-3.8295,2.89794-11.00924,3.32174-12.32487,5.94651-18.45996,13.41452-35.54586,29.63941-47.26257,13.59193-9.81532,29.64403-11.29646,44.23103-19.05092,1.35886-.72237,7.00578-4.75462,7.444-4.82277,2.39032-.37171,1.7047,6.66652,1.6194,8.442-.32533,6.77179-2.12373,16.81872-3.72837,23.49024-2.06291,8.5768-5.5016,16.23126-9.87446,23.80787Z"/>
    <path class="c" d="M181.67455,670.35636c-4.05175-7.75202-7.84245-15.20274-9.87446-23.80787-1.55074-6.56705-4.76682-24.25472-3.73287-30.28571.15892-.92696.4548-1.73145,1.59765-1.62209.86862.08312,10.84226,6.78797,13.22663,7.88782,12.46948,5.75185,24.67494,6.88637,36.69876,15.01552,17.94285,12.13092,24.82266,28.42364,31.41459,48.20918.43147,1.29505,3.40659,9.93801,3.14106,14.53963-10.43665-11.57898-22.61977-22.60302-37.11025-28.89347-9.9894-4.33649-25.86598-8.27568-35.36113-1.04301Z"/>
    <path class="g" d="M384.44923,562.15797c10.29932-11.73438,14.79395-28.15369,7.73877-42.77563-7.06494-14.6416-32.70603-31.94365-58.08887-6.21362,1.16162-18.22754-11.31494-35.77686-29.26123-39.80493-4.88623-1.09692-7.33789-1.1615-12.27344-.02173-17.59424,4.06372-30.47119,21.91541-29.24219,39.82983-3.34277-2.87305-6.74707-5.9209-10.65918-8.04651-1.20801-.65662-6.63477-3.21558-7.70654-3.52087-12.06885-3.43933-28.94629,2.24768-36.62744,12.70557-11.2085,15.26074-7.08838,34.37207,4.646,47.84766-22.90576.12842-36.98096,22.90869-24.36133,43.08081,10.78516,17.23901,31.8337,25.64842,84.9707,8.56763,9.1351-2.93646,17.99316,3.65552,30.08154,3.65552,9.88916,0,11.86675-5.14354,19.84424-2.8147,63.19009,18.44687,77.56689,2.2146,84.771-8.57666,13.51025-20.23755-.48486-43.63135-23.83203-43.91235Z"/>
    <path class="e" d="M278.29861,566.24734c-.02088-.31488.00689-.64713,0-.68045v.68045Z"/>
    <path class="g" d="M439.56552,739.08192l9.52632-14.28947c15.04423-7.80826,25.48791-20.19264,29.49189-36.85209,3.50135-14.56814,1.69165-29.74149,9.85922-43.21597,6.47831-10.68763,17.55423-13.35704,21.00518.99934,2.77521,11.54524-2.3015,25.20472-6.58569,35.86808,2.06221-1.04163,4.25139-3.36906,5.77854-5.10172,4.14326-4.70083,9.21202-12.10826,11.24353-18.01587,4.97366-14.46332-2.01739-28.25814.8407-43.38862,1.37428-7.27532,7.55254-21.93126,16.99838-20.11804,12.01918,2.3072,7.66673,28.90896,5.27728,37.28335,4.81918-4.6867,9.16069-12.29403,11.68354-18.58957,7.47496-18.65304,1.09994-37.08282,15.85946-54.22701,11.73869-13.63528,26.83758-6.02692,24.77141,11.84302-2.44049,21.10729-22.70297,33.50301-34.60928,47.72512-5.28913,6.31788-9.38714,14.40381-14.29605,21.08045,6.50443-3.36849,12.43567-7.80553,19.71329-9.53978,19.27361-4.59288,21.21743,12.48961,7.43207,23.08307-11.87907,9.12856-22.53118,6.50331-35.46185,9.44792-14.94457,3.40321-23.6706,19.26401-34.55189,28.72312,9.77792-3.20976,19.16625-8.34909,29.67105-9.10161,16.40226-1.17498,25.06726,10.85085,10.7856,22.34715-19.46862,15.67164-40.72686,2.76113-62.21497,9.23239-10.60519,3.19381-32.07368,18.0985-42.21771,24.80673Z"/>
    <path class="g" d="M157.85876,739.08192c-3.84852-2.54794-9.09347-4.89437-13.13973-7.61403-10.19048-6.84945-19.31178-15.06191-31.63239-18.04054-19.55498-4.7276-42.68596,6.71408-60.18081-8.35422-8.27281-7.12536-9.89573-18.68926,2.74957-21.58381,13.41532-3.07081,25.03011,3.77191,37.08492,8.10015.61576.22109,1.94618,1.24446,1.8305-.13146l-22.44097-22.13025c-13.7348-11.0511-31.80001-3.2658-48.26092-15.70148-18.45135-13.93939-6.21942-30.73959,13.53857-21.02353l14.2974,7.47701c-5.49839-6.31358-9.27978-14.42019-14.61814-20.7653-13.01094-15.46464-39.64752-32.07435-34.77892-56.70073,2.58401-13.07042,15.57263-12.00524,23.56945-4.21763,14.56345,14.18245,10.1136,34.19024,15.43122,51.25299,2.57273,8.25517,7.87107,16.24824,12.81893,23.2458,1.3161,1.57765,1.08156.21795.83487-.83401-1.99568-8.51028-8.23303-33.74529,4.22094-36.93075,11.59557-2.96589,17.76097,17.37647,18.37171,25.90475.69312,9.67873-2.883,19.66712-2.02012,29.23693.80895,8.97162,5.70926,17.30957,11.20867,24.17535l7.81834,7.14463c-4.77366-10.92014-11.65859-32.08747-3.6878-42.49644,6.60052-8.61954,16.09161,1.04911,19.47815,7.66041,6.38616,12.46723,5.31684,26.7398,8.35693,39.9551,4.04619,17.58888,13.88914,29.60883,29.62331,38.08157l9.52632,14.28947Z"/>
    <path class="f" d="M296.49162,635.81685c10.40515-1.69769,21.89257,11.39398,26.1626,19.78352,15.8666,31.17387-3.85029,59.60171-16.09322,87.96945-1.53813,3.56396-4.7376,11.76707-6.53299,16.40501-.46042,1.18938-2.137,1.19171-2.60068.00359-1.79468-4.59867-4.97903-12.75534-6.56185-16.79233-10.9543-27.93898-30.54643-51.35485-18.02632-83.39258,3.49128-8.93384,13.60514-22.33736,23.65246-23.97667Z"/>
    <path class="f" d="M310.33222,779.55578c-.92644.71285-2.22961-.10473-2.00613-1.25212,1.69202-8.68695,10.01357-25.06885,12.03961-28.79563,13.29527-24.45586,48.72864-67.87506,79.39626-66.94794,15.83873.47882,6.24709,23.79848,1.81477,31.80182-17.99518,32.4935-52.83698,35.39-79.37571,56.03407-2.81635,2.1908-8.63314,6.6701-11.8688,9.15979Z"/>
    <path class="f" d="M197.19324,682.7765c30.21381-2.37206,66.5531,42.61164,79.41884,66.49759,3.16306,5.87239,10.10918,20.44915,12.27416,28.80389.29827,1.15102-1.02112,2.03324-1.97582,1.32447-2.86645-2.12804-7.22035-5.3782-8.292-6.27756-25.834-21.68065-62.87857-25.6443-81.57947-56.55211-4.71775-7.79724-15.55053-32.56331.15429-33.79628Z"/>
    <circle class="f" cx="14.66065" cy="463.79922" r="14.66065"/>
    <circle class="f" cx="582.64661" cy="463.7602" r="14.42445"/>
    <circle class="f" cx="299.04901" cy="447.00171" r="13.596"/>
    <path class="g" d="M123.15575,506.36764c2.87697,2.03665,8.67646,7.24244,10.88722,9.52632,1.02772,1.06171,3.43304,3.24069,4.08271,4.08271,2.81779,3.65207,5.0718,9.09331,8.16541,12.24812.57621.58761,4.17257,11.30281,4.91374,13.12402.42922,1.05469.7408,2.03157,1.89077,2.52636.07528,6.67077,2.99884,12.97769,3.98509,19.49047,2.73633,18.06953-.00178,36.25509-.6109,54.31041-.28643,8.49037.27575,17.05214.02115,25.54156l-1.98227-5.15231c-6.15723-22.19165-8.57797-49.31847-23.59642-67.58385-3.121-3.79575-7.35778-6.76671-10.4783-10.27546-17.59808-19.78745-19.02454-32.31982-22.53702-57.41599-.38576-2.75619-2.65806-9.26228-2.62953-11.01352.04309-2.64462,3.51104-1.49248,5.13178-1.00968,5.63884,1.67974,17.86973,8.14136,22.75658,11.60084Z"/>
    <path class="g" d="M152.41515,506.36764c-4.27492,4.18653-5.82774,19.78339-6.12406,25.85714-3.09361-3.15481-5.34763-8.59605-8.16541-12.24812-2.36727-28.67389-2.65742-60.12625,8.54097-87.09261.36441-.87751.14157-2.41377.3049-2.72694,2.54375-4.87751,10.09903-15.51333,14.27151-20.09127,8.50823-9.335,19.37016-15.51912,28.91879-23.47594,1.61945-1.34948,6.882-8.3931,8.38862-4.2678,1.055,2.88871,2.12599,9.67097,2.65955,12.9894,4.71181,29.30474-1.4363,55.52358-21.22711,77.72352-9.54449,10.70634-22.46625,19.31918-27.56775,33.33262Z"/>
    <path class="g" d="M474.26853,507.04809c5.16221-3.74068,10.66996-7.12532,16.55308-9.64429,2.0391-.87308,10.44804-5.07915,11.29998-2.17925.16715.56896-2.30364,9.62277-2.58455,11.57513-3.80576,26.45036-10.49186,43.51256-20.50535,56.0454-26.09908,18.79897-27.8389,48.42574-35.57738,77.0373l-2.52097,7.33522c-.26962-9.16914.32754-18.41325.02115-27.58292-.60301-18.04737-3.05894-33.93169-.62152-52.27967.88047-6.62787,3.92637-13.81567,3.9957-20.16031l6.48588-12.93658c.43594-.87051.23921-1.80639.31863-2.71379,1.51484.33777,1.44108-.83659,2.02789-1.6805,1.98502-2.85478,4.0633-6.57525,6.13753-9.20671.94576-1.19983,2.39926-3.01678,3.40226-4.08271,2.91484-3.09774,8.04526-6.97388,11.56767-9.52632Z"/>
    <path class="g" d="M445.00913,506.36764c-7.5907-16.22282-17.14757-21.42757-28.24834-34.01294-19.08335-21.63551-25.03279-48.7535-20.55691-77.05359.28605-1.80862,2.67307-13.67067,3.26833-14.08087,2.15069-1.48205,6.15328,4.02945,7.79227,5.36762,17.00198,13.88143,33.4185,22.81579,43.18826,44.24971,2.14781,4.71209,4.5735,13.82042,5.79182,19.04464,5.39569,23.13684,5.20124,47.23749,3.05404,70.77491-2.07423,2.63146-4.15251,6.35193-6.13753,9.20671-.5868.84392-.51305,2.01827-2.02789,1.6805.75889-8.67082-2.5406-17.51815-6.12406-25.17669Z"/>
    <path class="g" d="M436.58701,122.63111c10.46049,3.90494,18.5974,16.1165,19.65629,27.18682,1.50314-.02714,5.94345-6.71063,7.48256-8.16777,9.846-9.32164,18.47213-9.45489,30.26007-13.2888,2.96812-.96535,9.07156-4.55495,11.40422-4.96545,3.34803-.58918,3.34596,2.89704,3.56846,5.67209,1.01,12.59659-4.72804,28.21606-12.91559,37.74762,11.70247-1.84536,23.52748-.12369,34.16653,4.96623,1.04801.50139,6.51991,3.39823,6.89562,3.82383,2.88136,3.26399-3.67259,3.76694-5.65094,4.51318-15.98555,6.02982-23.74211,19.51524-39.50556,25.81803-8.49145,3.39519-20.48225,5.69821-29.24781,3.07362,5.32488-1.21859,17.23185-7.87181,21.41406-11.58782,1.90341-1.69122,5.48421-4.00435,2.12146-5.48353-6.6747-2.93601-17.88313-2.10287-24.89623-.62715,7.63769-7.56775,13.46151-18.26886,12.23341-29.24717-9.60605,1.88298-17.76463,6.18629-24.15006,13.595l-4.40758,6.12933c-.30262-6.00521-2.08272-11.86337-5.09785-17.02032-.75977-1.29948-5.28152-8.42407-7.15008-6.79312-2.98122,9.37139-6.32565,18.51659-5.4506,28.57989-12.47912-32.61996,9.26961-63.9245,9.26961-63.9245Z"/>
    <path class="c" d="M429.59137,45.93158c2.18938-2.58991,5.66765-5.48583,7.91016-8.04659,1.40068-1.59947,6.85626-10.11848,8.45327-9.84227,1.91842.3318,3.14532,7.42426,3.60603,9.36534,4.55866,19.20703,5.50225,41.3697-2.39209,59.78648-6.24056,14.55866-18.05821,25.93262-31.76389,33.54731l-8.31674-26.36483c-4.888-25.61438,7.09846-40.22248,22.50326-58.44544Z"/>
    <path class="d" d="M527.8167,236.74923c.53846,1.38552-.35931,2.90439-1.79733,3.28085-8.51518,2.2292-16.92181,5.76408-25.63571,7.00338-22.21596,3.15956-40.19324-7.69135-54.36346-23.72387-1.21161-1.37085-8.81566-9.51526-3.70722-8.56111,3.67483.68638,7.35878,2.04883,11.28941,2.34037,21.60761,1.60265,33.89701-10.18631,56.25731,3.62185,3.01461,1.86161,16.05834,12.60863,17.51868,15.13847.17586.30466.32281.60282.43833.90007Z"/>
    <path class="d" d="M427.3174,186.55561c-.87505-10.0633,2.46938-19.2085,5.4506-28.57989,1.86856-1.63095,6.39031,5.49364,7.15008,6.79312,3.01513,5.15695,4.79523,11.01511,5.09785,17.02032l4.40758-6.12933c6.38542-7.40871,14.544-11.71202,24.15006-13.595,1.2281,10.97831-4.59572,21.67942-12.23341,29.24717,7.0131-1.47572,18.22153-2.30887,24.89623.62715,3.36275,1.47918-.21806,3.79231-2.12146,5.48353-4.18222,3.716-16.08918,10.36923-21.41406,11.58782-2.45522.56187-9.14156,1.22311-11.87995,1.38883-3.68401.22295-7.3787.03964-11.03452-.40177-2.70832-.32701-5.08204-1.96893-6.29871-4.41058-2.95339-5.92695-5.63278-12.84989-6.17029-19.03137Z"/>
    <circle class="f" cx="469.90657" cy="107.06165" r="14.72097"/>
    <path class="g" d="M135.40387,209.0105c-.70814,1.12717-2.58346.68024-3.73273.69229-10.44397.10949-17.78559-.38164-27.5444-4.45839-11.89705-4.97-18.50403-14.57201-29.07491-20.59802-2.60628-1.48573-14.43613-5.55096-14.85954-6.23651-1.58744-2.57023,1.53187-3.82505,3.31018-4.89664,11.44072-6.89399,24.73812-8.89604,37.87879-6.69762-2.8329-3.80918-5.41733-7.64854-7.38818-11.99771-3.86158-8.52156-6.61259-18.29383-5.49041-27.69602.87511-7.33212,6.2993-1.95589,10.4814-.43031,11.89954,4.3408,22.23158,4.52889,32.66251,12.92772,3.68638,2.96821,6.3301,7.09582,9.87469,10.19193.73515-11.17464,9.11397-23.06698,19.3201-27.1827,0,0,21.10036,22.1435,9.26551,63.9271.32693-4.14332-.1449-8.98053-.86474-13.0845-.3255-1.85572-3.988-14.96494-4.66463-15.40024-.4625-.29754-1.96113-.24387-2.49637.06064-.41591.23663-4.70213,6.94501-5.25527,7.99835-2.5237,4.80579-3.68747,9.62032-4.41803,14.98141-6.83935-9.29486-16.06209-17.51496-27.92619-18.76519-2.75518,10.40644,4.88912,22.10286,12.28305,28.9658-8.66703-1.15468-15.80166-2.32629-24.33673.50951-.87293.29003-3.39809.627-2.87524,1.86941.85124,2.02276,11.34956,8.67395,13.8268,9.99256,2.80357,1.49231,9.20383,4.66779,12.02436,5.32714Z"/>
    <path class="c" d="M153.57078,28.90908c2.42318,2.06369,7.11589,9.88242,9.74833,13.03393,12.12985,14.52162,27.35695,27.78023,28.58836,48.30237.83975,13.9948-5.81125,26.14198-8.85726,39.33596-1.15267,2.29433-6.47569-2.16107-8.12023-3.30563-17.47284-12.1607-29.04182-30.83095-30.02214-52.29347-.68489-14.99449.28387-30.38803,5.16235-44.57208.84648-1.5909,2.17857-1.62697,3.50058-.50109Z"/>
    <path class="d" d="M157.17457,214.45736c.86025.87995-4.18425,7.10473-5.09165,8.17016-8.7895,10.32025-21.53287,20.56685-35.0487,23.4701-17.40846,3.7394-29.59057-2.08282-45.90227-5.81705-2.28327-.52271-2.17696-1.90736-1.08571-3.7494.91139-1.53844,9.40366-9.58706,11.28218-11.16942,17.8821-15.06282,28.77857-11.4856,49.74951-8.96328,9.39982,1.13058,16.95603.53369,26.09663-1.94111Z"/>
    <path class="d" d="M135.40387,209.0105c-2.82053-.65935-9.22079-3.83483-12.02436-5.32714-2.47723-1.31861-12.97555-7.9698-13.8268-9.99256-.52284-1.2424,2.00231-1.57937,2.87524-1.86941,8.53508-2.83581,15.66971-1.66419,24.33673-.50951-7.39393-6.86294-15.03822-18.55936-12.28305-28.9658,11.8641,1.25023,21.08685,9.47033,27.92619,18.76519.73056-5.36109,1.89433-10.17562,4.41803-14.98141.55314-1.05333,4.91093-7.66607,5.25527-7.99835,1.01576-.98019,2.06749-.91123,2.49637-.06064.36223.7184,7.20331,15.75861,5.52937,28.48474-.81934,6.22907-3.1858,12.88428-6.0416,18.75095-1.20398,2.47334-3.61328,4.13014-6.34828,4.42461-3.24339.3492-6.4843.76189-9.75589.66583-2.82028-.08281-9.93857-.77434-12.55723-1.3865Z"/>
    <circle class="f" cx="127.5633" cy="106.99719" r="14.90378"/>
    <path class="c" d="M355.18958,143.68719c16.04391-9.96466,35.95314-11.64011,54.43284-10.88381.27764,1.11562-.23305,1.57835-.6625,2.39311-3.62033,6.86846-11.17419,18.70273-15.79072,25.03612-19.88642,27.28202-55.17468,32.72871-86.01146,20.26013.36683-.2371.72344-.48963,1.06889-.75692,18.32614-2.6417,26.89258-18.87193,39.47799-29.92456,2.39695-2.10502,4.76174-4.43271,7.48496-6.12406Z"/>
    <path class="c" d="M290.7701,180.74218c-32.49708,12.21111-67.02079,6.92245-87.47156-22.27485-3.20825-4.58039-12.66113-18.54799-14.44765-22.97679-.36881-.91427-.49263-1.71132-.3734-2.68752,10.72478-.32054,20.9272-.02992,31.4291,2.25175,8.15544,1.77187,14.60298,4.61076,21.64765,8.63243,3.83211,2.18768,5.5338,4.93443,8.84586,6.80451,11.32269,11.02703,20.3699,26.13428,37.7382,28.24767.80314.75977,1.68545,1.43121,2.63179,2.00281Z"/>
    <circle class="c" cx="298.76436" cy="167.5068" r="15.46233"/>
    <path class="e" d="M283.84424,163.44803c-1.4959,5.49897.15419,11.37501,4.29408,15.29134-17.3683-2.11339-26.41551-17.22064-37.7382-28.24767,5.78281,3.26512,13.99066,7.08243,20.23659,9.36304,4.01316,1.46535,8.88074,2.82874,13.20754,3.59329Z"/>
    <path class="e" d="M347.70462,149.81125c-12.58541,11.05263-21.15185,27.28287-39.47799,29.92456,4.90346-3.79408,7.06652-10.1502,5.49525-16.1477,12.48908-2.84616,23.4612-7.87664,33.98274-13.77686Z"/>
    <path class="f" d="M219.09936,72.23982c.43698-13.09007,1.414-20.89764-3.38806-33.69653-.93967-2.5045-5.20488-9.50511-5.34694-10.99744-.3964-4.16425,10.47515-1.56746,12.6936-1.11239,15.02369,3.08181,28.40009,11.37387,38.57925,22.66136l5.76741,7.49136c1.41267-22.43608,16.19848-38.72718,29.24561-55.47085,1.08328-1.3361,3.20986-1.50967,4.44079-.31492,12.494,17.08411,28.14059,33.25491,28.92537,55.78556,1.62953.38021,1.10256-.29068,1.51374-.88703,10.99785-15.95017,30.04126-28.92496,49.86505-30.39607,2.09839-.15572,6.24709-.75535,5.66912,2.21146-1.84723,4.738-4.83355,9.28033-6.32998,14.13277-3.65492,11.85171-1.83555,19.72743-1.72894,31.27315.09831,10.64695.78524,22.33754-1.69522,32.66756-3.45381,14.38361-11.71337,27.76302-22.12057,38.09936-2.72322,1.69136-5.08802,4.01904-7.48496,6.12406-10.52154,5.90022-21.49366,10.9307-33.98274,13.77686-.89999-3.43524-2.95501-6.45601-5.81972-8.55465,7.69171-7.06837,14.54287-14.15382,18.61107-23.35157,8.89193-20.10364,4.87135-41.2543-10.07722-57.09263-2.75471-2.91867-7.28251-5.9487-10.24856-8.80407-1.41064-1.358-6.73069-8.09587-7.79317-7.83552-.53874.13201-6.09283,6.85898-7.48938,8.18405-18.13296,17.20484-30.30307,31.10792-22.47648,58.50449,3.42904,12.00319,11.56979,21.89783,21.13296,30.44326-2.79141,2.06749-4.80533,5.01469-5.71715,8.36656-4.3268-.76455-9.19438-2.12794-13.20754-3.59329-6.24592-2.28061-14.45377-6.09791-20.23659-9.36304-3.31207-1.87008-5.01375-4.61683-8.84586-6.80451-1.85732-3.59803-5.30058-6.29391-7.76634-9.58516-14.82749-19.79143-15.48136-38.11238-14.68854-61.86221Z"/>
    <path class="e" d="M307.90216,155.03346c-.55106-.4037-1.12827-.77044-1.72783-1.0978,12.18327-15.39539,16.93482-32.12217,6.94413-50.1717-2.31632-4.18475-9.22065-14.25938-12.45878-17.47715-1.7625-1.75142-1.92966-1.42855-3.67213.22215-2.5957,2.45899-9.30673,11.87413-11.33664,15.19783-11.033,18.06502-7.73295,35.89813,5.90114,52.1228-.69437.36616-1.35985.78466-1.99067,1.25188-9.56317-8.54543-17.70392-18.44007-21.13296-30.44326-7.82658-27.39656,4.34352-41.29965,22.47648-58.50449,1.39654-1.32506,6.95063-8.05203,7.48938-8.18405,1.06249-.26035,6.38254,6.47752,7.79317,7.83552,2.96605,2.85537,7.49385,5.8854,10.24856,8.80407,14.94857,15.83834,18.96915,36.98899,10.07722,57.09263-4.0682,9.19774-10.91936,16.28319-18.61107,23.35157Z"/>
    <path class="d" d="M306.17434,153.93566c-4.54836-2.48345-10.03838-2.52328-14.62229-.10608-13.6341-16.22466-16.93415-34.05778-5.90114-52.1228,2.02991-3.3237,8.74094-12.73884,11.33664-15.19783,1.74247-1.6507,1.90963-1.97357,3.67213-.22215,3.23813,3.21777,10.14246,13.2924,12.45878,17.47715,9.99069,18.04953,5.23914,34.77631-6.94413,50.1717Z"/>
    <path class="d" d="M241.55425,143.68719c-7.04467-4.02166-13.49221-6.86056-21.64765-8.63243-10.5019-2.28167-20.70433-2.57229-31.4291-2.25175-.11923.9762.00459,1.77325.3734,2.68752,1.78653,4.4288,11.2394,18.39641,14.44765,22.97679,20.45076,29.19731,54.97448,34.48596,87.47156,22.27485,5.06097,3.05685,11.42206,2.96003,16.38764-.24945,30.83678,12.46859,66.12505,7.02189,86.01146-20.26013,4.61653-6.33338,12.17038-18.16765,15.79072-25.03612.42946-.81476.94014-1.27749.6625-2.39311-18.4797-.7563-38.38894.91915-54.43284,10.88381,10.40719-10.33633,18.66675-23.71575,22.12057-38.09936,2.48046-10.33002,1.79353-22.02061,1.69522-32.66756,19.38911,14.34639,28.88998,38.43028,32.46404,61.77844,3.70721,24.218.19975,45.07726,10.50127,68.43106,13.57782,30.78126,43.97244,47.11211,60.13761,75.95262,13.5807,24.22953,16.6673,50.71281,11.42867,78.14201-7.34234,38.44416-43.08421,73.61315-43.08421,73.61315-9.76977-21.43391-26.18628-30.36827-43.18826-44.24971-1.63899-1.33817-5.64158-6.84967-7.79227-5.36762-.59526.4102-2.98228,12.27225-3.26833,14.08087-4.47588,28.30009,1.47356,55.41808,20.55691,77.05359,11.10078,12.58536,20.65764,17.79012,28.24834,34.01294-6.48683-4.19305-12.62108-9.21435-19.47655-12.84487-22.87462-12.11394-51.44329-14.19292-68.99795-35.11107-13.1546-15.67504-13.01218-34.44724-10.5929-53.86381-49.95402,42.45383-94.48276,1.22414-94.48276,1.22414,0,0,3.02627,41.31384-11.92855,58.76541-17.33544,20.22964-42.13817,18.94599-64.63784,28.58397-5.58074,2.39057-18.34288,9.19716-22.47744,13.24624,5.1015-14.01344,18.02326-22.62628,27.56775-33.33262,19.79081-22.19994,25.93893-48.41878,21.22711-77.72352-.53356-3.31843-1.60454-10.10069-2.65955-12.9894-1.50663-4.1253-6.76917,2.91832-8.38862,4.2678-9.54863,7.95683-20.41057,14.14095-28.91879,23.47594-4.17248,4.57794-11.72776,15.21376-14.27151,20.09127,0,0-33.37463-28.9713-41.99471-69.25905-6.85992-32.06126-2.25369-64.21387,16.26349-90.86128,13.32775-19.1795,32.83688-32.84742,46.01548-51.96948,22.51296-32.66615,12.69694-63.64956,22.39127-99.40948,4.72417-17.42625,15.15402-35.30259,29.45229-46.41801-.79282,23.74983-.13895,42.07078,14.68854,61.86221,2.46577,3.29125,5.90902,5.98713,7.76634,9.58516ZM401.26676,264.99512c-.59643-4.90704-3.15297-9.36054-7.11178-12.32071-16.82906-12.58378-38.00867-17.47768-56.18434-28.14609-16.27376-9.55206-31.08191-22.50287-38.91489-40.01075-11.02368,22.45488-31.75935,37.09419-53.85502,47.53227-13.57461,6.4127-28.25439,10.24738-40.31966,19.56004-1.49302,1.1524-6.60945,5.09755-7.19733,6.41169-1.07179,2.39587-2.24267,12.85373-2.42857,15.94361-3.14019,52.19446,17.17499,97.51673,60.37422,126.80664,31.03205,21.04033,53.13659,21.97455,84.67936,1.23566,43.22117-28.41726,63.78656-71.69829,61.8393-123.25793-.17781-4.7081-.3299-9.21805-.88128-13.75443Z"/>
    <path class="e" d="M401.59293,280.29128c-.21427-5.67466-.39123-11.06146-1.27499-16.55363-.50534-3.14043-2.20842-5.95525-4.68777-7.94786-17.13244-13.76908-39.30008-18.61764-58.2146-29.71973-16.27376-9.55206-31.08191-22.50287-38.91489-40.01075-11.02368,22.45488-31.75935,37.09419-53.85504,47.53226-13.57472,6.41271-28.25441,10.2473-40.31935,19.56005-1.49316,1.15234-6.60986,5.09753-7.19775,6.41162-1.07178,2.396-2.24268,12.85376-2.42822,15.9436-3.14062,52.19458,17.1748,97.51685,60.37402,126.80664,31.03223,21.04041,53.13672,21.97461,84.6792,1.23572,43.22119-28.41724,63.78662-71.69836,61.8394-123.25792Z"/>
    <path class="d" d="M240.05262,245.27391c11.41965-1.09895,23.01987.23839,33.01047,6.0567,26.50922,15.43841,18.97999,58.35618,16.21925,83.78773.48111,1.45686,7.96136,3.91206,9.77031,3.91243,4.56788.00092,9.94191-5.00528,14.87315-3.35669,2.19793.7348,2.70559,3.81059-.57007,5.35754-.54123.2556-10.36797,4.45261-11.05393,4.59523-5.17523,1.07597-19.47751-2.42582-19.68052-8.8991-.24582-7.83834,3.34651-20.01525,3.83614-28.71821.48046-8.54011.33716-18.97232-2.0761-27.17009-6.88938-23.403-41.08595-26.72939-61.46053-24.11842-3.59438.46061-8.56345,2.38207-11.84637,2.50079-4.97014.17973-.32486-3.0889,1.27957-4.22172,6.87913-4.85707,19.34895-8.92267,27.69863-9.72619Z"/>
    <circle class="g" cx="361.07814" cy="338.0886" r="20.23191"/>
    <circle class="g" cx="236.61636" cy="338.09126" r="20.20779"/>
    <path class="f" d="M326.43448,368.71c1.88952-.88952,1.57688-3.64376-.46467-4.08376-7.66847-1.65271-13.2387-9.74793-21.69099-7.48853-2.01807.53943-4.38135,2.948-5.21533,2.94531-1.26709-.00391-5.08643-3.46875-8.85693-3.46899-5.54443-.00024-10.16211,5.15796-14.83398,6.99487-.65457.25742-1.74758.44842-2.90433.58839-1.974.23885-2.74089,2.71779-1.21345,3.99084.81693.68087,1.59616,1.2811,2.21446,1.8153,1.92529,1.66309,4.01123,5.38306,5.82275,7.10571,10.83936,10.30774,27.95557,10.14795,38.83203-.0083,2.41846-2.2583,4.07129-5.37366,6.78662-7.50269.44839-.35156.97791-.63116,1.52382-.88816Z"/>
    <path class="d" d="M387.22354,256.57619c1.02227.87533.17714,2.52738-1.13952,2.24875-17.59657-3.72375-35.65797-4.65173-52.65721,2.25174-19.17474,7.78695-21.69164,18.87957-23.13995,38.10066-.00363.04811-.01222.10691-.02536.17542-.54175,2.82447-4.7501,2.40068-4.81969-.47444-.22437-9.26923,2.02564-22.35903,3.67036-27.41327,9.43709-29.00031,44.68994-31.5623,68.9889-20.38295.91637.4216,6.38068,3.1464,9.12247,5.49409Z"/>
    <path class="d" d="M267.79512,295.3313c-1.18081,1.64361,3.8559,5.08054,3.9627,7.00293.08621,1.55172-1.89655,3.34116-4.53241,1.45562-.83346-.59621-4.44537-5.52105-5.12156-5.72694-1.1535-.35122-1.72392.07893-2.41901.76573-.23926.23641-.32956.58065-.25268.9081.32387,1.37955,1.83909,8.53391,1.74698,9.10425-.30578,1.89345-2.80172,2.64655-4.35499.86912-1.7744-2.03048-2.98476-7.93464-3.84793-8.91761-1.49623-1.70388-3.17241-.64117-4.17027.04854-.83242.57536-2.56967,8.62229-3.20904,9.65512-1.12069,1.81034-3.97599,1.66334-5.27586-.37931-.72414-1.13793,1.47356-8.36615.82759-9.51724-.77868-1.38758-3.34483-2.60345-5.28435-1.84475-1.20072.46969-4.32595,6.72057-7.09496,8.25854-1.19781.66529-4.17241-.44828-4.04204-2.08893.23005-2.89505,4.89528-7.60336,3.84416-8.74119-.75039-.81229-2.23315-2.06643-4.11246-2.30781-.87267-.11209-4.90591,5.01726-8.06897,5.93103-1.55172.44828-3.55172-.48276-3.29035-2.78002.26275-2.30933,5.99113-5.22862,6.58821-7.52366.64316-2.47219-5.7249-6.89455-3.69561-9.76221,2.03934-2.88185,8.198,2.52464,9.63913,3.60037,12.09638,9.0294,18.75208,12.12999,33.97714,7.34598,3.3455-1.05122,8.49093-4.50942,12.49807-3.93418,1.33572.19174,2.98188.5547,3.95582,1.8813.77382,1.05402.42177,2.13674.06613,2.77467-1.27016,2.27832-7.14201,2.26416-8.33343,3.92255Z"/>
    <path class="d" d="M330.08403,295.3313c1.18081,1.64361-3.8559,5.08054-3.9627,7.00293-.08621,1.55172,1.89655,3.34116,4.53241,1.45562.83346-.59621,4.44537-5.52105,5.12156-5.72694,1.1535-.35122,1.72392.07893,2.41901.76573.23926.23641.32956.58065.25268.9081-.32387,1.37955-1.83909,8.53391-1.74698,9.10425.30578,1.89345,2.80172,2.64655,4.35499.86912,1.7744-2.03048,2.98476-7.93464,3.84793-8.91761,1.49623-1.70388,3.17241-.64117,4.17027.04854.83242.57536,2.56967,8.62229,3.20904,9.65512,1.12069,1.81034,3.97599,1.66334,5.27586-.37931.72414-1.13793-1.47356-8.36615-.82759-9.51724.77868-1.38758,3.34483-2.60345,5.28435-1.84475,1.20072.46969,4.32595,6.72057,7.09496,8.25854,1.19781.66529,4.17241-.44828,4.04204-2.08893-.23005-2.89505-4.89528-7.60336-3.84416-8.74119.75039-.81229,2.23315-2.06643,4.11246-2.30781.87267-.11209,4.90591,5.01726,8.06897,5.93103,1.55172.44828,3.55172-.48276,3.29035-2.78002-.26275-2.30933-5.99113-5.22862-6.58821-7.52366-.64316-2.47219,5.7249-6.89455,3.69561-9.76221-2.03934-2.88185-8.198,2.52464-9.63913,3.60037-12.09638,9.0294-18.75208,12.12999-33.97714,7.34598-3.3455-1.05122-8.49093-4.50942-12.49807-3.93418-1.33572.19174-2.98188.5547-3.95582,1.8813-.77382,1.05402-.42177,2.13674-.06613,2.77467,1.27016,2.27832,7.14201,2.26416,8.33343,3.92255Z"/>
    <path class="d" d="M311.91682,369.72604s-3.43168.31123-6.01571.89912c-6.91385,1.57288-13.01973-.22043-19.71992-.76119,2.05358-1.15608,3.3347-.77586,5.20774-.72438,3.14237.08637,6.32369.86362,9.6912.71912,2.71055-.11631,9.40051-1.38403,10.83669-.13267Z"/>
    <path class="c" d="M123.15577,506.36769c-6.4082-18.0509-19.63721-33.75586-36.73047-42.54211-24.57129-12.62988-40.39893-13.91492-59.87305-36.72046-12.71924-14.8949-25.30029-68.55554-23.86914-80.3363.32031-2.63672,1.49219-3.08203,3.81396-1.70325,24.21094,20.58618,53.92188,31.71741,68.71729,61.92554,9.44092,19.27478,9.19482,45.34912,29.5542,57.53699-3.08887-9.12634-6.23438-18.35925-7.3833-27.99329-.93359-7.82947,1.25586-16.18213.46436-22.18225-.93506-7.08276-10.71484-24.44507-15.50488-30.14172-6.83545-8.12915-30.64035-38.48551-34.95771-48.03796-26.8448-59.39592-22.37089-93.39692-12.89681-101.73489,1.24251-1.09351,3.1251-.99895,4.25092.21435,4.61571,4.97439,17.34206,18.72007,20.23508,22.16567,18,21.43689,27.68151,42.51332,29.46569,70.26173,1.0332,16.07141-1.94043,29.95251,1.57422,46.73792,2.09619,10.0116,7.27588,19.0094,10.69238,28.43689,0,0,21.63335-38.38289,25.68543-47.65393.09644-.22065.25585-.39942.46384-.52076h0c.94013-.54845,2.13552-.2979,2.78425.57605,2.72054,3.66504,6.986,13.69601,7.82038,15.94447,6.34424,17.09387,7.16553,35.04883,2.70459,52.7522-5.90576,23.43774-22.43799,34.88684-15.99658,61.92725,2.43066,10.20361,8.31348,20.09814,9.87256,30.61414-2.21094-2.28381-8.01025-7.48962-10.88721-9.52625Z"/>
    <path class="c" d="M496.71489,402.25359c3.43033-9.53218,8.56212-18.4218,10.69315-28.43629,4.00714-18.83103.43325-36.41985,2.25096-54.90694,3.08077-31.33321,16.85046-61.02056,41.57307-80.90813,2.23691-1.79943,4.66882-3.77918,7.45347-4.42645,1.72962-.40203,3.34841,1.00016,3.35345,2.77588.00666,2.34804.04256,4.70065.03876,7.04848-.06483,40.06858,15.08396,73.77951-12.97288,109.51249-13.27869,16.91164-30.98012,23.08839-41.84922,43.20717-1.79327,3.31937-7.4013,15.06757-7.66282,18.20406-.28958,3.47291.3489,11.06884-.77635,24.9757-.81113,10.02474-7.9366,25.0488-6.84939,26.24079.34926.38291,7.2621-6.18985,7.8265-6.79614,14.19918-15.25306,13.91287-35.41687,23.11329-53.09723,12.59226-24.19841,30.80512-33.35184,52.00819-48.01812,3.01219-2.08355,14.95656-12.08373,16.89592-12.40457.7708-.12752,1.56053-.34394,2.26268.16436,1.01478.73461.77907,15.28673.62819,17.73753-2.10739,34.23213-18.34639,66.11658-47.68264,84.32487-15.81735,9.81744-35.02846,12.9926-49.25497,24.9142-10.61128,8.89209-19.5123,21.34068-23.49574,34.68283-3.52241,2.55243-8.65283,6.42858-11.56767,9.52632,1.77887-10.18737,7.45704-20.01317,10.01012-29.79627,7.53506-28.87334-9.13133-38.71534-15.45373-63.42554-5.47473-21.39718-2.87097-44.21571,7.36417-63.74302.99975-1.9074,4.18324-8.39282,6.14477-6.23073,23.03761,25.39317,25.94869,48.87474,25.94869,48.87474Z"/>
    <path class="d" d="M328.41651,599.01368c7.19092-5.2373,17.9668-8.85693,25.48193-14.36572,1.77295,1.78027,4.22607,2.88281,6.9375,2.88281,5.40869,0,9.79297-4.38477,9.79297-9.79321s-4.38428-9.79321-9.79297-9.79321-9.79297,4.38452-9.79297,9.79321c0,1.07959.18115,2.11511.50391,3.08643-4.12012,2.56226-20.74219,12.14136-25.18848,14.26636-.58105-2.70142-1.54639-5.25928-2.83984-7.61255,3.97949-5.30371,20.20068-23.27954,23.89648-29.89087,1.12256.44873,2.34473.70239,3.62793.70239,5.40869,0,9.79297-4.38452,9.79297-9.79321s-4.38428-9.79309-9.79297-9.79309-9.79346,4.38452-9.79346,9.79309c0,2.35071.83008,4.50659,2.21045,6.19458-3.87793,5.95947-19.10352,24.92395-22.4165,29.03662-1.87695-2.40942-4.13232-4.50757-6.68262-6.20117,1.75977-6.84033,8.18066-22.70142,9.45898-24.37769.24512.01831.49023.03735.74023.03735,5.40869,0,9.79297-4.38452,9.79297-9.79309s-4.38428-9.79309-9.79297-9.79309-9.79297,4.38452-9.79297,9.79309c0,3.39392,1.72754,6.38318,4.34961,8.14026,0,.00183.00049.00366.00049.00562-.07471,2.17383-5.4292,15.90039-8.41748,23.93335-2.92432-1.36646-6.12061-2.24414-9.48682-2.53333-.41064-9.18396-.63721-33.8446.21533-38.33789.00977-.05042.03125-.09802.0459-.14734,4.09033-1.17554,7.08594-4.93726,7.08594-9.40552,0-5.40857-4.38428-9.79309-9.79297-9.79309s-9.79297,4.38452-9.79297,9.79309c0,4.69116,3.30029,8.60693,7.7041,9.56458.69141,4.59705.19775,29.16235-.37646,38.32764-3.36279.29114-6.55615,1.16992-9.47803,2.5365l-7.3833-22.13501c2.31494-1.79114,3.81152-4.58862,3.81152-7.74194,0-5.40869-4.38428-9.79321-9.79297-9.79321s-9.79297,4.38452-9.79297,9.79321,4.38428,9.79309,9.79297,9.79309c.47754,0,.94336-.04578,1.40234-.11182,2.20215,5.45862,6.62549,17.13074,8.2251,22.3009-2.39697,1.60437-4.53125,3.56812-6.33301,5.81128-4.09424-4.47449-17.28125-21.49414-23.30664-28.73669-.02148-.04626-.03027-.10242-.04834-.15149.99463-1.53247,1.57764-3.35632,1.57764-5.31909,0-5.40857-4.38428-9.79309-9.79297-9.79309s-9.79297,4.38452-9.79297,9.79309,4.38428,9.79309,9.79297,9.79309c1.8584,0,3.58887-.52698,5.06934-1.42566,3.4707,4.22107,20.21191,24.62061,23.84131,29.78857-1.36475,2.44971-2.37842,5.12183-2.96533,7.95117-4.45264-1.67383-21.64307-11.5708-25.47461-14.49414.31738-.96387.49463-1.99121.49463-3.06128,0-5.40869-4.38428-9.79321-9.79297-9.79321s-9.79297,4.38452-9.79297,9.79321,4.38428,9.79321,9.79297,9.79321c2.78271,0,5.28857-1.16626,7.07178-3.02979l27.14746,15.12402c-.02393.47363-.03613.95044-.03613,1.43018,0,1.22021.08594,2.41992.23633,3.59961l.03467,2.41675c-3.41309-.94116-26.62891-5.95459-34.18604-7.14429-1.11182-.17505-2.15625.56616-2.35938,1.6731-.19531,1.06274.45117,2.09497,1.49561,2.37354,12.00488,3.20386,24.76172,6.62085,37.82471,9.83228.31836.62744.65332,1.24463,1.0166,1.84424.0708.25562.24805.56763.61768.9707.00146.0022.00342.00391.00537.00586,5.0542,7.62573,13.70947,12.65674,23.54297,12.65674,10.66211,0,19.94043-5.91284,24.74316-14.63672.63965-.58618,1.40967-1.08447,2.41992-1.44849,7.50684-2.7063,22.39404-5.44141,33.88574-8.83936,1.11572-.33008,1.80273-1.44604,1.5835-2.58911-.23047-1.20483-1.37842-2.0083-2.5874-1.80127-11.18652,1.91553-22.9209,4.27637-32.19824,6.42676.01514-.27686.01709-.54346.01465-.80518.23828-1.47705.36719-2.99097.36719-4.53516,0-.16724-.00977-.33203-.0127-.49829.29004-.52783.73975-1.03784,1.43359-1.54321Z"/>
  </g>
</svg>