<?xml version="1.0" encoding="UTF-8"?>
<svg id="a" data-name="Layer 1" xmlns="http://www.w3.org/2000/svg" viewBox="0 0 650.97066 801.70023">
  <defs>
    <style>
      .c {
        fill: #0b3d9f;
      }

      .d {
        fill: #1e1e1e;
      }

      .e {
        fill: #cf2e2c;
      }

      .f {
        fill: #db88b9;
      }
    </style>
  </defs>
  <path class="d" d="M481.56077,401.68609l-36.15039-24.06921c-1.52197-2.92004-2.16797-3.77954-3.42432-.19543l-65.12503-2.79891-83.97701-6.47536c-.63721-1.98413-1.56445-3.98425-3.30225-1.17078l-80.20558,8.16892s-38.41113,29.92969-38.78125,26.54077l-96.62061,13.27881,95.25928,26.18726c2.1084-.7041,6.375-.64771,8.84619-2.04126-.44531-1.41382,45.93065,41.14382,45.93065,41.14382l65.51724,27.74046c.40234.12915,1.63525.21582,1.76221-.41602l52.17253-1.52797c.29102,2.1123,2.36084,2.39478,3.30664.58862l71.58621-16.24717c.59375-.1189,5.87357-6.41729,5.44828-7.17241l23.0365-30.12545c.72119.66187,1.9585-.17834,2.06152-.72949l24.49414-12.57397c2.83691.08691,5.5127,1.21484,8.16504,2.04138l96.62061-26.2074s-64.90576-10.53796-96.62061-13.93921Z"/>
  <path class="c" d="M153.58649,688.15195c-.29098.31643-7.39019,1.30815-8.48459,1.38908-37.20812,2.75181-75.73648-7.10015-104.53894-30.23861-27.88919-22.40479-41.07085-53.49669-37.27551-89.80141.88123-8.42945,6.45263-19.88891,14.06575-24.01773,17.98658-9.75463,32.88614,6.45018,25.32244,24.26965,5.62737-4.80881,7.79419-11.88794,6.63568-19.22458-2.4103-15.26409-23.28352-25.5914-33.17472-36.23192-5.59622-6.02016-14.10891-20.15881-15.38726-28.22343-7.10845-44.84451,37.82135-66.36944,72.75391-40.03048,1.85399,1.3979,7.2238,4.71995,2.66785,6.49987-3.37731,1.31945-9.439,1.45988-13.6043,2.72294-11.15563,3.38275-21.17207,11.45583-22.54707,23.72358-3.3003,29.44529,28.73034,43.16293,29.85772,72.74079,1.21472,31.86948-32.05945,34.30584-18.37588,72.81831,13.13092,36.95704,58.353,57.35523,94.94296,60.88034,1.74201.16783,5.95538-.55549,6.83649.64842.36827.50319.46261,1.90429.30547,2.07517Z"/>
  <path class="c" d="M625.94149,439.15127c29.40597,6.83261,30.08264,54.7157,4.31591,79.59039-11.22304,10.8345-30.20854,19.76216-28.25808,38.43428.4712,4.51093,3.25758,9.75689,6.80017,12.57699-10.10031-26.9311,21.47278-37.89207,34.37987-13.61578,10.05594,18.91371,3.78626,51.0689-5.21129,69.66105-22.05637,45.57632-82.93284,68.43856-131.57601,63.72399-1.29404-.12542-9.98354-1.76048-8.49951-3.40255,1.3289-1.47042,15.60154-1.66443,18.65991-2.09795,34.09969-4.83364,79.01818-31.67115,85.82307-67.95888,6.27714-33.47344-29.11089-38.0157-18.92463-75.40207,4.57724-16.79971,14.20135-22.68146,21.81951-36.01884,13.25845-23.21201,6.0019-43.71318-20.14249-50.35934-2.46976-.62784-9.89328-1.21612-11.31516-2.171-2.9075-1.95258,4.92026-7.04209,6.47097-7.83979,10.66923-5.48831,33.54045-7.936,45.65774-5.1205Z"/>
  <path class="d" d="M85.53853,231.5666c1.43467.33787,1.54005-.767,2.19396-1.54173,4.905-5.8113,8.51464-13.72536,14.11845-19.90395,11.12291-12.2638,31.88737-24.12659,48.17814-27.35222,3.23118-.63979,9.42869-2.31234,8.97764,2.82586-.03051.34754-1.86038,6.17775-2.0734,6.66226-5.26774,11.98118-18.1179,29.1699-27.83668,38.30528-11.76959,11.06308-26.75419,18.2744-37.4518,30.59331-13.26845,15.27937-18.18811,32.62651-18.01778,52.7491,6.80862-18.48418,15.78185-34.70096,33.05954-45.19231,4.1581-2.52488,22.62865-11.66379,26.52644-8.94156,2.55446,1.78404-2.81173,13.87054-4.00782,16.49026-1.947,4.26441-4.71297,9.20251-7.325,13.08853-21.43201,31.88525-53.61577,32.31267-42.00131,81.59193.95319,4.04431,5.19609,14.5823,5.03786,17.48025-.17076,3.12747-3.11962,3.72304-5.71268,2.92483-1.7293-.53232-5.28035-8.27584-6.71366-10.29479-9.77978-13.77567-28.8626-19.28695-42.02422-29.42315-13.19982-10.16563-28.17124-33.72213-29.90924-50.37813-.63165-6.0534.61229-6.76581,6.6049-5.24834,19.41349,4.91595,39.05249,24.64719,49.39974,41.09874.7782,1.23729,8.70217,16.33187,9.23676,15.59273-1.20752-14.29338-3.75741-27.44113-10.52555-40.16108-10.50616-19.74512-28.13193-32.69824-38.30866-52.85578-7.34263-14.5439-13.70671-38.72122-12.42405-55.0057,1.13571-14.4188,10.75486-6.56446,17.72436-.664,15.55095,13.16561,26.6471,31.82942,32.31101,51.38447l9.18165,40.82149c1.99591-32.22512,9.11641-62.80087,21.46265-92.5164,16.67365-40.13093,33.81518-83.31322,73.33527-106.30383,11.05323-6.43016,14.87383-7.41541,14.10974,7.30476-.9988,19.24209-10.20612,38.95782-23.91452,52.29647-9.43052,9.17615-21.49347,15.22608-31.55424,23.5623-16.00474,13.26132-25.00366,31.63451-31.65749,51.01038Z"/>
  <path class="f" d="M92.84497,59.58116c9.84361-1.68601,17.54752,3.12432,22.25256,11.4461,14.5969,25.81749-9.73365,60.45383-21.74856,82.96009-3.27594,6.13647-6.27058,14.74599-9.70746,20.23242-1.75989,2.80938-4.42347,4.71653-4.25285-.11218.2642-7.47736,4.71716-18.12462,5.38176-26.65744,1.52909-19.632-5.12378-31.78945-7.89346-49.76998-2.06511-13.40646-1.26729-35.14695,15.96803-38.09901Z"/>
  <path class="f" d="M37.72998,121.50307c25.18652-4.3161,31.82696,35.46161,32.8318,53.25918.81317,14.40275-1.25211,40.37394-4.83622,54.34985-.86259,3.36358-2.54383,4.67636-3.98343.74049-1.35969-3.71739-1.43923-10.34719-2.37791-14.63338-5.84505-26.68975-28.82524-41.11833-34.06937-65.27646-2.15202-9.91372.39935-26.37717,12.43512-28.43968Z"/>
  <circle class="f" cx="89.52026" cy="514.33546" r="14.21347"/>
  <circle class="f" cx="561.69004" cy="514.34852" r="14.16893"/>
  <path class="d" d="M27.51747,384.83227c19.68723-3.61299,20.82553,24.33302,1.8561,23.01857-12.3952-.8589-12.78911-21.01215-1.8561-23.01857Z"/>
  <path class="d" d="M568.29696,209.13985c9.35058,28.58885,17.18862,57.04838,19.42134,87.07275l9.33923-42.0242c5.61173-18.4289,18.60392-40.09542,34.03605-51.85159,7.74899-5.90317,15.09666-10.79051,15.84237,3.01111.93574,17.31872-5.86736,41.46008-14.19844,56.62196-12.80269,23.29986-35.84813,39.48821-43.34055,66.21208-2.31446,8.2552-2.54547,17.16123-4.41657,25.5243l12.23795-20.42473c10.02715-14.93328,26.92112-30.13769,44.11281-36.18038,4.64204-1.63162,10.07644-4.06346,9.61162,2.75207-1.26081,18.4871-18.32206,42.07447-32.66933,53.12251-11.20211,8.62613-27.92613,14.41358-36.95794,24.96311-2.0962,2.44844-7.62357,12.79939-9.18994,13.24475-10.49692,2.98454-2.83381-10.51839-1.75104-15.33591,8.57848-38.16768-12.57527-56.43538-27.25098-70.08703-9.11527-8.47922-22.14906-27.49392-25.03327-39.60808-2.15138-9.03617,2.8299-7.30749,9.42351-5.34224,24.13583,7.19377,43.07312,28.26789,49.31789,52.41299l.70123-7.16895c-1.33116-23.55334-11.0004-40.68054-28.96638-55.40961-23.0901-18.92998-41.63833-29.14902-53.98051-58.97432-4.64827-11.2327-1.16181-10.778,8.89597-8.21554,23.02904,5.8672,42.36408,19.44393,55.52511,39.05755.59525.8871,5.8826,10.22907,6.24241,9.74123-3.50833-14.11126-10.72623-29.51328-20.05853-40.83488-13.09695-15.88872-33.08915-23.58161-46.96872-38.76813-11.6108-12.70411-27.51543-41.19255-19.36602-56.81064,2.87839-5.51635,51.77494-1.86118,89.44076,113.29982Z"/>
  <path class="f" d="M571.37701,176.45413c-1.02536.14455-1.60296-.00945-2.42549-.63069-1.59643-1.20575-10.22913-20.23939-12.18627-23.87744-11.71911-21.78422-31.08513-49.19377-23.44893-75.13414,7.78267-26.43794,40.29198-21.87712,42.17363,6.05665,1.21533,18.04202-9.23702,37.33712-9.57836,56.47294-.22702,12.72677,4.52177,24.69375,5.46543,37.11268Z"/>
  <path class="f" d="M589.06295,232.25204c-2.39815,1.62165-3.45375-3.93977-3.76779-5.40739-5.87275-27.44591-9.50811-79.16436,11.59411-100.74931,9.01944-9.22577,23.65305-5.20026,28.25109,6.46803,9.68033,24.56543-20.77824,49.33052-29.38639,70.64855-1.53614,3.80423-2.74221,8.01402-3.62632,12.02405-.55057,2.49721-2.34856,16.53182-3.0647,17.01607Z"/>
  <circle class="d" cx="619.94527" cy="396.13244" r="11.70892"/>
  <path class="d" d="M478.6303,63.30861c-.09327.20812-2.87084,2.93298-3.24166,3.20899-12.96097,9.647-26.20312-9.50789-13.89597-18.66097,10.13806-7.53988,21.96839,4.67257,17.13763,15.45198Z"/>
  <path class="d" d="M192.83528,64.65102c-.18932.25679-3.58463,2.82413-4.07039,3.0725-4.52814,2.31524-10.26161,1.52928-13.7441-2.18343-1.77208-1.88923-4.19817-7.20325-3.57359-9.67662,2.5566-10.12429,15.06352-14.43564,21.21501-5.24299,2.31174,3.4546,2.62427,10.7058.17307,14.03054Z"/>
  <circle class="d" cx="568.57986" cy="714.8879" r="10.24592"/>
  <path class="d" d="M79.90885,705.32519c17.14622-3.55736,16.89603,22.44628.67888,19.41652-10.84886-2.02683-10.17323-17.44671-.67888-19.41652Z"/>
  <path class="c" d="M481.56086,441.83271c30.32289,9.44907,92.53766,34.35265,92.53766,34.35265l-114.3121-4.4128c3.98154-7.60253,11.01938-24.01328,13.60902-31.9812,2.83744.0868,5.51312,1.21486,8.16541,2.04135Z"/>
  <path class="c" d="M237.95936,539.13722c7.4305,8.96297,16.55376,19.14397,24.49624,27.8985l-43.54887,40.82707c1.13882-5.7978.88371-10.59381-.68045-16.33083l19.73308-52.39474Z"/>
  <path class="c" d="M433.24883,591.53196c-.96091,5.21818-2.16914,10.97888-1.3609,16.33083l-42.86842-40.82707c7.9994-8.83985,16.88429-18.66768,24.49624-27.8985l19.73308,52.39474Z"/>
  <path class="c" d="M213.46312,507.83647c1.06822.10608,1.25534.45179,1.93761,1.09357,2.76986,2.60551,6.66909,9.62915,9.36034,13.12539,2.58566,3.35907,5.20626,7.0919,7.75468,10.27727l-36.74436,23.13534c-.74709-5.02117-5.53962-12.50456-9.52632-15.65038l23.13534-30.6203c.93866-.93589,2.83006-1.4853,4.08271-1.3609Z"/>
  <path class="c" d="M438.01199,507.83647c1.35973-.04586,3.07479.36625,4.08271,1.3609l23.13534,30.6203c-3.8712,3.14721-8.79135,10.71442-9.52632,15.65038l-36.74436-23.13534c6.17827-7.68791,11.84477-16.04614,17.69631-24.00134.35465-.47608.82434-.47696,1.35632-.4949Z"/>
  <circle class="d" cx="234.68591" cy="761.54342" r="14.11342"/>
  <circle class="d" cx="416.78302" cy="761.45662" r="14.01095"/>
  <path class="e" d="M466.61887,193.78033c-1.52832-25.06519-17.81592-44.27905-20.89062-68.88403-2.67236-3.73047-5.44238,1.48047-6.68311,3.94141-10.17041,20.17249,1.28906,43.53198-5.09375,64.31226-3.77051,12.27612-12.89502,23.65088-24.50342,29.24512,12.20703-21.32471,14.73877-41.41943,3.05957-63.64258-3.65332-6.9519-9.73291-18.95801-9.86816-19.50378-2.89014-11.65002,6.73291-26.17322,8.66113-38.15601,2.50635-15.57788-2.85693-29.41443-12.7749-41.31311-2.14551-2.57397-16.53524-17.01749-15.53076-6.78772.20526,2.09043,6.39502,10.22839,3.81055,31.77148-2.49609,20.80627-14.97446,30.41361-13.55209,53.65409.7749,12.65735,9.56494,21.55078,10.23096,33.99878.57764,10.7937-3.24805,21.46729-10.23242,29.63159,1.5-12.18091,1.35156-23.89893-3.96973-35.16309-3.83594-8.12158-20.80386-17.61784-21.77212-26.1497-2.10303-18.53333,10.71973-28.56238,13.42627-45.77698,6.27051-39.88013-30.42969-49.22485-34.51807-81.12915v-.00012c-.0222-.17159-.43664-8.60086-.62558-12.45857-.05595-1.14233-1.36952-1.77393-2.2808-1.08284-2.92168,2.21575-7.33454,7.82411-7.97399,8.63772-10.97803,13.97131-13.646,33.24915-6.93408,49.59595,2.50977,6.11267,6.95068,11.83167,7.98242,18.55493,3.64648,23.75098-14.8208,29.58911-23.86279,46.97388-3.52881,6.78442-5.0415,14.22729-5.7749,21.7832-.71436.74719-5.81787-4.64758-6.46924-5.43164-21.23535-25.56299,3.33887-42.64392,1.01807-68.38306-.46973-5.20898-3.46338-13.19958-5.99512-17.8208-6.13965-11.20801-6.82031,4.6272-7.80566,8.76147-5.10352,21.4165-26.97021,32.84619-29.0459,58.05164-3.07617,37.34827,30.72461,44.91833,28.55762,75.50879-.38477,5.4292-2.9082,11.05884-3.30127,16.42664-.47607,6.50439,1.01074,13.92407,3.30811,19.98462-1.70898-.22424-3.34912-2.82227-4.36035-4.13806-10.41846-13.55823-3.98145-26.77344-11.84033-41.23474-8.21729-15.11975-23.32568-19.36694-30.86523-36.49976-2.61572-5.94397-4.35889-13.31848-4.67334-19.82324-.20703-4.27209,2.48438-18.50928-5.01562-9.83569-10.24951,11.85376-13.83887,34.86609-10.40381,49.75171,4.30859,18.66968,18.98877,16.41406,20.2793,53.17297.16553,4.71057,2.58447,9.45862,3.32764,14.05383-14.22998-6.27649-26.50781-15.27881-38.1084-25.5072-2.01758-1.77893-15.70508-17.8136-13.44189-6.29834,2.95996,15.0592,15.7832,36.73145,26.70117,47.47546,5.91113,5.81738,23.23438,18.39856,30.97998,20.39404l19.87158,16.43372h140.68945l31.32617-16.43372c3.45312-3.82312,11.36914-8.53479,15.66016-12.57874,18.08643-17.04517,30.82275-42.73218,29.27734-68.08264Z"/>
  <path class="d" d="M229.79395,274.44174c.43694.11257,18.78091,5.25626,26.53759,6.80451v-43.20865c0-2.38695,29.6799,24.49437,42.57208,35.69637l15.94672-28.89185v-38.44549h-27.8054l.24713-21.77444h27.55827v-30.6203c0-.07217,22.45489,0,22.45489,0v29.93985h26.87782c.07217,0,.07217,22.45489,0,22.45489h-26.87782v38.44549l15.27145,28.89449c12.87812-10.84702,42.56689-38.27199,42.56689-35.69901v43.8891c8.75551-2.36886,17.56093-6.53593,26.53759-7.48496-.58358.64607-15.93551,18.9485-19.73308,27.8985-27.15679-1.44477-51.26188,9.16803-69.07377,29.25142-1.44753,1.63212-5.82341,8.8703-7.47009,8.86135-.60938-.00331-5.80397-8.28956-7.16999-9.85568-16.34844-18.74321-43.84616-30.12507-68.7072-28.93754l-19.73308-27.21804Z"/>
  <path class="c" d="M178.07966,439.11091c2.80621,8.91443,9.32755,24.2888,13.60902,32.66165l-114.31209,4.41279s61.99284-25.05682,91.8572-35.03309c2.10825-.70427,6.37504-.64773,8.84586-2.04135Z"/>
  <path class="d" d="M193.73004,475.85527c3.08216,4.69971,6.67398,10.32216,9.92339,15.59353,3.28841,5.33463,7.60832,10.62533,9.80969,16.38768-1.25265-.1244-3.14405.42501-4.08271,1.3609l-87.77478,18.3686c-.44414-2.90535,72.12441-51.71071,72.12441-51.71071Z"/>
  <path class="d" d="M457.74507,475.85527l72.12421,50.68351c-.68948.99171-63.36807-12.73864-87.77458-17.34141-1.00792-.99465-2.72298-1.40676-4.08271-1.3609l11.11559-19.18448c2.82678-3.99086,6.27297-9.045,8.61749-12.79672Z"/>
  <path class="c" d="M231.8353,305.06204c-10.4407,2.84831-22.02041,9.11675-30.6203,15.65038-2.21192-3.57278-47.81452-77.27338-47.62817-78.24828,1.54373-1.50301,73.40835,57.93001,78.24847,62.59791Z"/>
  <path class="c" d="M450.26011,320.71241c-7.76799-6.08026-21.12688-13.05094-30.6203-15.65038,23.43227-19.66379,46.22611-40.57408,70.83729-58.78864,1.74717-1.29306-40.21699,74.43902-40.21699,74.43902Z"/>
  <path class="c" d="M172.63605,364.94173c-2.68263,11.33052-2.95271,22.55109-2.04135,34.02256-12.49086-6.12345-74.82661-45.55603-74.16234-47.28365.44761-1.16412,59.51198,9.80176,76.20369,13.2611Z"/>
  <path class="c" d="M478.83906,364.26128l76.2071-12.925c1.20022,1.07619-60.62392,40.14748-73.4853,47.62801.63081-10.90139-.02358-24.1235-2.7218-34.70301Z"/>
  <path class="d" d="M195.09094,325.47557c-5.45019,5.41096-16.17175,21.53304-19.05263,28.57895l-45.23473-48.32684c-2.15792-4.52108,45.29168,12.78096,64.28736,19.7479Z"/>
  <path class="d" d="M456.38417,325.47557c18.49371-7.08353,61.69018-22.50534,64.63945-22.45128,1.33685,1.26175-38.06582,44.14354-45.58681,50.34978-.03345-.06425-1.10683.13192-1.371-.46829-4.2083-9.56169-10.14842-20.31713-17.68163-27.43021Z"/>
  <path class="e" d="M318.23423,330.59732c1.05283,1.79173,7.50333,11.4505,7.50333,11.4505,0,0,6.01012-8.58806,7.13676-10.45617,32.92925-54.6013,168.28557-42.37141,147.32222,79.618-7.86423-4.79401-15.44365-8.01457-24.37754-8.27373-3.60335-8.0004-12.22232-27.37086-12.22232-27.37086l-7.12644,28.45977c-16.31726,4.85987-24.3382,14.34563-24.3382,14.34563-7.52386-2.48356-11.47789-3.2192-23.12107-2.72657-2.93269-5.75431-14.1959-27.20527-14.1959-27.20527,0,0-6.33363,28.8006-7.50336,31.87234-10.94584,3.50709-20.68055,9.0472-30.36742,15.382-11.14849-9.4457-23.35847-16.19217-37.4145-20.38744-2.2705-8.84184-8.34691-29.99334-8.34691-29.99334,0,0-11.62655,25.56162-13.16555,29.2142-15.66203.85476-27.11031,7.41543-27.11031,7.41543,0,0-15.58621-15.48021-34.63346-17.62223l-9.5356-28.07104-11.62162,27.84451c-8.10113,1.13703-15.89867,4.12096-23.15389,7.79962-20.41175-121.84486,115.31239-133.98279,146.27179-81.29536Z"/>
  <path class="e" d="M176.1418,428.32481c20.69389-9.96781,46.93152-8.40868,61.82963,10.46477l-10.21511,34.34061,25.95126-19.98312c10.75772,8.65636,16.30288,10.69385,29.51563,13.16803,0,0,9.66288,30.25707,10.87291,30.64525.40211.129,9.93735-29.88338,9.93735-29.88338,9.75398-1.23564,19.11738-4.20022,28.0726-8.12916l11.21075,8.51429,2.156,30.50566c.29114,2.11243,17.7971-24.72391,17.7971-24.72391,10.07791-.56986,17.72007-1.25754,26.76353-6.00064,3.0159,1.98919,23.00659,19.11829,24.48716,18.82188.59384-.11888-7.67621-31.55133-7.67621-31.55133,4.79825-3.63837,7.22118-7.32901,9.51104-11.88231,0,0,32.44292,10.28499,32.54599,9.73378.27072-1.44771-14.24265-21.70205-16.29733-24.53699-.51612-2.24649,15.68222-16.72296,43.503,1.10751-13.88975,85.41276-149.84265,204.28447-149.84265,204.28447,0,0-131.35745-98.70689-150.12266-204.89542Z"/>
  <path class="e" d="M263.45873,434.18575c1.32267-.65785,9.17232-1.71315,10.91553-1.8686,15.56362-1.3878,30.73244,3.10107,42.50367,13.25807,0,0-1.46096.80997-2.32451,1.064-12.20541,3.5905-24.60819,3.30535-36.37254-1.81939-5.03009-2.19119-15.48493-10.2547-14.72215-10.63408Z"/>
  <path class="e" d="M404.10241,433.4961c-9.27223,14.24439-21.77656,19.30999-35.33333,19.31034-9.44828.00024-15.7931-6.62069-15.7931-6.62069,0,0,9.55251-9.06311,22.06897-11.95105,14.75862-3.40528,29.05747-.73861,29.05747-.73861Z"/>
  <path class="c" d="M351.59493,650.7245l10.64378-6.70078c15.67934-8.46588,35.1132,3.75147,36.904,20.74029,2.15262,20.42131-11.623,34.0884-31.89742,32.92512,13.80243,9.57535,24.42669,28.26094,8.48572,41.48102-11.17271,9.26569-28.28886,8.35536-39.11479-.99235-2.96164-2.55725-5.42084-5.74139-8.15686-8.51426-.40075-1.65079-.73057-3.17524-1.37063-4.76111-1.50236-1.13309-2.50153,3.31289-2.71208,4.08066-2.8792,3.1166-4.90256,6.3102-8.23401,9.1175-11.10769,9.36009-24.5807,9.23637-37.14698,3.2619-4.89419-2.32688-9.30078-9.10509-10.10782-14.38384-1.77438-11.60592,3.7715-18.39114,11.93239-25.56144,1.47912-1.29958,3.61774-2.22352,4.76728-3.72795-11.47763.59023-23.35958-3.67482-29.12348-14.08867-12.54738-22.66979,8.64616-50.96199,33.68051-39.80457,3.50458,1.56194,6.12848,4.59157,9.72063,5.92279-3.21062-9.3835-8.72829-43.99282,26.38291-43.55242,32.15064.40327,31.23619,31.14117,25.34684,44.55811ZM352.34216,682.2792c0-14.41135-11.68271-26.09406-26.09406-26.09406s-26.09406,11.68271-26.09406,26.09406,11.68271,26.09406,26.09406,26.09406,26.09406-11.68271,26.09406-26.09406Z"/>
  <path class="d" d="M332.16476,741.59112c-1.62012-4.39111-2.19922-8.29297-3.38281-12.60815-.19092-.69629-1.03223-4.40454-2.30762-4.24561-1.27539-.15894-2.1167,3.54932-2.30762,4.24561-1.18311,4.31519-1.76221,8.21704-3.38232,12.60815-5.44971,14.77173-11.94922,36.59448-7.66846,50.73267,1.69678,7.20386,7.83447,10.23486,13.3584,9.16846,5.52441,1.06641,11.66162-1.9646,13.3584-9.16846,4.28125-14.13818-2.21875-35.96094-7.66797-50.73267Z"/>
  <path class="e" d="M352.34216,682.2792c0,14.41135-11.68271,26.09406-26.09406,26.09406s-26.09406-11.68271-26.09406-26.09406,11.68271-26.09406,26.09406-26.09406,26.09406,11.68271,26.09406,26.09406ZM339.20305,682.16339c0-7.14578-5.7928-12.93859-12.93859-12.93859s-12.93859,5.7928-12.93859,12.93859,5.7928,12.93859,12.93859,12.93859,12.93859-5.7928,12.93859-12.93859Z"/>
  <circle class="d" cx="326.47443" cy="682.16339" r="12.93859"/>
  <path class="d" d="M425.76387,671.82519c-4.13049,3.88276-9.50326,9.61684-12.92857,13.60902,3.76898-14.29124,2.56614-28.74196-5.15768-41.45322-9.02551-14.85347-25.40231-20.43672-31.6147-37.79131-5.89266-16.46139,3.22769-11.05783,12.73287-5.92837,26.37955,14.23568,47.99608,39.8188,36.96808,71.56387Z"/>
  <path class="d" d="M497.89169,656.17481c-.01388-.04607-.55895-.18793-.68045-.68045l.68045.68045Z"/>
  <g>
    <g>
      <path class="d" d="M457.64114,637.26621c.2551,1.80639-1.94255,14.06834-.81065,15.73437,4.66468,6.86583,17.24191,5.0059,24.58084,7.42425-8.20665,1.73474-22.38089,4.84933-30.43509,7.35944-15.39799,4.79883-27.17558,16.5888-36.44158,29.21163,39.01464-21.04831,80.28667-10.98741,108.53559,21.77244,3.88411,4.50434,18.15348,25.20962,17.37841,30.26529-.71534,4.66613-10.2898-2.49755-12.72013-3.62282-10.95626-5.07284-23.31748-9.43886-35.3665-10.90418-19.90048-2.42016-36.42313,2.14916-56.57557-3.98458-7.99689-2.43399-19.50314-9.06123-27.05094-9.69351-2.10852-.17663-6.13582-.30313-8.11603.0274-1.95682.32662-7.99351,3.38288-9.90022,2.38631-3.16387-1.65364-1.28043-6.65236-.13204-9.01581,3.01315-6.20126,16.82642-22.87696,21.90174-28.79223,3.42531-3.99218,8.79808-9.72626,12.92857-13.60902,5.05256-4.74952,11.47492-8.26969,15.9991-13.60053,3.25763-3.83846,9.75557-19.42905,12.81232-23.61825.59377-.81375,1.86856,2.31141,3.41218,2.6598Z"/>
      <path class="f" d="M547.89901,584.72076c2.9751-3.36572,5.85352-6.13037,7.60596-10.41907,11.40576-27.91333-24.34229-47.07507-43.00537-24.63342-2.17578,2.61621-3.16113,5.4978-5.42041,7.84033-2.66846-19.01465-26.77441-30.22778-42.19531-17.69092-3.87158,3.14722-8.7915,10.71436-9.52637,15.65039-1.27588,8.56934,2.75488,16.84521,8.16504,23.12866-30.62004-8.54891-34.57106,20.4166-31.98096,29.26611,3.18694,10.88869,16.47852,19.56592,27.21484,17.69531,0,0-15.09229,21.52417,1.45947,32.83447,17.8335,12.18628,36.82764-8.62061,36.82764-8.62061,0,0,10.86182,33.58618,36.89648,19.10327,17.00195-9.45801,12.66797-26.18604,7.83887-35.83301,42.39355,14.60376,51.13574-53.98511,6.12012-48.32153ZM505.54989,621.51617c-9.63721,0-17.44922-7.8125-17.44922-17.44946s7.81201-17.44922,17.44922-17.44922,17.44922,7.81226,17.44922,17.44922-7.81201,17.44946-17.44922,17.44946Z"/>
      <circle class="d" cx="505.5499" cy="604.0668" r="17.44929"/>
    </g>
    <g>
      <path class="d" d="M195.30772,637.26621c-.2551,1.80639,1.94255,14.06834.81065,15.73437-4.66468,6.86583-17.24191,5.0059-24.58084,7.42425,8.20665,1.73474,22.38089,4.84933,30.43509,7.35944,15.39799,4.79883,27.17558,16.5888,36.44158,29.21163-39.01464-21.04831-80.28667-10.98741-108.53559,21.77244-3.88411,4.50434-18.15348,25.20962-17.37841,30.26529.71534,4.66613,10.2898-2.49755,12.72013-3.62282,10.95626-5.07284,23.31748-9.43886,35.3665-10.90418,19.90048-2.42016,36.42313,2.14916,56.57557-3.98458,7.99689-2.43399,19.50314-9.06123,27.05094-9.69351,2.10852-.17663,6.13582-.30313,8.11603.0274,1.95682.32662,7.99351,3.38288,9.90022,2.38631,3.16387-1.65364,1.28043-6.65236.13204-9.01581-3.01315-6.20126-16.82642-22.87696-21.90174-28.79223-3.42531-3.99218-8.79808-9.72626-12.92857-13.60902-5.05256-4.74952-11.47492-8.26969-15.9991-13.60053-3.25763-3.83846-9.75557-19.42905-12.81232-23.61825-.59377-.81375-1.86856,2.31141-3.41218,2.6598Z"/>
      <path class="f" d="M105.04985,584.72076c-2.9751-3.36572-5.85352-6.13037-7.60596-10.41907-11.40576-27.91333,24.34229-47.07507,43.00537-24.63342,2.17578,2.61621,3.16113,5.4978,5.42041,7.84033,2.66846-19.01465,26.77441-30.22778,42.19531-17.69092,3.87158,3.14722,8.7915,10.71436,9.52637,15.65039,1.27588,8.56934-2.75488,16.84521-8.16504,23.12866,30.62004-8.54891,34.57106,20.4166,31.98096,29.26611-3.18694,10.88869-16.47852,19.56592-27.21484,17.69531,0,0,15.09229,21.52417-1.45947,32.83447-17.8335,12.18628-36.82764-8.62061-36.82764-8.62061,0,0-10.86182,33.58618-36.89648,19.10327-17.00195-9.45801-12.66797-26.18604-7.83887-35.83301-42.39355,14.60376-51.13574-53.98511-6.12012-48.32153ZM147.39897,621.51617c9.63721,0,17.44922-7.8125,17.44922-17.44946s-7.81201-17.44922-17.44922-17.44922-17.44922,7.81226-17.44922,17.44922,7.81201,17.44946,17.44922,17.44946Z"/>
      <circle class="d" cx="147.39896" cy="604.0668" r="17.44929"/>
    </g>
  </g>
  <circle class="d" cx="468.17076" cy="57.34283" r="14.0466"/>
  <circle class="d" cx="180.85446" cy="57.34283" r="14.0466"/>
</svg>