<?xml version="1.0" encoding="UTF-8"?>
<svg id="a" data-name="Layer 1" xmlns="http://www.w3.org/2000/svg" viewBox="0 0 700.20754 775.5606">
  <defs>
    <style>
      .c {
        fill: #e9b22b;
      }

      .d {
        fill: #de7cb9;
      }

      .e {
        fill: none;
      }

      .f {
        fill: #f8f4f0;
      }

      .g {
        fill: #051da2;
      }

      .h {
        fill: #050504;
      }
    </style>
  </defs>
  <polygon class="f" points="434.29932 306.78128 398.87793 247.63625 302.14209 194.57287 251.10449 201.38122 204.22274 251.05035 215.72461 336.7181 242.19975 396.90065 251.96733 407.38341 265.18826 425.22249 279.16527 436.25698 292.59056 440.67077 321.46412 438.46387 320.51392 455.75123 321.98053 474.58923 313.28021 480.39491 305.37217 489.22249 277.96987 494.37192 265.0963 533.45238 260.68251 573.9519 269.23423 614.95672 277.3291 641.81951 299.02734 659.93523 310.06182 662.99761 389.14228 612.16502 473.64803 488.86785 450.47561 476.8087 429.14228 457.31445 424.17676 438.92364 416.72849 397.8202 434.29932 306.78128"/>
  <path class="f" d="M564.77446,612.211l.96552-7.44828-.96552-32.55172-5.44828-28-12-21.24138s-15.86207-13.37931-16-13.7931-19.17241-8.13793-19.17241-8.13793l-9.93103,4.96552-16.96552,28.13793-11.93103,41.58621-1.7931,48.27586,3.17241,36.41379,21.37931-13.51724,40.27586-29.77432,28.41379-4.91534Z"/>
  <path class="e" d="M351.13916,630.86016c.00586.00586.01123.0105.01709.01648-.00586-.00598-.01123-.01062-.01709-.01648Z"/>
  <path class="e" d="M350.05859,629.92535c.07617.05249.15283.10474.22998.16492-.07715-.06018-.15381-.11243-.22998-.16492Z"/>
  <path class="e" d="M354.3291,634.35626c-.26855-.31177-.53662-.61597-.80322-.90259-.71289-.76599-1.31543-1.45276-1.85254-2.0332.53711.58044,1.13965,1.26733,1.85254,2.0332.2666.28662.53467.59094.80322.90259Z"/>
  <path class="e" d="M222.13037,225.37225c2.80713-.51276,5.62549-.98486,8.44873-1.40424-2.82324.41937-5.6416.89142-8.44873,1.40424Z"/>
  <path class="e" d="M259.4458,221.57592c-5.62256.04431-11.46436.51007-16.15771.90051-4.23047.35193-8.47461.86255-12.70898,1.49158,4.23438-.62903,8.47852-1.13959,12.70898-1.49152,4.69385-.39044,10.53564-.85626,16.15771-.90057Z"/>
  <path class="e" d="M259.4502,221.57592c1.22266-.00958,2.43408.00146,3.62207.03687-1.18799-.0354-2.39941-.04651-3.62207-.03687Z"/>
  <path class="e" d="M348.27637,629.47442c.20264-.03894.40088-.05884.59131-.04004-.19043-.0188-.38867.0011-.59131.04004Z"/>
  <path class="e" d="M242.78369,694.43414c.55176.88037,1.10693,1.75903,1.66895,2.63354-.56201-.87451-1.11719-1.75317-1.66895-2.63354Z"/>
  <path class="e" d="M184.06689,556.57391c-.76758,2.38733-1.48828,4.83398-2.17139,7.33704l-2.76025,12.41357,2.76025-12.41357c.68311-2.50305,1.40381-4.94971,2.17139-7.33704Z"/>
  <path class="e" d="M229.3335,506.21929c.67578-.23145,2.46289-.7439,3.72998-1.08862-1.26709.34473-3.0542.85718-3.72998,1.08862-.29932.10254-.79102.4707-1.36084.68042-3.40381,1.25269-6.56299,2.66577-9.49902,4.23169,2.93604-1.56592,6.09521-2.979,9.49902-4.23169.56982-.20972,1.06152-.57788,1.36084-.68042Z"/>
  <path class="e" d="M235.52197,504.78252c.02197.00049.04443.00012.06689.00049-.02295-.00037-.04395,0-.06689-.00049Z"/>
  <path class="e" d="M233.06348,505.13067c.26562-.07227.49365-.13281.69873-.18616-.20508.05334-.43311.11389-.69873.18616Z"/>
  <path class="e" d="M209.73828,648.03985c-.03467-.03223-.06982-.06421-.104-.09644.03418.03223.06934.06421.104.09644Z"/>
  <path class="e" d="M209.88721,516.60662c1.3877-1.04797,2.83057-2.05579,4.3457-3.01233-1.51514.95667-2.95801,1.96436-4.3457,3.01233Z"/>
  <path class="e" d="M234.74707,504.7835c.06348-.0022.12646-.00562.19189-.0061-.06494.00049-.12891.00391-.19189.0061Z"/>
  <path class="e" d="M165.9751,625.43731c.66016.16333,1.45996.38489,2.11816.54138v-.00012c-.6582-.15649-1.45801-.37793-2.11816-.54126Z"/>
  <path class="g" d="M431.92236,224.67046c-11.54297,2.39673-10.52393,24.67175,3.85107,23.63257,15.34326-1.10919,12.97607-27.12677-3.85107-23.63257Z"/>
  <path class="d" d="M658.03125,84.6798c-.43994.12189,5.52295-5.19794,6.3916-6.52332,21.7998-33.25586-13.92432-64.56616-42.46875-42.80939,0,0,1.30322-10.30853-3.28906-19.50623-7.22998-14.48145-23.83398-19.36597-37.99902-13.27618-11.13623,4.7876-18.1792,18.28479-18.59521,30.05731-5.91699-8.54895-24.3999-24.13513-53.00439-7.04712,0,0,4.70459,8.55115,5.93408,10.91522,3.84668,7.39392,35.27148,77.39771,28.39746,114.56989-1.69238,9.15094-5.12549,15.3714-8.17578,23.80542-.64111,1.77222-1.7251,8.13678-1.7251,8.13678l3.40039.68329c4.19678-29.50574,34.82275-40.00311,60.90723-40.82007,20.38281-.63843,35.5708,5.19794,56.29834-2.22052,17.91309-6.41101,24.5459-15.95227,36.39551-28.4339,1.45459-1.53186,9.08643-6.6535,8.82764-7.17242-7.74121-15.51819-18.68945-26.62067-41.29492-20.35876Z"/>
  <path class="d" d="M177.87158,19.10442c-11.15625-5.0614-22.229-5.07343-32.44775,2.07904-5.29102,3.70331-6.12354,6.52637-9.79492,11.2627-.43652.56299.0127,1.24756-1.55518.85608-.68213-44.92041-64.43652-43.32245-58.52881,2.72528C40.81104,2.591,5.86816,57.77032,38.12695,85.02007c0,0-32.06494-6.83209-38.12695,17.32916,2.29248,3.09906,5.83105,5.52441,8.53662,8.51837,7.85596,8.69263,12.35352,16.64069,22.56494,23.70605,25.09814,17.3656,54.61182,5.15833,82.7124,9.82874,13.854,2.30255,35.88037,11.38245,42.03076,24.99359l2.72217-.68042c-15.70947-45.46045-3.0918-73.22333,14.02344-114.25171,3.04102-7.29004,7.07227-13.27234,10.79834-20.49225.78174-1.51508,4.25195-6.2973,4.34277-7.24683.19727-2.06183-7.99316-6.77325-9.85986-7.62036Z"/>
  <path class="f" d="M113.99072,674.9848c-.67236.47351.36572.93481.69336,1.33362.67676-.44678-.31689-.90039-.69336-1.33362Z"/>
  <path class="g" d="M411.34766,92.51153c13.71826,2.31812,36.51855,9.60498,48.65088,4.40814,10.20605-4.37177,3.97754-14.76538-3.4082-18.34991-7.09424-3.44287-16.19385-3.66437-23.94238-2.87634-11.29736,1.14899-27.96924,8.00977-37.48975,14.22473-.25734.16801-.68762.39966-1.15082.67485-.96713.57459-.51475,2.06228.60732,1.98206,4.38185-.31329,13.01164-.69236,16.73295-.06352Z"/>
  <path class="g" d="M243.97461,98.61749c16.58301,1.43475,35.22998-8.38892,53.76562-6.13348,1.4458.17596,7.23877,2.97784,7.80029.35114.25537-1.19452-4.29785-3.44116-5.4248-4.08759-14.37451-8.24139-33.72461-15.35376-50.53271-13.0777-16.60889,2.24915-27.08545,21.08948-5.6084,22.94763Z"/>
  <path class="f" d="M582.03271,497.48846c-1.66553-1.20325-13.61328-9.04138-14.51074-8.27747-1.20117,1.02222.97217,1.50562,1.27148,1.76807,11.80811,10.35803,23.63232,20.40991,32.62061,33.39844l8.28613,12.45752c-4.74756-16.2041-14.0293-29.49121-27.66748-39.34656Z"/>
  <path class="f" d="M566.49707,488.52764v.68042c.44189-.22681.44189-.45361,0-.68042Z"/>
  <path class="f" d="M235.58887,504.78301c-.02246-.00037-.04492,0-.06689-.00049-.2002-.00415-.39404-.00684-.58301-.00513-.06543.00049-.12842.00391-.19189.0061-.22949.00854-.45068.02539-.65039.07495-.09131.02271-.21338.05457-.33447.08606-.20508.05334-.43311.11389-.69873.18616-1.26709.34473-3.0542.85718-3.72998,1.08862-.29932.10254-.79102.4707-1.36084.68042-3.40381,1.25269-6.56299,2.66577-9.49902,4.23169-1.46826.78308-2.88086,1.60425-4.24072,2.46289-1.51514.95654-2.95801,1.96436-4.3457,3.01233-9.81982,7.41614-16.55225,17.08093-21.54785,28.54163-1.5835,3.63354-2.99316,7.44702-4.27246,11.42566-.76758,2.38733-1.48828,4.83398-2.17139,7.33704l-2.76025,12.41357-11.04199,49.65417v-.00012.00012c6.26904,1.49072,14.58984,4.64832,20.41309,7.48499,12.76709-62.64648,38.83252-112.69299,47.10254-128.68042-.00684-.00012-.01318,0-.02002-.00024Z"/>
  <path class="d" d="M346.9043,338.05065c-12.09033,0-21.8916,9.80133-21.8916,21.89191s9.80127,21.89191,21.8916,21.89191,21.89209-9.80133,21.89209-21.89191-9.80127-21.89191-21.89209-21.89191Z"/>
  <path class="d" d="M239.32666,331.89764c-6.7998-2.48901-10.09033-.96368-16.11719,2.16754,2.52783,16.78357,5.4165,24.45618,12.24805,39.46619,22.40869-1.69843,23.23193-34.5459,3.86914-41.63373Z"/>
  <path class="f" d="M351.15625,630.87664c.16602.16882.33789.35046.51709.54382-.1792-.19336-.35107-.375-.51709-.54382Z"/>
  <path class="f" d="M347.37012,629.80926c.32422-.17773.62158-.28027.90625-.33484-.28467.05444-.58203.15723-.90625.33484Z"/>
  <path class="f" d="M354.3291,634.35626c3.35107,3.89062,6.7915,9.63806,9.17529,14.92651-2.38379-5.28857-5.82422-11.03589-9.17529-14.92651Z"/>
  <path class="f" d="M348.86768,629.43438c.40625.04016.79346.21704,1.19092.49097-.39746-.27393-.78467-.45081-1.19092-.49097Z"/>
  <path class="f" d="M350.28857,630.09026c.27246.21277.55225.46814.85059.7699-.29834-.30176-.57812-.55713-.85059-.7699Z"/>
  <path class="f" d="M346.79004,630.1773c-.60791.43286-1.30127,1.06323-2.12646,1.91846-4.53076,4.69507-8.67285,11.21948-11.6709,17.94653,2.99805-6.72705,7.14014-13.25146,11.6709-17.94653.8252-.85522,1.51855-1.4856,2.12646-1.91846Z"/>
  <path class="g" d="M271.97705,727.93133c-11.37158-8.26648-19.41846-18.46375-26.47314-29.24268-.35303-.53894-.70312-1.07935-1.05127-1.62097-.56201-.87451-1.11719-1.75317-1.66895-2.63354-.47314-.75586-.94482-1.5127-1.4126-2.27197-3.37598-5.47876-6.62012-11.03577-10.0249-16.50195-1.70215-2.73315-3.44482-5.4436-5.26367-8.11035-.00146-.00256-.00342-.00513-.00488-.00757.09863,2.54846.20459,4.74341.31641,6.37207.05322.77966.4873,3.77124-.7002,3.76538.27393-3.46191-4.94678-6.09338-5.78955-7.48242-.23926-.39392-.41504-5.34583-.5415-11.74438-2.9292-3.63135-6.10059-7.12354-9.62451-10.41309-.03467-.03223-.06982-.06421-.104-.09644-5.89648-5.48669-12.77246-10.40967-21.12793-14.47974h0c-5.82324-2.83667-14.14404-5.99426-20.41309-7.48499-.6582-.15649-1.45801-.37805-2.11816-.54138-.2207-.05432-.42529-.10229-.604-.13904h0c-7.10596-1.46301-14.54834-1.40039-21.77783-1.36438.82617,14.40405,5.37305,30.65735,11.89746,43.56628,25.01367,49.49329,79.1792,60.14233,128.95947,69.39197,1.53548.32317,1.71378-.31588,1.53117-.59494-.02734-.04199-10.67033-5.94217-14.00431-8.36588Z"/>
  <path class="g" d="M241.37109,692.16216c.46777.75928.93945,1.51611,1.4126,2.27197-.47314-.75586-.94482-1.5127-1.4126-2.27197Z"/>
  <path class="g" d="M226.08252,667.54986c1.81885,2.66675,3.56152,5.3772,5.26367,8.11035-1.70215-2.73315-3.44482-5.4436-5.26367-8.11035Z"/>
  <path class="g" d="M209.73828,648.03985c3.52393,3.28955,6.69531,6.78174,9.62451,10.41309h0c-2.9292-3.63135-6.10059-7.12354-9.62451-10.41309Z"/>
  <g>
    <g>
      <path class="d" d="M366.59326,750.59917l-17.94043,14.81775c-2.09766.36853-15.35449-13.90369-18.43018-14.79724-1.3501-.39233-6.79004,1.11719-7.94775,1.88025-.60107.39636-.61426,1.12488-.39453,1.3905l26.30322,21.67017,26.08496-22.66699c-.24756-1.0199-6.48193-2.6189-7.67529-2.29443Z"/>
      <path class="d" d="M430.96045,630.26836c-3.39551,1.01538-6.72559,2.23596-9.96533,3.65796-11.88672,5.2179-22.55566,13.11755-30.7417,23.33948.48193-5.62134-4.16992-23.40295-12.6084-38.69397-1.37842-2.49805-2.85693-4.92896-4.43213-7.23022-1.50928-2.20532-3.10645-4.28906-4.78516-6.19849-5.69531-6.47681-12.33545-10.93298-19.72314-11.16602-25.37842-.80054-43.53467,52.28345-43.16699,62.6217-7.19287-8.35388-15.9375-15.52112-25.85059-20.41333-3.06201-1.51111-6.59424-2.97021-10.34277-4.29553-2.44385-.86401-4.97754-1.6676-7.5459-2.38916-7.104-1.99573-14.43018-3.35681-20.58789-3.54028-1.68604-.05017-4.21191-.01392-4.22217,2.24207.91992,20.27649,3.19482,39.90637,11.49512,58.57947,10.78027,24.25366,28.50537,44.55054,53.65869,52.83203l.00098.00024c1.92773.63477,4.68896,1.36646,7.80469,2.10938,9.54834,2.27734,22.46387,4.66235,25.2417,4.7019-.40186-.79321-.71777-1.6333-.9751-2.49927l28.53906.95276c-.17773.47229-.37158.9364-.59277,1.38611,3.02148-.55005,12.13525-2.12549,20.23926-3.81152,4.65381-.96851,8.97217-1.97278,11.60303-2.8396,25.58154-8.4292,42.97949-29.91016,52.7207-55.13062,6.34668-16.4314,7.98926-33.16772,10.5249-50.0354.37207-2.47522.11963-5.27588.71777-7.78577-9.14453-.24988-18.28906.99939-27.00586,3.60608Z"/>
    </g>
    <g>
      <path class="c" d="M674.70068,342.9226c6.00439-4.71735,2.72998-14.8479-5.29883-14.151-1.88867.16394-4.96289,1.94891-5.85352,3.67981-3.78711,7.36237,4.16895,15.95715,11.15234,10.47119Z"/>
      <path class="c" d="M32.47119,331.55315c-5.7666-6.52802-17.60596.46881-12.99707,8.58105,6.1001,10.73615,19.71289-.97827,12.99707-8.58105Z"/>
      <path class="c" d="M49.66943,354.99682c-2.25146-3.42291-3.37793-3.86627-5.42529-.61273-4.67529,7.42871-9.78369,14.68628-17.30371,28.6441-.2417.4483-.31348.97467-.19385,1.4696,1.62891,6.72473,13.06006,55.13434,18.46387,77.41437.51221,2.11157,3.5166,2.09863,4.0127-.01672,5.77002-24.59888,18.15479-77.89917,18.16309-78.15735.04395-1.42279-14.4292-23.74292-17.7168-28.74127Z"/>
      <path class="c" d="M21.92529,395.05511c-.43018-1.50885-2.31299-2.00928-3.43066-.9079-4.64844,4.58246-14.00586,14.88507-17.24072,18.46393-.65869.72852-.71143,1.81982-.12744,2.60974l37.08594,50.17566c1.34961,1.82617,4.23047.45947,3.66016-1.73853-5.59424-21.55933-16.84326-57.71313-19.94727-68.60291Z"/>
      <path class="c" d="M76.58008,395.00188c-1.09424-1.11188-2.97168-.65625-3.43457.83356-3.50049,11.2652-14.85889,48.94098-19.95703,67.38287-.61523,2.22461,2.32715,3.6272,3.66895,1.74902l36.02197-50.4209c.56104-.78516.50928-1.84961-.13379-2.56909-4.69727-5.25549-12.31543-13.06354-16.16553-16.97546Z"/>
      <path class="c" d="M673.98877,383.02819c-7.52002-13.95782-12.62842-21.21539-17.30371-28.6441-2.04736-3.25354-3.17383-2.81018-5.42529.61273-3.2876,4.99835-17.76074,27.31848-17.7168,28.74127.0083.25818,12.39307,53.55847,18.16309,78.15735.49658,2.11536,3.50049,2.1283,4.0127.01672,5.40381-22.28003,16.83496-70.68964,18.46387-77.41437.11963-.49493.04785-1.0213-.19385-1.4696Z"/>
      <path class="c" d="M699.67529,412.61114c-3.23438-3.57886-12.59229-13.88147-17.24072-18.46393-1.11768-1.10138-3.00049-.60095-3.43018.9079-3.10449,10.88977-14.35352,47.04358-19.94775,68.60291-.57031,2.198,2.31055,3.5647,3.66016,1.73853l37.08643-50.17566c.5835-.78992.53076-1.88123-.12793-2.60974Z"/>
      <path class="c" d="M627.78369,395.83544c-.46289-1.48981-2.34033-1.94543-3.43457-.83356-3.84961,3.91193-11.46826,11.71997-16.16504,16.97546-.64355.71948-.69531,1.78394-.13428,2.56909l36.02197,50.4209c1.3418,1.87817,4.28418.47559,3.66895-1.74902-5.09814-18.44189-16.45654-56.11768-19.95703-67.38287Z"/>
      <path class="c" d="M446.73438,578.34393c-1.48633-5.68347-5.22412-26.63867-6.81836-31.96228,10.76221-12.32483,45.07373-51.67065,44.36719-52.23962-3.12061-.35339-4.06885-1.14661-7.38818-2.02588,0,0-36.53662,43.19055-49.01709,57.68103-.0918.10632-35.6084,41.57361-54.66504,61.54443,1.5752,2.30127,3.05371,4.73218,4.43213,7.23022.00098.00098.00244.00293.00342.00391l37.44092-41.58887c3.32324,14.33203,6.79102,28.66772,11.40332,42.64575l-5.49756,14.2937c3.23975-1.422,6.56982-2.64258,9.96533-3.65796,7.41357-14.20251,28.98389-59.26489,30.08984-61.50562,6.92627-14.03174,42.50635-68.66101,42.50635-68.66101-3.56885-.92126-7.67871-2.02869-7.67871-2.02869-22.2666,32.88379-36.62061,57.10352-49.14355,80.27087Z"/>
      <path class="c" d="M273.51025,497.77422c-1.39453-.00134-6.80469.96558-6.80469.96558-3.05078,3.7019-13.35693,45.58008-13.35693,45.58008l-20.02246,18.71875c.1499-1.5459.28369-2.16626.39648-2.94824,2.05371-14.22949,9.24756-32.07373,14.27002-45.7644,1.06152-2.89355,3.08057-7.9541,5.60938-13.14941l-6.29883.78149c-28.21143,60.09204-28.04932,115.12671-28.2041,125.6936-.03125,2.1073.03027,18.94482.26367,30.80127,2.37939,2.94897,4.59961,5.98901,6.71484,9.08936-.43555-11.20081-.7417-29.26782-.85498-36.48804l1.52637-22.97021c7.54834-8.84631,15.61572-17.0658,23.3667-25.62964.50635-.55957,1.93457-2.20898,1.93457-2.20898,0,0,.21582,3.11609.33398,3.97046,1.2124,8.75049,1.78418,16.68164,3.81934,25.44006.49219,2.11902,3.41699,12.85779,5.59473,19.84485,2.56836.72156,5.10205,1.52515,7.5459,2.38916-10.12109-30.12305-16.14062-59.29077-8.77686-90.64453,2.4043-10.23486,8.66699-33.59351,12.94287-43.47119Z"/>
      <path class="c" d="M308.66309,385.04223c-6.70605-1.15302-12.28516-9.27686-18.50244-9.41486-2.87158-.06372-5.78564,2.69983-7.43164,2.65662-1.74658-.0459-3.71191-4.07941-7.97266-3.26367-4.9458.94672-6.44434,8.05756-12.08008,6.6795-.60986,3.36169,3.34473,3.32178,4.78857,5.07422,1.16504,1.41364,1.78418,4.83289,2.81689,6.70959,6.5957,11.98627,22.29053,12.06488,31.86768,3.53052,5.49854-4.89996,3.646-4.96417,11.03174-8.70111,6.45703-3.26752-2.99316-3.00854-4.51807-3.27081Z"/>
      <path class="c" d="M456.36084,231.3374c-.52539-10.43951-14.55176-22.67816-29.38428-16.64746-9.21631-3.4632-44.18018-12.39069-48.62549-13.65137-22.93701-6.50519-44.80615-9-68.01318-11.95404,0,0-2.51221-2.4151-7.77051-5.08044-5.11865-2.59491-12.68457-3.15576-18.09717-1.31934-2.83789.96271-8.54053,5.06848-8.54053,5.06848-9.9873,1.89868-60.20508,6.81946-60.20508,6.81946v.00018c-.71484,2.4422-.54443,3.1698-1.05811,5.32166.53809-.09552,1.06104-.18573,1.57324-.27185,5.0332-.84595,8.94824-1.26849,13.89307-1.84399,2.16846-.25244,4.53613-.53485,7.28662-.89557.73242-.09601,1.48486-.19623,2.27441-.30432-.08447.07928-.18164.1817-.28613.2984-2.95703,3.3056-13.45605,21.04022-14.0127,20.55219,0,0-4.95361-6.99036-8.4707-11.09753-.5127-.59906-1.29883-1.33929-1.21826-1.22742-.08057-.11188-1.71484-1.75513-2.02295-1.68585-.46484,2.11584-.94775,3.87689-1.36084,6.12402v.00006c1.57422,1.77051,3.80273,4.34009,5.58301,6.4035,1.64258,1.90381,2.9043,3.37732,2.9043,3.37732l-2.5.58588-8.02881,1.88129v.00006c-.30664,1.87573-.32031,4.19489-.68018,6.12408,4.13477-.91241,8.31934-1.77332,12.52979-2.54254,2.80713-.51282,5.62549-.98486,8.44873-1.40424,4.23438-.62903,8.47852-1.13965,12.70898-1.49158,4.69336-.39044,10.53516-.8562,16.15771-.90051h.00439c1.22266-.00964,2.43408.00146,3.62207.03687,1.23828.03693,2.4502.10022,3.61914.19739,1.71875.14282,3.3457.35706,4.83008.66101.12695.026,1.56396,2.27655,2.63232,3.42944,7.29492,7.87366,21.1582,8.78754,30.20703,1.72412,1.90088-1.48376,3.1377-3.44824,4.58545-5.15356,25.73779,2.88507,51.34277,7.11731,76.35742,13.80243,7.40381,1.9787,21.32129,6.33923,30.23291,8.61987,2.30029,5.862,6.64893,10.96173,12.48877,12.96112,4.00684,1.37189,9.59131,1.32263,13.60889,0,1.73926-.57245,3.34717-1.40613,4.81299-2.44043,7.88037,4.53638,26.20459,12.66058,31.7085,15.9325,6.50977,3.87012,12.44385,8.44739,18.77344,12.53064,1.0459.6745,1.86582,2.34482,3.24277,2.16764v-.00116c.05273-1.37061.82168-5.09452,1.64785-7.8458.68457-2.28027,1.39502-4.56018,1.73584-6.05389l-.16064-.44354-2.32764-6.42059,3.43018,1.87225.41895.2287c.32812-1.56256.40332-3.20654.68018-4.76178v-.00134c-7.67529-5.37701-15.2041-10.99835-23.19287-15.93298-3.20459-1.97931-19.37549-12.09351-26.04297-15.34741Z"/>
      <path class="c" d="M358.32764,728.07769c-.61475-.51636-1.27686-.97461-1.96924-1.38892-2.26074-1.35254-4.89551-2.14429-7.72168-2.14429-2.86279,0-5.5293.81226-7.80908,2.19751-.9292.56433-1.79297,1.22144-2.57617,1.96655-2.88672,2.74719-4.69531,6.61694-4.69531,10.9165,0,1.34241.19238,2.63696.52148,3.87573.27148,1.02173.64355,2.00049,1.11182,2.9248,2.48779,4.9082,7.56836,8.27991,13.44727,8.27991,5.94238,0,11.06689-3.44568,13.52393-8.44031.37988-.77246.70068-1.57764.94531-2.4176v-.00012c.39111-1.34106.61084-2.75513.61084-4.22241,0-4.63696-2.09668-8.78101-5.38916-11.54736Z"/>
    </g>
  </g>
  <path class="g" d="M165.9751,625.43731c-.22021-.05432-.4248-.10229-.604-.13904h0c.17871.03674.3833.08472.604.13904Z"/>
  <path class="g" d="M188.50635,633.46368h0c8.35547,4.07007,15.23145,8.99304,21.12793,14.47974-5.89648-5.48669-12.77197-10.40967-21.12793-14.47974h0Z"/>
  <polygon class="g" points="226.08252 667.54986 226.07764 667.54229 226.07764 667.54229 226.08252 667.54986"/>
  <path class="g" d="M219.9043,670.19732c.84277,1.38904,6.06348,4.02051,5.78955,7.48242,1.1875.00586.75342-2.98572.7002-3.76538-.11182-1.62866-.21777-3.82361-.31641-6.37207-2.11523-3.10034-4.33545-6.14038-6.71484-9.08936.12646,6.39856.30225,11.35046.5415,11.74438Z"/>
  <path class="g" d="M219.36279,658.45293c2.37939,2.94897,4.59961,5.98901,6.71484,9.08936h0c-2.11523-3.10034-4.33545-6.14038-6.71484-9.08936h0Z"/>
  <path class="g" d="M295.82568,221.72088l-11.62598-.66492c1.71191,1.14941,3.67529,1.87286,5.81641,1.95959,2.0542.08319,4.01807-.4021,5.80957-1.29468Z"/>
  <path class="g" d="M304.65967,207.50225c.33203-8.20605-5.13623-16.08038-12.89648-16.39471-7.76074-.31433-12.87402,6.71265-13.97705,14.98853-.78613,5.89478,1.91943,11.94299,6.41357,14.9599l11.62598.66492c4.97754-2.47931,8.58936-8.18475,8.83398-14.21863Z"/>
  <g>
    <path class="e" d="M546.30811,526.40813c-6.6709-8.83411-16.76855-16.4729-27.11133-20.5199-8.72266-3.41284-9.12744-2.71338-15.30908,4.40613-10.98779,12.65479-18.81689,35.53967-22.32275,51.84631-6.37646,29.6593-6.97705,64.22144-5.32812,94.49402,1.55859-2.05261,3.19385-4.05652,4.93652-5.99207,12.34668-13.71228,46.27148-36.97095,64.34424-40.62793,2.70459-.54736,11.69775-1.78418,17.39355-1.82886,1.86865-28.37292-.57227-60.54956-16.60303-81.77771Z"/>
    <path class="g" d="M567.46436,608.76275c-.67676-.43738-2.37451-.59399-4.55322-.5769-5.6958.04468-14.68896,1.28149-17.39355,1.82886-18.07275,3.65698-51.99756,26.91565-64.34424,40.62793-1.74268,1.93555-3.37793,3.93945-4.93652,5.99207-16.33594,21.51392-23.69336,48.74622-45.77588,66.79749-5.76221,4.70996-16.55615,10.47253-22.84912,14.1405,1.43555-.1488,46.92773-10.31433,65.06738-16.83167,35.12158-12.61841,70.48486-46.62341,86.60352-82.35254,2.42578-5.37695,4.42676-10.79175,5.91357-16.17981.49365-1.78699,1.21826-4.22327,1.81152-6.56775.28955-1.146.5415-2.25806.72217-3.27112.11035-.62146.20312-1.21655.24609-1.73499.06299-.7605.28418-1.35742-.51172-1.87207Z"/>
  </g>
  <g>
    <path class="h" d="M341.64795,203.93511s-.32422.47992-.85156,1.26257c-2.30762,3.42352-8.55615,12.71509-9.15088,13.8186-.01904.03571-.03662.06848-.04346.08655,0,0,.60449.07269,1.60938.20032,3.97168.50458,14.30176,1.88251,19.28027,3.16455,0-.00061-.00049-.00146-.00098-.00208-.56934-1.94971-7.38232-12.98145-9.9082-17.03546-.58008-.93134-.93457-1.49506-.93457-1.49506Z"/>
    <path class="h" d="M270.58887,195.98174c-5.14453,5.80951-15.19141,19.2467-14.71777,19.68451v.00043h12.92871c-.49463-4.04517-.29346-7.43317.25049-11.52466.41162-3.09735,2.71484-7.67987,4.03467-10.65515-.49805.33459-1.38477,1.24036-2.49609,2.49487Z"/>
    <path class="h" d="M275.92969,187.75323s5.70264-4.10577,8.54053-5.06848c5.4126-1.83643,12.97852-1.27557,18.09717,1.31934,5.2583,2.66534,7.77051,5.08044,7.77051,5.08044,23.20703,2.95404,45.07617,5.44885,68.01318,11.95404,4.44531,1.26068,39.40918,10.18817,48.62549,13.65137,14.83252-6.0307,28.85889,6.20795,29.38428,16.64746,6.66748,3.25391,22.83838,13.3681,26.04297,15.34741,7.98877,4.93463,15.51758,10.55597,23.19287,15.93298,4.95752-27.83081,3.16553-49.41718-8.04736-75.3078-18.94336-43.74084-59.9873-71.47614-107.37646-76.3454-16.57275-1.70282-35.0835-4.74005-51.65479-4.19818-53.53125,1.75043-107.10693,34.20447-122.79346,87.80627,0,0,50.21777-4.92078,60.20508-6.81946Z"/>
    <polygon class="h" points="498.99854 269.08544 490.62988 273.84222 500.82666 280.98992 500.82666 280.98986 500.82617 280.98809 498.99854 269.08544"/>
    <path class="h" d="M464.09619,255.13262l12.23633-6.13239s-11.13965-5.88209-14.96973-7.44441l2.7334,13.57679Z"/>
    <path class="h" d="M477.25732,252.05584s-8.96484,5.03412-11.12305,6.81586v.00018c.00879.01996.03174.04718.05566.07483.00684.0083.0083.01343.0166.02246.88965.95154,8.98584,5.65314,12.9292,7.745,1.03271.54779,1.78564.91956,2.04395.99463l-.08301-.33105-3.41016-13.60931-.4292-1.71259Z"/>
    <path class="h" d="M419.96045,220.05065c-.80225-.17004-1.67627-.36755-2.58838-.58191-4.52344,3.61029-16.56592,12.12628-18.49414,14.15601,0,0,10.10059,3.29846,14.97607,4.58844-.46143-.70892-.021-4.62988,1.13623-8.42303,1.06152-3.47968,3.11084-8.13098,4.97021-9.7395Z"/>
    <path class="h" d="M455.89502,238.781c-.55371,4.66644-2.43701,9.23523-5.37988,12.82391,4.43213,1.67401,6.13037,2.37646,10.84766,4.8866-.86426-4.47015-2.20898-11.86676-3.39014-16.69995-.72021-.32855-1.41992-.66614-2.07764-1.01056Z"/>
    <path class="h" d="M396.73389,229.9544c.57227.43036,10.91748-8.34088,15.24609-11.82007-3.73096-.95892-18.17822-6.42236-24.22266-7.30267l8.97656,19.12274Z"/>
    <polygon class="h" points="231.37891 217.70367 231.37842 217.7044 251.10449 215.66302 251.10205 215.65832 242.2915 199.31445 231.37891 217.70367"/>
    <polygon class="h" points="504.9165 267.38091 501.06738 265.27996 503.55566 272.1441 504.9165 267.38091"/>
    <path class="h" d="M476.4541,386.9168c.9541-1.65222,3.20117-7.73236,3.98633-8.26172,1.35352-.91241,8.05811-1.94281,10.64941-2.95972,29.79736-11.69427,40.45264-49.84418,22.44287-76.11298,0,0-13.39541-12.64346-13.36074-13.53744-1.51245-1.01786-2.19688-1.49314-3.24277-2.16764-6.32959-4.08325-12.26367-8.66052-18.77344-12.53064-5.50391-3.27191-23.82812-11.39612-31.7085-15.9325-1.46582,1.0343-3.07373,1.86798-4.81299,2.44043-4.01758,1.32263-9.60205,1.37189-13.60889,0-5.83984-1.99939-10.18848-7.09912-12.48877-12.96112-8.91162-2.28064-22.8291-6.64117-30.23291-8.61987-25.01465-6.68512-50.61963-10.91736-76.35742-13.80243,5.8877,9.24695,16.81689,17.14075,26.52393,22.12848,24.87939,12.78424,73.51758,13.48767,74.21973,51.68036.47266,25.71924-20.51074,24.36438-30.52344,42.34192-13.75928,24.7041,1.18555,52.00958,27.729,57.74048,4.61279.99591,6.88281-1.58704,7.51855,4.72931,1.3999,13.9093,4.3125,33.49109,9.30957,46.9364,1.40332,3.77563,6.68066,9.92017,6.26221,2.12915-.30811-5.72534-6.67773-24.71729-7.69434-31.32568-.80078-5.20581-1.13867-6.59082-2.08105-13.20361,20.89258,6.83667,44.84668,1.02124,56.24365-18.71118Z"/>
    <path class="h" d="M480.13477,38.03777c11.32129,1.5755,11.05518-17.2843-1.25684-14.78375-7.51562,1.52643-6.59619,13.69092,1.25684,14.78375Z"/>
    <path class="h" d="M211.41064,38.03777c11.32129,1.5755,11.05566-17.2843-1.25684-14.78375-7.51562,1.52643-6.5957,13.69092,1.25684,14.78375Z"/>
    <path class="h" d="M657.27979,202.34032c14.02832-8.73303,21.24414-18.9306,27.1167-34.12408,1.37451-3.55658,4.69092-12.47144,5.32861-15.80511.83496-4.36414-5.04834-2.53766-8.04346-1.87976-10.27881,2.25787-18.42383,5.99084-25.70508,13.42102-4.48096,4.57263-5.88623,7.03271-8.84619,12.92859-5.48242,10.92133-8.01416,21.28058-10.20312,33.33826,7.24561-.58673,14.22754-4.06586,20.35254-7.87891Z"/>
    <path class="h" d="M689.66943,273.48211c-31.22412,2.40369-62.80566,24.04919-79.15479,50.16431l-17.8291,29.12311c3.69336-27.09851,19.05176-49.96295,39.83398-66.99756,24.39844-19.99835,50.7832-26.8894,59.18213-61.93848,1.07715-4.49487,2.86621-18.11353,1.59668-22.01221-1.41992-4.36072-8.16846,4.29901-9.78223,5.66162-18.97559,16.02722-40.54932,24.40131-57.46094,43.92584-30.22461,34.89325-30.98633,80.04205-42.00537,123.34442l-2.91455,23.26935c-9.7041-26.25006,4.00977-53.22394,2.7417-79.97614-.55762-11.75745-3.4707-24.16284-7.86475-35.00385-12.6748-31.27142-45.21973-51.71643-39.73438-90.13568.30078-2.10767,3.67773-5.03998,5.70605-5.07056,9.07422-.13702,16.19873,26.17297,21.89404,32.99536,14.12158,16.91504,31.3418,19.12311,38.70801,42.45862.47412,1.50171.76953,3.55261,3.25879,1.80463.87354-.61346,2.146-8.67865,2.41943-10.38312,4.13672-25.79724-5.43994-51.96313-29.38574-62.99408-33.58691-15.47223-42.10254-7.17596-41.98096-8.03223l-3.40039-.68329s-2.24561-.37726-2.72363-2.03851c-5.56299-19.33081-17.40674-35.67456-36.15381-43.79901-5.74316-2.48883-18.73682-5.88385-24.76172-5.24469-6.03711.6405,16.07666,25.40399,26.27148,32.99426,13.65137,10.16412,34.53662,25.02332,34.8291,25.91742.87158,2.66614-.4375,19.06927,2.76074,28.94501,3.93115,12.13794,18.04346,31.18109,20.54932,42.14111,5.27344,23.06482-3.93799,45.53076-2.39209,68.39624,1.79492,26.55817,14.76318,45.89429,25.75146,68.83087.80615,1.68237,4.36426,11.43207,4.89453,11.78754.58057.38916,1.75391.03809,2.33545-.66846.78027-.94873,2.51807-8.50983,3.85156-11.1181,7.96143-15.57001,25.37695-23.43286,36.66504-36.14331,1.87061-2.10657,11.75977-18.56763,11.17139-18.68402-1.39355-.2757-11.19092,2.90247-13.21924,3.70746-19.00488,7.54108-32.17383,24.96558-36.76318,44.55444-1.20654-.20209-.75781-3.5376-.70215-4.44879,2.68164-43.92029,25.20361-44.91107,57.20117-61.87689,25.32471-13.42773,50.5957-48.43408,51.05469-49.14252,2.2666-3.50049-1.42627-3.86273-4.44775-3.63013Z"/>
    <path class="h" d="M460.90771,67.85021c7.23535,9.10547,27.13574,17.30176,37.29346,27.80902,10.62158,10.98712,31.20557,43.61829,36.61377,60.5094.70264,2.1955,1.24365,4.79291,1.40576,7.09998,2.37061.20386,12.06738-41.7486-13.01416-84.72778-9.38281-16.0777-28.34521-20.84015-47.23926-20.08557-1.72119.06873-12.40576-.84955-17.3418-1.28571-1.24658-.11017-2.23926,1.02203-1.96875,2.2439.4541,2.0517,1.35938,4.79755,4.25098,8.43677Z"/>
    <path class="h" d="M547.44873,168.0404c23.26465-6.479,37.43994,11.70825,53.46924,24.09265,7.87305,6.0827,16.94922,10.79633,23.90479,17.91162.9502.47601,2.28467.34601,2.92725-.49237.55811-.72772,2.22852-10.30804,2.3584-11.92847,3.19141-39.84467-32.2915-60.72607-67.12793-42.63184-2.271,1.17963-15.21729,9.91565-15.85156,11.36713-.12891.29547-.2793,1.68109.31982,1.68127Z"/>
    <path class="h" d="M158.68457,161.30523c.22754,1.08521,1.73975,1.18762,2.10889.14215.67334-1.90582,1.20654-4.28479,1.4248-4.8053,7.93555-18.91388,10.58008-16.57501,24.94531-31.79749,16.63867-17.63129,21.35889-40.36102,42.35938-54.94513,1.85059-1.28491,10.37207-5.46265,10.01709-6.98395-23.40137-11.2757-53.96777.02521-69.00635,20.12201-13.09961,17.50519-16.48242,38.77277-14.67969,60.1521.48877,5.79327,1.60352,12.26141,2.83057,18.1156Z"/>
    <path class="h" d="M37.7998,316.3601c31.93555,24.22809,63.06689,35.81104,72.79834,75.54004-21.68555-43.18341-49.47021-47.72754-50.30273-47.55103-2.76318.58582,12.92041,26.29364,16.24902,29.79291,11.2373,11.81384,26.62207,11.74719,32.68164,27.9762.90088,2.41296,1.37549,9.60083,4.03467,8.78516,1.33789-.4104,10.62207-21.82391,12.28955-25.13843,8.98682-17.86249,16.37256-29.83398,18.71875-50.68738,2.79834-24.87311-7.52979-48.83929-1.69629-73.14331,3.41748-14.23718,14.26367-23.71417,18.91064-38.24768,3.53662-11.06183,2.50732-18.21472,3.94727-28.71411,2.12842-15.51929,27.82178-23.90411,38.73438-33.39368,7.95898-6.92126,25.79004-26.59491,24.1084-29.61682,0,0-25.98828,4.7655-30.70605,7.36951-16.78613,9.26532-29.17676,26.94116-32.8833,45.71472-1.06396-.12201-4.47559-11.57941-6.11719-16.33063l-2.72217.68042c.6377,1.41132,4.68799,16.37964,4.07959,17.00775-6.91943-3.43494-12.35547-3.71759-19.87158-2.51978-33.79688,5.38605-55.1626,32.52576-52.16504,66.73816.19092,2.1817,2.30713,12.97839,3.24023,14.31824.45215.64941,5.28076-7.79218,6.07959-9.58563,7.89111-17.7049,20.52051-24.9306,32.08496-38.68225,5.81396-6.91388,13.0249-21.95209,19.79443-26.47638,3.82031-2.55316,10.64502-2.57904,11.47803,2.71851,2.42773,15.44177-5.30469,37.24017-13.81641,50.05963-3.69336,5.56207-8.6543,10.55701-12.55225,16.02698-18.03613,25.30969-23.61768,50.49182-19.76172,81.43097,2.3623,18.95276,9.51221,39.25854.23975,57.59198-.30225-7.13202-.78467-14.1651-1.89648-21.23224-4.91504-31.24438-13.38184-77.65112-28.26367-105.10455-13.8042-25.46442-35.60889-41.42627-59.71533-54.90234l-18.65234-15.75214c-1.49023-.8338-2.4165-.27753-2.71924,1.36829-1.53955,8.35779,1.41064,22.80621,4.62793,30.74878,12.37549,30.55237,41.24268,38.2774,63.42334,59.05798,10.646,9.97437,20.77148,24.04254,26.43115,37.53125,3.13721,7.47693,4.09473,14.60712,6.22705,22.35193-.51123.95428-1.28564-.91895-1.48682-1.23535-6.74658-10.62451-12.73193-22.08978-20.14307-32.25146-18.01172-24.69653-45.84961-42.98822-76.97998-44.34039-1.45312-.06311-2.61865,1.18738-2.42822,2.62891,22.02051,29.93884,20.14111,28.42114,34.70117,39.46729Z"/>
    <path class="h" d="M103.30957,148.5017c-28.29248,2.88635-43.19531,33.44281-35.05371,59.14996.67236,2.12396,1.30273,3.35126,3.44775,1.79272,6.58984-5.82532,14.49072-10.03387,21.46533-15.28619,13.41748-10.10352,27.31104-26.94922,45.4375-27.43054,3.50488-.09308,6.68164,1.42889,9.7334,1.70776,2.98047.27222,2.21777-1.18323.63525-2.71667-11.35547-11.00201-29.73193-18.84259-45.66553-17.21704Z"/>
    <path class="h" d="M25.19824,189.80956c7.47949,8.64551,12.50684,12.24762,23.13525,17.01123,3.48438,1.56165,6.86572,3.45587,10.88379,3.40161.98584-1.01166-2.24854-10.3327-2.71826-12.24744-3.23633-13.19751-5.37988-22.1778-13.71973-31.52307-7.54834-8.45813-22.15771-16.75842-33.60645-16.81848-.7627-.00403-1.55908.00116-2.05664.67981-.55371.70862-.1416,1.37091-.00879,2.09058,2.33545,12.66211,9.77197,27.78949,18.09082,37.40576Z"/>
    <path class="h" d="M377.64844,618.57574c-.00098-.00098-.00244-.00293-.00342-.00391,8.43848,15.29102,13.09033,33.07263,12.6084,38.69397,8.18604-10.22192,18.85498-18.12158,30.7417-23.33948l5.49756-14.2937c-4.6123-13.97803-8.08008-28.31372-11.40332-42.64575l-37.44092,41.58887Z"/>
    <path class="h" d="M604.94336,644.35015v-.00012c4.41699-5.78418,12.6499-14.3877,20.87891-20.28674,14.00586-10.04053,31.42236-14.51196,44.45361-25.63306,16.32129-13.92944,22.65479-34.68799,21.11182-55.83447-1.04932-14.37317-4.45068-4.01562-7.91504.98621-13.44434,19.4093-34.24854,26.30273-48.5708,43.97058-9.20312,11.35291-17.64014,29.26758-24.51562,42.50879,1.18994-11.4679,11.67676-38.19214,12.13965-39.19922,1.88428-4.09961,13.33301-22.3208,17.11035-25.79346,16.41309-15.08923,31.00049-26.71973,38.20312-42.12109,7.5332-16.10767,7.45801-34.9613,9.7085-52.4873.22656-1.76465-1.60742-3.0625-3.19971-2.26855l-.03711.01855c-9.0127,4.50366-26.03271,19.83496-31.9502,28.82837-4.47754,6.80444-8.89648,17.17236-13.33301,30.66772-.17041.5188-.33545,2.27368-1.41943.97021-.64307-.77319-1.09229-13.48975-1.44434-15.91382-5.00342-34.47754-18.90527-61.46277-45.87012-83.41565-14.20898-11.56836-27.41602-20.26111-40.50488-33.68011-.87354-.89563-3.39111-4.98212-4.62646-1.28632-.5918,1.77106.99219,11.49585,1.4458,14.00928,2.41357,13.36365,8.36523,26.4729,16.27197,37.48352,19.29395,26.86682,53.57031,38.20959,67.36182,70.77014,8.77686,20.72192-6.5459,62.29614-8.28809,66.46667l-.00684-20.74719c-3.06641-49.93152-34.08301-69.32971-62.94482-103.08521-10.08447-11.79443-19.61084-30.65466-35.05225-35.71509-7.45215-2.44214-8.41943-1.15967-10.36377,5.92981-5.29639,19.30908,10.08691,36.32605,26.02734,44.75427l-11.24268-.72998c-8.85156-.96216-1.75049,8.48816.76367,12.22656,13.73682,20.42896,36.27881,18.02173,52.34668,34.07056,38.28174,38.23608,33.67676,79.36548,32.31396,79.62695.18848-8.05981-1.50732-16.84021-3.60254-24.6427-3.79395-14.12512-12.73291-32.21423-27.84131-36.80261-7.56494-2.29761-8.62354-1.22534-8.05176,6.69556,1.61328,22.36426,23.5542,26.49658,32.12305,44.0835.06494.13318.14648.3125.2417.52979,2.62598,6.00439,3.49707,12.62646,2.62207,19.12122-.79395,5.8927-1.88232,13.24011-2.79248,16.75085-2.31836,8.94202-8.6665,23.82373-16.27393,33.3761-.87988,1.10486-1.37646,3.11121-2.96582,2.80566,7.00977-13.15686,12.98145-33.69836,10.67969-51.36121-1.36719-10.49194-15.43457-13.04419-20.51465-3.76294-1.69141,3.09033-1.7627,6.7876-.27881,9.98303,7.38428,15.90515,1.61816,39.29285-6.54834,54.0033-16.92139,30.48169-56.67871,53.81909-90.14893,60.91101-4.90332,1.03894-12.29932,1.13733-16.56738,2.48547-.01367.00427-.02734.00867-.04053.01306-1.40479.46521-1.01074,2.56567.46875,2.58801,6.33398.09546,12.71484.87244,18.83984,2.37305,13.73389,3.3645,25.95801,12.3147,40.12061,14.99585,20.68701,3.91638,43.36182-2.0238,57.53174-18.0459,1.25342-1.41724,6.49756-7.03247,3.28467-8.06958l-77.11914-.0979c25.38672-8.23364,45.7749-26.54431,68.09863-40.43689,20.20654-12.5752,42.41211-22.74475,66.37061-25.48999,8.3291-.95447,17.06201-.1261,25.11816-2.7804,22.08594-7.27649,16.99609-36.04443-7.42627-34.63855-31.13672,1.79236-52.07178,39.96521-78.34424,52.96985l13.55859-16.37402c3.42578-5.38928,7.6582-12.41345,10.60547-16.27295v.00024c0-.00024,0-.00049.00049-.00073Z"/>
    <path class="h" d="M469.85107,753.24236c-13.33008-12.87-40.71484-17.59277-58.15674-16.35022-.96924.06909-2.64697.53174-4.08252.68054,6.29297-3.66797,17.08691-9.43054,22.84912-14.1405,22.08252-18.05127,29.43994-45.28357,45.77588-66.79749-1.64893-30.27258-1.04834-64.83472,5.32812-94.49402,3.50586-16.30664,11.33496-39.19153,22.32275-51.84631,6.18164-7.11951,6.58643-7.81897,15.30908-4.40613,10.34277,4.047,20.44043,11.68579,27.11133,20.5199,16.03076,21.22815,18.47168,53.40479,16.60303,81.77771,2.17871-.01709,3.87646.13953,4.55322.5769.29004.1875.44238.38635.51953.59961.06787-6.22974.45068-33.31421.20801-35.43201-2.21973-19.40527-6.66406-36.37756-18.77148-51.99438-23.27002-30.01477-62.64746-25.45081-92.75879-44.01282-2.29199-1.41284-18.67432-14.52075-19.49951-14.60889-1.59814-.17065-3.19531,1.55347-2.91846,2.99902.8457,4.41113,29.06738,21.63953,34.04785,23.6908-2.42188,3.04419-4.64648,5.25842-7.27246,8.04163-18.62891,19.74292-35.65479,43.90942-53.73779,64.66089-12.59424,14.45386-25.87842,28.33179-38.85352,42.43652,1.67871,1.90942,3.27588,3.99316,4.78516,6.19849,19.05664-19.97083,54.57324-61.43811,54.66504-61.54443,12.48047-14.49048,49.01709-57.68103,49.01709-57.68103,3.31934.87927,4.26758,1.67249,7.38818,2.02588.70654.56897-33.60498,39.91479-44.36719,52.23962,1.59424,5.32361,5.33203,26.27881,6.81836,31.96228,12.52295-23.16736,26.87695-47.38708,49.14355-80.27087,0,0,4.10986,1.10742,7.67871,2.02869,0,0-35.58008,54.62927-42.50635,68.66101-1.10596,2.24072-22.67627,47.3031-30.08984,61.50562,8.7168-2.60669,17.86133-3.85596,27.00586-3.60608-.59814,2.50989-.3457,5.31055-.71777,7.78577-2.53564,16.86768-4.17822,33.604-10.5249,50.0354-9.74121,25.22046-27.13916,46.70142-52.7207,55.13062,1.50488-.32642,3.21289-.63477,4.97852-.91528-1.76562.28052-3.47363.58887-4.97852.91528-2.63086.86682-6.94922,1.87109-11.60303,2.8396-5.9013,1.01021-20.23926,3.81152-20.23926,3.81152,31.38281,4.46655,76.91162,28.96973,107.53906,10.8689,2.75928-1.63062,2.10791-2.00244.15137-3.89172Z"/>
    <path class="h" d="M302.14307,739.61431l-.00098-.00024c-25.15332-8.28149-42.87842-28.57837-53.65869-52.83203-8.30029-18.6731-10.5752-38.30298-11.49512-58.57947.01025-2.25598,2.53613-2.29224,4.22217-2.24207,6.15771.18347,13.48389,1.54456,20.58789,3.54028-2.17773-6.98706-5.10254-17.72583-5.59473-19.84485-2.03516-8.75842-2.60693-16.68958-3.81934-25.44006-.11816-.85437-.33398-3.97046-.33398-3.97046,0,0-1.42822,1.64941-1.93457,2.20898-7.75098,8.56384-15.81836,16.78333-23.3667,25.62964l-1.52637,22.97021c.11328,7.22021.41943,25.28723.85498,36.48804.00146.00244.00342.005.00488.00757,1.81885,2.66675,3.56152,5.3772,5.26367,8.11035,3.40479,5.46619,6.64893,11.02319,10.0249,16.50195.46777.75928.93945,1.51611,1.4126,2.27197.55176.88037,1.10693,1.75903,1.66895,2.63354.34814.54163.69824,1.08203,1.05127,1.62097,7.05469,10.77893,15.10205,20.9762,26.47314,29.24268,3.33398,2.42371,13.58924,7.91481,13.55603,8.46071h0q.26221-.01477,0,0c-18.25049,1.03052-33.05018.89488-49.85193,10.5902-1.90674,1.10034-11.94629,7.37646-10.40137,9.60986.62305.90039,12.9126,4.6842,14.93457,5.14319,35.71484,8.10718,63.39941-11.44739,94.9751-15.30969l-25.2417-4.7019c-3.11572-.74292-5.87695-1.47461-7.80469-2.10938Z"/>
    <path class="h" d="M442.19141,588.03204v-.0022c.06494-.58374-.50537-3.52332-1.37158-7.45532-.97803-4.43945-2.33252-10.14124-3.5874-15.18848-1.12793-4.53857-2.17188-8.53381-2.7832-10.58276-.11572-.3877-.21777-.71387-.2998-.95239-.58154.83838-13.63232,16.74719-13.66943,17.34009-.13086,2.07837,10.62402,38.71362,10.85791,38.53723,4.25098-8.86365,10.85107-21.69226,10.85352-21.69617Z"/>
    <path class="h" d="M281.74658,496.37115c2.35352-1.98682,17.37793-2.60901,19.83252-4.38354.52686-.38098,1.2749-4.65405,1.09912-4.82849-18.74463,5.28064-45.64014,7.58215-64.49902,12.25574-1.70215.42188-2.76465.9917-4.08252,1.36084-5.30566,1.48608-9.35986,2.18481-14.74805,4.6449-35.88135,16.38367-42.73828,53.66968-48.84668,88.60022-1.82031,10.40894-4.84335,20.5848-6.41611,31.02987.1792.03674,1.66904.33231,1.88925.38664.66016.16333,1.45996.38477,2.11816.54126v.00012l11.04199-49.65417,2.76025-12.41357c.68311-2.50305,1.40381-4.94971,2.17139-7.33704,1.2793-3.97864,2.68896-7.79211,4.27246-11.42566.62451-1.43262,1.27588-2.83716,1.95752-4.21265,4.76953-9.62915,10.99805-17.83984,19.59033-24.32898,1.3877-1.04797,2.83057-2.05566,4.3457-3.01233,1.35986-.85864,2.77246-1.67981,4.24072-2.46289,2.93604-1.56592,6.09521-2.979,9.49902-4.23169.56982-.20972,1.06152-.57788,1.36084-.68042.67578-.23145,2.46289-.7439,3.72998-1.08862.26562-.07227.49365-.13281.69873-.18616.12109-.03162.24316-.06348.33447-.08606.19971-.04956.4209-.06665.65039-.07495.06299-.0022.12695-.00562.19189-.0061.18896-.00146.38281.00098.58301.00513.02295.00049.04395.00012.06689.00049.00684.00024.01318.00012.02002.00024-8.27002,15.98743-34.33545,66.03394-47.10254,128.68042,8.35596,4.07007,15.23145,8.99304,21.12793,14.47974.03418.03223.06934.06421.104.09644,3.52393,3.28955,6.69531,6.78174,9.62451,10.41309-.2334-11.85645-.29492-28.69397-.26367-30.80127.15479-10.56689-.00732-65.60156,28.2041-125.6936l6.29883-.78149c-2.52881,5.19531-4.54785,10.25586-5.60938,13.14941-5.02246,13.69067-12.21631,31.53491-14.27002,45.7644-.11279.78198-.24658,1.40234-.39648,2.94824l20.02246-18.71875s10.30615-41.87817,13.35693-45.58008c0,0,5.41016-.96692,6.80469-.96558-4.27588,9.87769-10.53857,33.23633-12.94287,43.47119-7.36377,31.35376-1.34424,60.52148,8.77686,90.64453,3.74854,1.32532,7.28076,2.78442,10.34277,4.29553-13.69678-37.68567-17.14243-76.39319-6.56772-115.6333l8.62729-24.18103Z"/>
    <path class="h" d="M376.37207,303.04546c-2.00781-2.50769-7.11768,1.18945-9.5752,2.12311-1.21338.46094-2.7666,1.0589-3.68701,1.38599-11.36377,4.0376-18.43994,5.02875-30.19238,1.1582-5.19141-1.70959-14.23975-8.78906-18.89355-4.29761-4.38525,4.23181,5.49609,3.80371,6.29102,6.95673.63916,1.81714-5.64355,5.60645-2.29492,7.69379,2.20996,1.3775,8.49121-6.23132,10.5708-2.96191,1.02393,1.61017-3.72412,8.37158-.24072,9.43207,3.1875.97046,5.26172-6.41656,5.85498-6.75171,1.97168-1.11334,5.83105.58179,6.06348,1.64526.85596,3.92041,2.21094,9.50574,4.73975,8.85059,2.25049-.58319,2.479-5.90808,1.88818-8.5083-.146-.64301,3.34521-1.75476,6.28711-.33624,1.40332.67651,4.25293,7.53632,7.04443,7.08038,4.4043-.71942-1.34717-8.47101.42871-9.78918,5.76758-4.28094,6.09814,2.68713,10.82471,3.48438,1.43115.24139,2.6377-.9483,2.22412-2.36206-.69922-2.3894-4.4502-4.09528-4.10938-5.80975.44434-2.2381,10.02783-4.93256,6.77588-8.99371Z"/>
    <path class="h" d="M388.35791,279.48241c-.37158-.47485-.72217-.90515-.92383-1.10968-5.68457-5.75269-23.0791-13.66357-31.01807-15.93335-13.80859-3.94812-33.86963-4.87061-46.06494,3.9646-4.18115,3.02899-6.7749,9.63263.28711,9.71338,3.22363.03693,16.63867-4.66534,22.34131-5.34564,11.05908-1.31934,25.8667,1.91382,54.53809,9.91833.72949.20367,1.30664-.61108.84033-1.20764Z"/>
    <path class="h" d="M213.68311,203.41857c1.17757.05105,11.71191,14.0108,11.71191,14.0108.55664.48804,11.05566-17.24658,14.0127-20.55219.10449-.1167.20166-.21912.28613-.2984-.78955.10809-1.54199.20831-2.27441.30432-2.75049.36072-5.11816.64313-7.28662.89557-4.94482.5755-8.85986.99805-13.89307,1.84399l-1.57324.27185s-.78271,2.61127-.9834,3.52405Z"/>
    <path class="h" d="M210.28076,221.79064l8.02881-1.88129,2.5-.58588s-1.26172-1.47351-2.9043-3.37732c-1.78027-2.06342-4.00879-4.633-5.58301-6.4035-.74658,4.06207-1.37451,8.17291-2.0415,12.24799Z"/>
    <path class="h" d="M290.9585,358.00408c1.7251.17584,5.81689,2.177,6.41602.20856.94922-3.12146-4.3584-5.76025-6.42773-5.5304-2.20312.24481-4.44824,1.25287-5.1084,3.52588-.90137,3.10126,4.08789,1.6908,5.12012,1.79596Z"/>
    <path class="h" d="M343.66699,199.33886l-.01074-.00275v.00012c.00195.00262,12.87793,20.08838,14.11426,23.81213.01807.05487.04248.11847.05566.16608l.25781.04926,5.95068,1.13599.27441.05237c.03418-.03497.0752-.07397.11133-.1098,3.521-3.51923,13.74951-11.22772,17.44727-13.98425.84863-.63245,1.35498-1.00562,1.35498-1.00562l-.70264-.17969-38.85303-9.93384Z"/>
    <path class="h" d="M369.50977,226.54986v.00037l24.48926,6.12451-8.85156-19.04761c-1.04785-.29077-15.89307,11.78662-15.6377,12.92273Z"/>
    <path class="h" d="M317.11182,195.94054l11.90771,18.35229v-.00012l10.39795-14.81458.35693-.50854s-.56934-.06378-1.53467-.17511c-4.22021-.48663-16.02832-1.88385-21.12793-2.85394Z"/>
    <polygon class="h" points="244.31299 195.93749 244.30518 195.93829 253.49756 211.57934 253.49756 211.57922 253.49902 211.57739 266.85303 193.75005 264.67139 193.96178 244.31299 195.93749"/>
    <path class="h" d="M318.51221,217.65649c1.89697.18195,3.8125.35352,5.30859.48425,1.67041.14594,2.81738.24084,2.81738.24084.35938-.47363-3.94531-6.58289-4.48438-7.54993-1.88379-3.37933-9.43115-14.74133-9.43115-14.74133,2.48291,6.51721,2.01709,14.8103-.35156,20.89868,1.43604.19757,3.77148.44031,6.14111.66748Z"/>
    <path class="h" d="M480.42725,251.05035c-.00049-.00006-.00049-.00012-.00049-.00018l5.44775,19.72754v-.00006l12.68909-6.49763.25684-.11499s-.24658-.17761-.67822-.48822c-2.88721-2.07635-13.3888-9.80962-17.71497-12.62646Z"/>
    <path class="h" d="M230.01416,581.74932c-.14551.76123-.30762,1.72314-.47461,2.78589-.0918.58301-.18408,1.19702-.27686,1.82959-.04199.28857-.08496.57715-.12598.86572-.646,4.52222-1.23926,9.57971-1.15723,10.16895,7.82861-8.27295,15.94043-16.76172,23.11475-25.53052.26465-5.6958.88281-11.39478,1.30566-17.0741.0332-.44629.07422-.91956.10986-1.31628.04639-.50879.0835-.88818.0835-.88818l-.54932.55164-20.00635,20.08398c-1.21484,2.67749-1.47998,5.68127-2.02344,8.52332Z"/>
    <path class="h" d="M134.74756,711.03155c1.37109-1.37549-3.80713-4.86267-4.83008-5.70984-18.69971-15.4812-57.14648-34.85815-76.04053-9.49695-6.0498,8.12085-1.98926,22.64941,8.05518,25.76794,14.17383,4.40063,22.9751-5.72644,34.72559-10.2052,12.62451-4.81177,25.28223-3.59399,38.08984-.35596Z"/>
    <path class="h" d="M232.9124,735.98111c.71264-.29885.69258-1.45445.10616-1.87181-1.04004-.73975-14.87939-2.474-17.8501-3.12524-7.76562-1.70227-16.59961-4.04041-23.93994-7.02039-5.0376-2.04517-10.80762-4.92554-15.65039-7.48499-32.69971-17.28174-77.2793-62.70068-49.27783-101.33215,1.8584-2.56348,4.80518-5.06689,6.56494-7.72437,13.60547-20.54346-11.97266-35.4519-27.65479-14.72656-11.54443,15.25684-8.62158,36.71472-2.62549,53.54102,1.90967,5.35815,6.30225,15.80249,6.30225,15.80249,0,0-11.23926-15.66724-19.19336-42.60974-7.07129-23.953,7.63281-56.64465,25.31445-72.73279,16.59473-15.09985,30.79492-14.073,47.88086-24.92236,9.87354-6.26929,24.32227-21.24146,24.20801-24.15161-.15381-3.91968-13.89111-5.12939-16.6167-5.00024-26.65674,1.26477-49.0708,24.50183-62.82275,45.36279-2.7124,4.11462-4.63281,8.57324-7.60303,12.46338,2.74756-8.44775,7.5-17.97742,12.12451-25.63354,11.67529-19.32935,24.19141-26.59692,39.94141-41.03259,14.0625-12.88953,28.91504-31.28601,24.5127-51.76685-2.36133-10.98389-10.57129-13.13782-18.84717-6.14941-22.05615,18.62488-55.3125,108.34753-56.97559,112.07629-5.8252,13.05786-11.40186,26.34058-14.37939,40.40051-1.24854-.2074-.72852-3.48352-.66602-4.41284,1.86377-27.62329,23.61426-55.9917,16.78906-82.15344-.2168-.8302-.07373-2.13464-1.47266-1.896-5.22217.89087-14.6167,12.15698-17.23047,16.81274-12.47607,22.22339-3.54932,42.30847-2.18213,65.19604.32373,5.41309.45508,20.03833-.67383,20.74707-1.59814-5.41309-14.02002-66.70654-11.57715-79.78186,6.14355-32.87732,43.97412-43.44873,62.76123-70.11023,9.95703-14.13013,15.75928-32.14746,15.49707-49.47687-1.05811-.19623-1.57617.10388-2.41113.64496-3.82715,2.48004-9.9165,10.43311-13.90674,13.99133-13.9751,12.46179-30.68555,21.58008-43.22803,35.70435-20.92139,23.55969-28.41602,53.36108-28.9165,84.38208,0,0-10.99805-22.53284-16.18652-29.02075-4.15625-5.19727-11.26074-10.08618-20.60986-16.84717-2.04932-1.48193-14.06055-10.05994-15.58789-8.56116,3.99512,19.03821,5.54932,37.13989,14.96631,54.4325,3.25293,5.97278,6.81641,11.73987,11.55176,16.68726,12.63379,13.20007,28.75781,19.22485,37.63379,36.67944,2.8335,5.57178,7.22363,18.34949,8.84619,24.49634,1.57764,5.97766,6.59961,23.35999,7.2915,25.56555-9.82959-15.3175-15.67432-32.80298-27.9165-46.59253-13.5708-15.28601-32.44922-22.18518-44.76611-39.61023-1.15137-1.62891-5.07764-9.13855-5.54199-9.42737-1.36719-.85071-1.95215-.33704-2.59473.86145-1.79932,3.35425,10.07324,57.44556,32.73096,70.38892,24.11572,13.77612,35.6582,15.45105,53.53223,39.34961,3.74219,5.00366,16.93164,22.4552,19.4248,25.82483,3.50586,4.73743-1.61523,1.69934-3.71387.31189-22.16211-14.65234-49.3916-55.03735-79.01514-47.59302-14.63916,3.67871-18.08545,20.77869-6.11816,29.97852,9.2583,7.11768,28.97803,5.76465,40.98389,8.0083,23.09863,4.31714,44.42725,15.25098,63.91113,27.94995,7.99902,5.21362,55.37012,33.81445,61.15137,37.17383-25.91602-.99854-51.63232.27588-77.56934.00342-1.48828,1.43872,6.43359,9.6405,7.80469,10.9021,9.63574,8.86743,23.68359,14.7417,36.77148,15.62329,26.07227,1.75647,44.77588-16.10706,70.08496-18.35645,1.32031-.11719,6.3043-.0996,6.63359-.23769Z"/>
    <path class="h" d="M136.83936,548.11419c-11.90723,7.96729-2.60938,27.25256,12.69629,19.5321.2041-.10303,3.19141-2.96436,3.3125-3.15869,7.29102-11.7356-5.40332-23.46973-16.00879-16.37341Z"/>
    <path class="h" d="M666.86377,397.34716c.1084.36145.22314.73743.3374,1.12323-.11426-.3858-.229-.76184-.3374-1.12329v.00006Z"/>
    <path class="h" d="M274.99219,387.40252c2.46338,2.67725,15.95703,4.3999,20.01953.79651.30811-.27325.12549-.78094-.28613-.78094h-8.0293c-3.07373,0-6.12695-.44897-9.08838-1.27216-2.37012-.65881-4.62549-.92834-2.61572,1.25659Z"/>
    <path class="h" d="M368.39355,668.85101c-.13867-1.67444-.34668-3.35413-.61865-5.03857-.4873-3.01868-1.19238-6.05322-2.15967-9.10608-.39795-1.25659-.90332-2.60791-1.49316-4.00842-.19678-.4668-.40283-.93909-.61768-1.41516-2.38379-5.28845-5.82422-11.03589-9.17529-14.92651-.26855-.31165-.53662-.61597-.80322-.90259-.71289-.76587-1.31543-1.45276-1.85254-2.0332-.1792-.19336-.35107-.375-.51709-.54382-.00586-.00598-.01123-.01062-.01709-.01648-.29834-.30176-.57812-.55713-.85059-.7699-.07715-.06018-.15381-.11243-.22998-.16492-.39746-.27393-.78467-.45081-1.19092-.49097-.19043-.0188-.38867.0011-.59131.04004-.28467.05457-.58203.1571-.90625.33484-.18506.10144-.37793.22375-.58008.36804-.60791.43286-1.30127,1.06323-2.12646,1.91846-4.53076,4.69507-8.67285,11.21948-11.6709,17.94653-.59961,1.34546-1.15332,2.69897-1.65527,4.04761-.50195,1.34851-.95215,2.69238-1.34473,4.01807-.1958.66284-.37744,1.32129-.54395,1.97363-.1665.65222-.31787,1.29834-.45312,1.93689-3.41895,16.13684.21191,32.39331,5.5376,47.92615,1.95801,5.71069,4.14307,11.32446,6.29443,16.79736,2.27979-1.38525,4.94629-2.19751,7.80908-2.19751,2.82617,0,5.46094.79175,7.72168,2.14429.09961-.29297.19824-.58557.29834-.87866.42139-1.23572.8457-2.47266,1.27002-3.71021.59961-1.74963,1.19971-3.50098,1.79248-5.25488,5.3125-15.72131,10.03076-31.62964,8.67432-47.99402Z"/>
    <path class="h" d="M337.63135,727.36187c-.84473-1.82361-1.70703-3.65845-2.58936-5.49646-2.92529-6.08997-6.0835-12.21033-9.59082-18.07288-1.25586-2.09937-2.55176-4.16919-3.90479-6.18774-1.71045-2.55176-3.50293-5.02832-5.38965-7.40186-10.68945-13.4502-24.39648-23.59717-43.27344-25.44092.229,8.21338,1.78369,16.35986,4.4458,24.14844.45654,1.33447.9458,2.65747,1.4668,3.96924,1.20996,3.0459,2.59229,6.02417,4.13477,8.91992,1.46826,2.75562,3.0791,5.43433,4.82764,8.02063.89844,1.3291,1.83105,2.63391,2.79932,3.91174,2.20557,2.9104,4.57959,5.68933,7.12402,8.2959,1.71094,1.75293,3.50146,3.42322,5.35303,5.01904,2.76514,2.38281,5.68408,4.57495,8.73486,6.56335,1.15039.74963,2.31787,1.47107,3.50537,2.15955,1.25928.72974,2.53125,1.4375,3.83008,2.09521,1.34375.68018,2.71533,1.30542,4.09912,1.90479,1.68701.73071,3.39551,1.41528,5.13867,2.01965,1.87939.65173,3.79541,1.21484,5.73486,1.7113-.3291-1.23877-.52148-2.53333-.52148-3.87573,0-4.29956,1.80859-8.16931,4.69531-10.9165-.20654-.44897-.41113-.89624-.62012-1.34668Z"/>
    <path class="h" d="M382.99756,734.61858c.47998-.30579.95703-.61584,1.43018-.93103,1.82129-1.21301,3.59863-2.48926,5.32031-3.83691,2.57666-2.0166,5.03857-4.17908,7.37646-6.47241,1.16846-1.14673,2.30664-2.32617,3.41162-3.5365,1.10547-1.21033,2.17871-2.45154,3.21826-3.72156.52002-.63513,1.03125-1.27747,1.53418-1.92676,2.51416-3.24683,4.81494-6.66895,6.88281-10.2373.82715-1.42725,1.61719-2.87793,2.36865-4.35022,1.12695-2.20837,2.16748-4.46521,3.11719-6.76416.08545-.20691.18848-.48132.30615-.81506.11768-.33362.25-.72632.39453-1.1698.07178-.22168.14697-.45605.2251-.70203,2.10059-6.63989,6.12988-21.72412,5.29004-24.26562-.28613-.8667-.9082-1.099-1.60645-1.13367-.41895-.02075-.86572.02966-1.28369.05688-5.94092.38721-13.65527,3.70703-20.36084,7.64587-4.02295,2.36328-7.68311,4.94946-10.37939,7.25854-.98438.84314-1.93701,1.70789-2.85986,2.59253-.00977.00952-.01904.01941-.02881.02881-1.83496,1.76074-3.55469,3.6001-5.17676,5.50586-.81543.95801-1.60645,1.93286-2.37598,2.92261-1.53809,1.97949-2.98877,4.01929-4.37158,6.10645-1.3833,2.08704-2.69873,4.22131-3.96631,6.38965-.85742,1.46729-1.68799,2.95422-2.5083,4.44861-1.39746,2.54651-2.75391,5.12415-4.09131,7.71802-.49512.95935-.98926,1.91968-1.48145,2.88171-1.66846,3.26001-3.33691,6.52637-5.05469,9.7666,3.29248,2.76636,5.38916,6.9104,5.38916,11.54736,0,1.46729-.21973,2.88135-.61084,4.22241,7.0835-2.18311,13.74902-5.31421,19.8916-9.22888Z"/>
    <path class="h" d="M269.06152,304.72186c2.76855-2.01453,1.28174-5.6488-3.31396-4.60999-1.85742.41974-4.99512,2.09509-7.01025,2.45685-9.34229,1.67676-15.79053.95264-20.49805-2.25385-2.74365-1.86896-5.79248-6.63837-8.36865-7.60352-5.46582-2.04761-1.0376,6.84741-1.52832,7.99487-.30469.71185-2.58105,2.40521-4.50781,3.41943-.73828.38867-1.18848,1.16003-1.15967,1.9939.0376,1.07782.85693,1.9848,1.93066,2.08618.52246.04938,1.06445.06244,1.64697.02185,2.44629-.17035,4.73584-2.55487,6.16504-1.42395,3.14014,2.48444-4.97119,5.92462-2.6792,8.89642.37988.49249,1.01904.68585,1.62109.52966,3.2666-.84747,6.79053-6.27795,9.58594-4.32343,2.354,1.64569-3.10498,9.23328,1.65771,9.24976,2.86279.00989,5.10303-7.81964,6.30029-8.17242,4.88281-1.43933,5.6626,6.08124,8.14697,5.29633,3.74707-1.1839,1.05566-6.0354.85205-7.7005-.18555-1.51788,8.9834-4.27411,11.15918-5.8576Z"/>
    <path class="h" d="M271.94971,272.05639c-8.56152-10.89337-30.00684-16.24219-39.38232-14.90289-5.79297.82758-10.60352,3.47681-11.97021,4.4184-.59668.41107-.84912,1.16345-.62256,1.85162.2666.80945,1.10742,1.26007,1.93848,1.07098,14.48682-3.29639,31.67969,1.39502,43.02783,10.48798,13.57422,10.87701,9.44141,34.72253,6.38086,49.69666-1.56934,7.67621-5.34131,16.94788-6.43896,24.17572-.78857,5.19678-.01416,6.41315,4.37695,8.90631,1.38379.78571,8.08008,4.08362,12.33057,4.82666,2.12646.37177,3.33008-2.31531,1.68408-3.71204-2.63428-2.23535-7.37598-3.81842-10.38672-5.47992-1.77002-.97687-2.85791-3.04974-2.24609-4.97675,12.06396-38.00122,15.08838-58.8288,1.30811-76.36273Z"/>
    <path class="h" d="M326.69531,443.33501c14.54102-11.99707,37.29834-21.13867,51.58838-35.49329.85645-.86072-.271-2.21777-1.271-1.52832-4.75586,3.27966-10.56543,7.17981-11.77539,7.51819-21.4502,12.62573-58.76416,31.50415-83.49756,21.26917-17.83691-7.38123-38.41748-44.28979-46.28223-61.5694-6.83154-15.01001-13.34326-42.3172-13.52588-43.97491-.80713-7.32513-3.41504-64.15106-3.41504-64.15106l-.06689-2.79102.79004-11.45526c6.02197-2.52948,12.41797-2.85803,18.78125-4.69061,9.4624-2.72522,18.46777-7.74945,25.69336-14.45276,3.0835-2.86053,5.69824-5.89398,7.80713-9.54456-1.48438-.30396-3.11133-.51819-4.83008-.66101-1.16895-.09717-2.38086-.16046-3.61914-.19739-1.18799-.0354-2.39941-.04645-3.62207-.03687h-.00439c-5.62207.04431-11.46387.51013-16.15771.90057-4.23047.35193-8.47461.86249-12.70898,1.49152-2.82324.41937-5.6416.89148-8.44873,1.40424-4.21045.76923-8.39502,1.63013-12.52979,2.54254-4.021,21.53644-16.34668,18.18579-28.24707,31.97314-14.45703,16.74969-16.37842,38.04419-4.04932,56.45978,2.64453,3.95032,12.05615,9.05798,11.94629,12.63385-.04492,1.46411-1.34033,1.06012-2.10059,1.99707-6.43701,7.93054-11.02295,12.21765-11.82031,22.36053-.88965,11.31134.20996,18.5708,6.49902,27.89087,11.13818,16.5069,31.67871,24.54626,51.23682,22.91089,2.5708-.21497,11.01172-2.74231,12.46533-1.88928,10.24805,14.39075,22.60693,36.16077,41.06836,40.23792,10.55713,2.33154,19.35107.33679,29.80371-.88074,1.06885,8.16248,2.45605,16.2854,3.43066,24.46387.34473,2.89441.9375,6.0531,1.2124,9.16418.0918,1.03711.14795,2.06885.14844,3.08386v.00012c.00049,2.06274-1.53125,13.48157-.67725,14.29321.55713-.09229,1.84424.14624,2.02637-.00366.38916-.32068,1.93799-8.70337,2.04248-9.87744.91943-10.30603-.9917-20.40747-1.37451-30.57825-.18848-4.99988-.33496-5.6687,3.48389-8.8197Z"/>
    <path class="h" d="M637.9585,691.2879c-20.97949-18.61377-58.06348.62537-74.88037,17.00854-.79395.77344-1.89355,1.46338-1.68115,2.73486,9.02881-1.88135,17.42871-3.57251,26.79199-2.63538,13.77539,1.37878,24.47705,12.97351,36.9082,14.12036,19.12109,1.76404,27.06543-18.6261,12.86133-31.22839Z"/>
    <path class="h" d="M567.97607,610.63482c.04004-.4834.1416-.90039.00781-1.27246-.00977.86597-.01318,1.33569-.00781,1.27246Z"/>
    <path class="h" d="M62.56738,111.9884c2.44287,0,4.62646-1.09802,6.09375-2.82373.354-.10986.7002-.21661,1.02539-.3114,4.74902,2.57062,17.58203,5.01288,21.35205,6.0014,0,0-.33301,6.27588,5.78174,10.68964,4.24072,3.06085,15.26855,5.71381,20.69922,8.34802,8.82422,4.28003,17.2666,8.53424,25.03613,14.43005l7.84229,6.7804c-2.70898-8.0033-5.08105-16.00769-6.60303-24.35046-1.88672-10.34247-4.09277-36.2677-9.79102-43.96442-1.3501-1.82361-2.23975-2.64258-4.71289-4.18475l1.38916-19.68591c.01465-.0802.0542-.14893.07617-.22589,3.1748-1.06055,5.46631-4.052,5.46631-7.5838,0-4.41827-3.58154-8-8-8-4.41797,0-8,3.58173-8,8,0,3.37964,2.09912,6.26349,5.06152,7.43555-.02637,6.33673-1.2168,18.73688-1.2168,18.73688-2.04688-.34058-2.81006-.37933-6.97998.30817l-6.66895-25.62622c.09326-.14001.16309-.27356.24951-.41162,1.89355-1.46307,3.11816-3.74982,3.11816-6.32782,0-4.41827-3.58203-8-8-8-4.41846,0-8,3.58173-8,8,0,4.17786,3.20361,7.60315,7.2876,7.96405.104.1286.19971.26465.27344.4198.8252,1.73236,6.78809,22.36688,7.01367,24.53571,0,0-4.09229.39081-7.44824,2.09198,0,0-11.52686-15.61304-12.66064-18.97626-.04102-.12158-.06836-.25061-.10205-.37628.82861-1.26025,1.31445-2.7663,1.31445-4.38733,0-4.41827-3.58203-8-8-8-4.41846,0-8,3.58173-8,8s3.58154,8,8,8c.9043,0,1.77002-.15704,2.58057-.43359l12.04004,19.94354s-2.66699,3.40228-4.13232,7.89984c0,0-16.38965-11.64722-20.54688-13.70544.07861-.44995.12744-.9101.12744-1.38251,0-4.41827-3.58203-8-8-8-4.41846,0-8,3.58173-8,8s3.58154,8,8,8c2.05957,0,3.93164-.7851,5.34961-2.06396l20.12158,14.19458c-.91553,2.17651-2.1377,6.52875-1.80664,7.89258l-20.65186-5.28101c-.2251-4.21692-3.70557-7.56976-7.97852-7.56976-4.41797,0-8,3.58173-8,8s3.58203,8,8,8Z"/>
    <path class="h" d="M600.79932,124.08538c4.11182-2.70807,3.9165-8.36993,5.5249-9.44507l20.81445-5.78693c.01416-.00098.02686.00098.04102.00012,1.42822,2.18597,3.89209,3.63336,6.69824,3.63336,4.41846,0,8-3.58173,8-8s-3.58154-8-8-8c-4.13037,0-7.52832,3.13098-7.95361,7.14893l-20.29785,5.20178c.28271-2.56049.18945-4.40533-.74609-7.85992l19.32227-14.10822c.09131-.0365.18848-.05688.28369-.0835,1.40625,1.22754,3.24072,1.97675,5.25342,1.97675,4.41846,0,8-3.58173,8-8s-3.58154-8-8-8c-4.41797,0-8,3.58173-8,8,0,.43005.04395.84894.10938,1.26062l-19.59814,13.62677c-1.04883-4.02124-2.16602-4.4046-5.82324-7.87164l12.75-20.2998c.03271-.00092.06152-.00574.09424-.0069.55127.12012,1.12207.1875,1.70947.1875,4.41846,0,8-3.58167,8-8s-3.58154-8-8-8-8,3.58173-8,8c0,1.89453.66211,3.63251,1.7627,5.00299-.04395.19928-.0957.39783-.16846.59467l-12.31445,19.90948c-3.62793-2.19879-3.85449-2.27722-7.25879-2.95526l6.47266-23.92725c.03125-.05988.06836-.10852.10107-.16492,4.20459-.23816,7.54297-3.71295,7.54297-7.97693,0-4.41827-3.58154-8-8-8-4.41797,0-8,3.58173-8,8,0,2.58105,1.22754,4.87012,3.125,6.33295l-6.93457,25.16779c-3.38574-.3858-6.34424.65222-6.34424.65222l-1.42725-18.73138c-.09766-.47607-.08057-.88434.00732-1.25159,2.68311-1.29138,4.53955-4.02753,4.53955-7.20447,0-4.41827-3.58203-8-8-8-4.41846,0-8,3.58173-8,8,0,4.04633,3.00684,7.3822,6.90625,7.91663.59082,4.00403,1.16211,18.37933.5542,20.86322-.09424.38464-4.68652,2.91211-6.15039,4.87628-5.83691,7.83026-6.81299,33.78735-9.0459,44.71002-1.44824,7.08496-4.09766,13.80725-5.24121,20.94891l10.01123-9.03918c12.88135-12.00995,29.9375-12.24683,43.68018-21.29803Z"/>
  </g>
  <path class="g" d="M446.52984,459.31451c0-6.47949-5.25293-11.73218-11.73242-11.73218s-11.73193,5.25269-11.73193,11.73218c0,3.08569,1.2002,5.88464,3.14844,7.97913-.53223-.07385-1.07129-.12512-1.62354-.12512-6.47949,0-11.73193,5.25269-11.73193,11.73218,0,3.46826,1.51416,6.57544,3.90674,8.72327-1.02148-.29016-2.09521-.45544-3.20898-.45544-6.47949,0-11.73242,5.25269-11.73242,11.73218,0,2.8479,1.01611,5.45776,2.7041,7.48999-.86963-.20557-1.77197-.32568-2.7041-.32568-6.47949,0-11.73193,5.25269-11.73193,11.73218,0,1.39722.25684,2.7312.70508,3.97388-.58643-.09985-1.18555-.16333-1.80078-.16333-5.89404,0-10.67188,4.77808-10.67188,10.67224,0,1.3822.271,2.69861.74951,3.91089-.45508-.0592-.9165-.10034-1.3877-.10034-5.89404,0-10.67236,4.77808-10.67236,10.67224,0,1.54224.33398,3.00415.92236,4.32812-1.40234-.67822-2.97021-1.06934-4.63281-1.06934-5.89404,0-10.67188,4.77808-10.67188,10.67212,0,.98657.14453,1.93738.39502,2.84412-1.83496-1.18896-4.01807-1.8866-6.3667-1.8866-6.47949,0-11.73242,5.25269-11.73242,11.73218,0,.13696.01611.2699.02051.40576-2.14111-2.29102-5.18066-3.73145-8.56396-3.73145-4.49658,0-8.39795,2.53223-10.36768,6.24622-.90967-5.57385-5.7334-9.8324-11.56445-9.8324-.08545,0-.16797.01086-.25342.0127,1.95361-2.09546,3.15771-4.89856,3.15771-7.98926,0-5.09668-3.25586-9.42188-7.79639-11.04126,5.08838-1.28296,8.85986-5.87646,8.85986-11.36316,0-4.81165-2.89941-8.94153-7.04346-10.75159,4.96924-.91113,8.73779-5.25586,8.73779-10.4884,0-3.45837-1.65234-6.52332-4.20264-8.47351,5.20166-.71338,9.2124-5.16333,9.2124-10.56104,0-3.5885-1.77686-6.7561-4.49268-8.69067.28271.02246.56641.04321.85498.04321,5.89404,0,10.67236-4.7782,10.67236-10.67236s-4.77832-10.67212-10.67236-10.67212-10.67188,4.77808-10.67188,10.67212c0,3.58862,1.77686,6.7561,4.49268,8.69092-.28271-.02258-.56641-.04321-.85498-.04321-5.89453,0-10.67236,4.77808-10.67236,10.67212,0,3.45837,1.65234,6.52344,4.20264,8.47363-5.20215.71338-9.21289,5.16333-9.21289,10.56091,0,4.27454,2.51904,7.95154,6.14844,9.6554-5.6377.85547-9.9624,5.70837-9.9624,11.58459,0,5.09668,3.25586,9.42175,7.79639,11.04114-5.08789,1.28296-8.85986,5.87659-8.85986,11.36328,0,6.47949,5.25293,11.73218,11.73242,11.73218.08545,0,.16797-.01099.25293-.01282-1.95361,2.09558-3.15771,4.89856-3.15771,7.98938,0,6.47949,5.25293,11.73218,11.73242,11.73218,4.49658,0,8.39795-2.53235,10.36719-6.24634.90967,5.57397,5.7334,9.83252,11.56494,9.83252,6.47949,0,11.73193-5.25269,11.73193-11.73218,0-.13696-.01562-.26978-.02051-.40576,2.14111,2.29102,5.18115,3.73145,8.56445,3.73145,6.47949,0,11.73193-5.25269,11.73193-11.73218,0-1.22974-.19092-2.41431-.54199-3.5282,1.59766.95312,3.4585,1.51086,5.45361,1.51086,5.89453,0,10.67236-4.77808,10.67236-10.67236,0-1.54224-.33398-3.00415-.92236-4.328,1.40283.6781,2.97021,1.06921,4.63281,1.06921,5.89404,0,10.67188-4.77808,10.67188-10.67212,0-1.3822-.271-2.69873-.74951-3.91089.45557.05933.9165.10034,1.3877.10034,5.89404,0,10.67236-4.77808,10.67236-10.67224,0-1.06079-.15967-2.08325-.44824-3.05042.83887.19019,1.70752.2998,2.60352.2998,6.47949,0,11.73242-5.25269,11.73242-11.73218,0-2.84802-1.01611-5.45789-2.7041-7.48999.86963.20544,1.77197.32568,2.7041.32568,6.47949,0,11.73193-5.25269,11.73193-11.73218,0-3.46838-1.51367-6.57544-3.90625-8.72339,1.021.29004,2.09473.45557,3.2085.45557,6.47949,0,11.73242-5.25269,11.73242-11.73218,0-3.08594-1.20068-5.88477-3.14844-7.97925.53174.07385,1.0708.12524,1.62305.12524,6.47949,0,11.73242-5.25269,11.73242-11.73218Z"/>
</svg>