<?xml version="1.0" encoding="UTF-8"?>
<svg id="a" data-name="Layer 1" xmlns="http://www.w3.org/2000/svg" viewBox="0 0 1212.06142 1577.6755">
  <defs>
    <style>
      .c {
        fill: #fff;
      }

      .d {
        fill: #1e1e1e;
      }

      .e {
        fill: #1437a0;
      }

      .f {
        fill: none;
      }

      .g {
        fill: #030203;
      }

      .h {
        fill: #f0eeef;
      }

      .i {
        fill: #125427;
      }

      .j {
        fill: #d98cbd;
      }

      .k {
        fill: #c32725;
      }
    </style>
  </defs>
  <rect class="c" x="153.58547" y="273.18571" width="690.61577" height="1040.10746"/>
  <path class="k" d="M859.60822,992.77032c20.15674-51.12793,70.53857-22.7251,62.00781,24.72412,23.93311,2.03613,47.30795,12.41741,71.22543,13.69134,34.66553-66.87549,19.45475-145.65081-25.56283-202.43206-19.86768-25.06006-44.99023-44.9126-66.13721-68.5752-20.16748-22.56641-37.05908-48.10547-55.31836-72.17383l-1.19238,324.66846c16.21729,1.05371,10.34229-8.146,14.97754-19.90283Z"/>
  <path class="e" d="M928.034,601.81573c-5.52197,1.87744-7.75732,11.77539-5.30762,16.44922,3.60352,6.87549,22.05273,6.56201,29.68994,8.89111,6.78285,2.0687,28.0843,16.30344,40.57456,15.82282,6.16249-.23713,11.24138-9.03448,9.21839-14.75862-3.14099-8.88759-60.41991-31.08177-74.17528-26.40453Z"/>
  <path class="e" d="M1074.81135,651.74102c-11.19873-1.0918-42.89209-12.40967-49.73828-8.26416-4.70557,2.84863-5.56982,10.0957-2.58252,14.56689,8.30615,12.43311,67.75394,22.17796,76.89115,13.02708,2.63135-2.63525,2.04167-11.94369-.00004-15.12376-2.64364-4.11762-17.55811-3.52246-24.57031-4.20605Z"/>
  <path class="e" d="M1128.53596,653.17071c17.28223,10.54932,56.48193-45.24365,52.60791-59.6499-1.68994-6.28564-7.07252-9.0017-14.75928-6.1084-6.2524,2.35341-16.79199,26.60791-23.45068,34.38281-5.56689,6.5-30.11719,21.77979-14.39795,31.37549Z"/>
  <path class="e" d="M1175.97248,557.69561c23.39697,6.95752,14.02393-37.42822,11.05176-49.59668-1.52224-6.2323-5.70661-22.00922-12.94886-27.79131-4.83162-3.85748-15.79713,1.31494-16.31604,8.13777-.66887,8.79455,6.63403,21.1872,8.18677,28.69651,2.08838,10.09863,1.63574,38.05859,10.02637,40.55371Z"/>
  <path class="e" d="M1145.40656,458.38018c10.2168-5.12402,5.92725-15.62012,1.02686-22.76172-5.01514-7.30908-39.46552-39.6166-47.44336-38.36377-7.87554,1.23676-15.49342,12.66671-6.68408,20.35107,4.48427,3.91162,19.71777,14.7207,25.53662,20.15088,7.08496,6.61182,15.66553,26.5918,27.56396,20.62354Z"/>
  <path class="e" d="M867.56135,644.77471c9.57715-8.22412,38.49512-17.80566,25.23584-32.58057-9.98975-11.13232-46.5459,15.68945-48.29199,28.77588-1.03271,7.73926.96582,17.32715.13818,25.36621,2.57324,2.90039,19.29346-18.44873,22.91797-21.56152Z"/>
  <path class="e" d="M636.61359,204.46758c20.96191.99951,44.2168,2.95654,63.6001,10.98535,25.03027,10.36768,49.64551,35.12012,57.7959,61.27979,24.99365.76758,54.62533-2.10125,72.48705,18.86685,12.68966,14.89655,14.13405,42.71387,14.13405,48v219.33237c71.85938-30.92285,131.98291-95.42773,129.93213-177.97266-44.62402-57.76221-102.03662-138.99951-98.65186-214.04785-32.45996-.09375-61.2334,14.51904-87.90918-11.94043C734.14679,105.55206,723.67658,8.88214,628.9964.45684c-94.30371-8.39209-130.35059,101.75049-240.31055,91.06836-38.44971-3.73535-70.22803-35.16797-108.58887-38.16553-77.43262-6.05127-121.3252,96.12598-121.21875,160.84229,12.33984-3.98584,29.07031-4.60303,42.00879-7.31396,144.17529,5.96533,292.06592-9.27246,435.72656-2.42041Z"/>
  <path class="d" d="M990.01109,376.89076c7.28662,9.43213,27.82422,35.88574,39.70166,35.88477,11.13867-.00098,28.89404-22.05664,37.26465-29.89355,3.78027-3.53955,129.67188-169.63477,87.08545-269.77539-54.22754-127.51611-256.17871-94.93701-262.70361,49.73633-3.38477,75.04834,54.02783,156.28564,98.65186,214.04785ZM1028.65464,119.18129c32.38379,0,58.63525,26.23975,58.63525,58.60791s-26.25146,58.6084-58.63525,58.6084-58.63477-26.23975-58.63477-58.6084,26.25195-58.60791,58.63477-58.60791Z"/>
  <ellipse class="h" cx="1028.65476" cy="177.78932" rx="58.63513" ry="58.60803" transform="translate(-.39772 2.31668) rotate(-.12901)"/>
  <path class="k" d="M78.24933,829.91339c10.14697,43.21729,41.20996,77.78955,75.81689,103.39355V350.9075c0-10.94011,1.58928-21.82845,4.79661-32.28785.2206-.7194.40634-1.29665.54275-1.67647,5.82133-16.20662,15.57332-25.73942,28.4499-32.18128,11.0956-5.55088,23.45935-8.05449,35.86351-7.807,177.88554,3.5492,356.5624-5.67687,534.29059-.22217-8.15039-26.15967-32.76562-50.91211-57.7959-61.27979-19.3833-8.02881-42.63818-9.98584-63.6001-10.98535-143.66064-6.85205-291.55127,8.38574-435.72656,2.42041-12.93848,2.71094-29.66895,3.32812-42.00879,7.31396-37.14014,11.99756-64.56104,47.69043-81.46631,80.91113-16.78027,32.97461-46.55566,93.85107-48.57324,129.42041-4.03223,71.0874,54.02148,112.50098,66.41162,179.14893,14.83398,79.79492-35.26123,148.45264-17.00098,226.23096Z"/>
  <path class="e" d="M778.59553,868.50469c3.89697-18.6582,3.3999-93.90039,1.07178-114.375-.03786-.33293-.08293-.67536-.13515-1.02612-1.99487-13.40085-13.76322-23.17514-27.31173-23.18905l-427.92422-.43913c-8.37354,3.479-14.68506,10.87402-16.08105,20.00146-3.34473,21.86572-2.41797,87.32568-.24805,110.56885,1.24023,13.27881,5.63232,21.93262,18.64453,27.06006l432.65381.55859c11.11865-.34814,17.23096-9.10889,19.33008-19.15967Z"/>
  <path class="j" d="M401.20246,538.22833c32.37305-31.55566,42.39111-79.56934,25.33643-121.42871-17.05469-41.85889-57.78125-69.21729-102.99951-69.18945-45.21777.02734-85.91113,27.43506-102.91504,69.31494-17.00342,41.87988-6.92676,89.88184,25.48438,121.39795,25.03857-80.92139,130.42676-80.76025,155.09375-.09473ZM323.72785,384.26885c22.27295,0,40.32812,18.04736,40.32812,40.30957s-18.05518,40.30908-40.32812,40.30908-40.32764-18.04688-40.32764-40.30908,18.05518-40.30957,40.32764-40.30957Z"/>
  <path class="g" d="M311.05451,663.36846c2.68164,2.67529,8.79102,2.76172,12.54199,3.07764l442.95361.02002c16.37842-2.01074,16.31787-22.31055,0-24.28613l-445.96862,1.36046c-6.85622.02092-12.66791,5.51046-12.58072,12.36616.03471,2.72935.97784,5.39085,3.05373,7.46186Z"/>
  <path class="g" d="M401.20246,538.22833c-24.66699-80.66553-130.05518-80.82666-155.09375.09473,43.17969,41.9873,111.96533,41.9458,155.09375-.09473Z"/>
  <ellipse class="j" cx="533.76117" cy="986.41668" rx="50.36121" ry="50.3844" transform="translate(-454.05703 1517.57962) rotate(-89.84919)"/>
  <g>
    <path class="g" d="M497.84895,490.82354l267.79916.08252c19.64844-2.53174,16.04817-26.07031-2.51456-26.62549l-269.56522.58154c-15.20488,3.24951-12.32644,27.03125,4.28063,25.96143Z"/>
    <path class="g" d="M502.09525,411.53008l259.82812-.26611c23.82622.3356,19.55036-26.30469,4.96387-26.30469h-270.4819c-6.66719,0-12.45513,5.10436-12.75438,11.76483-.36674,8.16276,3.75381,14.83034,18.44429,14.80597Z"/>
    <path class="g" d="M499.48476,572.59454c63.8933-2.52977,104.59668-.72852,151.75488.08252,19.10986-2.48096,17.0924-26.08692-2.47645-26.63526l-155.9707.53906c-12.91401,2.39801-13.46573,26.81181,6.69227,26.01368Z"/>
  </g>
  <path class="g" d="M230.34846,729.39044c-20.59277,6.14062-17.08984,44.7793,8.56738,42.2749,28.96875-2.82764,23.70898-51.89941-8.56738-42.2749Z"/>
  <path class="g" d="M237.65119,863.65948c11.62109,0,21.04199-9.41602,21.04199-21.03174s-9.4209-21.03223-21.04199-21.03223-21.0415,9.4165-21.0415,21.03223,9.4209,21.03174,21.0415,21.03174Z"/>
  <path class="g" d="M237.74152,634.69122c-11.48047,0-20.78662,9.30225-20.78662,20.77686s9.30615,20.77686,20.78662,20.77686,20.78613-9.30225,20.78613-20.77686-9.30615-20.77686-20.78613-20.77686Z"/>
  <ellipse class="g" cx="323.72797" cy="424.5783" rx="40.328" ry="40.30945" transform="translate(-1.39455 1.06693) rotate(-.18843)"/>
  <path class="i" d="M823.93244,1527.63311c-28.76123-3.64795-91.93262-3.06836-111.72998-23.04102-19.56885-19.7417-5.10156-58.33203-4.73584-83.05225-12.98682,2.72656-26.34473,3.07129-39.66357,2.37158-53.45264-2.80908-91.88232-35.87891-139.16309-55.71143-38.80566-16.27783-85.00586-26.12354-126.74072-18.82275,7.41846,29.88867,31.26123,104.35059,25.92627,130.53076-2.93652,14.40967-17.74219,26.52344-31.21094,31.33691-51.71875,18.4834-121.32568,30.42822-176.17236,45.17529-3.88037,1.04346-8.27051,1.1875-11.03467,4.6001,76.57373-6.04883,158.72803,5.21289,234.29346-5.11572,49.93311-6.8252,53.62842-24.75098,90.39697-44.32715,74.7666-39.80762,109.81982,39.69678,177.2876,46.7417,52.18799,5.44971,77.92139-12.83984,123.62061-23.75439,1.7002-6.2876-7.42139-6.46875-11.07373-6.93164Z"/>
  <path class="g" d="M447.47785,1232.85382c41.21436,12.93164,54.36523-66.99902,83.37451-68.6875,22.51025-1.31006,6.68311,55.02148,38.79785,62.06836,21.04932,4.61865,30.92969-14.13086,42.79395-14.19043,10.86523-.05518,17.30225,22.07861,43.04932,19.33936,10.43652-1.11035,52.396-20.25879,32.72363-29.896-16.44971-8.05908-29.15869,21.39551-50.43408,4.70166-3.75195-2.94434-4.94092-7.4834-8.84326-10.39502-23.93506-17.85693-40.31787,15.38574-54.50293,11.36719-14.03613-3.97656-3.95068-53.46094-32.90625-61.07275-48.00293-12.61963-61.21631,65.04883-83.47021,68.01562-2.15186.28711-5.97021-.86621-7.45117-2.40332-13.16357-13.66455,21.36963-84.10498-7.69629-106.54248-19.3999-14.97607-39.82715,4.31836-47.92139,22.05811-3.23096,7.08057-9.37793,18.84521,1.39355,22.10449,19.68066,5.95459,12.3877-33.65332,36.56738-28.20508,11.77393,26.32275-23.65186,99.75928,14.52539,111.73779Z"/>
  <ellipse class="g" cx="367.78266" cy="986.44219" rx="50.88586" ry="50.8623"/>
  <ellipse class="i" cx="698.90595" cy="986.38909" rx="50.73914" ry="50.71545" transform="translate(-2.5405 1.80499) rotate(-.1477)"/>
  <path class="g" d="M1128.54523,1029.51934c6.12939-68.92871-61.40527-72.50488-67.59912-5.06689-19.79083-1.70235-115.39697-4.92188-139.33008-6.95801,8.53076-47.44922-41.85107-75.85205-62.00781-24.72412-4.63525,11.75684,1.23975,20.95654-14.97754,19.90283-29.52002-1.91846-56.12598-10.54395-71.02002,24.01172l-44.49609,276.59668-334.43359,2.42529c2.62695,10.45361,4.40625,22.34033,7.21826,33.67041,41.73486-7.30078,87.93506,2.54492,126.74072,18.82275,47.28076,19.83252,85.71045,52.90234,139.16309,55.71143,13.31885.69971,26.67676.35498,39.66357-2.37158-.36572,24.72021-14.83301,63.31055,4.73584,83.05225,19.79736,19.97266,82.96875,19.39307,111.72998,23.04102,3.65234.46289,12.77393.64404,11.07373,6.93164,8.24951-1.96973,11.47705-2.74023,20.4375-2.37695,73.27881,2.97412,166.55371,36.11475,235.83252,33.80078,10.83984-.36182,33.83594-7.07031,45.01807-10.46191,33.57324-10.18311,58.14014-21.3916,62.01758-60.66748,7.80518-79.06104,4.98779-167.74561,7.14209-247.79492,1.49268-55.45215,10.11865-123.58887,5.00439-177.96582-4.11572-43.76562-49.20654-37.06787-81.91309-39.5791ZM1094.13068,996.17413c16.04443-4.72656,17.3623,31.30762,15.19336,33.34668-1.02393.96191-9.87012-1.3501-11.80566.24805-4.01123,3.31396-.31201,42.87842-11.03418,40.6123-14.84912-3.13818-7.29639-69.80518,7.64648-74.20703ZM889.49347,984.20538c13.57178-2.56836,15.48242,28.19971,12.78955,30.78076-.89893.86182-8.57373-1.14551-10.89844,2.33203-3.8457,5.75391-1.60303,29.44287-5.6958,37.23096-.14844,2.44678-4.51465,1.8208-5.96973,1.22461-15.271-6.25684-4.30273-68.90381,9.77441-71.56836ZM1150.51105,1379.73956c-5.43994,42.91504-6.38525,95.34766-14.97754,136.54639-8.97217,43.02002-36.61133,41.18701-72.83643,37.20947-48.40869-5.31445-96.68164-16.84473-145.02002-23.39893-55.44238-7.51807-121.20068-9.11328-174.67822-20.21143-18.65234-3.87109-31.80615-13.88477-33.18896-34.30615-1.06543-15.72803,6.49707-42.59424,9.06445-58.29443,15.7666-96.4165,35.26465-192.25195,48.88623-289.03271l408.78662,31.25098c-4.39014,73.78467-16.74756,146.95361-26.03613,220.23682Z"/>
  <path class="h" d="M767.76045,1128.25177c-13.62158,96.78076-33.11963,192.61621-48.88623,289.03271-2.56738,15.7002-10.12988,42.56641-9.06445,58.29443,1.38281,20.42139,14.53662,30.43506,33.18896,34.30615,53.47754,11.09814,119.23584,12.69336,174.67822,20.21143,48.33838,6.5542,96.61133,18.08447,145.02002,23.39893,36.2251,3.97754,63.86426,5.81055,72.83643-37.20947,8.59229-41.19873,9.5376-93.63135,14.97754-136.54639,9.28857-73.2832,21.646-146.45215,26.03613-220.23682l-408.78662-31.25098Z"/>
  <path class="k" d="M879.71906,1055.77374c1.45508.59619,5.82129,1.22217,5.96973-1.22461,4.09277-7.78809,1.8501-31.47705,5.6958-37.23096,2.32471-3.47754,9.99951-1.47021,10.89844-2.33203,2.69287-2.58105.78223-33.34912-12.78955-30.78076-14.07715,2.66455-25.04541,65.31152-9.77441,71.56836Z"/>
  <path class="g" d="M885.29279,1398.43829c-2.15137,2.81738-8.90088,48.46631-9.33887,55.57861-.71924,11.67383-2.74658,20.47217,10.94434,22.66748,9.73633,1.56104,60.02148,6.94189,65.05518,2.81348,3.54102-2.90381,4.15918-11.85986,5.0791-16.56885,1.98486-10.16211,7.80957-43.93457,7.54297-52.34424-.16602-5.22656-2.80469-9.70264-8.07568-10.68408-10.8623-2.02246-58.66357-6.76562-66.87012-4.34375-1.65723.48926-3.2876,1.50781-4.33691,2.88135Z"/>
  <path class="g" d="M1037.71503,1380.74899c9.83447,1.0708,38.44593,5.43636,44.5553-.67936,2.26514-2.26758,10.03223-56.20557,10.2583-63.26807.19734-6.16833.1255-11.59307-4.68582-14.19412-1.68799-.91255-71.36269-9.96155-74.27903-3.20774-3.00968,6.96997-9.479,58.40527-9.96289,66.00049-1.125,17.6582,22.33679,14.06657,34.11413,15.34879Z"/>
  <path class="e" d="M769.34553,1464.31085c7.89111,2.33496,66.00342,7.20703,70.5625,4.20654,4.26514-2.80713,14.73193-70.67529,10.89697-76.01221-4.03286-5.61228-52.72982-5.29572-67.31401-8.17153-2.47927-.48888-5.10618-.16921-7.22316,1.21072-1.39423.90881-2.52142,2.19397-3.30365,4.04822-2.71777,6.44385-9.72607,53.86719-9.99072,62.40039-.17236,5.5542.17969,10.48535,6.37207,12.31787Z"/>
  <path class="k" d="M930.06769,1371.00372c6.62256.62061,35.59033,2.79834,38.72607.25586,4.73877-3.8418,9.28613-41.23779,10.23535-49.88135.7207-6.56299,3.98779-22.5918-.24512-26.73682-6.26416-6.1333-57.51567-7.07314-71.51725-8.45564-6.68311.32764-5.56283,8.77839-7.02718,14.15437-2.24854,8.25049-9.38184,58.97705-6.36328,63.56201,2.63721,4.00635,29.38574,6.46387,36.19141,7.10156Z"/>
  <path class="g" d="M793.05158,1358.84503c14.09473,2.08691,41.4292,4.84668,55.32812,5.0752,16.729.27539,15.12891-21.52881,17.50586-35.38574,1.19141-6.94336,5.93848-35.44629,4.10986-39.25342-4.89393-10.18975-46.17304-8.15791-65.27138-10.4806-6.65492-.80935-13.03542,3.2227-14.85757,9.67427-.01111.03934-.022.07846-.03267.11737-2.74854,10.021-7.11182,41.53174-7.74854,52.43359-.60742,10.40332-.8457,16.07031,10.96631,17.81934Z"/>
  <path class="j" d="M1100.761,1275.05934c3.91935-4.23232,9.52245-63.41751,8.93185-77.81316-.07773-1.89461-1.53083-3.44136-3.41461-3.6581l-65.60069-5.36756c-5.24989-.93129-8.28437-1.02324-10.20215,3.00781-1.67287,3.51627-11.34521,70.11621-9.021,74.00537,2.85742,4.78223,75.91206,13.49117,79.30659,9.82564Z"/>
  <path class="g" d="M918.11017,1260.29815c12.87109,2.58691,36.8877,4.27246,50.4668,4.88086,5.12744.22949,12.94727,1.24072,17.0625-2.13379,5.01172-4.10986,13.10449-69.81201,9.51074-74.94434-3.82433-5.46092-53.99662-6.58907-69.29742-6.67552-2.56239-.01448-4.96637,1.22966-6.42984,3.33306-.01034.01486-.02069.02973-.03105.0446-1.81152,2.60156-9.81299,56.06494-9.90381,62.50732-.1001,7.08838,1.15186,11.48682,8.62207,12.98779Z"/>
  <path class="g" d="M870.50082,1255.06022c3.61911-.19545,6.67208-2.73185,7.51969-6.25573,3.6656-15.23955,9.53229-55.83462,9.50373-61.90282-.01172-2.43506-.86719-6.02441-2.58008-7.70166-1.78027-1.74316-5.44482-2.41602-7.96143-2.76367-14.12109-1.95068-44.55371-4.73926-58.11035-4.27686-2.85986.09766-5.90381.65674-7.9165,2.83447-2.92432,3.16406-11.61865,55.39307-11.88818,62.94971-.13232,3.70068-.63477,6.29102,2.01074,9.47119,5.17042,6.21603,50.99833,8.64038,69.42238,7.64537Z"/>
  <g>
    <g>
      <path class="f" d="M135.17891,978.84357c-29.06714,10.12451-34.53442,39.82422-32.43311,63.03027.29419,3.24634.74121,6.3457,1.32422,9.3335,5.61353-6.81299,9.68945-11.90894,11.41504-14.42969,5.81592-8.49658,40.95801-12.9895,51.03467-12.33911,3.81543.24634,19.09033,6.50513,38.60303,15.25293.65137-1.81934,1.10815-3.11816,1.14966-3.63843,2.73682-34.36768-24.89746-73.30029-71.09351-57.20947Z"/>
      <path class="f" d="M190.67231,1113.37433c2.92505-2.82861,8.4646-2.28223,10.30054,1.12939.01318.02441.02588.04907.03906.07373.01538-.57764.03516-1.15405.03516-1.73657,0-28.26172-18.38989-51.17236-41.07471-51.17236-16.06177,0-29.96094,11.49219-36.71338,28.23047,3.32324,4.01221,7.0061,8.01001,11.08521,12.10034,18.71216,18.76489,33.76978,33.18994,56.32812,11.375Z"/>
      <path class="f" d="M119.58638,1122.13727c-.04004-.57178-.11621-1.16406-.24463-1.78857.07104.60059.15698,1.19482.24463,1.78857Z"/>
      <path class="g" d="M102.7458,1041.87384c-2.10132-23.20605,3.36597-52.90576,32.43311-63.03027,46.19604-16.09082,73.83032,22.8418,71.09351,57.20947-.0415.52026-.49829,1.81909-1.14966,3.63843,7.88257,3.53369,16.45508,7.47314,25.24609,11.58765,9.06641-42.68408-15.42847-96.41089-74.61841-98.4707-60.26831-2.09766-88.74341,54.46851-78.85742,96.28027,2.31836,9.80566,4.92603,18.23193,7.67896,25.48364,7.44531-8.87256,14.16699-16.89551,19.49805-23.36499-.58301-2.98779-1.03003-6.08716-1.32422-9.3335Z"/>
      <path class="g" d="M119.34175,1120.34869c.12842.62451.20459,1.2168.24463,1.78857,3.51099,23.8208,20.25049,41.87598,40.38599,41.87598,22.21729,0,40.30298-21.97974,41.03955-49.43579-.01318-.02466-.02588-.04932-.03906-.07373-1.83594-3.41162-7.37549-3.95801-10.30054-1.12939-22.55835,21.81494-37.61597,7.38989-56.32812-11.375-4.0791-4.09033-7.76196-8.08813-11.08521-12.10034-2.78418,6.9021-4.36133,14.69043-4.36133,22.94189,0,2.55127.15479,5.05664.44409,7.50781Z"/>
      <path class="j" d="M401.89912,1349.37726c-2.81201-11.33008-4.59131-23.2168-7.21826-33.67041-16.23926-64.62012-23.84131-111.22778-44.05273-173.70288-12.7251-39.33301-28.40625-44.88721-49.8374-56.14429-17.52539-9.20557-44.88574-22.62817-70.42188-34.58057-8.79102-4.1145-17.36353-8.05396-25.24609-11.58765-19.5127-8.7478-34.7876-15.00659-38.60303-15.25293-10.07666-.65039-45.21875,3.84253-51.03467,12.33911-1.72559,2.52075-5.80151,7.6167-11.41504,14.42969,2.90576,14.89429,9.39209,26.86304,19.18896,38.69165,6.75244-16.73828,20.65161-28.23047,36.71338-28.23047,22.68481,0,41.07471,22.91064,41.07471,51.17236,0,.58252-.01978,1.15894-.03516,1.73657-.73657,27.45605-18.82227,49.43579-41.03955,49.43579-20.1355,0-36.875-18.05518-40.38599-41.87598-.08765-.59375-.17358-1.18799-.24463-1.78857-.00317-.01611-.00513-.03149-.00854-.04761-.34497-1.64795-19.72363-6.11768-34.76123-45.72876-32.64502,38.90308-79.09473,94.0271-82.21777,105.12671-6.21826,22.10254,1.31348,42.41992,6.10742,63.88916,20.77148,93.02637,46.15967,203.89209,73.604,294.40039,21.22607,70.00146,78.4292,26.89551,127.3418,23.03174,2.76416-3.4126,7.1543-3.55664,11.03467-4.6001,54.84668-14.74707,124.45361-26.69189,176.17236-45.17529,13.46875-4.81348,28.27441-16.92725,31.21094-31.33691,5.33496-26.18018-18.50781-100.64209-25.92627-130.53076Z"/>
      <path class="g" d="M119.3332,1120.30109c.00342.01611.00537.03149.00854.04761-.28931-2.45117-.44409-4.95654-.44409-7.50781,0-8.25146,1.57715-16.03979,4.36133-22.94189-9.79688-11.82861-16.2832-23.79736-19.18896-38.69165-5.33105,6.46948-12.05273,14.49243-19.49805,23.36499,15.0376,39.61108,34.41626,44.08081,34.76123,45.72876Z"/>
    </g>
    <g>
      <path class="h" d="M190.58735,1202.64337c-146.87354,15.57568-108.53784,264.81763,43.89014,230.69873,129.4895-28.98462,97.73999-245.71826-43.89014-230.69873Z"/>
      <path class="g" d="M189.66486,1196.1629c-155.03809,16.44141-114.57129,279.53857,46.33008,243.52295,136.6875-30.5957,103.17334-259.37744-46.33008-243.52295ZM259.93683,1411.9085v-62.53125l45.71094-9.61377c-2.02002,27.75732-19.66699,60.40479-45.71094,72.14502ZM298.20344,1275.03008c7.44434,7.55799,12.89593,36.7304,11.78745,43.42006-.52953,3.19569-52.99253,18.45348-54.86021,16.51256-.6226-6.53579-10.74037-43.19175-10.23175-45.50106,6.85156-3.2998,49.73761-16.98673,53.3045-14.43155ZM207.01301,1209.89874c24.88232,1.23242,47.654,7.88524,65.46064,25.03416,1.81787,1.75049,20.54408,24.64162,20.7931,25.72414,0,0-7.67269,1.13232-10.28548,2.32568-5.17529,2.36426-40.49613,12.49301-41.71452,12.24903-4.14893-10.46289-10.77914-24.18995-16.17025-34.12989-2.09619-3.86426-19.51709-29.92188-18.0835-31.20312ZM243.07834,1338.05934c-8.00488,2.39648-50.9473,18.49105-57.68516,18.49105-.5127-8.50781-13.55178-45.60944-13.3908-46.85887,8.89795-1.92773,56.06456-18.32385,58.90805-17.08046,1.95654,7.00977,12.69357,41.45793,12.16792,45.44828ZM171.48664,1215.26251c1.36035-1.2002,10.43262-3.18018,12.61475-2.97021,11.86572,1.14307,43.87256,62.75391,39.74609,67.32227l-55.33008,14.44678c-1.92773-13.83594-6.24316-70.67236,2.96924-78.79883ZM154.06476,1221.89842c-5.30273,22.88721-1.93213,53.29182-.28857,76.68733l-47.81738,14.70752c-.83008-32.31689,17.1665-78.33284,48.10596-91.39485ZM120.38459,1372.36944c-5.99316-3.75781-15.58594-38.20654-11.69092-44.30029,1.43457-2.24414,41.45312-12.52588,47.88135-13.76611l14.33594,47.07861c-10.62122.70068-44.74756,14.61182-50.52637,10.98779ZM132.43097,1389.02764c-1.7998-4.19922,10.61739-6.85336,18.02402-8.32547,6.26964-1.24612,23.23704-7.73139,26.29451-7.01065,6.21875,18.6958,20.13068,36.12811,30.25129,52.62274-19.09766,3.27979-67.45996-20.69727-74.56982-37.28662ZM227.98762,1423.58526c-9.93164-2.72266-38.49615-52.37898-37.8588-53.89374,10.7522-2.76904,50.16765-17.28007,55.81609-16.5977-.36768,13.21631,8.2219,77.66771-17.9573,70.49144Z"/>
    </g>
  </g>
</svg>