<?xml version="1.0" encoding="UTF-8"?>
<svg id="a" data-name="Layer 1" xmlns="http://www.w3.org/2000/svg" viewBox="0 0 1541.17179 1958.01764">
  <defs>
    <style>
      .c {
        fill: #c42223;
      }

      .d {
        fill: #fff;
      }

      .e {
        fill: #060606;
      }

      .f {
        fill: none;
      }

      .g {
        fill: #f5f5f6;
      }

      .h {
        fill: #0b36a4;
      }

      .i {
        fill: #db88b9;
      }

      .j {
        fill: #0a5429;
      }
    </style>
  </defs>
  <path class="h" d="M1475.95575,1724.99127c-26.50916,24.83691-74.43439,49.05762-109.5379,58.95459,3.59991,43.04248,6.35583,86.22021,11.23724,129.13281l-126.39252-19.646c-6.03375,20.58496-12.33093,41.23096-18.29456,61.80615l-377.74158-59.01465c16.56354-58.20703,95.65894-339.0542,112.47205-409.73438l137.51349,19.52734c.55127-.95996,4.77399-1.68604,5.61731-2.80762,22.76123-30.27002,72.41229-36.88135,84.25995,2.80762,8.24927-1.7041,7.48041,7.99121,8.42603,14.03662,14.00824,1.81006,28.16479,3.52979,42.12994,5.61475l-6.55823-41.95361c55.86938,8.25537,94.60557,18.30776,96.63487,18.11294,12.77734-55.17334,45.07063-120.35268,89.65456-157.25747,8.61926-7.13477,38.86658-10.29834,47.77069-13.82275-2.67639-108.84863,3.53766-236.78125.10535-345.60156-2.19299-69.52832-6.73059-155.78125-17.39612-224.04492-9.90521-63.39746-36.4295-134.49658-87.35284-176.51465-1.18066,31.92383-18.74176,88.52637-41.30182,111.61182-73.12854,74.83105-210.43854,62.86768-285.1842-4.40967-39.1394,33.08203-243.71356-77.55762-294.96228-87.04102-13.17432,8.25146,68.87317,176.92725,68.87317,176.92725l151.65875,115.11328-196.64001,23.92627,112.36481,169.79541c-52.95013-7.22266-123.28973-25.91162-175.2912-37.76221,6.72485,6.7168,27.62994,33.5625,30.7276,37.71289,2.41125,3.23047,11.57373,4.39551,16.92059,11.16064,7.62585,9.64893,4.55914,19.27295,8.32324,25.37695,6.49731,10.53613,13.24823-3.04053,18.22339,28.09863,3.22223,20.16797-4.71204,37.40918-14.04333,50.53271,3.30707,6.38525-14.02936-8.65088-16.7536-9.93994-13.86145-6.55957-9.08862,30.15674-22.56769,29.59131-9.03253,26.38721-19.65936,46.43066-33.70398,70.18408l87.0686,140.36816c6.71613-8.21484,81.05426-2.13184,173.18262,8.87891-28.42633,53.88867-58.41846,107.3916-91.67548,158.21484-22.12976,33.81885-82.01556,72.8374-115.21112,96.79834-53.52771-.91895-189.80115-33.5293-474.66449,5.61426-30.3335,10.86133-61.73999,15.17383-91.75854,27.59717-67.78992,28.05469-127.23315,85.30225-155.88037,153.00146l-21.99292,60.83496c.22559,3.72607-.21338,7.52197-.01685,11.24219l1474.58154.00244-2.82416-233.02637Z"/>
  <path class="i" d="M473.16689,996.38532c-7.2876,4.6958-15.76782,68.32275-19.56519,80.10547,39.60986,15.78271,87.38447,53.54462,118.07417,83.36005l33.7931-38.75862c.75757-9.55957,40.95629-28.38344,40.13793-37.7931-1.33313-15.32764-62.91487-45.71457-43.14595-46.11155-6.30847-10.7124-25.34241-50.72461-28.08667-61.76172-29.12537,22.16406-67.25989,16.24219-101.2074,20.95947Z"/>
  <path class="e" d="M782.21553,683.46002c-38.92108-6.2124-67.06158,41.20068-40.82837,73.09424,25.85846,31.4375,81.22058,9.37012,80.14966-30.98389-.4823-18.17383-22.4068-39.41064-39.32129-42.11035ZM775.13106,762.12897c-18.87982,0-34.18494-15.29785-34.18494-34.16895s15.30511-34.16895,34.18494-34.16895,34.18494,15.29785,34.18494,34.16895-15.30511,34.16895-34.18494,34.16895Z"/>
  <path class="j" d="M1366.41787,1783.94586c35.10352-9.89697,83.02875-34.11768,109.5379-58.95459,6.0271-5.64697,27.96625-33.9707,32.66968-41.74072,21.57312-35.6377,6.24719-39.47803-32.66968-39.67285-40.38397-.20215-82.67529,18.72852-117.96393,36.49561,2.6496,34.6875,5.53082,69.25586,8.42603,103.87256Z"/>
  <path class="h" d="M1355.18319,1660.42194c.53558,7.31787,2.39307,14.21094,2.80865,19.65137,35.28864-17.76709,77.57996-36.69775,117.96393-36.49561v-61.76172c-28.21527,26.03662-65.56848,39.16553-96.42572,59.42725-8.87714,5.8291-13.51184,16.81641-24.34686,19.17871Z"/>
  <path class="h" d="M1426.73342,1500.34918c6.19482-.86719,36.41217-19.41553,46.4137-22.40576,1.39758-14.09326-3.30558-39.56408-1.3563-53.12707-6.84625,7.57666-48.86416,67.31457-49.24996,71.34094-.42737,4.46045-.32764,4.8252,4.19257,4.19189Z"/>
  <path class="i" d="M276.6559,975.42585c-.62354-5.5459-22.58484-43.60107-27.3219-52.56396-10.34216-19.56836-20.93408-40.10352-31.66016-59.73047-3.10706-5.68555-13.46448-14.60938-18.03357-22.68066-79.87183-141.0918,58.75-293.8125,207.7251-244.12549,9.79822,3.26807,30.74792,17.59717,38.57812,16.50146,5.6665-.79297,57.93408-41.98486,72.20728-48.72949,34.48816-16.29785,71.4939-12.40283,51.08008,34.20947-6.70874,15.31836-54.50403,50.04443-70.69043,62.69434,18.17822,22.28076,27.47021,52.73096,43.72241,75.61084,10.29932,14.49951,59.96167,51.2417,62.57971,61.19775,5.64929,21.48389-33.28918,24.25488-35.62354,33.2959-1.26086,4.8833,10.3573,32.75635,7.7356,37.31836-2.3798,4.14119-28.40284,9.62548-40.23763,9.36415-3.04829-.06731-5.55083,2.64273-4.95002,5.63198.359,1.78613,1.67959,2.35163,4.53359,3.17594,17.57361,5.0752,27.85584-2.17145,43.67176-7.42829,4.06665,3.98193,4.30017,55.83044,5.63672,65.37683.12842.91846-.14917,1.89795,0,2.80762,31.66626,11.54785,41.01675,55.78418,58.28811,81.44922,35.08411-28.34814,77.93851-20.59199,49.37931,30.96904,7.91943-1.00684,25.25653-1.83525,32.76575-.12383,52.00146,11.85107,104.31958,23.64062,157.26971,30.86328l-112.36481-169.79541,196.64001-23.92627-151.65875-115.11328s47.52833-23.45909,65.81648-33.13438l-60.20802-22.97011c1.07092,40.354-54.2912,62.42139-80.14966,30.98389-26.23322-31.89355,1.90729-79.30664,40.82837-73.09424l2.80865-30.88086c-13.06696.03467-27.49237.95557-40.33569-.38867-116.81372-12.22656-192.43835-147.32568-117.34192-245.78906.67725-6.35205-10.75732-11.25439-13.65088-14.90674-23.12327,21.22971-85.54321,79.49023-89.86377,78.61719l-58.95178-241.43457-77.28235,241.35889-143.27917-185.2002,23.87854,235.79688-179.70459-92.62695,112.36292,223.13574-196.63916,4.27686,159.9967,136.25098L15.47817,903.88239l174.10669,29.47119-84.25757,162.78857c42.03503-35.45801,97.21265-55.63281,151.66785-61.76172,1.96912-14.85303,21.75793-40.29639,19.66077-58.95459ZM705.83949,784.24473c19.25476-1.22447,35.13133,14.64048,33.91349,33.88431-1.00406,15.86573-13.87982,28.73281-29.74536,29.73988-19.25161,1.222-35.12504-14.63966-33.90987-33.88143,1.00197-15.86581,13.87638-28.73383,29.74175-29.74276Z"/>
  <path class="e" d="M707.9255,847.93512c17.61414,0,31.89319-14.27246,31.89319-31.87891,0-17.60547-14.27905-31.87793-31.89319-31.87793s-31.89319,14.27246-31.89319,31.87793c0,17.60645,14.27905,31.87891,31.89319,31.87891ZM707.834,794.06452c12.11542,0,21.93695,9.81689,21.93695,21.92676s-9.82153,21.92676-21.93695,21.92676-21.93695-9.81689-21.93695-21.92676,9.82147-21.92676,21.93695-21.92676Z"/>
  <ellipse class="d" cx="707.834" cy="815.99127" rx="21.93695" ry="21.92676"/>
  <path class="d" d="M604.84253,797.80963c-2.61804-9.95605-52.2804-46.69824-62.57971-61.19775-16.2522-22.87988-25.54419-53.33008-43.72241-75.61084-21.13049,16.51367-53.99414,29.98926-70.21667,53.33984-5.7135,8.22412-11.79089,25.02539-19.00208,35.75049-4.98474,7.41357-21.02344,20.07764-22.52759,25.20801-5.09985,17.39453,8.31934,59.53125-4.60046,68.37158-15.52551,10.62354-22.56311-10.59229-36.0658-14.88135-45.19836-14.35645-67.08508,30.42188-46.49756,68.9292,5.91919,11.07129,18.57996,18.02588,20.62512,21.61377,7.48499,13.13086-22.51331,62.66113-43.59949,56.09326,2.09717,18.6582-17.69165,44.10156-19.66077,58.95459-2.45398,18.51025,18.66663,44.48779,32.37244,56.07422,45.48853,38.45557,141.19458,57.52393,164.23413-13.96387,3.79736-11.78271,12.27759-75.40967,19.56519-80.10547,33.94751-4.71729,72.08203,1.20459,101.2074-20.95947-1.23694-4.9751,12.24413-18.93133,12.24413-18.93133-1.33655-9.54639-2.57946-73.34491-6.64611-77.32684-15.81592,5.25684-26.09815,12.50348-43.67176,7.42829-2.854-.8243-4.1746-1.3898-4.53359-3.17594-.60081-2.98925,1.90174-5.69929,4.95002-5.63198,11.83478.26133,37.85782-5.22296,40.23763-9.36415,2.6217-4.56201-8.99646-32.43506-7.7356-37.31836,2.33435-9.04102,41.27283-11.81201,35.62354-33.2959Z"/>
  <path class="c" d="M590.38852,947.29911c-2.70387-1.59221-5.07911-2.54542-7.14902-3.05153-6.15457-1.50486-11.98171,3.56312-11.56314,9.88515.48917,7.38848,1.81161,17.7282,2.69794,21.29311,2.74426,11.03711,22.19139,52.05742,28.49986,62.76982,20.02673,34.00732,23.38395,4.85811,41.02299-9.39433-17.27136-25.66504-24.45327-62.98051-53.50862-81.50222Z"/>
  <path class="d" d="M579.12415,1112.26463c7.74658-7.75049,45.9304-56.50874,27.0366-65.82759-12.37012-6.10107-26.46189,25.91954-27.0366,65.82759Z"/>
  <path class="e" d="M428.32374,714.34088c16.22253-23.35059,49.08618-36.82617,70.21667-53.33984,16.1864-12.6499,63.98169-47.37598,70.69043-62.69434,20.41382-46.6123-16.59192-50.50732-51.08008-34.20947-14.27319,6.74463-66.54077,47.93652-72.20728,48.72949-7.8302,1.0957-28.77991-13.2334-38.57812-16.50146-148.9751-49.68701-287.59692,103.03369-207.7251,244.12549,4.56909,8.07129,14.92651,16.99512,18.03357,22.68066,0,0,202.38049-146.56055,210.6499-148.79053Z"/>
  <path class="c" d="M320.25539,919.33258c-2.04517-3.58789-14.70593-10.54248-20.62512-21.61377-20.58752-38.50732,1.29919-83.28564,46.49756-68.9292,13.50269,4.28906,20.54028,25.50488,36.0658,14.88135,12.9198-8.84033-.49939-50.97705,4.60046-68.37158,1.50415-5.13037,17.54285-17.79443,22.52759-25.20801,7.21118-10.7251,13.28857-27.52637,19.00208-35.75049-8.26941,2.22998-210.6499,148.79053-210.6499,148.79053,10.72607,19.62695,21.31799,40.16211,31.66016,59.73047,4.73706,8.96289,26.69836,47.01807,27.3219,52.56396,21.08618,6.56787,51.08447-42.9624,43.59949-56.09326Z"/>
  <path class="e" d="M508.40029,750.8653c-7.59277,2.45068,3.45166,30.44043-28.08435,28.23877-3.78296-.26416-30.6676-12.07373-19.80603,5.53369,2.23047,3.61572,17.91711,8.28027,22.67969,8.41846,34.87964,1.01123,44.5105-48.42041,25.21069-42.19092Z"/>
  <path class="e" d="M413.2006,917.48831c.04751-36.33972-57.80913-45.12054-70.21681-11.22921-30.5533,62.44894,79.30892,79.40708,70.21681,11.22921ZM361.01664,934.564c-9.03042-13.2717-3.80763-23.87754,5.63635-28.50003,22.03485-10.78528,39.87096,21.31591,18.62459,33.58166-7.72329,4.45873-17.5443,3.92451-24.26094-5.08163Z"/>
  <path class="d" d="M1195.08925,1559.357l101.12885,14.02686-.07037,9.71826-89.47931,319.91211c-5.0401,6.00439-31.88171-2.81982-39.66577-3.9668-87.06458-12.82861-173.76697-28.83936-261.21069-39.31738,21.52594-82.56445,43.75079-165.07129,67.41278-247.0332,7.77557-26.93359,13.82019-54.48193,22.83594-81.05176l106.36267,13.6748c-3.22937-12.72754-4.00928-27.4292,2.80865-39.30273l-137.51349-19.52734c-16.86548,70.90039-94.23755,345.65527-112.47205,409.73438l377.74158,59.01465c5.96362-20.5752,12.2608-41.22119,18.29456-61.80615,30.82489-105.1626,73.54657-231.82617,95.49457-336.8833.85742-4.104,1.31677-8.34229,2.48822-12.40186-1.33154-5.13477-90.17798-16.4751-103.60016-18.479-13.96515-2.08496-28.1217-3.80469-42.12994-5.61475,2.4068,15.38672.44653,26.41064-8.42603,39.30322Z"/>
  <path class="c" d="M1102.40334,1545.31989l-106.36267-13.6748c-9.01575,26.56982-15.06036,54.11816-22.83594,81.05176l193.79791,286.35059c7.78406,1.14697,34.62567,9.97119,39.66577,3.9668l89.47931-319.91211.07037-9.71826-101.12885-14.02686c-23.16486,33.66016-81.79651,28.88086-92.68591-14.03711Z"/>
  <path class="i" d="M1107.86355,1532.79108c2.91034,65.2876,110.30255,50.53174,87.22571-26.77393-11.84766-39.68896-72.08005-37.29276-84.25995-2.80762,1.32483,10.22461-3.50183,17.55469-2.96576,29.58154Z"/>
  <path class="e" d="M1164.85981,1730.1817c-3.0351-17.13574-10.10347-46.10098-20.18396-62.27344-17.79474-25.27832-42.43994-46.25293-67.55054-49.59668l-41.63334-7.05845-62.28725,1.44371c-23.66199,81.96191-45.88684,164.46875-67.41278,247.0332,87.44373,10.47803,174.14612,26.48877,261.21069,39.31738.60645-10.08203,3.43018-101.91504,3.92615-112.28857.45502-9.51562-4.15033-45.74463-6.06897-56.57715Z"/>
  <path class="d" d="M1414.40888,354.66657c52.74274-96.63037-28.25739-206.31348-135.07959-189.104l-2.57556-3.02393c12.10559-102.10303-95.09913-144.28596-174.477-91.83723-14.78107,9.7666-17.8733,20.73824-32.80775,29.97701-70.31628-136.80371-312.10081-120.88295-337.63017,42.61266-130.69342-28.67578-189.52728,131.40576-120.47662,226.67334,9.54077,13.16309,16.35968,24.18506,30.50195,34.16895-95.94226,121.37842,27.56122,264.12354,165.70953,235.56982,35.77136,97.8833,165.45825,107.09619,234.44598,38.06299,111.11218,108.44775,340.32397,65.13184,316.14026-117.68262,99.48047-9.53613,148.28479-150.35254,56.24896-205.41699Z"/>
  <ellipse class="d" cx="775.13106" cy="727.96002" rx="34.18494" ry="34.16895"/>
  <path class="j" d="M757.9602,307.91956c5.03206,15.17488,31.98408,43.1205,32.13026,46.37953.33141,7.38663-19.09635,29.52981-20.37363,39.34893-6.31694-11.14553-5.72502-24.45109-11.05507-36.92555-10.06659-23.56023-44.71279-55.637-44.44405-8.1772.19416,34.28541,34.81345,64.30749,35.07712,69.80707.44448,9.27216-28.25861,34.6303-23.223,42.26965,10.27494,15.58814,29.20036-29.41585,37.02912-31.61032,14.18065-3.97465,36.74988,16.72817,75.6813.16662,66.23277-28.17606-30.34488-45.31142-57.2988-31.09981,5.51199-3.90375,18.9805-34.92607,20.76929-35.98304,2.39616-1.41605,43.4985,3.67078,55.64409,1.74625,52.33182-8.29116,62.14411-51.01713-7.75628-42.69305-6.36999.75816-29.49695,13.5365-27.8951,4.16204.30558-1.78829,13.44293-32.13197,15.01452-33.04004,14.11392-8.15593,47.32052,10.51044,79.69014-20.82133,44.76369-43.32814-49.6245-32.39026-65.59262-8.83104,8.47221-43.73938,47.70087-59.23079,46.63282-109.00913-1.20739-56.26956-35.5825-20.96162-45.99703,9.23671-11.89983,34.50521.8164,60.79371-12.35399,93.95125-8.87079-15.87632-8.58939-32.24693-20.37065-48.00879-32.84455-43.94247-40.87374-1.51126-29.25828,32.15526,7.76236,22.4982,30.74549,34.93266,33.76167,42.18913,3.40242,8.18632-13.17628,35.156-19.02,43.55301,6.56149-53.0085-75.92269-106.61361-46.79184-18.76614Z"/>
  <path class="e" d="M1019.17301,563.17315c-49.37494,51.60254-136.49579,7.87598-108.93146-62.59131,11.10718-28.39502,46.0401-45.26611,75.24268-35.68311,5.92371-5.50781-22.06543-17.16309-25.36157-18.13086-84.84039-24.91553-151.03949,71.57617-103.3476,142.60254,41.61389,61.97461,145.16223,48.30029,162.39795-26.19727Z"/>
  <path class="i" d="M1249.76208,561.18076l22.43762-44.88477-42.0752,22.43359c-2.67596-1.77637-8.64691-44.25293-11.30426-47.71729-4.26923-5.56592-4.86865,2.0332-5.86694,3.95264-3.69604,7.10596-9.11304,42.51465-10.99207,43.76465l-42.07526-22.43359,22.44452,42.05518-44.9223,11.30713s30.16571,14.10693,44.9201,16.82764l-22.44232,42.07178,42.07422-22.43506c2.52399,1.68018,8.70697,62.04053,17.19501,43.80225,2.98145-6.40625,9.08716-42.55273,10.96924-43.80078l42.07635,22.43213-22.44226-42.07031,44.92542-11.27832s-39.83771-15.5-44.92188-14.02686Z"/>
  <path class="h" d="M1293.94219,269.9597c6.60923-5.07191-19.32761-20.61639-22.87167-26.2203-.23326.40396-4.60215,4.83136-4.96371,4.96739,5.15734,3.85993,20.64341,26.77175,27.83538,21.25291Z"/>
  <path class="h" d="M1268.33404,316.38218c-13.87416-16.88147-47.55264-26.06596-45.64992-52.32079,2.49113-34.37334,36.80889,9.03452,51.42696-8.2174.23823-.28088,2.27353-6.48994,2.33144-6.99091,3.78181-32.71924-48.59856-41.40073-72.34726-19.88-10.41665,9.43903-15.78214,30.90869-13.35328,43.79089,6.46598,34.29471,44.76598,47.34876,49.63774,66.92032,1.52121,6.11137,2.18963,17.97542-5.13638,20.61809-26.19758,9.45038-33.29829-24.48765-45.46247-39.97523-13.97281-17.79059-32.45656-40.07333-63.90456-29.0818-32.5754,11.38558-37.9954,45.01118-22.39576,73.39555,7.72712,14.05965,38.0752,33.82778,34.42684,49.75675-6.28409,27.43674-41.65659-9.52212-62.94598,11.7538-19.15008,19.13827,3.81439,31.85997,1.0141,47.45577-.92397,5.14591-19.27866,15.57715-8.15726,17.59037,2.82937.51192,20.86573-17.3342,21.70677-20.34085,2.76239-9.87596-8.5294-18.47274-.36007-26.43642,15.27134-9.72316,37.72106,22.61022,68.25224,3.55706,37.97869-23.70133,3.96557-68.75803-17.4865-89.54391-2.99737-2.9045-11.76448-14.21502-1.07186-22.19801,22.06934-16.47673,40.61517,37.08775,52.66617,49.92901,17.55733,18.70823,35.71899,22.80356,59.27163,14.16219,7.75635-2.84573,6.07013-2.71887,11.65723-6.99091,25.55054-19.53792,26.48718-51.88061,5.88019-76.95354Z"/>
  <path class="e" d="M1004.10006,1413.37409h8.42603c-4.84979-.45996-7.742.06348-8.42603,0Z"/>
  <path class="e" d="M1068.68685,1418.05085c-3.36871-.67383-7.25507-1.5-11.22217-1.86963l11.22217,1.86963Z"/>
  <path class="g" d="M1032.00531,780.13288l-67.22656,318.81689c15.56775-2.07764-22.06586,80.87695-24.85699,91.89355-1.36279,5.37842,3.27313,35.71582,2.47754,47.15723-3.49951,50.32666-38.00171,105.56104-47.73877,155.56152l143.14349,17.00488c1.68573-.29932,3.79712.07861,5.61731,0,17.0152-.73682,43.30157,2.36377,58.98199,8.42188,10.56299-2.83008,51.71991,1.81592,65.71472,3.11084,22.91077,2.11963,142.50024-5.02393,147.74384,8.11865,33.36017-168.99805,80.97815-335.98193,112.34656-505.3252,8.26691-44.62891,13.81622-89.74756,19.66064-134.75342l-415.86377-10.00684Z"/>
  <path class="e" d="M1317.48987,1447.79059l-6.10791-15.30762c-1.18408-.89062-7.35205-3.89844-37.1626-4.99805-20.17334-.74512-44.07568-.44434-65.16357-.17871-19.1543.24023-34.28223.43164-41.39795-.22754-1.83545-.16992-4.13574-.39648-6.77246-.65723-14.62744-1.44434-42.26114-7.94856-50.56583-5.72004h-5.33333l-9.10345-1.83908c-15.37842-5.94141-36.32259-3.98189-52.24495-3.30025-.97656.04297-1.93359-.00879-2.77832-.05566-.81689-.04395-1.74268-.09473-2.18311-.0166l-.72803.12988-.73438-.08789-148.49072-17.63965,1.0293-5.28613c4.35742-22.37598,13.65674-45.9873,22.6499-68.82031,11.35547-28.83105,23.09717-58.64355,25.00928-86.13184.36914-5.30957-.59131-15.77344-1.43896-25.00488-1.14404-12.45996-1.74951-19.67383-.89746-23.03418.72949-2.88086,3.11523-8.95996,7.26855-19.45605,4.83203-12.21094,10.8457-27.40918,15.31201-40.93066,5.25-15.89453,5.95752-22.50293,5.89307-25.06934l-5.12256.68359,69.54443-329.80762,425.57227,10.23926-2.46826,19.05273c-5.15576,39.91602-10.48779,81.19043-17.94971,121.47754-16.73828,90.36035-38.43848,181.48535-59.42383,269.6084-18.37158,77.14844-37.36914,156.92383-52.93408,235.77441l-3.27734,16.60352ZM1311.54798,1432.62165h0ZM1252.84829,1420.93129c11.72021,0,14.32323-3.76766,24.67576-3.32332,18.15039.78027,28.69385,2.27832,34.86914,4.41016,15.32471-76.6748,33.74756-154.03711,51.58008-228.92188,20.95654-88.00293,42.62695-179.00195,59.31885-269.11426,7.4126-40.0166,12.72656-81.15332,17.86523-120.93555l1.04053-8.04199-406.15771-9.77246-67.39877,319.46997c.31348.28711.60596.60254.87549.94727,6.0415,7.73145.33286,22.17456-17.87466,68.18921-3.3623,8.49707-15.95947,13.37988-16.56689,15.77637-.44775,2.12305.21826,15.63184.89746,23.03418.92529,10.07812,1.86426,18.89062,1.43896,25.00488-2.01855,29.02539-13.41292,60.56888-25.04622,90.10501-8.10937,20.58984-19.09294,50.16452-23.64226,70.13327l150.88364,13.70581c1.28076-.13379.44701-.1525,1.56322-.09195.67725.03711,4.93456,1.69462,5.42529,1.67705,16.26416-.71484,36.87356,2.99816,55.80791,5.80578,10.54785-1.85938,138.41762,1.94246,150.44496,1.94246Z"/>
  <path class="j" d="M1030.92428,1413.62262c-.56866-.11523-1.0907-.20459-1.5462-.24854.51556.19238,1.03302.2583,1.5462.24854Z"/>
  <path class="j" d="M1074.31667,1418.98883l-5.62982-.93799c2.11871.42383,4.03571.78809,5.62982.93799Z"/>
  <polygon class="c" points="1205.67797 887.353 1203.18139 877.66941 1203.20434 877.66355 1205.67797 887.353"/>
  <rect class="c" x="1216.56373" y="893.72956" width="9.99997" height="1.08281" transform="translate(-266.45678 615.4637) rotate(-25.59442)"/>
  <rect class="c" x="1208.25112" y="883.2613" width="9.9997" height=".87968" transform="translate(-130.03244 1553.39907) rotate(-62.56733)"/>
  <rect class="c" x="1221.40762" y="905.35882" width="9.99968" height=".84286" transform="translate(-255.87013 548.89617) rotate(-22.91094)"/>
  <rect class="c" x="1219.03539" y="894.45332" width="10" height="11.29838" transform="translate(-252.24474 540.87538) rotate(-22.65301)"/>
  <rect class="c" x="1212.88666" y="887.6465" width="10.0001" height=".62784" transform="translate(-289.27331 901.76022) rotate(-36.62036)"/>
  <rect class="c" x="1222.14629" y="907.11669" width="9.99988" height=".6689" transform="translate(-268.29897 602.49359) rotate(-24.95625)"/>
  <rect class="c" x="1211.49529" y="885.97495" width="10.00061" height=".59593" transform="translate(-277.49914 1068.8132) rotate(-43.04108)"/>
  <rect class="c" x="1202.69869" y="877.94299" width=".43073" height="9.9997" transform="translate(-226.53248 454.839) rotate(-19.6064)"/>
  <rect class="c" x="1221.78065" y="906.27258" width="9.99971" height=".74287" transform="translate(-261.55714 572.2119) rotate(-23.80189)"/>
  <rect class="c" x="1205.83566" y="877.27161" width=".44537" height="9.99969" transform="translate(-57.17951 84.01725) rotate(-3.89745)"/>
  <rect class="c" x="1214.18101" y="889.52788" width="10.00027" height=".68833" transform="translate(-285.92953 776.22009) rotate(-31.8072)"/>
  <rect class="c" x="1214.79615" y="890.53187" width="10.00045" height=".7321" transform="translate(-281.69212 726.17209) rotate(-29.88234)"/>
  <rect class="c" x="1205.84103" y="882.48602" width="10.00054" height=".54744" transform="translate(44.92532 1824.05742) rotate(-75.00933)"/>
  <rect class="c" x="1222.50125" y="907.87523" width="9.99943" height=".61863" transform="translate(-276.18842 642.71135) rotate(-26.48415)"/>
  <rect class="c" x="1204.16716" y="882.08969" width="10.00062" height=".58911" transform="translate(156.26104 1946.37484) rotate(-81.41992)"/>
  <rect class="c" x="1212.2035" y="886.78123" width="10.00021" height=".60937" transform="translate(-286.16518 978.67365) rotate(-39.57044)"/>
  <rect class="c" x="1202.58548" y="881.95433" width="10.0004" height=".55417" transform="translate(277.13451 2053.06705) rotate(-87.67711)"/>
  <rect class="c" x="1215.97728" y="892.64368" width="9.99952" height=".87762" transform="translate(-271.61373 647.00513) rotate(-26.82166)"/>
  <rect class="c" x="1215.39277" y="891.57393" width="10.00009" height=".7847" transform="translate(-276.72864 683.18453) rotate(-28.22349)"/>
  <rect class="c" x="1213.54505" y="888.5634" width="9.99973" height=".65439" transform="translate(-288.81324 835.50899) rotate(-34.08136)"/>
  <path class="c" d="M1173.81615,943.34714l-25.2749-50.71289,3.05811-10.32422,41.39795.5459.46582-.22363.1333.23145.57031.00684-.0127.95898,2.10889,3.65234,1.7002.53125,1.19092-.61816.61133,1.17969.48975.15234-.1543.49414,8.58594,16.56055-20.79785,22.28613-14.07275,15.2793ZM1159.60619,892.41648l16.68652,33.48145,6.20752-6.71191-19.83105-26.72852-3.06299-.04102ZM1186.7434,892.7739l.69971,21.11523,9.11768-9.76953-5.85498-11.29297-3.9624-.05273Z"/>
  <rect class="c" x="1209.99407" y="884.56206" width="10.00061" height=".58626" transform="translate(-233.92791 1284.61044) rotate(-51.48917)"/>
  <rect class="c" x="1209.18747" y="883.94752" width="10.00053" height=".62053" transform="translate(-191.63615 1413.24065) rotate(-56.68506)"/>
  <rect class="c" x="1199.19408" y="879.60856" width=".34571" height="10.0006" transform="translate(-282.15089 722.99571) rotate(-30.18556)"/>
  <rect class="c" x="1201.40705" y="878.43409" width=".47446" height="10.0009" transform="translate(-253.53116 556.52474) rotate(-23.66141)"/>
  <rect class="c" x="1197.01057" y="881.03704" width=".3597" height="10.00009" transform="translate(-291.9023 855.54983) rotate(-35.33214)"/>
  <rect class="c" x="1195.86031" y="881.78727" width=".54498" height="9.99961" transform="translate(-292.39989 849.4315) rotate(-35.11487)"/>
  <rect class="c" x="1210.76018" y="885.23432" width="10.00013" height=".58696" transform="translate(-261.07565 1170.46322) rotate(-46.98887)"/>
  <rect class="c" x="1223.4854" y="908.96481" width="9.99988" height="1.66114" transform="translate(-300.07911 889.93131) rotate(-35.77849)"/>
  <rect class="c" x="1200.24868" y="878.99346" width=".44549" height="10.00033" transform="translate(-271.00933 644.5761) rotate(-27.12555)"/>
  <rect class="c" x="1222.84576" y="908.5464" width="9.99986" height=".58976" transform="translate(-285.39975 699.82994) rotate(-28.64453)"/>
  <path class="c" d="M1175.33471,1319.8364l-33.86621-7.88379,36.2749-112.94238-15.78662-27.62207,10.23633-13.67285,13.55713,8.46289,2.06055-1-22.53223-138.98535-66.66016-79.94824,103.20361,30.87695-.30371,8.0166.59375.72168,44.11377-10.16504-8.12891,24.74609-43.29492,35.73145,16.62305,70.72852,4.47168,2.5332,15.38623-8.33008,11.39844,16.41699-28.32812,32.99316-39.01855,169.32227ZM1154.30932,1304.67526l13.53125,3.14941,37.32129-161.95703,24.89551-28.99512-1.88379-2.71387-12.38623,6.70703-13.09668-7.41992-19.04492-81.0332,45.85352-37.84277,1.69141-5.14844-32.87061,7.5752-7.03516-8.56055.1748-1.94922.07617-2.00391-63.97412-19.14062,47.1499,56.54785,24.16162,149.03418-13.72949,6.66406-10.45166-6.52539-.7959,1.06348,14.71533,25.74707-34.30225,106.80176Z"/>
  <path class="c" d="M1172.29418,974.32175l-15.33936-19.46777-17.43799-7.46973-1.31445-.77148-19.57861-25.77637,32.17676-47.75391,10.02881,13.27734-1.58105,5.33887,17.04443,34.19922,4.26318-4.62891,16.00488-17.14941-7.23145-13.94727,1.89551-6.07812,5.77734-3.89453,1.50977-.81836,1.56689-.71387,1.71729-.61914,1.86035-.47852,2.44824-.31055,1.21777-.04297,1.01953.0498,2.25195.29297,2.27295.5918,2.26514.89258,1.49023.83203,1.1958.83789,1.0752.90039,1.59326,1.61328,2.01611,2.59082,1.44678,2.27148,1.24805,2.26172,1.27637,2.6123,4.79395,11.46484,12.30859-6.57129,5.21533,11.23242-26.32471,27.62891-10.76074,9.81543-18.0708,24.46973-21.34131,3.31836ZM1144.84936,938.83054l18.37695,7.82422,13.30615,16.8877,11.50244-1.78906,16.2085-21.94824,11.35449-10.35645,12.74121-13.38184-2.8999-1.94629-1.84033-2.62402-1.21875-2.44043-.7832-1.81445-4.31152-10.32812-2.20166-4.16211-1.58691-2.30176-1.01904-1.14648-.93115-.79785-.77783-.45898-1.40625-.50684-1.09961-.23535-.96777-.08008-.89551.03613-.90869.14355-1.0498.30273-.93115.36914-.86816.42383-.7876.44629-1.41406.93066,8.24658,15.90527-20.79785,22.28613-14.07275,15.2793-24.78857-49.7373-18.11084,26.87891,13.93262,18.3418Z"/>
  <path class="c" d="M1234.26977,1122.93991l-10.81885-15.58301,75.37256-90.54883c2.9458-3.54004,7.74316-4.33105,11.66797-1.91992,3.9248,2.40918,5.39209,7.0459,3.56885,11.27441l-36.73047,85.18848-43.06006,11.58887ZM1236.00561,1107.90573l2.46338,3.54785,31.59229-8.50293,32.1665-74.60156-66.22217,79.55664Z"/>
  <path class="c" d="M1169.9143,1177.4448l-40.37305-10.55469-59.07373-90.28223c-1.89258-2.89258-1.33398-6.59277,1.32812-8.79785,2.66162-2.20312,6.40186-2.06445,8.89111.33105l99.40527,95.70898-10.17773,13.59473ZM1135.79906,1158.19089l30.13965,7.87891.85449-1.1416-71.85107-69.17969,40.85693,62.44238ZM1078.83568,1071.13327l.00439.00586-.00439-.00586h0Z"/>
  <path class="c" d="M1198.32006,996.99655l-7.03516-8.56055.1748-1.94922.07617-2.00391-80.48291-24.08008-20.11377-12.09863-1.60156-39.6416,12.36963-46.65332,32.32324-4.30371,31.59912-19.58887,32.43994,19.24121,19.12402-4.0791,25.91895,37.54883,20.68896-7.54492,1.2998,40.79297-22.61377,62.74219-44.16748,10.17871ZM1201.5183,985.13816l.59375.72168,32.81689-7.56152,20.1167-55.81445-.79883-25.07227-8.40918,3.06641-.70654.72656,3.66064,7.88477-26.32471,27.62891-10.76074,9.81543-18.0708,24.46973-8.07031,1.25488,16.25684,4.86328-.30371,8.0166ZM1115.12719,951.18405l50.94629,15.24219-9.11865-11.57227-17.43799-7.46973-1.31445-.77148-19.57861-25.77637,32.17676-47.75391,7.03223,9.30957,35.16455.46387.10693-.05176,1.48438-1.04785,2.41357-1.55664,1.50977-.81836,1.56689-.71387,1.71729-.61914,1.86035-.47852,2.44824-.31055,1.21777-.04297,1.01953.0498,2.25195.29297,2.27295.5918,2.26514.89258,1.49023.83203,1.1958.83789,1.0752.90039,1.59326,1.61328,2.01611,2.59082,1.44678,2.27148,1.24805,2.26172,1.27637,2.6123,4.79395,11.46484,6.63623-3.54297-25.1499-36.43457-16.42285,3.50293-30.5874-18.1416-28.26709,17.52246-27.81836,3.7041-10.26807,38.72754,1.32324,32.74707,14.41357,8.6709ZM1144.84936,938.83054l18.37695,7.82422,13.30615,16.8877,11.50244-1.78906,16.2085-21.94824,11.35449-10.35645,12.74121-13.38184-2.8999-1.94629-1.84033-2.62402-1.21875-2.44043-.7832-1.81445-4.31152-10.32812-2.20166-4.16211-1.58691-2.30176-1.01855-1.14551-.93213-.79883-.77734-.45898-1.40625-.50684-1.09961-.23535-.96777-.08008-.89551.03613-.90918.14355-1.04883.30273-.93164.36914-.86768.42383-.78809.44629-3.71777,2.53711-2.93213,1.40234-42.3999-.55762-1.53906-2.03809-20.34863,30.19922,13.93262,18.3418Z"/>
  <path class="d" d="M1005.89082,1638.31597c-11.6698,16.65625-11.86755,38.81543,1.58862,54.58008,27.24146,31.91455,71.01361-.48145,89.23029,11.87354,26.45599,17.94336-39.17554,32.86133-47.81702,38.29102-29.69897,18.66113-35.57874,61.26465-4.60999,81.49072,36.69794,23.96777,71.10535-8.87891,97.19287,3.93604,23.31927,11.45508.07709,44.35205,35.75354,49.86865,3.3142.51246,18.07752.32641,21.69054.22809,1.94499-.05293,3.43845-1.55379,3.71088-3.48033,1.28736-9.10352-8.45022-5.5841-16.36782-8.73571-12.60529-5.01709-9.94871-22.37973-9.65055-31.56234.151-4.65088-.14255-8.23076-2.19177-15.4043-12.62665-42.65674-100.04803-9.71484-106.35669-32.8916-6.0144-22.0957,46.26788-25.77197,61.51154-38.60254,34.93201-29.40283,11.43323-81.87646-32.37695-82.84375-15.88788-.35059-66.84161,23.2876-65.2702-9.42627,1.07214-22.31982,37.35765-10.95181,59.11624-29.36115,6.63625-5.61475,16.23083-14.16638,13.70115-24.18391-2.29885-9.10345-25.44239-17.74406-57.28736-3.95402-12.79407,5.54053-12.43574,12.88922-19.08826,19.13336-5.26227,4.93896-18.14026,14.85156-22.47906,21.04443Z"/>
  <path class="e" d="M627.34658,406.40143c-75.09644,98.46338.5282,233.5625,117.34192,245.78906,12.84332,1.34424,26.98672,1.94943,56.45864-1.0523,0,0,10.48557,21.26568,15.2551,27.62847,18.92249,25.24414,55.6037,46.68506,86.58588,52.41846,51.24872,9.48389,99.88995-6.31445,139.02936-39.39648,74.74567,67.27734,214.40294,81.46473,285.1842,4.40967,31.50868-34.30149,48.75006-81.61184,42.02966-127.83057,100.02673-13.67529,147.8089-156.98438,58.79596-217.77783,49.80176-96.44922-32.93768-206.60791-137.45837-197.70508-.3255-128.6499-146.68719-147.16699-220.46472-61.83203-79.08142-133.19238-311.73804-120.33252-347.14069,39.06348-149.72095-13.33301-192.6554,156.11963-109.26782,261.37842,2.89355,3.65234,7.1296,7.80442,13.65088,14.90674ZM611.3622,369.96442c-69.05066-95.26758-10.2168-255.34912,120.47662-226.67334,25.52936-163.49561,267.40582-171.04855,337.72211-34.24484,12.50575-12.68966,22.19953-25.09158,36.98059-34.85819,79.37787-52.44873,182.31781-13.75244,170.21222,88.35059l2.57556,3.02393c106.8222-17.20947,187.82233,92.47363,135.07959,189.104,92.03583,55.06445,43.23151,195.88086-56.24896,205.41699,24.18372,182.81445-205.02808,226.13037-316.14026,117.68262-68.98773,69.0332-198.67462,59.82031-234.44598-38.06299-138.14832,28.55371-261.65179-114.19141-165.70953-235.56982-11.01587-11.63885-20.96118-21.00586-30.50195-34.16895Z"/>
  <polygon class="f" points="449.80652 1486.28668 449.80903 1486.28229 497.13477 1393.78376 449.80866 1486.28278 449.80652 1486.28668"/>
  <path class="f" d="M676.55964,1332.43708c-.6402,4.32715-1.23755,8.79639-1.98962,13.14697.75195-4.3501,1.34973-8.81982,1.98962-13.14697Z"/>
  <path class="f" d="M643.69953,1099.35016c.19897-.51465.51068-.99414.93457-1.39648-.42389.40186-.7356.88184-.93457,1.39648Z"/>
  <path class="f" d="M663.68549,1023.60993c15.50494-8.31738,32.68976-11.70215,40.14404,6.49365-6.93945-18.50098-24.39825-14.96631-40.14404-6.49365Z"/>
  <path class="f" d="M655.06458,1028.80133c-6.54718,4.34082-12.29651,9.02441-16.15625,12.53223,3.89874-3.51416,9.63519-8.20166,16.15625-12.53223Z"/>
  <path class="f" d="M605.24329,1046.90338c-10.70667-6.15088-23.63635,27.39941-24.90863,61.48535l10.09985-19.29639c2.85059-5.70117,31.10345-32.82764,14.80878-42.18896Z"/>
  <path class="f" d="M624.54493,1590.14508c-11.01337,36.42676-29.28168,95.47998-36.12732,109.58008,10.07666-20.75488,33.34644-84.57178,35.84131-105.98242.14423-1.2373.23267-2.43164.28601-3.59766Z"/>
  <path class="f" d="M551.72699,1282.85114c-2.01929,3.64746-4.05609,7.06885-5.73407,10.56006,1.67773-3.49072,3.71533-6.91309,5.73407-10.56006Z"/>
  <path class="e" d="M695.14692,1295.46491c-3.65778,6.18604-11.62878,10.3418-15.00421,20.09375-.15887.45898-.30975.93066-.45703,1.40869-.04181.13525-.08264.27246-.12347.40918-.11304.37842-.22284.76172-.32947,1.15088-.03235.11768-.06573.23438-.09753.35303-.13129.49121-.258.98926-.38031,1.49512-.02979.12305-.05811.24902-.0874.37305-.09448.3999-.18652.8042-.27618,1.21289-.03625.16504-.07257.33057-.10809.49756-.0976.45752-.19281.91992-.28522,1.38721-.01593.08008-.03253.15918-.04828.23975-.10126.51807-.19879,1.04297-.29462,1.5708-.03595.19824-.07111.39795-.10638.59717-.06519.36865-.12927.73926-.19238,1.11182-.03491.20605-.07031.41162-.10461.61914-.08337.50342-.16522,1.01025-.24567,1.52002-.04547.28809-.08997.57861-.13464.86865-.03967.25732-.07935.51465-.11853.77344-.05389.35547-.1076.71191-.16071,1.06982-.01093.07324-.02167.14697-.03253.22021-.63989,4.32715-1.23767,8.79688-1.98962,13.14697,0,.00049-.00006.00049-.00006.00049l.00024.00049-18.75854,112.70996-22.48438,102.49805s-3.58417,12.15918-8.78235,29.35205c-.05334,1.16602-.14178,2.36035-.28601,3.59766-2.49487,21.41064-25.76465,85.22754-35.84131,105.98242,53.3678-2.76025,106.56622-.91895,160.09393,0l-27.32886-189.16406c21.09827-24.2832,40.70471-49.86328,61.03284-74.72803l-87.0686-140.36816Z"/>
  <path class="c" d="M753.64139,1192.00026c-.3678-1.70117,1.1954-10.57471,1.1954-10.57471,0,0-16.21838,15.95342-17.1839,21.39629s-.87354,16.89111-2.20691,20.20117c-.78809,1.95703-2.53619,4.83789-3.83722,6.87305,14.7901,24.63867,15.96667,24.49658,25.17059,36.39795,10.29883,8.45361,29.97644-1.27002,30.87158-14.20898.27441-3.9668-17.53007-36.77997-20.83714-43.16522l-1.45028-2.63214s-11.35428-12.58623-11.72214-14.2874Z"/>
  <path class="e" d="M105.344,1396.54596c10.69969-6.23536,14.11169,29.04541,23.32971,27.69043,36.2467-17.1709,73.28882-33.36084,111.40259-46.021,18.35425-6.09668,113.11963-27.21143,118.07507-30.76904,9.96252-7.15186-30.45667-68.90576-21.09143-71.65039,4.93945-1.44824,6.89575.93994,9.48816,4.55273,1.99829,2.78467,26.61804,59.51611,27.29761,62.87549,1.82922,9.0415-4.50671,9.64893-3.44812,19.60645,3.646,34.29639,58.2959,131.01025,54.15186,160.23877-.92285,6.50928-5.26538,14.64062-4.63672,22.23291.11005.11768.22058.22217.33142.31934.03479.03027.06976.05615.10461.08447.0769.06201.15387.12109.2312.17383.04047.02734.08105.05273.12164.07764.07404.04492.14832.08545.22272.12207.03973.01953.07935.03955.1192.05664.08417.03564.1687.06445.25336.08936.02887.0083.05756.02002.08643.02686.1134.02832.22729.04736.34155.05615.02509.00195.05029,0,.07544.00098.0896.00391.17944.00342.26953-.00439.03998-.00342.08008-.01025.12018-.01611.0769-.01074.15399-.0249.23132-.04395.04242-.01074.08484-.02197.12738-.03467.07874-.02393.15759-.05273.23676-.08496.03894-.01562.07788-.02979.11688-.04736.10339-.04688.20703-.10107.3111-.16113.01379-.0083.02747-.01416.04126-.02246.1178-.07031.23615-.15088.35486-.23828.03632-.02686.07288-.05713.10925-.08545.08374-.06494.16748-.13281.25165-.20605.04333-.0376.08679-.07715.13025-.11719.07947-.07275.15918-.14893.23901-.229.04297-.04297.08594-.08545.12903-.13037.08752-.0918.17523-.18848.26324-.2876.03436-.03906.0686-.07568.10303-.11572.12146-.14111.24329-.28955.3656-.4458.02332-.02979.04675-.0625.07013-.09277.1001-.13037.2005-.26416.30121-.40381.04236-.05908.0849-.12061.12738-.18115.08319-.11816.16644-.23926.25006-.36426.04578-.06836.09161-.1377.13751-.20752.08325-.12793.16687-.25879.25055-.39258.04346-.06934.08679-.1377.13031-.2085.10077-.16406.2019-.3335.30328-.50635.02557-.04346.05109-.08496.07666-.12891.12598-.2168.25244-.44092.37933-.67041.03778-.06836.07568-.13965.11353-.20898.09143-.16748.18298-.3374.2749-.51123.04578-.08643.09161-.1748.13745-.2627.08612-.16553.17249-.33398.25909-.50488.04657-.0918.0932-.18359.13989-.27686.09161-.18359.18353-.37012.27563-.55908.03912-.08057.07825-.15918.11749-.24072.13086-.271.26208-.54688.39392-.8291.01495-.03223.03003-.06543.04498-.09766.11749-.25244.23535-.50879.35364-.76953.04529-.09961.09076-.20166.13617-.30273.08875-.19727.17773-.39648.26697-.59863.05078-.11475.10175-.23096.15265-.34717.08783-.20068.1759-.40381.26416-.60889.04785-.11084.09564-.22168.14368-.33398.10309-.24072.20654-.48535.31018-.73193.03284-.07812.06555-.15479.09851-.2334.13617-.3252.27277-.65527.40991-.98926.0351-.08545.07043-.17285.10559-.25879.10193-.24951.2041-.5.30664-.75391.05194-.12891.10406-.25879.15613-.38867.08899-.22168.17816-.44482.26764-.66992.05383-.13525.10773-.271.16168-.40723.09076-.22998.18182-.46143.27301-.69434.05029-.12793.10046-.25537.15088-.38477.11902-.30469.23846-.61279.35822-.92285.03595-.09277.07196-.18555.10791-.2793.12561-.32568.25153-.65381.37799-.98486.05115-.13379.1026-.26904.15387-.40381.09137-.24023.18286-.48047.27466-.72314.05908-.15576.11829-.3125.17761-.46924.09229-.24463.18469-.48975.2774-.73633.05255-.14014.10516-.27979.1579-.42041.10504-.27979.21033-.56152.31592-.84375.04016-.10791.0802-.21436.12042-.32227.14343-.38428.28723-.771.4317-1.15967.04443-.11963.08923-.24072.13379-.36084.11212-.30176.22437-.60449.33716-.90869.03955-.10693.07922-.21436.11884-.32129.11804-.31885.23627-.63867.35498-.95996.0589-.15918.1178-.31836.17682-.47852.16132-.43652.3233-.875.4859-1.31494.28033-.75928.56268-1.52295.84686-2.29053.02545-.06885.05109-.13818.0766-.20703.1283-.34619.2569-.69336.38599-1.04102.04852-.13037.09723-.26123.14587-.39209.10645-.28662.21313-.57324.32013-.86035.05518-.14795.11041-.2959.16577-.44434.11359-.3042.22754-.60889.34174-.91357.04553-.12158.09088-.24268.13647-.36426.15948-.42529.31952-.85059.48022-1.27637.0144-.03809.02899-.07617.04346-.11426.14514-.38428.29071-.76807.43677-1.15234.04596-.12109.09222-.2417.13831-.36279.11536-.30225.2309-.60498.34686-.90723.05566-.14502.11151-.29004.1673-.43506.11084-.28857.22205-.57617.33344-.86377.05316-.1377.10632-.2749.15961-.41211.14081-.36279.2821-.72461.42377-1.08594.02283-.05811.04547-.1167.0683-.1748.16821-.42822.33704-.85596.50653-1.28271.03174-.07959.06372-.15918.09552-.23926.13202-.33154.26434-.66211.39716-.99219.05646-.14062.11304-.28027.16962-.42041.11279-.2793.22583-.55762.33917-.83545.05878-.14404.11768-.28809.17657-.43213.12262-.29883.24554-.59668.36884-.89404.04688-.11328.09357-.22656.14056-.33936.17114-.41113.34271-.8208.51508-1.22803l.03113-.07324c.15991-.37744.32043-.75293.48145-1.12695.05463-.12646.10944-.25244.16412-.37891.11951-.27588.23926-.55078.35938-.82471.06042-.13818.12109-.27539.1817-.4126.11993-.27148.24017-.5415.36066-.81055.05634-.12598.11261-.25195.16907-.37744.13745-.30469.27545-.60742.41364-.90869.03979-.08691.07941-.1748.11926-.26123.17719-.38428.35498-.76611.53345-1.14453.03754-.07959.07526-.15771.11285-.2373.13947-.29395.27917-.58691.41943-.87695.06073-.12598.1217-.25049.18256-.37549.12183-.25.24396-.49902.36639-.74561.06268-.12646.12537-.25293.18823-.37842.1261-.25195.25275-.50146.37946-.75.05725-.1123.11432-.2251.17169-.33691.18042-.3501.36139-.69775.54309-1.04102.00073-.00098.0014-.00244.00214-.00391l47.32611-92.49902,34.40759-72.2373,14.44891-28.13184c.00055-.00098.0011-.00195.00165-.00342,1.67798-3.49121,3.71478-6.9126,5.73407-10.56006.23053-.4165.46075-.83496.69019-1.25781.08478-.15625.16907-.31348.2536-.4707.25812-.47998.51526-.96289.76996-1.45264.0553-.10645.10986-.21436.16498-.32129.26117-.50635.52014-1.01709.77551-1.53516.03705-.0752.07404-.15039.1109-.22559.26624-.54395.52789-1.09619.78552-1.65527.03894-.08447.07855-.16797.11731-.25293.25934-.56836.51239-1.14648.76062-1.73193.04303-.10156.08643-.20215.12909-.3042.24341-.58252.47986-1.1748.70996-1.77588.04193-.10938.08386-.21875.12531-.3291.22766-.60498.44775-1.22021.65967-1.8457.03705-.10938.07343-.21973.10992-.32959.21185-.63818.41571-1.28662.60889-1.94824.02808-.09619.05493-.19385.08258-.29053.19598-.68457.38312-1.38037.55664-2.0918.01617-.06641.03094-.13428.04694-.20117.18005-.75049.34943-1.51318.50183-2.29541,19.41113-99.62646-11.47144-139.45459,79.22192-221.20264,3.85974-3.50781,9.60907-8.19141,16.15625-12.53223.18616-.12402.3717-.24756.55914-.37061.05371-.03516.10809-.07031.16193-.10547,2.19678-1.43701,4.4762-2.82764,6.80078-4.11572.24487-.13525.49066-.26904.73645-.40234.12097-.06543.24146-.13232.36261-.19727,15.74579-8.47266,34.31964-10.0561,38.46452,9.2639,1.06494,4.96387-17.11638,19.09548-25.84794,24.78835-.43335.28271-.8949.64795-1.38184,1.08691-.487.43945-.99945.95215-1.53473,1.53027-.53534.57764-1.09344,1.22021-1.67194,1.91846-.86768,1.04736-1.78094,2.2207-2.7309,3.48877-.31665.42285-.63739.85596-.96191,1.29883-.7442,1.01562-1.51001,2.08496-2.28979,3.18652-1.39954,1.97656-2.8493,4.06689-4.32782,6.19775-.67957.97949-1.3645,1.96533-2.05371,2.95312-.51074.73242-1.02325,1.46387-1.53717,2.19336-.57831.8208-1.15771,1.63672-1.73767,2.4458-.53253.74268-1.065,1.47852-1.59686,2.2041-1.40424,1.91699-2.80151,3.75879-4.17554,5.47021-.82892,1.03223-1.64929,2.01855-2.45654,2.93945-.08173.09326-.16351.18701-.245.27881-1.01233,1.14258-2.00427,2.18701-2.96655,3.09912-.42389.40234-.7356.88184-.93457,1.39648s-.28528,1.06348-.25854,1.604c.02679.54053.16656,1.07178.41998,1.55127.25336.47949.6203.90674,1.10114,1.23828,1.1496.79297,2.45422.71094,5.284-.53271,21.40363-9.40674,66.82574-74.72119,81.42181-12.71777-10.3042.24268-18.16937,6.35254-26.16144,11.79199-8.38647,5.70801-27.44043,17.12402-27.19537,27.52881,8.12164,7.75781,55.67181-55.99121,75.48053-20.72266,11.21216,19.96289-5.26978,15.35889-14.67957,21.16992-5.30872,3.27832-33.53265,21.36719-32.71368,26.19189,2.0097,11.83936,29.96735-14.85791,35.65149-17.62793.54968-.26807,1.08966-.52539,1.6203-.77295.90149-.42041,1.7702-.80469,2.61877-1.16602.6499-.27686,1.29041-.54297,1.91058-.78516,1.31641-.51465,2.56268-.94727,3.75281-1.30811.19592-.05957.39062-.11719.58331-.17236,2.35498-.67578,4.46912-1.04297,6.3855-1.10693.38324-.0127.75861-.01367,1.1264-.00244,1.83899.05713,3.48883.41602,4.99268,1.07178,1.50378.65527,2.86163,1.60742,4.11646,2.8501,1.12897,1.11816,2.17499,2.47168,3.16949,4.05566.39783.63379.78735,1.30469,1.17072,2.01172l3.3969,7.79095c4.08628,5.94368,4.60502,9.9949,3.85393,17.16853-1.29259,12.34545-5.69253,23.46294-15.38418,34.36181-1.24768-2.43896-9.50049-7.78809-10.07367-13.93066-.13275-1.42285,14.54584-21.64355,3.09552-16.92285-1.89856.78271-22.03906,21.44873-23.53204,24.22119-5.74835,10.6748-3.38306,21.43896-6.00244,29.09131.97229,1.63477,1.88495,3.16113,2.75787,4.61523,1.30103-2.03516,3.04913-4.91602,3.83722-6.87305,1.33337-3.31006,1.24139-14.7583,2.20691-20.20117s14.67815-17.62618,14.67815-17.62618c0,0-5.06897,4.44828,2.96552,14,1.12037,1.33194,11.51724,9.72414,11.51724,9.72414,15.93103-13.7931,20.94194-35.29181,17.06895-55.34503-5.0224-26.00439-12.4682-16.98096-18.96552-27.51709-3.7641-6.104-1.6225-14.7876-9.24835-24.43652-5.34686-6.76514-14.50934-7.93018-16.92059-11.16064-1.90035-2.54601-3.72013-11.03735-6.39561-18.77199-2.57148-7.43398-12.77739-22.12505-37.78888-13.06758,23.08046-11.77011,18.28693-33.65847,12.22989-41.24138-10.74913-13.457-32.55172-11.49425-63.26437,9.70115-25.43529,17.55339-26.36782,26.23307-26.36782,26.23307,0,0,.69547-8.99485-5.18711-13.90161-4.33624-3.61692-10.68811-3.42014-15.16904.0159-24.49756,18.78505-23.64961,76.28943-20.34422,76.36105l-6.16455,35.78564c-30.6897-29.81543-77.08502-59.30127-116.69489-75.08398-23.03955,71.48779-118.74561,52.41943-164.23413,13.96387-13.70581-11.58643-34.82642-37.56396-32.37244-56.07422-54.4552,6.12891-109.63281,26.30371-151.66785,61.76172-63.48047,53.54785-90.6709,137.0918-98.25562,217.61816,4.18494,206.85645-15.30078,427.29199-2.85645,633.0127l21.99292-60.83496c28.64722-67.69922,88.09045-124.94678,155.88037-153.00146,30.01855-12.42334,61.42505-16.73584,91.75854-27.59717-41.72485-44.90479-76.28149-98.11328-104.39453-152.52734-8.62329-16.69043-71.42779-152.00073-64.10852-156.26611ZM605.24329,1046.90338c16.29468,9.36133-11.95819,36.48779-14.80878,42.18896l-10.09985,19.29639c1.27228-34.08594,14.20197-67.63623,24.90863-61.48535Z"/>
  <path class="e" d="M765.04023,1134.58307c-1.50385-.65576-3.15369-1.01465-4.99268-1.07178,1.83899.05713,3.48883.4165,4.99268,1.07178Z"/>
  <path class="d" d="M633.32728,1560.79303l22.48438-102.49805,18.75854-112.70996-.00024-.00049s.00006,0,.00006-.00049c.75208-4.35059,1.34943-8.81982,1.98962-13.14697.01086-.07324.02161-.14697.03253-.22021.0531-.35791.10681-.71436.16071-1.06982.03918-.25879.07886-.51611.11853-.77344.04468-.29004.08917-.58057.13464-.86865.08044-.50977.16229-1.0166.24567-1.52002.0343-.20752.0697-.41309.10461-.61914.06311-.37256.1272-.74316.19238-1.11182.03528-.19922.07043-.39893.10638-.59717.09583-.52783.19336-1.05273.29462-1.5708.01575-.08057.03235-.15967.04828-.23975.09241-.46729.18762-.92969.28522-1.38721.03552-.16699.07184-.33252.10809-.49756.08966-.40869.1817-.81299.27618-1.21289.0293-.12402.05762-.25.0874-.37305.12231-.50586.24902-1.00391.38031-1.49512.0318-.11865.06519-.23535.09753-.35303.10663-.38916.21643-.77246.32947-1.15088.04083-.13672.08167-.27393.12347-.40918.14728-.47803.29816-.94971.45703-1.40869,3.37543-9.75195,11.34644-13.90771,15.00421-20.09375,14.04462-23.75342,24.67145-43.79688,33.70398-70.18408,2.61938-7.65234.25409-18.4165,6.00244-29.09131,1.49298-2.77246,21.63348-23.43848,23.53204-24.22119,11.45032-4.7207-3.22827,15.5-3.09552,16.92285.57318,6.14258,8.82599,11.4917,10.07367,13.93066,9.65839-10.86133,12.71631-20.47217,14.0365-32.76416.935-8.70557-1.73047-18.85791-5.90247-26.55615-.00024,0-.00043-.00049-.00067-.00098-.38336-.70703-.77289-1.37793-1.17072-2.01172-.99451-1.58398-2.04053-2.9375-3.16949-4.05566-1.25482-1.24268-2.61267-2.19482-4.11646-2.8501-1.50385-.65527-3.15369-1.01465-4.99268-1.07178-.3678-.01123-.74316-.01025-1.1264.00244-1.91638.06396-4.03052.43115-6.3855,1.10693-.19269.05518-.38739.11279-.58331.17236-1.19012.36084-2.4364.79346-3.75281,1.30811-.62018.24219-1.26068.5083-1.91058.78516-.84857.36133-1.71729.74561-2.61877,1.16602-.53064.24756-1.07062.50488-1.6203.77295-5.68414,2.77002-33.64178,29.46729-35.65149,17.62793-.81897-4.82471,27.40497-22.91357,32.71368-26.19189,9.40979-5.81104,25.89172-1.20703,14.67957-21.16992-19.80872-35.26855-67.35889,28.48047-75.48053,20.72266-.24506-10.40479,18.8089-21.8208,27.19537-27.52881,7.99207-5.43945,15.85724-11.54932,26.16144-11.79199-14.59607-62.00342-60.01819,3.31104-81.42181,12.71777-2.82977,1.24365-4.1344,1.32568-5.284.53271-.48083-.33154-.84778-.75879-1.10114-1.23828-.25342-.47949-.39319-1.01074-.41998-1.55127-.02673-.54053.05957-1.08936.25854-1.604s.51068-.99463.93457-1.39648c.96228-.91211,1.95422-1.95654,2.96655-3.09912.08148-.0918.16327-.18555.245-.27881.80725-.9209,1.62762-1.90723,2.45654-2.93945,1.37402-1.71143,2.7713-3.55322,4.17554-5.47021.53186-.72559,1.06433-1.46143,1.59686-2.2041.57996-.80908,1.15936-1.625,1.73767-2.4458.51392-.72949,1.02643-1.46094,1.53717-2.19336.68921-.98779,1.37415-1.97363,2.05371-2.95312,1.47852-2.13086,2.92828-4.22119,4.32782-6.19775.77972-1.10156,1.54559-2.1709,2.28979-3.18652.32452-.44287.64526-.87598.96191-1.29883.94995-1.26807,1.86322-2.44141,2.7309-3.48877.57849-.69824,1.1366-1.34082,1.67194-1.91846.53528-.57812,1.04773-1.09082,1.53473-1.53027.48694-.43896.94849-.8042,1.38184-1.08691,8.73157-5.69287,32.78478-13.24763,26.80047-29.20173-7.45428-18.1958-23.9121-13.1679-39.41705-4.85052-.12115.06494-.24164.13184-.36261.19727-.24579.1333-.49158.26709-.73645.40234-2.32452,1.29053-4.60443,2.68115-6.80078,4.11572-.05383.03516-.10822.07031-.16193.10547-.18744.12305-.37299.24658-.55914.37061-6.52106,4.33057-12.25751,9.01807-16.15625,12.53223-68.33588,62.10352-59.81079,121.57617-79.22192,221.20264-.1524.78223-.32178,1.54492-.50183,2.29541-.01599.06689-.03076.13477-.04694.20117-.17352.71143-.36066,1.40723-.55664,2.0918-.02765.09668-.0545.19434-.08258.29053-.19318.66162-.39703,1.31006-.60889,1.94824-.0365.10986-.07288.22021-.10992.32959-.21191.62549-.43201,1.24072-.65967,1.8457-.04144.11035-.08337.21973-.12531.3291-.2301.60107-.46655,1.19336-.70996,1.77588-.04266.10205-.08606.20264-.12909.3042-.24823.58545-.50128,1.16357-.76062,1.73193-.03876.08496-.07837.16846-.11731.25293-.25763.55908-.51929,1.11133-.78552,1.65527-.03687.0752-.07385.15039-.1109.22559-.25537.51807-.51434,1.02881-.77551,1.53516-.05511.10693-.10968.21484-.16498.32129-.2547.48975-.51184.97266-.76996,1.45264-.08453.15723-.16882.31445-.2536.4707-.22943.42285-.45966.84131-.69019,1.25781-2.01874,3.64697-4.05634,7.06934-5.73407,10.56006-.00055.00146-.0011.00244-.00165.00342l-14.44891,28.13184-34.40759,72.2373-47.32574,92.49854c-.00085.00146-.00165.00293-.0025.00439-.1817.34326-.36267.69092-.54309,1.04102-.05737.11182-.11444.22461-.17169.33691-.12671.24854-.25336.49805-.37946.75-.06287.12549-.12555.25195-.18823.37842-.12244.24658-.24457.49561-.36639.74561-.06085.125-.12183.24951-.18256.37549-.14026.29004-.27997.58301-.41943.87695-.0376.07959-.07532.15771-.11285.2373-.17847.37842-.35626.76025-.53345,1.14453-.03986.08643-.07947.17432-.11926.26123-.13818.30127-.27618.604-.41364.90869-.05646.12549-.11273.25146-.16907.37744-.12048.26904-.24072.53906-.36066.81055-.06061.13721-.12128.27441-.1817.4126-.12012.27393-.23987.54883-.35938.82471-.05469.12646-.1095.25244-.16412.37891-.16101.37402-.32153.74951-.48145,1.12695l-.03113.07324c-.17236.40723-.34393.81689-.51508,1.22803-.047.11279-.09369.22607-.14056.33936-.12329.29736-.24622.59521-.36884.89404-.0589.14404-.1178.28809-.17657.43213-.11334.27783-.22638.55615-.33917.83545-.05658.14014-.11316.27979-.16962.42041-.13281.33008-.26514.66064-.39716.99219-.0318.08008-.06378.15967-.09552.23926-.16949.42676-.33832.85449-.50653,1.28271-.02283.05811-.04547.1167-.0683.1748-.14166.36133-.28296.72314-.42377,1.08594-.05328.13721-.10645.27441-.15961.41211-.11139.2876-.2226.5752-.33344.86377-.05579.14502-.11163.29004-.1673.43506-.11597.30225-.23151.60498-.34686.90723-.04608.12109-.09235.2417-.13831.36279-.14606.38428-.29163.76807-.43677,1.15234-.01447.03809-.02905.07617-.04346.11426-.16071.42578-.32074.85107-.48022,1.27637-.04559.12158-.09094.24268-.13647.36426-.1142.30469-.22815.60938-.34174.91357-.05536.14844-.1106.29639-.16577.44434-.10699.28711-.21368.57373-.32013.86035-.04865.13086-.09735.26172-.14587.39209-.12909.34766-.25769.69482-.38599,1.04102-.02551.06885-.05115.13818-.0766.20703-.28418.76758-.56653,1.53125-.84686,2.29053-.1626.43994-.32458.87842-.4859,1.31494-.05902.16016-.11792.31934-.17682.47852-.11871.32129-.23694.64111-.35498.95996-.03961.10693-.07928.21436-.11884.32129-.11279.3042-.22504.60693-.33716.90869-.04456.12012-.08936.24121-.13379.36084-.14447.38867-.28827.77539-.4317,1.15967-.04022.10791-.08026.21436-.12042.32227-.10559.28223-.21088.56396-.31592.84375-.05273.14062-.10535.28027-.1579.42041-.09271.24658-.18512.4917-.2774.73633-.05933.15674-.11853.31348-.17761.46924-.0918.24268-.18329.48291-.27466.72314-.05127.13477-.10272.27002-.15387.40381-.12646.33105-.25238.65918-.37799.98486-.03595.09375-.07196.18652-.10791.2793-.11975.31006-.2392.61816-.35822.92285-.05042.12939-.10059.25684-.15088.38477-.09119.23291-.18225.46436-.27301.69434-.05396.13623-.10785.27197-.16168.40723-.08948.2251-.17865.44824-.26764.66992-.05206.12988-.10419.25977-.15613.38867-.10254.25391-.20471.50439-.30664.75391-.03516.08594-.0705.17334-.10559.25879-.13715.33398-.27374.66406-.40991.98926-.03296.07861-.06567.15527-.09851.2334-.10364.24658-.20709.49121-.31018.73193-.04803.1123-.09583.22314-.14368.33398-.08826.20508-.17633.4082-.26416.60889-.0509.11621-.10187.23242-.15265.34717-.08923.20215-.17822.40137-.26697.59863-.04541.10107-.09088.20312-.13617.30273-.11829.26074-.23615.51709-.35364.76953-.01495.03223-.03003.06543-.04498.09766-.13184.28223-.26306.55811-.39392.8291-.03925.08154-.07837.16016-.11749.24072-.0921.18896-.18402.37549-.27563.55908-.04669.09326-.09332.18506-.13989.27686-.08661.1709-.17297.33936-.25909.50488-.04584.08789-.09167.17627-.13745.2627-.09192.17383-.18347.34375-.2749.51123-.03784.06934-.07574.14062-.11353.20898-.12689.22949-.25336.45361-.37933.67041-.02557.04395-.05109.08545-.07666.12891-.10138.17285-.20251.34229-.30328.50635-.04352.0708-.08685.13916-.13031.2085-.08368.13379-.1673.26465-.25055.39258-.0459.06982-.09174.13916-.13751.20752-.08362.125-.16687.24609-.25006.36426-.04248.06055-.08502.12207-.12738.18115-.10071.13965-.20111.27344-.30121.40381-.02338.03027-.04681.06299-.07013.09277-.12231.15625-.24414.30469-.3656.4458-.03442.04004-.06866.07666-.10303.11572-.08801.09912-.17572.1958-.26324.2876-.04309.04492-.08606.0874-.12903.13037-.07983.08008-.15955.15625-.23901.229-.04346.04004-.08691.07959-.13025.11719-.08417.07324-.16791.14111-.25165.20605-.03638.02832-.07294.05859-.10925.08545-.11871.0874-.23706.16797-.35486.23828-.01379.0083-.02747.01416-.04126.02246-.10406.06006-.2077.11426-.3111.16113-.039.01758-.07794.03174-.11688.04736-.07916.03223-.15802.06104-.23676.08496-.04254.0127-.08496.02393-.12738.03467-.07733.01904-.15442.0332-.23132.04395-.0401.00586-.0802.0127-.12018.01611-.09009.00781-.17993.0083-.26953.00439-.02515-.00098-.05035.00098-.07544-.00098-.11426-.00879-.22815-.02783-.34155-.05615-.02887-.00684-.05756-.01855-.08643-.02686-.08466-.0249-.16919-.05371-.25336-.08936-.03986-.01709-.07947-.03711-.1192-.05664-.0744-.03662-.14868-.07715-.22272-.12207-.04059-.0249-.08118-.05029-.12164-.07764-.07733-.05273-.1543-.11182-.2312-.17383-.03485-.02832-.06982-.0542-.10461-.08447-.11084-.09717-.22137-.20166-.33142-.31934-.62866-7.59229,3.71387-15.72363,4.63672-22.23291,4.14404-29.22852-50.50586-125.94238-54.15186-160.23877-1.05859-9.95752,5.27734-10.56494,3.44812-19.60645-.67957-3.35938-25.29932-60.09082-27.29761-62.87549-2.59241-3.61279-4.54871-6.00098-9.48816-4.55273-9.36523,2.74463,31.05396,64.49854,21.09143,71.65039-4.95544,3.55762-99.72083,24.67236-118.07507,30.76904-38.11377,12.66016-75.15588,28.8501-111.40259,46.021-9.21802,1.35498-14.08233-40.36291-26.28519-30.13268-6.11494,5.12644,58.44071,142.01794,67.064,158.70837,28.11304,54.41406,62.66968,107.62256,104.39453,152.52734,35.43005,38.13037,76.11597,68.46973,117.25635,84.39941.02094.0083.0415.01562.06244.02393-6.04865-9.32129-7.34784-19.87256-2.36853-27.87402,7.75397-12.46045,27.77661-14.0127,44.72186-3.46777,4.23401,2.63477,7.87518,5.77588,10.83466,9.19971-2.52161-5.59424-3.95221-12.1958-3.88129-19.26074.20038-19.95801,12.25922-36.01709,26.93427-35.86963s26.40918,16.44531,26.20886,36.40283c-.01318,1.30859-.08026,2.6001-.19281,3.87207,2.02191-2.40283,4.34686-4.68311,6.97089-6.76416,15.63849-12.40039,35.70795-13.13086,44.82635-1.63135,3.01257,3.79883,4.44348,8.45996,4.45764,13.44238,14.11536-15.03223,27.15167-34.21875,38.73987-58.08691,6.84564-14.1001,25.11395-73.15332,36.12732-109.58008,5.19818-17.19287,8.78235-29.35205,8.78235-29.35205Z"/>
  <path class="e" d="M559.68641,1262.5362c19.41113-99.62646,10.88605-159.09912,79.22192-221.20264-90.69336,81.74805-59.81079,121.57617-79.22192,221.20264Z"/>
  <path class="e" d="M703.82953,1030.10358c5.98431,15.9541-18.7959,21.86572-27.52747,27.55859,8.73157-5.69287,34.06348-11.60449,27.52747-27.55859Z"/>
  <path class="e" d="M773.49756,1143.50153c4.172,7.69824,6.83746,17.85059,5.90247,26.55615-1.32019,12.29199-4.37811,21.90283-14.0365,32.76416,9.65826-10.86133,15.61285-21.57568,16.93304-33.86768.935-8.70557-4.62653-17.75439-8.79901-25.45264Z"/>
  <path class="e" d="M662.58643,1024.20954c-2.32458,1.28809-4.604,2.67871-6.80078,4.11572,2.19635-1.43457,4.47626-2.8252,6.80078-4.11572Z"/>
  <path class="e" d="M665.73096,1070.17194c.77979-1.10156,1.54559-2.1709,2.28979-3.18652-.7442,1.01562-1.51007,2.08496-2.28979,3.18652Z"/>
  <path class="e" d="M500.39374,1746.00104c-2.62402,2.08105-4.94897,4.36133-6.97089,6.76416.11255-1.27197.17963-2.56348.19281-3.87207.20032-19.95752-11.53381-36.25537-26.20886-36.40283s-26.73389,15.91162-26.93427,35.86963c-.07092,7.06494,1.35968,13.6665,3.88129,19.26074-2.95947-3.42383-6.60065-6.56494-10.83466-9.19971-16.94525-10.54492-36.9679-8.99268-44.72186,3.46777-4.97931,8.00146-3.68011,18.55273,2.36853,27.87402,16.68524,6.55713,32.27106,9.91357,46.66766,10.97949,3.98029-15.16309,13.73242-37.83301,36.43091-37.3623,18.54803.38477,32.47784,10.6582,41.32703,19.93311,16.84906-9.3623,28.20056-19.86182,33.28967-24.64453.26685-.28027.53052-.57275.79663-.85645-.01416-4.98242-1.44507-9.64355-4.45764-13.44238-9.11841-11.49951-29.18787-10.76904-44.82635,1.63135Z"/>
  <path class="i" d="M474.26441,1763.37995c-22.69849-.4707-32.45062,22.19922-36.43091,37.3623,3.96753.29395,7.84381.41309,11.62799.37646.92017-.00879,1.83301-.03027,2.74219-.05713,5.49805-11.74072,14.17194-22.61279,27.23962-21.21729,8.75702.93506,15.94354,5.17676,21.68567,10.50098,5.1908-2.18311,10.02222-4.56494,14.46246-7.03223-8.84918-9.2749-22.77899-19.54834-41.32703-19.93311Z"/>
  <path class="d" d="M452.20368,1801.06159c15.23077-.45312,28.91663-3.41016,40.91406-7.62012,2.76331-.96973,5.42847-2.01025,8.01123-3.09619-5.74213-5.32422-12.92865-9.56592-21.68567-10.50098-13.06769-1.39551-21.74158,9.47656-27.23962,21.21729Z"/>
  <path class="c" d="M1059.78217,199.41188c-1.3959-8.66912,4.65145-51.76253-9.84048-40.04433-2.19552,1.77564-7.13338,43.1629-20.84048,51.7345-9.24866,5.78317-25.72051,6.16865-38.63991,6.23132-3.79905.01843-5.36816,4.90459-2.27979,7.11707,13.07626,9.36774,37.17331,4.4059,42.35302,29.97705,2.2823,11.267-.52819,27.60186-.51604,41.28407.0036,4.05685,5.20213,5.86433,7.58751,2.58286,9.33773-12.84552,7.49819-37.29254,22.22067-50.03626,7.05129-6.10369,24.20347-9.20448,38.87304-10.77259,4.41317-.47175,4.89417-6.71088.59473-7.81247-16.72379-4.28491-36.61-12.23642-39.51226-30.26123Z"/>
  <path class="d" d="M863.72268,1602.92682c40.27509-61.54834,75.76843-127.0249,109.48206-192.35986-29.95325-2.65283-60.00684-5.17578-89.89569-8.43506,9.33118-53.23242,46.77893-110.91602,50.66364-164.13037.87292-11.9585-3.91272-44.29639-2.47693-49.96582,3.7655-14.86865,68.00012-51.18018,37.45526-80.6543-8.22931-1.77148-3.88446,17.87402-14.09204,19.60059-7.13702,1.20752-4.69324-14.61426-15.35822-5.57324-45.45709,39.17578-69.93063,68.94963-72.10074,134.8051-.67792,20.57275,14.14646,49.42732,8.76761,64.39705-7.63812,21.25781-75.52911,92.6875-93.95209,115.22217-20.32812,24.86475-39.93457,50.44482-61.03284,74.72803l27.32886,189.16406c6.54327.1123,13.12012-.146,19.66064,0,6.14735,0,14.56115.2076,19.66064-2.80762,33.19556-23.96094,53.76007-60.17188,75.88983-93.99072Z"/>
  <path class="e" d="M1158.87122,1418.91165c-13.99481-1.29492-264.21069-25.34958-264.21069-25.34958,9.73706-50.00049,44.23926-105.23486,47.73877-155.56152.79559-11.44141-3.84033-41.77881-2.47754-47.15723,2.79114-11.0166,40.1405-31.92236,43.91498-60.35059,1.70526-12.84375-3.49023-33.62061-19.05798-31.54297-8.41302,1.12256-19.39441,17.38818-25.27802,22.45898,10.66498-9.04102,11.245,16.33936,18.38202,15.13184,8.75018-1.47998,13.79352-22.40186,12.34149-27.86426,27.40515,29.23486-35.01801,64.70801-38.72852,79.35938-1.43579,5.66943,3.34985,38.00732,2.47693,49.96582-3.8847,53.21436-41.33246,110.89795-50.66364,164.13037,29.88885,3.25928,59.94244,5.78223,89.89569,8.43506,1.84747.16357,25.6123,2.31543,30.89532,2.80713.68402.06348,186.03513,12.78094,231.82871,17.90204,6.70815-3.39062-15.10345-17.7817-5.14943-8.55172-23.06793-1.40283-48.99734-1.69312-71.90811-3.81275Z"/>
  <path class="j" d="M1473.14711,1477.94342c-10.00153,2.99023-40.21887,21.53857-46.4137,22.40576-4.5202.6333-4.61993.26855-4.19257-4.19189.3858-4.02637,44.38285-54.02732,54.23847-70.09956,26.89655-43.86207,34.75463-96.13042,32.89465-119.37749-2.52234-2.50391-72.25037,24.03726-98.13603,47.92922-42.5299,39.25426-63.25191,87.82323-76.02926,142.99657,0,0-4.50946-.06445-5.52161-4.24268-4.7785-19.72559-6.4054-43.7959-14.12518-63.14502-5.24359-13.14258-40.08636-70.87109-54.84259-70.11279-11.09003.56982-18.79853,25.41972-23.5581,46.50417-4.09396,18.13585-4.66148,36.8856-1.78998,55.2547l9.974,63.80412c13.42218,2.00391,102.26862,13.34424,103.60016,18.479-1.17145,4.05957-1.6308,8.29785-2.48822,12.40186,5.91302,34.1958-4.64808,140.39492,4.22906,134.56582,30.85724-20.26172,96.75428-83.2626,124.96955-109.29922,12.44989-11.48877,38.64752-45.65137,47.19336-60.91211,5.18542-9.25977,20.69531-37.60498,17.62372-46.86377-3.13605-9.45361-58.02826,1.03369-67.62573,3.90332Z"/>
  <rect class="c" x="1070.62563" y="1264.40608" width="9.99997" height="76.51901" transform="translate(-218.42046 216.68545) rotate(-10.44932)"/>
  <rect class="c" x="1183.21615" y="1321.60176" width="65.88094" height="9.99973" transform="translate(-434.72459 2043.19079) rotate(-70.95105)"/>
  <rect class="c" x="987.94843" y="1255.37992" width="9.99988" height="77.2979" transform="translate(-138.02441 118.7171) rotate(-6.39847)"/>
  <path class="e" d="M1377.65511,1913.07868c-4.88141-42.9126-7.63733-86.09033-11.23724-129.13281-2.8952-34.6167-13.74768-193.20068-19.66071-227.39648-21.948,105.05713-64.66968,231.7207-95.49457,336.8833l126.39252,19.646Z"/>
  <path class="e" d="M1100.68797,1544.34509c13.64595,46.06897,71.23643,48.67207,94.40128,15.01191,8.87256-12.89258,11.40721-24.90105,9.00041-40.28777-.51922-3.31939-2.50802-12.05152-3.77011-15.08046-1.31758-3.1621-7.13748-1.33848-6.27586,1.97701,20.43194,78.62196-83.05747,91.08046-86.18015,26.8253-.62144-12.78729,4.57379-21.79835,5.09106-29.34254.19022-2.77428-2.80901-4.76431-5.22535-3.38803-.2632.14991-.45707.30341-.54895.4634-6.81793,11.87354-10.22163,31.23105-6.49235,43.82118Z"/>
  <path d="M1150.78235,1583.62751c-2.97217,0-5.96826-.23242-8.96387-.70801-20.54395-3.25977-36.45801-17.52344-42.56836-38.14844h0c-3.66553-12.37305-.75342-32.13672,6.62939-44.99414.2251-.39258.57666-.7168,1.10547-1.01953,1.59766-.91016,3.49365-.85938,5.07471.13379,1.60303,1.00684,2.51953,2.79199,2.3916,4.66016-.2085,3.03906-1.13232,6.28711-2.10986,9.72559-1.57129,5.52441-3.35156,11.78613-2.97998,19.44141.83936,17.27051,9.14746,30.15918,23.39307,36.29102,15.30908,6.59277,34.21924,3.61621,47.05566-7.40234,8.28857-7.11328,20.9707-23.75293,12.78174-55.26465-.57812-2.22461.74219-4.3584,3.21045-5.18848,2.51807-.85254,5.00293.10156,5.90186,2.25781,1.3457,3.23047,3.34082,12.05957,3.86719,15.42578,2.49609,15.95312-.26953,28.3252-9.24609,41.37012-10.15771,14.75977-27.38672,23.41895-45.54297,23.41992ZM1108.40638,1501.40192c-6.96924,12.23535-9.72852,30.87695-6.28027,42.51758h0c5.85986,19.78125,20.49854,32.91699,40.1626,36.03711,20.15918,3.20508,40.396-5.2207,51.56494-21.4502,8.50244-12.35449,11.12012-24.0791,8.75391-39.20605-.50098-3.20215-2.47363-11.85742-3.67285-14.73438-.37646-.90527-1.58789-.76758-2.17627-.56934-.15771.05371-1.53369.54883-1.26318,1.5918,8.59863,33.08691-4.91211,50.72559-13.73096,58.29492-13.68652,11.74805-33.85986,14.91016-50.1958,7.88184-15.13184-6.51367-24.31836-20.69238-25.20312-38.90039-.396-8.14844,1.45605-14.66211,3.09033-20.4082.97412-3.42578,1.81543-6.38477,2.00244-9.11035.05322-.77441-.31836-1.49023-.99365-1.91504-.30225-.18945-1.10156-.57422-1.99316-.06738-.02246.0127-.04443.02539-.06494.03809Z"/>
</svg>