<?xml version="1.0" encoding="UTF-8"?>
<svg id="a" data-name="Layer 1" xmlns="http://www.w3.org/2000/svg" viewBox="0 0 1620.40709 1644.03869">
  <defs>
    <style>
      .b {
        fill: #fff;
      }

      .c {
        fill: #1437a0;
      }

      .d {
        fill: #f0eeef;
      }

      .e {
        fill: #125427;
      }

      .f {
        fill: #d98cbd;
      }

      .g {
        fill: #c32725;
      }
    </style>
  </defs>
  <path class="b" d="M496.1394,819.40552c.12372-.29639.24152-.60181.36353-.90063-.12207.29883-.23981.60425-.36353.90063Z"/>
  <path class="b" d="M494.47797,823.20312c.14142-.30884.27728-.62622.41681-.93799-.13959.31177-.27539.62915-.41681.93799Z"/>
  <path class="b" d="M497.70648,815.46533c.10358-.27393.20123-.55713.30341-.83325-.10223.27612-.19977.55933-.30341.83325Z"/>
  <path class="b" d="M492.72681,826.86523c.15625-.31323.30731-.63403.46155-.94995-.1543.31592-.3053.63672-.46155.94995Z"/>
  <path class="b" d="M500.54388,807.12158c.04785-.15796.09155-.32251.13898-.48096-.04742.15845-.09106.323-.13898.48096Z"/>
  <polygon class="b" points="501.80731 802.69873 501.80682 802.70068 501.80737 802.69873 501.80731 802.69873"/>
  <path class="b" d="M499.17584,811.37354c.07941-.2334.1532-.47583.23169-.71094-.07849.23511-.15222.47754-.23169.71094Z"/>
  <path class="b" d="M486.9668,837.13208c.19342-.30933.38336-.62305.57471-.93506-.19141.31201-.38129.62573-.57471.93506Z"/>
  <path class="b" d="M436.85571,892.64062c.33783-.35107.67505-.69458,1.0127-1.04248-.33765.34814-.6748.69141-1.0127,1.04248Z"/>
  <path class="b" d="M439.71832,889.69751c.31732-.32324.63367-.64062.95068-.96167-.31708.32104-.6333.63843-.95068.96167Z"/>
  <path class="b" d="M433.99445,895.646c.34015-.36157.68005-.71436,1.02014-1.07275-.34015.3584-.67993.71118-1.02014,1.07275Z"/>
  <path class="b" d="M488.96735,833.82129c.18201-.31201.36005-.62988.53998-.94482-.17999.31494-.35791.63281-.53998.94482Z"/>
  <path class="b" d="M490.8891,830.40088c.16937-.31323.33417-.63306.50153-.94922-.16736.31616-.33209.63599-.50153.94922Z"/>
  <path class="b" d="M445.51312,883.88452c.10138-.10034.20221-.19946.30353-.30005-.10132.10034-.20209.19971-.30353.30005Z"/>
  <path class="b" d="M442.59247,886.79443c.25574-.25659.51044-.50903.76587-.76416-.25543.25513-.51007.50757-.76587.76416Z"/>
  <path class="b" d="M300.36578,1046.57495c-.80243.05518-1.32062-.24268-1.65619-.74048.33551.4978.85376.79565,1.65619.74048Z"/>
  <path class="b" d="M657.9245,1462.02441c-.27136-.46729-.46387-.96777-.60742-1.49756.14355.52979.33606,1.03027.60742,1.49756Z"/>
  <path class="b" d="M657.31708,1460.52686c-.08691-.32129-.15417-.6543-.21167-.99658.0575.34229.12476.67529.21167.99658Z"/>
  <path class="b" d="M657.9245,1462.02441c.22534.38818.51367.75049.86462,1.09082-.35095-.34033-.63928-.70264-.86462-1.09082Z"/>
  <path class="b" d="M1250.72943,1422.05469c.00629.021.01434.03955.02057.06055-.00623-.021-.01428-.04004-.02057-.06055Z"/>
  <path class="b" d="M1224.71503,1443.02051c-.01929-2.39844-.02032-4.80225-.01294-7.20947-.00739,2.40723-.00635,4.81152.01294,7.20947,6.59235.05957,13.23584-.04834,19.85394-.05322-6.61816.00488-13.26154.11279-19.85394.05322Z"/>
  <path class="b" d="M1224.72742,1414.14746c15.1275-1.67676,22.21472-.23779,25.18103,5.7876-2.96625-6.02539-10.05347-7.46484-25.18109-5.7876.09448,7.19482-.00317,14.44238-.02527,21.66357.02216-7.22119.11981-14.46875.02533-21.66357Z"/>
  <path class="b" d="M301.93506,1046.15576c.33557-.14111,1.04059-.77295,2.03851-1.7959-.99792,1.02295-1.703,1.65479-2.03857,1.7959-.60486.25415-1.11591.38672-1.54712.41992.43121-.0332.94226-.16577,1.54718-.41992Z"/>
  <path class="b" d="M431.14117,898.71875c.29419-.32129.5885-.63281.88275-.95142-.29425.3186-.58856.63013-.88275.95142Z"/>
  <path class="b" d="M458.70288,870.88647c-.02844.02832-.05707.05664-.08551.08496.02844-.02832.05713-.05664.08551-.08496Z"/>
  <path class="b" d="M355.78979,983.99927c-3.5022,3.89258-7.01605,7.77368-10.54358,11.63892-1.19562,1.3103-3.39252,3.90332-6.18524,7.24951,2.79272-3.34619,4.98969-5.93945,6.1853-7.24951,3.52753-3.86548,7.04132-7.74634,10.54352-11.63892Z"/>
  <path class="b" d="M216.77502,1007.2002c-5.77405-.10986-11.55804-.11157-17.34521-.01489,5.78717-.09668,11.57117-.09497,17.34521.01489Z"/>
  <path class="b" d="M796.85925,625.55566c2.71521.09961,5.64185.09912,8.07745-.30103-2.43561.40015-5.36224.40063-8.07745.30103Z"/>
  <path class="b" d="M142.29791,1231.05249c-1.6145-2.67749-3.17432-5.40845-4.68127-8.1875,1.50696,2.77905,3.06677,5.50977,4.68127,8.1875Z"/>
  <path class="b" d="M135.26703,1011.82324c.45734-.05518.91467-.11035,1.37231-.16479-.45758.05444-.91498.10962-1.37231.16479Z"/>
  <path class="b" d="M457.63,597.49536c-.2016-1.75415-1.69897-3.08032-3.46423-3.04053-10.31165.23291-37.24316-6.56372-35.49146-13.62158.91547-3.68848,31.66498-16.3811,35.034-22.89331,2.33301-4.50952-8.32458-23.49463-6.3374-32.06689.69495-2.9978,27.50262-10.88452,28.5238-22.40186,1.02356-11.54541-33.19617-39.01758-41.6217-48.89722-11.98657-14.05542-19.27765-30.73145-32.44867-43.32495-24.28967,14.9209-50.27551,31.58325-74.59064,45.69556-9.66956,19.53931-6.0387,39.14575-5.31036,59.67017.74884,21.10303-26.54865-.47217-38.56024.89014-32.59344,3.69653-36.13477,43.97461-18.68896,65.70361,12.35297,15.38574,24.88019,9.33716,10.58728,37.03687-5.00677,9.70337-25.69592,25.25439-37.9295,29.06128,1.99896,9.65381-1.80872,26.0752-8.39044,40.51807,7.85693.24512,16.46063,1.50342,26.59644,3.5271,38.57898,7.70337,85.16144,39.18481,110.19421,69.03198l16.86688-93.77344c50.49976,4.80566,80.88702-20.15552,75.03101-71.11499Z"/>
  <path class="b" d="M96.70776,1034.29199c-.08966-2.90039-.16132-5.7583-.21686-8.56934.05554,2.81104.1272,5.66895.21686,8.56934Z"/>
  <path class="b" d="M256.94501,1009.8645c3.79395.44604,7.57642.95044,11.34552,1.51611-3.7691-.56567-7.55157-1.07007-11.34552-1.51611Z"/>
  <path class="b" d="M97.2384,1047.61475c-.14746-3.01733-.27435-5.99927-.38245-8.94092.10809,2.94165.23499,5.92358.38245,8.94092Z"/>
  <path class="b" d="M164.72217,1008.86865c5.77307-.45117,11.55634-.82373,17.3432-1.10767-5.78687.28394-11.57013.65649-17.3432,1.10767Z"/>
  <path class="b" d="M246.02466,1008.74536c3.64923.32251,7.29028.69238,10.92035,1.11914-3.63007-.42676-7.27118-.79663-10.92035-1.11914Z"/>
  <path class="b" d="M96.37128,1017.4353c.02484,2.71265.06415,5.47632.11963,8.28735-.05548-2.81104-.09479-5.57471-.11963-8.28735h0Z"/>
  <path class="b" d="M782.81982,624.88208c2.93237.14453,5.86542.28491,8.80066.41479,1.17419.052,2.58124.14087,4.09009.21069-1.50885-.06982-2.91583-.15869-4.09003-.21069-2.93524-.12988-5.86829-.27026-8.80072-.41479Z"/>
  <path class="b" d="M806.8877,624.80713c-.5993.18628-1.25513.33325-1.95099.44751.69592-.11426,1.35168-.26123,1.95099-.44751Z"/>
  <path class="b" d="M152.65472,1246.4458c-1.84009-2.44727-3.62201-4.95679-5.3476-7.52393,1.72559,2.56714,3.50751,5.07666,5.3476,7.52393Z"/>
  <path class="b" d="M129.19586,1205.64404c-1.30231-2.95508-2.55518-5.94946-3.76044-8.97852,1.20526,3.0293,2.45813,6.02344,3.76044,8.97852Z"/>
  <path class="b" d="M97.74432,1056.76953c-.19037-3.08423-.35846-6.13721-.50592-9.15479.14746,3.01758.31555,6.07056.50592,9.15479Z"/>
  <path class="b" d="M135.39569,1218.66016c-1.45447-2.82642-2.85687-5.69922-4.20905-8.61377,1.35217,2.91455,2.75458,5.78735,4.20905,8.61377Z"/>
  <path class="b" d="M300.52899,1017.53516c.22961.27148.39661.64453.51062,1.10254-.11401-.45801-.28101-.83105-.51062-1.10254Z"/>
  <path class="b" d="M328.21362,1015.97046c.51166-.61792,1.02039-1.23242,1.52472-1.8418-.50433.60938-1.01306,1.22388-1.52472,1.8418Z"/>
  <path class="b" d="M326.75684,1017.72925c.10297-.12427.20581-.24829.30859-.37256-.10278.12427-.20563.24829-.30859.37256Z"/>
  <path class="b" d="M322.38251,1022.99829c1.07037-1.28638,2.14557-2.58105,3.21588-3.87183-1.07031,1.29077-2.14545,2.58545-3.21588,3.87183Z"/>
  <path class="b" d="M331.18201,1012.38428c.0993-.12012.19836-.23975.29718-.35913-.09888.11938-.19794.23901-.29718.35913Z"/>
  <path class="b" d="M332.88641,1010.32495c1.88019-2.271,3.65704-4.41479,5.26654-6.3479-1.60944,1.93311-3.38641,4.0769-5.26654,6.3479Z"/>
  <path class="b" d="M387.04688,948.75586c12.29803-14.00122,24.52362-27.99243,36.76373-41.81689-12.24017,13.82446-24.46564,27.81567-36.76373,41.81689Z"/>
  <path class="b" d="M355.78979,983.99927c10.50647-11.67773,20.90784-23.46069,31.25708-35.24341-10.34924,11.78271-20.75055,23.56567-31.25708,35.24341Z"/>
  <path class="b" d="M304.89886,1043.38965c.66229-.70752,1.41309-1.53369,2.23804-2.45898-.82495.92554-1.57574,1.75146-2.23804,2.45898Z"/>
  <path class="b" d="M298.85785,1035.46436c-.01453.07935-.02881.15845-.04297.23706.01416-.07861.02844-.15771.04297-.23706Z"/>
  <path class="b" d="M298.49152,1037.67822c-.00836.05859-.01636.1167-.02429.17432.00793-.05762.01593-.11572.02429-.17432Z"/>
  <path class="b" d="M307.1369,1040.93066c.41248-.46289.84351-.95044,1.29132-1.46069-.44781.51025-.87885.9978-1.29132,1.46069Z"/>
  <path class="b" d="M312.073,1035.2561c.52045-.60864,1.05316-1.23364,1.59637-1.87354-.54321.63989-1.07593,1.26489-1.59637,1.87354Z"/>
  <path class="b" d="M309.11224,1038.68799c.92816-1.06445,1.91992-2.21484,2.96075-3.43188-1.04083,1.21704-2.03253,2.36743-2.96075,3.43188Z"/>
  <path class="b" d="M315.71765,1030.96143c1.00317-1.18945,2.03082-2.41309,3.07623-3.66211-1.04541,1.24902-2.07306,2.47266-3.07623,3.66211Z"/>
  <path class="b" d="M187.85315,1007.50708c3.85901-.14917,7.71851-.25732,11.57666-.32178-3.85809.06445-7.71765.17261-11.57666.32178Z"/>
  <polygon class="b" points="1292.10785 1544.02295 1292.09955 1544.01904 1291.76349 1446.95166 1292.09955 1544.01904 1292.09961 1544.01904 1292.10785 1544.02295"/>
  <path class="d" d="M566.66815,967.63037c.06299-.12207.13184-.24219.20557-.3584l7.08423-11.11987c-3.64166-7.78247,3.79016-17.11499-21.53772-25.45093-32.68964-10.75854-2.15692-53.48438-49.65057-60.45752-15.79633-2.31934-18.7384,12.96143-43.42493.00439-.21277.21289-.42841.42578-.64185.63843-.02838.02832-.05707.05664-.08551.08496-4.16821,4.15356-8.45349,8.31104-12.80072,12.61304-.10132.10059-.20215.19971-.30353.30005-.71643.70972-1.43549,1.42725-2.15479,2.14575-.25543.25513-.51013.50757-.76587.76416-.64001.64136-1.2818,1.2915-1.92346,1.94141-.31702.32104-.63336.63843-.95068.96167-.61591.6272-1.23297,1.2644-1.84991,1.90063-.33765.3479-.67487.69141-1.0127,1.04248-.61334.63696-1.22729,1.28564-1.84113,1.93262-.34009.3584-.67999.71118-1.02014,1.07275-.65686.69824-1.31366,1.4104-1.97052,2.12134-.29425.3186-.58856.63013-.88275.95142-.95038,1.0376-1.90033,2.08911-2.84918,3.15674-1.49445,1.68164-2.98761,3.37646-4.48138,5.06348-12.24011,13.82446-24.4657,27.81567-36.76373,41.81689-10.34924,11.78271-20.75061,23.56567-31.25708,35.24341-3.5022,3.89258-7.01599,7.77344-10.54352,11.63892-1.19562,1.31006-3.39258,3.90332-6.1853,7.24951-.29578.35449-.5993.71875-.90802,1.08936-1.6095,1.93311-3.38635,4.0769-5.26654,6.3479-.46332.55981-.93262,1.12671-1.40723,1.7002-.09882.11938-.19788.23901-.29718.35913-.47668.57593-.95813,1.15771-1.44366,1.74438-.50433.60938-1.01306,1.22388-1.52472,1.8418-.38129.46045-.76385.92261-1.14819,1.38623-.10278.12427-.20563.24829-.30859.37256-.38513.46484-.77148.93091-1.15845,1.39722-1.07031,1.29077-2.14551,2.58545-3.21588,3.87183-.30182.36279-.60321.72485-.90405,1.08569-.9024,1.08325-1.79932,2.15771-2.68457,3.21533-1.04541,1.24902-2.07306,2.47266-3.07623,3.66211-.69592.8252-1.3808,1.63525-2.04828,2.42114-.54321.63989-1.07593,1.26489-1.59637,1.87354-1.04083,1.21704-2.03259,2.36743-2.96075,3.43188-.23206.26611-.46014.52686-.68402.78198-.44781.51025-.87885.9978-1.29132,1.46069-.82495.92529-1.57574,1.75146-2.23804,2.45898-.33118.35376-.6402.67773-.92529.97021-.99792,1.02295-1.70294,1.65479-2.03851,1.7959-.60492.25415-1.11597.38672-1.54718.41992-.00812.00073-.01404-.00122-.02209-.00073-.80243.05518-1.32068-.24268-1.65619-.74048-.91449-1.35669-.4436-4.22705-.43622-5.72559.00311-.62744.07544-1.39355.19385-2.25635.00793-.05762.01593-.11572.02429-.17432.08759-.61548.19769-1.27856.32336-1.97681.01416-.07861.02844-.15771.04297-.23706.41949-2.29492.99237-4.94165,1.4715-7.50244.10834-.5791.21185-1.15381.30768-1.71875.04791-.28271.09387-.56274.13757-.83984.1311-.8313.24158-1.63525.32178-2.39478.02673-.25317.05011-.50146.06976-.74414.03925-.48511.06366-.94824.07025-1.38354.01324-.87109-.04474-1.63232-.19678-2.24316-.11401-.45801-.28101-.83105-.51062-1.10254-.02161-.02539-.05908-.05298-.11157-.08252-1.52173-.85107-15.64313-3.2561-20.08777-4.04858-.30652-.05469-.56702-.10156-.77417-.13989-3.74023-.69092-7.49591-1.31787-11.26495-1.88354-3.7691-.56567-7.55157-1.07007-11.34552-1.51611-3.63007-.42676-7.27112-.79663-10.92035-1.11914-2.07172-.18311-4.14557-.35327-6.22253-.50391-1.91187-.13892-3.82581-.26416-5.74158-.37622-3.8316-.22437-7.67065-.39624-11.51508-.51855-1.92224-.06104-3.84576-.10962-5.77045-.14648-5.77405-.10986-11.55804-.11157-17.34521-.01489-3.85815.06445-7.71765.17261-11.57666.32178-1.9295.07446-3.85883.15942-5.78778.25391-5.78687.28394-11.57013.65649-17.3432,1.10767-3.84869.30078-7.69281.63672-11.53033,1.00439-5.53339.53076-11.05243,1.13013-16.55249,1.7854-.45764.05444-.91498.10962-1.37231.16479-13.10663,1.58545-26.09949,3.49414-38.89575,5.61206.02484,2.71265.06415,5.47632.11963,8.28735.05554,2.81104.1272,5.66895.21686,8.56934.04486,1.4502.09418,2.91113.14819,4.38184.10809,2.94165.23499,5.92358.38245,8.94092.14746,3.01758.31555,6.07056.50592,9.15479.28558,4.62598.6214,9.32227,1.01331,14.07275.26129,3.16724.54755,6.3584.86047,9.56958.46942,4.81665.9989,9.67749,1.5943,14.56738.39697,3.26001.82324,6.53271,1.28058,9.81396,2.05798,14.76514,4.745,29.69922,8.22028,44.3877.77228,3.26416,1.5835,6.51611,2.43536,9.75146,3.40753,12.94141,7.46588,25.61597,12.2868,37.73315,1.20526,3.02905,2.45813,6.02344,3.76044,8.97852.65118,1.47754,1.3147,2.94531,1.99078,4.40234,1.35217,2.91455,2.75458,5.78735,4.20905,8.61377.72723,1.41333,1.46747,2.81519,2.22095,4.20483,1.50696,2.77905,3.06677,5.51001,4.68127,8.1875,1.6145,2.67773,3.28369,5.30249,5.00922,7.86938,1.72559,2.56714,3.50751,5.07666,5.3476,7.52393,5.52026,7.34204,11.5639,14.125,18.17804,20.22607,2.20471,2.03345,4.47284,3.99146,6.80609,5.8689,2.33325,1.87769,4.73163,3.67505,7.19684,5.38721,2.46527,1.7124,4.99744,3.34009,7.59821,4.87817s5.27014,2.98682,8.00995,4.34155c79.19189,39.15845,149.70758-7.96631,203.7066-66.27417,2.24994-2.42969,4.47125-4.87842,6.66327-7.34131,1.09601-1.23145,2.18469-2.46655,3.26605-3.70435,3.24396-3.71313,6.42151-7.4519,9.53076-11.19751,3.10919-3.74561,6.15002-7.49829,9.12067-11.23975,1.98041-2.49414,3.92963-4.9834,5.84698-7.46191.20605-.2666.40765-.53125.61304-.79736.13873-.58496.39301-1.15186.77722-1.66309,58.62646-77.99023,126.02539-208.52832,126.69971-209.83789ZM421.60992,1110.44702c-8.68262,2.74463-25.71979,2.96997-31.66449,6.83081-1.31415.85352-16.08124,24.1106-16.96838,26.34229-1.45923,3.6709.69495,3.70728,3.62573,3.65649,14.14679-.24536,29.50287-7.03589,44.53754-5.23511,1.22577.14697,1.98956,1.40869,1.55457,2.56396-8.0578,21.4021-31.28754,37.48315-53.61597,40.80176-6.63745.98633-15.612-1.05249-20.49878,1.91479-3.56354,2.16357-22.42725,27.35181-28.4516,33.3335-18.34229,18.21289-54.39899,40.68945-116.24872,26.98218-17.18774-3.80908-40.29034-26.62769-46.4021-42.60815-1.4408-3.76733-3.34296-7.89282,2.36493-7.21631,14.32953,1.69849,28.22571,7.75073,42.22015,10.73071-5.57855-4.07715-13.9043-27.28516-17.18719-36.9231-1.68872-4.95776-5.12335-15.62451-6.5943-19.88501-4.1322-11.96924-6.50507-33.76807-20.32184-38.25293-3.58978-1.16528-12.3515-2.41797-24.36786-18.11499-10.20685-13.33325-11.09894-28.81982-8.03394-35.77026.72369-1.64087,2.50317-2.57031,4.27747-2.30908,21.93207,3.2312,36.62683,28.05737,40.97546,29.77441-5.33881-11.1958,22.14618-54.27295,31.27551-48.09082,5.5285,3.7981,5.1123,36.47192-2.76672,51.31006-2.41058,4.53979-12.87543,14.35669-13.48816,17.53125-.21747,1.12646,3.51324,21.68188,4.26617,22.5481,3.40747,3.91968,4.25372-1.33081,5.38428-3.10083,11.70837-18.33301,23.9184-36.52246,41.49713-49.6499,1.60321-1.19727,3.92609-.17432,4.11578,1.81738,2.21912,23.30371-2.64093,52.87354-17.38538,71.30811-4.62476,5.78247-18.62512,14.9895-19.3291,19.36133-1.83978,11.42505,14.75928,28.10742,17.01312,39.60449,0,0,11.75867-23.3335,15.81964-31.03809,3.98517-7.56079,14.57544-26.75659,25.48218-22.79053,18.20691,6.62085,4.54193,33.48389-.42737,43.02368-3.86743,7.42432-12.63354,23.83716-12.05872,31.23853,21.81946,3.85278,60.53131-24.21338,67.75049-38.76782,2.58551-5.21289-7.69312-16.80029-10.12305-23.58813-7.20813-20.13525-3.80182-36.64307,1.73035-56.10547.63843-2.24609,3.42346-3.11768,5.15625-1.55225,4.34619,3.92578,9.6933,13.27515,11.11707,15.61206,6.98566,11.46606,9.65613,19.78296,13.37311,32.37036.79523,2.69287.60541,7.20068,4.81836,3.49658,1.42291-1.25098,18.72284-30.95166,18.8963-32.83765.33154-3.60498-12.68146-19.17676-15.33368-24.77319-5.86371-12.37329-7.03223-21.11768-5.88916-34.94751.72839-8.81201,2.98639-26.5647,13.12982-17.98413,17.3775,14.7002,23.99817,31.15991,27.71454,45.62207,3.62616-12.56787,17.38708-36.73804,18.7019-44.59473.31165-1.8623-8.65735-6.17651-11.4505-9.52344-17.31824-20.75098-9.06641-49.62695,4.32013-70.22217,5.46051-8.40088,6.76465-6.72363,12.11499.88477,9.7016,13.79614,15.27435,32.18213,16.02869,48.88989,3.80017-4.15796,25.01263-35.49683,35.27484-48.25146-4.81451-4.85522-7.7901-11.5354-7.7901-18.91138,0-14.83838,12.03448-26.86743,26.87982-26.86743s26.87988,12.02905,26.87988,26.86743-12.03455,26.86743-26.87988,26.86743c-3.41516,0-6.67816-.64331-9.68353-1.80444-5.85547,7.7998-36.7475,48.70386-33.828,51.7207,16.17932,4.51221,24.52863-19.26001,34.62341-16.97827,7.81732,1.76709-.33838,15.91016-7.50757,21.46851-4.52686,3.50977-11.33148,7.37158-19.2395,9.02686-5.80652,1.21533-17.16583,1.56641-18.82635,3.2207-2.71692,2.70654-9.55084,19.04639-10.50012,23.20874-.86206,3.78003-.15906,4.52612,3.2854,3.29199,17.7652-6.36499,27.69623-10.77881,50.60925-9.58423,2.8194.27832-2.96283,16.96265-11.57629,26.34204-9.71088,10.57422-18.5459,14.34326-32.37592,18.71484Z"/>
  <path class="d" d="M546.1933,848.91455c24.1004,15.58569,19.789,19.23877,24.51947,46.30688,3.4472,19.7251,26.3515,10.79492,35.1687,10.82153l37.15631-58.32275c.01953-.03027.03955-.06055.05957-.09082l23.86963-35.54004c4.50146-7.93164,11.32178-22.51465,10.70166-28.36035l-.08545-.80566c-.12024-1.14014-.24261-2.24365-.36652-3.31982l-12.4776,14.29907c-1.84076,2.10938-5.24847,1.8667-6.68018-.53931-.8551-1.43677-1.17419-3.34448,1.0274-5.85059,6.60193-7.51562,10.03674-9.13721,16.30981-20.98096-3.34717-19.85498-7.12964-23.01562-8.08197-23.94824-.36743-.35986-.69324-.6814-.99139-.97705-4.35016,10.37866-19.89709,26.16846-25.62482,29.0144-3.98163,1.97827-8.22986-2.5979-5.50305-6.42554,3.96008-5.55884,16.79279-16.94482,19.93988-22.51709,1.22632-2.17114,2.33563-4.58008,3.25189-6.65991-.09949-8.05518-1.79077-22.55518-9.1604-24.75122-.66455-.19824-1.2627-.37207-1.80127-.52539-.03906.02441-.07861.04883-.11865.07324-.0733.04395-.15082.07715-.22601.1167-5.50134,7.78491-20.57318,22.92651-25.50879,23.70068-2.34485.36768-7.17242-2.43677-3.28735-7.54028,4.80164-6.30737,17.01746-16.91602,21.4621-26.42578-.84967-3.80371-2.66162-8.66113-6.57617-12.47729-5.00293-4.87793-12.45947-7.0957-22.15967-6.62598-1.2876.06396-2.52979.12305-3.7428.1792-.2218.43164-.46472.85205-.75623,1.24536-2.0744,2.79883-36.65955,27.00415-39.85431,27.53076-5.1861.85498-2.89441-1.11987-3.83618-3.43677-2.52533-6.21216-4.61151-13.99976-7.00299-20.65894-29.94531,11.51416-46.89026,42.90942-50.23682,73.64673-1.14551,10.52075,1.04254,22.28857-.29236,32.1748-.21478,1.59058-1.82227,4.74658-2.40613,7.21509-.341,1.44165-.70276,2.84937-1.07532,4.2395h.00006c-.00018.00073-.00037.00122-.00055.00195-.35883,1.33887-.73669,2.64697-1.12396,3.93994-.04742.15845-.09113.323-.13898.48096-.36487,1.20239-.74756,2.37671-1.13635,3.54102-.07849.23511-.15228.47754-.23169.71094-.3761,1.10571-.76874,2.18579-1.16595,3.25854-.10217.27612-.19983.55933-.30341.83325-.38977,1.03052-.79468,2.03809-1.20355,3.03955-.12201.29883-.23981.60425-.36353.90063-.40442.96875-.82275,1.91699-1.24463,2.85962-.13953.31177-.27539.62915-.41681.93799-.42023.91821-.85315,1.81787-1.28961,2.71216-.15424.31592-.3053.63672-.46155.94995-.43646.87476-.88446,1.7334-1.33618,2.58643-.16736.31616-.33215.63599-.50153.94922-.45233.83643-.91516,1.65869-1.38177,2.47559-.17993.31494-.35797.63281-.53998.94482-.46771.802-.94482,1.5918-1.42584,2.37573-.19135.31201-.38129.62573-.57471.93506-.38336.61255-.77142,1.21948-1.16272,1.82202,20.76111,14.29663,26.90338-11.69458,60.38922,9.96045Z"/>
  <ellipse class="g" cx="1266.36072" cy="1181.64838" rx="77.05817" ry="77.02228"/>
  <path class="d" d="M176.11475,879.47974c-10.50934,3.90845-32.14551,15.86084-28.34088,29.70752,5.7121,20.78882,43.21783,1.427,50.75452-9.66846-28.91302,73.19873,36.43427,81.77295,27.67157,2.3689l16.7641,18.07983c48.69574,31.95972,44.51434-24.93115,4.87244-34.9563,4.75269-6.49854,15.09167-5.47314,23.27234-9.17163,11.07361-5.00635,29.94098-22.36694,15.09265-32.74805-16.26733-11.37329-41.44867,8.40015-55.16089,16.72412,9.44781-14.58813,18.76947-63.53003-.09088-72.15161-26.31531-12.0293-34.09631,50.30078-26.45422,66.09888l-13.27808-14.34912c-35.60034-29.28784-57.46497,3.10059-18.75409,28.35669,4.21008,2.74658,8.19299,3.21118,11.79333,5.02393,10.71234,5.39331-3.14771,4.82812-8.14191,6.6853Z"/>
  <path class="g" d="M1224.72736,1406.93262c.01984,2.4043-.03156,4.81055,0,7.21484,15.12762-1.67725,22.21484-.23779,25.18109,5.7876.32074.65137.59161,1.35889.82098,2.11963.00629.02051.01434.03955.02057.06055,1.39929,4.70801,1.16058,11.52734.44507,20.89258,4.00824.05811,8.02313-.07422,12.0307,0,6.80841.12646,26.42456-2.51709,28.53772,3.94385l.33606,97.06738c.00281.00146.00549.00293.0083.00391,18.2417,8.57324,39.8302,20.19775,50.52087,33.66699h0c.76794-71.29688-.58282-142.75879.01245-214.06055l-117.91382.0127c.14062,14.39551-.11871,28.89404,0,43.29053Z"/>
  <path class="g" d="M1249.90845,1419.93506c.32074.65137.59161,1.35889.82098,2.11963-.22937-.76074-.50024-1.46826-.82098-2.11963Z"/>
  <path class="g" d="M1250.75,1422.11523c1.39923,4.70801,1.16046,11.52734.44501,20.89258h.00006c.71552-9.36523.95422-16.18457-.44507-20.89258Z"/>
  <path class="g" d="M782.81982,624.88208c2.93243.14453,5.86548.28491,8.80072.41479l-69.77832-218.85791c-19.37512,18.0083-39.93463,34.0918-59.953,50.34326l5.06165,3.67773s-49.74323,36.70361-67.82227,46.99023l36.09222,120.25171c27.617-5.47974,60.79901-4.62891,89.02753-4.81006,8.54218-.05493,17.00763.13037,25.43176.43555,11.09125.40186,22.11084,1.01123,33.13971,1.55469Z"/>
  <path class="g" d="M782.81982,624.88208c-11.02887-.54346-22.04846-1.15283-33.13971-1.55469,11.09125.40186,22.11084,1.01123,33.13971,1.55469Z"/>
  <path class="g" d="M599.1286,507.4502c18.07904-10.28662,67.82227-46.99023,67.82227-46.99023l-5.06165-3.67773c-.06671.0542-.13403.10815-.20074.16235-17.04962,13.84473-44.48083,40.21899-62.55988,50.50562Z"/>
  <path class="d" d="M925.53723,933.69849c1.9978-.93115,4.02271-1.85181,6.07166-2.76001,6.14679-2.72412,12.50989-5.33447,19.00677-7.76904,2.16559-.81152,4.34607-1.60352,6.53833-2.37402,2.19226-.77002,4.39636-1.51855,6.60913-2.24316,1.10645-.3623,2.21497-.71851,3.32538-1.06836,3.33118-1.0498,6.67853-2.04297,10.0318-2.97168,2.23547-.61938,4.47357-1.20996,6.7113-1.76978,2.23767-.55981,4.47498-1.08862,6.70874-1.58423,10.05188-2.23096,20.03296-3.79102,29.66437-4.47266.26581-21.87793,6.89539-43.67529,9.62457-64.93579.72504-5.64795,17.70923-149.2085,24.15485-215.10718l-24.1272-3.77783c-2.56512-2.5022,7.10718-45.29346,6.76392-59.59668-.04395-1.83105-1.17615-3.4563-2.85596-4.18652-2.84344-1.23633-7.54498-2.93408-11.30029-2.59912,0,0,3.75256-19.5127,3.40283-29.43628-.45319-12.85962-4.96881-21.54419-5.75702-30.50342-.297-3.37573-3.19806-5.92773-6.58679-5.92773h-.3175c-2.86597,0-5.34454,1.88696-6.23712,4.61035-3.45184,10.53223-10.9212,19.65332-12.65466,30.84033-.88379,5.7041-.56506,27.08618-.56506,27.08618-2.13068-.48022-5.81567-.33887-8.6709-.11865-2.3949.18506-4.44202,1.92236-4.88013,4.28418-4.43469,23.90625-6.19287,37.8667-7.84802,56.4873-8.45978-1.19531-16.1759-3.75732-24.31384-2.92969l-31.29608,327.07617c.95483-.47876,1.9176-.95557,2.88788-1.43042,1.94055-.94946,3.91125-1.89111,5.90906-2.82227ZM980.3913,653.18481l31.03589,2.06641-4.58624,40.98486c-1.21106.98022-27.70856-1.13794-28.71466-1.94092-3.07574-2.45459,2.76971-34.89722,2.26501-41.11035ZM974.59821,714.2832l31.03589,2.06641-4.58624,40.98462c-1.21106.98022-27.70856-1.13794-28.71466-1.94067-3.07574-2.45459,2.76971-34.89722,2.26501-41.11035ZM967.4704,783.28174c1.43005-3.61719,28.93549.31152,31.00592,1.71509,0,0-1.61749,36.13159-4.32184,36.26929-6.69775.34131-16.13434-.15576-30.17804-1.78174,1.08533-7.01929,2.81586-34.48755,3.49396-36.20264ZM960.88458,847.06152c1.43005-3.61719,28.93549.31152,31.00592,1.71533,0,0-1.61749,36.13135-4.32184,36.26929-6.69775.34106-16.13434-.15601-30.17804-1.78198,1.08533-7.01904,2.81586-34.4873,3.49396-36.20264Z"/>
  <path class="d" d="M1265.67438,505.05859c-.49994-.3811-2.20642-9.14355-3.67322-12.02246-18.72516-36.75244-64.15686-39.60913-88.85571-7.08105-3.00891,3.96265-5.58905,13.72363-8.55426,15.59497-4.5025,2.8418-13.42981-1.79907-20.16791-1.22168-22.60657,1.93677-43.4292,27.76587-40.02039,50.42236l175.66589,21.6355c2.00513-17.05664,4.90234-34.68188,7.36121-52.2373.81964-5.85205,1.59052-11.69604,2.26343-17.50879-4.8576-2.51733-23.05939,3.15039-24.01904,2.41846Z"/>
  <path class="d" d="M1289.69342,502.64014h0c-.67291,5.81274-1.44379,11.65674-2.26343,17.50879.81958-5.85181,1.59052-11.69604,2.26343-17.50879Z"/>
  <path class="d" d="M1280.06885,572.38623c2.00507-17.05664,4.90228-34.68188,7.36115-52.2373-2.45886,17.55542-5.35608,35.18066-7.36121,52.2373h.00006Z"/>
  <path class="d" d="M862.31018,876.22949c.24817-2.07617-1.25098-3.95703-3.33295-4.14746l-21.45117-1.96289c-2.05762-.18823-3.87103,1.34424-4.02838,3.40454l-2.33118,30.52246c34.31921,7.46313,27.98822-1.4209,31.14368-27.81665Z"/>
  <path class="d" d="M818.03137,841.69727c.00293-6.97266,5.39209-25.62256,2.12091-30.86694-1.59375-2.55518-22.18762-3.96362-23.58911-2.60791-1.18689,1.14819-3.80157,29.85742-2.5083,31.09399l23.9765,2.38086Z"/>
  <path class="d" d="M811.20331,901.29956c3.23401-2.02954,4.10876-31.76392,2.90399-32.91284-.93109-.88818-21.86316-1.9834-25.6084-2.60181-1.04742,25.92627-12.88983,39.08374,22.70441,35.51465Z"/>
  <path class="d" d="M870.89313,788.69604c1.16748-1.12939,3.78925-29.94482,2.55096-31.13477-.78613-.75537-20.90759-2.07568-21.76495-1.4021-2.87799,2.26147-6.34601,26.77026-4.36963,29.93506,3.74072,2.54395,21.92999,4.20142,23.58362,2.60181Z"/>
  <path class="d" d="M822.30963,783.42383c2.87799-2.26147,6.34601-26.77026,4.36963-29.93506-3.74072-2.54395-21.92999-4.20142-23.58362-2.60181-1.16742,1.12939-3.78925,29.94482-2.55096,31.13452.78619.75562,20.90759,2.07593,21.76495,1.40234Z"/>
  <path class="g" d="M1020.35468,468.80249c3.34644,0,6.50452-1.54126,8.55133-4.18872,58.36841-75.49609,168.94543-151.74609,135.69073-260.88574-32.04755-105.17773-179.72375-121.76465-236.13208-28.14795-61.461,102.00244,37.1427,200.10327,82.26721,287.35547,1.86298,3.60205,5.56732,5.86694,9.6228,5.86694ZM979.81793,242.30273c0-33.10205,26.84692-59.93652,59.96423-59.93652s59.96429,26.83447,59.96429,59.93652-26.84692,59.93628-59.96429,59.93628-59.96423-26.83447-59.96423-59.93628Z"/>
  <path class="d" d="M1125.93231,851.49951c-.83679-.86401-23.08374-3.40723-23.92554-2.5481l-2.20001,28.68921,23.73792,2.44946c.21295-5.26416,4.9458-25.94946,2.38763-28.59058Z"/>
  <rect class="d" x="1143.11438" y="858.99756" width="30.64865" height="25.29077" transform="translate(150.74692 1913.89959) rotate(-82.92486)"/>
  <rect class="d" x="1115.93588" y="693.06654" width="30.64865" height="25.29074" transform="translate(291.70822 1741.53595) rotate(-82.93175)"/>
  <path class="d" d="M1175.55786,829.86865c1.42151-2.12524,4.39771-25.75977,1.16956-27.93384-2.4101-1.62329-20.87964-1.69482-21.65521-.93823-1.14209,1.11426-3.66022,27.27783-2.38489,28.5979.81525.84375,20.21338,4.24658,22.87054.27417Z"/>
  <path class="d" d="M1129.83771,822.65796c1.58276-2.24634,1.87952-24.38794.71497-26.26123-1.4848-2.38843-20.32013-3.81641-21.32599-2.75806-.98602,1.0376-1.9834,24.49487-2.06787,28.5459,4.97571,2.4834,19.34216,5.20874,22.67889.47339Z"/>
  <path class="d" d="M865.97919,844.04102c1.76324-2.5022,2.09381-27.16846.79645-29.25537-1.65405-2.66089-22.63702-4.25171-23.75763-3.07251-1.09845,1.15576-2.20953,27.2876-2.30359,31.80078,5.54297,2.76636,21.54755,5.80249,25.26477.5271Z"/>
  <g>
    <path class="f" d="M251.80298,1535.16016c-8.44086-5.13672-19.26526-8.73242-33.02936-8.73242-18.56476,0-31.19794,9.01611-39.43481,18.77637-8.74481,10.36182-13.31708,23.6123-13.31708,37.17139v36.19141h113.08899v-33.89795c0-20.09668-10.14014-39.06152-27.30774-49.50879Z"/>
    <path class="f" d="M616.47034,1551.93848c-21.69727-37.05273-77.50403-35.47998-97.23743,2.41113-.14459.27734-.37872.81201-.6748,1.52734-4.02307,9.71729-6.0509,20.14453-6.0509,30.66162v32.02832h113.08905v-28.41992c0-9.38818-1.64185-18.70459-4.84027-27.53125-1.72052-4.74805-3.43976-9.23291-4.28564-10.67725Z"/>
    <path class="f" d="M395.80896,1524.57959c-29.90149,0-44.16583,16.91016-50.85742,30.96387-3.8382,8.06104-5.68707,16.92432-5.68707,25.85254v37.1709h113.08905v-38.53125c0-9.01562-1.86481-17.97559-5.79791-26.08789-6.64465-13.70508-20.79126-29.36816-50.74664-29.36816Z"/>
    <path class="f" d="M704.98688,115.44214l-185.24817,100.98755L517.30695.00098l-123.92938,187.56714L294.73907,0l-22.85883,216.43213L103.47443,115.44189l74.5835,192.37988L.00952,303.04688l144.36267,126.18018L0,519.44971l156.38824,38.52197-93.83051,137.04688,164.42548-43.74854c.52557-.25415.9729-.54102,1.36328-.84619-.06293-.19922-.12024-.40723-.19354-.59033-.92432-2.30664.19727-4.92676,2.50439-5.85059.03217-.01294.06537-.01611.09766-.02808-10.25238-25.87305-21.27692-51.45972-31.08826-77.54028-4.3222-11.48926-5.62579-24.0127-9.58356-34.91406-13.36511,1.39624-12.78894-19.84351-16.17725-35.53809-20.44678-94.7085,80.73206-171.67725,169.05981-142.52637,13.93555,4.59912,80.15344,44.73169,58.85858,57.81299,13.17102,12.59351,20.4621,29.26953,32.44867,43.32495,8.42554,9.87964,42.64526,37.35181,41.6217,48.89722-1.02118,11.51733-27.82886,19.40405-28.5238,22.40186-1.98718,8.57227,8.67041,27.55737,6.3374,32.06689-3.36902,6.51221-34.11853,19.20483-35.034,22.89331-1.75171,7.05786,25.17981,13.85449,35.49146,13.62158,1.76526-.03979,3.26263,1.28638,3.46423,3.04053,5.85602,50.95947-24.53125,75.92065-75.03101,71.11499l-16.86688,93.77344c30.5238,36.39404,47.6936,94.97461,62.55988,139.4917h.00006c.94885-1.06763,1.8988-2.11914,2.84912-3.15674.29419-.32129.5885-.63281.88275-.95142.6568-.71094,1.3136-1.4231,1.97052-2.12134.34021-.36157.67999-.71436,1.02014-1.07275.61389-.64697,1.22772-1.29565,1.84113-1.93262.33789-.35107.67505-.69434,1.0127-1.04248.61694-.63623,1.23395-1.27344,1.84991-1.90063.31738-.32324.63361-.64062.95068-.96167.64178-.6499,1.28333-1.2998,1.92346-1.94141.2558-.25659.51044-.50903.76587-.76416.71948-.71875,1.43811-1.43579,2.15479-2.14575.10144-.10034.20221-.19971.30353-.30005,4.34583-4.30127,8.63397-8.46021,12.80072-12.61304.02844-.02832.05707-.05664.08551-.08496.21344-.21265.42908-.42554.64185-.63843.57471-.57471,1.14355-1.15039,1.71338-1.72559.12268-.12402.24591-.2478.36841-.37158.72449-.7334,1.44336-1.46802,2.15918-2.2041.16589-.17041.33234-.34082.49774-.51147.6803-.70239,1.3551-1.40698,2.02679-2.11353.19482-.20459.38989-.40942.58392-.61475.64685-.68408,1.28839-1.37183,1.92651-2.06177.20953-.22632.41919-.45288.62769-.67993.62134-.67676,1.23724-1.35742,1.84949-2.04102.21832-.2439.43646-.48779.65356-.73242.59961-.67578,1.19397-1.3562,1.78418-2.04004.22125-.25635.44183-.51318.66174-.77075.57971-.6792,1.1543-1.36304,1.72418-2.05151.22308-.26953.44519-.54028.66681-.81128.56079-.68628,1.11664-1.37744,1.66718-2.07446.22113-.27979.4408-.56128.66028-.84302.54425-.69873,1.08374-1.40283,1.61725-2.11353.21576-.2876.42957-.57739.64355-.8667.52869-.71582,1.0528-1.43652,1.57019-2.16553.20966-.29541.41675-.59375.62445-.89136.51221-.73413,1.02002-1.47363,1.52026-2.22266.203-.30371.40289-.61133.60382-.91772.10278-.15674.20654-.31201.30878-.46924.3913-.60254.77936-1.20947,1.16272-1.82202.19342-.30933.3833-.62305.57471-.93506.48108-.78418.95813-1.57349,1.42584-2.37573.18207-.31201.35999-.62988.53998-.94482.46661-.81689.92938-1.63892,1.38177-2.47559.16943-.31323.33417-.63306.50153-.94922.45166-.85327.89972-1.71167,1.33618-2.58643.15625-.31323.30725-.63403.46155-.94995.43646-.89429.86938-1.79395,1.28961-2.71216.14142-.30884.27722-.62622.41681-.93799.42194-.94287.84021-1.89062,1.24463-2.85962.12372-.29639.24146-.60181.36353-.90063.40887-1.00146.81378-2.00879,1.20355-3.03955.10364-.27393.20117-.55713.30341-.83325.39728-1.07275.78986-2.15259,1.16595-3.25854.07947-.2334.1532-.47583.23169-.71094.38879-1.16431.77148-2.33862,1.13635-3.54102.04791-.15796.09155-.32251.13898-.48096.38727-1.29297.76514-2.60107,1.12396-3.93994.00018-.00073.00031-.00146.00049-.00195.37256-1.39014.73431-2.79785,1.07532-4.2395.58386-2.46851,2.19135-5.62451,2.40613-7.21509,1.3349-9.88623-.85315-21.65405.29236-32.1748,3.34656-30.7373,20.2915-62.13257,50.23682-73.64673-.47888-1.3335-.97052-2.69653-1.46643-4.08179-3.42224-9.55908-7.05176-20.18311-8.1582-29.58862-20.70648,4.01978-35.51501,7.34961-51.81696-9.5354-23.74188-24.59082-26.23798-71.74365,5.242-91.1311,27.83179-17.14087,72.18909-28.09009,99.51025-43.6355,18.07904-10.28662,45.51025-36.66089,62.55988-50.50562.06671-.0542.13403-.10815.20074-.16235l-41.05029-29.82593,130.41882-103.54883h.00006l.02759-.26074,1.76392-16.68774-146.69043,1.3606,98.62799-192.37744Z"/>
    <path class="f" d="M1250.75,1422.11523c-.00623-.021-.01428-.03955-.02057-.06055-.22937-.76074-.50024-1.46826-.82098-2.11963-2.96631-6.02539-10.05353-7.46436-25.18103-5.7876.09448,7.19482-.00317,14.44238-.02533,21.66357-.00739,2.40723-.00635,4.81104.01294,7.20947,6.59241.05957,13.23578-.04834,19.85394-.05322h.03467c2.20087-.00098,4.39893.00879,6.59137.04053.71545-9.36523.95422-16.18457-.44501-20.89258Z"/>
    <path class="f" d="M1114.55499,1136.78613c-.17236.00146-.34131-.01685-.51044-.03345v117.81055c5.96588.14868,11.27081.29883,15.8205.40894,1.89343.0459,3.84326.09644,5.83484.15479v-118.59985c-.96527.15137-2.0318.25757-3.2124.36963-5.82874.55225-11.9726-.15723-17.9325-.1106Z"/>
    <path class="f" d="M1034.6416,1254.63672v-118.2146c-.63831.27637-1.33521.41577-2.04181.37427-6.33771-.37256-13.63721.96021-19.61353.12598v118.49316c.42932.00537.88635.03003,1.35529.06201,6.96063-.35156,13.73346-.62793,20.30005-.84082Z"/>
    <path class="f" d="M1024.30219,1384.41895c-44.4176,8.21436-44.06879,82.12744,2.0578,88.19629,70.3833,9.26025,67.73578-101.104-2.0578-88.19629Z"/>
  </g>
  <g>
    <path class="e" d="M1231.9458,983.64673c-18.31158-7.52344-31.56378-25.20093-48.12292-36.07544h-.00006c-10.11145-6.64038-20.99213-12.51855-32.39844-17.60962-3.25891-1.45459-6.56079-2.84473-9.89984-4.17017s-6.71533-2.58594-10.12317-3.78125c-3.40778-1.19507-6.84717-2.32495-10.31238-3.38867-1.7326-.53174-3.47168-1.04712-5.21649-1.5459-2.1897-.62598-4.39117-1.21631-6.59753-1.78979-2.65521-.69019-5.32086-1.34277-7.99579-1.95679-2.4765-.56836-4.95935-1.10596-7.44873-1.6084-3.00366-.60645-6.01483-1.16528-9.03094-1.67529-.5094-.08594-1.01855-.17139-1.52814-.25464-21.2218-3.47095-42.63934-4.55078-63.06665-3.10522-9.63141.68164-19.61249,2.2417-29.66437,4.47266-2.23376.49561-4.47107,1.02441-6.70874,1.58423-2.23773.55981-4.47583,1.15039-6.7113,1.76978-3.35327.92871-6.70062,1.92188-10.0318,2.97168-1.11041.34985-2.21893.70605-3.32538,1.06836-2.21277.72461-4.41687,1.47314-6.60913,2.24316-2.19226.77051-4.37274,1.5625-6.53833,2.37402-6.49689,2.43457-12.85999,5.04492-19.00677,7.76904-2.04895.9082-4.07385,1.82886-6.07166,2.76001s-3.96851,1.8728-5.90906,2.82227c-.97028.47485-1.93304.9519-2.88788,1.43042-12.19806,6.11426-27.36835,13.59839-36.09222,24.05029,32.5321,9.10645,67.36542,15.50464,103.11877,20.79053,13.1239,1.94019,26.37048,3.73218,39.67523,5.4502,4.4859.5791,8.97748,1.15137,13.47363,1.71729,6.26886.78906,12.54468,1.5686,18.82135,2.3457,4.47638.5542,8.95227,1.1084,13.42645,1.66382,6.26843.77808,12.53162,1.56079,18.78363,2.35474,4.49805.57129,8.98914,1.14966,13.47247,1.73657,15.23486,1.99414,30.36737,4.09766,45.29749,6.42603,4.97668.77637,9.93091,1.57739,14.85889,2.40796,1.17761.19849,2.35309.39941,3.52765.60132,5.64905.97095,11.26086,1.98364,16.83191,3.04224,10.83441,2.05859,21.51746,4.28735,31.99249,6.75146h.0177l13.19159.0354c-.04834-.7207-.07825-1.43945-.09149-2.15625-.06622-3.58374.28455-7.11914.83887-10.62769.33258-2.10498.73846-4.2002,1.17151-6.29028.25769-1.24365.52515-2.48535.79236-3.72632.05859-.27197.11646-.5437.17487-.81567.24677-1.14795.49078-2.29517.72607-3.44263.05261-.25635.10388-.51294.1554-.76929.39136-1.94775.75232-3.89624,1.04095-5.84985h-.00006Z"/>
    <path class="e" d="M1021.84442,1500.18164c-2.5506-2.87012-7.26123-1.82666-8.36115,1.85205l-23.44904,78.42676c-1.05164,3.51758,1.99359,6.90039,5.60162,6.22266l79.82184-14.99121c3.74597-.70361,5.29138-5.22559,2.75952-8.07471l-56.3728-63.43555Z"/>
  </g>
  <path class="b" d="M1010.55725,1361.89111c2.48535,0,4.5-2.01465,4.5-4.5v-67.61035c0-2.48535-2.01465-4.5-4.5-4.5s-4.5,2.01465-4.5,4.5v67.61035c0,2.48535,2.01465,4.5,4.5,4.5Z"/>
  <path class="b" d="M1061.03967,1361.89111c2.48535,0,4.5-2.01465,4.5-4.5v-67.61035c0-2.48535-2.01465-4.5-4.5-4.5s-4.5,2.01465-4.5,4.5v67.61035c0,2.48535,2.01465,4.5,4.5,4.5Z"/>
  <path class="b" d="M1111.52258,1591.27002c2.48535,0,4.5-2.01465,4.5-4.5v-296.98926c0-2.48535-2.01465-4.5-4.5-4.5s-4.5,2.01465-4.5,4.5v296.98926c0,2.48535,2.01465,4.5,4.5,4.5Z"/>
  <path class="b" d="M1162.00549,1591.27002c2.48535,0,4.5-2.01465,4.5-4.5v-296.98926c0-2.48535-2.01465-4.5-4.5-4.5s-4.5,2.01465-4.5,4.5v296.98926c0,2.48535,2.01465,4.5,4.5,4.5Z"/>
  <path class="d" d="M900.28821,1330.25391s.34692-21.10889-.02136-37.82861c0,0-22.79016-.96533-29.24341-.93433v38.48022c13.68158,1.10693,29.26477.28271,29.26477.28271Z"/>
  <rect class="d" x="871.02344" y="1366.04688" width="28.87384" height="38.48047"/>
  <rect class="d" x="871.02344" y="1443.00781" width="28.87384" height="38.48047"/>
  <path class="d" d="M844.55585,1404.52734v-38.48047c-8.66534-.70215-22.82629-.88574-28.88623.90723,0,0,.2558,31.07959,0,37.58594l28.88623-.0127Z"/>
  <path class="d" d="M844.55585,1329.97119v-38.48022c-11.01019-.75513-27.2171.31372-27.2171.31372-1.31036,3.41382-1.97491,35.3335-.25287,37.63232,1.10297,1.47217,19.95404,1.88477,27.46997.53418Z"/>
  <path class="d" d="M900.85571,1255.8208s-1.05597-20.48657-.94598-36.49341l-28.88629.01245v36.07568c15.71759,1.46973,29.83228.40527,29.83228.40527Z"/>
  <rect class="d" x="818.0882" y="1219.33984" width="26.46765" height="36.07568"/>
  <path d="M1573.25653,79.29346c-22.29187,3.47485-61.42456,29.74463-79.94598,28.43921l-102.26398-42.26904c-15.16437-3.427-39.64001-2.87305-27.63818,18.00708l61.28802,57.74878c-14.70343,2.41968-41.84448,22.44043-54.53998,23.5249-2.35797.20142-6.15247-1.38745-10.6131-3.75806,1.60797-13.21948,3.21539-26.43896,4.82623-39.6582,2.69122-15.60376-18.33276-9.9458-28.95929-13.11328-1.52423,12.36328-3.01733,24.7334-4.51074,37.10352-1.4007,11.60303-2.78766,23.20874-4.16522,34.81689-12.74805,107.42163-24.60052,215.04199-37.04089,322.50488-.67291,5.81274-1.44385,11.65698-2.26343,17.50879-2.45886,17.55542-5.35608,35.18066-7.36115,52.2373h-.00006c-16.05835,136.60425-27.99121,275.00171-48.12299,411.2605h.00006c-.28864,1.95361-.6496,3.9021-1.04095,5.84985-.05151.25635-.10284.51294-.1554.76929-.23523,1.14746-.47931,2.29468-.72607,3.44263-.05847.27197-.11633.54395-.17487.81567-.26715,1.24097-.53467,2.48267-.79236,3.72632-.43304,2.09009-.83893,4.1853-1.17151,6.29028-.55432,3.50854-.90509,7.04395-.83887,10.62769.01324.7168.04315,1.43555.09149,2.15625l-13.19159-.0354h-.01776c-10.47504-2.46411-21.15802-4.69287-31.99243-6.75146-5.57104-1.05859-11.18292-2.07129-16.83191-3.04224-1.17456-.2019-2.34998-.40283-3.52765-.60132-19.71198-3.32202-39.84332-6.17529-60.15637-8.83398-4.48328-.58667-8.97443-1.16528-13.47247-1.73657-6.25201-.79395-12.5152-1.57666-18.78363-2.35474-4.47418-.55542-8.95007-1.10962-13.42645-1.66382-6.27667-.7771-12.55243-1.55664-18.82135-2.3457-4.49615-.56592-8.98767-1.13818-13.47363-1.71729-13.30481-1.71802-26.55127-3.51001-39.67523-5.4502-35.75342-5.28589-70.58667-11.68408-103.11884-20.79053-1.81506-.50806-4.92413.58252-7.12378-.07617l28.83276-236.71631c-38.67273-6.72339-78.58813-13.44043-117.96741-15.74878l-24.05322,233.30884c-17.67517-1.72852-35.42969-4.34082-52.93109-7.2229,2.66589,7.45337-6.46143,23.57104,1.59717,26.06934l539.76941,86.97583c37.27216-279.72266,70.9743-559.97388,105.00568-840.16992,28.50012,4.76514,77.46075-21.13965,105.60925-26.37158,10.86761,15.77637,25.07788,50.83984,48.8382,30.6355,8.9469-7.60791,9.70251-49.01855,17.61029-55.72925,7.74548-6.57275,50.16614-17.49585,64.11627-24.89941,44.52283-23.62964,41.28589-61.80176-16.69501-52.76318ZM851.67914,756.15918c.85736-.67358,20.97882.64673,21.76495,1.4021,1.23828,1.18994-1.38348,30.00537-2.55096,31.13477-1.65363,1.59961-19.8429-.05786-23.58362-2.60181-1.97638-3.16479,1.49164-27.67358,4.36963-29.93506ZM843.01801,811.71313c1.12061-1.1792,22.10358.41162,23.75763,3.07251,1.29736,2.08691.9668,26.75317-.79645,29.25537-3.71722,5.27539-19.7218,2.23926-25.26477-.5271.09406-4.51318,1.20514-30.64502,2.30359-31.80078ZM833.49768,873.52368c.15735-2.0603,1.97076-3.59277,4.02838-3.40454l21.45117,1.96289c2.08197.19043,3.58112,2.07129,3.33295,4.14746-3.15546,26.39575,3.17554,35.27979-31.14368,27.81665l2.33118-30.52246ZM803.09564,750.88696c1.65363-1.59961,19.8429.05786,23.58362,2.60181,1.97638,3.16479-1.49164,27.67358-4.36963,29.93506-.85736.67358-20.97876-.64673-21.76495-1.40234-1.23828-1.1897,1.38354-30.00513,2.55096-31.13452ZM796.56317,808.22241c1.40149-1.35571,21.99536.05273,23.58911,2.60791,3.27118,5.24438-2.11798,23.89429-2.12091,30.86694l-23.9765-2.38086c-1.29327-1.23657,1.32141-29.9458,2.5083-31.09399ZM788.4989,865.78491c3.74524.61841,24.67731,1.71362,25.6084,2.60181,1.20477,1.14893.33002,30.8833-2.90399,32.91284-35.59424,3.56909-23.75183-9.58838-22.70441-35.51465Z"/>
  <path d="M190.08319,531.50049c43.94037-23.41113,136.24609-74.03101,137.15051-74.55591,24.31512-14.1123,50.30096-30.77466,74.59064-45.69556,21.29486-13.0813-44.92303-53.21387-58.85858-57.81299-88.32776-29.15088-189.50659,47.81787-169.05981,142.52637,3.38831,15.69458,2.81213,36.93433,16.17725,35.53809Z"/>
  <path d="M546.1933,651.7522c17.31769-3.36182,35.67603-8.23364,52.9353-12.02515,10.45685-2.29712,26.5174-10.12549,36.09222-12.02515l-36.09222-120.25171c-27.32117,15.54541-71.67847,26.49463-99.51025,43.6355-31.47998,19.38745-28.98389,66.54028-5.242,91.1311,16.30194,16.88501,31.11047,13.55518,51.81696,9.5354Z"/>
  <path d="M1099.63715,666.1665l-26.51001,206.83716c-3.84857-.02417-12.66193-1.3606-12.66193-1.3606.96552-7.20947,2.13794-25.26367,2.13794-25.26367,0,0-21.57861-6.80396-32.77386-4.62964-2.72919,21.2605-9.35876,43.05786-9.62457,64.93579,20.42731-1.4458,41.84479-.36572,63.06665,3.10522.50958.08325,1.0188.1687,1.52814.25464,3.01611.51001,6.02734,1.06885,9.03094,1.67529,2.48938.50244,4.97229,1.04004,7.44873,1.6084,2.67493.61401,5.34058,1.2666,7.99579,1.95679,2.20642.57349,4.40784,1.16382,6.59753,1.78979,1.74481.49878,3.48389,1.01416,5.21649,1.5459,3.46521,1.06372,6.9046,2.1936,10.31238,3.38867,3.40784,1.19531,6.78412,2.45581,10.12317,3.78125s6.64093,2.71558,9.89984,4.17017c11.40631,5.09106,22.28699,10.96924,32.39844,17.60962l19.39233-171.76562c-.3667-2.1394-35.94641-7.27246-41.06244-6.19434l6.96857-93.55249-69.48413-9.89233ZM1123.54468,880.09009l-23.73792-2.44946,2.20001-28.68921c.8418-.85913,23.08875,1.68408,23.92554,2.5481,2.55817,2.64111-2.17468,23.32642-2.38763,28.59058ZM1129.83771,822.65796c-3.33673,4.73535-17.70319,2.01001-22.67889-.47339.08447-4.05103,1.08185-27.5083,2.06787-28.5459,1.00586-1.05835,19.84119.36963,21.32599,2.75806,1.16455,1.87329.8678,24.01489-.71497,26.26123ZM1116.82343,719.36353l3.77502-30.41528,25.09851,3.11206-3.77496,30.41528-25.09857-3.11206ZM1169.10046,888.40674l-25.09851-3.1123,3.77496-30.41528,25.09857,3.1123-3.77502,30.41528ZM1176.72742,801.93481c3.22815,2.17407.25195,25.80859-1.16956,27.93384-2.65717,3.97241-22.0553.56958-22.87054-.27417-1.27533-1.32007,1.2428-27.48364,2.38489-28.5979.77557-.75659,19.24512-.68506,21.65521.93823Z"/>
  <path d="M795.71057,625.50757c.3772.01758.7608.03394,1.14868.0481,2.71521.09961,5.64185.09912,8.07745-.30103.69586-.11426,1.35168-.26123,1.95099-.44751.5993-.18652,1.14215-.4126,1.61212-.68506,3.8045-2.20581,4.89105-10.24512,4.81372-19.41211-.00513-.61133-.0155-1.22754-.03052-1.84717-.01703-.70239-.0401-1.40942-.0686-2.11914-.42712-10.64453-2.06512-21.87769-2.65155-26.84814-2.92865-24.82593-8.24017-48.36768-15.55499-71.06152-1.21912-3.78223-2.4939-7.54102-3.82257-11.27832-1.99298-5.60571-4.1073-11.16309-6.33685-16.67871-1.48639-3.67725-3.02405-7.33594-4.61115-10.97803-2.38068-5.46313-4.87274-10.88916-7.47021-16.28491-2.59753-5.39575-5.30048-10.76147-8.10284-16.10327-6.53894-12.46484-13.61963-24.80151-21.16669-37.09692h-.00006c-11.29413-6.29956-15.16895,5.99634-21.65527,12.02515l69.77832,218.85791c1.17419.052,2.58118.14087,4.09003.21069Z"/>
  <path d="M840.34192,499.64038c.84998.86597,2.1568,1.50562,3.5578,1.93042,2.02032.6123,4.17804.53125,6.21802-.01221,16.16571-4.30493,70.38428-6.41968,75.09143-15.71338,6.14789-12.13843-3.46667-17.17749-14.48401-17.05835-12.33496.1333-48.70374,7.23926-62.04871,10.31519-9.78076,2.25439-15.74841,12.98413-8.33453,20.53833Z"/>
  <path d="M803.64661,388.50366c2.00171-2.14258,10.63037-14.57837,13.05115-18.32739,5.45856-8.45386,27.13226-41.33032,29.19049-47.81543,3.23016-10.17749-2.40521-15.45776-9.60406-15.5332-4.83777-.05078-9.01239,4.7439-11.20374,9.05713-10.21167,20.10059-13.1181,25.05786-25.25604,43.81641-2.26123,3.49463-11.60693,16.29248-11.2644,20.09204,1.01154,11.21851,10.89655,13.19531,15.08661,8.71045Z"/>
  <path d="M869.21259,618.91748c-3.20013-2.87988-14.37274-12.28247-16.77734-13.77246-5.03333-3.1189-13.73907,1.21631-11.8501,11.91772.63971,3.62427,12.57147,13.18286,15.55884,15.86646,16.03583,14.40454,5.98962,5.75586,20.57037,21.89551,3.12885,3.46362,8.22595,6.87476,12.7179,5.60669,6.68427-1.88672,10.59937-8.22534,5.02338-16.88745-3.55298-5.51929-18.02704-18.13208-25.24304-24.62646Z"/>
  <path d="M821.23987,423.97217c-7.59888,9.36011-1.56854,21.46582,11.3606,17.51978,3.66949-1.12012,54.27295-33.48999,58.89032-37.43872,11.80774-10.09741,3.10687-23.50342-8.44287-20.68188-3.90417.95386-59.16217,37.3418-61.80804,40.60083Z"/>
  <path d="M930.02643,572.88696c1.10339-4.53394-.63831-9.68726-7.05481-12.74683-7.48383-3.5686-49.91321-14.98828-58.61414-16.02417-3.80963-.45361-6.93671-1.31421-10.86035-.14966-7.85565,2.33105-8.29126,10.67529-3.12994,16.61768,7.01605,8.07739,48.18744,13.16699,64.5011,19.80469,6.25323,2.54419,13.56171-.94214,15.15814-7.50171Z"/>
  <path d="M1012.73834,1136.89673c.08044.01196.16693.0144.24792.02563,5.97632.83423,13.27582-.49854,19.61353-.12598.7066.0415,1.4035-.0979,2.04181-.37427.55139-.23853,1.06049-.57642,1.47693-1.02417,2.01215-2.1626,3.01019-5.74072,4.81213-6.8916,2.64636-1.68994,56.3075-2.40381,62.21381-1.24634,4.23755.83032,5.6532,3.38232,6.99628,6.64722.66571,1.61816,2.18677,2.67798,3.90381,2.84546.16913.0166.33807.03491.51044.03345,5.9599-.04663,12.10376.66284,17.9325.1106,1.1806-.11206,2.24713-.21826,3.2124-.36963,4.18695-.65649,6.46747-2.16162,7.8775-8.65601,4.35645-20.06445-5.09906-30.15137-23.91382-31.95239-23.4292-2.24268-70.65887-2.21484-94.12256-.02173-17.85901,1.66919-26.7677,16.1394-21.13849,33.91553,1.62469,5.13062,3.4707,6.35205,8.33582,7.08423Z"/>
  <path d="M1263.22577,1443.00781c-4.00757-.07422-8.02246.05811-12.0307,0-2.19244-.03174-4.39056-.0415-6.59143-.04053h-.03467c-6.6181.00488-13.2616.11279-19.85394.05322-.01929-2.39795-.02032-4.80225-.01294-7.20947.02209-7.22119.11975-14.46875.02527-21.66357-.03156-2.4043.01984-4.81055,0-7.21484-.11871-14.39648.14062-28.89502,0-43.29053-.21631-22.1543,3.42499-64.9165-4.39655-83.3894-8.94391-21.12402-52.47357-24.18433-84.63092-25.12573-1.99158-.05835-3.94141-.10889-5.83484-.15479-4.54968-.11011-9.85461-.26025-15.8205-.40894-19.82776-.49463-47.1062-.97241-79.40295.07349-6.56659.21289-13.33942.48926-20.30005.84082-11.22626.56714-22.9295,1.32812-35.04138,2.34302v-79.36621c-7.99121-.0957-16.06958.13379-24.06152,0-23.14258-.38745-46.4624-.62427-69.78125-.64575-5.82971-.00537-11.65936.00269-17.48615.02515-17.48041.06763-34.93524.26538-52.28925.62061-5.03333.10303-26.46765-1.71558-26.46765,3.60767v222.46533c-7.17291-.24756-14.49023.34814-21.65533,0,1.20502-12.60791,2.67627-83.41211-1.05023-96.354,0,0-47.0321-3.05835-69.71649-2.31665-2.76691-.18433-2.34387,79.95044-3.82385,101.07593-11.151.54297-22.5188-.38574-33.6861,0-.5307,12.54248-3.14166,26.50049-3.07605,40.10254.01514,3.13916.17279,6.25928.53149,9.33887.13092,1.12354.20367,2.18066.36761,3.15625.0575.34229.12476.67529.21167.99658.14355.52979.33606,1.03027.60742,1.49756.22534.38818.51367.75049.86462,1.09082.12354.11963.25537.23682.39648.35107.4234.3418.93048.65625,1.54852.93848,13.25818,6.63623,26.50635,13.44971,39.81348,20.15283,4.83893,2.4375,9.68573,4.86035,14.54358,7.25488,6.07239,2.99316,12.16199,5.94189,18.27557,8.81885,7.33624,3.45312,14.70685,6.80273,22.12299,10.00342,2.47205,1.06689,4.94922,2.11719,7.43176,3.14893,2.4826,1.03174,4.97064,2.04541,7.4646,3.03906,2.49396.99316,4.99377,1.9668,7.49994,2.91846,1.25305.47559,2.50775.9458,3.76398,1.41064,5.02509,1.85889,10.07629,3.62695,15.1568,5.29053,5.08051,1.66406,10.19037,3.22314,15.33295,4.66406s10.31781,2.76367,15.52911,3.9541c7.81689,1.78564,15.71478,3.27441,23.7049,4.41895,2.66339.38184,5.33691.7251,8.02124,1.02832,1.3421.15186,2.68695.29346,4.03448.42529,2.69501.2627,5.40094.48535,8.1181.66504,5.43439.35938,10.91388.54834,16.44183.55371,2.76398.00293,5.5401-.04053,8.32867-.13184,2.78864-.09082,5.58978-.22949,8.40387-.41797,2.55255,2.55127-2.01892,61.3667-.01245,72.16309.28833,1.55176.83258,3.16602,1.58325,4.80176,5.0871,11.08691,19.82037,23.19336,31.11218,23.84668,104.51862,2.70166,168.8429,1.47705,247.71783.30811,27.42688-.40625,38.87976-7.77393,42.25806-31.41553,2.52386-17.66211.54285-44.40381-2.66113-84.13281h.00006c.48462-.47949,1.56726-.7002,3.12244-.70801,3.54095-.01807,9.53253,1.06738,16.49243,2.71875.47034.11133.94446.22559,1.42316.3418,4.95703,1.20752,10.33905,2.67383,15.63965,4.21582,1.25415.36426,2.50317.7334,3.74139,1.104.16516.04932.3302.09912.49493.14844,12.09576,3.63477,23.02209,7.40674,26.46576,9.02539v-.00049l-.33606-97.06738c-2.11316-6.46094-21.72931-3.81738-28.53772-3.94385ZM844.55585,1404.52734l-28.88623.0127c.2558-6.50635,0-37.58594,0-37.58594,6.05994-1.79297,20.22089-1.60938,28.88623-.90723v38.48047ZM844.55585,1329.97119c-7.51593,1.35059-26.367.93799-27.46997-.53418-1.72205-2.29883-1.0575-34.21851.25287-37.63232,0,0,16.20691-1.06885,27.2171-.31372v38.48022ZM844.55585,1255.41553h-26.46765v-36.07568h26.46765v36.07568ZM899.89728,1481.48828h-28.87384v-38.48047h28.87384v38.48047ZM899.89728,1404.52734h-28.87384v-38.48047h28.87384v38.48047ZM900.28821,1330.25391s-15.58319.82422-29.26477-.28271v-38.48022c6.45325-.03101,29.24341.93433,29.24341.93433.36829,16.71973.02136,37.82861.02136,37.82861ZM871.02344,1255.41553v-36.07568l28.88629-.01245c-.10999,16.00684.94598,36.49341.94598,36.49341,0,0-14.11469,1.06445-29.83228-.40527ZM1056.53967,1289.78076c0-2.48535,2.01465-4.5,4.5-4.5s4.5,2.01465,4.5,4.5v67.61035c0,2.48535-2.01465,4.5-4.5,4.5s-4.5-2.01465-4.5-4.5v-67.61035ZM1006.05725,1289.78076c0-2.48535,2.01465-4.5,4.5-4.5s4.5,2.01465,4.5,4.5v67.61035c0,2.48535-2.01465,4.5-4.5,4.5s-4.5-2.01465-4.5-4.5v-67.61035ZM1024.30219,1384.41895c69.79358-12.90771,72.4411,97.45654,2.0578,88.19629-46.12659-6.06885-46.4754-79.98193-2.0578-88.19629ZM1075.4577,1571.69189l-79.82184,14.99121c-3.60803.67773-6.65326-2.70508-5.60162-6.22266l23.44904-78.42676c1.09991-3.67871,5.81055-4.72217,8.36115-1.85205l56.3728,63.43555c2.53186,2.84912.98645,7.37109-2.75952,8.07471ZM1116.02258,1586.77002c0,2.48535-2.01465,4.5-4.5,4.5s-4.5-2.01465-4.5-4.5v-296.98926c0-2.48535,2.01465-4.5,4.5-4.5s4.5,2.01465,4.5,4.5v296.98926ZM1166.50549,1586.77002c0,2.48535-2.01465,4.5-4.5,4.5s-4.5-2.01465-4.5-4.5v-296.98926c0-2.48535,2.01465-4.5,4.5-4.5s4.5,2.01465,4.5,4.5v296.98926Z"/>
  <ellipse cx="1039.78218" cy="242.30267" rx="59.96428" ry="59.93646"/>
  <g>
    <path class="c" d="M1515.79413,411.84375c-12.19098,5.15527-14.69415,29.65234-19.85956,40.62256-5.04266,10.70947-21.90747,35.70801-23.71344,42.96655-3.9024,15.68433,14.49524,24.23706,25.17798,17.79199,12.07098-7.28271,67.13452-121.9917,18.39502-101.3811Z"/>
    <path class="c" d="M1540.27167,264.22827c-3.53503-2.15649-7.42657-3.13257-11.55768-2.99756-21.94116.71631-8.94427,32.59888-8.04749,44.58325.86255,11.52734-.27576,50.46582,1.72272,56.27051,4.80188,13.94775,24.79846,11.4729,29.33783-.82007,4.57428-12.38745-1.12061-90.73096-11.45538-97.03613Z"/>
    <path class="c" d="M1438.25403,540.37598c-2.73584.19238-35.78864,29.66211-42.44647,34.71973-10.54791,8.01294-29.20764,11.5979-30.9599,26.2002-1.11121,9.26025,5.86389,15.25073,14.60468,16.2019,12.6496,1.37622,77.43018-46.6731,78.90527-59.53345,1.36505-11.90088-8.98181-18.36963-20.10358-17.58838Z"/>
    <path class="c" d="M1213.92798,1017.28931h.00006c-7.85626-1.84814-15.82953-3.56372-23.89594-5.17456,8.06641,1.61084,16.03961,3.32642,23.89587,5.17456Z"/>
    <path class="c" d="M1070.8678,908.03979c1.47949.17651,2.95917.36182,4.43854.56177-1.47943-.19995-2.95905-.38525-4.43854-.56177Z"/>
    <path class="c" d="M1020.20471,906.68555c16.4519-1.16431,33.54614-.6875,50.66309,1.35425-17.11694-2.04175-34.21118-2.5188-50.66309-1.35425Z"/>
    <path class="c" d="M707.40527,935.54614c17.5014,2.88208,35.25592,5.49438,52.93109,7.2229l24.05322-233.30884c39.37927,2.30835,79.29468,9.02539,117.96741,15.74878l-28.83276,236.71631c2.19965.65869,5.30872-.43188,7.12378.07617,4.06653,1.13818,8.16901,2.23438,12.30475,3.29102-4.13574-1.05664-8.23816-2.15283-12.30469-3.29102,8.72388-10.4519,23.89417-17.93604,36.09222-24.05029l31.29608-327.07617c8.13794-.82764,15.85406,1.73438,24.31384,2.92969,1.65515-18.62061,3.41333-32.58105,7.84802-56.4873.43811-2.36182,2.48523-4.09912,4.88013-4.28418,2.85522-.22021,6.54022-.36157,8.6709.11865,0,0-.31873-21.38208.56506-27.08618,1.73346-11.18701,9.20282-20.30811,12.65466-30.84033.89258-2.72339,3.37115-4.61035,6.23712-4.61035h.3175c3.38873,0,6.28979,2.552,6.58679,5.92773.78821,8.95923,5.30383,17.6438,5.75702,30.50342.34973,9.92358-3.40283,29.43628-3.40283,29.43628,3.75531-.33496,8.45685,1.36279,11.30029,2.59912,1.67981.73022,2.81201,2.35547,2.85596,4.18652.34326,14.30322-9.32904,57.09448-6.76392,59.59668l24.1272,3.77783c-6.44562,65.89868-23.42981,209.45923-24.15485,215.10718,11.19525-2.17432,32.77386,4.62964,32.77386,4.62964,0,0-1.17242,18.0542-2.13794,25.26367,0,0,8.81335,1.33643,12.66193,1.3606l26.51001-206.83716,69.48413,9.89233-6.96857,93.55249c5.11603-1.07812,40.69574,4.05493,41.06244,6.19434l-19.39233,171.76562h.00006c16.55914,10.87451,29.81134,28.552,48.12292,36.07544,20.13177-136.25879,32.06464-274.65625,48.12299-411.2605l-175.66589-21.6355c-3.40881-22.65649,17.41382-48.4856,40.02039-50.42236,6.7381-.57739,15.66541,4.06348,20.16791,1.22168,2.96521-1.87134,5.54535-11.63232,8.55426-15.59497,24.69885-32.52808,70.13055-29.67139,88.85571,7.08105,1.4668,2.87891,3.17328,11.64136,3.67322,12.02246.95966.73193,19.16144-4.93579,24.01904-2.41846,12.44037-107.46289,24.29285-215.08325,37.04089-322.50488,1.37756-11.60815,2.76453-23.21387,4.16522-34.81689,1.49341-12.37012,2.98651-24.74023,4.51074-37.10352.76855-6.23438-.30609-12.74902,2.42224-19.21191L784.41406,12.00073c-7.78253,68.67993-23.49628,220.18286-33.12866,311.146l-.02759.26074h-.00006c-3.89771,36.80518-6.79517,63.65308-7.76025,71.00635h.00006c7.54706,12.29541,14.62775,24.63208,21.16669,37.09692,2.80243,5.3418,5.50531,10.70752,8.10284,16.10327,2.59747,5.39575,5.08954,10.82178,7.47021,16.28491,1.5871,3.64209,3.12476,7.30078,4.61115,10.97803,2.22955,5.51562,4.34387,11.073,6.33685,16.67871,1.32867,3.7373,2.60345,7.49609,3.82257,11.27832,7.31482,22.69385,12.62634,46.2356,15.55499,71.06152.62549,5.30176,2.44751,17.72925,2.72015,28.96729.2406,9.91626-.72504,18.90649-4.7832,21.25928-.46997.27246-1.01282.49854-1.61212.68506-.5993.18628-1.25507.33325-1.95099.44751-2.43561.40015-5.36224.40063-8.07745.30103-.38788-.01416-.77148-.03052-1.14868-.0481-1.50885-.06982-2.91589-.15869-4.09009-.21069-2.93524-.12988-5.86829-.27026-8.80066-.41479-11.02887-.54346-22.04846-1.15283-33.13971-1.55469-8.42413-.30518-16.88959-.49048-25.43176-.43555l-33.784,308.87476c.23358,2.69312,13.89093,3.2771,16.94092,3.77954ZM889.43225,660.4314c-4.49194,1.26807-9.58905-2.14307-12.7179-5.60669-14.58075-16.13965-4.53455-7.49097-20.57037-21.89551-2.98737-2.68359-14.91913-12.24219-15.55884-15.86646-1.88898-10.70142,6.81677-15.03662,11.8501-11.91772,2.4046,1.48999,13.57721,10.89258,16.77734,13.77246,7.216,6.49438,21.69006,19.10718,25.24304,24.62646,5.57599,8.66211,1.66089,15.00073-5.02338,16.88745ZM848.67645,479.10205c13.34497-3.07593,49.71375-10.18188,62.04871-10.31519,11.01733-.11914,20.6319,4.91992,14.48401,17.05835-4.70715,9.2937-58.92572,11.40845-75.09143,15.71338-2.03998.54346-4.19769.62451-6.21802.01221-1.401-.4248-2.70782-1.06445-3.5578-1.93042-7.41388-7.5542-1.44623-18.28394,8.33453-20.53833ZM930.02643,572.88696c-1.59644,6.55957-8.90491,10.0459-15.15814,7.50171-16.31366-6.6377-57.48505-11.72729-64.5011-19.80469-5.16132-5.94238-4.72571-14.28662,3.12994-16.61768,3.92365-1.16455,7.05072-.30396,10.86035.14966,8.70093,1.03589,51.13031,12.45557,58.61414,16.02417,6.4165,3.05957,8.1582,8.21289,7.05481,12.74683ZM928.46466,175.58008c56.40833-93.6167,204.08453-77.02979,236.13208,28.14795,33.2547,109.13965-77.32233,185.38965-135.69073,260.88574-2.04681,2.64746-5.2049,4.18872-8.55133,4.18872-4.05548,0-7.75983-2.26489-9.6228-5.86694-45.12451-87.2522-143.72821-185.35303-82.26721-287.35547ZM891.49078,404.05322c-4.61737,3.94873-55.22083,36.3186-58.89032,37.43872-12.92914,3.94604-18.95947-8.15967-11.3606-17.51978,2.64587-3.25903,57.90387-39.64697,61.80804-40.60083,11.54974-2.82153,20.25061,10.58447,8.44287,20.68188ZM803.64661,388.50366c-4.19006,4.48486-14.07507,2.50806-15.08661-8.71045-.34253-3.79956,9.00317-16.59741,11.2644-20.09204,12.13794-18.75854,15.04437-23.71582,25.25604-43.81641,2.19135-4.31323,6.36597-9.10791,11.20374-9.05713,7.19885.07544,12.83423,5.35571,9.60406,15.5332-2.05823,6.48511-23.73193,39.36157-29.19049,47.81543-2.42078,3.74902-11.04944,16.18481-13.05115,18.32739Z"/>
    <path class="c" d="M950.55975,977.46191c-8.76086-1.53418-17.43719-3.16919-26.00757-4.92969,8.57037,1.7605,17.2467,3.39551,26.00757,4.92969Z"/>
    <path class="c" d="M963.76172,979.69092c-4.41998-.71997-8.82153-1.46191-13.20197-2.229,4.38043.76709,8.78198,1.50903,13.20197,2.229Z"/>
    <path class="c" d="M502.76965,870.24365c47.49365,6.97314,16.96094,49.69897,49.65057,60.45752,25.32788,8.33594,17.89606,17.66846,21.53772,25.45093l31.92352-50.10913c-8.8172-.02661-31.7215,8.90356-35.1687-10.82153-4.73047-27.06812-.41907-30.72119-24.51947-46.30688-33.48584-21.65503-39.62811,4.33618-60.38922-9.96045-.10223.15723-.20599.3125-.30878.46924-.20087.30615-.40088.61401-.60382.91772-.50024.74878-1.00806,1.48853-1.52026,2.22266-.20764.29761-.41486.59595-.62445.89136-.51733.72876-1.0415,1.44995-1.57019,2.16553-.21393.28955-.42786.5791-.64355.8667-.53351.71045-1.073,1.41479-1.61725,2.11353-.21942.28174-.43915.56323-.66028.84302-.5506.69678-1.10638,1.38818-1.66718,2.07446-.22156.271-.44373.54175-.66681.81128-.56989.68823-1.14453,1.37256-1.72418,2.05151-.21979.25757-.44055.5144-.66174.77075-.59021.68359-1.18457,1.36426-1.78418,2.04004-.2171.24463-.4353.48853-.65356.73242-.61224.68335-1.22821,1.36426-1.84949,2.04102-.20844.22705-.41821.45361-.62769.67993-.63812.6897-1.27966,1.37769-1.92651,2.06177-.19397.20532-.38916.41016-.58392.61475-.67163.7063-1.34656,1.41138-2.02679,2.11353-.16534.17065-.33185.34106-.49774.51147-.71576.73584-1.43481,1.47095-2.15918,2.2041-.12244.12378-.24579.24756-.36841.37158-.56982.5752-1.13867,1.15088-1.71338,1.72559,24.68652,12.95703,27.6286-2.32373,43.42493-.00439Z"/>
    <path class="c" d="M230.755,643.95483c2.28265-.85498,4.84149.25854,5.75244,2.53296.3429.8562.61395,1.80225.82446,2.81885,12.23358-3.80688,32.92273-19.35791,37.9295-29.06128,14.29291-27.69971,1.76569-21.65112-10.58728-37.03687-17.4458-21.729-13.90448-62.00708,18.68896-65.70361,12.0116-1.3623,39.30908,20.21289,38.56024-.89014-.72833-20.52441-4.35919-40.13086,5.31036-59.67017-.90442.5249-93.21014,51.14478-137.15051,74.55591,3.95776,10.90137,5.26135,23.4248,9.58356,34.91406,9.81134,26.08057,20.83588,51.66724,31.08826,77.54028Z"/>
    <path class="c" d="M157.95947,1113.48291c13.81677,4.48486,16.18964,26.28369,20.32184,38.25293,1.47095,4.2605,4.90558,14.92725,6.5943,19.88501,3.2829,9.63794,11.60864,32.84595,17.18719,36.9231-13.99445-2.97998-27.89062-9.03223-42.22015-10.73071-5.70789-.67651-3.80573,3.44897-2.36493,7.21631,6.11176,15.98047,29.21436,38.79907,46.4021,42.60815,61.84973,13.70728,97.90643-8.76929,116.24872-26.98218,6.02435-5.98169,24.88806-31.16992,28.4516-33.3335,4.88678-2.96729,13.86133-.92847,20.49878-1.91479,22.32843-3.3186,45.55817-19.39966,53.61597-40.80176.435-1.15527-.3288-2.41699-1.55457-2.56396-15.03467-1.80078-30.39075,4.98975-44.53754,5.23511-2.93079.05078-5.08496.0144-3.62573-3.65649.88715-2.23169,15.65424-25.48877,16.96838-26.34229,5.9447-3.86084,22.98187-4.08618,31.66449-6.83081,13.83002-4.37158,22.66504-8.14062,32.37592-18.71484,8.61346-9.37939,14.39569-26.06372,11.57629-26.34204-22.91302-1.19458-32.84406,3.21924-50.60925,9.58423-3.44446,1.23413-4.14746.48804-3.2854-3.29199.94928-4.16235,7.7832-20.5022,10.50012-23.20874,1.66052-1.6543,13.01984-2.00537,18.82635-3.2207,7.90802-1.65527,14.71265-5.51709,19.2395-9.02686,7.16919-5.55835,15.32489-19.70142,7.50757-21.46851-10.09479-2.28174-18.44409,21.49048-34.62341,16.97827-2.91949-3.01685,27.97253-43.9209,33.828-51.7207,3.00537,1.16113,6.26837,1.80444,9.68353,1.80444,14.84534,0,26.87988-12.02905,26.87988-26.86743s-12.03455-26.86743-26.87988-26.86743-26.87982,12.02905-26.87982,26.86743c0,7.37598,2.97559,14.05615,7.7901,18.91138-10.26221,12.75464-31.47467,44.09351-35.27484,48.25146-.75433-16.70776-6.32709-35.09375-16.02869-48.88989-5.35034-7.6084-6.65448-9.28564-12.11499-.88477-13.38654,20.59521-21.63837,49.47119-4.32013,70.22217,2.79315,3.34692,11.76215,7.66113,11.4505,9.52344-1.31482,7.85669-15.07574,32.02686-18.7019,44.59473-3.71637-14.46216-10.33704-30.92188-27.71454-45.62207-10.14343-8.58057-12.40143,9.17212-13.12982,17.98413-1.14307,13.82983.02545,22.57422,5.88916,34.94751,2.65222,5.59644,15.66522,21.16821,15.33368,24.77319-.17346,1.88599-17.47339,31.58667-18.8963,32.83765-4.21295,3.7041-4.02313-.80371-4.81836-3.49658-3.71698-12.5874-6.38745-20.9043-13.37311-32.37036-1.42377-2.33691-6.77087-11.68628-11.11707-15.61206-1.73279-1.56543-4.51782-.69385-5.15625,1.55225-5.53217,19.4624-8.93848,35.97021-1.73035,56.10547,2.42993,6.78784,12.70856,18.37524,10.12305,23.58813-7.21918,14.55444-45.93103,42.62061-67.75049,38.76782-.57483-7.40137,8.19128-23.81421,12.05872-31.23853,4.9693-9.53979,18.63428-36.40283.42737-43.02368-10.90674-3.96606-21.49701,15.22974-25.48218,22.79053-4.06097,7.70459-15.81964,31.03809-15.81964,31.03809-2.25385-11.49707-18.85291-28.17944-17.01312-39.60449.70398-4.37183,14.70435-13.57886,19.3291-19.36133,14.74445-18.43457,19.60449-48.00439,17.38538-71.30811-.1897-1.9917-2.51257-3.01465-4.11578-1.81738-17.57874,13.12744-29.78876,31.31689-41.49713,49.6499-1.13055,1.77002-1.97681,7.02051-5.38428,3.10083-.75293-.86621-4.48364-21.42163-4.26617-22.5481.61273-3.17456,11.07758-12.99146,13.48816-17.53125,7.87903-14.83813,8.29523-47.51196,2.76672-51.31006-9.12933-6.18213-36.61432,36.89502-31.27551,48.09082-4.34863-1.71704-19.0434-26.54321-40.97546-29.77441-1.77429-.26123-3.55377.66821-4.27747,2.30908-3.065,6.95044-2.17291,22.43701,8.03394,35.77026,12.01636,15.69702,20.77808,16.94971,24.36786,18.11499Z"/>
    <path class="c" d="M904.72198,1541.60205c-90.05072,6.02295-166.84924-38.58643-243.98779-77.19727-.8241-.37646-1.45093-.81006-1.94507-1.28955-.35095-.34033-.63928-.70264-.86462-1.09082-.27136-.46729-.46387-.96777-.60742-1.49756-.08691-.32129-.15417-.6543-.21167-.99658-.16394-.97559-.23669-2.03271-.36761-3.15625-.3587-3.07959-.51636-6.19971-.53149-9.33887-.06561-13.60205,2.54535-27.56006,3.07605-40.10254,2.38824-56.44531,7.5097-113.04199,9.72382-169.45581.67499-17.198-.71204-34.60767-.08331-51.79834,33.04816,6.36011,62.16577,24.65601,87.84045,45.66699,5.29742.80835,7.22919-24.00684,6.65045-30.17212-1.74695-18.6084-13.45093-43.07275-35.96655-58.38428l-34.47296-19.62134c30.48083-14.09351,63.33527-19.81665,96.22827-25.27026-35.50275-39.1731-91.91925-40.48242-134.51373-11.81836-7.47919,5.0332-21.00482,20.38574-27.68988,20.20312-2.62921-.07178-25.01886-2.71338-34.09692-3.23608-20.72791-1.1936-49.10345,4.0459-79.17719,29.72705-2.8244,2.41187-16.04523,17.052-7.18768,16.91089,9.28613-.14819,18.14264-2.79639,28.93866-2.58301,8.76965.17334,22.39172,1.09448,27.58484,3.69531-37.58289,20.96289-59.75366,63.9292-57.75922,107.01196,2.68256,3.02783,17.62091-14.33862,20.50458-16.7583,8.90826-7.47485,71.19501-54.31372,78.12665-48.14917-8.4718,43.90503-3.41083,89.02295-4.90326,133.56201l3.34387,106.28418c-36.6358-11.04883-68.5874-17.96582-106.70905-23.40967-75.27112-10.74854-144.91449-8.625-218.98572,8.3916-100.37244,23.05859-194.83594,74.60205-262.24414,152.74561.12457,15.99805-.1051,32.09424.01642,48.09229h151.57098v-36.19141c0-13.55908,4.57227-26.80957,13.31708-37.17139,8.23688-9.76025,20.87006-18.77637,39.43481-18.77637,13.7641,0,24.5885,3.5957,33.02936,8.73242,17.1676,10.44727,27.30774,29.41211,27.30774,49.50879v33.89795h60.15375v-37.1709c0-8.92822,1.84888-17.7915,5.68707-25.85254,6.69159-14.05371,20.95593-30.96387,50.85742-30.96387,29.95538,0,44.10199,15.66309,50.74664,29.36816,3.93311,8.1123,5.79791,17.07227,5.79791,26.08789v38.53125h60.15369v-32.02832c0-10.51709,2.02783-20.94434,6.0509-30.66162.29608-.71533.53021-1.25.6748-1.52734,19.7334-37.89111,75.54016-39.46387,97.23743-2.41113.84589,1.44434,2.56512,5.9292,4.28564,10.67725,3.19843,8.82666,4.84027,18.14307,4.84027,27.53125v28.41992h280.69653c-.75067-1.63574-1.29492-3.25-1.58325-4.80176-2.00647-10.79639,2.565-69.61182.01245-72.16309Z"/>
    <path class="c" d="M1342.62872,1577.68994c-10.69067-13.46924-32.27917-25.09375-50.52087-33.66699-.00275-.00098-.00549-.00244-.00824-.00391h-.00006v.00049c-8.52856-4.0083-62.94891-21.22803-67.37976-16.84619h-.00006c3.20398,39.729,5.185,66.4707,2.66113,84.13281l115.26031-2.33838c.0658-10.39307-.12439-20.88477-.01245-31.27783Z"/>
    <path class="c" d="M978.12628,694.29517c1.0061.80298,27.5036,2.92114,28.71466,1.94092l4.58624-40.98486-31.03589-2.06641c.5047,6.21313-5.34076,38.65576-2.26501,41.11035Z"/>
    <path class="c" d="M972.33319,755.39355c1.0061.80273,27.5036,2.9209,28.71466,1.94067l4.58624-40.98462-31.03589-2.06641c.5047,6.21313-5.34076,38.65576-2.26501,41.11035Z"/>
    <path class="c" d="M960.88458,847.06152c-.6781,1.71533-2.40863,29.18359-3.49396,36.20264,14.0437,1.62598,23.48029,2.12305,30.17804,1.78198,2.70435-.13794,4.32184-36.26929,4.32184-36.26929-2.07043-1.40381-29.57587-5.33252-31.00592-1.71533Z"/>
    <path class="c" d="M967.4704,783.28174c-.6781,1.71509-2.40863,29.18335-3.49396,36.20264,14.0437,1.62598,23.48029,2.12305,30.17804,1.78174,2.70435-.1377,4.32184-36.26929,4.32184-36.26929-2.07043-1.40356-29.57587-5.33228-31.00592-1.71509Z"/>
    <path class="c" d="M815.68201,1178.45435c17.354-.35522,34.80884-.55298,52.28925-.62061,5.82684-.02246,11.65643-.03052,17.48615-.02515,23.31885.02148,46.63867.2583,69.78131.64575,20.08301-130.06006-156.50543-131.38794-139.5567,0Z"/>
    <path class="c" d="M555.81793,685.42261c2.39148,6.65918,4.47766,14.44678,7.00299,20.65894.94177,2.31689-1.34991,4.29175,3.83618,3.43677,3.19476-.52661,37.77991-24.73193,39.85431-27.53076.2915-.39331.53442-.81372.75623-1.24536.81299-1.58325,1.18085-3.41138,1.21124-5.41724.01764-1.15991-.07056-2.37524-.25067-3.63721-1.48047-10.37109-8.84723-23.69751-9.09961-31.96069-17.25928,3.7915-35.61761,8.66333-52.9353,12.02515,1.10645,9.40552,4.73596,20.02954,8.1582,29.58862.49591,1.38525.98755,2.74829,1.46643,4.08179Z"/>
  </g>
  <path class="c" d="M294.41102,646.50258c.73965,1.21164-.23395,5.7145.16689,7.86391,1.09042,5.84718,17.77052,9.63174,22.87032,7.87901,3.31331-1.13874,4.82081-11.28676,9.90582-7.39273,4.34277,3.32563-4.39713,8.49516-4.90549,12.47743-.70826,5.5482,5.24214,22.08872,10.7516,24.55872,3.035,1.36065,9.86168-.61797,10.63012,2.38686,1.34468,5.25809-7.69396,3.83561-10.19543,5.5988-5.14962,3.62979-12.24662,25.29551-9.55445,31.15811.86155,1.87615,6.74352,5.2929,4.32754,8.63552-3.30948,4.57882-7.8096-3.94555-10.83949-4.35484-8.70714-1.17618-26.22152,10.83712-21.9325,21.47593l-5.37488.00017c4.30125-11.10339-13.38336-20.98636-21.81321-18.05411-3.24244,1.12786-4.66181,11.41825-9.39713,5.77182-2.92226-3.48453,3.79386-6.42423,4.40071-9.74878,1.02333-5.60623-4.52031-24.23821-11.21866-24.14013-2.45145.0359-6.52189,2.94253-6.00878-2.62082.35361-3.83398,4.34311-2.16056,6.81372-2.90049,5.12088-1.53367,11.25107-21.83854,10.4317-27.0639-.5442-3.47052-6.39566-5.17896-4.91102-8.10432,2.74795-5.41456,7.06803,1.96933,9.50125,1.94245,4.50557-.04976,17.71978-9.82743,19.50512-13.7558,1.58802-3.4942-1.4647-12.50355,4.11477-12.61995.40886-.00853,2.07028-.07601,2.73148,1.00712ZM312.98839,667.912c-6.69115.78912-11.664-1.75295-17.59402-4.08721-.42843-.16864-.90041.11483-.95814.57162-.94868,7.50578.17021,20.9968,10.86236,15.72433.7396-.36471,6.84085-8.52182,8.29306-11.37648.21271-.41813-.13735-.8872-.60325-.83226ZM288.06973,666.3813l-15.12351,9.9362c-.52464.34469-.69351,1.04003-.36993,1.57795,1.94123,3.22708,5.73253,7.71037,9.12714,6.61675,9.15481-2.94935,7.67895-9.79685,7.50035-17.52639-.01338-.57908-.64996-.92256-1.13406-.60451ZM316.13328,674.17356c-.28862.22385-.55314.47456-.79173.75112-3.49716,4.05382-7.29622,8.57582-5.81956,13.80272,2.93448,10.38713,7.98302,6.51216,15.97618,5.92187.57768-.04266.91969-.66875.65094-1.18189l-3.67474-7.01653c-2.04994-3.91414-3.58007-8.5173-4.32148-12.91785-.06284-.373-.49325-.54328-.79214-.31146l-1.22748.95202ZM261.30863,704.23876c3.0171-1.09554,7.47966-.62606,10.0837-2.24105,2.55856-1.58678,5.73671-9.84322,4.41028-12.73286-.23002-.50111-6.13575-6.14606-6.46977-6.45817-1.16347-1.08714-1.81864,1.18872-2.09451,2.41286-1.56219,6.9322-2.69076,12.52432-5.92971,19.01922ZM296.68241,693.51173c.28721-.24384,3.47023-5.85662,3.18161-6.82897-.27394-.92289-2.55099-2.30891-4.05126-2.77622-.60785-.18933-1.22571.26397-1.24139.90042-.07684,3.11915-.73435,11.12044,2.11104,8.70477ZM287.52038,685.4858l-3.96034,2.41985c-.62782.2104-.92467.92417-.63071,1.51748.92318,1.86324,3.92622,4.84859,4.66991,5.16017,2.36215.98967,1.49216-5.34987,1.35263-8.1214-.03628-.72061-.74736-1.20537-1.43149-.9761ZM305.51946,690.68423c-.09848-.51896-.71564-.73776-1.12137-.39953-.59119.49284-1.31755,1.11389-1.56398,1.39027-.57736.64752-2.96283,3.27761-3.80666,4.9087-.28824.55716.10403,1.22002.73134,1.22008l5.78998.00056c.47949.00005.86135-.40051.8273-.87878-.10773-1.51325-.54364-4.59211-.85661-6.24129ZM279.67174,701.14101c10.05949.83671,4.29205-4.80866,1.27496-6.29175-.6662-.32748-1.45747.07659-1.57996.80876l-.70224,4.19732c-.10667.63758.36303,1.23208,1.00725,1.28567ZM326.30266,701.34163c.27313-.58987-.22994-1.24464-.87217-1.14425-7.40282,1.1571-12.4391-1.15691-14.82875,7.74974-2.66495,9.93272.64025,10.20739,7.02569,16.66366,1.37619-4.1213,1.75642-8.73434,3.23572-12.83928.52846-1.46642,4.14204-7.62775,5.43951-10.42986ZM306.12968,702.26466l-6.42436.80469c-.68133.08534-1.10573.78362-.86075,1.42509.63063,1.65133,2.72604,4.25999,4.04908,5.52239.37238.35531.98306.22472,1.18871-.24711l2.82048-6.47139c.23002-.52775-.20191-1.10522-.77314-1.03367ZM285.96985,705.32058l-7.5077,1.07444,1.08444,5.35228c1.30217,1.15914,7.62936-5.338,6.42326-6.42672ZM269.86332,727.82463c.46186-.39284,6.35858-9.4918,6.45984-10.26088,1.37381-10.43441-7.67189-12.19425-15.02451-7.40043,4.1375,5.19395,4.38966,11.78387,6.45259,17.03382.43006,1.09447,1.81288.88198,2.11208.62749ZM290.2609,709.60982c-2.68973-.60897-6.17784,6.53271-5.35966,7.48953l5.35807,1.07923.00159-8.56875ZM299.76608,715.89728c1.54222-2.61769-4.2223-7.41367-5.20284-6.28765v8.56741c.40767.45443,5.05871-2.03512,5.20284-2.27976ZM313.86637,729.96584c-9.7542-18.00239-21.25618-10.14676-18.23037,8.58434.5608.64567,8.69041-5.48581,10.322-6.29182,2.46472-1.21758,5.134-2.14868,7.90837-2.29252ZM290.26089,739.62245c-.64786-3.63338,1.16389-12.2423-.52012-15.01702-1.08185-1.78255-8.0185-4.15758-9.9981-2.99277-.60054.35336-6.10523,10.13788-7.71319,11.57101,3.28267-.09878,6.55851.52594,9.62521,1.64851,3.57464,1.3085,5.23552,3.93076,8.6062,4.79026Z"/>
  <path d="M674.70526,816.68799c1.33838-2.34668,13.04492-23.24316,11.91309-33.9082l-.08447-.7998c-3.1377-29.75293-7.74707-43.97363-15.41357-47.55273-1.22852-.57324-2.50293-1.13379-3.76465-1.55566-.32422-9.60156-2.6958-27.39648-15.55859-31.22949-.97607-.29102-1.86572-.54785-2.67334-.77344-.75146-5.28516-2.99072-13.56055-9.58936-20.04395-6.87061-6.75098-16.61816-9.87207-28.97021-9.25-.80286.03979-1.57605.07715-2.33594.11304.18011,1.26196.26831,2.47729.25067,3.63721-.0304,2.00586-.39825,3.83398-1.21124,5.41724,1.21301-.05615,2.4552-.11523,3.7428-.1792,9.7002-.46973,17.15674,1.74805,22.15967,6.62598,3.91455,3.81616,5.7265,8.67358,6.57617,12.47729-4.44464,9.50977-16.66046,20.11841-21.4621,26.42578-3.88507,5.10352.9425,7.90796,3.28735,7.54028,4.93561-.77417,20.00745-15.91577,25.50879-23.70068.0752-.03955.15271-.07275.22601-.1167.04004-.02441.07959-.04883.11865-.07324.53857.15332,1.13672.32715,1.80127.52539,7.36963,2.19604,9.06091,16.69604,9.1604,24.75122-.91626,2.07983-2.02557,4.48877-3.25189,6.65991-3.14709,5.57227-15.9798,16.95825-19.93988,22.51709-2.72681,3.82764,1.52142,8.40381,5.50305,6.42554,5.72772-2.84595,21.27466-18.63574,25.62482-29.0144.29816.29565.62396.61719.99139.97705.95233.93262,4.7348,4.09326,8.08197,23.94824-6.27307,11.84375-9.70789,13.46533-16.30981,20.98096-2.2016,2.5061-1.88251,4.41382-1.0274,5.85059,1.4317,2.40601,4.83942,2.64868,6.68018.53931l12.4776-14.29907c.1239,1.07617.24628,2.17969.36652,3.31982l.08545.80566c.62012,5.8457-6.2002,20.42871-10.70166,28.36035l-23.86963,35.54004c-.02002.03027-.04004.06055-.05957.09082l-37.15631,58.32275-31.92352,50.10913-7.08423,11.11987c-.07373.11621-.14258.23633-.20557.3584-.67432,1.30957-68.07324,131.84766-126.69971,209.83789-.38422.51123-.63849,1.07812-.77722,1.66309-.20538.26611-.40698.53076-.61304.79736-1.91736,2.47852-3.86658,4.96777-5.84698,7.46191-2.97058,3.74146-6.01147,7.49414-9.12067,11.23975-3.10925,3.74561-6.2868,7.48438-9.53076,11.19751-1.08136,1.23779-2.17004,2.4729-3.26605,3.70435-2.19202,2.46289-4.41333,4.91162-6.66327,7.34131-13.49976,14.5769-28.0318,28.45508-43.47363,40.46069-1.93024,1.50073-3.87463,2.97217-5.83307,4.41187-5.87524,4.31982-11.87634,8.35547-17.9967,12.04541-2.04016,1.22998-4.09351,2.42188-6.15991,3.57251-1.0332.57544-2.06964,1.14062-3.10931,1.69556-4.15869,2.21899-8.36902,4.27075-12.62903,6.13672-1.065.46631-2.13312.92114-3.20428,1.36426-8.56946,3.5437-17.33575,6.32593-26.28351,8.19995-2.23694.46851-4.48523.88037-6.74463,1.23315-3.3891.52905-6.8031.92529-10.24139,1.18091-4.58429.34082-9.21167.43164-13.88007.25415-7.00256-.26611-14.0976-1.13574-21.2785-2.6709-2.39368-.51172-4.79688-1.09766-7.20935-1.75952-2.41254-.66187-4.83429-1.40015-7.2652-2.21704-6.07721-2.04175-12.21112-4.57422-18.39801-7.63354-2.73981-1.35474-5.40918-2.80347-8.00995-4.34155s-5.13293-3.16577-7.59821-4.87817c-2.46521-1.71216-4.86359-3.50952-7.19684-5.38721s-4.60138-3.83521-6.80609-5.8689c-6.61414-6.10107-12.65778-12.88403-18.17804-20.22607-1.84009-2.44727-3.62201-4.95679-5.3476-7.52393-1.72552-2.56689-3.39471-5.19165-5.00922-7.86938s-3.17432-5.40845-4.68127-8.1875c-.75348-1.38965-1.49371-2.7915-2.22095-4.20483-1.45447-2.82642-2.85687-5.69922-4.20905-8.61377-.67609-1.45703-1.3396-2.9248-1.99078-4.40234-1.30231-2.95508-2.55518-5.94922-3.76044-8.97852-4.82092-12.11719-8.87927-24.79175-12.2868-37.73315-.85187-3.23535-1.66309-6.4873-2.43536-9.75146-3.47528-14.68848-6.16229-29.62256-8.22028-44.3877-.45734-3.28125-.88361-6.55396-1.28058-9.81396-.5954-4.88989-1.12488-9.75073-1.5943-14.56738-.31293-3.21118-.59918-6.40234-.86047-9.56958-.39191-4.75049-.72772-9.44678-1.01331-14.07275-.19037-3.08423-.35846-6.13721-.50592-9.15479-.14746-3.01733-.27435-5.99927-.38245-8.94092-.05402-1.4707-.10333-2.93164-.14819-4.38184-.08966-2.90039-.16132-5.7583-.21686-8.56934-.05548-2.81104-.09479-5.57471-.11963-8.28735,12.79626-2.11792,25.78912-4.02661,38.89575-5.61206.45734-.05518.91473-.11035,1.37231-.16479,5.50006-.65527,11.01904-1.25464,16.55249-1.7854,3.83752-.36768,7.68164-.70361,11.53033-1.00439,5.77307-.45117,11.55634-.82373,17.3432-1.10767,1.92896-.09448,3.85828-.17944,5.78778-.25391,3.85901-.14917,7.71857-.25732,11.57666-.32178,5.78717-.09668,11.57117-.09497,17.34521.01489,1.92468.03687,3.84821.08545,5.77045.14648,3.84442.12231,7.68347.29419,11.51508.51855,1.91577.11206,3.82971.2373,5.74158.37622,2.07697.15063,4.15088.3208,6.22253.50391,3.64917.32251,7.29028.69238,10.92035,1.11914,3.79395.44604,7.57642.95044,11.34552,1.51611,3.76904.56567,7.52472,1.19263,11.26495,1.88354.20715.03833.46765.08521.77417.13989.27777.04956.59338.10522.94135.16675,4.0014.70557,12.28259,2.14185,16.5722,3.1333,1.30554.30176,2.24133.5625,2.57422.74854.05249.02954.08997.05713.11157.08252.22961.27148.39661.64453.51062,1.10254.15204.61084.21002,1.37207.19678,2.24316-.00659.43555-.03094.89844-.07025,1.38354-.01965.24268-.04303.49097-.06976.74414-.0802.75952-.19067,1.56348-.32178,2.39478-.0437.2771-.08966.55713-.13757.83984-.09576.56494-.19934,1.13965-.30768,1.71875-.47913,2.56079-1.052,5.20752-1.4715,7.50244-.01453.07935-.02881.15845-.04297.23706-.12567.69824-.23578,1.36133-.32336,1.97681-.00836.05859-.01636.1167-.02429.17432-.0592.4314-.10693.83862-.14014,1.21631-.03326.37793-.05212.72632-.05371,1.04004-.00739,1.49854-.47827,4.3689.43622,5.72559.33557.4978.85376.79565,1.65619.74048.00806-.00049.01398.00146.02209.00073.43121-.0332.94226-.16577,1.54712-.41992.33557-.14111,1.04065-.77295,2.03857-1.7959.2851-.29248.59412-.61646.92529-.97021.66229-.70752,1.41309-1.53345,2.23804-2.45898.41248-.46289.84351-.95044,1.29132-1.46069.22388-.25513.45197-.51587.68402-.78198.92822-1.06445,1.91992-2.21484,2.96075-3.43188.52045-.60864,1.05316-1.23364,1.59637-1.87354.66748-.78589,1.35236-1.59595,2.04828-2.42114,1.00317-1.18945,2.03082-2.41309,3.07623-3.66211.88525-1.05762,1.78217-2.13208,2.68457-3.21533.30084-.36084.60223-.7229.90405-1.08569,1.07043-1.28638,2.14557-2.58105,3.21588-3.87183.38696-.46631.77325-.93262,1.15845-1.39722.10297-.12427.20581-.24829.30859-.37256.38428-.46362.76691-.92578,1.14819-1.38623.51166-.61792,1.02039-1.23242,1.52472-1.8418.48547-.58667.96698-1.16846,1.44366-1.74438.09924-.12012.1983-.23975.29718-.35913.47461-.57349.94397-1.14038,1.40723-1.7002,1.88013-2.271,3.6571-4.41479,5.26654-6.3479.30865-.37061.61224-.73486.90802-1.08936,2.79272-3.34619,4.98962-5.93921,6.18524-7.24951,3.52753-3.86523,7.04138-7.74634,10.54358-11.63892,10.50653-11.67773,20.90784-23.46069,31.25708-35.24341,12.2981-14.00122,24.52356-27.99243,36.76373-41.81689,1.49384-1.68726,2.98694-3.38184,4.48138-5.06348-14.86627-44.51709-32.03607-103.09766-62.55988-139.4917-25.03278-29.84717-71.61523-61.32861-110.19421-69.03198-10.1358-2.02368-18.7395-3.28198-26.59644-3.5271,6.58173-14.44287,10.3894-30.86426,8.39044-40.51807-.21051-1.0166-.48157-1.96265-.82446-2.81885-.91095-2.27441-3.46979-3.38794-5.75244-2.53296-.03229.01196-.06549.01514-.09766.02808-2.30713.92383-3.42871,3.54395-2.50439,5.85059.0733.18311.13062.39111.19354.59033,2.2984,7.27979-2.24005,25.23584-9.56976,39.70239-13.58899,1.33276-25.78906,6.56226-41.51862,17.35034-104.92139,71.95898-128.42072,275.52954-141.14532,392.8374-16.9411,156.17969-22.90204,313.07227-21.67847,470.16064,67.4082-78.14355,161.8717-129.68701,262.24414-152.74561,74.07123-17.0166,143.7146-19.14014,218.98572-8.3916l-41.30353-236.23828c56.21625-77.7854,117.39886-195.71777,120.21375-201.16406l76.02539-119.33398,23.93213-35.63281c.06104-.09082.11865-.18457.17334-.28027ZM184.25665,872.79443c-3.60034-1.81274-7.58325-2.27734-11.79333-5.02393-38.71088-25.2561-16.84625-57.64453,18.75409-28.35669l13.27808,14.34912c-7.64209-15.7981.13892-78.12817,26.45422-66.09888,18.86035,8.62158,9.5387,57.56348.09088,72.15161,13.71222-8.32397,38.89355-28.09741,55.16089-16.72412,14.84833,10.3811-4.01904,27.7417-15.09265,32.74805-8.18066,3.69849-18.51965,2.6731-23.27234,9.17163,39.64191,10.02515,43.8233,66.91602-4.87244,34.9563l-16.7641-18.07983c8.7627,79.40405-56.58459,70.82983-27.67157-2.3689-7.53668,11.09546-45.04242,30.45728-50.75452,9.66846-3.80463-13.84668,17.83154-25.79907,28.34088-29.70752,4.9942-1.85718,18.85425-1.29199,8.14191-6.6853Z"/>
</svg>