<?xml version="1.0" encoding="UTF-8"?>
<svg id="a" data-name="Layer 1" xmlns="http://www.w3.org/2000/svg" viewBox="0 0 946.52528 271.69935">
  <defs>
    <style>
      .b {
        fill: #f5f5f6;
      }
    </style>
  </defs>
  <rect class="b" x="8.45991" y="88.9038" width="56.01023" height="179.42531"/>
  <path class="b" d="M36.36392,0c-9.96769,0-18.51928,3.30123-25.65678,9.89888C3.56764,16.50135,0,24.5145,0,33.93995c0,9.29385,3.56764,17.2733,10.70714,23.93996,7.13749,6.66666,15.68908,9.99999,25.65678,9.99999,10.1011,0,18.71929-3.29642,25.85879-9.89888,7.13749-6.59765,10.70714-14.54661,10.70714-23.83885,0-9.56026-3.56965-17.64081-10.70714-24.24328C55.08321,3.30123,46.46502,0,36.36392,0Z"/>
  <path class="b" d="M241.29555,95.00233c-9.30829-5.56251-20.22146-8.34536-32.7395-8.34536-15.83533,0-28.43362,4.35885-37.79487,13.07975-7.90683,7.36478-14.0174,16.71801-18.37464,28.00993l-.96413-38.84285h-52.63998v179.42531h56.01023v-102.39119c0-7.06146,1.2839-13.05086,3.85171-17.97463,2.5678-4.92055,6.17878-8.69202,10.83292-11.31439,4.65414-2.62237,9.97592-3.93195,15.96853-3.93195,9.20076,0,16.36975,2.8631,21.50536,8.58609,5.13561,5.72299,7.70341,13.61578,7.70341,23.67194v103.35411h56.01023v-114.26728c0-13.48097-2.5678-25.3025-7.70341-35.46779-5.13561-10.16208-12.35756-18.02598-21.66585-23.5917Z"/>
  <polygon class="b" points="478.10165 88.9038 414.38801 88.9038 363.03193 153.74085 360.46412 153.74085 360.46412 29.20235 304.4539 29.20235 304.4539 268.32911 360.46412 268.32911 360.46412 214.09548 372.29588 199.85059 415.99289 268.32911 480.66945 268.32911 414.03574 167.17688 478.10165 88.9038"/>
  <rect class="b" x="496.22874" y="29.20235" width="56.01023" height="239.12675"/>
  <path class="b" d="M729.15104,110.16842c-7.75798-7.75798-16.90578-13.61257-27.44341-17.57341-10.53763-3.95763-22.12163-5.93805-34.7456-5.93805-17.97463,0-33.59651,3.87738-46.86242,11.63536-13.26752,7.75798-23.51146,18.5909-30.7334,32.49877-7.22195,13.91108-10.83292,30.06578-10.83292,48.4673,0,19.15261,3.61097,35.62828,10.83292,49.43023,7.22195,13.80195,17.62637,24.41982,31.21487,31.85682,13.58689,7.437,29.7448,11.1539,48.4673,11.1539,14.54982,0,27.41773-2.08634,38.5973-6.25902,11.17958-4.17268,20.43651-10.08505,27.76438-17.7339,7.32787-7.64885,12.49237-16.61048,15.48707-26.8817l-49.91169-8.18488c-1.49896,3.96084-3.7169,7.33108-6.66024,10.11073-2.94335,2.78286-6.47408,4.8692-10.59219,6.25902-4.11812,1.39303-8.69202,2.08634-13.7217,2.08634-7.27651,0-13.64146-1.52463-19.09804-4.5739-5.45658-3.04927-9.70951-7.64885-12.75878-13.80195-2.75337-5.55609-4.19575-12.42015-4.46296-20.46219h119.77342v-14.12292c0-14.8708-2.11202-27.97623-6.33927-39.3195-4.22725-11.34006-10.21665-20.88909-17.97463-28.64706ZM648.9874,132.15525c5.02969-3.26432,11.17958-4.89488,18.45609-4.89488s13.37505,1.60488,18.2956,4.81463,8.64066,7.81254,11.1539,13.80195c1.69796,4.04911,2.77383,8.67918,3.32511,13.80195h-66.26559c.54265-5.11314,1.70558-9.75766,3.56002-13.88219,2.62237-5.83212,6.44519-10.37714,11.47487-13.64146Z"/>
  <path class="b" d="M946.52528,178.13499c0-14.8708-2.11202-27.97623-6.33927-39.3195-4.22725-11.34006-10.21665-20.88909-17.97463-28.64706-7.75798-7.75798-16.90578-13.61257-27.44341-17.57341-10.53763-3.95763-22.12163-5.93805-34.7456-5.93805-17.97463,0-33.59651,3.87738-46.86242,11.63536-13.26592,7.75798-23.51146,18.5909-30.7334,32.49877-7.22195,13.91108-10.83292,30.06578-10.83292,48.4673,0,19.15261,3.61097,35.62828,10.83292,49.43023s17.62797,24.41982,31.21487,31.85682c13.58689,7.437,29.7448,11.1539,48.4673,11.1539,14.54982,0,27.41773-2.08634,38.5973-6.25902s20.43651-10.08505,27.76438-17.7339c7.32787-7.64885,12.49237-16.61048,15.48707-26.8817l-49.91169-8.18488c-1.49896,3.96084-3.7169,7.33108-6.66024,10.11073-2.94335,2.78286-6.47408,4.8692-10.59219,6.25902-4.11812,1.39303-8.69202,2.08634-13.7217,2.08634-7.27651,0-13.64146-1.52463-19.09804-4.5739-5.45658-3.04927-9.70951-7.64885-12.75878-13.80195-2.75317-5.55609-4.19595-12.42015-4.46316-20.46219h119.77362v-14.12292ZM842.04775,132.15525c5.02969-3.26432,11.17958-4.89488,18.45609-4.89488s13.37505,1.60488,18.2956,4.81463,8.64066,7.81254,11.1539,13.80195c1.69796,4.04911,2.77403,8.67918,3.32531,13.80195h-66.2658c.54285-5.11314,1.70558-9.75766,3.56002-13.88219,2.62237-5.83212,6.44519-10.37714,11.47487-13.64146Z"/>
</svg>