<?xml version="1.0" encoding="UTF-8"?>
<svg id="a" data-name="Layer 1" xmlns="http://www.w3.org/2000/svg" viewBox="0 0 168.42534 219.27939">
  <defs>
    <style>
      .c {
        fill: #f5f5f6;
      }
    </style>
  </defs>
  <path class="c" d="M106.64087,1.36526C41.47339-11.67112-24.29028,71.48708,8.88306,129.98391c4.06641,7.17065,7.08838,8.11841,5.77539,17.70093-1.75586,12.81396-8.94141,28.67407-4.00244,41.33887,8.12109,20.82422,51.78174,34.30762,71.92383,29.15552,23.38379-5.9812,22.09619-32.15991,33.17871-48.67993,3.94727-5.88379,10.35449-7.6084,16.02588-11.16821,23.57104-14.79565,33.58667-38.34106,36.1814-65.47266,3.98364-41.65356-18.05713-82.83765-61.32495-91.49316ZM82.69458,113.08303c.5127.68677,2.0835,11.74927,2.28125,13.54248.52637,4.7771,1.8374,16.79346.03662,20.75952-1.01074,2.22607-2.54395,2.82935-4.8916,2.50684-11.50488-1.58057-6.58691-7.73291-4.6748-15.59717.29004-1.19263,4.09912-16.50293,5.63379-21.08325.1958-.58472,1.03125-.90967,1.61475-.12842ZM76.15943,111.55153c-1.68506,4.84131-4.96729,16.9624-5.33301,18.13135-.94482,3.02222-3.17285,13.3396-5.40967,14.60742-2.49268,1.41309-11.2749-1.15674-10.96484-4.42041.5708-6.00464,7.22559-13.80005,11.04102-18.4834,2.17432-2.66846,4.78076-5.84766,7.18311-8.26587.21924-.2207,1.48438-1.59546,2.51611-2.31323.51416-.35791,1.17334.15234.96729.74414ZM52.37476,54.95388c41.69775,7.76831,22.35693,72.625-18.02002,56.62964-32.15039-12.73633-15.64209-62.90112,18.02002-56.62964ZM28.11304,180.7571c-2.35693,4.94263-8.81592,2.16797-7.77637-4.48486.83691-5.3584,3.68457-16.6377,5.77295-21.48486.69678-1.61816,2.146-3.37646,4.06543-3.25684,3.03564.18921,4.3833,2.04028,4.39307,4.93848.0127,3.87891-4.69287,20.59204-6.45508,24.28809ZM50.58081,163.19973c-.79785,4.63062-4.7998,18.6731-6.72705,22.76294-1.61279,3.42212-6.28906,3.90405-7.68652.47314-1.41211-3.46558,3.11768-15.74585,4.30176-19.83472.7666-2.64771,1.06836-8.04907,4.08496-9.6897,4.39844-2.39233,6.73193,2.19751,6.02686,6.28833ZM59.88355,190.16457c-2.7959,6.21167-9.6748,4.12329-8.14307-3.42651,1.07031-5.27344,3.49219-13.81201,5.10254-19.01294.80762-2.60913,2.90479-6.76416,6.12354-6.49072,2.7002.22949,3.81396,2.4021,3.72461,4.89331-.12598,3.51196-5.19043,20.4436-6.80762,24.03687ZM82.58325,172.09109c-.91406,5.08862-4.36914,16.46973-6.37988,21.27393-1.09082,2.60547-2.61963,5.39111-5.8916,4.56958-3.03857-.76294-3.29541-3.25903-2.80371-5.99902.86523-4.82397,4.8208-18.44263,6.81006-22.7854.62598-1.36646,2.44434-3.33691,4.0249-3.33643,3.92578.00146,4.84277,2.92334,4.24023,6.27734ZM98.31031,178.47268c-1.40723,5.38965-4.53711,15.71216-6.98584,20.49194-2.34521,4.57617-8.07324,3.19653-7.91309-1.48877.10352-3.0293,5.2041-19.91064,6.64941-23.11719.83398-1.85083,3.11719-4.29395,5.33594-4.05518,3.97852.42871,3.63574,5.40356,2.91357,8.16919ZM134.0105,132.86159c-9.82031,5.33398-22.29199,3.64868-30.96289-3.12207-24.89941-19.44409-3.54492-64.39453,29.6665-51.09326,22.77271,9.12036,21.83398,43.06006,1.29639,54.21533Z"/>
</svg>