<?xml version="1.0" encoding="UTF-8"?>
<svg id="a" data-name="Layer 1" xmlns="http://www.w3.org/2000/svg" viewBox="0 0 1205.20638 858.96704">
  <defs>
    <style>
      .c {
        fill: #0b3d9f;
      }

      .d {
        fill: #e5e1d5;
      }

      .e {
        fill: #1e1e1e;
      }

      .f {
        fill: #cf2e2c;
      }

      .g {
        fill: #db88b9;
      }
    </style>
  </defs>
  <path class="c" d="M1096.73062,442.4279c.05371-5.93097,1.05859-12.66931,1.05078-17.85217-.00342-2.39429-.09131-4.89923-.23242-7.4588-.41797-7.5744-1.30029-15.62097-1.84424-22.69775-.00732-.09729-.01709-.20026-.02393-.29718-1.63281,5.15637-3.4502,10.27551-5.42725,15.34656-1.26465,3.24432-2.59961,6.46692-4.00293,9.66461-.48682,1.10919-.98047,2.21552-1.48389,3.31836-7.14258,15.65271-15.93164,30.65088-26.26123,44.44336-2.0918,2.79315-4.25146,5.53217-6.46777,8.22217-1.88086,2.2829-3.80078,4.5318-5.77002,6.73444-11.7959,13.1947-25.16504,24.89984-39.96973,34.52216-29.45996,19.14722-59.86914,30.28162-90.86084,35.75745-1.72168.3042-3.44531.591-5.17041.86066-3.45068.53937-6.9082,1.0105-10.37207,1.41663-3.30908.38794-6.62451.71277-9.94482.98492-1.98242.16248-3.9668.3064-5.95312.4292-24.2876,1.50128-48.85059.08203-73.51904-3.16663-14.14795-1.86316-28.33057-4.32739-42.51562-7.18597-3.54639-.71466-7.09277-1.45392-10.63867-2.21466-1.77295-.38037-3.5459-.76605-5.31885-1.15668-3.54541-.78131-7.09033-1.58246-10.63428-2.40015-5.31592-1.2265-10.62891-2.49036-15.93799-3.78058-3.53955-.86017-7.07666-1.73199-10.61182-2.61237s-7.06836-1.76929-10.59814-2.66339c-7.05957-1.78827-14.10791-3.5976-21.14111-5.40222-3.51611-.90228-7.02881-1.80347-10.53711-2.70013-1.93994-.49591-3.77881-.87012-5.5166-1.16431-1.1582-.19611-2.27148-.35669-3.33984-.49408s-2.0918-.25159-3.06982-.35492c-.97852-.10333-1.91162-.19592-2.7998-.28998-.44434-.04706-.87695-.09448-1.29883-.1438-.84326-.09869-1.64111-.20514-2.39453-.3316-.75342-.12653-1.46143-.27307-2.12451-.45209-.33203-.08954-.65234-.18713-.96143-.29443-.46582-.16174-.89795-.35449-1.31299-.56549-.23047-.11731-.4541-.24304-.66895-.37811-3.75635-2.36084-5.10498-7.56488-4.03223-20.49396,2.35938-28.42426,7.48633-64.00519,12.89941-92.11829,4.39844-22.84094,10.93506-43.08264,19.68408-61.18866,4.86084-10.0589,10.4043-19.4585,16.64307-28.27856,19.96484-28.22412,47.05225-50.51221,81.67676-69.46851,4.32812-2.36951,8.77441-4.68701,13.33887-6.95752,59.39111-29.54321,124.46973-33.94727,189.80615-26.06567,2.69434.32507,4.53418.30212,7.35352,1.05017-2.81934-.74805-31.58252-9.57654-42.02051-12.60156,0,0,0-.00012-.00049-.00012-12.0791-3.50073-24.59277-7.65479-36.76758-10.50122-3.78516-.88477-7.62158-1.78711-11.48389-2.69202-7.72363-1.80969-15.54932-3.62964-23.26758-5.34021-3.85938-.85535-7.69189-1.68335-11.47168-2.46899v-.00012c-11.39404-2.36841-27.41895-5.15393-38.86963-6.30066-1.41797-.14197-3.41162-.32263-5.53027-.4939-3.60889-.29175-7.58252-.55627-9.70166-.55627,0,0-2.93994-.20129-7.00879-.47937-.81396-.05554-1.67285-.11426-2.5625-.17493-.44482-.0304-.89746-.06128-1.35596-.09253-2.29199-.15637-4.73047-.32263-7.08936-.48303-2.42236-.16479-4.75635-.32324-6.76611-.45898-2.29492-.15503-4.16504-.28052-5.23633-.35046-.54785-.03577-.88818-.05725-.97168-.06091-12.8291-.56152-28.79688.52075-42.02051,1.05005-16.7002.66846-34.47852,2.93445-51.47559,4.20056v-.00012c-9.44629.70386-18.91211,1.43018-28.36377,2.10034-16.15674,1.14563-32.16846,3.17065-48.32422,4.20056v-.00012c-10.56201.67358-21.90918.67041-32.56592,1.05029-14.95215.53296-29.94629,1.0979-45.01367,1.09033-2.15234-.00122-4.30615-.01392-6.46191-.04028-10.19727-.12427-20.28223-.78076-30.46484-1.05005-4.0293-.10657-9.53906-.29016-15.5791-.52148-.88086-.03369-1.77246-.06848-2.67334-.10425-1.4624-.05786-2.94629-.11816-4.43994-.18066-.06836-.00293-.13623-.00574-.20459-.00854-3.07812-.12915-6.19336-.26685-9.23828-.41003-.14502-.00684-.29004-.01367-.43457-.02051-3.03027-.14331-5.9834-.29163-8.75146-.44202-1.51855-.08252-2.97949-.16553-4.36816-.24854-3.19043-.19092-5.98877-.38171-8.18164-.56604-.07715-.00647-.15234-.01282-.22754-.01929-2.61621-.22375-4.32812-.43738-4.73047-.62903-.0874.49072-.37305,1.20752-.79004,2.07263-.13867.28845-.29248.59326-.4585.91174-1.99023,3.82202-5.73682,9.60559-7.00732,12.39038-26.69531,58.49438-50.97852,124.90796-72.67188,185.6875-.89502,2.50806-1.74463,5.03564-2.58008,7.56952-2.50684,7.60162-4.82861,15.28467-7.41064,22.86414-1.14746,3.36865-1.28144,3.92209-2.5744,7.23184-.00049,0,0,0,0,0-.37891-.13818-18.03985-52.94723-30.1419-76.93429-4.53857-8.99512-9.61426-17.64417-15.31201-25.63599-9.49707-13.31946-20.72217-24.81311-34.06885-33.04028-23.14795-14.26904-46.23877-22.26782-69.8252-27.14697-2.89062-.5979-5.78906-1.15027-8.6958-1.66003-11.26611-1.97583-22.65918-3.33789-34.24023-4.41113-6.95117-.64417-13.9707-1.18713-21.06982-1.69983-.54395-.03931-1.08789-.07886-1.63281-.11768-12.95801-.92676-26.18311-1.77478-39.75879-2.98242-1.44727-.12891-2.89453-.2876-4.3418-.46191-.37891-.04553-.75732-.09167-1.13574-.13965-1.44922-.18384-2.89844-.38159-4.34766-.59082-4.09473-.59131-8.19141-1.25269-12.29443-1.80566-1.64111-.22119-3.28369-.42505-4.92725-.6001-2.46533-.26257-4.93408-.46021-7.40625-.55444-.82422-.03137-1.64893-.05127-2.47363-.05835-.8252-.00696-1.65088-.00098-2.47656.01929-.5127.17871-.73242.79419-1.05078,1.05005.2666,4.8396-.375,9.88977,0,14.7019,18.14502,3.53674,36.60547,5.81641,55.1377,7.77551,9.26562.97949,18.5498,1.87891,27.82129,2.81506,6.18115.62415,12.35645,1.26465,18.51709,1.9563,9.24121,1.03735,18.44971,2.18958,27.59473,3.57373,6.09668.92285,12.16504,1.94873,18.19678,3.1123,2.1123.40759,4.19629.8468,6.25244,1.31714,8.2251,1.88147,16.00439,4.26196,23.35449,7.11572,18.37549,7.13403,34.07031,17.22412,47.35205,29.85962,3.98438,3.79053,7.75146,7.8103,11.30908,12.0481,3.55713,4.23773,6.90479,8.69342,10.04932,13.35608,11.53125,17.09637,20.33691,36.97461,26.77441,59.08813,1.49951,5.14996,10.26123,37.38635,9.40283,40.1319-.05762.18304-.13086.37384-.22314.57281.16016-.06561.45947-.17999.83643-.30621.25098-.08417.53711-.17358.83936-.25726.45361-.12561.94385-.2384,1.41016-.30157.31055-.04211.61035-.06219.88135-.04919.81299.03894,1.36475.375,1.16553,1.30341-.26611,1.24146-.57471,2.4632-.91797,3.66907-.17139.60291-.35156,1.2019-.53906,1.79736-2.43896,7.74097-6.15576,14.89117-8.92773,22.49792-1.88574,5.17279-3.65869,10.39331-5.43457,15.61462-.73486,2.15948-1.47021,4.31891-2.21387,6.47552-2.54199,7.37085-5.18457,14.70551-8.25293,21.87299-1.24219.15137-2.49463.20801-3.75195.21503-.62891.00354-1.25879-.00537-1.88965-.021-1.26123-.03119-2.52539-.08948-3.78711-.12952-.63086-.02002-1.26123-.03552-1.89014-.04083-1.25781-.01062-2.51074.01947-3.75342.1355-24.83301,2.31781-57.89355,11.74445-69.00879,36.02979-14.46191,31.59619-4.04297,64.49573,15.79346,90.35144,51.50098,11.06708,101.94043,21.95544,117.85791,25.54327,24.84277,5.59967,64.99365,19.53253,77.85645,43.68488.00635.01123.01318.02173.01953.03296,6.16357,11.60071,8.46729,24.90479,7.375,37.9743-.09961,1.18817-.22656,2.37433-.38184,3.55713-3.10156,23.65619-17.28906,45.9549-39.77051,55.24921-7.90625,3.26855-18.63379,4.50684-30.66455,4.47009-30.74463-.09387-69.99902-8.51459-92.41943-12.65625-4.20752-.77728-8.31836-1.93988-12.44043-3.04089-4.12207-1.10095-8.25537-2.14026-12.50684-2.67096-1.21484-.15161-2.43945-.26172-3.67578-.31989-.55615,2.9364-1.09033,5.89105-1.57324,8.85846-1.20654,7.41864-2.09277,14.91742-2.20508,22.41235-.02197,1.49896-.01367,2.9978.0293,4.49579,111.3877,13.04987,224.94189,16.78302,337.2168,23.10284,14.65381-3.71362,29.84863-6.39252,43.78418-12.41388,25.43213-10.98846,45.81006-28.62518,57.54199-52.74805,6.92578-14.24109-7.36768-36.71948-11.16797-48.59033-6.80469-21.25488-13.72949-68.31342.36475-89.26935,10.97607-16.31897,24.29834-23.28436,41.46973-30.17346.78174-.34344,1.59424-.67535,2.47412-.9837,15.57764-5.46234,38.56445-8.72607,65.31738-9.89038,5.99219-.2608,12.17334-.41589,18.50244-.4671,23.6792-.19171,49.42969,1.07654,75.11084,3.74445,6.05273.62878,12.10156,1.33417,18.11865,2.11786,25.08447,3.26709,49.61084,7.87469,71.55176,13.76514,4.85889,1.30457,9.59131,2.67188,14.17432,4.10181,36.9834,11.53839,64.26562,27.13745,70.23926,46.4856.13379.38757,1.34717,1.25323,1.83594,2.84277.1582.51355.31299,1.03723.46387,1.56976.30273,1.06512.5918,2.16583.86914,3.29285.27686,1.12701.54199,2.28033.7959,3.45062s.49707,2.35754.72998,3.55243c1.04932,5.37689,1.90039,10.90839,2.65869,15.74475.32764-1.69531,1.59668-8.58038,3.26465-17.63495,2.16797-11.76886,5.00977-27.2027,7.33887-39.69427,1.98779-10.66077,3.60254-19.17676,4.10352-21.42987,3.23682-14.54309,6.29053-29.50763,9.45508-44.10547,1.60156-7.39117,3.76172-14.95032,5.25195-22.05273,2.92578-13.94,5.98926-28.98621,8.4043-43.05524.28516-1.66058.91992-3.34454,1.05078-4.20056.10156-.66705-.0918-1.42719,0-2.10022.75781-5.55444.85059-11.198,1.05078-16.80206.11621-3.26416.05811-6.58362.02148-9.86353-.01221-1.09326-.02148-2.18219-.02148-3.26312v-15.75195c0-.54999.01562-1.1123.04297-1.68231.05469-1.13995.15723-2.31036.27637-3.4729.05957-.58124.12305-1.16052.1875-1.73303.25635-2.28998.51904-4.47174.54297-6.23834.01953-1.39948-.01465-2.80048,0-4.2005.02344-2.09906-.01855-4.20166,0-6.30078Z"/>
  <g>
    <path class="d" d="M945.17984,712.01274c-7.39746-3.66101-10.06201,10.29181-13.23193,14.62323l-28.51758,74.93182,51.9624,4.24811c4.1333-.59503,29.43408,1.60779,29.82861-2.63721-7.45703-15.39319-27.00537-84.71442-40.0415-91.16595Z"/>
    <path class="d" d="M850.64419,705.14311c-5.71826,1.20776-18.05615,23.32721-21.29297,29.19818-10.30762,18.69623-18.64697,38.6806-25.71631,58.82025l79.83594,6.30444c-3.07568-22.68164-6.61426-46.27148-14.68359-67.74628-2.12695-5.66003-10.78711-28.13037-18.14307-26.5766Z"/>
    <path class="d" d="M868.32144,111.56321c-13.75537-2.81543-28.44434-3.82349-42.62891-5.18164l-3.14697,68.26343h-.00049c11.45068,1.14673,27.47559,3.93225,38.86963,6.30066,2.1748-16.16638,8.34326-67.41882,6.90674-69.38245Z"/>
    <path class="d" d="M757.59097,702.15751c-4.74463-8.65625-5.80029-11.60449-13.87646-4.06525-10.12061,9.44794-35.62402,49.37811-39.40967,62.49994-1.55518,5.38965,2.64648,5.95746,6.90186,7.88446,21.52734,9.74756,46.4668,15.5448,69.30762,21.54358.74561-1.00818-2.4165-13.98328-2.96338-16.45453-4.54688-20.55994-10.01074-53.25433-19.95996-71.4082Z"/>
    <path class="d" d="M188.03238,294.3701c5.41943,28.76978-3.54395,70.90472-25.77051,91.31891-2.28223,2.09637-15.74072,10.99176-15.19971,13.14606,19.22656,15.47327,41.43701,26.33807,65.06494,12.54742,27.07324-15.80182,44.97607-67.37671,24.66309-93.82941-9.09326-11.84241-34.08838-21.92444-48.75781-23.18298Z"/>
    <path class="d" d="M730.28335,665.39671c6.06201,8.69226,10.23535,14.10852,19.40869,5.59192,14.71582-13.66327,24.02686-45.25177,31.01807-65.17981-26.75293,1.16431-49.73975,4.42804-65.31738,9.89038,2.19775,17.81903,4.38281,34.63,14.89062,49.69751Z"/>
    <path class="d" d="M715.39273,615.6992c-.87988.30835-1.69238.64026-2.47412.9837.81689-.3277,1.63965-.65533,2.47412-.9837Z"/>
    <path class="d" d="M823.1232,693.46513c3.93945.35724,14.63379-13.87799,17.09424-17.57031,8.84619-13.27484,29.4707-55.97809,34.10596-66.80865-25.68115-2.66791-51.43164-3.93616-75.11084-3.74445,4.20459,20.6286,6.39014,46.23218,12.30762,66.00934,1.27979,4.27765,7.00781,21.69739,11.60303,22.11407Z"/>
    <path class="d" d="M916.70718,703.8571c2.97363.83911,8.13232-5.66541,9.81934-7.84747,4.86816-6.29736,10.54736-16.20575,14.51562-23.29047,8.42969-15.04974,16.21973-31.87659,22.95166-47.75-21.94092-5.89044-46.46729-10.49805-71.55176-13.76514,3.11621,17.44617,16.03369,90.33014,24.26514,92.65308Z"/>
    <path class="d" d="M978.16812,629.07097c2.60791,31.36053,1.33789,62.9671,6.33203,94.0918.44385,2.76678,3.13525,19.58191,3.9668,20.20209,2.20703,1.64636,7.05957-2.31488,8.96533-3.77515,7.67334-5.8797,16.77881-14.73541,23.15088-22.01343,11.08594-12.66211,20.22754-27.04083,27.82422-42.01965v-.00006c-5.97363-19.34814-33.25586-34.9472-70.23926-46.4856Z"/>
    <path class="d" d="M745.48257,443.32768c42.19678,19.35718,123.2041,32.2207,166.6333,14.60309,31.47705-12.7691,81.63037-51.48663,98.72412-80.88428,11.4375-19.66931-20.36328-38.43805-34.896-46.4798-31.26514-17.30035-72.55566-28.41339-108.43604-25.39056-54.17041,4.5636-117.23096,56.70648-133.1416,108.43762-5.33252,17.33716-5.80713,21.95044,11.11621,29.71393ZM803.9274,360.2841c4.66162-20.76184,35.3374-37.28033,55.15039-39.38177,32.94531-3.49402,52.01318,5.95532,68.01416,34.34515,27.48193,48.7594-3.75342,94.06128-56.76172,97.66882-48.2749,3.28546-75.98535-49.95032-66.40283-92.6322Z"/>
    <path class="d" d="M1119.21695,208.34874c-5.37012-6.0387-18.45166-16.88232-25.14062-22.12341-1.03613-.81201-4.17676-3.37769-5.14307-3.15601l-43.67773,68.23511c1.02393.82642,10.47705,11.2124,11.55566,12.60156l64.08008-52.53186c.18408-.27026-1.17969-2.46912-1.67432-3.02539Z"/>
    <path class="d" d="M497.52554,234.43846c-1.27832.35217-9.68848,32.44214-10.0957,33.66797,8.03174.88892,16.18457,1.91553,24.16211,3.15039,13.79199,2.13501,99.13428,15.92773,104.00098,16.80212.65576.1178,19,3.37891,27.31348,5.25061,4.03906-12.45752,9.06055-24.62451,12.5459-37.15991l-157.92676-21.71118Z"/>
    <path class="d" d="M466.41958,338.46513l-.00732.0238c.00195-.00781.00488-.01599.00684-.0238l-8.4043,27.30334c.00293-.00873.00586-.0177.00879-.02643l-.0083.02643,152.3252,23.10284h.00049c2.99707-9.20636,6.21387-18.19708,9.4541-27.30334l-153.37549-23.10284Z"/>
    <path class="d" d="M428.60074,453.97929c-.01123.02612-.04688.06012-.10107.10236.0542-.04224.08984-.07617.10107-.10229l152.15189,29.4165c.24121-.52783,4.99068-23.21039,7.52682-31.51678l-150.22363-22.05273c-2.26855,7.12506-6.30664,16.90247-9.45508,24.15295Z"/>
  </g>
  <path class="g" d="M357.11343,611.97197c1.69824-5.72516,2.18457-11.51868,1.64062-17.12042-.27148-2.8009-.80078-5.55377-1.56445-8.22632-.25439-.89081-.53516-1.77271-.84082-2.64447-.61182-1.74347-1.32422-3.44647-2.13086-5.09918s-1.70752-3.25519-2.69531-4.79791c-.98779-1.54266-2.06348-3.02557-3.21924-4.43896s-2.39209-2.75726-3.70215-4.02209c-1.96484-1.89722-4.09619-3.61646-6.37061-5.12518-1.51562-1.00586-3.0957-1.91815-4.73242-2.72723-5.72803-2.83185-12.15234-4.39966-18.98242-4.29041-1.95117.03119-3.93604.19928-5.94727.51392-2.42627.37964-4.73828,1.07672-6.92529,2.03583-.11475.05042-.23145.09802-.3457.14996-.62402.28339-1.23535.59235-1.83789.91821-.26416.14276-.52539.29004-.78516.44067-19.98926,11.5899-27.4043,46.14648-8.75342,61.84723,4.51172,3.79779,11.08252,6.69971,18.28467,8.51996.6001.15167,1.20508.2959,1.81299.43243,1.21631.27313,2.44678.51575,3.68457.72705,1.1665.19904,2.33936.3678,3.51367.5105.6958.08459,1.3916.16156,2.08691.22595,1.21289.1123,2.42334.19244,3.62598.24213.65039.02686,1.29883.04572,1.94385.05389,1.22412.01556,2.43604-.00281,3.62939-.05597.59668-.02655,1.18848-.06183,1.7749-.1059,1.66504-.12512,3.28271-.32489,4.83984-.59442,2.8291-.48981,5.45166-1.21851,7.74805-2.20807,5.80029-2.49988,12.42188-9.00604,14.24756-15.16119ZM299.87076,593.68821c-.29736-5.46692,3.98584-14.26257,9.71582-15.57056,10.729-2.44916,22.71436,5.06317,24.19043,16.32501,2.94971,22.50836-32.71387,21.1853-33.90625-.75446Z"/>
  <path class="g" d="M298.67447,557.53837c-19.98926,11.5899-27.40479,46.14648-8.75342,61.84723,4.51172,3.79779,11.08252,6.69971,18.28467,8.51996-7.20215-1.82025-13.77295-4.72217-18.28467-8.51996-18.65088-15.70074-11.23584-50.25732,8.75342-61.84723Z"/>
  <path class="g" d="M299.45962,557.0977c.60254-.32587,1.21387-.63483,1.83789-.91821-.62402.28339-1.23535.59235-1.83789.91821Z"/>
  <path class="g" d="M317.21695,629.57554c-1.17432-.1427-2.34717-.31146-3.51367-.5105,1.1665.19904,2.33936.3678,3.51367.5105Z"/>
  <path class="g" d="M333.4982,557.77018c1.63672.80908,3.2168,1.72137,4.73242,2.72723-1.51562-1.00586-3.0957-1.91815-4.73242-2.72723Z"/>
  <path class="g" d="M348.30337,569.6447c1.15576,1.41339,2.23145,2.8963,3.21924,4.43896-.98779-1.54266-2.06348-3.02557-3.21924-4.43896Z"/>
  <path class="g" d="M338.23062,560.49742c2.27441,1.50873,4.40576,3.22797,6.37061,5.12518-1.96484-1.89722-4.09619-3.61646-6.37061-5.12518Z"/>
  <path class="g" d="M314.51577,553.47978c-1.95117.03119-3.93604.19928-5.94727.51392-2.42627.37964-4.73828,1.07672-6.92529,2.03583,2.18701-.95911,4.49902-1.65619,6.92529-2.03583,2.01123-.31464,3.99609-.48273,5.94727-.51392Z"/>
  <path class="g" d="M322.92984,630.04362c-1.20264-.04968-2.41309-.12982-3.62598-.24213,1.21289.1123,2.42334.19244,3.62598.24213Z"/>
  <path class="g" d="M344.60122,565.6226c1.31006,1.26483,2.54639,2.6087,3.70215,4.02209-1.15576-1.41339-2.39209-2.75726-3.70215-4.02209Z"/>
  <path class="g" d="M328.50308,630.04155c-1.19336.05316-2.40527.07153-3.62939.05597,1.22412.01556,2.43604-.00281,3.62939-.05597Z"/>
  <path class="g" d="M335.11783,629.34123c-1.55713.26953-3.1748.4693-4.83984.59442,1.66553-.12512,3.28271-.32489,4.83984-.59442Z"/>
  <path class="g" d="M47.63785,241.83397c.82471.00708,1.64941.02698,2.47363.05835,2.47217.09424,4.94092.29187,7.40625.55444,1.64355.17505,3.28613.37891,4.92725.6001,4.10303.55298,8.19971,1.21448,12.29443,1.80566,1.44922.20923,2.89844.40698,4.34766.59082.37842.04797.75684.09412,1.13574.13965,1.44727.17432,2.89453.33301,4.3418.46179,13.5752,1.20764,26.80078,2.05579,39.75879,2.98254.54492.03882,1.08887.07837,1.63281.11768,7.09912.5127,14.11865,1.05566,21.06982,1.69983,11.58105,1.07324,22.97412,2.4353,34.24023,4.41113,2.90674.50977,5.80518,1.06213,8.6958,1.66003,23.58643,4.87915,46.67725,12.87793,69.82568,27.14697,13.34619,8.22717,24.57178,19.72083,34.06836,33.04028,5.69775,7.99182,10.77344,16.64087,15.31201,25.63599,12.10254,23.98706,29.92993,76.85695,30.1419,76.93429,1.29346-3.30975,1.42694-3.86319,2.5744-7.23184,2.58203-7.57947,4.90381-15.26251,7.41064-22.86414.83545-2.53387,1.68506-5.06146,2.58008-7.56952,21.69287-60.77954,45.97656-127.19312,72.67139-185.6875,1.271-2.78479,5.01758-8.56836,7.00781-12.39038.16602-.31848.31982-.62329.4585-.91174.41699-.86511.70264-1.58191.79004-2.07263h0c2.36084-13.25757-.9043-34.67871,1.00684-48.87427l2.14453-30.93555c-13.9917.00916-28.2959-.12573-42.02051,0-37.63379.34497-84.1875-1.67798-120.81006,4.20044-32.11377,5.15479-79.83301,20.37854-110.3042,32.55408-16.95117,6.77319-34.4834,16.88879-50.71045,28.64905-1.49902,1.08643-2.98291,2.19067-4.45801,3.30371-.81299.61353-1.62207,1.23047-2.42725,1.85144-3.31543,2.55713-6.56592,5.17236-9.72559,7.83704-1.77344,1.49536-3.51904,3.00513-5.23486,4.52661-1.26904,1.12549-2.51514,2.25928-3.75,3.39661-1.26855,1.16858-2.5249,2.34106-3.75439,3.51965-1.61768,1.55042-3.2002,3.10828-4.74463,4.67102-1.54492,1.56274-3.05127,3.13025-4.51709,4.69983-.99609,1.06689-2.38428,2.58667-4.00537,4.38989-.54004.60095-1.10645,1.2334-1.69238,1.89111s-1.19189,1.34045-1.81201,2.04224c-.62012.70166-1.25439,1.42212-1.89648,2.15527-1.28418,1.46631-2.60059,2.98315-3.90234,4.49976-.65088.7583-1.29785,1.5166-1.93555,2.26855-.31885.3761-.63525.75049-.94824,1.12256-4.07129,4.83716-7.60986,9.27551-8.99219,11.58691-1.87646,3.13867-2.96582,7.87219-3.15137,11.55151.82568-.02026,1.65137-.02625,2.47656-.01929Z"/>
  <path class="g" d="M432.80288,180.94578c-.0874.49072-.37305,1.20752-.79004,2.07263.41699-.86511.70264-1.58191.79004-2.07263h0Z"/>
  <path class="g" d="M349.29507,389.57756c-2.50684,7.60162-4.82861,15.28467-7.41064,22.86414,2.58203-7.57947,4.90381-15.26251,7.41064-22.86414Z"/>
  <path class="g" d="M62.44497,243.04686c-1.64111-.22119-3.28369-.42505-4.92725-.6001,1.64355.17505,3.28613.37891,4.92725.6001Z"/>
  <path class="g" d="M74.73941,244.85252c-4.09473-.59119-8.19141-1.25269-12.29443-1.80566,4.10303.55298,8.19971,1.21436,12.29443,1.80566Z"/>
  <path class="g" d="M80.22281,245.58299c1.44727.17432,2.89453.33301,4.3418.46191,13.57568,1.20764,26.80078,2.05566,39.75879,2.98242-12.95801-.92676-26.18359-1.7749-39.75879-2.98254-1.44727-.12878-2.89453-.28748-4.3418-.46179Z"/>
  <path class="g" d="M189.96206,256.916c-2.89062-.5979-5.78906-1.15027-8.6958-1.66003,2.90674.50977,5.80518,1.06213,8.6958,1.66003Z"/>
  <path class="g" d="M147.02603,250.84483c-6.95117-.64417-13.9707-1.18713-21.06982-1.69983,7.09912.5127,14.11865,1.05566,21.06982,1.69983Z"/>
  <path class="g" d="M47.63785,241.83397c-.8252-.00696-1.65088-.00098-2.47656.01929h0c.82568-.02026,1.65137-.02625,2.47656-.01929Z"/>
  <path class="g" d="M79.08706,245.44334c-1.44922-.18384-2.89844-.38159-4.34766-.59082,1.44922.20923,2.89844.40698,4.34766.59082Z"/>
  <g>
    <path class="f" d="M1094.63003,381.52043c-.52246-4.54193-1.3999-9.13727-2.10107-13.65167-.15332-.98846.16211-2.16974,0-3.15039-.41309-2.50262-.65137-5.14813-1.05029-7.35089-2.12598-11.72681-5.38965-27.38562-8.4043-38.8548-1.44287-5.48804-4.19092-14.83301-6.30322-19.95239-3.5752-8.66504-14.20361-27.24243-19.95996-34.6543-1.07861-1.38916-10.53174-11.77515-11.55566-12.60156-8.53906-6.8938-25.42285-19.22388-34.66699-25.20312-4.60303-2.97754-19.0542-10.19629-24.16211-11.55139-2.81934-.74805-4.65918-.7251-7.35352-1.05017-65.33643-7.88159-130.41504-3.47754-189.80615,26.06567-4.56445,2.27051-9.01074,4.58801-13.33887,6.95752-34.62451,18.9563-61.71191,41.24438-81.67676,69.46851-6.23877,8.82007-11.78223,18.21967-16.64307,28.27856-8.74902,18.10602-15.28564,38.34772-19.68359,61.18866-5.41309,28.1131-10.54053,63.69409-12.89941,92.11829-1.07275,12.92902.27539,18.13318,4.03174,20.49396.21484.13501.43848.26086.66895.37811.41504.21094.84717.40375,1.31299.56549.30908.1073.62939.2049.96143.29443.66309.17902,1.37109.32556,2.12451.45209.75342.12646,1.55127.23291,2.39453.3316.42188.04932.85449.09674,1.29883.1438.88818.09406,1.82129.18665,2.7998.28998.97803.10333,2.00146.21753,3.06982.35492s2.18164.29797,3.33984.49408c1.73779.29419,3.57666.6684,5.51709,1.16431,3.50781.89667,7.02051,1.79785,10.53662,2.70013,7.0332,1.80463,14.08154,3.61395,21.14111,5.40222,3.52979.8941,7.06299,1.78302,10.59814,2.66339s7.07227,1.7522,10.61182,2.61237c5.30908,1.29022,10.62207,2.55408,15.93799,3.78058,3.54395.81769,7.08887,1.61884,10.63428,2.40015,1.77295.39062,3.5459.77631,5.31885,1.15668,3.5459.76068,7.09229,1.5,10.63867,2.21466,14.18506,2.85858,28.36768,5.32281,42.51562,7.18597,24.66846,3.24866,49.23145,4.66791,73.51904,3.16663,1.98633-.1228,3.97021-.26672,5.95312-.4292,3.32031-.27209,6.63574-.59698,9.94482-.98492,3.46387-.40613,6.92139-.87726,10.37207-1.41663,1.7251-.26965,3.44873-.55646,5.17041-.86066,7.74805-1.36896,15.45947-3.09155,23.12891-5.20465,23.0083-6.33917,45.63721-16.19238,67.73193-30.5528,7.40234-4.81116,14.4458-10.14301,21.11328-15.92145,6.66699-5.77838,12.9585-12.00336,18.85645-18.60071,1.96924-2.20264,3.88916-4.45154,5.77002-6.73444,2.21631-2.69,4.37598-5.42908,6.46777-8.22217,10.32959-13.79254,19.11865-28.79065,26.26123-44.44336.50342-1.10284.99707-2.20917,1.48389-3.31836,1.40332-3.19775,2.73828-6.42029,4.00293-9.66461.98877-2.53552,1.93701-5.08307,2.84277-7.6413s1.76807-5.12708,2.58447-7.70526v-.00006c-.33008-4.34607-.54834-8.23175-1.05078-12.6015ZM912.11587,457.93077c-43.4292,17.61761-124.43652,4.75409-166.6333-14.60309-16.92334-7.76349-16.44873-12.37677-11.11621-29.71393,15.91064-51.73114,78.97119-103.87402,133.1416-108.43762,35.88037-3.02283,77.1709,8.09021,108.43604,25.39056,14.53271,8.04175,46.3335,26.81049,34.896,46.4798-17.09375,29.39764-67.24707,68.11517-98.72412,80.88428Z"/>
    <path class="f" d="M329.61685,439.41337c-.271-.013-.5708.00708-.88135.04919-.46631.06317-.95654.17596-1.41016.30157-.30225.08368-.58838.1731-.83936.25726-.37695.12622-.67627.2406-.83643.30621-30.15088,12.37164-79.37256,16.95728-111.77539,12.49695-90.31787-12.43243-162.9082-107.37164-169.76367-195.21936-.37549-4.81213.2666-9.8623,0-14.7019-10.10059,8.12415-21.71484,34.96179-25.48975,47.50342-29.50586,98.02185-1.93652,226.48499,65.91992,303.25464,4.93018,5.5777,11.39014,10.63959,16.00244,16.51794,1.01416.20587,1.96875.39502,2.85498.56329.58203.11047,41.18945,8.78571,89.88232,19.22736-10.86963-21.38495-18.02295-46.66302-14.56152-70.31073,5.42383-37.05347,36.7168-71.43561,73.15869-80.18744,10.23584-2.45825,20.84814-3.01776,31.09473-4.62146,12.479-1.95312,25.02295-3.82758,37.4248-6.16919,2.77246-7.60669,6.48926-14.75696,8.92822-22.49792.1875-.59546.36768-1.19446.53906-1.79736.34326-1.20587.65186-2.42761.91797-3.66907.19922-.92841-.35254-1.26447-1.16553-1.30341Z"/>
  </g>
  <path class="g" d="M282.97232,474.85032c-10.24658,1.6037-20.85889,2.16321-31.09473,4.62146-36.44189,8.75183-67.73486,43.13397-73.15869,80.18744-3.46143,23.64771,3.69189,48.92578,14.56152,70.31073,13.89844,2.98047,28.4541,6.10443,42.92822,9.21472-19.83643-25.85571-30.25537-58.75525-15.79346-90.35144,11.11523-24.2854,44.17578-33.71198,69.00879-36.02979,1.24268-.11603,2.49561-.14612,3.75342-.1355.62891.00531,1.25928.02075,1.89014.04083,1.26172.04004,2.52588.09833,3.78711.12952.63086.01562,1.26074.02454,1.88965.021,1.25732-.00702,2.50977-.06366,3.75195-.21503,3.06836-7.16748,5.71094-14.50214,8.25293-21.87299.74365-2.15656,1.479-4.31604,2.21387-6.47552,1.77588-5.22131,3.54883-10.44183,5.43408-15.61462-12.40186,2.34161-24.9458,4.21606-37.4248,6.16919Z"/>
  <path class="g" d="M314.96304,484.29576c-.73486,2.15948-1.47021,4.31897-2.21387,6.47552.74365-2.15662,1.479-4.31604,2.21387-6.47552Z"/>
  <path class="g" d="M300.74429,512.8593c1.25732-.00702,2.50977-.06366,3.75195-.21503,3.06836-7.16748,5.71094-14.50214,8.25293-21.87299-2.54199,7.37085-5.18457,14.70551-8.25293,21.87299-1.24219.15137-2.49463.20801-3.75195.21503Z"/>
  <path class="g" d="M289.42398,512.80345c-24.83301,2.31781-57.89355,11.74438-69.00879,36.02979-14.46191,31.59619-4.04297,64.49573,15.79346,90.35144h0c-19.83643-25.85571-30.25537-58.75525-15.79346-90.35144,11.11523-24.28534,44.17578-33.71198,69.00879-36.02979,1.24268-.11603,2.49561-.14612,3.75342-.1355-1.25781-.01062-2.51074.01947-3.75342.1355Z"/>
  <g>
    <path class="e" d="M782.53042,171.90599c2.00977.13574,4.34375.29419,6.76611.45898,2.35889.1604,4.79736.32666,7.08936.48303.4585.03125.91113.06213,1.35596.09253.88965.06067,1.74854.11938,2.5625.17493.27051.01855.53516.03662.79541.05444.70068.04785,1.36133.09302,1.97168.13477.47119.03223.91064.06226,1.31689.09009,1.80713.12354,2.9248.20007,2.9248.20007,1.854,0,5.12842.20251,8.33545.44861.4585.03516.91504.07117,1.36621.10767,2.11865.17126,4.1123.35181,5.53076.4939l3.14697-68.26343c14.18457,1.35815,28.87354,2.36621,42.62891,5.18164,1.43652,1.96362-4.73193,53.21606-6.90674,69.38245v.00012c3.77979.78564,7.6123,1.61365,11.47168,2.46899,7.71826,1.71045,15.54395,3.53052,23.26758,5.34021,3.8623.90491,7.69873,1.80725,11.48389,2.69202,3.83984-16.60925,11.08936-75.21118,10.59863-75.50586-3.40479-2.04517-19.27051-2.51904-20.04053-3.26831-4.14746-20.8866-6.9917-42.32422-12.08154-63.00562-4.72559-19.19995-17.54736-64.46631-45.15918-43.01733-15.29443,11.88062-38.16992,64.21997-47.52344,83.76099-.87158,1.82104-3.06494,9.62427-3.56982,9.55249-6.45312-.9187-7.07373-.98779-11.46533-.46875-1.79053,1.28418-2.07422,72-2.07422,72,.0835.00366.42383.02515.97168.06091,1.07129.07007,2.94141.19543,5.23633.35046Z"/>
    <path class="e" d="M682.82632,176.7451v.00012c14.87256-1.10779,30.34277-2.9812,45.16602-3.88,2.11768-.12842,4.22217-.23706,6.30957-.32056l-4.21729-77.69336c-3.09961.44922-40.18945-.62769-48.75293,1.96387-1.10059.75708-.69873,16.25684-.60645,19.02258.01953.57776,1.875,47.85132,2.10107,60.90735Z"/>
    <path class="e" d="M1011.63882,138.94065c-9.44238-5.11255-20.08398-8.86279-30.71582-11.82593-3.05664-.85205-12.26221-3.93176-14.50293-2.40771-2.20654,1.50073-20.4375,71.05798-22.01416,77.24133,10.43799,3.02502,39.20117,11.85352,42.02051,12.60156,7.92139-23.0282,24.63184-74.1803,25.2124-75.60925Z"/>
    <path class="e" d="M393.93374,101.13597c.19092-2.03052-.71973-3.54736-1.5415-5.27563-5.29297-11.1311-12.20508-23.42139-18.23779-34.28467-7.6377-13.75171-25.79395-47.37646-37.47559-56.00024-18.83057-13.90161-29.44727.69592-37.14355,16.42432-12.89014,26.34277-18.58203,55.2666-26.41162,83.33667,36.62256-5.87842,83.17627-3.85547,120.81006-4.20044Z"/>
    <path class="e" d="M39.57779,173.40037c3.40234,18.87866,5.63428,37.9834,8.73486,56.90137,1.38184-2.31152,4.9209-6.74976,8.99219-11.58691.31299-.37207.62939-.74646.94824-1.12256.6377-.75195,1.28467-1.51025,1.93555-2.26855,1.30176-1.5166,2.61816-3.03345,3.90234-4.49976.64209-.73315,1.27637-1.45361,1.89648-2.15527.62012-.70178,1.22607-1.38452,1.81201-2.04224.58594-.65759,1.15234-1.29016,1.69238-1.89111,1.62109-1.80322,3.00928-3.323,4.00537-4.38989,1.46582-1.56958,2.97217-3.13708,4.51709-4.69983,1.54443-1.56274,3.12695-3.12061,4.74463-4.67102,1.22949-1.17859,2.48584-2.35107,3.75439-3.51965,1.23486-1.13733,2.48096-2.27112,3.75-3.39661,1.71582-1.52148,3.46143-3.03125,5.23486-4.52661,3.15967-2.66467,6.41016-5.27979,9.72559-7.83704.80518-.62097,1.61426-1.23792,2.42725-1.85144,1.4751-1.11304,2.95898-2.21729,4.45801-3.30371,16.22705-11.76025,33.75928-21.87598,50.71045-28.64917-13.14404-14.65332-26.73779-29.00781-39.4126-44.08752-11.85498-14.10437-46.79443-57.3645-49.88184-60.92529-4.58105-5.28394-15.61719-19.65796-20.45117-23.13245-1.74072-1.25122-5.41602-4.38013-6.479-5.28979-3.56396-3.05029-12.41846-4.85547-16.67578-2.03369-21.5293,14.26941-10.60938,73.85498-6.51221,95.78235,4.70508,25.1781,11.62061,49.94727,16.1709,75.19641Z"/>
    <path class="e" d="M1010.58853,226.1013c9.24414,5.97925,26.12793,18.30933,34.66699,25.20312l43.67773-68.23511c.96631-.22168,4.10693,2.34399,5.14307,3.15601,6.68896,5.24109,19.77051,16.08472,25.14062,22.12341.49463.55627,1.8584,2.75513,1.67432,3.02539l-64.08008,52.53186c5.75635,7.41187,16.38477,25.98926,19.95996,34.6543,24.03369-9.76562,69.29199-43.94165,71.43555-44.10547,10.61377-38.55811,22.61621-76.74561,33.31787-115.28784,6.8999-24.85059,27.84668-87.2124,22.94678-109.50171-3.18652-14.49731-11.84229-24.82788-27.42188-19.9375-21.68994,6.80859-44.61279,35.06787-59.28223,52.0542-25.57227,29.61157-49.41797,60.87964-74.61279,90.8103,1.48926.6958-32.56592,73.50903-32.56592,73.50903Z"/>
    <path class="e" d="M1172.36831,599.94725l-7.35352-2.10022c-.33984-.05957-57.04883-10.0033-85.0918-14.70184-3.12109,14.39844-6.13623,29.15021-9.32422,43.50592-.04395.19879-.08691.40088-.13086.59949v.00006l93.49658,27.30334c.91504-.12415,1.56982.60083,2.14014-.67468,1.98584-4.44177,3.96777-16.81384,4.90771-22.2085.72168-4.14148,4.49121-30.10657,3.30566-31.61047-.59961-.44946-1.57373.05206-1.94971-.1131Z"/>
    <path class="e" d="M1093.57974,518.03721c-2.41553,14.06903-5.479,29.11523-8.4043,43.0553,30.76953,3.66449,61.29102,9.70148,92.4458,9.45117.0542-.09735,1.83691.41235,2.11865-.68817l3.17676-47.96918c-.4707-2.03778-84.80713-3.70081-89.33691-3.84912Z"/>
    <path class="e" d="M1059.02554,688.3748c-.03809.61462-.07568,1.23987-.11328,1.88354l73.53662,37.80469c7.11523-11.28516,20.55811-33.6615,23.11133-46.20569l-89.1958-33.17682c-2.3291,12.49158-5.1709,27.92542-7.33887,39.69427Z"/>
    <path class="e" d="M1165.86587,296.09788c-.81494-1.91968-2.85449-1.59546-2.95215-1.73816l-79.83936,24.15295c3.01465,11.46918,6.27832,27.12799,8.4043,38.8548,11.38818-.8653,76.55811-12.15521,81.94043-16.80206-.39404-.67279-4.23486-36.6488-7.55322-44.46753Z"/>
    <path class="e" d="M1096.73111,452.92918c-.02441,1.7666-.28711,3.94836-.54346,6.23834-.06445.57251-.12793,1.15179-.1875,1.73303-.11914,1.16254-.22168,2.33295-.27637,3.4729-.02734.57001-.04297,1.13239-.04297,1.68237v15.75189c0,1.08093.00928,2.16986.02148,3.26312.03662,3.27991.09473,6.59937-.02148,9.86353h87.19287c-.68311-14.81879,1.45898-31.83813,0-46.20569-1.75049.01239-82.05078,4.48755-86.14258,4.2005Z"/>
    <path class="e" d="M1095.70474,394.41917c.54443,7.07678,1.42627,15.12329,1.84424,22.69775.14111,2.55957.229,5.06451.23242,7.4588l81.94092-6.30078c.10986-4.32434-1.05078-9.04944-1.05078-12.07648,0,0-.33301-31.34766-3.15137-36.22949-1.0498.01666-39.25391,5.14691-39.91992,5.25067-8.0542,1.25519-36.67188,7.15002-40.97021,6.30078.50244,4.36975.7207,8.25543,1.05078,12.6015v.00006c.00684.09692.0166.19989.02393.29718Z"/>
    <path class="e" d="M431.923,708.41282c-12.86279-24.15234-53.01367-38.08521-77.85645-43.68488-15.91748-3.58783-66.35693-14.4762-117.85791-25.54327-14.47412-3.11029-29.02979-6.23425-42.92822-9.21472-48.69287-10.44165-89.30029-19.11688-89.88232-19.22736-.88623-.16827-1.84082-.35742-2.85498-.56329-15.16895-3.07898-43.70215-9.91968-56.55371-7.25519-9.77051,2.02563-22.10498,22.22638-5.13135,28.52704,96.75732,20.01697,195.75488,32.117,292.05615,54.06995,22.5625,5.14343,66.37158,12.82812,79.65186,32.74127,13.5,20.24237.95605,63.39777-22.9458,71.22308-16.65527,5.45294-67.81104-5.66541-87.40088-9.22314-91.50146-16.61761-284.67773-61.19366-288.6748-61.65045-16.26221-1.85834-11.64209,21.48218-8.15283,30.72766,11.53516,30.56659,42.01367,36.62396,70.37646,45.16364,56.10596,16.89282,112.00977,25.48499,169.94092,32.27197-.04297-1.49799-.05176-2.99683-.0293-4.49579.1123-7.49493.99854-14.99371,2.20508-22.41235.48291-2.96741,1.01709-5.92206,1.57324-8.85846,1.23633.05817,2.46094.16827,3.67578.31989,4.25146.5307,8.38477,1.57001,12.50684,2.67096,4.12207,1.10101,8.23291,2.26361,12.44092,3.04089,22.41992,4.14166,61.67432,12.56238,92.41895,12.65625,12.03076.03674,22.7583-1.20154,30.66455-4.47009,22.48145-9.29431,36.66895-31.59302,39.77051-55.24921.15527-1.1828.28223-2.36896.38184-3.55713,1.09229-13.06958-1.21143-26.3736-7.37549-37.9743-.00586-.01111-.0127-.02185-.01904-.03296Z"/>
    <path class="e" d="M20.99917,685.00773c14.16406,3.95721,34.66602,7.48151,49.71826,10.53192,87.18213,17.66791,172.59521,36.54407,260.21045,51.9256,7.1499,1.25525,31.10449,5.07501,36.47217,2.90369,9.99902-4.04498,5.20654-17.41687-3.68115-19.93109-89.12158-18.89545-179.10547-37.77942-268.35156-56.03772-20.66748-4.22827-48.36182-9.55981-68.06494-11.44513-8.0542-.77063-19.78906-.25354-17.82666,10.95905.74805,4.27454,7.48145,9.96442,11.52344,11.09369Z"/>
    <path class="e" d="M1109.52798,755.72001c-2.19824-1.91449-5.25684-4.2406-7.63428-6.03937-15.37305-11.63123-30.99854-22.99487-46.69238-34.23022-.69434-1.11572.2251-7.70959.55957-9.44012v-.00055c-.7583-4.83636-1.60938-10.36786-2.65869-15.74475-.23291-1.19489-.47607-2.38214-.72998-3.55243s-.51904-2.32361-.7959-3.45062c-.27734-1.12701-.56641-2.22772-.86914-3.29285-.15088-.53253-.30566-1.05621-.46387-1.56976-.48877-1.58954-1.70215-2.4552-1.83594-2.84277v.00006c-7.59668,14.97882-16.73828,29.35754-27.82422,42.01965-6.37207,7.27802-15.47754,16.13373-23.15088,22.01343-1.90576,1.46027-6.7583,5.42151-8.96533,3.77515-.83154-.62018-3.52295-17.4353-3.9668-20.20209-4.99414-31.12469-3.72412-62.73126-6.33203-94.0918-4.58301-1.42993-9.31543-2.79724-14.17432-4.10181-6.73193,15.87341-14.52197,32.70026-22.95166,47.75-3.96826,7.08472-9.64746,16.9931-14.51562,23.29047-1.68701,2.18207-6.8457,8.68658-9.81934,7.84747-8.23145-2.32294-21.14893-75.20691-24.26514-92.65308-6.01709-.78369-12.06592-1.48907-18.11865-2.11786-4.63525,10.83057-25.25977,53.53381-34.10596,66.80865-2.46045,3.69232-13.15479,17.92755-17.09424,17.57031-4.59521-.41669-10.32324-17.83643-11.60303-22.11407-5.91748-19.77716-8.10303-45.38074-12.30762-66.00934-6.3291.05121-12.51025.2063-18.50244.4671-6.99121,19.92804-16.30225,51.51654-31.01807,65.17981-9.17334,8.5166-13.34668,3.10034-19.40869-5.59192-10.50781-15.0675-12.69287-31.87848-14.89062-49.69751-.83447.32837-1.65723.65601-2.47412.9837-17.17139,6.8891-30.49365,13.85449-41.46973,30.17346-14.09424,20.95593-7.16943,68.01447-.36475,89.26935,3.80029,11.87085,18.09375,34.34924,11.16797,48.59033-11.73193,24.12286-32.10986,41.75958-57.54199,52.74805-13.93555,6.02136-29.13037,8.70026-43.78418,12.41388,69.06836,3.88782,141.50879,11.30438,210.6792,8.45111,30.79346-1.27026,65.67236-6.52576,96.44873-10.70044,41.06787-5.57074,95.06543-11.43872,133.02539-26.64355,3.42285-1.37097,21.86182-9.12244,22.0752-12.06213-3.58008-3.74103-21.08984-24.41516-20.99268-27.85516,6.10449-9.27869,15.15869-17.11163,18.90479-27.79913l26.25,40.95251c5.96436-1.97937,39.50928-29.00183,44.12207-34.6543.68066-2.94843-.44434-2.56946-1.91064-3.84686ZM780.51431,790.02024c-22.84082-5.99878-47.78027-11.79602-69.30762-21.54358-4.25537-1.927-8.45703-2.49481-6.90186-7.88446,3.78564-13.12183,29.28906-53.052,39.40967-62.49994,8.07617-7.53925,9.13184-4.591,13.87646,4.06525,9.94922,18.15387,15.41309,50.84827,19.95996,71.4082.54688,2.47125,3.70898,15.44635,2.96338,16.45453ZM803.63492,793.16154c7.06934-20.13965,15.40869-40.12402,25.71631-58.82025,3.23682-5.87097,15.57471-27.99042,21.29297-29.19818,7.35596-1.55377,16.01611,20.91656,18.14307,26.5766,8.06934,21.47479,11.60791,45.06464,14.68359,67.74628l-79.83594-6.30444ZM955.39273,805.8159l-51.9624-4.24811,28.51758-74.93182c3.16992-4.33142,5.83447-18.28424,13.23193-14.62323,13.03613,6.45154,32.58447,75.77277,40.0415,91.16595-.39453,4.245-25.69531,2.04218-29.82861,2.63721Z"/>
    <path class="e" d="M507.09292,599.7191c-2.1958-7.66046-7.88037-13.47943-14.84033-16.85474-.53516-.25964-1.07861-.50482-1.62793-.73529-1.09863-.46088-2.22412-.86285-3.36719-1.20367s-2.30469-.62054-3.47607-.83691c-4.68506-.8656-9.53125-.71802-14.02197.58289-3.36816.97571-6.53662,2.60016-9.2876,4.93262-11.09521,9.40735-13.15967,22.01343-9.21045,32.44928.40869,1.07959.88135,2.13593,1.41553,3.16309.36719.70685.76367,1.3999,1.1875,2.07721.63623,1.01599,1.33496,1.99652,2.09277,2.93506.25244.31287.51172.62103.77734.92432.39746.45392.81396.89301,1.23926,1.32416.28076.28412.56689.56281.85938.83643.51123.47821,1.03857.9411,1.58496,1.38531,5.32373,4.32788,12.29004,6.98785,20.26074,6.82721.71191-.01434,1.43164-.05121,2.15918-.11133,2.18262-.18036,4.43311-.57043,6.73877-1.19226,9.73096-2.62445,15.5-8.46375,17.91406-15.9491.25391-.7879.47119-1.59412.65137-2.41669.18066-.82257.32471-1.66156.43311-2.51514.10791-.85358.18066-1.72168.21777-2.6026.13135-3.08313-.16699-6.32251-.86426-9.63959-.23486-1.1192-.51123-2.24634-.83594-3.38025Z"/>
    <path class="e" d="M309.58658,578.11766c-5.72998,1.30798-10.01318,10.10364-9.71582,15.57056,1.19238,21.93976,36.85596,23.26282,33.90625.75446-1.47607-11.26184-13.46143-18.77417-24.19043-16.32501Z"/>
    <path class="e" d="M468.9147,329.66795c-.83398,2.93744-1.66504,5.87061-2.49512,8.79718l153.37549,23.10284c8.08984-22.73462,15.66016-45.27612,23.11133-68.25842-8.31348-1.8717-26.65771-5.13281-27.31348-5.25061-4.8667-.87439-90.20898-14.66711-104.00098-16.80212-7.97754-1.23486-16.13037-2.26147-24.16211-3.15039-6.71582,20.22534-12.6792,40.99927-18.51514,61.56152Z"/>
    <path class="e" d="M581.02275,483.00505l-152.42201-29.0257c-.09082.20911-23.99658,64.8056-23.72656,65.15045.87988.20587,1.91992.4408,3.07861.69702,27.78516,6.14496,132.37891,26.12823,150.91748,29.2616h.00049c.00928-.0202.01758-.04126.02686-.06146,8.9624-19.81049,22.40576-67.22852,22.73535-68.20679l-.61022,2.18488Z"/>
    <path class="e" d="M452.8898,381.78849c-.84033,2.68634-1.67432,5.37811-2.50439,8.07104-1.02393,3.32306-2.04004,6.64545-3.0542,9.96448-.77344,2.53235-1.54492,5.0614-2.31641,7.58356-2.31299,7.56659-4.62061,15.07141-6.95947,22.41876h.00049l150.22363,22.05273c.78516-2.57159,18.65137-52.53662,22.06104-63.00775l-152.3252-23.10284c-1.74121,5.29626-3.44531,10.64734-5.12549,16.02002Z"/>
    <path class="e" d="M859.07779,320.90232c-19.81299,2.10144-50.48877,18.61993-55.15039,39.38177-9.58252,42.68188,18.12793,95.91766,66.40283,92.6322,53.0083-3.60754,84.24365-48.90942,56.76172-97.66882-16.00098-28.38983-35.06885-37.83917-68.01416-34.34515Z"/>
    <path class="e" d="M528.55874,185.1865c15.06738.00757,30.06152-.55737,45.01367-1.09033l-4.20752-82.96533c10.16602-.6543,20.25439-1.47729,30.47607-1.05054l6.29736,82.96558v.00012c16.15576-1.02991,32.16748-3.05493,48.32422-4.20056.27002-10.21313-3.12598-60.20898-3.15186-60.90747-.85352-23.29626-3.30957-39.17542-10.46582-61.47144-3.87793-12.08179-16.44092-45.59412-26.26123-52.5083-15.87256-11.17529-34.40918,11.31274-42.30078,22.90454-15.40137,22.62134-22.40088,49.48706-33.37744,74.27319-2.21045,1.94299-15.75781,1.05005-15.75781,1.05005-3.62109,3.17627-1.76123,65.45288-1.05078,82.96021,2.15576.02637,4.30957.03906,6.46191.04028Z"/>
    <path class="e" d="M437.53335,181.57481c.0752.00647.15039.01282.22754.01929,2.19287.18433,4.99121.37512,8.18164.56604,1.38867.08301,2.84961.16602,4.36816.24854,2.76807.15039,5.72119.29871,8.75146.44202.14453.00696.28955.01367.43457.02051,3.04492.14319,6.16016.28088,9.23828.41003.06836.00281.13623.00562.20459.00854,1.49365.0625,2.97754.1228,4.43994.18066.90088.03577,1.79248.07056,2.67334.10425,1.50977.05786,2.98682.11267,4.41602.16406,4.28613.1543,8.14111.27747,11.16309.35742-.43701-11.17969,0-34.6543,0-34.6543-.09277-5.36328-1.1167-46.15576-1.05078-47.25586-.69141.01514-38.9043-1.0603-54.62695-1.05005l-2.14453,30.93555c-1.91113,14.19556,1.354,35.6167-1.00684,48.87427.40234.19165,2.11426.40527,4.73047.62903Z"/>
    <path class="e" d="M127.06949,268.19578c-9.27148-.93628-18.55518-1.83557-27.82129-2.81506-18.53223-1.95911-36.99268-4.23877-55.1377-7.77551,6.85547,87.84772,79.4458,182.78693,169.76367,195.21936,32.40283,4.46033,86.79834-.12531,116.94922-12.49695.09229-.19897.1123-.57281.2168-1.27087.42578-2.84473-24.57227-74.63348-36.10352-91.72986-3.14453-4.66266-11.7334-15.91046-15.29053-20.14819-3.55762-4.23779-7.32471-8.25757-11.30908-12.0481-13.28174-12.6355-28.97656-22.72559-47.35205-29.85962-7.3501-2.85376-15.12939-5.23425-23.35449-7.11572-2.05615-.47034-4.14014-.90955-6.25293-1.31714-6.03125-1.16357-12.09961-2.18945-18.19629-3.1123-9.14502-1.38416-18.35352-2.53638-27.59473-3.57373-6.16064-.69165-12.33594-1.33215-18.51709-1.9563ZM162.26187,385.68901c22.22656-20.41418,31.18994-62.54913,25.77051-91.31891,14.66943,1.25854,39.66455,11.34058,48.75781,23.18298,20.31299,26.4527,2.41016,78.02759-24.66309,93.82941-23.62793,13.79065-45.83838,2.92584-65.06494-12.54742-.54102-2.1543,12.91748-11.04968,15.19971-13.14606Z"/>
  </g>
</svg>