<?xml version="1.0" encoding="UTF-8"?>
<svg id="a" data-name="Layer 1" xmlns="http://www.w3.org/2000/svg" viewBox="0 0 1032.48167 843.76828">
  <defs>
    <style>
      .b {
        fill: #f1f0f2;
      }

      .c {
        fill: #0b3d9f;
      }

      .d {
        fill: #1e1e1e;
      }

      .e {
        fill: #cf2e2c;
      }
    </style>
  </defs>
  <path class="b" d="M165.0174,582.12976c116.63362,191.95142,564.23637,214.30484,740.84605,10.76886-97.30823-145.38173-505.01832-250.70243-740.84605-10.76886Z"/>
  <path class="c" d="M939.02268,477.63516c27.90887,22.5404,60.83494,52.78651,83.91339,80.136,20.45372,16.18446,3.30235,36.21083-7.58634,52.5866-105.85792,171.59884-326.18012,229.54633-515.20251,233.41051-93.53586-1.09118-187.13996-31.24015-270.96098-70.18367-44.6494-27.73809-91.19894-51.17475-132.80778-83.90339C63.40618,663.6971-3.99501,578.18482.18587,575.26521c208.24787-285.09057,671.98008-320.45192,938.83681-97.63005ZM482.58962,448.65015c-110.93029,8.89515-240.44675,50.66415-317.57167,133.48259-.00071,1.45502,14.36744,17.50067,16.76283,19.93055,173.8928,161.53613,471.85561,168.78546,658.74595,25.03724,8.687-8.53906,33.74558-27.10441,35.9892-38.78598-.27145-2.75325-18.65568-20.60399-22.24937-23.69078-93.21106-79.46545-253.91583-131.55436-371.67694-115.97361Z"/>
  <path class="d" d="M552.28607,447.12462c170.77397,19.5686,144.80921,303.00422-30.54127,280.6965-180.11754-19.43767-150.09147-305.47259,30.54127-280.6965Z"/>
  <path class="e" d="M63.74945,386.2194C11.04257,239.33085,134.42508,183.70358,81.42905,52.39212c-1.68547-4.17619,1.6549-8.66675,6.13633-8.22162,97.19181,9.65379,72.36358,149.49479,83.66707,217.91965.37623,6.39287,25.5235,74.40878,31.26938,52.79195-.62967-23.30983-5.19712-39.42625-.80108-64.16175,15.32888-49.43978,39.22217-98.55923,14.48698-147.92662-1.40625-2.80664.06976-6.27228,3.08597-7.14249,18.60457-5.36761,46.87654,5.1346,59.19423,18.09566,47.83631,57.95656-36.33553,145.44674,33.53137,195.32486,1.71305,1.41833,2.45437,3.70741,5.32927,3.04396-12.25202-31.95213-12.60777-64.91956-5.94021-98.23058,35.57096-92.9177,52.97353-91.63013,32.46718-194.15374.44397-19.63435,7.26033-18.08465,23.53777-11.63198,93.02303,41.80443,26.69334,190.91505,81.97678,247.57833,78.97634-10.33262-.72882-165.44162,57.52406-217.117,12.27666-15.82241,30.19429-28.44318,50.09189-32.05769,4.42057-.80302,8.20707,3.17729,7.12067,7.53688-4.65064,18.66239-10.42802,38.66196-10.05157,57.57468,1.08476,52.05601,46.66437,94.33637,44.13603,149.72722-.49442,10.83168-15.83656,50.12308,6.14559,32.06167,57.03584-63.38644,15.3399-196.57742,105.78578-240.58511,31.39681-12.55292,9.26816,18.03213,4.54136,33.53113-23.62549,58.82851,21.33385,88.52027,38.90341,137.23139,7.95489,39.72752-31.59434,94.26005,6.45003,120.91268,28.75629-125.59674,54.09379-106.33604,21.78325-243.14681-.34104-1.44404-.60716-2.92192-.65104-4.40503-1.05418-35.63031,83.33965-79.17232,57.45114-43.87096-46.91226,78.74551,65.07117,125.02225,45.47868,202.57442-15.19008,37.92217-51.6533,111.98844,8.75282,126.99441-1.78433-37.49558,23.00865-82.07802,60.23263-93.13467,23.07488-8.94758,29.19201.31811,24.69717,12.92653-8.18389,22.95648-7.27521,42.29756-3.4303,57.05059,8.45116,32.42733,4.6703,66.89291-11.96089,95.98513-113.17975,197.98043-222.9154-263.09487-763.29475,23.44294-51.69032,27.40895-115.56635,2.37896-135.32659-52.69075Z"/>
</svg>