<?xml version="1.0" encoding="UTF-8"?>
<svg id="a" data-name="Layer 1" xmlns="http://www.w3.org/2000/svg" viewBox="0 0 1153.77802 1481.05239">
  <defs>
    <style>
      .c {
        fill: #0f33b8;
      }

      .d {
        fill: #f3f2f2;
      }

      .e {
        fill: #e191ba;
      }

      .f {
        fill: #1e1e1e;
      }

      .g {
        fill: none;
      }

      .h {
        fill: #fafafa;
      }
    </style>
  </defs>
  <polygon class="d" points="879.0364 79.80613 576.51196 28.75487 548.54861 199.64324 804.55364 247.13686 879.0364 79.80613"/>
  <rect class="h" x="601.84864" y="336.01937" width="250.22767" height="363.2765" rx="31.72118" ry="31.72118" transform="translate(218.60667 -215.83963) rotate(19.82179)"/>
  <rect class="h" x="859.28824" y="752.32632" width="250.22767" height="297.68486" rx="31.72118" ry="31.72118" transform="translate(542.59861 -358.18119) rotate(28.1957)"/>
  <path class="g" d="M306.34082,828.59731c.0957-.0083.18994-.02148.28564-.03027-.45361.04199-.90967.07617-1.36719.104.36035-.02246.72021-.04199,1.08154-.07373Z"/>
  <g>
    <rect class="e" x="748.21715" y="1126.29103" width="168" height="168" rx="32.63873" ry="32.63873" transform="translate(-302.24313 277.34428) rotate(-16.05404)"/>
    <path class="f" d="M825.45299,1179.48588c-18.31689-15.13037-47.06055-7.64111-49.41406,17.73633-4.02148,43.36279,44.19141,52.43213,74.54102,66.14746,16.31853-24.62695,30.42871-35.08252,34.59717-57.6709,8.03711-43.55225-39.24268-69.57422-59.72412-26.21289Z"/>
  </g>
  <path class="f" d="M632.96744,1.72039c-42.22412-7.77197-82.89258,11.13281-102.12842,49.74414-9.97363,20.01953-21.6022,78.49655-21.96109,101.15719-.44385,28.0166,10.74658,55.00732,32.66113,72.62207,19.05811,15.31934,41.09766,18.32764,64.01611,24.50732,2.96143,6.24316-7.78271,38.31982-5.34668,40.74316,13.47852,1.31445,29.75586-6.59619,40.03809-14.94971,3.80908-3.09473,10.70752-12.9751,13.0835-13.2002,42.5459,6.69971,85.08105,22.63623,127.35156,29.42627,45.44775,7.30029,77.85156-16.36456,92.90723-60.53302l20.59248-86.81237c10.45085-44.05797-17.44111-88.07487-61.743-97.43796L632.96744,1.72039ZM749.81258,199.20753l-161.05965-38.31495c-8.61853-2.05029-13.9061-10.74114-11.76512-19.33758v-.00003c2.09723-8.42075,10.55146-13.61122,19.00978-11.67103l161.38981,37.01996c8.71759,1.99966,14.07826,10.78563,11.86867,19.45239l-.33016,1.29501c-2.14774,8.42417-10.65571,13.56823-19.11332,11.55622ZM819.10255,144.91925l-213.74416-48.67545c-19.36523-7.54492-13.94531-33.93896,6.50195-34.4917l214.83494,50.282c9.03876,2.11552,14.6716,11.1343,12.60674,20.18477v.00003c-2.07248,9.08387-11.11478,14.76918-20.19948,12.70035Z"/>
  <path class="c" d="M968.10693,332.05825c-.29834.17285-.60107.33936-.89697.51562-.52197.31006-1.03418.63135-1.54688.95264-.47168.29639-.94141.59521-1.40625.90088-.42285.27783-.84375.55811-1.25977.84326-.63965.43945-1.271.88965-1.89648,1.34766-.24854.18213-.50244.3584-.74902.54297-.89844.6748-1.78174,1.36816-2.64893,2.08105-.15283.12549-.30078.25586-.45264.38232-.729.60889-1.44727,1.22998-2.15332,1.86475-.20947.18848-.41748.37891-.625.56982-.67725.62256-1.34326,1.25732-1.99805,1.90381-.16357.16162-.33008.3208-.49219.48389-.8125.81641-1.60986,1.64795-2.38477,2.5-.02441.02637-.04688.05371-.0708.08057-.71191.78467-1.40234,1.58838-2.08203,2.40234-.24463.29346-.48389.59131-.72412.88867-.44824.55322-.8877,1.11426-1.3208,1.68018-.28027.36719-.56104.73291-.83447,1.10498-.3833.51953-.75342,1.04932-1.12354,1.5791-.55273.79248-1.08984,1.59473-1.6123,2.40674-.24658.38281-.49707.76221-.73682,1.14941-.36768.59424-.7207,1.19678-1.07178,1.80078-.17139.29443-.34229.58936-.50977.88623-.36914.65527-.73193,1.31396-1.08154,1.97998-.08984.17041-.17529.34277-.26367.51367-1.19141,2.31055-2.26904,4.68213-3.22266,7.1084-.05273.13281-.10596.26562-.15771.39893-.30811.79639-.604,1.59863-.88574,2.40576-.04248.12256-.08252.24609-.12451.36914-.81738,2.38037-1.51416,4.80859-2.0957,7.27344-.08691.36914-.1748.73828-.25635,1.10938-.14209.64355-.27539,1.29004-.40088,1.93848-.10254.53174-.19531,1.06689-.28613,1.60254-.09277.53955-.19141,1.07812-.27246,1.62061-.15576,1.04932-.29004,2.10498-.40283,3.16699-.04053.38086-.06934.76416-.10449,1.146-.07568.8252-.14062,1.65381-.18945,2.48682-.02197.36963-.04248.73926-.05908,1.10986-.04492,1.00635-.07129,2.0166-.07666,3.03271-.00098.17627-.0083.35156-.0083.52832.00146,1.17285.03516,2.33838.08838,3.49854.01855.39209.04736.78174.07178,1.17236.04639.75928.104,1.51562.17236,2.26855.04541.49561.09229.99072.14697,1.48389.07129.64453.15771,1.28418.24463,1.92334.14014,1.02246.30029,2.03857.48047,3.04932.08105.45703.15576.91602.24463,1.37012.13916.70459.29541,1.40381.45361,2.10205.07861.34863.15771.69727.24072,1.04395.17725.7334.36182,1.46436.55957,2.19092.06152.2251.12793.44824.19141.67285.70117,2.48193,1.52295,4.91797,2.46289,7.2998.07031.17871.13965.35791.21143.53564.30518.75732.62207,1.50879.95068,2.25439.08057.18213.16455.36279.24609.54443,1.0083,2.23877,2.12402,4.42139,3.33691,6.5459.18213.31787.36182.63721.54785.95264.33057.55957.66943,1.11377,1.01367,1.66455.25488.40771.51611.81152.77881,1.21436.31641.48633.63135.97363.95898,1.45312.56494.82373,1.14111,1.63965,1.73633,2.44043.22607.3042.46387.59912.69434.90039.45752.59619.91895,1.18945,1.39355,1.77246.25732.31592.51953.62793.78174.93994.49756.59131,1.00293,1.17529,1.51758,1.75098.22607.25342.4502.5083.67969.75879,1.51855,1.65479,3.10742,3.24365,4.76416,4.76025.20898.19092.42236.37793.63379.56689.63672.56982,1.2832,1.12939,1.93896,1.67871.25391.2124.50781.42578.76514.63525.68701.56055,1.38623,1.10693,2.09277,1.64355.20166.15332.39795.31201.60156.46289.85938.63965,1.73486,1.25928,2.62109,1.86328.37451.25488.75732.49854,1.13672.74658.51953.34082,1.0415.67725,1.56934,1.00537.49365.30664.9917.60742,1.49316.90283.39551.23389.79541.46045,1.19531.68701.59033.33398,1.18066.66895,1.78174.98779.08643.04639.1748.08838.26172.13428,2.43896,1.28223,4.96094,2.44189,7.56104,3.46777.09033.03613.18115.07178.27148.10742.87109.33984,1.74902.66699,2.63672.97656,3.02588,1.05566,6.08252,1.91016,9.15381,2.57227.03271.00684.06494.01562.09766.02246.69824.14893,1.40332.27783,2.10791.40723.49902.09131.99658.18555,1.49854.26709.55273.09033,1.10791.17285,1.66455.25098.71631.10107,1.43506.19336,2.15771.27393.40674.0459.8125.09424,1.2207.1333,1.11914.10742,2.24316.19775,3.37598.25635.03857.00195.07617.00586.11475.00781,1.28027.06445,2.56934.09668,3.86572.09766.10059,0,.20117-.00342.30225-.00391,1.10693-.00293,2.20752-.03369,3.30322-.0835.3208-.01465.63965-.0332.95947-.05127.85889-.0498,1.71289-.11768,2.56396-.19531.41553-.0376.83154-.07275,1.24512-.11719.72461-.07764,1.44287-.17676,2.16113-.27441,1.28174-.17432,2.55273-.37988,3.81299-.6167.18604-.03516.37451-.06348.56006-.1001.85107-.16602,1.69336-.35596,2.53418-.55029.21143-.04883.42334-.0957.63428-.14648.87744-.21045,1.74854-.4375,2.61426-.67773.12061-.03369.24072-.06885.36084-.10254,3.80273-1.0791,7.51953-2.44971,11.11621-4.10059.08789-.04053.17676-.07861.26416-.11914.77246-.35938,1.53564-.7334,2.29443-1.1167.26416-.13428.52832-.26855.79102-.40527.6709-.34912,1.33691-.7041,1.99561-1.07227.37256-.20801.74072-.42334,1.10938-.6377.56934-.33057,1.14014-.6582,1.7002-1.00293.65234-.40186,1.29443-.81885,1.93408-1.23926.32471-.21387.6543-.42041.97559-.63867.90088-.6123,1.78906-1.24316,2.66211-1.89209.22168-.16455.43701-.33643.65674-.50342.72119-.54834,1.43555-1.10547,2.13623-1.67822.22949-.1875.45508-.37842.68262-.56885.68701-.5752,1.36523-1.16113,2.03174-1.75928.21338-.19141.42578-.38281.63672-.57617.68066-.625,1.34912-1.26367,2.00684-1.9126.18115-.17871.36475-.354.54395-.53467.71143-.71533,1.40625-1.44727,2.08936-2.19043.11475-.12451.23389-.24561.34766-.37109.78857-.86914,1.55762-1.75635,2.30615-2.66113.18701-.22559.36182-.46094.54639-.68848.52148-.64502,1.0376-1.29492,1.53809-1.95703.36963-.48828.72314-.98877,1.08105-1.48633.29639-.41211.59473-.82275.88281-1.24121.39551-.57275.77734-1.15479,1.15674-1.73828.23047-.354.45947-.7085.68408-1.06641.39209-.625.77441-1.25537,1.14844-1.89209.18457-.31396.36475-.63037.54492-.94727.38721-.68066.76855-1.36475,1.13574-2.05811.12451-.23584.24268-.47559.36523-.7124.87939-1.70752,1.69043-3.43848,2.43311-5.19043.03076-.07275.05762-.14697.08838-.21973.3374-.80273.66406-1.6084.97266-2.41943.33691-.88525.6582-1.77783.96338-2.67871.08545-.25244.17334-.50342.25586-.75684.24854-.75928.48242-1.52393.70752-2.29297.09229-.31689.18213-.63525.271-.95361.20752-.74609.40918-1.49414.59473-2.24902.08301-.33789.15674-.6792.23535-1.01855.31006-1.34131.58496-2.69482.82373-4.06201.07129-.40918.15381-.81494.21875-1.22656.08545-.53906.15234-1.08398.22607-1.62646.08789-.646.17529-1.29199.24707-1.94336.0542-.49365.10059-.98975.146-1.48633.06738-.74805.125-1.49902.17139-2.25342.02539-.4165.05322-.83252.07227-1.25098.04736-1.0498.07568-2.104.08008-3.16455.00049-.1333.00732-.2666.00732-.40039-.00098-1.18555-.03564-2.36328-.08936-3.53564-.02002-.42773-.05225-.85205-.0791-1.27783-.04541-.72705-.09961-1.45117-.16553-2.17236-.0498-.54883-.10547-1.09521-.16699-1.64111-.06348-.56592-.13916-1.12891-.21484-1.69141-.08496-.62842-.16797-1.25732-.26807-1.88135-.04883-.30566-.11035-.60742-.16309-.91211-.28516-1.64111-.61768-3.2749-1.00977-4.89746-.02979-.12402-.05615-.25-.08643-.37402-.20361-.8252-.42773-1.6416-.65723-2.45605-.07129-.25244-.1416-.50586-.21533-.75781-.23438-.79883-.48145-1.59229-.74121-2.38037-.07959-.24219-.16309-.48291-.24512-.72412-.27637-.81201-.55908-1.62061-.86182-2.41992-.04395-.11523-.09131-.22852-.13574-.34375-.49219-1.28125-1.01855-2.54541-1.57666-3.79199-.55908-1.24707-1.15234-2.48242-1.7793-3.70459-.16406-.31982-.32324-.64258-.4917-.95947-.32471-.61133-.66309-1.21387-1.00391-1.81494-.22949-.40527-.45947-.81006-.69629-1.21094-.32812-.55518-.66309-1.10547-1.00439-1.65186-.27637-.44141-.55811-.87842-.84326-1.31396-.3335-.51025-.66748-1.01904-1.0127-1.52051-.32617-.47363-.66309-.93848-.99902-1.4043-.33008-.45752-.65527-.91846-.99561-1.36816-.43896-.58057-.89404-1.14844-1.34912-1.71631-.25928-.32324-.50879-.65479-.77295-.97412-.72803-.87891-1.47607-1.74121-2.2417-2.58691-.20117-.22217-.41162-.43555-.61572-.65576-.59668-.64355-1.19873-1.28174-1.81689-1.9043-.24072-.24268-.48828-.479-.73242-.71826-.59717-.58594-1.20068-1.16553-1.81689-1.73193-.25928-.23828-.521-.47266-.78369-.70703-.61914-.55371-1.24707-1.09766-1.88379-1.63135-.26758-.22412-.53467-.44824-.80518-.66895-.65527-.53418-1.32227-1.0542-1.99512-1.56738-.26221-.19922-.521-.40332-.78564-.59961-.75049-.55664-1.51465-1.09521-2.28613-1.625-.19434-.1333-.3833-.27393-.5791-.40576-.90869-.61182-1.8335-1.20117-2.76904-1.77441-.50781-.31152-1.02783-.60498-1.54346-.90479-.43408-.25244-.86719-.50684-1.30664-.75098-.61963-.34424-1.24805-.67383-1.87793-1.00146-.3252-.16895-.65039-.33643-.97803-.50049-.70752-.35498-1.41992-.69922-2.13965-1.03271-.20557-.09521-.41309-.18652-.61963-.28027-3.56055-1.60693-7.23047-2.94141-10.979-3.98779-.08594-.02393-.17139-.04932-.25732-.07275-.86816-.23877-1.74219-.46094-2.62207-.66943-.21338-.05078-.42773-.09961-.64258-.14844-.82959-.18896-1.66162-.37109-2.50098-.5332-.26221-.05078-.52686-.09326-.79004-.14111-1.18018-.21484-2.36914-.40381-3.56738-.56445-.68359-.09131-1.36523-.1875-2.0542-.26074-.44238-.04736-.88818-.08154-1.33301-.12109-.79639-.0708-1.59473-.13574-2.39795-.18213-.37207-.02148-.74463-.04053-1.11865-.05664-.9668-.04199-1.93799-.06787-2.91357-.07373-.22705-.00146-.4541-.00732-.68164-.00732-2.4624.00635-4.89648.13184-7.29932.36426-.38428.0376-.76562.08496-1.14893.12793-.75781.08496-1.51221.18066-2.26318.2876-.52344.07422-1.04541.15332-1.56543.23828-.56982.09326-1.13623.19824-1.70166.30371-.63135.11768-1.2627.23438-1.88818.36719-.28223.06006-.56006.13086-.84082.19385-1.86963.42188-3.73096.91846-5.58154,1.48242-.23584.07178-.47363.13867-.7085.21289-.68604.21631-1.37061.44287-2.05322.68066-.03271.01172-.06592.02197-.09863.03369-.95117.33203-1.8916.68506-2.8252,1.05322-.08838.03467-.17676.06934-.26465.104-.92676.36963-1.84424.75488-2.75244,1.15869-.0957.04248-.19092.08643-.28613.12891-2.37549,1.06592-4.67236,2.24902-6.89551,3.52832ZM1005.17725,357.10561c.9458-2.37012,1.99951-4.00684,4.57617-4.78076,6.04785-1.81738,16.65918,1.33594,17.3335,8.06738.41553,4.14697-11.41357,47.64209-13.81689,49.50879-5.40186,4.1958-17.35693.08301-17.73145-6.54199-.17529-3.09277,8.09082-42.37305,9.63867-46.25342ZM998.35254,420.59438c6.69189,0,12.1167,5.42236,12.1167,12.11133,0,6.68848-5.4248,12.11133-12.1167,12.11133s-12.11719-5.42285-12.11719-12.11133c0-6.68896,5.42529-12.11133,12.11719-12.11133Z"/>
  <path class="d" d="M1013.27002,409.90102c2.40332-1.8667,14.23242-45.36182,13.81689-49.50879-.67432-6.73145-11.28564-9.88477-17.3335-8.06738-2.57666.77393-3.63037,2.41064-4.57617,4.78076-1.54785,3.88037-9.81396,43.16064-9.63867,46.25342.37451,6.625,12.32959,10.73779,17.73145,6.54199Z"/>
  <path class="d" d="M998.35254,444.81704c6.69189,0,12.1167-5.42285,12.1167-12.11133,0-6.68896-5.4248-12.11133-12.1167-12.11133s-12.11719,5.42236-12.11719,12.11133c0,6.68848,5.42529,12.11133,12.11719,12.11133Z"/>
  <path class="c" d="M320.03467,824.99673c-1.29541.58936-2.62402,1.11475-3.98291,1.57178,1.36035-.45752,2.68896-.98242,3.98291-1.57178Z"/>
  <path class="c" d="M293.11963,827.64467c-1.37451-.32275-2.72949-.71094-4.05713-1.16846,1.32373.45557,2.67676.8457,4.05713,1.16846Z"/>
  <path class="c" d="M287.34961,825.84438c-1.39258-.54883-2.75391-1.17041-4.07715-1.86328,1.31934.69189,2.67969,1.3125,4.07715,1.86328Z"/>
  <path class="c" d="M302.69336,828.75649c.04492,0,.08936-.00342.13477-.00342-.14893.00049-.29736-.00342-.4458-.00439.104.00098.20654.00781.31104.00781Z"/>
  <g>
    <path class="f" d="M553.61133,1121.45278c3.9707-3.32324-34.63867-62.60205-39.1416-68.92627-31.85303-44.7417-79.47461-90.13623-128.61719-115.51611-45.77393-23.63965-117.8418-41.74023-169.62598-40.98926-60.22314.87354-123.86719,29.92969-168.64404,68.9873-8.56738,7.47266-36.53613,33.22705-41.99072,40.93896H0v475.10498l1.86377-1.86328c145.98535-.04004,292.06006.0542,438.04541,0,0,0-33.83008-61.59521-45.19238-82.08008-13.04248-23.51416-52.00732-93.0791-51.43115-94.46338,46.41455-111.49316,190.20166-178.29639,210.32568-181.19287Z"/>
    <path class="e" d="M771.74561,963.98257c-.72461-6.52881-4.96777-16.75928-13.08887-15.79297v-1.86328c22.60115-19.6402,32.88728-54.19946,12.71657-54.69384-3.21343-.07876-6.37768.80471-9.20684,2.33056l-120.45261,64.96386c-14.9873,5.59131-30.78125,13.69482-20.7207-9.53271,8.74609-20.19189,45.44775-53.85986,29.27441-76.38623-.20798-.28967-.4242-.57076-.64815-.84314-5.71438-6.94994-16.48757-6.68954-22.33387.1498l-56.89493,66.55906c-29.40234,37.92822-34.89014,65.09326-51.31885,108.09961-1.10303,2.88818.54736,6.65771-4.60205,5.55322,4.50293,6.32422,43.1123,65.60303,39.1416,68.92627-55.26465,12.95703-171.12646,73.37109-210.32568,181.19287-.51221,1.40918,98.38721,171.52051,96.62354,176.54346,17.02637-.00586,172.64453,4.25537,183.7373-1.73145,4.40381-2.37695,14.42578-20.81787,16.60742-26.25293,35.81689-89.22607,1.27344-195.88037,6.49463-261.80322,5.84912-73.85791,112.24463-100.34766,121.06299-167.77002.6084-4.64844,2.33691-21.67041-5.42676-21.27344v-3.72656c5.43164-11.29883,10.84229-19.29834,9.36084-32.64893Z"/>
    <path class="g" d="M271.76953,815.12075c.84961.92969,1.73779,1.81787,2.6626,2.6626-.92676-.84766-1.81543-1.73584-2.6626-2.6626Z"/>
    <path class="g" d="M279.03418,752.36587c-.03223.02246-.06592.04297-.09863.06543-.146.10059-.28516.20801-.42969.31055.17627-.125.3501-.25342.52832-.37598Z"/>
    <path class="g" d="M260.81787,786.86098c.00049-.70557.01807-1.40723.05322-2.10352-.03613.69971-.05322,1.40088-.05322,2.10352Z"/>
    <path class="g" d="M275.99072,754.65737c-2.05713,1.69971-3.91602,3.57031-5.57471,5.5752,1.67969-2.02832,3.54688-3.89502,5.57471-5.5752Z"/>
    <path class="g" d="M326.88672,752.7355c-.10938-.07715-.22119-.14844-.33057-.22461.24658.17139.49072.34521.73389.52197-.13574-.09814-.2666-.20068-.40332-.29736Z"/>
    <path class="f" d="M744.62261,1012.7089c-4.74177,4.13798-14.76912,12.66874-16.13763,14.77011-2.41409,3.7069,1.30484,7.39338,3.97671,6.6092,5.64746-1.65771,25.6092-21.33333,29.92308-33.73015.31193-.8964.11196-2.37904,0-3.72656-5.30239,4.51419-11.5513,10.6574-17.76216,16.07741Z"/>
    <path class="f" d="M733.44189,968.63344c-4.98486,4.30273-21.78685,17.05873-23.27539,19.5918-2.25654,3.83998,1.23771,8.40625,6.29519,6.41469,12.40108-4.88337,35.77011-30.8046,43.68247-46.50337l-1.48742-1.81025c-6.95654,7.14307-17.37402,15.53906-25.21484,22.30713Z"/>
    <path class="f" d="M264.78271,804.68423c-1.24463-2.646-2.21533-5.44482-2.88623-8.35889-.05322-.23047-.11035-.45947-.15967-.69141-.06885-.32373-.12891-.65039-.19043-.97656-.06543-.34961-.13086-.69873-.1875-1.05127-.04199-.25928-.07959-.51953-.11621-.77979-.06201-.43652-.11914-.87402-.16748-1.31445-.02197-.20068-.04346-.40088-.0625-.60205-.05029-.52881-.09082-1.06055-.12109-1.59473-.00732-.12695-.01709-.25391-.02344-.38135-.03223-.67432-.05127-1.35156-.05127-2.03369,0-.01318.00098-.02588.00098-.03906,0-.70264.01709-1.40381.05322-2.10352.00195-.03662.00586-.07227.00781-.1084.03223-.60449.07959-1.20508.13721-1.80225.02881-.30322.06787-.60352.10303-.90479.0376-.31689.07617-.6333.12061-.94775.05615-.396.12012-.78955.18701-1.18213.03467-.20215.0708-.40381.1084-.60498.08545-.46143.17773-.92041.27881-1.37646.02295-.10254.04736-.20508.07129-.30762.65771-2.87207,1.60791-5.63086,2.82324-8.24365.01904-.0415.03711-.08398.05664-.12549.20068-.42773.41162-.84961.62646-1.26953.08545-.16699.16895-.33496.25684-.50098.18213-.34473.37012-.68555.56201-1.0249.13818-.24512.27783-.48975.4209-.73193.1626-.27441.32764-.54736.49658-.81787.19385-.31201.39209-.62061.59424-.92725.13721-.20703.27344-.41455.41406-.61963.25732-.37451.521-.74414.78955-1.10986.10254-.13965.20312-.28076.30713-.41895.33301-.44141.6748-.87549,1.0249-1.30273.05322-.06543.10449-.13281.1582-.19775,1.65869-2.00488,3.51758-3.87549,5.57471-5.5752.2168-.1792.44092-.34912.66162-.52441.27393-.21826.54639-.43799.82617-.64941.33691-.25439.68262-.49756,1.02734-.7417.14453-.10254.28369-.20996.42969-.31055-29.646-18.50195-33.71924-69.76465.67969-80.896,19.87549-6.43115,28.12012,6.05713,38.05664,4.65381,1.4873-.21045,12.89844-6.46387,14.75488-7.77441,18.23389-12.87305,25.59863-35.78857,23.60986-57.45898,22.60791,5.48926,47.86816-2.02832,62.47559-20.45215,2.98535-3.76514,5.97119-12.5957,6.57178-13.00928,6.96436-4.79346,22.06738,22.64111,26.00342,25.11035,9.1875,5.76514,22.43359-16.70117,23.79248-24.69238,4.85107-28.53271-13.37207-45.04053-40.38184-47.24463.29541-45.62988-46.26367-70.31543-86.58789-51.72363-4.93457,2.2749-17.47314,12.12793-19.2417,12.38232-1.61182.23193-23.57812-8.35205-31.29102-8.99414-49.01221-4.08008-87.48193,29.25635-97.81543,75.6377-13.18311,1.75781-30.3291.27295-42.98438,4.54639-39.85791,13.45947-72.30762,65.90918-51.36328,106.30225,2.04834,3.95117,9.56348,11.44775,9.96143,14.2002.40918,2.82764-5.75244,12.10352-7.13379,16.36816-11.11768,34.3208,1.01123,72.48535,37.72314,83.54248,4.69238,1.41309,20.94971,2.66455,21.80518,3.36084.70703.57617,3.53223,12.70703,6.10742,17.18066,11.21533,19.48584,35.57568,28.78516,57.46094,25.47656,13.51562-2.04297,24.88721-14.90527,33.64404-24.26318Z"/>
    <path class="c" d="M260.81689,786.90005c0,.68213.01904,1.35938.05127,2.03369-.0332-.69141-.05029-1.38281-.05029-2.07275,0,.01318-.00098.02588-.00098.03906Z"/>
    <path class="c" d="M316.15967,747.26821c.67529.22852,1.3457.47559,2.01123.74023-.66211-.26367-1.33301-.51025-2.01123-.74023Z"/>
    <path class="c" d="M314.11572,746.63247c.68896.19482,1.37012.40674,2.04395.63574-.67676-.22998-1.3584-.44141-2.04395-.63574Z"/>
    <path class="c" d="M342.77441,798.96157c-.0752.24951-.146.50146-.22607.74902.07959-.24805.15088-.49902.22607-.74902Z"/>
    <path class="c" d="M342.54834,799.71059c-.28613.89111-.59326,1.77295-.93652,2.63721.34229-.86328.64893-1.74561.93652-2.63721Z"/>
    <path class="c" d="M343.11426,797.83706c.125-.45996.2373-.92139.3457-1.38281-.19824.84814-.43652,1.68018-.68555,2.50732.11328-.375.2373-.74463.33984-1.12451Z"/>
    <path class="c" d="M264.78271,804.68423c.20264.43066.41602.85449.63232,1.27686-.21582-.42188-.42822-.84668-.63086-1.27832l-.00146.00146Z"/>
    <path class="c" d="M344.56934,786.90005c0-.0127-.00098-.02539-.00098-.03809,0,.05273-.00195.10596-.00195.15869,0-.04053.00293-.08008.00293-.12061Z"/>
    <path class="c" d="M338.99805,766.04995c.68066,1.18457,1.30566,2.39844,1.86572,3.64062-.56396-1.24756-1.18652-2.46191-1.86572-3.64062Z"/>
    <path class="c" d="M341.54834,771.29116c.56885,1.41455,1.05859,2.86035,1.47021,4.3291-.41309-1.47754-.90381-2.92188-1.47021-4.3291Z"/>
    <path class="c" d="M283.30078,749.80385c.65137-.34033,1.30957-.66211,1.97363-.96582-.66748.30469-1.32568.62695-1.97363.96582Z"/>
    <path class="c" d="M285.27441,748.83803c.66357-.30322,1.33643-.59033,2.01807-.85986-.67822.26807-1.35156.55469-2.01807.85986Z"/>
    <path class="c" d="M289.21875,747.27065c1.31445-.44678,2.64648-.82422,3.99072-1.13623-1.35693.31396-2.68799.69336-3.99072,1.13623Z"/>
    <path class="c" d="M302.69336,745.04311c-.1084,0-.21436.00732-.32227.0083.14404-.00146.28809-.00586.43213-.00537-.03662-.00049-.07324-.00293-.10986-.00293Z"/>
    <path class="c" d="M261.89648,796.32534c.6709,2.91406,1.6416,5.71289,2.88623,8.35889l.00146-.00146c-1.27881-2.72314-2.23145-5.52441-2.8877-8.35742Z"/>
    <path class="e" d="M302.75391,812.68569c14.2002,0,25.71191-11.50635,25.71191-25.7002s-11.51172-25.7002-25.71191-25.7002-25.7124,11.50635-25.7124,25.7002,11.51172,25.7002,25.7124,25.7002Z"/>
  </g>
  <path class="e" d="M521.94189,708.60268c.30811-6.68018-11.72656-16.97803-14.92773-23.09961l-55.92676-82.89844c-3.93604-2.46924-19.03906-29.90381-26.00342-25.11035-.60059.41357-3.58643,9.24414-6.57178,13.00928-14.60742,18.42383-39.86768,25.94141-62.47559,20.45215,1.98877,21.67041-5.37598,44.58594-23.60986,57.45898-1.85645,1.31055-13.26758,7.56396-14.75488,7.77441-9.93652,1.40332-18.18115-11.08496-38.05664-4.65381-34.39893,11.13135-30.32568,62.39404-.67969,80.896.03271-.02246.06641-.04297.09863-.06543.29004-.19873.58545-.38965.88086-.58105l-15.13232,52.89941c-8.75684,9.35791-20.12842,22.22021-33.64404,24.26318l-14.91211,67.07373c51.78418-.75098,123.85205,17.34961,169.62598,40.98926l16.96826-85.50879c33.83398-1.61621,68.09717-11.17529,83.41797-44.25098,11.7793-25.4292,10.86328-52.59717,5.99951-79.57373,1.91504-5.93799,29.07129-5.34473,29.70361-19.07422Z"/>
  <path class="f" d="M706.34728,550.09877l-12.95022,36.04345c-.16767.46897.40045-1.67177.0004.00117,0,0-1.00733-2.90153-1.9285-6.35567-4.23228-15.86876-13.58965-31.25095-28.87274-38.89774-10.7765-5.39254-12.79808-3.63975-14.43256,8.30977-2.16846,15.85932,7.82398,34.57054,19.39167,44.75683,3.80943,3.35427,18.11469,11.33854,18.49596,12.38388.6465,1.77163-3.23212,9.21685-2.72442,14.72996.3647,3.96031,8.08884,5.94307,10.3647,2.70169,1.54714-2.20351,3.05841-12.10975,4.92443-13.03477,1.01914-.50524,17.1488,3.10293,22.55882,3.00291,38.71119-.71728,76.14066-48.89068,16.98974-38.01803-6.64977,1.22227-12.74431,3.56607-18.67032,6.75833l-14.66002,10.60808,14.11486-39.47845c10.5952,5.07572,13.1448,5.08195,21.33271,5.0298,20.51949-.13022,46.47166-14.36466,50.96144-35.57516-12.73383-6.14991-25.80387-5.25355-38.57098-1.57732-5.79544,1.66877-11.20334,4.46842-16.04778,8.06055l-12.34519,9.15389,12.8586-35.96476c14.51413-.26795,28.89664,2.03676,43.17509-4.27413,6.94533-3.06998,34.4016-27.54727,30.53953-33.57026-3.71179-5.78862-39.16105.57047-48.28497,5.33347-6.88422,3.59379-11.25254,9.63756-18.19859,12.34119,1.2825-15.69901,15.35269-21.02133,21.52229-33.03573,8.09372-15.76008,11.25511-34.59816,3.31637-50.97642-20.22365,5.14046-32.02644,29.0831-32.76951,49.11975-.41911,11.30444,4.94218,19.72962-2.63515,31.11418-3.76552-7.03481-3.84296-16.1527-7.33208-23.48486-6.34849-13.33932-18.78377-25.22967-33.39531-28.67774-10.41029,26.91244,6.78879,58.76006,32.71663,69.08589l-11.60417,32.45619c-.13496.37748-1.77229,5.32177-1.77229,5.32177-.21158-.42204-.5464-7.10647-1.63828-10.99397-3.25569-11.59209-10.21605-23.83356-19.54871-31.57332-21.41303-17.75829-27.09388-9.46191-22.61166,15.06839,3.35392,18.35593,19.23427,39.19406,37.73022,44.10716Z"/>
  <g>
    <circle class="c" cx="295.58813" cy="781.85832" r="41.37931"/>
    <circle class="e" cx="295.58813" cy="781.85832" r="20.57302"/>
  </g>
  <g>
    <path class="h" d="M434.70087,705.37697c17.85277-5.03588,19.37002-50.96692-1.9248-53.10693-18.12309-1.82127-39.1333-1.18994-50.83643,13.479-9.06396,11.36035-10.26123,19.28271.2041,29.60693,12.72021,12.54785,35.76586,14.75745,52.55713,10.021Z"/>
    <ellipse class="f" cx="439.2433" cy="678.68591" rx="15.65517" ry="24.62069"/>
  </g>
  <path class="f" d="M933.8249,916.33048l-28.383,34.7953,42.58358-6.44208c.57807,14.12867.27752,28.81688,3.21523,42.56504l28.37532-37.38883,31.61677,42.55455,2.58773-55.46979,46.45609,5.15224-29.53857-34.17734,41.15086-30.29023-49.02921-2.5999,16.76528-46.42182-41.92911,28.34573-16.13946-45.12262c-2.92442-.52545-2.05273.15505-2.8718,1.646-3.53657,6.43721-13.25886,44.62077-15.19698,46.08063l-41.26528-25.79003,15.48087,50.29208c-11.33758,2.60065-22.90849,5.51365-33.89402,9.3326-1.25445.43631-9.81067,2.25984-7.39485,4.84251l37.41055,18.09594Z"/>
  <g>
    <path class="h" d="M917.15139,661.71151c16.93468,9.7991,31.1989,5.62096,49.4533,8.36347l44.39719,39.0161,2.72105.16735.82966-40.46252h57.40643c14.56283,0,31.96347-10.95949,40.40666-22.36133,23.57062-31.83019,14.07675-83.02989-22.01505-99.26315-5.32746-2.39617-11.13817-3.50626-16.97923-3.5803-41.26795-.52309-85.32426-3.52263-126.17683-1.17055-61.84075,3.5603-81.48629,89.52394-30.04318,119.29093ZM1055.62803,592.19934c23.41551-4.30041,22.22647,32.92115.17334,28.33544-14.75355-3.06785-14.00025-25.79624-.17334-28.33544ZM1001.11251,592.1991c22.59089-4.14577,22.69806,31.17121,1.5428,28.63776-15.80642-1.89283-16.33735-25.92259-1.5428-28.63776ZM949.47352,592.12621c9.40582-1.18701,17.31638,6.71985,16.13106,16.12234-.80755,6.4058-5.98093,11.57709-12.38662,12.38549-9.40582,1.18701-17.31638-6.71985-16.13106-16.12234.80755-6.4058,5.98093-11.57709,12.38662-12.38549Z"/>
    <path class="c" d="M949.47352,620.63404c9.40582,1.18701,17.31638-6.71985,16.13106-16.12234-.80755-6.4058-5.98093-11.57709-12.38662-12.38549-9.40582-1.18701-17.31638,6.71985-16.13106,16.12234.80755,6.4058,5.98093,11.57709,12.38662,12.38549Z"/>
    <path class="c" d="M1002.65531,620.83686c21.15526,2.53345,21.04809-32.78354-1.5428-28.63776-14.79455,2.71518-14.26362,26.74493,1.5428,28.63776Z"/>
    <path class="c" d="M1055.80137,620.53478c22.05313,4.58572,23.24217-32.63585-.17334-28.33544-13.82691,2.5392-14.58021,25.26759.17334,28.33544Z"/>
  </g>
  <g>
    <path class="c" d="M510.76386,383.18126c-21.71526,12.56533-40.00619,7.20773-63.4137,10.72443l-56.93028,50.03014-3.48919.21459-1.06387-51.88487h-73.61196c-18.67384,0-40.98659-14.0533-51.81324-28.67381-30.22448-40.81568-18.05054-106.46879,28.22978-127.28461,6.83138-3.0726,14.28241-4.49606,21.77237-4.591,52.91767-.67075,109.41084-4.51705,161.79587-1.50099,79.29806,4.56535,104.48944,114.79607,38.52422,152.96613ZM333.196,294.04617c-30.02558-5.5144-28.50088,42.21462-.22227,36.33438,18.9184-3.93389,17.95245-33.07838.22227-36.33438ZM403.10096,294.04586c-28.96817-5.3161-29.1056,39.97068-1.97832,36.72205,20.26848-2.42717,20.94929-33.24039,1.97832-36.72205ZM469.31736,293.95239c-12.06103-1.5221-22.20471,8.61683-20.68477,20.6736,1.03551,8.21412,7.66932,14.84524,15.8833,15.88185,12.06103,1.5221,22.20471-8.61683,20.68477-20.6736-1.03551-8.21412-7.66932-14.84524-15.8833-15.88185Z"/>
    <path class="h" d="M469.31736,330.50783c-12.06103,1.5221-22.20471-8.61683-20.68477-20.6736,1.03551-8.21412,7.66932-14.84524,15.8833-15.88185,12.06103-1.5221,22.20471,8.61683,20.68477,20.6736-1.03551,8.21412-7.66932,14.84524-15.8833,15.88185Z"/>
    <path class="h" d="M401.12264,330.76791c-27.12728,3.24863-26.98985-42.03815,1.97832-36.72205,18.97097,3.48166,18.29016,34.29488-1.97832,36.72205Z"/>
    <path class="h" d="M332.97373,330.38055c-28.27861,5.88024-29.80331-41.84878.22227-36.33438,17.73018,3.256,18.69613,32.40049-.22227,36.33438Z"/>
  </g>
  <g>
    <rect class="f" x="1005.05976" y="1131.58418" width="91.40313" height="25.65519" rx="12.82757" ry="12.82757" transform="translate(483.1561 -301.8254) rotate(21.12859)"/>
    <rect class="f" x="958.32763" y="1177.98492" width="91.40313" height="25.65519" rx="12.82757" ry="12.82757" transform="translate(1301.04073 -338.20456) rotate(51.12859)"/>
  </g>
  <g>
    <rect class="f" x="983.44182" y="234.30926" width="91.40313" height="25.65519" rx="12.82757" ry="12.82757" transform="translate(-27.26611 182.2391) rotate(-9.98783)"/>
    <rect class="f" x="953.77182" y="155.73945" width="118.90725" height="25.65519" rx="12.82757" ry="12.82757" transform="translate(168.39257 752.77426) rotate(-44.1097)"/>
  </g>
  <circle class="e" cx="883.20841" cy="79.80613" r="43.47998"/>
</svg>