<?xml version="1.0" encoding="UTF-8"?>
<svg id="a" data-name="Layer 1" xmlns="http://www.w3.org/2000/svg" viewBox="0 0 312.22892 352.23669">
  <defs>
    <style>
      .b {
        fill: #e5e1d5;
      }

      .c {
        fill: #1e1e1e;
      }
    </style>
  </defs>
  <path class="c" d="M309.17929,193.09606c6.90039-42.55493,2.70654-112.36157-18.93311-150.50073C274.02353,14.00378,242.8165-4.55945,209.54306,2.55895c-1.54004.32935-2.31641.82886-3.24902,1.08252-5.07324,1.37988-7.14648,2.0752-11.91309,4.33032-.75488.35718-1.43018.70215-2.16602,1.08276-10.69434,5.52832-21.13623,15.84155-33.15088,17.20117-22.17334,2.50903-45.11035-16.21069-66.48779-22.07007C62.2789-4.11854,21.02604-2.56734,11.42643,32.20365c-.2168.78516-7.44828,8.82759-10.94538,125.66536-1.05024,35.08842-.07764,70.10596.08545,105.01196.13916,29.74634-1.08154,59.81421,1.05322,89.35571,2.38184-2.10156,5.19141-3.8645,7.58154-5.9397,5.23145-4.54224,36.66406-42.34741,37.8916-43.85864,9.17529-11.29346,22.55127-29.60107,37.94482-15.7373,2.1416,1.92871,3.33252,4.79395,5.93945,7.05371,26.51562,22.98218,48.53613-17.26123,69.04199-30.53711,30.39355-19.67749,44.10986-9.31396,75.31641-4.43506,38.77637,6.0625,60.90479-19.36182,70.59473-53.77783l1.08301-1.08252c.23047-.90186-.21191-2.30029,0-3.24805.54395-2.43164,1.73291-4.90723,2.16602-7.57812Z"/>
  <g>
    <path class="b" d="M307.35535,204.95871l1.083-1.0826c-.2062.80591-1.06225,1.00891-1.083,1.0826Z"/>
    <path class="b" d="M245.13223,65.42218c.74649,0,1.28738.71875,1.08701,1.43784-6.33611,22.73842-11.85799,35.48603-21.8337,57.18924-.94291,2.05141-5.28094,10.68313-10.61071,12.74061-5.00243,1.93112-13.95223,2.20334-14.71621-.12645-.37957-1.15752-.38192-11.27892-.03311-11.64259.45695-.47643,9.08251-.53953,11.81911-2.79586,2.41084-1.98775,5.64655-11.88807,5.5478-15.12766-.27228-8.93201-17.08659-29.01294-19.46953-39.95777-.07158-.32877.19072-.63477.5272-.63477h14.91937c.95028,0,1.79973.58818,2.13481,1.47742,1.65876,4.40201,6.66896,17.23933,9.35755,19.09065,1.18233-2.32058,5.3797-21.65067,6.5105-21.65067h14.75992Z"/>
    <path class="b" d="M274.18088,148.78221c.29499,0,.50667.28595.41986.56787-4.86775,15.80797-10.3649,31.54079-16.96514,46.71334-1.14894,2.64118-3.90951,8.81997-6.24359,14.02893-2.43568,5.43571-7.68218,9.07903-13.62683,9.45402-4.51809.285-8.97691.2192-9.40608-1.08951-.38074-1.16103-.43896-9.71051-.08946-10.07333.7024-.72918,11.0444-.65592,12.66856-2.49754,1.41419-1.60354,4.8398-12.87458,4.70963-15.44953-.48181-9.5311-16.84444-27.42101-19.34901-38.98234-.17778-.82066.47045-1.58931,1.31015-1.58931h14.28263c.76572,0,1.44893.47222,1.71361,1.19074,1.41182,3.83259,5.97814,15.7327,9.05645,18.02851.22599.16854.55187.08074.65751-.18063,1.22664-3.03485,4.24182-15.92501,5.02358-19.30631.11049-.4779.53597-.8149,1.02647-.8149h14.81166Z"/>
    <path class="b" d="M223.87431,150.94741v17.32157c-4.15097-.70869-9.25248-3.27222-12.36771-.99593-7.23433,5.28609,12.02328,13.82141,12.96606,19.3415,3.57179,20.91331-17.7435,20.97478-30.92235,16.29757v-17.32157c2.05897,2.02765,11.66415,3.45583,13.10849,1.51666,2.79471-7.39465-8.16095-10.06644-11.43624-15.63899-5.07076-8.62732,1.28604-20.5208,10.78226-20.5208h17.86951Z"/>
    <path class="b" d="M193.5503,66.50478v17.32157c-3.68904-.72284-12.7743-3.04998-12.96298,2.68084-.20329,6.1747,16.77761,10.54593,14.89027,23.56191-2.44687,16.87474-31.1683,11.2742-31.1683,7.85909v-15.69767c3.49964,1.5271,12.77541,4.51028,13.96606-.76059,1.51954-6.72687-20.26981-12.60684-13.10615-27.07773,2.02139-4.0833,8.27428-7.8874,12.67759-7.8874h15.7035Z"/>
    <path class="b" d="M41.68144,161.77339c5.20495-.22491,10.25355.01062,13.86012.01062.64296,0,.29697,2.55189.76502,2.19213,2.70232-2.07708,7.32614-5.1031,15.9444-4.09542,29.49486,3.44864,16.29224,55.92441-13.24154,46.27919v22.60743c0,.66811-.54161,1.20972-1.20972,1.20972h-14.80439c-.72264,0-1.31389-.59125-1.31389-1.31389v-66.88978ZM59.01467,191.00595c12.09532,1.63733,22.03169-17.55318,7.4874-17.19052-7.86946.19623-7.49949,11.98021-7.4874,17.19052Z"/>
    <path class="b" d="M187.05701,206.16459s-17.52713,4.34941-15.17951-4.33512c-18.12786,15.75507-41.33196-12.11349-19.14817-24.0255,2.89091-1.55233,16.86236-4.96214,17.06129-5.8413,1.92297-8.49821-14.46533-6.00255-19.79921-2.21968-.34508.24474-.81633-.02334-.81502-.4464.02803-9.01505-2.48002-13.83545,7.77846-17.58236,9.61187-3.51073,20.10513-.45411,28.00681,5.55843.97356.7408,1.56088,1.88237,1.57478,3.10565l.52056,45.78628ZM164.05013,180.39401c-8.32984.65979-6.77678,12.15999,1.82922,10.62036,6.53568-1.16925,6.36231-11.2692-1.82922-10.62036Z"/>
    <path class="b" d="M157.81129,120.63467h-16.245c-.2166,0,.16488-3.62042-.01161-4.33028-9.65069,9.72837-26.42472,3.39606-27.10957-10.32741-.84213-16.87505,24.96152-15.84994,25.95783-19.54743,1.74195-6.46473-10.82786-5.24093-18.39423-2.40822-1.09277.40911-2.27723-.27595-2.4759-1.42576-.9328-5.39863-1.85406-11.81706,6.2834-15.05509,10.32884-4.11002,22.02302-1.25935,29.86173,6.43044.55246.54196.85465,1.29125.87645,2.06485l1.25691,44.59891ZM133.56965,96.04784c-5.45746.62006-6.92218,7.68666-1.72236,9.95165,8.74835,3.81069,13.39255-11.27758,1.72236-9.95165Z"/>
    <path class="b" d="M108.24659,98.38744c-.12079.95481-.92734,1.67787-1.88975,1.67787h-23.81407c-5.36231,0-1.87541,8.26537,2.39342,9.51317,5.09628,1.48967,11.97527-.51004,17.34752-1.65394.74731-.15912,1.4784.33069,1.61963,1.08159,1.65633,8.80631,2.62382,10.94726-6.95714,13.03578-38.68068,8.43186-47.23454-35.48635-22.58118-48.55543,19.79282-10.49244,36.47983,4.36201,33.88158,24.90095ZM86.07991,85.10951c-3.8182.48446-9.22488,5.09367-5.19571,7.99535,1.40899,1.01471,13.47711-1.09647,14.07097-2.90695.77591-3.95433-4.04598-5.70115-8.87526-5.0884Z"/>
    <path class="b" d="M117.11584,183.42535c-5.11967.73971-8.19624,3.8915-3.76901,8.10152,3.62223,3.44452,15.1607,1.10351,19.75524.55937,1.05366-.12479,2.01769.63952,2.12583,1.69501,1.24,12.10331-9.8982,13.54691-20.28038,12.37606-23.90285-2.69565-25.72774-41.19762-5.9413-48.16012,18.57011-6.53449,32.9049,5.08065,30.50371,24.10297-.10078.7984-.78228,1.38893-1.58565,1.43568-6.65458.38725-14.57421-1.01125-20.80844-.1105ZM118.522,168.49009c-8.53752.66048-12.64033,8.09014-2.76457,8.21197,13.68056.16877,13.80679-9.06622,2.76457-8.21197Z"/>
  </g>
</svg>