<?xml version="1.0" encoding="UTF-8"?>
<svg id="a" data-name="Layer 1" xmlns="http://www.w3.org/2000/svg" viewBox="0 0 503.54039 501.69868">
  <defs>
    <style>
      .c {
        fill: #0b3d9f;
      }

      .d {
        fill: #1e1e1e;
      }

      .e {
        fill: #f5f5f6;
      }

      .f {
        fill: #cf2e2c;
      }
    </style>
  </defs>
  <g>
    <path class="f" d="M447.37839,138.64774c-1.51831-1.72522-8.80078-9.42932-10.85986-8.82861-1.19409.71411-1.14307,1.84412-1.09448,3.03137.17749,4.34277,3.53735,11.05933,4.03174,16.44141,1.8623,20.2688-3.2085,40.2019-18.60669,54.02649-9.36743,8.41016-16.5166,12.76685-14.56372-4.35632,1.83008-16.04639,9.41016-27.95093,8.75513-45.66846-.91943-24.87524-18.89355-41.51599-12.43359-66.88281,2.13428-8.3811,6.97144-15.88782,8.98755-24.35474,3.86548-16.23389,1.4043-30.41431-8.24097-44.05273-2.68188-3.79224-11.32861-13.44666-15.88135-13.45996-4.62451-.01367.12769,9.17981.73218,12.27832,7.6228,39.06787-31.19141,53.70801-33.74146,86.76831-1.83789,23.83105,7.92456,38.19067-8.54102,60.86499-1.67651,2.30835-9.06152,11.52002-12.20605,8.2417-2.18433-2.27734-4.09741-18.73022-5.27954-23.29883-4.37402-16.9043-12.02295-23.99768-9.82471-43.55396,1.07935-9.60181,6.94897-19.40405,7.89429-28.8501,1.73657-17.35291-4.95264-34.35596-17.56299-46.21387-1.4751-1.38721-9.68701-8.84814-10.83984-5.30737-.79443,2.44019,2.60107,11.54932,3.12427,15.04431,5.87524,39.24402-27.72412,49.08167-34.31812,80.98938-2.61475,12.65332-.12134,26.34875-6.89307,38.01697-1.8291,3.15186-2.78223,5.30371-6.23682,1.92932-3.37549-3.29712-17.99854-31.30811-19.40625-36.38977-5.15479-18.60645,3.39868-36.23889-.64185-55.15515-1.79517-8.40466-6.4624-16.9137-11.95239-23.43091-4.00439-4.75342-11.27417-12.94043-17.67358-12.61108,1.29077,8.83008,4.02222,16.21729,3.39575,25.51025-1.5083,22.37805-18.97925,35.74512-21.68286,57.24976-1.89136,15.04517,5.36279,40.73633-2.89941,53.57458-3.27905,5.09509-10.354-5.00525-12.41968-7.80115-16.8269-22.77734-4.38721-40.96082-9.57617-65.27344-6.82373-31.97217-40.61621-39.927-37.021-77.7998.32422-3.4137,5.31128-17.5968,4.59912-18.71753-1.48975-2.34497-8.31787,2.7605-9.80615,3.98425-12.56885,10.33655-21.04883,29.65674-20.04907,45.93738,1.5,24.42578,20.77661,39.00342,19.03369,63.27966-1.19141,16.59216-11.59302,30.35864-12.90698,46.97327-1.09229,13.81006,3.12476,22.84717,4.06299,35.38123.18774,2.50696.54785,11.95715-1.48486,13.10999-2.10938,1.19629-2.41724-.78137-3.1355-1.13672-23.4917-11.62183-30.37134-44.9187-23.46094-68.65088.88354-3.03369,9.29028-18.78101,1.32446-15.00391-20.96411,9.94031-37.22998,45.92627-37.26001,68.27051-.03638,26.90332,9.27002,38.43201,18.55469,61.12146,5.36084,13.10071,7.07593,27.92395,5.32422,41.96704l366.76318.68042c-1.25366-10.24146-.58813-20.03552,2.38428-29.93713,5.01416-16.70349,17.91772-29.81763,24.16553-46.60144,10.68286-28.69751,5.60181-58.34351-14.63208-81.33569Z"/>
    <path class="d" d="M250.05246,222.3383c-8.90698-16.56299-32.79175-60.34851-34.36938-59.18286l-20.42163,72.12598c18.35938-3.32043,39.23877-5.96033,57.83838-6.12402-.65283-2.3783-1.88599-4.65942-3.04736-6.81909Z"/>
    <path class="d" d="M378.05661,184.34416s-35.46509,36.00427-52.8291,54.3396c14.83887,4.20398,37.85449,13.42773,51.71436,20.41345.37012-8.25452,1.11475-74.75305,1.11475-74.75305Z"/>
    <path class="d" d="M302.42234,164.51786c-1.35645-.2865-27.01636,40.90393-36.94214,58.30774-1.12427,1.97095-2.29517,4.11707-2.854,6.33179,17.07397.81201,39.85913,4.10303,56.47729,8.16541l-16.68115-72.80493Z"/>
    <path class="d" d="M135.38181,255.69499c14.75537-6.80603,36.86035-15.13501,52.39478-19.05273-3.98047-5.9707-46.95288-52.73291-46.95288-52.73291,0,0-4.83472,52.2356-5.44189,71.78564Z"/>
  </g>
  <g>
    <path class="c" d="M503.52911,364.64057c-.12488-1.52515-12.57556-16.44763-14.64343-18.7749-14.95459-16.83032-53.35278-50.29089-53.42505-50.34375-16.47205-12.05066-40.41895-28.302-58.51868-37.4248-13.85974-6.9856-36.87549-16.20947-51.71423-20.41357-1.70435-.48279-4.17017-.88306-6.12427-1.36084-16.61816-4.06226-39.40332-7.35339-56.47729-8.16541-3.13696-.14917-6.3811-.02771-9.52637,0-18.59961.1637-39.479,2.80359-57.83838,6.12415-2.47583.44775-5.04175.74463-7.48486,1.36084-15.53442,3.9176-37.6394,12.24658-52.39478,19.05261-19.78589,9.12634-49.39673,27.17786-66.68408,40.14661-15.84863,11.88916-37.75391,32.30713-51.38379,46.94165C14.8161,344.46516.06293,361.23603.00043,363.22212c-.11963,3.80103,24.86621,29.21375,29.22144,33.35645,56.30005,53.54907,127.88623,97.98401,207.21362,103.75269,4.00098.29089,9.41748-1.15967,12.58154,1.36743,1.98071-1.93359,4.31006-1.29248,6.80469-1.36084,76.63293-2.10388,129.09265-27.19995,187.44531-74.86853,16.82129-13.74133,35.34717-30.672,49.70142-46.92273,1.86719-2.11377,9.41284-10.55029,10.19189-12.28833.26343-.5874.42542-.92639.36877-1.61768Z"/>
    <path class="e" d="M421.86957,355.72395c-36.67163-39.90613-92.47095-72.78528-146.75146-79.83875-64.63965-8.39954-130.4729,18.60156-177.51929,61.80676-3.25684,2.99084-23.36377,23.03015-23.44653,25.51599-.0603,1.80542,9.89038,12.5791,11.88721,14.65808,42.24805,43.98669,111.3623,79.88647,173.55273,77.58997,58.75122-2.16943,120.01904-35.17944,159.09546-78.04321.43335-.47534,1.27673-.67908,1.7832-1.24683,1.34766-1.51135,8.16455-9.51514,8.53955-10.59741.6106-1.7627-5.62451-8.1947-7.14087-9.8446Z"/>
    <path class="d" d="M214.9946,301.64609c-.19775.146-.70581.09009-1.36084.68042-35.61377,22.18481-44.98511,73.8374-20.28809,107.72583,44.88379,61.58765,136.03271,24.10254,131.22998-50.25623-3.31885-51.38513-65.54346-90.69104-109.58105-58.15002Z"/>
  </g>
</svg>