<?xml version="1.0" encoding="UTF-8"?>
<svg id="b" data-name="Layer 2" xmlns="http://www.w3.org/2000/svg" viewBox="0 0 914.54822 1224.20605">
  <defs>
    <style>
      .c {
        fill: #e9b22b;
      }

      .d {
        fill: #0b3d9f;
      }

      .e {
        fill: #e27aad;
      }

      .f {
        fill: #fff;
      }

      .g {
        fill: #e5e1d5;
      }

      .h {
        fill: #1e1e1e;
      }

      .i {
        fill: #cf2e2c;
      }
    </style>
  </defs>
  <g>
    <path class="c" d="M909.0954,826.77051c-.92401-47.70947-20.42706-90.76294-51.51727-122.33008-1.63623-1.66138-3.30042-3.29492-4.99988-4.8916-.01001-.00952-.01978-.01904-.02985-.02856-1.62659-1.52759-3.2876-3.01831-4.97028-4.48486-.03723-.03247-.07452-.06494-.11176-.09741-31.51361-27.42017-72.67114-44.00488-117.64673-44.00488h-93.54968c-.52625.18262-1.07941.27881-1.63812.27881-.40869,0-.81982-.0498-1.22412-.15234-.15851-.04004-.31012-.08594-.4682-.12646h-1.94281c-67.8476,85.15283-199.78955,75.40015-199.78955,75.40015l-12.34937-139.7041c-15.46265,3.74341-31.43469,5.37915-46.20935,5.37964-11.12445.00049-21.56335-.91772-30.59528-2.53394v51.73706h8.22711c20.6084,0,37.375,16.42676,37.375,36.61719v318.62817c45.36676-3.27051,77.82013,27.68652,125.46558,13.24536,12.41492-3.76294,27.93848-12.88696,34.91595-24.03564,4.94586,2.03613,9.57507,5.15015,13.87097,6.93555-11.22498,22.98486-37.1889,41.05273-61.4328,48.04883-21.70404,6.26294-43.69623,5.11426-65.5946,10.69556-18.37152,4.68262-34.12726,13.20459-47.2251,25.06177v31.90576h212.82898c26.77197-20.02588,58.39502-34.79883,92.38831-42.70825,4.04376-.94043,18.53851-4.31885,21.61603-3.64893l10.6759-22.51538c1.60425-4.2832,3.29431-8.69971,4.19507-13.15283h.00012c.37866-1.87305.88434-5.09937.98114-5.94507h.00031c.9101-7.91943-.90649-19.69946-4.23096-26.97852-1.90161-4.16382-5.59711-7.23291-6.66772-11.66162,17.1344-9.83325,34.22034-19.15063,48.90503-32.62085,4.48212,4.12451,8.94012,10.34766,12.77704,17.47363-3.83691-7.12598-8.29492-13.34937-12.77704-17.47388-14.68475,13.47021-31.77057,22.7876-48.90521,32.62061-10.62073,6.09521-21.78455,11.4209-32.37097,17.66357-37.90295,22.35254-112.68457,79.10889-156.28906,73.40479-6.5-.85059-17.55933-6.74463-17.50415-14.30664.05176-7.08057,8.11755-4.86621,12.34814-5.54297,30.63135-4.89941,51.76721-25.39404,69.96021-48.93896.31763-2.04199-.25513-1.1875-1.34399-1.58643-4.11548-1.50879-10.45557-2.05859-15.25757-3.58789-5.34277-1.70215-11.92603-4.06592-17.07703-6.20654-4.29602-1.78516-8.92517-4.89941-13.87097-6.93555-23.60205-9.71631-34.08093-12.43262-59.90161-11.84863-14.29248.32373-25.03662-4.12305-25.33691-20.40381-.1391-7.54932,1.7077-15.61743,4.96307-23.82935.65881-1.66187,1.37256-3.3291,2.14252-4.99976.7674-1.66504,1.58716-3.33276,2.45569-5.00024,14.46075-27.76367,42.29242-55.44971,62.07568-68.89087,67.92419-46.14746,160.02002-53.18555,233.55536-17.60791l-1.79639,20.18994,1.79657-20.18994c22.75348,11.00854,41.078,22.28882,59.9425,39.63989,1.28571,1.18262,4.3045,3.04346,4.4585,4.94531,2.04279,1.43262,4.20648,5.45459,5.94836,7.427,3.34363,3.78613,6.40961,7.59497,9.23792,11.44312,1.75983,2.39453,3.4245,4.80518,5.00012,7.23608,1.77618,2.74023,3.44202,5.5061,4.99988,8.30493,10.14545,18.22827,15.8429,37.84302,19.39893,60.70361l.00006.00024c.17188,1.10547.78778,2.33643.9906,3.96338l-20.38959,19.82202-4.99988,4.86084,4.99988-4.8606,20.38977-19.82227c.76569,6.14014.85114,10.61523.99078,16.84326h.00012c.6156,27.4541-5.10492,72.40552-16.15399,102.34448-.35645.96582-.71838,1.91577-1.08588,2.84937-1.3111,3.33008-2.69147,6.448-4.14081,9.30542-.03717.07324-.07373.14917-.11102.22217h57.08112l-5.45282-281.54395Z"/>
    <path class="c" d="M760.6427,1072.93481c.58734-.07007,1.17517-.13916,1.75775-.21973.20605-.02856.43018-.05933.64801-.08911-.21777.02979-.44183.06055-.64783.08887-.58264.08081-1.17053.1499-1.75793.21997Z"/>
    <path class="c" d="M775.5744,1027.04272c-.38086.13257-.76288.26196-1.14526.38989.38239-.12793.7644-.25732,1.14526-.38989Z"/>
    <path class="c" d="M774.42914,1027.43262c-.90094.30176-1.80688.58984-2.72021.85938.91333-.26953,1.81921-.55762,2.72021-.85938Z"/>
    <path class="c" d="M790.43579,1021.73535c-5.14404,1.55908-9.95062,3.59888-14.86139,5.30737,4.91077-1.70825,9.71735-3.74829,14.86139-5.30737Z"/>
    <path class="c" d="M788.79492,1039.27197c1.32672-5.91309,2.1972-11.93335,2.96979-17.93188h-.00018c-.77246,5.99854-1.64301,12.01904-2.9696,17.93188Z"/>
    <path class="c" d="M771.70892,1028.29199c-.75751.22363-1.51849.43896-2.28796.63403.76947-.19507,1.53046-.4104,2.28796-.63403Z"/>
    <path class="c" d="M735.03137,1027.69849c8.82935,2.08228,16.71191,3.26147,26.50989,2.54419,2.7373-.20044,5.34521-.67358,7.8797-1.31665-2.53442.64282-5.14221,1.11597-7.87939,1.31641-9.7981.71753-17.68091-.46191-26.51019-2.54395Z"/>
    <path class="c" d="M790.43579,1021.73535c.44147-.13379.88196-.26904,1.32874-.39526h0c-.44678.12622-.88727.26147-1.32874.39526Z"/>
    <path class="c" d="M439.04547,1027.29004c-17.35718-4.22607-33.36005-9.65576-51.3902-9.0813v33.84155c12.52234-10.27246,28.17554-17.15674,45.6568-22.08618,1.36768-.3855,5.21503-1.35132,5.7334-2.67407Z"/>
    <path class="c" d="M783.18109,1017.29395c3.36243-1.55225,6.63721-3.40991,7.98138-5.13867-1.34436,1.72876-4.61908,3.58618-7.98138,5.13867Z"/>
    <polygon class="c" points="830.86292 1022.5437 847.57812 1006.2937 852.57825 1001.43262 847.57812 1006.29346 830.86292 1022.5437"/>
    <polygon class="c" points="832.39166 877.67163 819.61914 919.58496 818.09534 924.58521 816.57178 929.58496 812.65314 942.44409 829.15338 950.22729 812.65332 942.44385 816.5719 929.58496 818.09552 924.58521 819.61926 919.58496 832.39185 877.67139 832.3916 877.67163 832.39166 877.67163"/>
    <path class="c" d="M304.896,1080.60254c-14.6524-27.14697-44.2926-42.72144-74.97284-39.39502-30.6803,3.32642-56.28979,24.89136-64.77777,54.54785-.55725,1.94678-1.02844,3.90332-1.42487,5.86426-.41986,2.07739-.74115,4.16064-.98486,6.24438-.18079,1.54517-.32361,3.09106-.40778,4.6355-.1972,3.62085-.12744,7.23242.19025,10.80908.73102,8.23169,2.82404,16.26709,6.13116,23.80078.74274,1.69189,1.53552,3.36279,2.40179,4.99976.90088,1.70239,1.87848,3.36597,2.91034,5.00024,4.54993,7.20703,10.34021,13.72705,17.29797,19.18408,32.41437,25.42334,79.20215,20.3501,105.40851-11.4292,2.04932-2.48535,3.90778-5.08008,5.59711-7.75488,1.03326-1.63623,1.9986-3.3042,2.89667-5.00024.86932-1.64185,1.67517-3.30933,2.41742-4.99976.18542-.42236.3786-.8418.55609-1.2666.98004-2.34717,1.83234-4.73633,2.56787-7.15552.71411-2.34937,1.31555-4.72607,1.79755-7.12573,1.53357-7.63477,1.8783-15.479,1.02606-23.24707-1.04535-9.52832-3.89691-18.94189-8.63068-27.71191ZM250.44232,1133.09521l-6.94745,7.05615-6.84235,6.94946-.00836.00854-4.92249,4.99976-4.23816,4.30444-1.45557.49414c-.62531.00098-2.87396-1.88574-5.96655-4.79858-1.53741-1.44824-3.28314-3.14966-5.14258-4.99976-.3634-.36157-.73083-.72852-1.10217-1.10059-2.58209-2.58789-5.33392-5.40527-8.02771-8.20166-3.3324-3.45947-6.55988-6.86841-9.24475-9.74316-3.15527-3.37842-5.55927-6.01562-6.46045-7.08398-.00391-1.84717,7.95825-9.24951,12.65149-12.66553,1.10822-.80688,2.03552-1.39282,2.63104-1.62915.47308-.00269,1.38678.61377,2.57825,1.62915,5.09766,4.34375,15.30383,16.01978,18.08344,18.05615l17.38263-18.05615,29.63678-30.78564c1.84528-1.5376,3.20288-1.51904,5.15894-.38159.76263.44312,11.42151,11.1355,11.77667,11.89307.64392,1.37354.83807,2.54321,0,3.89453l-15.14221,15.37964-24.39844,24.78076Z"/>
  </g>
  <g>
    <path class="d" d="M332.28815,883.59009h-162.534c-3.46704,0-6.39807,2.29028-7.3656,5.44019,5.35944,6.40454,8.5929,14.646,8.5929,23.63086,0,2.36719-.23297,4.67969-.66119,6.92383-.3266,1.71191-.77319,3.38062-1.32837,5.00024-.59222,1.72803-1.30841,3.39771-2.13971,4.99976-.61523,1.18555-1.28857,2.33569-2.02435,3.44214,1.33569,1.11206,3.05237,1.78247,4.92633,1.78247h162.534c3.38641,0,6.25592-2.18799,7.28949-5.22461.26526-.7793.41577-1.61182.41577-2.48071v-35.80884c0-4.25562-3.44977-7.70532-7.70526-7.70532Z"/>
    <path class="d" d="M857.57812,1108.0918c-.03723.07349-.07385.14941-.11121.22266-.0849.16602-.16742.34131-.25281.50562h-.00006l.00006.00049c.08551-.16431.16803-.33984.25299-.5061.03729-.073.07385-.14893.11102-.22217,1.44934-2.85742,2.82971-5.97534,4.14081-9.30542-1.3111,3.33008-2.69153,6.448-4.14081,9.30493Z"/>
  </g>
  <g>
    <path class="g" d="M447.96191,10C227.61279,10,48.34521,189.26758,48.34521,409.61621v466.16602h40.20654v-197.95312c0-20.19043,16.7666-36.61719,37.37549-36.61719h216.12592v-51.73706c-9.17242-1.64136-16.89362-4.0022-22.39252-6.85962-19.23682-9.99512-33.75684-44.26855-43.15625-101.86914-5.44531-33.36621-7.57568-65.34082-8.22852-77.26074l-61.10596,1.2041,6.90863-24.29492,2.26202-7.95459,2.16113-7.6001,38.05249-133.81543-42.15869-98.99219c-.86816-2.03809-.2915-4.4043,1.4165-5.81445,1.7085-1.41113,4.14014-1.52832,5.97705-.29102l52.07764,35.08301-2.25781-79.22559c-.06055-2.12109,1.22412-4.04883,3.20508-4.80957,1.97998-.76172,4.22559-.19043,5.60059,1.42676l49.40332,58.05176,26.05225-74.00391c.6958-1.97656,2.5498-3.30957,4.64453-3.33887,2.09619-.04199,3.98682,1.24902,4.73828,3.2041l29.71289,77.25293,42.84668-61.75684c1.18408-1.70605,3.2998-2.50684,5.31592-2.00098,2.01611.50195,3.51172,2.19824,3.75684,4.26074l15.10822,126.97656h176.44305c1.3335,0,2.6123.5332,3.55078,1.47949.93896.94727,1.46094,2.23047,1.44922,3.56445l-1.15198,131.45557-.0498,5.68555-.05121,5.84131-2.5517,291.18262c-.01367,1.53418-.73047,2.97656-1.94482,3.91406-.4328.33398-.9126.58813-1.41705.76318h93.54968c44.97559,0,86.13312,16.58472,117.64673,44.00488.03723.03247.07452.06494.11176.09741v-285.41919c0-220.34863-179.26709-399.61621-399.61621-399.61621Z"/>
    <path class="g" d="M630.9967,650.93311h1.94281c-.53748-.13721-1.05951-.28833-1.5921-.43018-.1153.146-.23505.28516-.35071.43018Z"/>
    <path class="g" d="M292.23682,694.04639c-.32654-.77783-.80981-1.37598-1.44904-1.79297s-1.43152-.62549-2.37683-.62549-1.74426.21191-2.39764.63599c-.65344.42407-1.15009,1.0144-1.49072,1.77222-.24091.53564-.39197,1.13916-.46252,1.80347h8.60876c-.07166-.66553-.21143-1.26709-.43201-1.79321Z"/>
    <path class="g" d="M267.15594,694.04639c-.32648-.77783-.80975-1.37598-1.44904-1.79297-.63922-.41699-1.43146-.62549-2.37677-.62549s-1.74426.21191-2.39771.63599c-.65338.42407-1.15002,1.0144-1.49072,1.77222-.24091.53564-.39197,1.13916-.46246,1.80347h8.6087c-.07166-.66553-.21143-1.26709-.43201-1.79321Z"/>
    <path class="f" d="M350.28027,651.21191H125.92725c-15.09473,0-27.37549,11.94043-27.37549,26.61719v197.95312h35.55127c.85278,0,1.69604.03955,2.53455.09692,10.32159.70459,19.48938,5.66846,25.75098,13.15112.96753-3.1499,3.89856-5.44019,7.3656-5.44019h162.534c4.25549,0,7.70526,3.44971,7.70526,7.70532v35.80884c0,.8689-.15051,1.70142-.41577,2.48071-1.03357,3.03662-3.90308,5.22461-7.28949,5.22461h-162.534c-1.87396,0-3.59064-.67041-4.92633-1.78247-1.96417,2.95337-4.34161,5.60767-7.05035,7.88135,11.70038,2.44482,21.37439,10.45361,26.13544,21.12036.24457-.00928.48425-.03687.73102-.03687,10.62183,0,19.2326,8.60669,19.2326,19.22363s-8.61078,19.22339-19.2326,19.22339c-1.86102,0-3.6546-.27808-5.35669-.771-6.75519,8.6438-17.26678,14.2168-29.06213,14.2168h-10.78015c7.1734,6.73242,11.66736,16.28809,11.66736,26.87891,0,12.57471-6.33044,23.69336-15.96722,30.35303-5.94733,4.10986-13.15131,6.5249-20.91168,6.5249h-.38007c1.70032,4.23633,2.64569,8.85376,2.64569,13.69043,0,13.36938-7.15198,25.09863-17.83008,31.56665,1.25574,13.55273,12.99829,24.21069,27.2583,24.21069h42.72205c-3.30713-7.53369-5.40015-15.56909-6.13116-23.80078-.31769-3.57666-.38745-7.18823-.19025-10.80908.08417-1.54443.22699-3.09033.40778-4.6355.24371-2.08374.565-4.16699.98486-6.24438.39642-1.96094.86761-3.91748,1.42487-5.86426,8.48798-29.65649,34.09747-51.22144,64.77777-54.54785,30.68024-3.32642,60.32043,12.24805,74.97284,39.39502,4.73376,8.77002,7.58533,18.18359,8.63068,27.71191.85223,7.76807.50751,15.6123-1.02606,23.24707-.48199,2.39966-1.08344,4.77637-1.79755,7.12573-.73553,2.41919-1.58783,4.80835-2.56787,7.15552-.17749.4248-.37067.84424-.55609,1.2666h42.70117c15.09473,0,27.375-11.94043,27.375-26.61719v-33.78809c-5.37183,6.27612-10.18103,13.22656-14.41058,20.81787-.39288.32397-.74945.58105-1.08081.79248-1.51306.96484-2.41168.81445-2.89429,0-1.29315-2.18311.37024-9.07788,1.00433-11.68896,3.44031-14.16675,9.42456-25.56714,17.38135-34.82935v-42.58032c-8.99146,1.52686-18.69507,4.60742-26.46124,7.89185-4.48553,1.89697-26.90991,15.41528-28.46863,14.99512-4.28223-1.15454,3.80316-11.38354,5.37903-13.31519,11.0155-13.50269,31.20667-26.38672,49.55084-30.78906v-320.16943c0-14.67676-12.28027-26.61719-27.375-26.61719ZM247.37598,1000.23999c-10.51715,0-19.04285-8.52173-19.04285-19.03394s8.5257-19.03418,19.04285-19.03418,19.04309,8.52173,19.04309,19.03418-8.52588,19.03394-19.04309,19.03394ZM309.79303,1000.36353c-10.59119,0-19.17706-8.58179-19.17706-19.16821s8.58588-19.16797,19.17706-19.16797,19.17688,8.58203,19.17688,19.16797-8.58569,19.16821-19.17688,19.16821ZM233.80292,793.89502c-6.27667.4043-7.36462-8.58398-1.61786-9.81226l101.88293-.21973c7.01581.20972,8.37659,9.1062.95038,10.06323l-101.21545-.03125ZM291.77734,824.83179c-17.82355-.3064-33.20752-.9873-57.3562-.03101-7.61877.30151-7.41022-8.92578-2.52936-9.83203l58.94958-.20386c7.39612.20728,8.15863,9.12915.93597,10.06689ZM333.6106,763.8252l-98.20276.10059c-5.55231.00928-7.10968-2.51074-6.97107-5.59595.1131-2.51733,2.30066-4.44653,4.82056-4.44653h102.22937c5.513,0,7.12909,10.06885-1.8761,9.94189ZM278.26776,692.08667c.93823-1.80688,2.26923-3.21411,3.99268-4.22192,1.72339-1.00781,3.75287-1.51172,6.08795-1.51172,1.64001,0,3.1449.25732,4.51392.77148,1.36896.51465,2.55737,1.27515,3.56519,2.28296,1.00787,1.00806,1.78595,2.24854,2.33514,3.72168.54919,1.47363.82355,3.17627.82355,5.10815v1.83472h-15.56c.03467,1.04468.22211,1.93628.57977,2.6582.39612.79932.94867,1.39697,1.65753,1.79297.70886.39624,1.53577.59424,2.48108.59424.65338,0,1.24762-.09009,1.78259-.271.53497-.18042.99365-.45166,1.37604-.81323.38239-.36084.67053-.79883.86523-1.31348l6.48413,1.06348c-.38904,1.33423-1.05994,2.49854-2.01196,3.49219-.95197.99365-2.15454,1.76172-3.60693,2.30371-1.45233.54224-3.12402.81323-5.01422.81323-2.43225,0-4.53137-.48291-6.29651-1.44897-1.76508-.96631-3.11694-2.3457-4.05518-4.13867s-1.40729-3.93335-1.40729-6.42139c0-2.39062.46912-4.48926,1.40729-6.29663ZM253.18695,692.08667c.93817-1.80688,2.26898-3.21411,3.99261-4.22192,1.72339-1.00781,3.75287-1.51172,6.08801-1.51172,1.63995,0,3.1449.25732,4.51385.77148,1.36896.51465,2.55737,1.27515,3.56525,2.28296,1.00781,1.00806,1.78595,2.24854,2.33508,3.72168.54919,1.47363.82355,3.17603.82355,5.10815v1.83472h-15.56c.03473,1.04468.22211,1.93628.57983,2.6582.39612.79932.94861,1.39697,1.65747,1.79297.70886.39624,1.53577.59424,2.48108.59424.65344,0,1.24762-.09009,1.78259-.271.53503-.18042.99371-.45166,1.3761-.81323.38232-.36084.67047-.79883.86523-1.31348l6.48413,1.06348c-.3891,1.33423-1.06,2.49854-2.01196,3.49219-.95203.99365-2.1546,1.76172-3.60693,2.30371-1.45239.54224-3.12408.81323-5.01428.81323-2.43225,0-4.53137-.48291-6.29645-1.44897-1.76532-.96631-3.117-2.3457-4.05518-4.13867-.93823-1.79297-1.40735-3.93335-1.40735-6.42139,0-2.39062.46912-4.48926,1.40735-6.29663ZM241.08728,678.88916h7.27637v31.06543h-7.27637v-31.06543ZM216.1734,678.88916h7.27637v16.17896h.33362l6.67175-8.4231h8.27716l-8.32294,10.1687,8.65656,13.14087h-8.40228l-5.67676-8.89624-1.53711,1.85059v7.04565h-7.27637v-31.06543ZM189.45422,686.64502h6.83856l.12524,5.04614c.56604-1.46704,1.35986-2.68213,2.38708-3.63892,1.21613-1.13281,2.85278-1.69922,4.90997-1.69922,1.62628,0,3.04401.36157,4.2533,1.08423,1.20923.72314,2.14746,1.74463,2.81464,3.06494.66718,1.32056,1.00079,2.8562,1.00079,4.60767v14.84473h-7.27643v-13.427c0-1.3064-.33356-2.33179-1.00073-3.0752-.66724-.74365-1.59857-1.11548-2.79382-1.11548-.7785,0-1.46991.17017-2.07452.51074-.60461.34082-1.07373.83057-1.40729,1.46997-.33362.63965-.50043,1.41772-.50043,2.33496v13.302h-7.27637v-23.30957ZM178.01215,676.38135c.92725-.85718,2.03821-1.28613,3.33313-1.28613,1.31226,0,2.43188.42896,3.35938,1.28613.92725.85767,1.39099,1.90747,1.39099,3.14941,0,1.20728-.46375,2.23999-1.39099,3.09717-.92749.85767-2.04712,1.28589-3.35938,1.28589-1.29492,0-2.40588-.43311-3.33313-1.29907-.92749-.86621-1.39099-1.90283-1.39099-3.11011,0-1.22461.4635-2.26562,1.39099-3.12329ZM184.99664,686.64502v23.30957h-7.27643v-23.30957h7.27643ZM129.02509,765.96484c6.42664-15.82861,21.80682-26.1875,38.89703-26.19775,17.09033-.0105,32.48309,10.32959,38.92896,26.15039s2.65948,33.96777-9.57599,45.89429c-16.30048,15.8894-42.29822,15.90503-58.6181.03589-12.24988-11.91162-16.05841-30.0542-9.6319-45.88281ZM135.49457,863.97559c-4.33911,0-7.85638-3.51587-7.85638-7.85254,0-4.33691,3.51727-7.85278,7.85638-7.85278,4.33887,0,7.8562,3.51587,7.8562,7.85278,0,4.33667-3.51733,7.85254-7.8562,7.85254ZM335.35931,860.27979l-167.41559-.00781c-1.41772-.11914-3.72681-.15186-4.7403-1.16309-.78461-.78271-1.14105-1.78857-1.15417-2.82031-.01605-1.25977.50146-2.39209,1.32874-3.22949.87415-.88501,2.09479-1.44019,3.42615-1.44434l168.55518-.51416c1.52032.18408,2.66345.7915,3.43597,1.60986,2.36127,2.50195,1.22827,6.99658-3.43597,7.56934Z"/>
    <path class="g" d="M36.87891,939.53906h97.22412c.34949,0,.6958-.01318,1.04205-.02637,7.98792-.30664,15.09186-4.11182,19.81921-9.92773,1.24829-1.53564,2.32898-3.21167,3.21808-4.99976.78821-1.58521,1.42523-3.25757,1.89032-5.00024.5899-2.21045.90875-4.53027.90875-6.92383,0-12.16089-8.11981-22.45532-19.22058-25.76123-2.1095-.62842-4.32599-1.00342-6.61578-1.09131-.34625-.01318-.69257-.02637-1.04205-.02637H36.87891c-14.82129,0-26.87891,12.05762-26.87891,26.87891,0,14.82031,12.05762,26.87793,26.87891,26.87793Z"/>
    <path class="g" d="M36.87891,1003.88477h113.34619c8.18604,0,15.52399-3.68286,20.45795-9.47363,3.99896-4.6936,6.42047-10.77026,6.42047-17.40527,0-4.29834-1.01984-8.36133-2.82172-11.96826-4.41058-8.82886-13.53448-14.90967-24.0567-14.90967H36.87891c-14.82129,0-26.87891,12.05762-26.87891,26.87793,0,14.82129,12.05762,26.87891,26.87891,26.87891Z"/>
    <path class="g" d="M102.73846,1077.6416h-59.58246c-2.38531,4.0127-3.7605,8.69312-3.7605,13.69043,0,5.12964,1.44617,9.92725,3.94952,14.00928,1.3703,2.23462,3.05853,4.25293,5.00018,5.99512,4.76019,4.27075,11.04523,6.87451,17.92871,6.87451h13.34619c3.13055,0,6.13525-.54346,8.93164-1.53174,1.75629-.62061,3.43195-1.41357,5.00018-2.36816,1.81952-1.10718,3.49652-2.42554,4.99982-3.91895,4.90485-4.87207,7.94727-11.6167,7.94727-19.06006,0-4.99731-1.37524-9.67773-3.76056-13.69043Z"/>
    <path class="f" d="M293.72882,335.58765c-.99384-1.40161-1.89288-2.87378-2.68896-4.40894-.76453-1.47412-1.43707-3.00244-2.00244-4.58252-1.40271-3.9209-2.17267-8.13965-2.17267-12.53662,0-3.22192.41077-6.34961,1.18207-9.33398-11.43591,10.85889-19.27734,21.90991-23.01947,27.69336,1.41449.76855,3.19769,1.66992,5.29578,2.6145,1.85516.83521,3.96344,1.70288,6.30634,2.54834,2.22107.80151,4.65173,1.57837,7.27283,2.28467,4.85437,1.30835,10.36017,2.36255,16.40399,2.84717-2.48907-2.07764-4.69879-4.47607-6.57745-7.12598Z"/>
    <path class="f" d="M559.17041,446.11523c0-30.62305-24.91357-55.53711-55.53662-55.53711-6.39417,0-12.66345,1.10034-18.66388,3.24536-.44897.1604-.90002.31274-1.34589.48511l-3.46722,1.34009-2.43268.94019-12.51624-91.59399-.68829-5.03687-.68823-5.03687-10.58234-77.44141v-.00024l-.0639.0061-187.46295,17.85913-.00037.00122-34.47211,121.22559-2.05829,7.23828-2.15698,7.58521-6.54907,23.03076,57.35059-1.13086.19043,4.90137c.53552,13.76953,2.08759,34.95898,5.02991,57.96484,10.35693,1.78784,41.86346,6.34448,66.22253.59863,4.8833-1.15723,6.71826,2.20117,7.03662,2.88574,1.99609,4.29492-1.41992,7.85352-10.29492,15.54102-5.18018,4.4873-12.51074,10.44336-21.7876,17.70117-12.67401,9.9165-25.61658,19.62646-30.25806,23.09229,7.09961,27.80176,16.94281,50.82373,30.29614,57.76221,4.01892,2.08789,10.16669,4.00342,17.78217,5.45996,20.99567,4.01538,53.17999,4.52808,82.92297-4.53247,6.82928-2.08032,13.53033-4.66235,19.93646-7.82593,1.51398-.74756,2.98871-1.52222,4.43402-2.31689,24.18268-13.29443,38.74628-33.13403,43.3067-59.04443l.09418-.53516.49219-2.79541.21735-1.23486.86438.08569,3.7489.37134c3.97369.39307,7.86951.35352,11.65448-.05786,2.54822-.27686,5.04089-.73364,7.47382-1.34497,1.86157-.46777,3.68506-1.02856,5.46674-1.67969,21.28802-7.77856,36.50507-28.23926,36.50507-52.17627ZM340.20929,347.24634c-.40826.29321-.85175.54785-1.35529.71167-.08911.02905-.17627.05151-.26532.08032-4.27039,1.96948-8.77612,3.12524-13.18658,3.3064-6.29584,1.14355-12.30048,1.63184-17.90601,1.63184-11.14893,0-20.75049-1.86035-28.08838-3.99023-3.15491-.91577-6.02014-1.91992-8.58252-2.91943-2.33118-.90918-4.39508-1.80981-6.15796-2.63965-1.02979-.48486-1.97595-.94922-2.79175-1.36865-1.03058-.53003-1.9101-1.00195-2.68555-1.43286-1.68317-.93506-2.82458-1.65576-3.59375-2.21265-.06787-.04004-.13574-.08203-.20215-.12598l.01025-.01562c-1.10498-.82715-1.37842-1.2832-1.56934-1.60156-1.00293-1.6709-.92871-3.73633.10498-5.3125,2.56104-4.50879,27.77734-47.18359,71.89404-61.55176,45.6084-14.85645,92.7085,6.6377,94.69141,7.56152,2.50391,1.16406,3.58936,4.13867,2.4248,6.6416-1.16553,2.50488-4.13818,3.58984-6.64258,2.4248-.43024-.19922-42.29266-19.2334-82.7149-8.49121,12.82587,3.34326,22.97845,13.35791,26.53485,26.09717.44653,1.59961.78925,3.24097,1.01971,4.91846.22858,1.66406.35645,3.35986.35718,5.08545,0,.00537.00043.01074.00043.01611,0,14.86865-9.55029,27.11328-21.29559,33.18677ZM355.75885,399.51807c0-19.72266,15.98846-35.71118,35.71124-35.71118s35.71118,15.98853,35.71118,35.71118-15.98846,35.71118-35.71118,35.71118-35.71124-15.98853-35.71124-35.71118Z"/>
    <path class="g" d="M44.94751,1067.6416h69.28589c8.44031,0,15.98029-3.91357,20.91168-10.01758,3.72815-4.61475,5.96722-10.47974,5.96722-16.86035s-2.23907-12.24609-5.96722-16.86108c-4.9314-6.10425-12.47137-10.01782-20.91168-10.01782H36.87891c-14.82129,0-26.87891,12.05762-26.87891,26.87891,0,14.82031,12.05762,26.87793,26.87891,26.87793h8.0686Z"/>
    <path class="g" d="M720.30725,910.34326c-.1283-1.20752-1.65411-3.25049-3.59875-5.40625-.00061-.00073-.00122-.00146-.00183-.00195-3.45209-3.82666-8.21649-8.00244-8.80908-8.47144-30.58435-24.20264-68.84161-31.65405-103.90375-23.35767-.0033.00073-.00659.00146-.00989.00244-23.90399,5.6582-46.32147,18.63696-63.80988,38.61816-.02972.03394-.06036.06665-.09009.10059-.89832,1.02856-2.99585,3.52148-5.02142,6.19604-.28937.38208-.57727.76782-.85999,1.15356-.1001.13647-.19482.27173-.29346.4082-.45856.63403-.9043,1.26562-1.31116,1.87549-.39349.59009-.74182,1.15137-1.05658,1.68799-.26343.44922-.50256.88037-.69159,1.27295-.0108.02246-.02618.04834-.03668.07056-.01581.03345-.02374.06055-.03894.09326-.12347.26733-.2301.521-.30896.7522-.00073.0022-.00079.00391-.00153.0061-.08185.23657-.13928.45337-.16644.64478-.00055.00391.00079.00635.00024.01025-.02777.19775-.02588.37036.01062.51318.1499.58691,1.04205,1.68604,2.38159,3.07324.02386.02466.05286.05273.07703.07764.26166.26978.54028.55029.83331.83984.11859.11743.24487.23926.3681.35938.21313.20752.42981.41748.65588.63306.14728.14038.29681.28198.44904.42529.21875.20605.44263.41479.67072.62622.16125.14941.3205.29761.48602.44946.24658.22607.5.45581.7547.68628.21021.19019.41968.37964.63464.57227.3222.28833.6474.57812.97821.87012.22437.19824.45184.39673.6792.5957.19696.17236.39319.34424.59186.51685.24268.21069.48517.42041.72955.6311.18427.15869.36816.31665.55292.47485.25079.21484.50018.42822.7511.6416.17853.15161.35596.30127.53406.4519.20361.17212.4082.34668.61084.51709.36249.30469.72168.60449,1.07849.90137.04169.03467.08136.06689.12292.10156.42511.35327.84473.69995,1.25647,1.03784.12744.10474.24927.20361.37512.3064.30377.24854.60315.49243.896.72974.15082.12231.29712.24048.44458.35913.26746.21582.52747.42407.78265.62793.13409.10718.26886.21509.39923.3186.36682.29126.72253.57227,1.05566.83252.54187.42334,1.04108.80786,1.47351,1.13306.00269.00195.00482.00342.00745.00537.35345.26587.66437.4939.92932.68237.05426.03857.09985.06982.15009.10474.08545.05981.17383.12207.24707.17139,1.44379.96973,2.90112,1.90234,4.37103,2.79736,1.28571.7832,2.58374,1.52881,3.88806,2.25488.40881.22778.82025.44629,1.23077.66846.92072.49805,1.84528.98315,2.77448,1.45337.45746.23169.91473.46338,1.37415.68848.99768.48828,2.00049.95776,3.0069,1.41431.34644.15747.69012.32422,1.0376.47803,1.27985.56543,2.56708,1.10254,3.85968,1.61792.51831.20679,1.03973.39941,1.55994.59839.83081.31714,1.66296.62769,2.49841.92456.59265.21094,1.18597.41699,1.78082.61743.81171.27368,1.62604.53369,2.44159.78833.56409.17627,1.12665.35938,1.69244.52661.06335.01855.12616.04028.18951.05884.51477.15112,1.03278.28345,1.54895.42725.13434.03735.26935.07056.40381.10742,1.44104.39551,2.8866.76196,4.33704,1.09985.13776.03223.27527.06494.41309.09619,3.13879.71924,6.29614,1.30542,9.46722,1.75928.01129.00146.02252.00317.03375.00488,1.47961.21118,2.9613.39307,4.4455.54736.10547.01099.21088.02295.31635.03369,1.37299.13892,2.74707.2522,4.12268.34277.237.01562.47382.03223.71082.04688,1.2373.07373,2.47485.12671,3.71313.16211.38879.01123.7774.02246,1.1662.03003,1.08984.02026,2.1792.02441,3.26892.01489.53998-.00415,1.07965-.0105,1.61957-.02197.95087-.021,1.90094-.05444,2.85107-.0979.66956-.03027,1.33856-.0647,2.00763-.10596.83954-.05249,1.6781-.1145,2.51654-.18433.75903-.06274,1.51721-.13184,2.27515-.20874.77502-.0791,1.54895-.16626,2.32257-.26025.40729-.04932.81598-.0835,1.22284-.13696.37-.04858.73779-.11597,1.10742-.16797.82703-.11621,1.6524-.24243,2.47736-.37549.76062-.12305,1.52014-.25049,2.27875-.38745.82477-.14893,1.64734-.30908,2.46948-.47485.43488-.0874.87238-.15869,1.3064-.25098.3172-.06738.63135-.15112.94812-.22095.8208-.18115,1.63885-.37476,2.45648-.57251.74805-.18091,1.4953-.36353,2.24048-.55835.81354-.21265,1.62354-.43872,2.43335-.66772.47528-.13452.95441-.25195,1.42834-.39209.27472-.08105.54602-.17554.82013-.25903.73816-.22339,1.4726-.45972,2.20728-.69702.47223-.1543.9447-.30762,1.41547-.46777,2.85266-.95776,5.67511-2.01904,8.46442-3.18042.07587-.03149.15173-.06274.22754-.09448,2.5614-1.07202,5.09308-2.22607,7.59064-3.4668.30072-.14917.59943-.30322.89917-.45459,1.20471-.61035,2.40131-1.23804,3.58911-1.88696.50269-.27417,1.00427-.55078,1.50385-.83203.61133-.34448,1.22272-.68799,1.8291-1.04297.96448-.56348,1.92145-1.14233,2.87305-1.73169.48004-.29785.95709-.60083,1.43372-.90527.92529-.58984,1.84491-1.19043,2.75702-1.80493.35474-.23926.70789-.4812,1.06061-.72412.966-.66504,1.92328-1.34546,2.87341-2.03809.29224-.21338.58557-.42432.87628-.64038,1.09833-.8147,2.18488-1.64868,3.26038-2.50073.2373-.18799.47253-.37891.70868-.56885,1.13361-.91089,2.25861-1.83545,3.36517-2.7876.00134-.00122.00275-.0022.00409-.00342.55182-.47485,1.4231-1.30518,2.50256-2.3811.44342-.44189.92297-.92627,1.42896-1.44336.38641-.39502.79144-.81323,1.20642-1.24414.34406-.35742.69763-.72729,1.0567-1.10498.12445-.13086.25201-.26636.37799-.39941.23328-.24609.46655-.49268.70422-.74561.16492-.17554.33136-.354.49799-.53223.20386-.21802.40729-.43579.61316-.65747.17682-.19043.35364-.38159.53149-.57422.10968-.1189.21832-.23511.32831-.35474.19312-.20972.38593-.41943.57941-.6311.11316-.12378.22614-.24829.33929-.37231.43378-.47632.86719-.95435,1.29742-1.43408.15784-.17578.31104-.35083.46771-.52661.11047-.12402.2182-.24561.32812-.36938.68585-.77319,1.36292-1.5437,2.01141-2.29785,3.44995-4.01221,6.19098-7.58105,6.39612-8.90454.01593-.10303.01385-.2168.0011-.33691q0-.00024-.00006-.00024Z"/>
  </g>
  <g>
    <circle class="i" cx="391.47008" cy="399.51807" r="35.71118" transform="translate(-127.44562 608.30026) rotate(-67.49999)"/>
    <path class="i" d="M513.12085,1009.70264c-47.64545,14.44116-80.09882-16.51587-125.46558-13.24536-.53082.03833-1.06152.07617-1.59595.12402-1.1203.1001-2.25726.24634-3.40393.42407-1.64557.25513-3.31482.58887-5.00012.99316-18.34418,4.40234-38.53534,17.28638-49.55084,30.78906-1.57587,1.93164-9.66125,12.16064-5.37903,13.31519,1.55872.42017,23.98309-13.09814,28.46863-14.99512,7.76617-3.28442,17.46979-6.36499,26.46124-7.89185,1.69806-.28833,3.37103-.52393,5.00012-.69189.79541-.08179,1.58337-.15259,2.35602-.20264.88806-.05737,1.76581-.08447,2.64386-.11255,18.03015-.57446,34.03302,4.85522,51.3902,9.0813-.51837,1.32275-4.36572,2.28857-5.7334,2.67407-17.48126,4.92944-33.13446,11.81372-45.6568,22.08618-1.72632,1.41602-3.3963,2.89307-4.99988,4.44214-1.74371,1.68433-3.4101,3.45264-5.00012,5.30371-7.95679,9.26221-13.94104,20.6626-17.38135,34.82935-.63409,2.61108-2.29749,9.50586-1.00433,11.68896.4826.81445,1.38123.96484,2.89429,0,.33136-.21143.68793-.46851,1.08081-.79248,4.22955-7.59131,9.03876-14.54175,14.41058-20.81787,1.61664-1.88867,3.28064-3.72021,5.00012-5.48438,1.61975-1.66162,3.28912-3.26221,4.99988-4.81104,13.09784-11.85718,28.85358-20.37915,47.2251-25.06177,21.89838-5.5813,43.89056-4.43262,65.5946-10.69556,24.2439-6.99609,50.20782-25.06396,61.4328-48.04883-4.2959-1.7854-8.92511-4.89941-13.87097-6.93555-6.97748,11.14868-22.50104,20.27271-34.91595,24.03564Z"/>
    <path class="i" d="M818.09552,924.58521l-1.52362,4.99976-3.91858,12.85889,16.50006,7.78345,18.42474,8.69141,5.00012,2.35864,4.99988,2.3584,19.39899,9.15088s-.00006-.00024-.00006-.00049c-3.55603-22.8606-9.25348-42.47534-19.39893-60.70361-1.55786-2.79883-3.22369-5.5647-4.99988-8.30493-1.57562-2.43091-3.2403-4.84155-5.00012-7.23608-2.82831-3.84814-5.89429-7.65698-9.23792-11.44312-1.74188-1.97241-3.90558-5.99438-5.94836-7.427l-12.77258,41.91357-1.52374,5.00024Z"/>
    <path class="i" d="M827.93335,872.72607c-18.8645-17.35107-37.18903-28.63135-59.9425-39.63989l-1.79657,20.18994-2.17114,24.40015c18.28943-.51758,64.10565,1.7583,68.36847-.00464.00006-.00024.00018-.00024.00024-.00024-.15399-1.90186-3.17279-3.7627-4.4585-4.94531Z"/>
    <path class="i" d="M878.95868,993.59302c-.13965-6.22803-.2251-10.70312-.99078-16.84326l-20.38977,19.82227-4.99988,4.8606-5.00012,4.86108-16.71521,16.25-8.24786,8.01807,24.96307,56.46313,5.00012,11.30957,4.41223,9.97998.22357.50562h.00006c.08539-.16431.16791-.3396.25281-.50562.03735-.07324.07397-.14917.11121-.22266,1.44928-2.85693,2.82971-5.97485,4.14081-9.30493.36749-.93359.72943-1.88354,1.08588-2.84937,11.04889-29.93896,16.76935-74.88989,16.15387-102.34448Z"/>
  </g>
  <path class="h" d="M382.6554,1018.52393c-1.62909.16797-3.30206.40356-5.00012.69189v42.58032c1.59003-1.85107,3.25641-3.61938,5.00012-5.30371,1.60358-1.54907,3.27356-3.02612,4.99988-4.44214v-33.84155c-.87805.02808-1.7558.05518-2.64386.11255-.77264.05005-1.56061.12085-2.35602.20264Z"/>
  <path class="h" d="M278.2063,1077.14722c-1.95605-1.13745-3.31366-1.15601-5.15894.38159l-29.63678,30.78564-17.38263,18.05615c-2.7796-2.03638-12.98578-13.7124-18.08344-18.05615-1.19147-1.01538-2.10516-1.63184-2.57825-1.62915-.59552.23633-1.52283.82227-2.63104,1.62915-4.69324,3.41602-12.6554,10.81836-12.65149,12.66553.90118,1.06836,3.30518,3.70557,6.46045,7.08398,2.68488,2.87476,5.91235,6.28369,9.24475,9.74316,2.69379,2.79639,5.44562,5.61377,8.02771,8.20166.37134.37207.73877.73901,1.10217,1.10059,1.85944,1.8501,3.60516,3.55151,5.14258,4.99976,3.09259,2.91284,5.34125,4.79956,5.96655,4.79858l1.45557-.49414,4.23816-4.30444,4.92249-4.99976.00836-.00854,6.84235-6.94946,6.94745-7.05615,24.39844-24.78076,15.14221-15.37964c.83807-1.35132.64392-2.521,0-3.89453-.35516-.75757-11.01404-11.44995-11.77667-11.89307Z"/>
  <rect class="h" x="177.72021" y="686.64502" width="7.27643" height="23.30957"/>
  <path class="h" d="M184.70465,676.38135c-.92749-.85718-2.04712-1.28613-3.35938-1.28613-1.29492,0-2.40588.42896-3.33313,1.28613-.92749.85767-1.39099,1.89868-1.39099,3.12329,0,1.20728.4635,2.2439,1.39099,3.11011.92725.86597,2.03821,1.29907,3.33313,1.29907,1.31226,0,2.43188-.42822,3.35938-1.28589.92725-.85718,1.39099-1.88989,1.39099-3.09717,0-1.24194-.46375-2.29175-1.39099-3.14941Z"/>
  <path class="h" d="M211.78381,709.95459v-14.84473c0-1.75146-.33362-3.28711-1.00079-4.60767-.66718-1.32031-1.60541-2.3418-2.81464-3.06494-1.20929-.72266-2.62701-1.08423-4.2533-1.08423-2.05719,0-3.69385.56641-4.90997,1.69922-1.02722.95679-1.82104,2.17188-2.38708,3.63892l-.12524-5.04614h-6.83856v23.30957h7.27637v-13.302c0-.91724.16681-1.69531.50043-2.33496.33356-.6394.80267-1.12915,1.40729-1.46997.60461-.34058,1.29602-.51074,2.07452-.51074,1.19525,0,2.12659.37183,2.79382,1.11548.66718.74341,1.00073,1.7688,1.00073,3.0752v13.427h7.27643Z"/>
  <polygon class="h" points="216.1734 678.88916 216.1734 709.95459 223.44977 709.95459 223.44977 702.90894 224.98688 701.05835 230.66364 709.95459 239.06592 709.95459 230.40936 696.81372 238.7323 686.64502 230.45514 686.64502 223.78339 695.06812 223.44977 695.06812 223.44977 678.88916 216.1734 678.88916"/>
  <rect class="h" x="241.08728" y="678.88916" width="7.27637" height="31.06543"/>
  <path class="h" d="M274.50531,698.2373c0-1.93213-.27435-3.63452-.82355-5.10815-.54913-1.47314-1.32727-2.71362-2.33508-3.72168-1.00787-1.00781-2.19629-1.76831-3.56525-2.28296-1.36896-.51416-2.8739-.77148-4.51385-.77148-2.33514,0-4.36462.50391-6.08801,1.51172-1.72363,1.00781-3.05444,2.41504-3.99261,4.22192-.93823,1.80737-1.40735,3.90601-1.40735,6.29663,0,2.48804.46912,4.62842,1.40735,6.42139.93817,1.79297,2.28986,3.17236,4.05518,4.13867,1.76508.96606,3.8642,1.44897,6.29645,1.44897,1.8902,0,3.56189-.271,5.01428-.81323,1.45233-.54199,2.65491-1.31006,3.60693-2.30371.95197-.99365,1.62286-2.15796,2.01196-3.49219l-6.48413-1.06348c-.19476.51465-.48291.95264-.86523,1.31348-.38239.36157-.84106.63281-1.3761.81323-.53497.18091-1.12915.271-1.78259.271-.94531,0-1.77222-.198-2.48108-.59424-.70886-.396-1.26135-.99365-1.65747-1.79297-.35773-.72192-.5451-1.61353-.57983-2.6582h15.56v-1.83472ZM258.97925,695.8396c.0705-.66431.22156-1.26782.46246-1.80347.3407-.75781.83734-1.34814,1.49072-1.77222.65344-.42407,1.45239-.63599,2.39771-.63599s1.73755.2085,2.37677.62549c.63928.41699,1.12256,1.01514,1.44904,1.79297.22058.52612.36035,1.12769.43201,1.79321h-8.6087Z"/>
  <path class="h" d="M299.58618,698.2373c0-1.93188-.27435-3.63452-.82355-5.10815-.54919-1.47314-1.32727-2.71362-2.33514-3.72168-1.00781-1.00781-2.19623-1.76831-3.56519-2.28296-1.36902-.51416-2.8739-.77148-4.51392-.77148-2.33508,0-4.36456.50391-6.08795,1.51172-1.72345,1.00781-3.05444,2.41504-3.99268,4.22192-.93817,1.80737-1.40729,3.90601-1.40729,6.29663,0,2.48804.46906,4.62842,1.40729,6.42139s2.2901,3.17236,4.05518,4.13867c1.76514.96606,3.86426,1.44897,6.29651,1.44897,1.8902,0,3.56189-.271,5.01422-.81323,1.45239-.54199,2.65497-1.31006,3.60693-2.30371.95203-.99365,1.62292-2.15796,2.01196-3.49219l-6.48413-1.06348c-.1947.51465-.48285.95264-.86523,1.31348-.38239.36157-.84106.63281-1.37604.81323-.53497.18091-1.12921.271-1.78259.271-.94531,0-1.77222-.198-2.48108-.59424-.70886-.396-1.26141-.99365-1.65753-1.79297-.35767-.72192-.5451-1.61353-.57977-2.6582h15.56v-1.83472ZM284.06006,695.8396c.07056-.66431.22162-1.26782.46252-1.80347.34064-.75781.83728-1.34814,1.49072-1.77222.65338-.42407,1.45233-.63599,2.39764-.63599s1.73761.2085,2.37683.62549,1.1225,1.01514,1.44904,1.79297c.22058.52612.36035,1.12769.43201,1.79321h-8.60876Z"/>
  <path class="h" d="M338.79529,852.71045c-.77252-.81836-1.91565-1.42578-3.43597-1.60986l-168.55518.51416c-1.33136.00415-2.552.55933-3.42615,1.44434-.82727.8374-1.34479,1.96973-1.32874,3.22949.01312,1.03174.36957,2.0376,1.15417,2.82031,1.01349,1.01123,3.32257,1.04395,4.7403,1.16309l167.41559.00781c4.66425-.57275,5.79724-5.06738,3.43597-7.56934Z"/>
  <path class="h" d="M197.27509,811.81177c-9.32294-30.48779-49.15472-30.54858-58.6181.03589,16.31989,15.86914,42.31763,15.85352,58.6181-.03589Z"/>
  <path class="h" d="M334.06799,783.86304l-101.88293.21973c-5.74677,1.22827-4.65881,10.21655,1.61786,9.81226l101.21545.03125c7.42621-.95703,6.06543-9.85352-.95038-10.06323Z"/>
  <path class="h" d="M335.48669,753.8833h-102.22937c-2.5199,0-4.70746,1.9292-4.82056,4.44653-.13861,3.08521,1.41876,5.60522,6.97107,5.59595l98.20276-.10059c9.00519.12695,7.3891-9.94189,1.8761-9.94189Z"/>
  <path class="h" d="M231.89178,814.96875c-4.88086.90625-5.08942,10.13354,2.52936,9.83203,24.14868-.9563,39.53265-.27539,57.3562.03101,7.22266-.93774,6.46014-9.85962-.93597-10.06689l-58.94958.20386Z"/>
  <path class="h" d="M127.63818,856.12305c0,4.33667,3.51727,7.85254,7.85638,7.85254,4.33887,0,7.8562-3.51587,7.8562-7.85254,0-4.33691-3.51733-7.85278-7.8562-7.85278-4.33911,0-7.85638,3.51587-7.85638,7.85278Z"/>
  <ellipse class="h" cx="167.99339" cy="768.85742" rx="15.24208" ry="15.23511"/>
  <ellipse class="h" cx="309.79298" cy="981.19537" rx="19.16815" ry="19.17693" transform="translate(-672.47421 1287.57293) rotate(-89.80067)"/>
  <path class="h" d="M216.34058,372.43994l-2.26202,7.95459-6.90863,24.29492,61.10596-1.2041c.65283,11.91992,2.7832,43.89453,8.22852,77.26074,9.39941,57.60059,23.91943,91.87402,43.15625,101.86914,5.4989,2.85742,13.22009,5.21826,22.39252,6.85962,9.03192,1.61621,19.47083,2.53442,30.59528,2.53394,14.77466-.00049,30.7467-1.63623,46.20935-5.37964,10.58344-2.56226,20.93048-6.10278,30.48254-10.81958,6.67609-3.29688,12.77649-7.07129,18.2923-11.28271,17.61627-13.45044,29.20367-31.40747,33.99237-52.90576.67334.02051,1.34326.03125,2.00879.03125,3.61847,0,7.1651-.30762,10.62573-.87451,1.85724,11.78223,6.29102,32.11914,16.59546,54.10303,14.44659,30.82104,43.59399,70.48682,100.49243,85.62207.53259.14185,1.05463.29297,1.5921.43018.15808.04053.30969.08643.4682.12646.4043.10254.81543.15234,1.22412.15234.55872,0,1.11188-.09619,1.63812-.27881.50446-.17505.98425-.4292,1.41705-.76318,1.21436-.9375,1.93115-2.37988,1.94482-3.91406l2.5517-291.18262.05121-5.84131.0498-5.68555,1.15198-131.45557c.01172-1.33398-.51025-2.61719-1.44922-3.56445-.93848-.94629-2.21729-1.47949-3.55078-1.47949h-176.44305l-15.10822-126.97656c-.24512-2.0625-1.74072-3.75879-3.75684-4.26074-2.01611-.50586-4.13184.29492-5.31592,2.00098l-42.84668,61.75684-29.71289-77.25293c-.75146-1.95508-2.64209-3.24609-4.73828-3.2041-2.09473.0293-3.94873,1.3623-4.64453,3.33887l-26.05225,74.00391-49.40332-58.05176c-1.375-1.61719-3.62061-2.18848-5.60059-1.42676-1.98096.76074-3.26562,2.68848-3.20508,4.80957l2.25781,79.22559-52.07764-35.08301c-1.83691-1.2373-4.26855-1.12012-5.97705.29102-1.70801,1.41016-2.28467,3.77637-1.4165,5.81445l42.15869,98.99219-38.05249,133.81543-2.16113,7.6001ZM231.24969,356.57153l34.47211-121.22559.00037-.00122,187.46295-17.85913.0639-.0061v.00024l10.58234,77.44141.68823,5.03687.68829,5.03687,12.51624,91.59399,2.43268-.94019,3.46722-1.34009c.44586-.17236.89691-.32471,1.34589-.48511,6.00043-2.14502,12.26971-3.24536,18.66388-3.24536,30.62305,0,55.53662,24.91406,55.53662,55.53711,0,23.93701-15.21704,44.39771-36.50507,52.17627-1.78168.65112-3.60516,1.21191-5.46674,1.67969-2.43292.61133-4.9256,1.06812-7.47382,1.34497-3.78497.41138-7.68079.45093-11.65448.05786l-3.7489-.37134-.86438-.08569-.21735,1.23486-.49219,2.79541-.09418.53516c-4.56042,25.9104-19.12402,45.75-43.3067,59.04443-1.44531.79468-2.92004,1.56934-4.43402,2.31689-6.40613,3.16357-13.10718,5.74561-19.93646,7.82593-29.74298,9.06055-61.92731,8.54785-82.92297,4.53247-7.61548-1.45654-13.76324-3.37207-17.78217-5.45996-13.35333-6.93848-23.19653-29.96045-30.29614-57.76221,4.64148-3.46582,17.58405-13.17578,30.25806-23.09229,9.27686-7.25781,16.60742-13.21387,21.7876-17.70117,8.875-7.6875,12.29102-11.24609,10.29492-15.54102-.31836-.68457-2.15332-4.04297-7.03662-2.88574-24.35907,5.74585-55.8656,1.18921-66.22253-.59863-2.94232-23.00586-4.49438-44.19531-5.02991-57.96484l-.19043-4.90137-57.35059,1.13086,6.54907-23.03076,2.15698-7.58521,2.05829-7.23828Z"/>
  <path class="h" d="M255.4043,338.27148l-.01025.01562c.06641.04395.13428.08594.20215.12598.76917.55688,1.91058,1.27759,3.59375,2.21265.77545.43091,1.65497.90283,2.68555,1.43286.8158.41943,1.76196.88379,2.79175,1.36865,1.76288.82983,3.82678,1.73047,6.15796,2.63965,2.56238.99951,5.42761,2.00366,8.58252,2.91943,7.33789,2.12988,16.93945,3.99023,28.08838,3.99023,5.60553,0,11.61017-.48828,17.90601-1.63184,4.41046-.18115,8.9162-1.33691,13.18658-3.3064.08905-.02881.17621-.05127.26532-.08032.50354-.16382.94702-.41846,1.35529-.71167,11.7453-6.07349,21.29559-18.31812,21.29559-33.18677,0-.00537-.00043-.01074-.00043-.01611-.00073-1.72559-.1286-3.42139-.35718-5.08545-.23047-1.67749-.57318-3.31885-1.01971-4.91846-3.5564-12.73926-13.70898-22.75391-26.53485-26.09717,40.42224-10.74219,82.28467,8.29199,82.7149,8.49121,2.50439,1.16504,5.47705.08008,6.64258-2.4248,1.16455-2.50293.0791-5.47754-2.4248-6.6416-1.98291-.92383-49.08301-22.41797-94.69141-7.56152-44.1167,14.36816-69.33301,57.04297-71.89404,61.55176-1.03369,1.57617-1.10791,3.6416-.10498,5.3125.19092.31836.46436.77441,1.56934,1.60156ZM288.04681,304.72559c-.7713,2.98438-1.18207,6.11206-1.18207,9.33398,0,4.39697.76996,8.61572,2.17267,12.53662.56537,1.58008,1.23792,3.1084,2.00244,4.58252.79608,1.53516,1.69513,3.00732,2.68896,4.40894,1.87866,2.6499,4.08838,5.04834,6.57745,7.12598-6.04382-.48462-11.54962-1.53882-16.40399-2.84717-2.62109-.7063-5.05176-1.48315-7.27283-2.28467-2.3429-.84546-4.45117-1.71313-6.30634-2.54834-2.09808-.94458-3.88129-1.84595-5.29578-2.6145,3.74213-5.78345,11.58356-16.83447,23.01947-27.69336Z"/>
  <path class="h" d="M847.57812,1006.29346l5.00012-4.86084,4.99988-4.86084,20.38959-19.82202c-.20282-1.62695-.81873-2.85791-.9906-3.96338l-.00006-.00024c0,.00024.00006.00049.00006.00049l-19.39899-9.15088-4.99988-2.3584-5.00012-2.35864-18.42474-8.69141-16.50024-7.7832,3.91864-12.85913,1.52356-4.99976,1.5238-5.00024,12.77252-41.91333h-.00006c-4.26282,1.76294-50.07904-.51294-68.36847.00464l2.17114-24.40015,1.79639-20.18994c-73.53534-35.57764-165.63116-28.53955-233.55536,17.60791-19.78326,13.44116-47.61493,41.1272-62.07568,68.89087-.86853,1.66748-1.68829,3.33521-2.45569,5.00024-.76996,1.67065-1.4837,3.33789-2.14252,4.99976-3.25537,8.21191-5.10217,16.28003-4.96307,23.82935.30029,16.28076,11.04443,20.72754,25.33691,20.40381,25.82068-.58398,36.29956,2.13232,59.90161,11.84863,4.9458,2.03613,9.57495,5.15039,13.87097,6.93555,5.151,2.14062,11.73425,4.50439,17.07703,6.20654,4.802,1.5293,11.14209,2.0791,15.25757,3.58789,1.08887.39893,1.66162-.45557,1.34399,1.58643-18.19299,23.54492-39.32886,44.03955-69.96021,48.93896-4.23059.67676-12.29639-1.5376-12.34814,5.54297-.05518,7.56201,11.00415,13.45605,17.50415,14.30664,43.60449,5.7041,118.38611-51.05225,156.28906-73.40479,10.58643-6.24268,21.75024-11.56836,32.37097-17.66357,17.13464-9.83301,34.22046-19.15039,48.90521-32.62061,4.48212,4.12451,8.94012,10.3479,12.77704,17.47388.45856.85156.91034,1.7124,1.34998,2.58789.03589.07129.0733.14087.10907.2124,6.89844,13.81665,11.30646,30.30908,9.19342,41.58154-.07385.39404-.29187.80176-.6145,1.2168-1.34418,1.72876-4.61896,3.58643-7.98138,5.13867-.31055.14331-.62146.28516-.93195.42285-3.06433,1.36011-6.05353,2.43188-7.56134,2.88428-15.15167,4.54639-29.26019,4.19702-44.34674-.25684,0,0,.00006,0,.00006-.00024h-.00031c-.0968.8457-.60248,4.07202-.98114,5.94507,1.95026.50415,3.83014.9751,5.67169,1.40942,8.82928,2.08203,16.7121,3.26147,26.51019,2.54395,10.94891-.80127,19.82709-5.96875,30.22314-8.90234-.77258,5.99854-1.64307,12.0188-2.96979,17.93188-.32275,1.43848-.66473,2.87256-1.04785,4.29639-1.36035,5.05469-4.95813,17.25928-6.95593,21.57227-2.49554,5.38721-12.02924,6.70166-17.74268,7.48535-.21783.02979-.44196.06055-.64801.08911-.58258.08057-1.17041.14966-1.75775.21973-12.57251,1.50098-26.15656.54712-37.56018-5.20532-2.25574-1.13794-6.89227-5.40186-8.59399-5.77222h.00006c-3.07751-.66992-17.57227,2.7085-21.61603,3.64893-33.99329,7.90942-65.61633,22.68237-92.38831,42.70825h-212.82898v-31.90576c-1.71075,1.54883-3.38013,3.14941-4.99988,4.81104-1.71948,1.76416-3.38348,3.5957-5.00012,5.48438v33.78809c0,14.67676-12.28027,26.61719-27.375,26.61719h-42.70117c-.74225,1.69043-1.5481,3.35791-2.41742,4.99976-.89807,1.69604-1.8634,3.36401-2.89667,5.00024-1.68933,2.6748-3.54779,5.26953-5.59711,7.75488-26.20636,31.7793-72.99414,36.85254-105.40851,11.4292-6.95776-5.45703-12.74805-11.97705-17.29797-19.18408-1.03186-1.63428-2.00946-3.29785-2.91034-5.00024-.86627-1.63696-1.65906-3.30786-2.40179-4.99976h-42.72205c-14.26001,0-26.00256-10.65796-27.2583-24.21069,10.6781-6.46802,17.83008-18.19727,17.83008-31.56665,0-4.83667-.94537-9.4541-2.64569-13.69043h.38007c7.76038,0,14.96436-2.41504,20.91168-6.5249,9.63678-6.65967,15.96722-17.77832,15.96722-30.35303,0-10.59082-4.49396-20.14648-11.66736-26.87891h10.78015c11.79535,0,22.30695-5.573,29.06213-14.2168,1.70209.49292,3.49567.771,5.35669.771,10.62183,0,19.2326-8.60669,19.2326-19.22339s-8.61078-19.22363-19.2326-19.22363c-.24677,0-.48645.02759-.73102.03687-4.76105-10.66675-14.43506-18.67554-26.13544-21.12036,2.70874-2.27368,5.08618-4.92798,7.05035-7.88135.73578-1.10645,1.40912-2.25659,2.02435-3.44214.8313-1.60205,1.54749-3.27173,2.13971-4.99976.55518-1.61963,1.00177-3.28833,1.32837-5.00024.42822-2.24414.66119-4.55664.66119-6.92383,0-8.98486-3.23346-17.22632-8.5929-23.63086-6.2616-7.48267-15.42938-12.44653-25.75098-13.15112-.8385-.05737-1.68176-.09692-2.53455-.09692h-35.55127v-197.95312c0-14.67676,12.28076-26.61719,27.37549-26.61719h224.35303c15.09473,0,27.375,11.94043,27.375,26.61719v320.16943c1.6853-.4043,3.35455-.73804,5.00012-.99316,1.14667-.17773,2.28363-.32397,3.40393-.42407.53442-.04785,1.06512-.08569,1.59595-.12402v-318.62817c0-20.19043-16.7666-36.61719-37.375-36.61719H125.92725c-20.60889,0-37.37549,16.42676-37.37549,36.61719v197.95312h-40.20654v-466.16602C48.34521,189.26758,227.61279,10,447.96191,10s399.61621,179.26758,399.61621,399.61621v285.41919c1.68268,1.46655,3.34369,2.95728,4.97028,4.48486.01007.00952.01984.01904.02985.02856,1.69946,1.59668,3.36365,3.23022,4.99988,4.8916v-294.82422c0-55.2959-10.83105-108.94043-32.19189-159.44238-20.63086-48.77832-50.16504-92.58301-87.78174-130.2002-37.61719-37.61719-81.42285-67.15137-130.2002-87.78223C556.90137,10.83105,503.25732,0,447.96143,0s-108.93994,10.83105-159.44238,32.19141c-48.77783,20.63086-92.58301,50.16504-130.2002,87.78223-37.6167,37.61719-67.15088,81.42188-87.78174,130.2002-21.36084,50.50195-32.19189,104.14648-32.19189,159.44238v466.16602h-1.46631c-20.33496,0-36.87891,16.54395-36.87891,36.87891,0,13.80298,7.62714,25.85132,18.88367,32.17236-11.25653,6.32104-18.88367,18.36938-18.88367,32.17236,0,13.59253,7.39752,25.48291,18.37256,31.87891-10.97504,6.396-18.37256,18.28638-18.37256,31.87891,0,18.73682,14.04913,34.24268,32.16425,36.56616-1.78009,4.32056-2.76874,9.04712-2.76874,14.0022,0,9.18018,3.37952,17.58105,8.94971,24.04272v108.8313h819.23291v-115.8916h-.11102c-.08496.16626-.16748.3418-.25299.5061l-.00006-.00049-.22357-.50562-4.41223-9.97998-5.00012-11.30957-24.96307-56.46313,8.24786-8.01807,16.71521-16.25024ZM36.87891,1067.6416c-14.82129,0-26.87891-12.05762-26.87891-26.87793,0-14.82129,12.05762-26.87891,26.87891-26.87891h77.35449c8.44031,0,15.98029,3.91357,20.91168,10.01782,3.72815,4.61499,5.96722,10.48022,5.96722,16.86108s-2.23907,12.24561-5.96722,16.86035c-4.9314,6.104-12.47137,10.01758-20.91168,10.01758H36.87891ZM38.34521,885.78223h95.75781c.34949,0,.6958.01318,1.04205.02637,2.28979.08789,4.50629.46289,6.61578,1.09131,11.10077,3.30591,19.22058,13.60034,19.22058,25.76123,0,2.39355-.31885,4.71338-.90875,6.92383-.46509,1.74268-1.10211,3.41504-1.89032,5.00024-.8891,1.78809-1.96979,3.46411-3.21808,4.99976-4.72736,5.81592-11.8313,9.62109-19.81921,9.92773-.34625.01318-.69257.02637-1.04205.02637H36.87891c-14.82129,0-26.87891-12.05762-26.87891-26.87793,0-14.82129,12.05762-26.87891,26.87891-26.87891h1.46631ZM38.34521,950.12793h111.87988c10.52222,0,19.64612,6.08081,24.0567,14.90967,1.80188,3.60693,2.82172,7.66992,2.82172,11.96826,0,6.63501-2.42151,12.71167-6.42047,17.40527-4.93396,5.79077-12.27191,9.47363-20.45795,9.47363H36.87891c-14.82129,0-26.87891-12.05762-26.87891-26.87891,0-14.82031,12.05762-26.87793,26.87891-26.87793h1.46631ZM106.49902,1091.33203c0,7.44336-3.04242,14.18799-7.94727,19.06006-1.5033,1.49341-3.1803,2.81177-4.99982,3.91895-1.56824.95459-3.2439,1.74756-5.00018,2.36816-2.79639.98828-5.80109,1.53174-8.93164,1.53174h-13.34619c-6.88348,0-13.16852-2.60376-17.92871-6.87451-1.94165-1.74219-3.62988-3.7605-5.00018-5.99512-2.50336-4.08203-3.94952-8.87964-3.94952-14.00928,0-4.99731,1.37518-9.67773,3.7605-13.69043h59.58246c2.38531,4.0127,3.76056,8.69312,3.76056,13.69043ZM661.58191,1122.97192c.87811-.89746,1.75543-1.79565,2.64825-2.68066.38715-.38354.77899-.76245,1.16833-1.14404,3.73828-3.66626,7.56256-7.25171,11.32562-10.83276.24835-.23633.4986-.4729.74628-.70923.36011-.0625.90649.22583,1.54932.70923,2.27655,1.71167,5.8349,6.0144,7.25305,7.12354,14.56165,11.39014,32.87555,14.96436,50.99835,12.90723.00012,0,.00018-.00024.00031-.00024h.00018l-33.18262,34.33618c-.00012,0-.00031.00049-.00043.00049l-.00293.00293c-5.745,5.94189-14.40472,8.03271-22.22089,5.35889-.00348-.00098-.00702-.00244-.0105-.00342-.02051-.00684-.04138-.01172-.06189-.01855-.05804-.02051-.11621-.04199-.17432-.0625-.0036-.00098-.0072-.00244-.0108-.00391-.66235-.22998-1.32489-.46582-1.98737-.7085-.00378-.00146-.00751-.00244-.01129-.00391-.12781-.04688-.25531-.0957-.38306-.14307-.53827-.19922-1.07587-.40332-1.61292-.61133-.01935-.00732-.03882-.01465-.05817-.02197-.00598-.00244-.01202-.00439-.01807-.00684-.18079-.07031-.36151-.14014-.54211-.21094-.66956-.26367-1.33783-.53223-2.00336-.80957-.08148-.03369-.16223-.06934-.24365-.10352-.01013-.00439-.02008-.00879-.03027-.01318-.5788-.24316-1.15509-.49268-1.72931-.74707-.0047-.00195-.00946-.00391-.01416-.00586-.18213-.08057-.36395-.16162-.54553-.24365-.00458-.00195-.00909-.00391-.01361-.00635-.62152-.27979-1.2406-.56494-1.8548-.8584-.01489-.00684-.03009-.01367-.04498-.02051-.02448-.01172-.04932-.02295-.07385-.03467-.00281-.00146-.00555-.00293-.00836-.00439-.64276-.30811-1.27893-.62695-1.91162-.95068-.00427-.00195-.00854-.00439-.01282-.00635-.17487-.08936-.34875-.18018-.52277-.27051-.00513-.00293-.01019-.00586-.01532-.0083-.16199-.08447-.3208-.17285-.48199-.2583-.38654-.20508-.77374-.40918-1.15546-.62012-.09412-.05176-.18958-.10205-.28339-.1543-.00299-.00195-.00592-.00391-.00891-.00537-.61377-.34277-1.21924-.6958-1.81897-1.05518-.00317-.00146-.00641-.00342-.00952-.00537-.16003-.0957-.3183-.19336-.47723-.29053-.02032-.01221-.03998-.02539-.06024-.03809-.47253-.28906-.94025-.58301-1.40247-.88281-.00677-.00439-.01379-.00879-.02057-.0127-.12579-.08203-.25323-.16162-.3783-.24414-.09357-.06152-.18304-.12744-.27612-.18945-.48419-.32373-.96539-.65039-1.43677-.98633-.0025-.00146-.00513-.00342-.00769-.00488-.13629-.09717-.26984-.19678-.40503-.29492-.0047-.00342-.00922-.00684-.01385-.01074-.32202-.23389-.63647-.47461-.95166-.71484-.13147-.1001-.26666-.19727-.39697-.29834-.13354-.10352-.26831-.20605-.40057-.31055-.00214-.00195-.00421-.00391-.00635-.00537-.40784-.32373-.80371-.65723-1.19885-.99121-.12482-.10547-.25525-.20605-.37866-.31299-.10394-.08984-.20428-.18262-.30731-.27344-.42865-.37695-.84802-.76172-1.25922-1.15283-.13013-.12354-.26086-.24658-.38916-.37207-.30139-.29395-.58905-.59814-.88098-.89893-.17731-.18286-.3623-.35986-.53516-.54614-.00116-.00122-.00256-.00244-.00372-.00366-.06171-.06641-.11987-.13574-.18103-.20239-.00415-.00464-.00781-.00928-.01196-.01392-.2757-.30151-.53851-.6123-.8031-.92163-.11713-.13696-.2403-.26953-.35547-.40796-.11743-.14087-.23413-.28223-.34924-.4248-.00122-.00146-.00232-.00317-.00354-.00464-.4151-.5144-.82037-1.03564-1.20477-1.5708-.0033-.00464-.00702-.00903-.01038-.01343-.00421-.00586-.00909-.01147-.01331-.01733-6.19012-8.63892.53192-12.77759,6.42194-19.3291.85089-.94653,1.71661-1.88232,2.59241-2.81055.81055-.85913,1.64789-1.69751,2.47565-2.54346ZM664.91583,956.08447c-1.77899.74219-3.57202,1.44385-5.37762,2.104-2.53162.92578-5.08173,1.79102-7.65839,2.55225-3.14148.92798-6.31305,1.73291-9.50677,2.41162-3.19366.6792-6.40955,1.23218-9.6394,1.65674-12.34448,1.62329-24.89154,1.34741-37.19757-.92065-3.36029-.61938-6.70154-1.38599-10.0163-2.30859-.51617-.1438-1.03412-.27612-1.54895-.42725-1.28503-.3772-2.56476-.78247-3.84058-1.2063-.4082-.1355-.8139-.28296-1.22113-.42334-.87067-.30005-1.74017-.60547-2.60596-.92773-.47284-.17578-.94373-.36011-1.41504-.54248-.80353-.31104-1.60529-.62988-2.40411-.95996-.48132-.19897-.96167-.40137-1.44116-.60742-.80359-.34521-1.604-.70239-2.40228-1.06714-.45282-.20703-.90631-.41187-1.35736-.625-.87195-.41235-1.73889-.84229-2.60394-1.27856-.36694-.18506-.73615-.36255-1.10181-.552-1.2301-.63696-2.45416-1.29419-3.66901-1.98022-.02704-.01538-.05365-.03198-.08063-.04736-1.1593-.65601-2.30975-1.33936-3.45422-2.04028-1.38013-.8457-2.75146-1.71777-4.10846-2.62939-.00775-.00513-.01813-.0127-.02618-.01807-.1347-.09106-.29578-.20483-.46936-.32935-.06183-.04419-.1272-.0918-.19354-.13989-.17255-.12573-.35602-.26074-.55798-.41211-.02753-.02075-.05103-.03784-.0791-.05884-.00018,0-.00024-.00024-.00043-.00024-.23688-.17822-.49731-.3772-.76886-.58618-.13654-.10522-.28253-.21875-.42657-.33081-.13275-.10327-.26715-.20776-.40619-.31665-.26355-.2063-.54199-.42627-.82599-.65137-.12012-.09546-.23688-.1875-.36029-.28589-.28302-.22559-.57892-.46362-.87769-.70435-.13098-.10547-.25763-.20679-.3913-.31494-.315-.25488-.64166-.52148-.96973-.78979-.12897-.10547-.25348-.2063-.38416-.31348-.45886-.37646-.92676-.76294-1.4024-1.15845-.35681-.29688-.71606-.59668-1.07849-.90137-3.82397-3.21387-7.8703-6.79321-10.35718-9.36865-1.33954-1.38721-2.23169-2.48633-2.38159-3.07324-.07288-.28516-.00885-.68799.1571-1.17432.0788-.2312.18549-.48486.30896-.7522.14056-.3042.31689-.63647.5069-.97876.05634-.10059.11353-.20166.17316-.30469.19141-.33203.39288-.67163.61859-1.02783.01129-.01807.02423-.03711.03558-.05518.25635-.40308.53143-.8186.82111-1.24219.01471-.02148.02917-.04297.04401-.06445.29608-.43164.60577-.87061.92487-1.31201.00366-.00513.00708-.01001.01074-.01514.00165-.0022.00317-.00439.00482-.00684,1.72028-2.37793,3.68048-4.80176,5.02039-6.40186.02258-.02686.04858-.05859.0708-.08496.1485-.177.27655-.32739.40759-.48169.06982-.08228.15015-.17798.21442-.25317.01959-.02271.03259-.0376.05164-.05981.1507-.17578.29089-.33862.40533-.46948.00739-.00854.01495-.0166.0224-.0249.16058-.18384.32831-.35669.48962-.53931,17.42487-19.71069,39.66711-32.53735,63.37842-38.1521.00647-.00146.01282-.00342.01929-.00488,35.06213-8.29639,73.3194-.84497,103.90375,23.35767.59259.46899,5.35699,4.64478,8.80908,8.47144.00061.00049.00122.00122.00183.00195,1.94464,2.15576,3.47046,4.19873,3.59875,5.40625q.00006,0,.00006.00024c.01276.12012.01483.23389-.0011.33691-.20514,1.32349-2.94617,4.89233-6.39612,8.90454-.89911,1.04565-1.84369,2.11963-2.80725,3.19385-.43018.47974-.86371.95776-1.29742,1.43408-.11316.12402-.22614.24854-.33929.37231-.19348.21167-.38629.42139-.57941.6311-1.42322,1.54639-2.8252,3.03442-4.10986,4.36865-.35046.36401-.68787.71143-1.01892,1.05078-.17291.17725-.34418.35254-.5108.52197-.06024.06128-.12067.12256-.18005.18286-.18347.18628-.36139.36548-.53589.54077-.07196.07227-.14447.14526-.21478.21558-.13123.13135-.25623.25513-.38159.37964-.13629.13501-.2699.26709-.39868.39355-.09918.09741-.19629.19238-.29077.28442-.1369.13306-.26733.25879-.3938.38013-.0766.07324-.15442.14819-.22699.21704-.14227.13501-.27374.25757-.39966.37402-.04462.04126-.09399.08765-.13641.12671-.1662.15186-.31824.28809-.44965.40112-10.50891,9.04346-22.2702,16.2356-34.72302,21.43091ZM692.69141,1090.35425l13.61487-17.39185,4.69891-6.0022.00006-.00024c1.96606,1.62598,4.02734,3.08008,6.16028,4.38672.93317.57178,1.88568,1.10278,2.8465,1.61548.22046.11743.44086.23462.66266.34937.95721.49414,1.92383.96729,2.90509,1.40527.09039.04028.18256.07617.27313.11621.92676.40771,1.86481.78687,2.81061,1.14575.20325.07715.40564.15601.60968.23071,1.01782.37354,2.04419.72266,3.08087,1.0415.13184.04053.26495.07642.39709.11597.96918.29102,1.9458.55737,2.92896.80151.15918.03955.31744.08203.47693.12036,1.07495.2583,2.15704.48926,3.24561.6936.14917.02783.29889.05225.4483.07935,1.03937.18774,2.0835.35327,3.13257.49316.09131.01221.18213.0271.2735.03882,1.11823.14453,2.24115.25928,3.36743.35107.16455.01343.32928.02441.49396.03662,1.12048.0835,2.2431.14795,3.36835.18066.00519,0,.01031.00049.0155.00049,1.13708.03271,2.27576.03467,3.41486.01685.19037-.00293.38043-.00732.5708-.01147.32788-.00757.65576-.0083.98364-.02002.70825-.02515,1.41638-.05908,2.12396-.10303.08264-.00513.16504-.01318.24768-.01855.02948-.00195.05884-.00464.08832-.00659.5799-.03857,1.15967-.07959,1.73865-.13062.30066-.02637.599-.07227.89935-.10205.73651-.07275,1.4707-.15723,2.20471-.24976.5672-.07153,1.13348-.14331,1.69873-.22656.76813-.11279,1.53198-.24268,2.29578-.37646.52496-.09204,1.05042-.17847,1.57294-.28027.84479-.16455,1.68256-.35132,2.51996-.54077.43494-.09814.87274-.18604,1.30542-.29102,1.23407-.29956,2.45947-.62305,3.67261-.9751.02966-.00879.06018-.01514.08984-.02393h.00006c1.11511,1.11621-5.07751,11.38867-12.125,21.79883-.44049.65039-.88428,1.30176-1.32983,1.95117-1.20685,1.75928-2.42511,3.50171-3.62659,5.19287-.61487.86548-1.22516,1.71777-1.82629,2.54834-1.448,2-2.84387,3.88159-4.12891,5.56226-2.14172,2.80078-3.9754,5.04321-5.22882,6.34644-.45038.46826-.82593.81543-1.11401,1.02393-2.6983.37793-5.46124.65869-8.25842.82471-.69934.0415-1.4007.07593-2.10382.10278-2.0976.08032-4.21002.09424-6.32477.0354-.72076-.02002-1.44183-.04834-2.16266-.08569-1.35486-.07031-2.70862-.17358-4.05859-.30786-.86926-.08618-1.73639-.1875-2.60138-.30151-1.18658-.15649-2.36792-.34033-3.54248-.55151-.25726-.04614-.51385-.09424-.77039-.14307-1.08893-.20776-2.17084-.44019-3.24475-.69727-1.04657-.25073-2.08429-.52686-3.11316-.82666-7.53076-2.19409-14.53754-5.73267-20.36572-10.98193-1.8255-1.64429-3.54205-3.44653-5.11505-5.43848l9.80249-12.52173Z"/>
  <path class="h" d="M878.9588,993.59302h-.00012c.59625,26.59668-4.7536,69.61304-15.13367,99.49463,10.38025-29.88159,15.73016-72.89844,15.13379-99.49463Z"/>
  <path class="e" d="M530.85498,564.88086c-10.30444-21.98389-14.73822-42.3208-16.59546-54.10303-3.46063.56689-7.00726.87451-10.62573.87451-.66553,0-1.33545-.01074-2.00879-.03125-4.7887,21.49829-16.3761,39.45532-33.99237,52.90576-5.51581,4.21143-11.61621,7.98584-18.2923,11.28271-9.55206,4.7168-19.89911,8.25732-30.48254,10.81958l12.34937,139.7041s131.94196,9.75269,199.78955-75.40015c.11566-.14502.23541-.28418.35071-.43018-56.89844-15.13525-86.04584-54.80103-100.49243-85.62207Z"/>
  <path class="e" d="M167.92212,739.76709c-17.09021.01025-32.4704,10.36914-38.89703,26.19775-6.42651,15.82861-2.61798,33.97119,9.6319,45.88281,9.46338-30.58447,49.29517-30.52368,58.6181-.03589,12.23547-11.92651,16.02185-30.07349,9.57599-45.89429s-21.83862-26.16089-38.92896-26.15039ZM167.99335,784.09253c-8.41797,0-15.24194-6.82104-15.24194-15.23511s6.82397-15.23511,15.24194-15.23511,15.24213,6.82104,15.24213,15.23511-6.82404,15.23511-15.24213,15.23511Z"/>
  <ellipse class="e" cx="247.37604" cy="981.20599" rx="19.034" ry="19.04291" transform="translate(-734.67116 1225.22115) rotate(-89.80383)"/>
  <path class="e" d="M782.58356,969.35693c-.03571-.07153-.07318-.14111-.10907-.2124-.43964-.87549-.89142-1.73633-1.34998-2.58789-3.83691-7.12598-8.29492-13.34912-12.77704-17.47363-14.68469,13.47021-31.77063,22.7876-48.90503,32.62085,1.07062,4.42871,4.76611,7.4978,6.66772,11.66162,3.32446,7.27905,5.14105,19.05908,4.23096,26.97852,0,.00024-.00006.00024-.00006.00024,15.08655,4.45386,29.19507,4.80322,44.34674.25684,1.13086-.33936,3.09497-1.0271,5.29913-1.92334.73474-.29883,1.49609-.62085,2.26221-.96094.31049-.1377.6214-.27954.93195-.42285,3.3623-1.55249,6.63702-3.40991,7.98138-5.13867.32263-.41504.54065-.82275.6145-1.2168,2.11304-11.27246-2.29498-27.76489-9.19342-41.58154Z"/>
  <path class="e" d="M735.03137,1027.69849c-1.84155-.43433-3.72144-.90527-5.67169-1.40942h-.00012c-.90076,4.45312-2.59082,8.86963-4.19507,13.15283l-10.6759,22.51538h-.00006c1.70172.37036,6.33826,4.63428,8.59399,5.77222,10.69092,5.39282,23.29822,6.56836,35.19177,5.45752.79291-.07422,1.58264-.15845,2.36841-.2522.5874-.07007,1.17529-.13916,1.75793-.21997.20599-.02832.43005-.05908.64783-.08887.71417-.0979,1.48804-.2041,2.30042-.32568,2.27338-.33984,4.84442-.80518,7.25568-1.53491,1.46619-.4436,2.87561-.98145,4.11646-1.65942.46796-.25562.90137-.53809,1.31683-.83398,1.20312-.8562,2.17358-1.87988,2.7533-3.13135,1.9978-4.31299,5.59558-16.51758,6.95593-21.57227.38312-1.42383.7251-2.85791,1.04785-4.29639,1.3266-5.91284,2.19714-11.93335,2.9696-17.93188-10.396,2.93408-19.27429,8.10083-30.22327,8.90259-9.79797.71729-17.68054-.46191-26.50989-2.54419Z"/>
  <path class="e" d="M737.27142,1128.34497c-.00012,0-.00018.00024-.00031.00024-18.1228,2.05713-36.43671-1.51709-50.99835-12.90723-1.41815-1.10913-4.9765-5.41187-7.25305-7.12354-.64282-.4834-1.18921-.77173-1.54932-.70923-.24768.23633-.49792.4729-.74628.70923-5.45923,5.19531-11.05975,10.38696-16.31604,15.8457-.43451.45142-.87244.8999-1.30182,1.35522-.80322.85132-1.5954,1.71118-2.37787,2.57788-.01556.01733-.03149.03418-.0473.05127-.05499.06104-.11237.12036-.16724.1814-.00281.00317-.00574.0061-.00854.00928-.63586.70703-1.28119,1.38525-1.91901,2.04468-.09314.09644-.18665.19336-.27942.28906-.01044.0105-.02026.02075-.0307.03149-2.04749,2.10718-3.98364,4.02808-5.2334,6.05322-.00757.01221-.01434.02466-.02191.03687-.32898.53711-.60925,1.08154-.8302,1.63916-.00446.01147-.00836.02295-.01282.03467-.2475.63184-.41644,1.28125-.49524,1.95459-.00214.01782-.00458.0354-.00659.05322-.05273.48145-.06189.97485-.01459,1.48438.00635.06885.01862.13965.02698.20898.01929.16064.04053.32178.0705.48535.00452.02466.00586.04834.01056.07275.01202.06274.03198.12769.04559.19067.03229.14966.06683.30029.10828.45288.02588.09497.0556.19141.08514.2876.0459.1499.09546.30103.15033.45361.03589.09985.07391.20044.11371.30151.06085.15454.12744.31079.19763.46851.04498.10083.08978.20166.13867.30371.07947.16602.16705.33496.25708.50439.05176.09741.10089.19409.15619.29272.10669.19019.2243.38428.34454.57935.05005.08105.09515.16064.14764.24243.17914.28003.36987.56421.57764.854.00421.00586.00909.01147.01331.01733.00336.00439.00708.00879.01038.01343.3844.5354.78967,1.0564,1.20477,1.5708.00122.00146.00232.00317.00354.00464.11511.14258.23187.28394.34924.4248.00153.00195.0033.00366.00482.00562.3739.44897.75769.89087,1.15375,1.32397.00415.00464.00781.00928.01196.01392.06122.06665.11938.13599.18103.20239.00116.00122.00256.00244.00372.00366.45575.49097.92847.96948,1.41113,1.44019.00171.00195.0033.00342.005.00488.12823.12549.25909.24854.38916.37207.00275.00293.00562.00537.00842.00781.40387.38379.81604.76172,1.23676,1.13232.00476.00439.00928.00879.01404.0127.10297.09082.20337.18359.30731.27344.00189.00146.00397.00293.00586.00488.51221.44287,1.03699.875,1.57166,1.29932.00214.00146.00421.00342.00635.00537.1322.10449.26709.20703.40057.31055.00421.00342.00861.00635.01282.00977.4386.34033.88379.67529,1.33582,1.00342.00464.00391.00916.00732.01385.01074.13513.09814.26874.19775.40503.29492.00256.00146.00519.00342.00769.00488.55939.39893,1.12744.78906,1.70496,1.17041.00262.00146.00531.00342.00793.00537.125.08203.2525.16211.3783.24414.00677.00391.01379.0083.02057.0127.47748.30957.96039.61377,1.44873.91211.0047.00293.00922.00586.01398.00879.15887.09717.3172.19482.47723.29053.00311.00195.00635.00391.00952.00537.59967.35938,1.2052.7124,1.81897,1.05518.00299.00146.00592.00342.00891.00537.09381.05225.18933.10254.28339.1543.01074.00586.02167.01172.03241.01758.5304.29297,1.06567.57959,1.60504.86084.00513.00244.01019.00537.01532.0083.17395.09033.34796.18115.52277.27051.00427.00195.00854.00439.01282.00635.63269.32373,1.26892.64258,1.91162.95068.00281.00146.00555.00293.00836.00439.02448.01172.04932.02295.07385.03467.01489.00684.03009.01367.04498.02051.6142.29346,1.23322.57861,1.8548.8584.00452.00244.00903.00439.01361.00635.18158.08203.36346.16309.54553.24365.0047.00195.00946.00391.01416.00586.57416.25439,1.15057.50391,1.72931.74707.01019.00439.02014.00879.03027.01318.08136.03418.16223.06982.24365.10352.00281.00146.00568.00244.00842.00342.65863.27441,1.32007.54053,1.9826.80127.00415.00146.00818.00342.01233.00488.18054.0708.36133.14111.54211.21094.00604.00244.01208.00439.01807.00684.54669.21191,1.09406.41943,1.64197.62256l.12579.04688c.09546.03564.19086.07178.28638.10693.00378.00146.00751.00244.01129.00391.66241.24268,1.32513.47852,1.98737.7085.0036.00146.0072.00293.0108.00391.05811.02051.11627.04199.17432.0625.01947.00635.03931.01123.05878.01758.00232.00098.00464.00146.00696.00244,7.81787,2.67725,16.48096.58643,22.22754-5.35693l.00293-.00293,6.50305-6.729,26.67999-27.60767h-.00018Z"/>
  <path class="e" d="M763.06915,1096.74121c.06995-.10449.13837-.20825.20801-.31274.27454-.41187.54706-.82275.81708-1.23169.07208-.10913.14459-.21851.21637-.32764.11169-.16943.22058-.33667.33136-.50562.18152-.27686.36182-.55249.54071-.82715.10974-.16846.22003-.33716.32867-.50488.06757-.10425.13538-.2085.20251-.31226.25696-.39746.51062-.79199.76056-1.18286.06787-.1062.13373-.21021.20105-.31592.10858-.17017.21558-.33887.32263-.50781.14709-.23193.2923-.46216.43646-.69116.10669-.16943.21295-.33838.31799-.50635.04883-.07812.09943-.15796.14789-.23584.07581-.12134.14832-.23926.22308-.35986.15997-.25757.3205-.51562.47589-.76855.05988-.09741.11646-.19141.17566-.28809.02917-.04761.05762-.09448.08661-.14185.09027-.14795.18103-.29614.26965-.44214.11041-.18188.21808-.36084.32574-.53979.08344-.13867.16638-.27686.24811-.41357.08002-.13403.1604-.26831.23877-.40063.07159-.12061.13989-.23779.21002-.35669.1037-.17603.20972-.35474.31012-.52734.03436-.05884.06592-.11475.09985-.17334.08289-.14282.16321-.28296.24371-.4231.05286-.09204.10822-.18701.16003-.27783.07538-.13232.14648-.25977.2196-.38916.06335-.11255.12622-.22412.18787-.33447.09241-.16553.1828-.32861.27118-.4895.06073-.1106.11975-.21899.17853-.32739.05884-.10815.12097-.22046.1778-.32642.01776-.0332.03326-.06372.05078-.09644.12994-.24341.25671-.4834.37549-.71362.0177-.03442.03278-.06543.05023-.09961.02802-.05444.05322-.10571.08057-.15967.04639-.09131.09204-.18188.13647-.27075.09167-.18359.1781-.36084.26129-.53442.03815-.07959.07697-.15991.11328-.23706.02716-.05786.0578-.12012.08398-.17651.00714-.01562.0127-.02905.01971-.04443.10803-.23511.20587-.45825.29517-.67065.02032-.04834.03796-.09351.05725-.14062.026-.06348.05042-.12476.07458-.18604.07196-.18213.13519-.35352.19055-.51562.0144-.04224.03186-.08813.04517-.12891.00647-.01978.01544-.04248.02161-.06201.00201-.00635.00293-.01147.00488-.01758.06146-.1958.10437-.36865.13702-.52881.00519-.02539.01373-.05493.01819-.07935.00494-.02734.00488-.04858.00891-.07495.02466-.1604.03809-.30713.02655-.42261-.01398-.13989-.05481-.24658-.12482-.31665h-.00006c-5.25763,1.53198-10.73267,2.58032-16.25934,3.06592-.69086.06079-1.38251.11279-2.07465.15576-.70764.04395-1.41565.07788-2.12396.10303-.87976.03125-1.7597.04395-2.63934.04565-.29126.00049-.58228-.00659-.87341-.00928-.58929-.00562-1.17834-.01538-1.76685-.03467-.34711-.01147-.69379-.02759-1.04053-.0437-.53314-.0249-1.06561-.05566-1.59766-.09229-.36658-.0249-.73303-.05078-1.099-.08154-.52118-.04346-1.04114-.09619-1.56079-.15088-.36218-.03833-.72504-.073-1.0863-.1167-.57629-.06982-1.15015-.15308-1.72388-.23706-.54742-.08032-1.09338-.16699-1.63812-.2605-.55078-.09424-1.1015-.18872-1.64923-.29639-.44067-.08691-.87823-.18604-1.31671-.28174-.39789-.08691-.7959-.17285-1.19177-.26709-.46667-.11108-.93109-.23022-1.39484-.35181-.3584-.09375-.71582-.19043-1.07233-.29028-.48334-.13574-.96564-.27515-1.44537-.42236-.31671-.09717-.63129-.20068-.94629-.30298-.51013-.16577-1.02045-.33081-1.52588-.51001-.20557-.07275-.40833-.15332-.61316-.22852-1.86481-.68359-3.69537-1.46069-5.48474-2.33447-.22192-.1084-.44513-.21362-.66583-.32495-.513-.25903-1.02081-.52954-1.52655-.80444-.24268-.13208-.48468-.26538-.72559-.40112-.49884-.28101-.99463-.56885-1.48578-.86646-.31519-.19092-.62769-.38721-.93951-.58472-.4754-.30103-.94708-.60913-1.41473-.92529-.4682-.31787-.9342-.63989-1.39404-.97388-.23389-.16919-.46619-.34131-.69781-.51489-.6507-.48877-1.29675-.98657-1.92914-1.50879-.00696-.00586-.01416-.01099-.02112-.01685l-.00006.00024-11.92963,15.23877-10.45587,13.35645-5.73059,7.32031h0l-.00018.00024c1.573,1.99194,3.28955,3.79419,5.11505,5.43848.00592.00537.01233.01001.01825.01538.64111.5769,1.30133,1.12573,1.97015,1.66187.15857.12695.31702.25415.47711.37891.66364.51733,1.33728,1.01953,2.02563,1.49854.11646.08105.23596.15723.35309.2373.6106.41699,1.23071.81812,1.85907,1.20605.17029.10498.33911.2124.51068.31543.7005.42065,1.41101.82397,2.13141,1.21021.18921.10156.38074.19824.57129.29736.62415.32471,1.25458.63745,1.89203.93726.15918.07495.31616.15381.47614.22705.73883.33887,1.48767.65796,2.24249.9646.22388.09106.44873.17944.67395.26782.7312.28638,1.46729.5625,2.21143.82031.10461.03613.20917.07202.31403.10767.7605.25903,1.52875.49927,2.30115.72925.1134.03369.22418.07373.33783.10693.08948.02612.18115.04614.27075.07178.87012.25,1.74615.4834,2.62885.69824.07172.01733.14178.03955.21356.05664.11829.02832.23895.04907.35748.0769.93646.21924,1.87726.42505,2.82501.60693.02087.00415.04138.00952.06226.01343.25653.04883.51312.09692.77039.14307.10345.01855.20844.03027.31195.04858.99377.17456,1.99188.33057,2.99426.46606.0791.01074.1571.02637.23627.03687.16168.02124.32446.03589.48633.0564.52789.06641,1.05646.12744,1.58594.18384.17664.0188.35229.0437.52911.06128.06317.00635.12677.0083.18994.0144,1.18579.11548,2.37433.20435,3.56396.27026.10168.00562.203.01807.30469.02319.72083.03735,1.44189.06567,2.16266.08569.10815.00293.216.00098.32416.00342.81152.02002,1.62219.02783,2.43213.02661.22064-.00049.44116.00073.66162-.00098.87787-.00732,1.75372-.02734,2.6275-.05835.0929-.00317.18652-.00244.27936-.0061.19885-.00757.39642-.02026.59503-.02905.34271-.01514.68488-.03149,1.02667-.05029.16046-.00854.32184-.01392.48212-.02344.07947-.00464.15735-.01416.23682-.01904,1.24835-.07666,2.48932-.17627,3.72107-.29712.11401-.01123.22827-.02124.34216-.03271,1.32471-.13452,2.63892-.2915,3.93719-.47339.00702-.00098.01416-.00146.02118-.00244.00177-.00122.00433-.00391.0061-.00513.12653-.09204.27527-.21924.43427-.36279.04352-.03931.08856-.08105.1344-.12427.15131-.14209.31293-.30054.48865-.48193.01819-.01855.03217-.03076.0506-.0498.00458-.00488.01044-.01147.01501-.01636.21979-.229.46198-.49438.7157-.77856.05908-.06641.11804-.13208.17889-.20117.25507-.28955.52264-.59985.80664-.93726.05542-.06592.11395-.13721.17041-.20483.26483-.31689.54034-.65186.82678-1.00513.05469-.06763.10699-.1311.16241-.19971.31854-.39526.65118-.81445.99274-1.24927.0827-.10547.16602-.21167.24994-.31909.34906-.44678.70569-.90698,1.07452-1.38892.04828-.06299.09839-.12939.14697-.19312.34869-.45703.70581-.9292,1.06927-1.41357.07379-.09814.1463-.19434.22064-.2937.39026-.52148.78809-1.05762,1.19189-1.60571.08752-.1189.17554-.23901.26367-.35889.41278-.56201.82953-1.13232,1.25275-1.7168.00659-.00903.01288-.01758.01947-.02661.00348-.00488.00708-.01001.01056-.01465,1.16223-1.60596,2.35815-3.28906,3.55719-5.00537.05585-.08008.11133-.15991.16718-.23975.51562-.7395,1.03113-1.48389,1.54504-2.23169.05756-.08374.11542-.16602.17291-.24976.07922-.11548.15735-.23145.23645-.34692.2901-.42383.57928-.84814.86725-1.27246.07507-.1106.15125-.22119.22614-.33179.1192-.17603.23602-.35132.35468-.52734.19916-.29517.39758-.59009.59503-.88452.10474-.15625.21069-.31299.31488-.46899Z"/>
  <g>
    <path class="e" d="M696.29951,906.52236c1.98297,1.48342,2.27834,4.32978.64223,6.18877-8.44795,9.59874-34.74895,36.28446-68.77994,39.81595-34.03099,3.5315-65.25107-17.18509-75.48996-24.84464-1.98297-1.48342-2.27834-4.32978-.64223-6.18877,8.44795-9.59874,34.74895-36.28446,68.77994-39.81595,34.03099-3.5315,65.25107,17.18509,75.48996,24.84464Z"/>
    <path class="h" d="M621.64044,878.60007c-.10419.00671-.20848.01383-.31286.02138-7.33753.53068-13.80588,4.97132-17.22191,11.48682-7.03283,13.41391-5.74726,24.66867-5.17442,29.78013.5977,5.33333,6.99634,28.18163,19.31612,34.11116,7.07683,3.40609,18.01708.64639,21.68408-3.43761,7.13773-7.9494,10.58521-22.84596,10.58521-31.97705,0-6.46787-1.75747-19.5974-10.92954-31.64545-4.2347-5.56254-10.97009-8.7884-17.94669-8.33937Z"/>
  </g>
</svg>