<?xml version="1.0" encoding="UTF-8"?>
<svg id="a" data-name="Layer 1" xmlns="http://www.w3.org/2000/svg" viewBox="0 0 1233.38306 1334.99013">
  <defs>
    <style>
      .c {
        fill: #e9b22b;
      }

      .d {
        fill: #0f33b8;
      }

      .e {
        fill: #f3f2f2;
      }

      .f {
        fill: #e191ba;
      }

      .g {
        fill: #c8151c;
      }

      .h {
        fill: #fff;
      }

      .i {
        fill: #e5e1d5;
      }

      .j {
        fill: #1e1e1e;
      }

      .k {
        fill: none;
      }

      .l {
        fill: #1e1e1e;
      }

      .m {
        fill: #fafafa;
      }
    </style>
  </defs>
  <path class="k" d="M976.99023,440.40967c-8.59375,2.45166-11.91772,8.45312-19.47339,11.26172h0c7.55566-2.80859,10.87964-8.81006,19.47339-11.26172,4.44531-1.26807,8.62866-1.87598,12.53345-1.91162-3.90479.03564-8.08813.64355-12.53345,1.91162Z"/>
  <path class="l" d="M651.41772,754.90869c3.26147,2.68115,6.55591,5.47412,10,8.51709V54.09082c0-29.82617-24.26465-54.09082-54.09009-54.09082H54.09009C24.26465,0,0,24.26465,0,54.09082v1028.55273c0,29.8252,24.26465,54.08984,54.09009,54.08984h553.23755c29.82544,0,54.09009-24.26465,54.09009-54.08984v-34.34033c-3.79907-10.89551-7.28052-20.61572-10-27.72266-2.48877-6.50439-4.34009-10.82373-5.20166-11.81641-1.85571-2.13818-3.427-4.22363-4.79834-6.2793v80.15869c0,18.79688-15.29272,34.08984-34.09009,34.08984H54.09009c-18.79736,0-34.09009-15.29297-34.09009-34.08984V54.09082c0-18.79785,15.29272-34.09082,34.09009-34.09082h553.23755c18.79736,0,34.09009,15.29297,34.09009,34.09082v692.80859c3.38818,2.6582,6.68066,5.28027,10,8.00928Z"/>
  <path class="c" d="M69.95532,985.48828h0c0,27.21143,22.05884,49.27051,49.27026,49.27051h423.14404c27.21118,0,49.27026-22.05908,49.27026-49.27051h0c0-27.21094-22.05908-49.27002-49.27026-49.27002H119.22559c-27.21143,0-49.27026,22.05908-49.27026,49.27002ZM160.44507,985.48828c0,20.72705-16.80273,37.52979-37.52979,37.52979s-37.52979-16.80273-37.52979-37.52979,16.80249-37.52979,37.52979-37.52979,37.52979,16.80273,37.52979,37.52979Z"/>
  <path class="f" d="M545.36328,334.62451c-25.31738,42.04443-12.11816,118.05859-9.58447,165.41113.90894,16.99072-.81543,34.30762-.07202,51.30859.33081.00586,46.88745,1.41602,67.1145,1.87305.17578-14.59521-.08545-62.32031-.08545-71.66357.00073-40.83887,8.76318-112.2373-21.28955-142.68018-9.60254-9.72754-16.84082-9.82227-27.09912-14.83398-3.27197,2.56104-6.86499,7.06641-8.98389,10.58496ZM562.18262,397.86572c1.8374,1.82959,2.84106,4.56299,4.72949,6.27393,1.05469-4.23828-1.46338-6.19531-2.55273-9.63965-1.93066-6.10498-.95557-14.57324,4.57324-18.29346,4.14795,4.07129,5.22266,10.07617,4.48315,15.68506-.56348,4.27637-4.22241,7.38965-2.92017,12.24805,1.7981-1.55957,2.46191-3.84668,4.14551-5.66748,2.23169-2.41309,10.07593-7.44775,13.1438-5.37061,2.32324,1.57227-3.01343,10.28369-4.77173,11.95361-3.61523,3.43262-8.18774,4.28613-12.52344,5.92725v12.19678l2.16943-3.24414c2.01099-3.00732,4.73413-5.50098,7.98486-7.08838,2.52124-1.23145,5.2605-1.89404,8.30078-1.56885.93018,6.86084-5.34326,13.93115-11.49951,16.17627-2.45654.89648-5.0481.67285-6.95557,1.97266v12.19727l3.26782-4.76562c1.43872-1.59717,3.01953-2.95703,4.8877-4.03955,16.61792-9.62891,10.54199,8.88086-1.02148,13.2583-1.61621.61182-6.85425,1.26123-7.10645,1.52246-.01196.0127-.01758.03662-.02759.05273v1.81982c.05591.63379.09521,1.32666,0,1.93018v8.33984l2.16943-3.24414c2.01099-3.00732,4.73413-5.50098,7.98486-7.08838,2.52124-1.23145,5.2605-1.89404,8.30078-1.56885.93018,6.86084-5.34326,13.93115-11.49951,16.17676-2.45654.89551-5.0481.67236-6.95557,1.97217v12.19727l3.26782-4.76562c1.43872-1.59717,3.01953-2.95752,4.8877-4.03955,16.61792-9.62891,10.54199,8.88086-1.02148,13.25879-1.61621.61133-6.85425,1.26074-7.10645,1.52197-.56812.58936,1.15796,5.1582-1.52637,5.37158-3.80835.30225-2.21143-4.7251-2.72461-5.34277-.22705-.27344-5.38696-1.13623-6.89331-1.73535-4.57349-1.81934-9.58984-6.37158-10.64282-11.37354-.79321-3.76904-.37378-4.51367,3.44653-4.05078,5.41772.65674,9.88525,4.27588,12.86401,8.59277.64844.93945,1.37817,2.03418,1.37817,2.03418-.05957-.5459-.09619-1.39502-.09619-1.5542v-11.00732c-6.08984.51123-13.10547-4.04736-16.0874-9.20654-3.98535-6.89453-3.16895-10,5.1792-6.96191,3.63843,1.32373,7.04761,4.25635,9.27295,7.39209.74609,1.05176,1.57837,2.86621,1.6875,2.97021,0,0-.05225-1.50293-.05225-1.63086v-9.90479c-.01562-.04883-.03174-.09717-.0564-.12695-.22705-.27344-5.38696-1.13623-6.89331-1.73535-4.57349-1.81934-9.58984-6.37158-10.64282-11.37354-.79321-3.76904-.37378-4.51367,3.44653-4.05078,5.41772.65625,9.88525,4.27588,12.86401,8.59277.64844.93945,1.37817,2.03418,1.37817,2.03418-.05957-.5459-.09619-1.39502-.09619-1.55371v-11.00781c-6.08984.51123-13.10547-4.04736-16.0874-9.20654-3.98535-6.89453-3.16895-10,5.1792-6.9624,3.63843,1.32422,7.04761,4.25684,9.27295,7.39258.74609,1.05176,1.57837,2.86621,1.6875,2.97021,0,0-.05225-1.50293-.05225-1.63135v-11.00684c-8.90674-.31787-17.50244-8.04541-17.26538-17.25732,4.7644-.53369,9.78198,1.70459,13.12524,5.0332Z"/>
  <path class="c" d="M100.80493,555.34326h147.18433c17.15161,0,31.05566-13.9043,31.05566-31.05566v-37.63232h-6.73438v-10h6.73438v-186.76904c0-17.15186-13.90405-31.05566-31.05566-31.05566H100.80493c-17.15137,0-31.05542,13.90381-31.05542,31.05566v234.40137c0,17.15137,13.90405,31.05566,31.05542,31.05566ZM132.47217,400.10254c11.39355,4.146,22.06885,13.32959,29.03711,23.14893,2.33691,3.29297,4.94263,8.97461,5.28394,9.30078,0,0-.16284-4.70703-.16284-5.10791v-34.46826c-27.89062-.99414-54.80762-25.19238-54.06543-54.03857,14.91943-1.67236,30.63184,5.3374,41.10059,15.76074,5.75391,5.72949,8.89648,14.28906,14.81055,19.64551,3.30225-13.271-4.58252-19.39941-7.99365-30.18506-6.0459-19.11719-2.99268-45.63574,14.31982-57.28467,12.98926,12.74951,16.35449,31.55225,14.03906,49.11719-1.76465,13.39014-13.22168,23.13867-9.14404,38.35303,5.63037-4.88428,7.70898-12.0459,12.98145-17.74756,6.98779-7.55664,31.55127-23.32129,41.1582-16.81787,7.2749,4.92432-9.43604,32.20312-14.94238,37.43213-11.32031,10.74951-25.63916,13.42139-39.21582,18.56006v38.19434l6.79346-10.15967c6.29712-9.41748,14.82397-17.22559,25.00391-22.19678,7.89453-3.85498,16.47266-5.93018,25.99316-4.91211,2.91309,21.48389-16.73193,43.62451-36.00977,50.65527-7.69238,2.80566-15.80762,2.10645-21.78076,6.17676v38.19482l10.23291-14.92432c4.50537-5.00098,9.45508-9.25977,15.30518-12.64941,52.0376-30.15186,33.01123,27.81055-3.19873,41.51855-5.06055,1.91553-21.46338,3.94824-22.25293,4.76709-1.7793,1.84521,3.62598,16.15137-4.77979,16.81934-11.92529.94775-6.9248-14.79541-8.53174-16.72949-.71094-.85596-16.86914-3.55811-21.58545-5.43408-14.32178-5.69727-30.03027-19.95215-33.32764-35.61572-2.48389-11.80225-1.17041-14.1333,10.79248-12.68359,16.96533,2.05518,30.95508,13.38916,40.28271,26.90674,2.03027,2.94238,4.31543,6.37061,4.31543,6.37061-.18652-1.70996-.30078-4.36865-.30078-4.8667v-34.46875c-19.07031,1.60059-41.03906-12.6748-50.37695-28.83008-12.479-21.58936-9.92285-31.31396,16.21875-21.80127Z"/>
  <rect class="c" x="272.31055" y="476.65527" width="6.73438" height="10"/>
  <path class="c" d="M569.96484,723.00293c4.07202-7.5625,12.35596-10.27686,25.20972-5.95166-1.40186-14.32422-13.47754-25.51758-28.16968-25.51758-15.63428,0-28.30835,12.67383-28.30835,28.30811s12.67407,28.30811,28.30835,28.30811c3.46606,0,6.78564-.62549,9.85498-1.76562-8.77197-8.41602-11.76318-14.34082-6.89502-23.38135Z"/>
  <path class="c" d="M574.84448,806.34717c.29272-1.68896,1.104-3.45264,2.27905-5.23877-3.14307-1.20361-6.55225-1.86963-10.11865-1.86963-15.63428,0-28.30835,12.67383-28.30835,28.30811s12.67407,28.30811,28.30835,28.30811c1.21484,0,2.40942-.08545,3.58398-.23389,4.19873-8.19922,11.93579-17.27002,12.06543-17.86133,0,0-9.60303-21.06787-7.80981-31.4126Z"/>
  <path class="f" d="M1117.81372,684.57471l-14.91235-59.62109h0c-36.72266.45605-59.09277-21.49658-75.12988-51.56738-7.39233,13.51465-21.7395,22.68213-38.22998,22.68213-24.05078,0-43.5481-19.49707-43.5481-43.54834s19.49731-43.54834,43.5481-43.54834c8.52441,0,16.47021,2.45898,23.18506,6.69189,25.37061-28.14502,13.17188-77.49561-23.20288-77.16553-3.90479.03564-8.08813.64355-12.53345,1.91162-8.59375,2.45166-11.91772,8.45312-19.47339,11.26172h0c-.2207-2.15674.75952-5.40332-.30127-7.1499-1.05713-1.74121-29.92188-14.74219-36.10889-18.87305-24.15723-16.12793-47.35059-39.16699-56.80005-67.12598-4.6687-2.54883-15.93262-7.41064-18.64038-9.31592-8.07397,14.89111-63.72217,130.16162-71.23804,149.56201-9.67358,24.96973,27.49414,16.33594,31.28125,21.729.51074,21.72314,1.84106,44.16504,9.38696,63.92969,3.53101-2.48145,6.8606-5.47168,9.99341-9.11719,4.03223-4.69189,4.57617-14.93066,13.79932-8.22021,9.7334,7.08203-8.92578,27.00049-15.83545,32.27051-.14844.11328-.29956.21143-.44849.32129,19.33301,46.70068,75.5415,38.31299,86.24414,38.51465l22.56201,104.13623c52.08643-32.1543,124.88086-56.78076,186.40234-57.75781h0ZM843.80249,477.76465c-18.58325-6.51123-27.92139-24.09082-14.64819-41.65576,4.52051-5.98242,8.23315-4.69971,12.78394-6.78662,4.26709-1.95703,5.13818-4.94971,12.09644-5.64697,14.34204-1.43701,35.20288,9.18555,40.50024,22.93262,6.62305,17.1875-21.71777,34.50098-36.82129,34.93799-6.09009.17627-8.97119-2.05078-13.91113-3.78125ZM888.75684,561.17236c-13.50342,0-24.4502-10.94678-24.4502-24.4502s10.94678-24.45068,24.4502-24.45068,24.4502,10.94727,24.4502,24.45068-10.94678,24.4502-24.4502,24.4502Z"/>
  <path class="f" d="M1027.77148,573.38574v.00049c16.03711,30.0708,38.40723,52.02344,75.12988,51.56738h0c-36.72266.45605-59.09277-21.49658-75.12988-51.56787Z"/>
  <path class="f" d="M957.21558,444.52148c-1.05713-1.74121-29.92188-14.74219-36.10889-18.87305-24.15723-16.12793-47.35059-39.16699-56.80005-67.12598h0c9.44946,27.95898,32.64282,50.99805,56.80005,67.12598,6.18701,4.13086,35.05176,17.13184,36.10889,18.87305,1.06079,1.74658.08057,4.99316.30127,7.1499h0c-.2207-2.15674.75952-5.40332-.30127-7.1499Z"/>
  <path class="f" d="M989.52368,438.49805c36.37476-.33008,48.57349,49.02051,23.20288,77.16553h0c25.37085-28.14502,13.17212-77.49561-23.20288-77.16553Z"/>
  <path class="f" d="M864.30664,358.52246h0c-4.6687-2.54883-15.93286-7.41064-18.64038-9.31592h0c2.70776,1.90527,13.97168,6.76709,18.64038,9.31592h0Z"/>
  <g>
    <path class="d" d="M502.93115,413.14355c-8.32861,0-15.08057,6.75195-15.08057,15.08057,0,1.68799.28955,3.30566.80127,4.82129l-64.4939,43.60986h-145.11304v10h148.17651l67.61548-45.72119c2.34009,1.49365,5.1123,2.37061,8.09424,2.37061,8.32861,0,15.08057-6.75195,15.08057-15.08057s-6.75195-15.08057-15.08057-15.08057Z"/>
    <path class="d" d="M1140.3252,378.05273c-.81177-16.8457-16.33569-15.74756-17.05054-18.90186-.84033-3.70654,1.94971-9.96484,2.0708-14.52686,3.79761-143.12695-123.53394-188.14355-218.21436-85.82861-2.9209,3.15674-9.36621,13.94678-11.15381,15.06494-4.43481,2.77393-17.64746-12.20166-31.35889,7.65283-3.92383,5.68164-24.23633,45.37891-25.62378,50.92969-1.31006,5.24121,2.64136,13.92725,6.67163,16.76367,2.70752,1.90527,13.97168,6.76709,18.64038,9.31592,58.56055,31.96924,149.17603,67.10498,214.30933,81.1001,6.57153,1.41211,38.9519,7.48535,42.92578,6.46826,3.72827-.9541,7.61279-8.96484,8.78662-12.64258,3.06543-9.60498,10.44092-46.18359,9.99683-55.39551Z"/>
    <path class="d" d="M1012.72656,515.66357c-6.71484-4.23291-14.66064-6.69189-23.18506-6.69189-24.05078,0-43.5481,19.49756-43.5481,43.54834s19.49731,43.54834,43.5481,43.54834c16.49048,0,30.83765-9.16748,38.22998-22.68213v-.00049c3.38916-6.19629,5.31836-13.30518,5.31836-20.86572,0-15.52637-8.13232-29.146-20.36328-36.85645ZM989.5415,576.97021c-13.50342,0-24.4502-10.94678-24.4502-24.4502s10.94678-24.4502,24.4502-24.4502c1.65234,0,3.26562.16602,4.82617.47852.47388.09521.94238.2041,1.40601.32568,10.48438,2.75586,18.21826,12.29688,18.21826,23.646,0,1.19531-.09009,2.36914-.25562,3.51855-.58545,4.05908-2.1665,7.79492-4.48975,10.95312h-.00024c-4.45093,6.05029-11.61768,9.97852-19.70483,9.97852Z"/>
  </g>
  <g>
    <path class="e" d="M1017.15649,1243.52197h0l18.64502,1.87158,14.92358-221.94971-18.65869-.00098c-2.58594,44.77197-11.64966,173.51904-14.90991,218.21582h0c-.04517.61768.04492,1.24561,0,1.86328Z"/>
    <path class="h" d="M410.39917,121.80762c-.89575-2.13428-2.22144-3.77441-3.97485-4.91846-1.75342-1.14355-3.92651-1.71533-6.51953-1.71533s-4.78442.58105-6.57666,1.74414c-1.79248,1.16309-3.15454,2.78271-4.08911,4.86133-.66089,1.46973-1.0752,3.12451-1.26855,4.94678h23.61353c-.19629-1.82568-.57983-3.47559-1.18481-4.91846Z"/>
    <path class="h" d="M479.1958,121.80762c-.89551-2.13428-2.22119-3.77441-3.97461-4.91846-1.75342-1.14355-3.92676-1.71533-6.51978-1.71533s-4.78442.58105-6.57666,1.74414-3.15454,2.78271-4.08911,4.86133c-.66089,1.46973-1.0752,3.12451-1.26855,4.94678h23.61377c-.19653-1.82568-.58008-3.47559-1.18506-4.91846Z"/>
    <path class="e" d="M85.3855,985.48828c0,20.72705,16.80249,37.52979,37.52979,37.52979s37.52979-16.80273,37.52979-37.52979-16.80273-37.52979-37.52979-37.52979-37.52979,16.80273-37.52979,37.52979ZM103.12207,989.62549l1.02051-1.30469v-.00049h.00049l1.02002-1.30469c.83447-1.06738,2.27783-1.37207,3.45312-.81543.18701.08838.36816.19385.53809.32666l4.61963,3.61182c1.16357.90918,2.8291.77686,3.83398-.30469l13.10547-14.10547,5.74268-6.18115c1.06885-1.15039,2.86768-1.2168,4.01807-.14795l2.42773,2.25488c1.15039,1.06885,1.2168,2.86768.14795,4.01807l-23.43799,25.22754c-.88232.9502-2.08691,1.4375-3.29834,1.4375-.97266,0-1.9502-.31348-2.77002-.95508l-9.93262-7.76514c-1.2373-.96729-1.45605-2.75439-.48877-3.9917Z"/>
    <path class="i" d="M381.80176,509.71191c.47119-7.32422.94678-14.74268,1.19287-23.05664h-68.88281l-.22363,1.3418-3.72803,63.34717s30.95312-.15137,70.53857-.26367c-.51392-16.2041.271-28.43262,1.10303-41.36865Z"/>
    <path class="i" d="M380.71826,428.46094l4.97754-.47266c1.92017,20.20605,2.51831,35.65576,2.46948,48.66699h35.99268l64.4939-43.60986c-.51172-1.51562-.80127-3.1333-.80127-4.82129,0-8.32861,6.75195-15.08057,15.08057-15.08057s15.08057,6.75195,15.08057,15.08057-6.75195,15.08057-15.08057,15.08057c-2.98193,0-5.75415-.87695-8.09424-2.37061l-67.61548,45.72119h-39.2229c-.24756,8.43457-.72949,15.9541-1.20703,23.37793-.8269,12.85156-1.60693,24.99512-1.09131,41.03369,54.17773-.14648,122.29761-.20801,150.00659.27734-.74341-17.00098.98096-34.31787.07202-51.30859-2.53369-47.35254-15.73291-123.3667,9.58447-165.41113,2.1189-3.51855,5.71191-8.02393,8.98389-10.58496-16.24536-7.93701-32.42139-15.7085-49.19116-22.56348-1.77417-1.18604-4.86548-6.72217-4.86548-8.17871v-34.46875h-100.65723c2.7749,12.22998,4.08154,24.00098,18.13843,27.52539,2.69897.67676,9.47583.0752,9.8335.41309.49658.46924.42651,12.10889.05688,13.66113-.84058,3.52734-57.29736,23.57031-66.55078,28.89111-20.51318,11.79541-30.83008,31.22607-35.55762,53.89062l-9.78418,93.44531h67.39331c.04858-12.88672-.54321-28.18701-2.44458-48.19434Z"/>
    <path class="i" d="M107.96558,698.27441c-1.65674,0-3-1.34277-3-3v-5.80908h-3.33228c-4.19824,0-7.60181,3.40332-7.60181,7.60156v47.41846c0,4.19824,3.40356,7.60156,7.60181,7.60156h47.2085c4.19824,0,7.60156-3.40332,7.60156-7.60156v-47.41846c0-4.19824-3.40332-7.60156-7.60156-7.60156h-3.33252v5.80908c0,1.65723-1.34326,3-3,3s-3-1.34277-3-3v-5.80908h-5.5144v5.80908c0,1.65723-1.34326,3-3,3s-3-1.34277-3-3v-5.80908h-5.51465v5.80908c0,1.65723-1.34326,3-3,3s-3-1.34277-3-3v-5.80908h-5.51465v5.80908c0,1.65723-1.34326,3-3,3ZM134.96582,712.6626c0-.62744.50879-1.13623,1.13672-1.13623h7.02686c.62793,0,1.13672.50879,1.13672,1.13623v7.02686c0,.62744-.50879,1.13623-1.13672,1.13623h-7.02686c-.62793,0-1.13672-.50879-1.13672-1.13623v-7.02686ZM134.96582,727.6499c0-.62744.50879-1.13623,1.13672-1.13623h7.02686c.62793,0,1.13672.50879,1.13672,1.13623v7.02686c0,.62744-.50879,1.13672-1.13672,1.13672h-7.02686c-.62793,0-1.13672-.50928-1.13672-1.13672v-7.02686ZM120.5874,712.6626c0-.62744.50903-1.13623,1.13672-1.13623h7.02686c.62793,0,1.13672.50879,1.13672,1.13623v7.02686c0,.62744-.50879,1.13623-1.13672,1.13623h-7.02686c-.62769,0-1.13672-.50879-1.13672-1.13623v-7.02686ZM120.5874,727.6499c0-.62744.50903-1.13623,1.13672-1.13623h7.02686c.62793,0,1.13672.50879,1.13672,1.13623v7.02686c0,.62744-.50879,1.13672-1.13672,1.13672h-7.02686c-.62769,0-1.13672-.50928-1.13672-1.13672v-7.02686ZM115.50903,734.67676c0,.62744-.50879,1.13672-1.13647,1.13672h-7.02686c-.62769,0-1.13647-.50928-1.13647-1.13672v-7.02686c0-.62744.50879-1.13623,1.13647-1.13623h7.02686c.62769,0,1.13647.50879,1.13647,1.13623v7.02686ZM115.50903,712.6626v7.02686c0,.62744-.50879,1.13623-1.13647,1.13623h-7.02686c-.62769,0-1.13647-.50879-1.13647-1.13623v-7.02686c0-.62744.50879-1.13623,1.13647-1.13623h7.02686c.62769,0,1.13647.50879,1.13647,1.13623Z"/>
    <path class="i" d="M125.23755,786.20557c-15.65894,0-28.35303,12.69434-28.35303,28.35303,0,13.02539,19.61841,38.53418,26.21704,52.95654.83765,1.83057,3.43433,1.83057,4.27197,0,6.59839-14.42236,26.21704-39.93115,26.21704-52.95654,0-15.65869-12.69409-28.35303-28.35303-28.35303ZM125.23608,828.81445c-7.36646,0-13.35962-5.99316-13.35962-13.35938,0-7.36719,5.99316-13.36035,13.35962-13.36035s13.35986,5.99316,13.35986,13.36035c0,7.36621-5.99316,13.35938-13.35986,13.35938Z"/>
    <path class="i" d="M210.85059,712.53027h282.7334c5.16211,0,9.34717-4.18506,9.34717-9.34766,0-5.16211-4.18506-9.34717-9.34717-9.34717H210.85059c-5.16235,0-9.34717,4.18506-9.34717,9.34717,0,5.1626,4.18481,9.34766,9.34717,9.34766Z"/>
    <path class="i" d="M210.85059,745.84814h282.7334c5.16211,0,9.34717-4.18506,9.34717-9.34717,0-5.1626-4.18506-9.34766-9.34717-9.34766H210.85059c-5.16235,0-9.34717,4.18506-9.34717,9.34766,0,5.16211,4.18481,9.34717,9.34717,9.34717Z"/>
    <path class="i" d="M210.85059,821.65332h282.7334c5.16211,0,9.34717-4.18457,9.34717-9.34717s-4.18506-9.34717-9.34717-9.34717H210.85059c-5.16235,0-9.34717,4.18457-9.34717,9.34717s4.18481,9.34717,9.34717,9.34717Z"/>
    <path class="i" d="M210.85059,854.97168h282.7334c5.16211,0,9.34717-4.18506,9.34717-9.34766,0-5.16211-4.18506-9.34717-9.34717-9.34717H210.85059c-5.16235,0-9.34717,4.18506-9.34717,9.34717,0,5.1626,4.18481,9.34766,9.34717,9.34766Z"/>
    <g>
      <path class="m" d="M607.32764,20H54.09009c-18.79736,0-34.09009,15.29297-34.09009,34.09082v1028.55273c0,18.79688,15.29272,34.08984,34.09009,34.08984h553.23755c18.79736,0,34.09009-15.29297,34.09009-34.08984v-80.15869c-7.81958-11.7207-8.97388-22.43457-17.20874-36.00293-8.45117-13.92529-51.4856-47.20312-56.2395-101.93018-.20972-2.41553.91479-5.60156,2.61938-8.93066-1.17456.14844-2.36914.23389-3.58398.23389-15.63428,0-28.30835-12.67383-28.30835-28.30811s12.67407-28.30811,28.30835-28.30811c3.56641,0,6.97559.66602,10.11865,1.86963,5.54077-8.42139,19.35449-17.36035,27.06616-21.51465,3.07812-1.65869,6.41968-3.27832,9.69849-4.24805-11.02002-7.48682-24.39331-17.68945-31.41772-23.85645-2.07031-1.81787-3.94385-3.50586-5.6106-5.10498-3.06934,1.14014-6.38892,1.76562-9.85498,1.76562-15.63428,0-28.30835-12.67383-28.30835-28.30811s12.67407-28.30811,28.30835-28.30811c14.69214,0,26.76782,11.19336,28.16968,25.51758,8.87305,2.98584,19.92261,9.32373,33.27295,19.74463,4.62402,3.60938,8.86865,6.88623,12.97021,10.10352V54.09082c0-18.79785-15.29272-34.09082-34.09009-34.09082ZM440.87891,116.43164c2.57349-4.95605,6.22437-8.81641,10.95166-11.58057,4.72729-2.76465,10.29419-4.14648,16.69922-4.14648,4.49854,0,8.62646.70557,12.38159,2.11621,3.75513,1.41162,7.01489,3.49756,9.77954,6.26221,2.7644,2.76465,4.89893,6.16748,6.40527,10.20801,1.50635,4.04248,2.25879,8.7124,2.25879,14.01172v5.03271h-42.68091c.09521,2.86572.60913,5.31152,1.59033,7.2915,1.08667,2.19287,2.60205,3.83203,4.54663,4.91846,1.94434,1.08643,4.2124,1.62988,6.80542,1.62988,1.79224,0,3.42236-.24707,4.88989-.74365,1.46729-.49512,2.72559-1.23877,3.77441-2.23047,1.04883-.99023,1.83911-2.19141,2.37329-3.60254l17.78589,2.9165c-1.06714,3.66016-2.90747,6.85352-5.5188,9.5791-2.61108,2.72559-5.90991,4.83252-9.8938,6.31982-3.98364,1.48682-8.56934,2.22998-13.75391,2.22998-6.67188,0-12.42969-1.32422-17.27124-3.97461-4.84155-2.6499-8.5498-6.43359-11.12329-11.35205-2.57373-4.91846-3.86035-10.78955-3.86035-17.61426,0-6.55762,1.28662-12.31396,3.86035-17.27148ZM372.08203,116.43164c2.57373-4.95605,6.22412-8.81641,10.9519-11.58057,4.72729-2.76465,10.29419-4.14648,16.69946-4.14648,4.49854,0,8.62646.70557,12.38135,2.11621,3.75513,1.41162,7.01489,3.49756,9.7793,6.26221h.00024c2.7644,2.76465,4.89868,6.16699,6.40503,10.20801,1.50659,4.04248,2.25903,8.7124,2.25903,14.01172v5.03271h-42.68091c.09521,2.86572.60913,5.31152,1.59033,7.2915,1.08667,2.19287,2.60205,3.83203,4.54663,4.91846,1.94434,1.08643,4.21265,1.62988,6.80542,1.62988,1.79248,0,3.42236-.24707,4.88965-.74365,1.46753-.49512,2.72559-1.23877,3.77466-2.23047,1.04883-.99023,1.83911-2.19141,2.37329-3.60254l17.78589,2.9165c-1.06714,3.66016-2.90747,6.85352-5.5188,9.5791s-5.90991,4.83252-9.8938,6.31982c-3.98364,1.48682-8.56909,2.22998-13.75415,2.22998-6.67163,0-12.42944-1.32422-17.271-3.97461-4.84229-2.6499-8.5498-6.43359-11.12354-11.35205-2.57349-4.91846-3.86011-10.78955-3.86011-17.61426,0-6.55762,1.28662-12.31396,3.86011-17.27148ZM338.89282,80.23096h19.95923v85.2124h-19.95923v-85.2124ZM270.5542,80.23096h19.95898v44.37891h.91504l18.30078-23.10449h22.7041l-22.82959,27.89258,23.74463,36.04541h-23.04736l-15.57129-24.40234-4.21631,5.07617v19.32617h-19.95898v-85.2124ZM197.26367,101.50537h18.75806l.34351,13.84131c1.55273-4.02344,3.73022-7.35645,6.54785-9.98096,3.33594-3.10791,7.8252-4.66113,13.46802-4.66113,4.46094,0,8.34985.9917,11.66675,2.97412,3.31689,1.9834,5.89062,4.78564,7.7207,8.40674,1.83008,3.62256,2.74512,7.83496,2.74512,12.63867v40.71924h-19.95923v-36.83008c0-3.5835-.91504-6.396-2.74512-8.43555s-4.38477-3.05957-7.66333-3.05957c-2.1355,0-4.03198.4668-5.69043,1.40088-1.65845.93457-2.94531,2.27881-3.86035,4.03223-.91504,1.75439-1.37256,3.88867-1.37256,6.40479v36.4873h-19.95898v-63.93799ZM165.87817,73.35205c2.54346-2.35107,5.59058-3.52734,9.14282-3.52734,3.59937,0,6.67041,1.17627,9.2146,3.52734,2.54346,2.35303,3.81543,5.23242,3.81543,8.63916,0,3.31104-1.27197,6.14355-3.81543,8.49512-2.54419,2.35254-5.61523,3.52734-9.2146,3.52734-3.55225,0-6.59937-1.18799-9.14282-3.56348-2.54419-2.37598-3.81543-5.21924-3.81543-8.53125,0-3.3584,1.27124-6.21387,3.81543-8.56689ZM185.03638,101.50537v63.93799h-19.95898v-63.93799h19.95898ZM69.74951,289.88623c0-17.15186,13.90405-31.05566,31.05542-31.05566h147.18433c17.15161,0,31.05566,13.90381,31.05566,31.05566v186.76904h36.72461l9.78418-93.44531c4.72754-22.66455,15.04443-42.09521,35.55762-53.89062,9.25342-5.3208,65.71021-25.36377,66.55078-28.89111.36963-1.55225.4397-13.19189-.05688-13.66113-.35767-.33789-7.13452.26367-9.8335-.41309-14.05688-3.52441-15.36353-15.29541-18.13843-27.52539h100.65723v34.46875c0,1.45654,3.09131,6.99268,4.86548,8.17871,16.76978,6.85498,32.9458,14.62646,49.19116,22.56348,10.2583,5.01172,17.49658,5.10645,27.09912,14.83398,30.05273,30.44287,21.29028,101.84131,21.28955,142.68018,0,9.34326.26123,57.06836.08545,71.66357-20.22705-.45703-66.78369-1.86719-67.1145-1.87305-27.70898-.48535-95.82886-.42383-150.00659-.27734.00195.06592.00317.12939.00537.1958l-4.99707.16406c-.00391-.11719-.0061-.22949-.00977-.34619-39.58545.1123-70.53857.26367-70.53857.26367l3.72803-63.34717.22363-1.3418h-35.06689v37.63232c0,17.15137-13.90405,31.05566-31.05566,31.05566H100.80493c-17.15137,0-31.05542-13.9043-31.05542-31.05566v-234.40137ZM542.36963,936.21826c27.21118,0,49.27026,22.05908,49.27026,49.27002s-22.05908,49.27051-49.27026,49.27051H119.22559c-27.21143,0-49.27026-22.05908-49.27026-49.27051s22.05884-49.27002,49.27026-49.27002h423.14404ZM116.48022,689.46533v-5.80908c0-1.65723,1.34326-3,3-3s3,1.34277,3,3v5.80908h5.51465v-5.80908c0-1.65723,1.34326-3,3-3s3,1.34277,3,3v5.80908h5.5144v-5.80908c0-1.65723,1.34326-3,3-3s3,1.34277,3,3v5.80908h3.33252c4.19824,0,7.60156,3.40332,7.60156,7.60156v47.41846c0,4.19824-3.40332,7.60156-7.60156,7.60156h-47.2085c-4.19824,0-7.60181-3.40332-7.60181-7.60156v-47.41846c0-4.19824,3.40356-7.60156,7.60181-7.60156h3.33228v-5.80908c0-1.65723,1.34326-3,3-3s3,1.34277,3,3v5.80908h5.51465ZM153.59058,814.55859c0,13.02539-19.61865,38.53418-26.21704,52.95654-.83765,1.83057-3.43433,1.83057-4.27197,0-6.59863-14.42236-26.21704-39.93115-26.21704-52.95654,0-15.65869,12.69409-28.35303,28.35303-28.35303s28.35303,12.69434,28.35303,28.35303ZM210.85059,727.15332h282.7334c5.16211,0,9.34717,4.18506,9.34717,9.34766,0,5.16211-4.18506,9.34717-9.34717,9.34717H210.85059c-5.16235,0-9.34717-4.18506-9.34717-9.34717,0-5.1626,4.18481-9.34766,9.34717-9.34766ZM201.50342,703.18262c0-5.16211,4.18481-9.34717,9.34717-9.34717h282.7334c5.16211,0,9.34717,4.18506,9.34717,9.34717,0,5.1626-4.18506,9.34766-9.34717,9.34766H210.85059c-5.16235,0-9.34717-4.18506-9.34717-9.34766ZM210.85059,802.95898h282.7334c5.16211,0,9.34717,4.18457,9.34717,9.34717s-4.18506,9.34717-9.34717,9.34717H210.85059c-5.16235,0-9.34717-4.18457-9.34717-9.34717s4.18481-9.34717,9.34717-9.34717ZM210.85059,836.27686h282.7334c5.16211,0,9.34717,4.18506,9.34717,9.34717,0,5.1626-4.18506,9.34766-9.34717,9.34766H210.85059c-5.16235,0-9.34717-4.18506-9.34717-9.34766,0-5.16211,4.18481-9.34717,9.34717-9.34717ZM603.92505,599.11914c0,4.29541-3.48218,7.77783-7.77783,7.77783H77.7334c-4.2959,0-7.77808-3.48242-7.77808-7.77783v-.00049c0-4.29541,3.48218-7.77783,7.77808-7.77783h518.41382c4.29565,0,7.77783,3.48242,7.77783,7.77783v.00049ZM596.14722,226.11572H77.7334c-4.2959,0-7.77808-3.48242-7.77808-7.77832,0-4.29541,3.48218-7.77783,7.77808-7.77783h518.41382c4.29565,0,7.77783,3.48242,7.77783,7.77783,0,4.2959-3.48218,7.77832-7.77783,7.77832Z"/>
      <path class="m" d="M854.03467,423.67529c-6.95825.69727-7.82935,3.68994-12.09644,5.64697,16.15771,10.50098,14.71387,35.69385,1.86426,48.44238,4.93994,1.73047,7.82104,3.95752,13.91113,3.78125,15.10352-.43701,43.44434-17.75049,36.82129-34.93799-5.29736-13.74707-26.1582-24.36963-40.50024-22.93262Z"/>
      <path class="m" d="M995.77368,528.87402c-.46362-.12158-.93213-.23047-1.40601-.32568-1.56055-.3125-3.17383-.47852-4.82617-.47852-13.50342,0-24.4502,10.94678-24.4502,24.4502s10.94678,24.4502,24.4502,24.4502c8.08716,0,15.25391-3.92822,19.70483-9.97852h.00024c2.32324-3.1582,3.9043-6.89404,4.48975-10.95312.16553-1.14941.25562-2.32324.25562-3.51855,0-11.34912-7.73389-20.89014-18.21826-23.646Z"/>
    </g>
  </g>
  <path class="g" d="M888.75684,512.27148c-13.50342,0-24.4502,10.94727-24.4502,24.45068s10.94678,24.4502,24.4502,24.4502,24.4502-10.94678,24.4502-24.4502-10.94678-24.45068-24.4502-24.45068Z"/>
  <path class="f" d="M1017.15649,1243.52197c.04492-.61768-.04517-1.24561,0-1.86328l-92.05029-9.53467-11.39209-3.51855c-45.27393-86.86426-91.19873-173.33789-135.15259-260.83105h0c-2.68604-5.34619-9.81689-13.89355-13.0481-20.49463l-104.0957,53.6499v47.37354c12.20288,34.99756,27.64868,82.0166,31.39893,92.74512,1.86133,5.32471,2.41211,11.15088,3.72803,14.90527,15.82568,45.15479,31.07446,94.40332,48.896,138.37402,2.60938,6.43799,15.90381,37.56104,20.06201,39.56787,81.97974,1.6875,164.07422.9209,246.06152.9209h0c2.56055-30.34131,3.37305-60.93555,5.59229-91.29443Z"/>
  <path class="f" d="M1017.15649,1243.52197h0c.04492-.61768-.04517-1.24561,0-1.86328h0c-.04517.61768.04492,1.24561,0,1.86328Z"/>
  <path class="f" d="M651.41772,1006.0835v14.49707c2.71948,7.10693,6.20093,16.82715,10,27.72266v-47.37354l-10,5.15381Z"/>
  <path class="f" d="M651.41772,1020.58057v-14.49707l-5.20166,2.68066c.86157.99268,2.71289,5.31201,5.20166,11.81641Z"/>
  <path class="f" d="M1017.15649,1243.52197c-2.21924,30.35889-3.03174,60.95312-5.59229,91.29443h0c2.56055-30.34131,3.37305-60.93555,5.59229-91.29443h0Z"/>
  <path class="f" d="M913.71411,1228.60547l11.39209,3.51855,92.05029,9.53467h0l-92.05029-9.53467-11.39209-3.51855c-45.27393-86.86426-91.19873-173.33789-135.15259-260.83105h0c43.95386,87.49316,89.87866,173.9668,135.15259,260.83105Z"/>
  <g>
    <path class="j" d="M140.47412,969.39941c-1.15039-1.06885-2.94922-1.00244-4.01807.14795l-5.74268,6.18115-13.10547,14.10547c-1.00488,1.08154-2.67041,1.21387-3.83398.30469l-4.61963-3.61182c-.16992-.13281-.35107-.23828-.53809-.32666-1.17529-.55664-2.61865-.25195-3.45312.81543l-1.02002,1.30469h-.00049v.00049l-1.02051,1.30469c-.96729,1.2373-.74854,3.02441.48877,3.9917l9.93262,7.76514c.81982.6416,1.79736.95508,2.77002.95508,1.21143,0,2.41602-.4873,3.29834-1.4375l23.43799-25.22754c1.06885-1.15039,1.00244-2.94922-.14795-4.01807l-2.42773-2.25488Z"/>
    <rect class="j" x="69.95532" y="591.34082" width="533.96973" height="15.55615" rx="7.77783" ry="7.77783"/>
    <path class="j" d="M77.7334,226.11572h518.41382c4.29565,0,7.77783-3.48242,7.77783-7.77832,0-4.29541-3.48218-7.77783-7.77783-7.77783H77.7334c-4.2959,0-7.77808,3.48242-7.77808,7.77783,0,4.2959,3.48218,7.77832,7.77808,7.77832Z"/>
    <path class="j" d="M387.99854,486.65527h-5.00391c-.24609,8.31396-.72168,15.73242-1.19287,23.05664-.83203,12.93604-1.61694,25.16455-1.10303,41.36865.00366.1167.00586.229.00977.34619l4.99707-.16406c-.0022-.06641-.00342-.12988-.00537-.1958-.51562-16.03857.2644-28.18213,1.09131-41.03369.47754-7.42383.95947-14.94336,1.20703-23.37793Z"/>
    <path class="j" d="M385.6958,427.98828l-4.97754.47266c1.90137,20.00732,2.49316,35.30762,2.44458,48.19434h5.00244c.04883-13.01123-.54932-28.46094-2.46948-48.66699Z"/>
    <path class="j" d="M201.45947,447.35205c19.27783-7.03076,38.92285-29.17139,36.00977-50.65527-9.52051-1.01807-18.09863,1.05713-25.99316,4.91211-10.17993,4.97119-18.70679,12.7793-25.00391,22.19678l-6.79346,10.15967v-38.19434c13.57666-5.13867,27.89551-7.81055,39.21582-18.56006,5.50635-5.229,22.21729-32.50781,14.94238-37.43213-9.60693-6.50342-34.17041,9.26123-41.1582,16.81787-5.27246,5.70166-7.35107,12.86328-12.98145,17.74756-4.07764-15.21436,7.37939-24.96289,9.14404-38.35303,2.31543-17.56494-1.0498-36.36768-14.03906-49.11719-17.3125,11.64893-20.36572,38.16748-14.31982,57.28467,3.41113,10.78564,11.2959,16.91406,7.99365,30.18506-5.91406-5.35645-9.05664-13.91602-14.81055-19.64551-10.46875-10.42334-26.18115-17.43311-41.10059-15.76074-.74219,28.84619,26.1748,53.04443,54.06543,54.03857v34.46826c0,.40088.16284,5.10791.16284,5.10791-.34131-.32617-2.94702-6.00781-5.28394-9.30078-6.96826-9.81934-17.64355-19.00293-29.03711-23.14893-26.1416-9.5127-28.69775.21191-16.21875,21.80127,9.33789,16.15527,31.30664,30.43066,50.37695,28.83008v34.46875c0,.49805.11426,3.15674.30078,4.8667,0,0-2.28516-3.42822-4.31543-6.37061-9.32764-13.51758-23.31738-24.85156-40.28271-26.90674-11.96289-1.44971-13.27637.88135-10.79248,12.68359,3.29736,15.66357,19.00586,29.91846,33.32764,35.61572,4.71631,1.87598,20.87451,4.57812,21.58545,5.43408,1.60693,1.93408-3.39355,17.67725,8.53174,16.72949,8.40576-.66797,3.00049-14.97412,4.77979-16.81934.78955-.81885,17.19238-2.85156,22.25293-4.76709,36.20996-13.70801,55.23633-71.67041,3.19873-41.51855-5.8501,3.38965-10.7998,7.64844-15.30518,12.64941l-10.23291,14.92432v-38.19482c5.97314-4.07031,14.08838-3.37109,21.78076-6.17676Z"/>
    <path class="j" d="M577.44531,427.4541c6.15625-2.24512,12.42969-9.31543,11.49951-16.17627-3.04028-.3252-5.77954.3374-8.30078,1.56885-3.25073,1.5874-5.97388,4.08105-7.98486,7.08838l-2.16943,3.24414v-12.19678c4.33569-1.64111,8.9082-2.49463,12.52344-5.92725,1.7583-1.66992,7.09497-10.38135,4.77173-11.95361-3.06787-2.07715-10.91211,2.95752-13.1438,5.37061-1.68359,1.8208-2.34741,4.10791-4.14551,5.66748-1.30225-4.8584,2.35669-7.97168,2.92017-12.24805.7395-5.60889-.33521-11.61377-4.48315-15.68506-5.52881,3.72021-6.50391,12.18848-4.57324,18.29346,1.08936,3.44434,3.60742,5.40137,2.55273,9.63965-1.88843-1.71094-2.89209-4.44434-4.72949-6.27393-3.34326-3.32861-8.36084-5.56689-13.12524-5.0332-.23706,9.21191,8.35864,16.93945,17.26538,17.25732v11.00684c0,.12842.05225,1.63135.05225,1.63135-.10913-.104-.94141-1.91846-1.6875-2.97021-2.22534-3.13574-5.63452-6.06836-9.27295-7.39258-8.34814-3.0376-9.16455.06787-5.1792,6.9624,2.98193,5.15918,9.99756,9.71777,16.0874,9.20654v11.00781c0,.15869.03662,1.00781.09619,1.55371,0,0-.72974-1.09473-1.37817-2.03418-2.97876-4.31689-7.44629-7.93652-12.86401-8.59277-3.82031-.46289-4.23975.28174-3.44653,4.05078,1.05298,5.00195,6.06934,9.5542,10.64282,11.37354,1.50635.59912,6.66626,1.46191,6.89331,1.73535.02466.02979.04077.07812.0564.12695v9.90479c0,.12793.05225,1.63086.05225,1.63086-.10913-.104-.94141-1.91846-1.6875-2.97021-2.22534-3.13574-5.63452-6.06836-9.27295-7.39209-8.34814-3.03809-9.16455.06738-5.1792,6.96191,2.98193,5.15918,9.99756,9.71777,16.0874,9.20654v11.00732c0,.15918.03662,1.0083.09619,1.5542,0,0-.72974-1.09473-1.37817-2.03418-2.97876-4.31689-7.44629-7.93604-12.86401-8.59277-3.82031-.46289-4.23975.28174-3.44653,4.05078,1.05298,5.00195,6.06934,9.5542,10.64282,11.37354,1.50635.59912,6.66626,1.46191,6.89331,1.73535.51318.61768-1.08374,5.64502,2.72461,5.34277,2.68433-.21338.95825-4.78223,1.52637-5.37158.2522-.26123,5.49023-.91064,7.10645-1.52197,11.56348-4.37793,17.6394-22.8877,1.02148-13.25879-1.86816,1.08203-3.44897,2.44238-4.8877,4.03955l-3.26782,4.76562v-12.19727c1.90747-1.2998,4.49902-1.07666,6.95557-1.97217,6.15625-2.24561,12.42969-9.31592,11.49951-16.17676-3.04028-.3252-5.77954.3374-8.30078,1.56885-3.25073,1.5874-5.97388,4.08105-7.98486,7.08838l-2.16943,3.24414v-8.33984c.09521-.60352.05591-1.29639,0-1.93018v-1.81982c.01001-.01611.01562-.04004.02759-.05273.2522-.26123,5.49023-.91064,7.10645-1.52246,11.56348-4.37744,17.6394-22.88721,1.02148-13.2583-1.86816,1.08252-3.44897,2.44238-4.8877,4.03955l-3.26782,4.76562v-12.19727c1.90747-1.2998,4.49902-1.07617,6.95557-1.97266Z"/>
    <rect class="j" x="106.20923" y="711.52637" width="9.2998" height="9.29932" rx="1.13647" ry="1.13647"/>
    <path class="j" d="M121.72363,711.52637h7.02734c.62737,0,1.13672.50935,1.13672,1.13672v7.02588c0,.62737-.50935,1.13672-1.13672,1.13672h-7.02734c-.6271,0-1.13623-.50913-1.13623-1.13623v-7.02686c0-.6271.50913-1.13623,1.13623-1.13623Z"/>
    <path class="j" d="M136.10205,711.52637h7.02783c.6271,0,1.13623.50913,1.13623,1.13623v7.02637c0,.62737-.50935,1.13672-1.13672,1.13672h-7.02686c-.62737,0-1.13672-.50935-1.13672-1.13672v-7.02637c0-.6271.50913-1.13623,1.13623-1.13623Z"/>
    <path class="j" d="M107.3457,726.51367h7.02661c.62737,0,1.13672.50935,1.13672,1.13672v7.02686c0,.6271-.50913,1.13623-1.13623,1.13623h-7.0271c-.62724,0-1.13647-.50924-1.13647-1.13647v-7.02686c0-.62724.50924-1.13647,1.13647-1.13647Z"/>
    <path class="j" d="M121.72363,726.51367h7.02734c.62737,0,1.13672.50935,1.13672,1.13672v7.02637c0,.62737-.50935,1.13672-1.13672,1.13672h-7.02686c-.62737,0-1.13672-.50935-1.13672-1.13672v-7.02686c0-.6271.50913-1.13623,1.13623-1.13623Z"/>
    <path class="j" d="M136.10205,726.51367h7.02734c.62737,0,1.13672.50935,1.13672,1.13672v7.02637c0,.62737-.50935,1.13672-1.13672,1.13672h-7.02686c-.62737,0-1.13672-.50935-1.13672-1.13672v-7.02686c0-.6271.50913-1.13623,1.13623-1.13623Z"/>
    <path class="j" d="M107.96558,680.65625c-1.65674,0-3,1.34277-3,3v11.61816c0,1.65723,1.34326,3,3,3s3-1.34277,3-3v-11.61816c0-1.65723-1.34326-3-3-3Z"/>
    <path class="j" d="M119.48022,680.65625c-1.65674,0-3,1.34277-3,3v11.61816c0,1.65723,1.34326,3,3,3s3-1.34277,3-3v-11.61816c0-1.65723-1.34326-3-3-3Z"/>
    <path class="j" d="M130.99487,698.27441c1.65674,0,3-1.34277,3-3v-11.61816c0-1.65723-1.34326-3-3-3s-3,1.34277-3,3v11.61816c0,1.65723,1.34326,3,3,3Z"/>
    <path class="j" d="M142.50928,680.65625c-1.65674,0-3,1.34277-3,3v11.61816c0,1.65723,1.34326,3,3,3s3-1.34277,3-3v-11.61816c0-1.65723-1.34326-3-3-3Z"/>
    <path class="j" d="M125.23608,828.81445c7.3667,0,13.35986-5.99316,13.35986-13.35938,0-7.36719-5.99316-13.36035-13.35986-13.36035s-13.35962,5.99316-13.35962,13.36035c0,7.36621,5.99316,13.35938,13.35962,13.35938Z"/>
    <path class="j" d="M921.10669,425.64844c6.18701,4.13086,35.05176,17.13184,36.10889,18.87305,1.06079,1.74658.08057,4.99316.30127,7.1499,7.55566-2.80859,10.87964-8.81006,19.47339-11.26172,4.44531-1.26807,8.62866-1.87598,12.53345-1.91162,36.375-.33008,48.57373,49.02051,23.20288,77.16553,12.23096,7.71045,20.36328,21.33008,20.36328,36.85645,0,7.56055-1.9292,14.66943-5.31836,20.86572,16.03711,30.07129,38.40723,52.02393,75.12988,51.56787,15.30273-.18994,31.67017-5.53418,43.76025-14.94922,4.03564-3.14258,21.49609-20.71582,15.64307-22.03857-23.78833-5.37695-29.98193-27.16553-29.58667-29.11084,51.86743-3.02441,59.68628-42.36523,59.65649-45.69043-33.94409-3.56299-61.80347-35.39941-70.83276-67.07373-3.97388,1.01709-36.35425-5.05615-42.92578-6.46826-65.1333-13.99512-155.74878-49.13086-214.30933-81.1001,9.44946,27.95898,32.64282,50.99805,56.80005,67.12598Z"/>
    <path class="j" d="M823.05371,599.36035c6.90967-5.27002,25.56885-25.18848,15.83545-32.27051-9.22314-6.71045-9.76709,3.52832-13.79932,8.22021-3.13281,3.64551-6.4624,6.63574-9.99341,9.11719,2.02271,5.29834,4.48706,10.40674,7.50879,15.25439.14893-.10986.30005-.20801.44849-.32129Z"/>
    <path class="j" d="M843.80249,477.76465c12.84961-12.74854,14.29346-37.94141-1.86426-48.44238-4.55078,2.08691-8.26343.8042-12.78394,6.78662-13.27319,17.56494-3.93506,35.14453,14.64819,41.65576Z"/>
    <path class="j" d="M1175.59839,690.16406c-18.18555-3.59521-39.29883-5.88281-57.78467-5.58936-61.52148.97705-134.31592,25.60352-186.40234,57.75781-79.80225,49.26465-135.75122,133.36377-152.84985,225.44189,43.95386,87.49316,89.87866,173.9668,135.15259,260.83105l11.39209,3.51855,92.05029,9.53467c3.26025-44.69678,12.32397-173.44385,14.90991-218.21582l18.65869.00098-14.92358,221.94971-18.64502-1.87158c-2.21924,30.35889-3.03174,60.95312-5.59229,91.29443h221.81885v-626.02051c-19.44702-6.44141-37.47217-14.61572-57.78467-18.63184Z"/>
    <path class="j" d="M726.3689,850.396l-18.47314-32.44873c-8.82056-18.89941-25.48535-35.29883-40.82764-49.42725-1.94092-1.7876-3.81519-3.47314-5.65039-5.09424-3.44409-3.04297-6.73853-5.83594-10-8.51709-3.31934-2.729-6.61182-5.35107-10-8.00928-4.10156-3.21729-8.34619-6.49414-12.97021-10.10352-13.35034-10.4209-24.3999-16.75879-33.27295-19.74463-12.85376-4.3252-21.1377-1.61084-25.20972,5.95166-4.86816,9.04053-1.87695,14.96533,6.89502,23.38135,1.66675,1.59912,3.54028,3.28711,5.6106,5.10498,7.02441,6.16699,20.39771,16.36963,31.41772,23.85645-3.27881.96973-6.62036,2.58936-9.69849,4.24805-7.71167,4.1543-21.52539,13.09326-27.06616,21.51465-1.17505,1.78613-1.98633,3.5498-2.27905,5.23877-1.79321,10.34473,7.80981,31.4126,7.80981,31.4126-.12964.59131-7.8667,9.66211-12.06543,17.86133-1.70459,3.3291-2.8291,6.51514-2.61938,8.93066,4.75391,54.72705,47.78833,88.00488,56.2395,101.93018,8.23486,13.56836,9.38916,24.28223,17.20874,36.00293,1.37134,2.05566,2.94263,4.14111,4.79834,6.2793l5.20166-2.68066,10-5.15381,104.0957-53.6499c-5.67749-11.59814-23.3479-47.91943-24.30762-58.61426l-14.83691-38.26953Z"/>
    <rect class="j" x="165.07739" y="101.50537" width="19.95898" height="63.93799"/>
    <path class="j" d="M175.021,94.01367c3.59937,0,6.67041-1.1748,9.2146-3.52734,2.54346-2.35156,3.81543-5.18408,3.81543-8.49512,0-3.40674-1.27197-6.28613-3.81543-8.63916-2.54419-2.35107-5.61523-3.52734-9.2146-3.52734-3.55225,0-6.59937,1.17627-9.14282,3.52734-2.54419,2.35303-3.81543,5.2085-3.81543,8.56689,0,3.31201,1.27124,6.15527,3.81543,8.53125,2.54346,2.37549,5.59058,3.56348,9.14282,3.56348Z"/>
    <path class="j" d="M217.22266,128.95605c0-2.51611.45752-4.65039,1.37256-6.40479.91504-1.75342,2.2019-3.09766,3.86035-4.03223,1.65845-.93408,3.55493-1.40088,5.69043-1.40088,3.27856,0,5.83325,1.02002,7.66333,3.05957s2.74512,4.85205,2.74512,8.43555v36.83008h19.95923v-40.71924c0-4.80371-.91504-9.01611-2.74512-12.63867-1.83008-3.62109-4.40381-6.42334-7.7207-8.40674-3.31689-1.98242-7.20581-2.97412-11.66675-2.97412-5.64282,0-10.13208,1.55322-13.46802,4.66113-2.81763,2.62451-4.99512,5.95752-6.54785,9.98096l-.34351-13.84131h-18.75806v63.93799h19.95898v-36.4873Z"/>
    <polygon class="j" points="290.51318 146.11719 294.72949 141.04102 310.30078 165.44336 333.34814 165.44336 309.60352 129.39795 332.43311 101.50537 309.729 101.50537 291.42822 124.60986 290.51318 124.60986 290.51318 80.23096 270.5542 80.23096 270.5542 165.44336 290.51318 165.44336 290.51318 146.11719"/>
    <rect class="j" x="338.89282" y="80.23096" width="19.95923" height="85.2124"/>
    <path class="j" d="M383.20557,162.66943c4.84155,2.65039,10.59937,3.97461,17.271,3.97461,5.18506,0,9.77051-.74316,13.75415-2.22998,3.98389-1.4873,7.28247-3.59424,9.8938-6.31982s4.45166-5.91895,5.5188-9.5791l-17.78589-2.9165c-.53418,1.41113-1.32446,2.6123-2.37329,3.60254-1.04907.9917-2.30713,1.73535-3.77466,2.23047-1.46729.49658-3.09717.74365-4.88965.74365-2.59277,0-4.86108-.54346-6.80542-1.62988-1.94458-1.08643-3.45996-2.72559-4.54663-4.91846-.9812-1.97998-1.49512-4.42578-1.59033-7.2915h42.68091v-5.03271c0-5.29932-.75244-9.96924-2.25903-14.01172-1.50635-4.04102-3.64062-7.44336-6.40503-10.20801h-.00024c-2.7644-2.76465-6.02417-4.85059-9.7793-6.26221-3.75488-1.41064-7.88281-2.11621-12.38135-2.11621-6.40527,0-11.97217,1.38184-16.69946,4.14648-4.72778,2.76416-8.37817,6.62451-10.9519,11.58057-2.57349,4.95752-3.86011,10.71387-3.86011,17.27148,0,6.82471,1.28662,12.6958,3.86011,17.61426,2.57373,4.91846,6.28125,8.70215,11.12354,11.35205ZM389.23901,121.7793c.93457-2.07861,2.29663-3.69824,4.08911-4.86133,1.79224-1.16309,3.98364-1.74414,6.57666-1.74414s4.76611.57178,6.51953,1.71533c1.75342,1.14404,3.0791,2.78418,3.97485,4.91846.60498,1.44287.98853,3.09277,1.18481,4.91846h-23.61353c.19336-1.82227.60767-3.47705,1.26855-4.94678Z"/>
    <path class="j" d="M452.0022,162.66943c4.84155,2.65039,10.59937,3.97461,17.27124,3.97461,5.18457,0,9.77026-.74316,13.75391-2.22998,3.98389-1.4873,7.28271-3.59424,9.8938-6.31982,2.61133-2.72559,4.45166-5.91895,5.5188-9.5791l-17.78589-2.9165c-.53418,1.41113-1.32446,2.6123-2.37329,3.60254-1.04883.9917-2.30713,1.73535-3.77441,2.23047-1.46753.49658-3.09766.74365-4.88989.74365-2.59302,0-4.86108-.54346-6.80542-1.62988-1.94458-1.08643-3.45996-2.72559-4.54663-4.91846-.9812-1.97998-1.49512-4.42578-1.59033-7.2915h42.68091v-5.03271c0-5.29932-.75244-9.96924-2.25879-14.01172-1.50635-4.04053-3.64087-7.44336-6.40527-10.20801-2.76465-2.76465-6.02441-4.85059-9.77954-6.26221-3.75513-1.41064-7.88306-2.11621-12.38159-2.11621-6.40503,0-11.97192,1.38184-16.69922,4.14648-4.72729,2.76416-8.37817,6.62451-10.95166,11.58057-2.57373,4.95752-3.86035,10.71387-3.86035,17.27148,0,6.82471,1.28662,12.6958,3.86035,17.61426,2.57349,4.91846,6.28174,8.70215,11.12329,11.35205ZM458.03564,121.7793c.93457-2.07861,2.29688-3.69824,4.08911-4.86133s3.98364-1.74414,6.57666-1.74414,4.76636.57178,6.51978,1.71533c1.75342,1.14404,3.0791,2.78418,3.97461,4.91846.60498,1.44287.98853,3.09277,1.18506,4.91846h-23.61377c.19336-1.82227.60767-3.47705,1.26855-4.94678Z"/>
  </g>
</svg>