<?xml version="1.0" encoding="UTF-8"?>
<svg id="a" data-name="Layer 1" xmlns="http://www.w3.org/2000/svg" viewBox="0 0 577.77144 641.05408">
  <defs>
    <style>
      .b {
        fill: #f1f0f2;
      }

      .c {
        fill: #7e74b2;
      }

      .d {
        fill: #db88b9;
      }
    </style>
  </defs>
  <path class="d" d="M522.96203,299.79878s-32.29177-41.86716-48.65099-32.2967-70.22734,78.25296-68.166,90.48741c2.06134,12.23445,25.04041,56.68847,52.52992,50.36427,27.4895-6.3242,70.57172-92.32307,64.28707-108.55498Z"/>
  <path class="d" d="M447.8631,257.94815c2.92344-7.41665,1.2905-15.8465-4.16834-21.65634-12.39735-13.19449-39.5522-39.62345-51.95893-32.36528-16.35922,9.57046-70.22734,78.25296-68.166,90.48741,2.06134,12.23445,39.35121,59.22216,63.44251,44.54983,14.21889-8.65974,50.55117-54.88599,60.85076-81.01562Z"/>
  <path class="c" d="M384.97244,126.88755s184.60321,121.75714,191.46768,135.71771c6.86447,13.96057-14.76091,24.39457-20.62351,23.77135-5.8626-.62322-158.35882-118.50964-164.6348-116.90026-6.27599,1.60938-84.97626,117.58321-95.7808,121.26832-10.80455,3.68511-39.32235-30.60193-36.33318-37.7001,2.98917-7.09817,108.1797-127.72684,112.70181-129.77906,4.52211-2.05223,13.20281,3.62204,13.20281,3.62204Z"/>
  <path class="c" d="M233.88873,272.28129c15.44473,1.42777,221.57057,169.54986,229.62316,177.49978,8.96345,8.84916,36.01557-24.35416,46.55533-38.80437,9.68597-13.27965,39.19542,3.42562,37.07742,17.22238s-32.8796,46.81586-43.94777,56.43212c-24.07529,20.91714-39.89784,24.5005-59.54083,7.23435-17.36989-15.2681-197.49356-151.05403-238.94895-182.27599-5.07319-3.82085-5.95775-11.06159-1.99438-16.02423,7.89286-9.88286,20.93315-22.23093,31.17601-21.28404Z"/>
  <path class="b" d="M251.52964,420.26353c-7.57867,5.94887-35.19595-18.29639-37.70921-20.17733s-64.69637-35.79397-58.8114-44.22608c5.88497-8.43211,23.14918-41.08738,53.61142-22.24311,30.46224,18.84427,56.72421,36.35698,52.67089,55.07436-4.05332,18.71738-4.4505,27.40313-9.7617,31.57216Z"/>
  <path class="b" d="M65.06184,467.79402c4.80149-4.22005,11.86791-4.608,17.03902-.84997,28.214,20.50406,80.48478,50.97321,79.10977,57.57608-1.51678,7.28362-13.31998,33.23236-54.95055,17.154-41.63057-16.07835-51.92681-55.29522-49.25319-63.52182,1.16311-3.57883,4.57311-7.29808,8.05495-10.35829Z"/>
  <path class="b" d="M137.09315,373.30197c3.0337-3.7911,8.38446-4.77058,12.53154-2.24521,28.31016,17.23948,83.80207,51.07465,82.64422,58.99227-1.26008,8.61668-14.81205,16.77388-22.23264,17.23862-7.42059.46473-73.42339-48.96063-78.93624-56.27642-3.30439-4.38507,1.56302-12.17314,5.99311-17.70926Z"/>
  <path class="b" d="M203.31912,464.17144c4.09912,9.48065-15.18938,16.65087-23.46397,15.65057-8.27459-1.0003-65.55537-49.9535-71.9359-56.55677s10.57192-22.26048,18.09404-22.39334c7.52211-.13286,73.93886,55.51224,77.30583,63.29953Z"/>
  <path class="b" d="M169.4176,489.3336c3.70174,3.68179,4.33352,9.51413,1.35747,13.80384-2.57179,3.707-5.40412,5.99131-7.22171,5.9702-2.9392-.03415-79.05204-49.09958-79.82736-54.71758-.77532-5.61799,13.71099-21.4345,22.44473-20.79959,7.10819.51674,48.19774,40.77508,63.24687,55.74313Z"/>
  <path class="c" d="M471.66139,134.90707c6.45937-30.80292-8.27343-44.84295-8.27343-44.84295,0,0,7.27784-12.9219,16.13018-13.9893,8.85234-1.06741,30.4242,27.37289,37.33097,24.8338,6.90677-2.53909,37.38415-23.47773,21.63768-32.31699C522.74033,59.75238,449.41478-.78595,441.80248.00773c-7.6123.79369-29.40758,23.09212-23.24431,26.90383,6.16327,3.81171,29.84723,16.82749,26.15999,23.69932-3.68724,6.87183-8.21281,14.7188-13.22082,17.13627,0,0-21.0388-7.05073-44.16871,3.3915-7.94102,3.58506-11.38699,13.73705-12.76307,19.71181-.64266,2.79036.42771,5.68679,2.72125,7.40108,5.83752,4.36322,17.42106,11.54186,23.35349,5.04752,1.1435-1.25181,5.64375-8.8301,11.40995-10.29686,16.75876-4.26294,28.33802,2.83338,28.95702,20.11475.20133,5.62075-2.53072,13.91022-1.53553,14.99747,1.87392,2.04727,14.23241,5.45483,21.18761,10.83747,4.03204,3.12039,9.95566.94509,11.00205-4.04483Z"/>
  <path class="c" d="M94.73714,553.7181c1.49692-6.9613-32.22348-34.3166-34.83189-32.50121-2.60841,1.81539-32.45819,49.05393-36.37981,58.81352-3.92162,9.7596,4.90968,7.56118-.22439,16.41636-5.13407,8.85519-24.27676,34.26651-23.26218,39.1858s2.20714,7.31227,6.26914,3.63948,27.16355-29.28496,32.49928-35.49654c5.33573-6.21158,12.61008-.44898,18.44539-7.13139,5.83531-6.68241,35.15858-32.10968,37.48447-42.92602Z"/>
</svg>