<?xml version="1.0" encoding="UTF-8"?>
<svg id="a" data-name="Layer 1" xmlns="http://www.w3.org/2000/svg" viewBox="0 0 1264.58488 1096.84692">
  <defs>
    <style>
      .c {
        fill: #e9b22b;
      }

      .d {
        fill: #0b3d9f;
      }

      .e {
        fill: #fff;
      }

      .f {
        fill: #e5e1d5;
      }

      .g {
        fill: #1e1e1e;
      }

      .h {
        fill: none;
      }

      .i {
        fill: #f3f0ee;
      }

      .j {
        fill: #f5f5f6;
      }

      .k {
        fill: #db88b9;
      }

      .l {
        fill: #f9f3ef;
      }
    </style>
  </defs>
  <path class="c" d="M214.44269,860.85916c-26.7249-31.76997-52.30476-65.16714-70.80785-102.58378-14.84655-30.02244-27.71372-63.87318-31.12394-97.29423,1.79033-1.74789,8.30667,4.05591,10.0038,5.48495,29.24966,24.6292,55.88258,55.44682,78.94799,85.23481,3.35901,4.33801,5.66539,9.66478,9.97173,13.2181-1.53303-10.8332-6.84427-21.53295-10.43789-32.02532-20.24098-59.09802-33.74414-124.44867-30.56752-187.37863.10784-2.13643,1.10844-13.87062,1.51384-14.47492.76416-1.13906,1.6226-1.19701,2.88028-.84887,1.76677.48906,18.67107,26.1484,21.0465,29.9405,22.48115,35.88859,39.36271,75.00435,56.05456,113.8392,2.30551-43.64605,10.98602-87.10805,24.21377-128.68075,1.41302-4.44089,11.60269-34.7381,13.21527-35.75401.98875-.6229,1.93774-.5294,3.02524-.45343,10.40861,31.07332,18.67743,62.74604,24.99988,94.9369-43.87595,48.64293-64.2271,115.63049-67.00577,180.33964-2.3492,54.70771,13.26789,90.19318,7.32438,145.1194-5.4303-4.05219-10.2412,7.72752-14.27239,2.33609,7.50799-24.41358,6.97099-64.53433-4.81636-87.62645-1.68246-3.29605-2.39328-6.52721-6.51428-4.17852-2.33931,1.33324-15.78104,17.84704-17.65125,20.84932Z"/>
  <path class="c" d="M1137.71352,704.72936c29.59736-23.726,58.45756-49.11387,81.68926-79.3616,18.6407-24.27024,36.18754-52.32335,45.1821-81.67159-1.29405-1.88467-8.16562,2.15929-9.94061,3.13855-30.59148,16.87739-59.93719,39.76618-85.90252,62.36601-3.78132,3.2912-6.79489,7.65562-11.28585,10.07521,3.29879-9.43705,9.96015-18.0832,15.04523-26.84866,28.64155-49.37125,52.35515-105.54366,60.68914-162.51007.28293-1.93397,1.47101-12.62871,1.21503-13.24236-.48251-1.15668-1.2416-1.36113-2.43068-1.27257-1.67039.12441-21.38017,20.11855-24.18294,23.09523-26.5256,28.1714-48.60587,60.2301-70.46619,92.07075,5.68846-39.52812,5.63052-80.02395,1.16136-119.63441-.47741-4.23128-4.22701-33.1961-5.49181-34.39314-.77551-.73396-1.64267-.81877-2.63086-.9439-14.84984,26.00062-27.88835,52.91865-39.27447,80.64689-74.1542,138.46582-108.0807,141.87522-117.08747,200.36554-7.61468,49.45007,115.07559,68.30436,110.64355,118.5889,5.58696-2.66701,9.91427-7.90705,14.48521-12.02297-2.39148-23.21505,5.21827-59.07852,19.88577-77.68089,2.09356-2.6552,3.30474-5.42489,6.58095-2.58764,1.85976,1.61058,10.97304,18.7996,12.11582,21.82273Z"/>
  <g>
    <path class="g" d="M987.40185,264.82816c-2.93921-.45483-5.12842,3.229-6.0354,5.57446-1.80835,4.67529-4.573,12.36475-5.88989,17.14087-1.88477,6.83765,4.30151,9.19116,7.2627,3.6626,1.71289-3.19824,7.43604-18.42969,7.77393-21.64771.23975-2.28247-.64575-4.34863-3.11133-4.73022Z"/>
    <path class="g" d="M957.89623,253.83988c-1.75537-.2312-3.198,1.29199-3.94019,2.73413-2.2251,4.32007-5.55444,14.50024-6.66235,19.36914-1.37573,6.04492,4.38135,9.0022,6.85913,4.61133,1.85254-3.2832,7.23218-18.33691,7.46606-21.90039.17432-2.66284-.94629-4.44824-3.72266-4.81421Z"/>
    <path class="g" d="M970.76318,259.69217c-2.87476,1.31616-3.49365,6.2583-4.36548,8.64185-1.34644,3.68066-6.28418,14.67358-5.2063,17.94629,1.06641,3.23975,5.39209,3.09302,7.09009.05176,2.02905-3.63452,6.59351-16.27954,7.61938-20.48242.90649-3.71289-.94629-8.07642-5.1377-6.15747Z"/>
    <path class="g" d="M1003.87622,255.4954c2.13599.44482,3.58228-.01221,4.65161-1.99292,1.90503-3.52905,1.46143-14.64917,1.28003-19.07056-.06812-1.65942-.81079-11.91992-1.23828-12.58325-.48657-.75464-1.27441-.50903-1.49121.01587-1.69946,4.10986-6.16724,17.93164-6.50903,19.00879-2.25391,7.10254-7.16064,12.44238,3.30688,14.62207Z"/>
    <path class="g" d="M1001.8225,219.28373c-.99316.59399-2.24219,1.77661-2.45752,1.96558-2.35962,2.06909-4.95483,4.82422-7.12085,7.1377-3.80103,4.0603-10.40698,10.79932-11.31104,16.27881-.49146,2.97803,7.4126,5.89404,9.7915,4.75391,2.13477-1.02295,4.83423-10.35864,5.89331-13.07471.40991-1.05078,4.19165-11.97656,6.0459-16.31665.22681-.53052-.34644-1.04077-.84131-.74463Z"/>
    <path class="g" d="M964.26342,217.41239c36.07471,17.24707,57.94409-41.10107,20.1355-50.87524-30.52246-7.89087-48.86035,37.14185-20.1355,50.87524Z"/>
    <path class="g" d="M1054.45263,243.26297c19.57007-8.94653,22.58008-40.06152,2.24023-49.87988-29.66357-14.31909-52.1228,25.61743-30.48267,45.05298,7.53589,6.76782,18.88477,9.10498,28.24243,4.8269Z"/>
    <path class="d" d="M1090.87158,372.5784c-11.70996-30.06836-11.30103-51.30615-1.75171-82.60571,2.41113-7.9021,5.41431-15.60229,8.22339-23.40039,3.60547-10.00879,7.65747-19.896,11.1709-29.9353,6.59644-18.84839,11.56934-40.67725,10.45166-60.74536-1.12451-20.19824-10.47266-43.33569-23.87207-58.79199-19.50293-22.49658-47.10596-33.79248-76.6897-33.19946-13.98657.28052-30.39697,4.55957-42.79321,11.00879-27.73145,14.42725-48.00586,40.98071-60.04395,69.44727-10.17773,24.06665-12.74561,50.5166-24.56641,74.08154-5.57471,11.11328-11.04297,18.42798-19.14746,25.86792-.67114.61597-17.43799,13.23413-18.63208,13.98999-3.33154,2.10791-12.23999,7.26318-13.71826,8.11523-10.75757,6.20312-21.82397,12.37036-30.77661,21.09229,0,0,105.90112,199.30078,212.26416,210.25659,106.36279,10.95581,86.13843-101.44727,86.13843-101.44727.73071-1.95703-15.96997-42.99609-16.25708-43.73413ZM910.25463,347.3328c-1.61865,3.87598-4.44727,8.79712-7.86841,13.79688-3.12354,4.56519-6.73999,9.1958-10.39136,13.15723-.6958.75464-1.39209,1.48511-2.08691,2.18579-2.77783,2.80371-5.52271,5.13721-8.02856,6.67578-.44141.27124-.78784.61694-1.19678.70728-.05103.01147-.10474.01465-.15771.01733-.23413.01074-.49072-.05957-.80078-.28613,2.55811-4.25537,5.72412-8.24609,8.13867-12.59253,2.62744-4.73047,5.09302-10.20776,7.13745-15.7373,1.38452-3.74463,2.58105-7.51172,3.48413-11.09155,1.29248-5.12109,2.06421-10.25195,2.49927-15.38647.26099-3.08032.40063-6.16211.4585-9.24365.21265-11.29883-.67407-22.5957-.70752-33.82227-.0127-4.08228.08789-8.15552.39478-12.21606.69067-9.13599,2.42725-18.20874,6.27783-27.18091l-.03125,10.94824-.02051,7.45508c1.59717,19.63843,7.99854,37.83984,7.97339,56.56689-.01172,8.51196-1.35205,17.13281-5.07422,26.04639ZM1001.81347,318.3743c-18.82715,3.45776-58.0769-11.68994-64.21851-31.33154-3.73511-11.94531,3.86865-26.05835,6.29224-37.71729,1.8125-8.71851-.90332-9.78027-4.18457-16.62402-26.76855-55.82983,38.89917-128.05054,97.93188-111.95239,39.19458,10.68823,56.83325,49.91162,50.53833,87.91919-4.10034,24.75659-14.78979,45.74976-37.37671,57.84814-5.43457,2.91089-11.42896,4.0896-15.42676,9.24414-11.2251,14.47266-11.69897,38.59985-33.55591,42.61377ZM1041.47167,477.21756c-1.35327-6.39258-.46094-55.84912-3.54199-61.38159-.25708-.46118-.5166-.9209-.77881-1.37939-.52393-.91724-1.05713-1.83032-1.5957-2.74072-1.07715-1.82129-2.17529-3.63379-3.26074-5.45483-3.52783-5.91821-6.92358-11.92651-9.04102-18.61865-.90063-2.84619-1.58228-5.89038-2.04199-9.03442-.11499-.78613-.21582-1.57837-.30322-2.37524-.95923-8.76636-.23755-18.10327,2.21973-25.97266,3.2915-10.54053,9.1084-19.10205,16.21729-26.58398,1.89575-1.99512,3.88379-3.91357,5.93945-5.77222,2.57056-2.32324,5.24756-4.55347,7.98633-6.72339.54785-.43408,1.0979-.86572,1.65015-1.29517,1.10449-.85889,2.21729-1.70923,3.33569-2.55322,2.7959-2.11011,5.62573-4.17993,8.44385-6.24316.19141.60669-.14795,1.30737-.51611,1.92798-.16699.28223-.33936.54932-.47192.78149-.70093,1.22803-1.48462,2.4502-2.31567,3.66968-1.23657,1.81396-2.58691,3.62085-3.99561,5.42773-.78516,1.00708-1.58594,2.01416-2.39111,3.02271-.40259.50415-.80615,1.00854-1.20923,1.51367-.80615,1.01025-1.61011,2.02246-2.40015,3.03784-.39551.50757-.78711,1.01587-1.17358,1.52539-.62573.82471-1.23315,1.65259-1.82642,2.48291-.87305,1.22192-1.70898,2.44995-2.47778,3.68799-.35132.56567-.69678,1.13428-1.03638,1.70557-.67896,1.14233-1.33374,2.29541-1.96338,3.45898-1.25879,2.32617-2.41406,4.69238-3.45166,7.0918-.32129.74316-.62744,1.49023-.92554,2.2395-.61548,1.54565-1.18091,3.10376-1.69214,4.6731-.0874.26855-.17334.53784-.25757.80713-.72681,2.31958-1.33911,4.66113-1.81567,7.021-.1377.68066-.26196,1.3623-.3772,2.04541-.19727,1.1687-.36255,2.34082-.49292,3.51636-.07422.66772-.13818,1.33618-.19043,2.00562-.29321,3.80664-.22046,7.64209.26831,11.48389.16284,1.28027.37183,2.56152.62939,3.84277.64355,3.20264,1.5874,6.4043,2.86157,9.59204,1.54297,3.86035,3.64893,7.44116,6.02246,10.88696,1.69531,2.46118,3.52686,4.85327,5.38745,7.22925,1.15601,1.47607,2.32251,2.94604,3.47485,4.42236,1.38257,1.771,2.74243,3.552,4.0376,5.36304,4.57593,6.39697,8.33154,13.17822,9.29688,21.30664,0,31.66992-25.93311,40.16479-26.22705,40.35986Z"/>
    <path class="g" d="M1001.23559,270.0076c-1.45166-.10059-3.24658,1.59424-3.90796,2.80981-2.10205,3.86304-6.59717,16.12183-7.69727,20.4978-.625,2.4856-.54688,4.79468,2.1958,5.68774,2.95337.96167,4.53369-1.50024,5.70068-3.82446,2.15088-4.28564,6.04468-14.52051,7.2063-19.13672.76562-3.04272.10815-5.78442-3.49756-6.03418Z"/>
    <path class="g" d="M1016.61572,275.21073c-2.02295-.35986-4.27466,1.73975-5.15771,3.38696-1.53052,2.85376-7.28394,18.03687-7.57056,20.81274-.4436,4.29346,4.73022,5.92334,7.17407,1.86841,2.55176-4.23535,6.07959-13.5188,7.71338-18.38013.83838-2.49463,1.46802-7.04248-2.15918-7.68799Z"/>
    <path class="j" d="M1050.79614,266.51639c22.58691-12.09839,33.27637-33.09155,37.37671-57.84814,6.29492-38.00757-11.34375-77.23096-50.53833-87.91919-59.03271-16.09814-124.70044,56.12256-97.93188,111.95239,3.28125,6.84375,5.99707,7.90552,4.18457,16.62402-2.42358,11.65894-10.02734,25.77197-6.29224,37.71729,6.1416,19.6416,45.39136,34.78931,64.21851,31.33154,21.85693-4.01392,22.33081-28.14111,33.55591-42.61377,3.9978-5.15454,9.99219-6.33325,15.42676-9.24414ZM1008.56957,221.84867c.42749.66333,1.17017,10.92383,1.23828,12.58325.1814,4.42139.625,15.5415-1.28003,19.07056-1.06934,1.98071-2.51562,2.43774-4.65161,1.99292-10.46753-2.17969-5.56079-7.51953-3.30688-14.62207.3418-1.07715,4.80957-14.89893,6.50903-19.00879.2168-.5249,1.00464-.77051,1.49121-.01587ZM996.61791,236.34501c-1.05908,2.71606-3.75854,12.05176-5.89331,13.07471-2.37891,1.14014-10.28296-1.77588-9.7915-4.75391.90405-5.47949,7.51001-12.21851,11.31104-16.27881,2.16602-2.31348,4.76123-5.0686,7.12085-7.1377.21533-.18896,1.46436-1.37158,2.45752-1.96558.49487-.29614,1.06812.21411.84131.74463-1.85425,4.34009-5.63599,15.26587-6.0459,16.31665ZM984.39892,166.53714c37.80859,9.77417,15.93921,68.12231-20.1355,50.87524-28.72485-13.7334-10.38696-58.76611,20.1355-50.87524ZM947.2937,275.94315c1.10791-4.8689,4.43726-15.04907,6.66235-19.36914.74219-1.44214,2.18481-2.96533,3.94019-2.73413,2.77637.36597,3.89697,2.15137,3.72266,4.81421-.23389,3.56348-5.61353,18.61719-7.46606,21.90039-2.47778,4.39087-8.23486,1.43359-6.85913-4.61133ZM961.1914,286.28031c-1.07788-3.27271,3.85986-14.26562,5.2063-17.94629.87183-2.38354,1.49072-7.32568,4.36548-8.64185,4.19141-1.91895,6.04419,2.44458,5.1377,6.15747-1.02588,4.20288-5.59033,16.8479-7.61938,20.48242-1.698,3.04126-6.02368,3.18799-7.09009-.05176ZM975.47656,287.54349c1.31689-4.77612,4.08154-12.46558,5.88989-17.14087.90698-2.34546,3.09619-6.0293,6.0354-5.57446,2.46558.38159,3.35107,2.44775,3.11133,4.73022-.33789,3.21802-6.06104,18.44946-7.77393,21.64771-2.96118,5.52856-9.14746,3.17505-7.2627-3.6626ZM997.52685,295.1785c-1.16699,2.32422-2.74731,4.78613-5.70068,3.82446-2.74268-.89307-2.8208-3.20215-2.1958-5.68774,1.1001-4.37598,5.59521-16.63477,7.69727-20.4978.66138-1.21558,2.4563-2.9104,3.90796-2.80981,3.60571.24976,4.26318,2.99146,3.49756,6.03418-1.16162,4.61621-5.05542,14.85107-7.2063,19.13672ZM1018.7749,282.89872c-1.63379,4.86133-5.16162,14.14478-7.71338,18.38013-2.44385,4.05493-7.61768,2.42505-7.17407-1.86841.28662-2.77588,6.04004-17.95898,7.57056-20.81274.88306-1.64722,3.13477-3.74683,5.15771-3.38696,3.6272.64551,2.99756,5.19336,2.15918,7.68799ZM1056.69287,193.38309c20.33984,9.81836,17.32983,40.93335-2.24023,49.87988-9.35767,4.27808-20.70654,1.94092-28.24243-4.8269-21.64014-19.43555.81909-59.37207,30.48267-45.05298Z"/>
    <path class="j" d="M1054.36425,410.18802c-1.15234-1.47632-2.31885-2.94629-3.47485-4.42236-1.8606-2.37598-3.69214-4.76807-5.38745-7.22925-2.37354-3.4458-4.47949-7.02661-6.02246-10.88696-1.27417-3.18774-2.21802-6.3894-2.86157-9.59204-.25757-1.28125-.46655-2.5625-.62939-3.84277-.48877-3.8418-.56152-7.67725-.26831-11.48389.05225-.66943.11621-1.33789.19043-2.00562.13037-1.17554.29565-2.34766.49292-3.51636.11523-.68311.2395-1.36475.3772-2.04541.47656-2.35986,1.08887-4.70142,1.81567-7.021.08423-.26929.17017-.53857.25757-.80713.51123-1.56934,1.07666-3.12744,1.69214-4.6731.2981-.74927.60425-1.49634.92554-2.2395,1.0376-2.39941,2.19287-4.76562,3.45166-7.0918.62964-1.16357,1.28442-2.31665,1.96338-3.45898.3396-.57129.68506-1.13989,1.03638-1.70557.7688-1.23804,1.60474-2.46606,2.47778-3.68799.59326-.83032,1.20068-1.6582,1.82642-2.48291.38647-.50952.77808-1.01782,1.17358-1.52539.79004-1.01538,1.59399-2.02759,2.40015-3.03784.40308-.50513.80664-1.00952,1.20923-1.51367.80518-1.00854,1.60596-2.01562,2.39111-3.02271,1.40869-1.80688,2.75903-3.61377,3.99561-5.42773.83105-1.21948,1.61475-2.44165,2.31567-3.66968.13257-.23218.30493-.49927.47192-.78149.36816-.62061.70752-1.32129.51611-1.92798-2.81812,2.06323-5.64795,4.13306-8.44385,6.24316-1.11841.84399-2.2312,1.69434-3.33569,2.55322-.55225.42944-1.10229.86108-1.65015,1.29517-2.73877,2.16992-5.41577,4.40015-7.98633,6.72339-2.05566,1.85864-4.0437,3.7771-5.93945,5.77222-7.10889,7.48193-12.92578,16.04346-16.21729,26.58398-2.45728,7.86938-3.17896,17.2063-2.21973,25.97266.0874.79688.18823,1.58911.30322,2.37524.45972,3.14404,1.14136,6.18823,2.04199,9.03442,2.11743,6.69214,5.51318,12.70044,9.04102,18.61865,1.08545,1.82104,2.18359,3.63354,3.26074,5.45483.53857.9104,1.07178,1.82349,1.5957,2.74072.26221.4585.52173.91821.77881,1.37939,3.08105,5.53247,2.18872,54.98901,3.54199,61.38159.29395-.19507,26.22705-8.68994,26.22705-40.35986-.96533-8.12842-4.72095-14.90967-9.29688-21.30664-1.29517-1.81104-2.65503-3.59204-4.0376-5.36304Z"/>
    <path class="j" d="M907.37597,257.26444l.03125-10.94824c-3.85059,8.97217-5.58716,18.04492-6.27783,27.18091-.30688,4.06055-.40747,8.13379-.39478,12.21606.03345,11.22656.92017,22.52344.70752,33.82227-.05786,3.08154-.19751,6.16333-.4585,9.24365-.43506,5.13452-1.20679,10.26538-2.49927,15.38647-.90308,3.57983-2.09961,7.34692-3.48413,11.09155-2.04443,5.52954-4.51001,11.00684-7.13745,15.7373-2.41455,4.34644-5.58057,8.33716-8.13867,12.59253.31006.22656.56665.29688.80078.28613.05298-.00269.10669-.00586.15771-.01733.40894-.09033.75537-.43604,1.19678-.70728,2.50586-1.53857,5.25073-3.87207,8.02856-6.67578.69482-.70068,1.39111-1.43115,2.08691-2.18579,3.65137-3.96143,7.26782-8.59204,10.39136-13.15723,3.42114-4.99976,6.24976-9.9209,7.86841-13.79688,3.72217-8.91357,5.0625-17.53442,5.07422-26.04639.02515-18.72705-6.37622-36.92847-7.97339-56.56689l.02051-7.45508Z"/>
  </g>
  <path class="d" d="M414.67852,417.13722l38.34772-37.28056c-.16511-1.32449-.66652-2.32661-.80644-3.22656l-52.36574-24.70146,16.06901-52.73085c-.50886-.35736-40.76888-.41778-55.65819.00358l3.22974-36.30031c-59.86465-28.96353-134.83928-23.23387-190.13593,14.33449-22.83914,15.51747-58.85841,54.35585-58.31919,83.62387.24447,13.25406,8.9912,16.87416,20.62662,16.61061,21.02045-.47542,29.55124,1.73591,48.76552,9.6459,4.02634,1.6576,7.79491,4.1929,11.29227,5.64618,4.1934,1.74267,9.55278,3.667,13.9023,5.05271,3.90928,1.24499,9.0707,1.69258,12.42109,2.92088.88644.32476,1.35272-.37087,1.09414,1.2915-14.8108,19.16777-32.01737,35.85232-56.95416,39.8409-3.4441.55094-10.01041-1.25175-10.05255,4.5125-.04492,6.15619,8.95841,10.95449,14.25002,11.64694,35.49814,4.64367,96.37738-41.56131,127.23393-59.75837,8.61834-5.08212,17.70674-9.41773,26.353-14.3798,13.9492-8.00499,27.85866-15.59021,39.81342-26.55623,10.98793,10.11138,21.82605,35.67344,19.07366,50.35654-.56168,2.998-10.89054,6.95955-13.91219,7.86586-12.33473,3.70118-24.97991,2.76734-37.26187-.85832-.07881.68848-1.08871,3.99956-1.39697,5.52439,9.19965,2.37788,18.31639,3.88906,27.95672,3.18309,8.91344-.65231,16.14111-4.85912,24.60447-7.24734-.78199,6.07152-1.67673,12.17285-3.27073,18.0957-1.10755,4.11539-4.03653,14.05067-5.66283,17.56184-2.10877,4.55304-10.4034,5.53409-14.97169,6.16652-10.6265,1.47038-8.58849-71.71939-18.30564-76.62105-1.83638-.92619-21.36088,2.21769-20.69916,3.47127,13.63107,25.82283,9.14239,48.78381-31.24282,94.37465-21.73604,24.5378-42.88133,39.60026-55.24391,65.47287-29.97141,62.72466,32.6353,87.52037,40.6392,91.20486l12.47849,3.02729c5.49021,2.52735,72.42433-72.73533,75.77521-77.76538,15.74787-23.63932,73.783-73.76928,73.78578-73.77167l-28.16682-63.70958,6.71453-6.52746Z"/>
  <path class="c" d="M195.72386,392.76223c-9.13819,18.71205-30.27527,33.42084-50.01206,39.11624-17.66914,5.09874-35.57282,4.16354-53.40016,8.70734-25.87408,6.59474-45.38898,22.52649-58.31816,45.73168-5.69437,4.69618-3.1695-5.77824-2.41848-8.87081,7.60854-31.33076,30.45727-46.09038,59.45991-54.26849,1.11339-.31395,4.24552-1.10007,4.66748-2.17694-14.81846-3.60794-28.41982-8.30704-43.98876-7.30138-8.73887.56448-19.43115,3.72754-27.53054,7.15286-3.65164,1.54432-21.90717,12.54962-23.17609,12.20749-3.48615-.93994,3.09613-9.26729,4.379-10.83981,10.36567-12.70608,30.71333-24.74711,47.18073-26.21904,37.61703-3.36239,64.19829,22.57599,103.43996,10.682,10.10693-3.06337,22.74455-10.49119,28.42489-19.56727,4.02639,1.65765,7.79501,4.19281,11.29227,5.64614Z"/>
  <path class="l" d="M332.84432,415.34677c.74087-6.4472-.73791-16.0373-3.44434-21.96328-1.54812-3.38974-2.54118-5.61581-5.42816-9.49377,13.94898-8.00512,27.85856-15.59044,39.81327-26.55635,10.98808,10.11131,21.82614,35.67327,19.0738,50.3562-.56197,2.99794-10.89062,6.95961-13.91221,7.86627-12.33486,3.70118-23.82052,3.41662-36.10237-.20907Z"/>
  <path class="k" d="M452.21978,376.63041l-52.36558-24.70183,16.06899-52.7309c1.66304,1.1663,3.42448,4.44041,4.84254,6.04616,18.76036,21.24344,27.08669,43.30901,31.45405,71.38657Z"/>
  <path class="l" d="M332.04528,420.18632c9.19979,2.37821,16.5587,3.92438,26.19892,3.21858,8.91348-.65259,16.14121-4.85886,24.60453-7.24744-.78184,6.07136-1.67671,12.17315-3.27057,18.09577-1.10743,4.11509-4.03639,14.05084-5.66278,17.56182-2.10901,4.55285-10.40328,5.53405-14.9716,6.16629-10.62672,1.47071-22.29128.84318-32.00859-4.0586-1.83641-.92635-5.611-4.39772-6.99632-4.69915l8.69123-18.32952c1.30602-3.48704,2.68188-7.08258,3.41518-10.70776Z"/>
  <path class="k" d="M415.92318,299.19768c-3.46906,1.43554-40.76892-.41756-55.65853.00382l3.23012-36.30042c18.52345,8.96196,33.44129,18.14515,48.79876,32.27062,1.0467.96273,3.50429,2.47766,3.62965,4.02597Z"/>
  <path class="l" d="M338.4864,503.26942l-27.01376,27.95283c-4.69128,4.85436-11.77199,6.55515-18.15153,4.34734-9.94114-3.44039-20.05407-8.55111-25.80711-16.58008-5.03935-7.03294.43303-10.40208,5.22803-15.7356,5.32801-5.92638,11.31291-11.38229,17.06062-16.86862,1.33146-.23131,5.68541,5.2186,7.16592,6.37665,11.85466,9.27263,26.76402,12.18242,41.51783,10.50747Z"/>
  <path class="l" d="M368.32944,461.32585c1.81555,1.81728-20.1654,33.451-23.91767,36.16508-17.57335,2.46299-38.51178-.15609-50.19795-14.95579l22.88931-29.2388c14.15282,11.70358,34.10561,13.01868,51.22632,8.02951Z"/>
  <path class="h" d="M296.96871,492.76181c-1.48045-1.15803-5.83471-6.60805-7.16617-6.37668-5.7476,5.48628-11.73249,10.9422-17.06031,16.86875-4.79532,5.33374-10.2674,8.7026-5.2281,15.73555,7.90285,11.02931,24.03295,16.55185,36.64323,19.80246l34.32913-35.52264c-14.7537,1.67517-29.6631-1.23489-41.51777-10.50745Z"/>
  <path class="h" d="M317.76524,317.91087c-1.18247-1.02166-3.78233-2.48516-4.56355-3.1032-41.90483-33.16124-100.13211-28.00764-135.24443,12.19602-1.67162,1.91403-8.44364,10.05614-7.95843,11.9544.58729,2.29794,15.02646,14.16798,17.87503,16.08162,37.61246,25.26667,86.54748,19.3141,119.97596-9.45307,2.87498-2.47413,16.40404-16.79977,16.825-19.5167.37524-2.41855-5.31088-6.77793-6.90958-8.15906Z"/>
  <path class="h" d="M317.10305,453.29641l-22.88911,29.23859c11.68598,14.79982,32.6244,17.41899,50.1979,14.9559,3.75238-2.71417,25.73295-34.34766,23.91746-36.16511-17.12062,4.98924-37.07325,3.67433-51.22626-8.02938Z"/>
  <path class="i" d="M313.12377,314.49613c-41.00151-33.16089-99.31571-27.69604-133.67115,12.50732-1.6356,1.91431-8.2616,10.0564-7.78695,11.95483.5745,2.29785,14.70271,14.16772,17.48994,16.0813,36.80179,25.26685,84.68156,19.31421,117.3897-9.45312,2.81279-2.47388,16.05046-16.79956,16.46252-19.51636.36668-2.41895-9.11965-10.95557-9.88406-11.57397Z"/>
  <path class="g" d="M439.79821,479.20629c9.57325-24.31707,14.55217-62.56635,14.03487-85.63764h-.0001c.51721,23.07168-4.46171,61.32057-14.03477,85.63764Z"/>
  <path class="d" d="M439.79821,479.20629c-1.15719,2.93916-2.37739,5.68753-3.66735,8.16797h-.00005l.00005.0004c1.29001-2.48084,2.51016-5.2292,3.66735-8.16836Z"/>
  <path class="d" d="M453.83298,393.56865c-.11369-5.0702-.18325-8.71335-.80659-13.71199l-38.34786,37.28056-6.71453,6.52746,28.16682,63.70958h.00005c1.28996-2.48044,2.51016-5.2288,3.66735-8.16797,9.57305-24.31707,14.55197-62.56596,14.03477-85.63764Z"/>
  <path class="h" d="M296.96875,492.76166c-1.48051-1.15794-5.8347-6.60815-7.16625-6.3768-5.74755,5.48639-11.73241,10.94217-17.06019,16.86899-4.79532,5.33374-10.2674,8.70261-5.22821,15.7353,7.90283,11.02922,24.03305,16.55218,36.64326,19.80259l34.32917-35.52278c-14.75371,1.67549-29.66314-1.23466-41.51778-10.50729Z"/>
  <path class="h" d="M317.76526,317.91081c-1.18248-1.02159-3.78233-2.48521-4.56353-3.10333-41.90485-33.1612-100.13212-28.00752-135.24448,12.1959-1.67152,1.91399-8.44364,10.05652-7.95838,11.95462.58722,2.29799,15.02645,14.16793,17.87498,16.08153,37.61248,25.26672,86.54753,19.31405,119.97605-9.45311,2.87497-2.47408,16.40401-16.79982,16.82497-19.51678.3752-2.41843-5.31089-6.77789-6.90961-8.15882Z"/>
  <path class="h" d="M317.10306,453.29641l-22.88903,29.2386c11.6859,14.79957,32.62436,17.41874,50.19784,14.95579,3.75236-2.71418,25.73294-34.34775,23.91748-36.16516-17.12061,4.98911-37.07326,3.67415-51.22628-8.02924Z"/>
  <path class="l" d="M827.1569,416.62043c-.11128-6.33696-.23493-12.67349-.3637-19.01023-.45025-22.17775-.9619-44.35465-1.23008-66.53646-.443-36.64776.32916-83.50808,0-120.15904l-30.02727-61.70515-92.15993-22.331c-10.47296-17.5593-.1413,16.04648-.53101,16.09232.05458,2.07686-3.49782,3.10394-3.48375,5.18591l14.10016,337.00662c28.57334-.07589,57.05756-1.08832,85.5776-1.64175,9.50682-.18462,19.01748-.31807,28.53667-.34899.21276-22.19118-.02857-44.3732-.4187-66.55223Z"/>
  <path class="l" d="M642.5441,267.1697c.69413.57944,1.44625,1.09151,2.24656,1.5262,1.69781.92203,3.61265,1.4955,5.64773,1.62448.29079.01833.58413.02771.87961.02771,7.56299,0,13.6938-6.12889,13.6938-13.68932,0-4.96681-2.65502-9.3028-6.61474-11.70221-1.80952-1.0962-3.88596-1.79567-6.11503-1.95321-.31807-.0226-.63956-.03411-.96403-.03411-7.56256,0-13.6938,6.1291-13.6938,13.68953,0,4.22322,1.91313,7.99981,4.91991,10.51093Z"/>
  <path class="h" d="M870.39531,636.42791c-.02985,0-.05969-.00021-.08911-.00021.02942,0,.05927.00021.08911.00021Z"/>
  <path class="h" d="M977.29067,644.93446c2.1745.94228,4.1712,2.0306,6.0029,3.25471-1.8317-1.22411-3.8284-2.31243-6.0029-3.25471Z"/>
  <path class="h" d="M992.20134,656.79102c.75169,1.04461,1.4518,2.13314,2.10244,3.26367-.65107-1.13053-1.35075-2.21905-2.10244-3.26367Z"/>
  <path class="h" d="M1001.16624,709.19793c.56665-7.51481.89879-14.46511.55684-19.91564-.66088-10.53374-2.56378-19.88259-6.47958-27.50059,3.9158,7.61799,5.8187,16.96684,6.47958,27.50059.15179,2.42457-.0631,9.45651-.55684,19.91564Z"/>
  <path class="h" d="M1055.18931,718.77042c.29676.06161.59266.12621.88771.19443-.29505-.06822-.59095-.13281-.88771-.19443Z"/>
  <path class="h" d="M1076.90445,775.58495c-1.31536-.17588-2.66142-.27544-4.04457-.23472,1.38315-.04072,2.72921.05905,4.04457.23472Z"/>
  <path class="h" d="M1097.68243,773.04888c-1.45052,1.81379-3.08651,3.25514-5.31729,3.9141-.53254.15733-1.06593.26904-1.60103.34941.5351-.08037,1.06892-.19208,1.60103-.34941,2.23078-.65896,3.86677-2.10031,5.31729-3.9141Z"/>
  <path class="h" d="M1036.84422,755.90531c-.67623.28524-1.39765.43021-2.17194.40441.77429.0258,1.49571-.11917,2.17194-.40441Z"/>
  <path class="h" d="M1075.39552,791.64468c.47541-.09231.96403-.15989,1.48335-.1697,1.67053-.03134,3.32613.32234,4.99538.74104-1.66925-.41848-3.32485-.77237-4.99538-.74104-.51932.00981-1.00794.07739-1.48335.1697Z"/>
  <path class="h" d="M1063.2776,805.49112c-.27927.43447-.56409.85701-.85616,1.26483.29207-.40783.57688-.83036.85616-1.26483Z"/>
  <path class="h" d="M1060.8639,808.68614c-1.6701,1.78074-3.63013,2.96819-6.1662,3.00934,2.53606-.04114,4.4961-1.22859,6.1662-3.00934Z"/>
  <path class="h" d="M1046.89424,805.2709c-.00384-.207.00043-.41784.01023-.63167-.00981.21383-.01407.42467-.01023.63167Z"/>
  <path class="h" d="M1106.42391,786.37238c-.48393.57006-.99686,1.12648-1.54773,1.66093.55087-.53446,1.0638-1.09109,1.54773-1.66093Z"/>
  <path class="h" d="M1069.63651,775.72011c.43021-.08719.85616-.15733,1.27912-.21255-.42296.05522-.84933.12535-1.27912.21255Z"/>
  <path class="h" d="M1050.82838,793.90531c.19656-.33534.39653-.67068.60374-1.00539-.20722.3347-.40719.67004-.60374,1.00539Z"/>
  <path class="h" d="M1089.50034,777.44244c.05372-.00277.10702-.00746.16074-.01087-.05372.00341-.10702.0081-.16074.01087Z"/>
  <path class="h" d="M1047.00979,803.52683c.15094-1.07424.443-2.21479.85445-3.39819-.41145,1.1834-.70351,2.32394-.85445,3.39819Z"/>
  <path class="h" d="M1047.86424,800.12864c.27799-.7986.61227-1.61702.98918-2.44631-.37691.82929-.71119,1.64772-.98918,2.44631Z"/>
  <path class="h" d="M1051.11192,735.62107c-1.91825.66322-3.45276,3.05752-4.92332,5.99522,1.47056-2.9377,3.00507-5.33179,4.92332-5.99522,1.46843-.50781,2.84476-.70202,4.155-.67985-1.31024-.02217-2.68657.17183-4.155.67985Z"/>
  <path class="h" d="M1069.4843,739.32049c.43618.07142.87747.12237,1.32559.14497.5739.02899,1.12946.03582,1.66669.02174-.53723.01407-1.09279.00725-1.66669-.02174-.44812-.0226-.88941-.07355-1.32559-.14497Z"/>
  <path class="h" d="M1039.09973,754.32432c-.23237.23152-.46986.4462-.71375.64233.24388-.19613.48137-.41081.71375-.64233Z"/>
  <path class="h" d="M1082.40935,735.80143c.61867-.53169,1.19512-1.10622,1.73576-1.71295-.54064.60673-1.1171,1.18126-1.73576,1.71295Z"/>
  <path class="h" d="M1041.99309,750.26888c-.04264.07568-.08485.15051-.12749.22534.04264-.07483.08527-.14966.12749-.22534Z"/>
  <path class="h" d="M1041.24182,751.54224c-.26392.42168-.53382.82738-.81224,1.20919.27842-.38182.54831-.78751.81224-1.20919Z"/>
  <path class="h" d="M1040.04628,753.2537c-.30571.38565-.62037.7453-.94655,1.07062.32617-.32532.64084-.68497.94655-1.07062Z"/>
  <path class="h" d="M1036.84422,755.90531c.54107-.22811,1.05357-.54618,1.54176-.93866-.4882.39248-1.0007.71034-1.54176.93866Z"/>
  <path class="h" d="M1068.48957,721.51284c-3.73417.00405-7.49776-1.32047-11.36708-2.29559,3.86933.97511,7.63292,2.29964,11.36708,2.29559Z"/>
  <path class="h" d="M1094.97155,717.59874c.82972-.69925,1.7396-1.23115,2.77995-1.51746.58711-.1616,1.20749-.20935,1.85515-.1682-.64766-.04114-1.26803.00661-1.85515.1682-1.04035.28631-1.95023.81821-2.77995,1.51746Z"/>
  <path class="h" d="M1057.65972,735.21581c-.32788-.06758-.65917-.12429-.9943-.1682.33513.04392.66642.10084.9943.1682Z"/>
  <path class="h" d="M1100.84995,699.33679c1.12477.14497,2.25252.35176,3.37729.61057-1.12477-.25881-2.25252-.4656-3.37729-.61057Z"/>
  <path class="h" d="M1101.62467,716.27763c-.69584-.19357-1.37036-.3234-2.01802-.36455.64766.04114,1.32261.17098,2.01802.36455Z"/>
  <path class="h" d="M799.03892,483.52165c-28.52004.55343-57.00427,1.56585-85.5776,1.64175h0c28.57334-.07611,57.05756-1.08832,85.5776-1.64175Z"/>
  <path class="h" d="M1093.89113,718.64549c-.61184.68262-1.18233,1.45969-1.72809,2.31008.54576-.8504,1.11624-1.62746,1.72809-2.31008Z"/>
  <path class="h" d="M1075.193,719.11386c2.11694-2.1858,3.73246-5.77287,5.38593-9.05913-1.65347,3.28626-3.269,6.87333-5.38593,9.05913Z"/>
  <path class="h" d="M1074.31808,719.90947c.30102-.2377.59266-.50419.87492-.79561-.28226.29143-.5739.55791-.87492.79561Z"/>
  <path class="h" d="M1080.91022,709.40216c.22129-.43192.44428-.85637.6694-1.26931-.22512.41294-.44812.8374-.6694,1.26931Z"/>
  <path class="h" d="M1090.13479,724.50278c-.16074.30123-.32234.6046-.48393.91094.1616-.30614.32319-.60971.48393-.91094Z"/>
  <path class="h" d="M1068.55395,721.51071c.59053-.00298,1.18062-.04136,1.76987-.11811-.58925.07675-1.17935.11512-1.76987.11811Z"/>
  <path class="h" d="M1043.05774,748.23167c0,.00064-.00043.00107-.00043.00149,0-.00043.00043-.00085.00043-.00149Z"/>
  <path class="h" d="M1089.12642,726.40163c-.2021.3799-.40719.76065-.61526,1.14268.20807-.38203.41315-.76278.61526-1.14268Z"/>
  <polygon class="h" points="712.46915 456.3967 711.45993 427.12965 711.45993 427.12965 712.46915 456.3967"/>
  <path class="h" d="M1083.38915,792.59891c1.76561.45302,3.55637.87961,5.41109.91372,3.12957.05735,5.73684-.27906,7.96463-.88792-2.2278.60886-4.83506.94527-7.96463.88792-1.85472-.03411-3.64548-.4607-5.41109-.91372Z"/>
  <path class="h" d="M1074.96148,866.17797c-.34707.13772-.69158.22512-1.03438.28695.3428-.06182.68731-.14923,1.03438-.28695Z"/>
  <path class="h" d="M1108.07355,842.67889c-.98876.388-1.96131.77088-2.91042,1.14588.9491-.37499,1.92166-.75788,2.91042-1.14588Z"/>
  <path class="h" d="M1072.84326,846.31456c.28311-.38885.57091-.77195.86383-1.14865-.29292.3767-.58072.7598-.86383,1.14865Z"/>
  <path class="h" d="M1090.50317,850.06877c.19997-.15008.39695-.28503.59095-.40313.92267-.56196,6.79424-2.96606,14.06901-5.84087-7.27476,2.87482-13.14676,5.27892-14.06901,5.84087-.194.11811-.39098.25305-.59095.40313Z"/>
  <path class="h" d="M1077.29245,841.06571c.67878-.6888,1.34862-1.32218,1.99244-1.88819-.64382.56601-1.31365,1.19939-1.99244,1.88819Z"/>
  <path class="h" d="M1085.38628,855.64913c1.59165-2.01631,3.11294-3.8689,4.50889-5.08577-1.39552,1.21687-2.91724,3.06945-4.50889,5.08577Z"/>
  <path class="h" d="M1068.73857,863.40378c-2.77568-4.46433-.2247-10.89488,3.60114-16.38186-3.82584,5.48698-6.37682,11.91753-3.60114,16.38186,1.49102,2.39792,3.10228,3.27028,4.77537,3.13021-1.67266.13985-3.28435-.73251-4.77537-3.13021Z"/>
  <path class="h" d="M1084.53439,835.55058c-1.15248.62208-2.29175,1.32666-3.41354,2.14401-.57432.4187-1.19214.91713-1.83596,1.48292.64382-.5658,1.26164-1.06423,1.83596-1.48292,1.12179-.81736,2.26105-1.52194,3.41354-2.14401Z"/>
  <path class="l" d="M1172.9495,1028.04743l-48.51989-14.34167c-2.05469-.60715-2.27598-3.42931-.3411-4.34942l47.42453-22.55232c.02899-.04264.05585-.09785.07888-.16543l-4.46796-56.43613c-.17012-2.14764,2.41071-3.36109,3.95588-1.86005l36.91275,35.85109c1.08128-48.2615,1.50893-104.97072-2.08453-114.818-1.88798-5.1736-4.08976-9.04911-6.00545-14.00825-6.1372-15.88834-78.0645-203.47487-78.07089-204.11869l-114.10319,46.02667c-1.54901-4.42724,2.88782-12.68479,1.12179-16.52427-.58882-1.27954-1.19512-2.52455-1.82274-3.73417-.42808-.82503-.87065-1.62704-1.32005-2.41796-7.45427-13.12672-15.76597-38.69073-34.78814-40.56932-30.65574.84955-76.59096-5.29192-107.43473-5.29938-.02985,0-271.87287,21.94368-394.24469,26.52078.43106-1.12392,121.15453-214.62898,121.70413-215.54078l12.41767-152.67346c.3023-.77664,10.9437-9.00839,11.1458-9.38445,4.27737-7.95206-.86511-48.95265-5.11476-34.17843-.06438.22427-12.94338,5.49082-17.31626,1.17423-.00256-.00277,27.29976-43.66159,27.29976-43.66159-.10361-.09636-56.03683-59.66504-56.25598-59.70853-.02004-.00384-.03965-.00341-.05969-.00704-.35687-.06438-.70693-.07696-1.0493-.04306-.36114.03603-.7146.11938-1.06039.23365-.34579.11448-78.60471,85.58208-78.60471,85.58208-1.69611,34.08527-1.47226,190.29613-2.12248,195.53475-.08613.22619-199.53412,262.52721-229.17723,302.70747-.00128.00192-.00298.00384-.00426.00576-18.39455,24.93361-32.71085,52.8757-42.071,83.01553-20.95492,67.4764-10.20693,108.36081,6.64672,130.73981.33939-.65704.68177-1.31237,1.04546-1.95364.45622-.80499.93162-1.59804,1.42494-2.37745.79391-1.25396,1.64708-2.46464,2.53265-3.64932.44471-.59308.89879-1.17721,1.36482-1.75218,2.06961-2.55568,4.34303-4.93718,6.8113-7.09675,11.02215-9.64028,25.72133-15.07738,41.48986-14.02594,26.65637,1.77733,47.82575,21.53265,52.46809,46.64342,60.92433-22.21741,78.60471-82.11909,78.42308-87.46089-1.79972-54.67606,592.47582-80.52744,593.34818-68.33788.2021,2.82642,17.83899,61.55366,29.06708,95.47861-.23024,2.39429-50.58609,18.86186-50.58609,18.86186-2.71727,38.13367,6.85308,140.80561,6.69575,142.10689h195.8217l-.93333-5.58143c-.14752-.88152-.78495-1.60145-1.64196-1.85472Z"/>
  <path class="d" d="M270.287,888.19157c-15.76853-1.05143-30.46771,4.38567-41.48986,14.02594-2.46827,2.15958-4.74169,4.54108-6.8113,7.09675-.46602.57496-.92011,1.15909-1.36482,1.75218-.88558,1.18468-1.73875,2.39536-2.53265,3.64932-.49331.77941-.96872,1.57246-1.42494,2.37745-.3637.64126-.70607,1.2966-1.04546,1.95364,10.89381,14.46553,24.33776,21.20157,33.42247,22.38199,29.69512,3.85824,53.9702.6063,73.71465-6.59385-4.64234-25.11077-25.81172-44.86609-52.46809-46.64342Z"/>
  <path class="d" d="M1206.84481,1006.71816c.37435-12.00878.79561-26.82052,1.14779-42.52466l-36.91275-35.85109c-1.54517-1.50104-4.126-.28759-3.95588,1.86005l4.46796,56.43613c-.02302.06758-.04989.1228-.07888.16543l-47.42453,22.55232c-1.93488.92011-1.71359,3.74227.3411,4.34942l48.51989,14.34167c.85701.25327,1.49443.97319,1.64196,1.85472l.93333,5.58143h1.64665c16.03757,0,29.17367-12.73574,29.67338-28.76542Z"/>
  <path class="d" d="M1039.09973,754.32432c.32617-.32532.64084-.68497.94655-1.07062.12919-.1633.25753-.3298.38331-.50227.27842-.38182.54831-.78751.81224-1.20919.21191-.33875.41998-.68859.62378-1.04802.04264-.07483.08485-.14966.12749-.22534.36497-.65512.71886-1.33753,1.06423-2.03571,0-.00043.00043-.00085.00043-.00149,1.08682-2.19731,2.09306-4.54172,3.13085-6.61538,1.47056-2.9377,3.00507-5.332,4.92332-5.99522,1.46843-.50802,2.84476-.70202,4.155-.67985.47455.00789.93972.04626,1.3985.10638.33513.04392.66642.10062.9943.1682,4.1486.85274,7.75401,3.43891,11.82458,4.10469.43618.07142.87747.12237,1.32559.14497.5739.02899,1.12946.03582,1.66669.02174,1.07488-.02793,2.07856-.13942,3.01786-.32404.9393-.18441,1.81421-.44236,2.63242-.76299.81821-.32085,1.57928-.70437,2.2909-1.14097.71119-.43661,1.37249-.92587,1.99158-1.45777.61867-.53169,1.19512-1.10622,1.73576-1.71295,1.74514-1.95854,3.11849-4.25434,4.36605-6.54417.20807-.38203.41315-.76278.61526-1.14268.17609-.33129.3509-.66045.52444-.9879.1616-.30635.32319-.60971.48393-.91094.6677-1.25332,1.32943-2.45825,2.02825-3.5472.54576-.8504,1.11624-1.62746,1.72809-2.31008.34408-.38395.70522-.73059,1.08043-1.04674.82972-.69925,1.7396-1.23115,2.77995-1.51746.58711-.1616,1.20749-.20935,1.85515-.1682s1.32218.17098,2.01802.36455c1.73917.48415,3.60924,1.36631,5.51299,2.25487.59095.27586,1.18531.54917,1.7801.81458,2.08624.93098,4.17546,1.72809,6.14275,1.87817.32447.02473.64382.03859.95678.042,9.71276.10553,13.82725-9.82319,2.5463-15.71949-3.04728-1.5925-6.50985-3.19225-10.11653-4.40144-1.3904-.46645-2.80169-.87257-4.21981-1.19896-1.12477-.25881-2.25252-.4656-3.37729-.61057-5.93851-.76449-11.76958.21574-16.35905,4.64469-.66642.64318-1.28509,1.45862-1.87519,2.38321-.35389.5545-.69797,1.14843-1.03608,1.76817-.22512.41294-.44812.8374-.6694,1.26931-.11086.21574-.22129.43362-.33129.65256-1.65347,3.28626-3.269,6.87333-5.38593,9.05913-.28226.29143-.5739.55791-.87492.79561-.15094.11874-.304.23024-.46006.33406-.46773.31146-.96019.55343-1.48122.71183-.6839.20807-1.36823.34792-2.05298.43724-.58925.07675-1.17935.11512-1.76987.11811-.02174,0-.04306.00213-.06438.00213-3.73417.00405-7.49776-1.32047-11.36708-2.29559-.34749-.08762-.69584-.17161-1.04546-.25241-.29505-.06822-.59095-.13281-.88771-.19443-4.95487-1.03075-10.10119-1.05186-15.5967,3.37388-4.62443,3.72394-16.77818,26.00743-10.88742,31.19745,2.30326,2.02932,4.2633,2.91148,5.96708,2.96798.77429.0258,1.49571-.11917,2.17194-.40441.54107-.22832,1.05357-.54618,1.54176-.93866.24388-.19613.48137-.41081.71375-.64233Z"/>
  <path class="d" d="M1130.24959,758.85111c-.19954-.06097-.39439-.12002-.58498-.17694-1.50168-.4494-2.70661-.77131-3.30311-.86554-4.07868-.64489-7.45768-.69627-10.29561-.31168-.5675.07696-1.11368.1714-1.63898.28183-1.05143.22107-2.021.50674-2.9198.84699-.68347.25881-1.31408.55812-1.91953.87577-1.3985.73336-2.61153,1.60337-3.67277,2.57102-3.66595,3.34255-5.65412,7.75166-8.2324,10.97631-1.45052,1.81379-3.08651,3.25514-5.31729,3.9141-.53211.15733-1.06593.26904-1.60103.34941-.36668.055-.73421.09508-1.10303.11917-.05372.00341-.10702.0081-.16074.01087-2.58595.13814-5.2188-.4268-7.96463-1.00603-.25071-.05308-.50269-.10617-.75596-.15882-.50568-.10531-1.01562-.20892-1.53025-.30677-.77131-.14646-1.55242-.27991-2.34505-.38587-1.31536-.17567-2.66142-.27544-4.04457-.23472-.63956.01897-1.28807.07184-1.94426.15733-.42296.05522-.84891.12535-1.27912.21255-.64766.13154-1.30257.29718-1.96728.51101-3.91452,1.25972-11.40119,8.8387-16.23711,16.66881-.20722.3347-.40719.67004-.60374,1.00539-.2345.39951-.46304.79945-.68177,1.19832-.26776.48905-.52273.97661-.76363,1.46182-.18632.37435-.36114.74636-.52955,1.11688-.37691.82929-.71119,1.64772-.98918,2.44631-.41145,1.1834-.70351,2.32394-.85445,3.39819-.05287.37947-.08911.75084-.10531,1.11241-.00981.21383-.01407.42467-.01023.63167.05031,2.70896,1.27784,4.81246,4.2036,5.8025,1.3209.44684,2.51304.63977,3.59986.62208,2.53606-.04114,4.4961-1.22859,6.1662-3.00934.23834-.25433.47114-.52081.69882-.79796.29505-.35922.57901-.74104.85871-1.13223.29207-.40783.57688-.83036.85616-1.26483,3.50691-5.45842,6.1922-12.69481,12.11793-13.84644.47541-.09231.96403-.15989,1.48335-.1697,1.67053-.03134,3.32613.32255,4.99538.74104.50312.12621,1.00837.25284,1.5149.38288,1.76561.45302,3.55637.87961,5.41109.91372,3.12957.05735,5.73684-.27906,7.96463-.88792,2.0888-.57091,3.84545-1.38038,5.34159-2.36125,1.03012-.67559,1.94298-1.42813,2.76971-2.23014.55087-.53446,1.0638-1.09087,1.54773-1.66093s.93887-1.15376,1.37462-1.7428c.87108-1.17807,1.66413-2.37766,2.45377-3.53292,2.36978-3.46555,4.71184-6.53096,9.05103-7.41547,5.12158-1.04419,9.12437,1.19363,13.02098,2.68252.41017.15669.81949.30507,1.22838.44066.61355.20317,1.2271.37691,1.84449.50568.41188.08591.82546.15179,1.2416.19272.41657.04114.83612.05735,1.2595.04434.8472-.02644,1.71061-.17055,2.60044-.47008,2.93472-.98812,4.70033-4.60397,4.74979-8.00237.0064-.42659-.02473-.84635-.07376-1.26036-.10702-.9054-.33854-1.77115-.72569-2.53116-.03198-.06204-.07462-.11597-.1083-.17673-.26606-.48052-.58328-.92416-.97511-1.29916-.15648-.14966-.50013-.34941-.98663-.5852-.16884-.08165-.35986-.16906-.56111-.25881-.6694-.29889-1.50339-.63785-2.44439-.99792-.40804-.15605-.83484-.31594-1.27528-.47754-.44087-.16181-.89496-.32554-1.35672-.48948-.46219-.16373-.93248-.32788-1.4049-.49054-.23621-.08122-.47327-.16202-.70991-.24239-1.02244-.34643-2.04147-.68049-3.00507-.98663-.30614-.09721-.6063-.19144-.89922-.28226-.16032-.04967-.31722-.09807-.47285-.14539Z"/>
  <path class="d" d="M1144.80978,816.08711c-2.17919-.27693-4.20744-.39631-5.86347-.37841-.01407.00021-.02644.00085-.04051.00107-.53552.00661-1.03353.02707-1.4825.06182-1.08725.08421-2.07814.236-3.02127.4219-6.95072,1.37036-10.36767,5.2625-15.34898,8.41723-.40122.25433-.81565.50205-1.24032.74487-.4042.23088-.8229.45451-1.25311.67218-.23621.11938-.46432.24325-.70948.35794-.73592.3443-1.47397.65938-2.21287.94932-1.10899.43469-2.22055.81288-3.33338,1.14865-7.41888,2.23909-14.89404,2.59746-21.94964,5.3126-.35261.13559-.70437.27736-1.05484.42531-.93034.3929-1.85131.8359-2.76502,1.329-1.15248.62208-2.29175,1.32666-3.41354,2.14401-.57432.4187-1.19214.91713-1.83596,1.48292-.64382.56601-1.31365,1.19939-1.99244,1.88819-1.19896,1.21623-2.42435,2.60727-3.58536,4.10021-.29292.3767-.58072.7598-.86383,1.14865-.17012.23387-.33769.46944-.50355.70735-3.82584,5.48698-6.37682,11.91753-3.60114,16.38186,1.49102,2.3977,3.10271,3.27006,4.77537,3.13021.13687-.01151.27544-.04434.41315-.06907.3428-.06182.68731-.14923,1.03438-.28695,3.4566-1.37356,7.09569-6.31202,10.4248-10.52884,1.59165-2.01631,3.11337-3.8689,4.50889-5.08577.20551-.17908.40804-.34451.60801-.49459s.39695-.28503.59095-.40313c.92224-.56196,6.79424-2.96606,14.06901-5.84087.9491-.37499,1.92166-.75788,2.91042-1.14588.32959-.1294.66088-.25923.99387-.38949.66557-.26073,1.3371-.52295,2.01248-.78623.33769-.13154.67623-.26328,1.01519-.39546.67836-.26371,1.35885-.52785,2.03976-.79177.68092-.26371,1.36183-.527,2.04062-.78879s1.35501-.52231,2.02697-.78047c.57901-.22235,1.15376-.44257,1.72425-.66109.2183-.08336.43533-.1665.65192-.24921.73592-.28119,1.46246-.55833,2.17706-.82972.88003-.33449,1.74088-.66066,2.57699-.97618.93418-.35218,1.83596-.69094,2.69894-1.01349,1.19896-.44769,2.3216-.8634,3.34446-1.2384.12834-.04711.25497-.09316.38032-.139,2.96883-1.08448,5.03546-1.79801,5.59145-1.90546.1407-.02707.29036-.04114.43618-.06054,5.10154-.67729,13.40216,3.26111,19.30443,3.23894.0081,0,.01705.00085.02516.00085,3.64335-.02068,6.36574-1.56244,6.842-6.65418.17396-1.85962-.39098-3.48112-1.47226-4.88431-.54064-.70181-1.21047-1.34904-1.98178-1.94404-1.02798-.79348-2.23632-1.49465-3.55893-2.10926-.6613-.30741-1.35117-.59308-2.06108-.85807-1.42025-.52955-2.92193-.97597-4.43896-1.34478-1.45691-.3541-2.92662-.63508-4.35326-.85168-.43064-.06545-.85871-.12642-1.27954-.17993Z"/>
  <path class="c" d="M603.36177,267.03667c-7.64784,19.6451-4.7451,86.68916-6.08817,112.98311-.9619,18.82945,3.27667,36.15296-7.92456,53.11341,7.85207,8.43172.80622,25.37199,10.20517,34.43794,4.54342,4.38204,36.70132,15.1741,41.75298,16.6809,12.73276,3.79855,55.8714.95486,72.15413.91137h0l-4.00364-244.1414v-.00064c-.86895-15.71288-3.43997-32.92319-4.00364-48.02785v-.00021l-87.75312-75.02751-1.97863,13.37344c-5.65242,8.4846-24.00691,21.55498-24.00691,21.55498,1.19683.60694,27.55731,27.99588,27.66092,28.09224h0c1.00496.93482-4.98534,5.11928-6.43287,10.38924-10.30968,12.31086-25.31727,31.02769-25.77476,31.52591l9.83851,5.6394c5.79341,3.32077,10.69279,8.00275,14.27331,13.63933.92152,1.4507,1.80174,2.84288,2.48982,3.93323.84868,1.34483.84305,3.04986-.01316,4.38992-3.07349,4.81034-10.1589,15.92563-10.39539,16.53321h0ZM620.58721,241.23134c4.20233-8.5914,14.54697-18.16005,24.28958-19.73635,38.91201-6.29581,57.10958,47.26102,23.96596,65.97621-30.5031,17.22416-63.62071-14.8288-48.25553-46.23986Z"/>
  <path class="g" d="M1121.83173,631.24855l-71.12998-208.0556c-17.57336-39.91399-47.31752-69.63938-90.94606-79.18266-42.35966-9.26571-62.38654-14.30605-134.19257-12.93656.26819,22.1818.77983,44.35871,1.23008,66.53646.12876,6.33674.99515,63.37128.78239,85.56247-9.51919.03091-85.54094,1.91462-114.11427,1.99073-16.28273.04349-59.42137,2.88718-72.15413-.91137-5.05166-1.5068-24.4516-16.66156-28.99502-21.0436-9.39895-9.06595-16.53183-19.56527-21.3897-29.0401,11.65049-12.7355,9.61535-58.63558,9.61535-58.63558l2.34863-107.61566-9.49456,10.17307c-.35559,26.5551-1.22342,51.72936-1.38544,78.2721-.09573,15.68591-.16302,31.83538-.97744,47.71343-.48972,9.5475-3.16161,18.84935-7.83249,27.19066-25.44813,45.44558-113.95656,203.98456-113.95656,203.98456,0,0,447.83447.84048,491.59237.05909,1.38111-.02466,2.75729.04609,4.12947.20479,18.10858,2.09434,34.35454,8.15165,42.76673,41.76044,0,0,113.82477-45.28884,114.10319-46.02667Z"/>
  <path class="g" d="M481.12894,359.11986c-21.8277,5.23777-50.93187,14.19777-69.94168,25.98526-49.07429,30.43042-142.50784,207.96897-177.06372,280.4595-7.45109,15.63073.48409,34.25055,16.9119,39.72463h.00003c.00377-.00114.00715-.00216.01092-.00331,29.88319-40.50594,194.29537-252.28415,229.11597-302.25762.69925-4.68071.91286-21.54054.96659-43.90846Z"/>
  <path class="k" d="M811.1642,110.8721l13.43143-54.02202c1.21479-4.88595-3.69969-9.04433-8.31717-7.03756l-72.33063,31.43519c-2.44733,1.06362-5.30221.40573-7.03723-1.62169l-61.33807-71.6755c-3.0323-3.54334-8.76106-2.49002-10.33464,1.9002l-25.43533,70.96325c-1.18106,3.2951-4.89511,4.91305-8.11237,3.53399l-90.84689-38.94087c-3.60264-1.54425-7.7031.67676-8.37792,4.53789l-10.305,58.9621c-.35687,2.04188-1.73018,3.76089-3.64285,4.55984l-83.67333,34.95165c-4.28204,1.78868-5.0587,7.52367-1.40662,10.38681l49.4663,38.78039c2.46705,1.93411,6.00063,1.67352,8.15727-.60157l68.12434-71.8659c.47853-.50481,1.03457-.93502,1.66042-1.23857.00332-.00161.00663-.00321.00995-.00482.33172-.16032.67026-.30571,1.01605-.42019.34579-.11427.69925-.19762,1.06039-.23365.34238-.0339.69243-.02132,1.0493.04306.02004.00362.03965.0032.05969.00704.21916.04349.57603.24495,1.02798.5594.09508.06609.19315.1358.29761.21276.48137.35581,1.05399.82055,1.70293,1.38102.06609.05713.13175.11384.19954.17268,4.82582,4.20906,13.40914,13.16438,17.61615,18.84313,1.72065,2.32258,1.55206,5.53394-.38625,7.67823l-60.38474,66.80172c-1.48505,1.64239-1.16272,4.22087.68049,5.44755,1.46203.97319,3.41183.75766,4.62614-.51122l65.93336-68.88513c4.58353-4.55659,14.50428-15.15639,20.17341-21.24578,2.31136-2.48271,6.20709-2.58929,8.65327-.23929l72.32125,69.47759c3.90174,3.74833,10.38781.91055,10.28283-4.49894l-1.02888-53.01614c-.09252-4.76721,5.0917-7.77801,9.18651-5.33517l86.67554,51.70796c.62069.37029,1.17033.84836,1.62307,1.41173l16.56305,20.61065c2.72876,3.3956,8.03912,2.90043,10.09304-.94114l51.71281-96.72137c2.4104-4.5083-1.4858-9.79641-6.50585-8.83008l-56.89629,10.95223c-4.35742.83878-8.11471-3.12517-7.04403-7.43149Z"/>
  <path class="g" d="M619.37631,180.98644h0c-19.57732,17.5544-52.6817,57.3809-60.46039,66.82824-.92157,1.11926-1.8803,3.4994-.74385,4.39968l1.4152,1.12915c1.04748.8298,2.83041.42155,4.30583-1.29161,7.44529-8.64495,39.48333-43.34821,53.68428-59.13361,2.93342-3.26071,3.64241-7.95205,1.79893-11.93184Z"/>
  <path class="g" d="M688.28042,364.39178s52.80471-3.02216,53.12022-3.54234c.03155-.05202.07931-.19507.07931-.19507l-32.02226-119.63238-21.17726,123.36979Z"/>
  <path class="g" d="M775.76198,291.64688c25.04362-4.22118,43.29349-37.22816,21.03741-59.50686-14.57041-14.43515-32.61834-13.7492-44.68826-5.1547-9.60181,6.9339-16.08453,18.37395-16.42644,30.28359v.00213c-1.41408,19.10461,20.26875,37.97019,40.07729,34.37584ZM771.74385,269.55866c-.51037.05969-1.0267.09892-1.55327.09892-1.37036,0-2.69169-.20807-3.93499-.59479-.82844-.25753-1.62235-.59436-2.37234-1.00176-4.12473-2.23995-6.92514-6.60898-6.92514-11.63165,0-3.65273,1.48122-6.95967,3.87572-9.35354.89794-.89773,1.92464-1.6669,3.04941-2.27789.37521-.20359.76107-.3897,1.15675-.55706,1.1269-.47647,2.33609-.79284,3.5973-.94058.51037-.05991,1.0267-.09892,1.55327-.09892,3.87146,0,7.34384,1.67245,9.7635,4.32171.31296.34259.60715.70053.88302,1.07467.20295.27501.39525.55727.57646.84805,1.2659,2.02847,2.00949,4.41658,2.00949,6.98355,0,2.73966-.83313,5.28488-2.25977,7.39607-.71375,1.0557-1.57545,2.00288-2.55568,2.8115-.81096.66898-1.71061,1.22966-2.66653,1.69227-.44428.21489-.9005.40591-1.37079.57091-.25412.08911-.50994.17268-.77088.24666-.66599.18846-1.35117.32937-2.05554.41188Z"/>
  <path class="g" d="M796.76365,202.87194s-57.87973-27.60235-58.17108-27.8518l-9.032,15.7228,60.73439,26.62936c.01232-.00022,6.4687-14.50035,6.4687-14.50035Z"/>
  <path class="g" d="M665.02892,188.38231s-56.57093,21.60296-56.89906,21.6355l4.39019,14.95704,57.66442-23.95381c.00719-.00778-5.15556-12.63873-5.15556-12.63873Z"/>
  <path class="g" d="M668.84274,287.4712c33.14362-18.71518,14.94605-72.27202-23.96596-65.97621-9.74261,1.5763-20.08725,11.14494-24.28958,19.73635-15.36518,31.41106,17.75244,63.46402,48.25553,46.23986ZM651.31799,242.96923c2.59448,0,5.01115.73443,7.07906,1.98732,3.95972,2.39941,6.61474,6.73519,6.61474,11.70221,0,7.56043-6.13081,13.68932-13.6938,13.68932-2.36338,0-4.58691-.59863-6.52733-1.65219-4.26841-2.31819-7.16647-6.83922-7.16647-12.03713,0-7.56043,6.13123-13.68953,13.6938-13.68953Z"/>
  <path class="d" d="M433.83085,574.23069c11.69193-4.81541,18.32121-23.27805-.6912-31.03175-.70618-.28802-1.42804-.49041-2.15911-.61451-.73121-.12393-1.47143-.16912-2.21448-.14258s-1.48864.12447-2.2302.28768c-7.41636,1.63033-14.43432,9.74861-14.4513,17.49246-.00499,2.32301.62027,4.6125,2.05345,6.68294,4.58867,6.62769,10.12895,8.89762,15.24724,8.43469.34198-.0311.68182-.0773,1.01959-.13227.70863-.11502,1.40586-.28472,2.09049-.49838.33316-.10392.66299-.21791.98915-.34365.11548-.04466.23178-.08752.34636-.13461Z"/>
  <path class="d" d="M312.58577,754.27545c-14.26761,1.19513-26.31711-3.6059-26.91331-10.72342-.5962-7.11751,10.48666-13.85624,24.75427-15.05138,14.26761-1.19513,26.91331,10.72342,26.91331,10.72342,0,0-10.48666,13.85624-24.75427,15.05138Z"/>
  <path class="d" d="M345.32246,661.56936c.48384,14.3094-4.91072,26.10512-12.04908,26.34649-7.13836.24137-13.31737-11.16302-13.80121-25.47242-.48384-14.3094,12.04908-26.34649,12.04908-26.34649,0,0,13.31737,11.16302,13.80121,25.47242Z"/>
  <path class="d" d="M358.00049,692.8881c-14.26761,1.19513-26.31711-3.6059-26.91331-10.72342-.5962-7.11751,10.48666-13.85624,24.75427-15.05138,14.26761-1.19513,26.91331,10.72342,26.91331,10.72342,0,0-10.48666,13.85624-24.75427,15.05138Z"/>
  <path class="d" d="M388.22069,600.14821c.48384,14.3094-4.91072,26.10512-12.04908,26.34649-7.13836.24137-13.31737-11.16302-13.80121-25.47242-.48384-14.3094,12.04908-26.34649,12.04908-26.34649,0,0,13.31737,11.16302,13.80121,25.47242Z"/>
  <path class="d" d="M400.89872,631.46695c-14.26761,1.19513-26.31711-3.6059-26.91331-10.72342-.5962-7.11751,10.48666-13.85624,24.75427-15.05138s26.91331,10.72342,26.91331,10.72342c0,0-10.48666,13.85624-24.75427,15.05138Z"/>
  <path class="d" d="M279.52883,790.5304l-10.48614-2.4377c.90306-3.88474,9.0593-38.27964,17.24037-49.5332,4.33171-5.95894,15.8521-21.63707,26.99315-36.79944,8.87206-12.07413,17.47935-23.78818,21.9436-29.8958,9.98393-13.66006,81.88169-107.23405,84.93748-111.21076l8.53653,6.55928c-.74767.97327-74.87466,97.44795-84.78237,111.00404-4.46774,6.11266-13.0811,17.83473-21.95982,29.9179-11.13294,15.15132-22.64509,30.81841-26.9607,36.75524-5.84687,8.04271-13.14392,35.67289-15.46209,45.64043Z"/>
  <path class="g" d="M995.2435,661.78171c-.30145-.58605-.6144-1.16165-.93972-1.72702-.65064-1.13053-1.35075-2.21905-2.10244-3.26367-.37563-.52231-.76449-1.03374-1.16655-1.53387-2.17066-2.69936-4.73955-5.06232-7.74121-7.06797-1.8317-1.22411-3.8284-2.31243-6.0029-3.25471-.8634-.37414-1.74429-.734-2.6644-1.06188-.70351-.25071-1.42408-.48756-2.16128-.71034-.0295-.00892-.05903-.01781-.08858-.02669-4.55023-1.36601-9.29787-1.96219-14.04872-1.96125l-524.09629.10316c-24.41962,2.47317-35.09044,19.44002-39.05868,42.00129,2.54544,54.63811,4.20574,109.41928,6.00545,164.09534,1.57289,47.77714,4.19593,95.46496,6.08817,143.00078,1.45649,36.59297-10.71388,84.13732,35.86047,96.22817l493.51396.88771c32.9121-5.60957,39.44327-22.11998,43.06232-52.00718.1164-.96168,8.89057-154.83513,14.98385-255.56408-.87236-12.18956,5.27181-54.70787,6.4793-70.72156.49374-10.45912.70863-17.49107.55684-19.91564-.66088-10.53374-2.56378-19.88259-6.47958-27.50059Z"/>
  <circle class="c" cx="698.47187" cy="850.06877" r="41.67474"/>
  <path class="e" d="M523.42741,908.90221c-3.41846,14.91723-15.39251,15.95811-19.76976,17.2536-32.09003,9.49731-106.94259,6.22077-138.55172-5.0128-18.86354-6.70391-14.89655-28.09195,5.64475-25.77871,35.97784,4.05162,101.68794-5.34933,137.52766.3994,18.34483,2.94253,16,9.42529,15.14907,13.13851Z"/>
  <path class="k" d="M351.29138,918.90755c.55459-17.43606,1.26596-8.24702,13.46544-4.45587,36.44562,11.32597,102.06019,13.58564,139.08148,3.8641,7.48947-1.96669,13.44251-4.80549,19.58913-9.41358.07981,17.98493-.0384,36.04616.02008,54.03096.10229,31.45776,3.99699,79.93833.10536,109.16878-1.4104,10.59366-18.17397,17.69293-27.6826,20.35498-8.17138,2.28766-82.95097,8.30741-112.54983.55193-6.67494-1.74897-26.78929-9.22321-30.16198-14.87403-5.09494-8.5364,2.5565-36.14757-5.21646-34.87532-22.1958,3.63291-35.55348-7.93148-42.3499-22.38274-10.94394-23.27015-8.10982-55.4037,5.78126-79.97403,2.15469-3.81118,14.40453-17.82841,39.93016-15.98755.36455.02622-.06102-4.47063-.01213-6.00763ZM327.26959,960.932c-3.79168,7.86601-4.51823,19.46914-4.65492,27.10401-.16468,9.19817,3.76394,23.61621,11.96055,28.62886,23.73774,14.51684,19.16638-31.29083,19.16563-43.03891-.00044-6.87332-2.60888-24.06506-7.12041-25.33989-12.47422-3.52485-14.46331,2.50646-19.35087,12.64592ZM430.87685,988.44563c7.56762-7.69102-.73844-27.24437-12.16937-19.6426-10.11715,6.72808,1.73645,30.24563,12.16937,19.6426ZM476.79714,967.24484c-9.64571,2.73971-6.91691,25.71861,5.36251,21.5527,6.76959-2.29665,7.3228-25.15576-5.36251-21.5527Z"/>
  <path class="k" d="M519.33942,899.00843c4.34925,6.34336-9.49912,11.63146-13.87637,12.92695-32.09003,9.49731-105.61765,8.27043-137.22678-2.96314-18.86354-6.70391-15.32319-11.00051,1.51309-16.63891,34.46572-11.54243,99.45498-9.6461,134.11967,1.11928,2.32952.72345,15.00572,4.87809,15.4704,5.55582Z"/>
  <path class="e" d="M431.70804,1011.85414c3.25895,1.89868,3.24091,14.45038,19.24927,15.86321,21.85197,1.92856,21.94347-13.70094,28.30502-15.86191,11.55188-3.9241,8.28328,7.08374,3.58436,13.6272-12.45974,17.35074-40.27338,19.08567-54.60358,2.83333-1.74652-1.98079-6.44557-9.10755-6.02052-11.41025.57655-3.12344,6.49792-6.79213,9.48545-5.05157Z"/>
  <path class="e" d="M430.87685,988.44563c-10.43292,10.60303-22.28652-12.91453-12.16937-19.6426,11.43093-7.60176,19.737,11.95159,12.16937,19.6426Z"/>
  <path class="e" d="M476.79714,967.24484c12.68531-3.60306,12.1321,19.25606,5.36251,21.5527-12.27941,4.1659-15.00822-18.813-5.36251-21.5527Z"/>
  <path class="f" d="M998.49333,617.62289c-.47474-24.16786-1.59752-46.73624-10.59117-77.45761-12.84902,6.88937-28.24326,7.11665-41.29016.60987-13.0469-6.50677-22.12347-18.93853-24.34534-33.34382-22.92684,3.26743-83.08884,14.76068-114.67983,20.88135-11.12294,2.15518-18.46818,12.82357-16.51615,23.98381l17.27169,98.75029c9.12923,17.08347,26.48385,7.27899,41.59115,6.80798l4.18268,33.88766c-.00746,1.83028,4.14977,1.3619,5.07862.96285,3.53024-1.51744,25.56158-36.12927,31.55369-41.05828,28.62981-7.37508,61.05224-6.93763,89.52805-12.94028,12.76828-2.69134,18.48749-7.29851,18.21678-21.08384Z"/>
  <circle class="g" cx="857.96876" cy="589.53332" r="8.55482"/>
  <circle class="g" cx="895.63719" cy="583.75868" r="8.14356"/>
  <circle class="g" cx="933.432" cy="577.97612" r="8.10906"/>
  <circle class="k" cx="968.26539" cy="497.14163" r="49.3287"/>
  <path class="g" d="M952.80693,514.51537c-2.14988,0-4.05512-.42445-5.71477-1.27251-1.66008-.84784-2.99463-1.99627-4.00374-3.44424-1.00912-1.44775-1.62341-3.07116-1.84278-4.87002h6.62529c.26318,1.17018.8261,2.09882,1.68918,2.78592.86276.68774,1.9449,1.03118,3.24682,1.03118,1.43314,0,2.64351-.42786,3.63067-1.28338.98726-.85552,1.7331-2.0694,2.23771-3.64165.50461-1.57203.75681-3.43336.75681-5.58313h-.21937c-.49736.9361-1.1592,1.7477-1.9853,2.43501-.82652.68753-1.76987,1.21751-2.83005,1.59058-1.0606.37286-2.19038.5594-3.38934.5594-1.93061,0-3.6603-.45323-5.18831-1.36013-1.52854-.90668-2.72793-2.15723-3.59784-3.75144-.87033-1.59399-1.30534-3.41482-1.30534-5.46247,0-2.20818.51175-4.17163,1.53569-5.89033,1.02351-1.71849,2.44951-3.07137,4.2779-4.05864,1.82796-.98726,3.94874-1.46608,6.3619-1.43687,1.65262,0,3.24682.28183,4.78251.84464,1.53569.56324,2.91393,1.46267,4.13528,2.6983,1.22102,1.23605,2.19006,2.87759,2.90679,4.92503.71641,2.04787,1.07488,4.57071,1.07488,7.56853,0,2.76417-.31083,5.23223-.93226,7.40417-.62186,2.17173-1.50659,4.01835-2.65449,5.53922-1.14833,1.5213-2.53382,2.68018-4.15724,3.47728-1.62341.79689-3.43709,1.19555-5.44062,1.19555ZM953.04826,497.90838c.80414,0,1.55381-.1569,2.24858-.47157.69445-.31445,1.29777-.73848,1.80995-1.27251.51175-.5336.91382-1.15163,1.20653-1.85365.29238-.70202.43874-1.46246.43874-2.28173,0-1.05293-.24506-2.01823-.73485-2.89571-.49022-.87747-1.15931-1.58291-2.00736-2.11694-.84837-.53382-1.82082-.80073-2.91777-.80073-1.06774,0-2.02921.25966-2.88483.77877-.85552.51932-1.53217,1.22134-2.02921,2.10607-.49736.88494-.74583,1.87561-.74583,2.97245,0,1.09706.24474,2.08411.73485,2.96158.4899.87769,1.15515,1.5763,1.99638,2.09519.84081.51932,1.80228.77877,2.88483.77877Z"/>
  <path class="g" d="M982.45164,514.51537c-2.14988,0-4.05512-.42445-5.71477-1.27251-1.66008-.84784-2.99463-1.99627-4.00374-3.44424-1.00912-1.44775-1.62341-3.07116-1.84278-4.87002h6.62529c.26318,1.17018.8261,2.09882,1.68918,2.78592.86276.68774,1.9449,1.03118,3.24682,1.03118,1.43314,0,2.64351-.42786,3.63067-1.28338.98726-.85552,1.7331-2.0694,2.23771-3.64165.50461-1.57203.75681-3.43336.75681-5.58313h-.21937c-.49736.9361-1.1592,1.7477-1.9853,2.43501-.82652.68753-1.76987,1.21751-2.83005,1.59058-1.0606.37286-2.19038.5594-3.38934.5594-1.93061,0-3.6603-.45323-5.18831-1.36013-1.52854-.90668-2.72793-2.15723-3.59784-3.75144-.87033-1.59399-1.30534-3.41482-1.30534-5.46247,0-2.20818.51175-4.17163,1.53569-5.89033,1.02351-1.71849,2.44951-3.07137,4.2779-4.05864,1.82796-.98726,3.94874-1.46608,6.3619-1.43687,1.65262,0,3.24682.28183,4.78251.84464,1.53569.56324,2.91393,1.46267,4.13528,2.6983,1.22102,1.23605,2.19006,2.87759,2.90679,4.92503.71641,2.04787,1.07488,4.57071,1.07488,7.56853,0,2.76417-.31083,5.23223-.93226,7.40417-.62186,2.17173-1.50659,4.01835-2.65449,5.53922-1.14833,1.5213-2.53382,2.68018-4.15724,3.47728-1.62341.79689-3.43709,1.19555-5.44062,1.19555ZM982.69297,497.90838c.80414,0,1.55381-.1569,2.24858-.47157.69445-.31445,1.29777-.73848,1.80995-1.27251.51175-.5336.91382-1.15163,1.20653-1.85365.29238-.70202.43874-1.46246.43874-2.28173,0-1.05293-.24506-2.01823-.73485-2.89571-.49022-.87747-1.15931-1.58291-2.00736-2.11694-.84837-.53382-1.82082-.80073-2.91777-.80073-1.06774,0-2.02921.25966-2.88483.77877-.85552.51932-1.53217,1.22134-2.02921,2.10607-.49736.88494-.74583,1.87561-.74583,2.97245,0,1.09706.24474,2.08411.73485,2.96158.4899.87769,1.15515,1.5763,1.99638,2.09519.84081.51932,1.80228.77877,2.88483.77877Z"/>
  <path class="g" d="M693.03716,406.58395h40.82759v.00003c0,11.26667-9.1471,20.41377-20.41377,20.41377h-.00006c-11.26666,0-20.41376-9.1471-20.41376-20.41376v-.00003h0Z" transform="translate(-57.01304 118.27434) rotate(-9.11417)"/>
  <g>
    <path class="c" d="M303.48716,323.67218c1.55287,1.16053,1.78418,3.38732.50293,4.84166-6.61564,7.50939-27.21213,28.38645-53.86202,31.14925-26.64989,2.7628-51.09853-13.44443-59.11667-19.43673-1.55287-1.16053-1.78418-3.38732-.50293-4.84166,6.61564-7.50939,27.21213-28.38645,53.86202-31.14925,26.64989-2.7628,51.09853,13.44443,59.11667,19.43673Z"/>
    <path class="g" d="M245.02116,301.82771c-.08159.00525-.16326.01082-.245.01673-5.74607.41517-10.81147,3.88922-13.48659,8.9865-5.50746,10.49412-4.50071,19.29906-4.05212,23.29792.46806,4.17243,5.47888,22.04736,15.12658,26.68621,5.54191,2.66469,14.10929.50569,16.98094-2.68935,5.5896-6.21906,8.28935-17.8731,8.28934-25.01664,0-5.06001-1.37628-15.33165-8.55899-24.75722-3.31622-4.35174-8.59075-6.87544-14.05416-6.52415Z"/>
  </g>
</svg>