<?xml version="1.0" encoding="UTF-8"?>
<svg id="b" data-name="Layer 2" xmlns="http://www.w3.org/2000/svg" viewBox="0 0 330.76328 339.77505">
  <defs>
    <style>
      .c {
        fill: #e9b22b;
      }

      .d {
        fill: #0b3d9f;
      }
    </style>
  </defs>
  <path class="d" d="M22.66939,250.23152l59.64361-57.74277L1.37439,175.89809c-2.22894-1.36737-1.33123-6.02584-.21233-7.73054,3.20189-4.87823,81.27878-17.11205,81.11543-21.35034l-61.59705-53.90114c-3.16494-3.75772-2.68454-10.02147,2.92477-10.45288l79.20326,24.28328-25.66609-80.81265c2.09795-4.84331,6.04387-6.03515,10.20822-2.4358l55.55099,62.75238c7.35626-23.50143,6.83729-59.05903,15.84239-81.03704,2.46456-6.01505,7.16533-7.23524,10.79638-1.49055l17.17678,82.5324c10.06882-7.0178,53.19782-65.24664,60.55001-65.28558,2.15527-.01141,3.90601,1.16609,4.49177,3.15417,2.75085,9.33637-23.14274,68.80003-25.92129,82.61376l79.28229-24.3177c13.09616,1.89165,3.47384,9.91347-1.88332,15.06631-17.68483,17.01036-37.32517,32.30173-55.02336,49.34047l78.82619,18.07124c6.45305,4.46147,3.86113,9.1844-2.74902,11.39756-10.31352,3.45309-71.38262,12.56619-74.21803,16.19573l60.6727,57.75466c1.94084,2.3864-1.06679,5.75541-2.94009,6.5645-6.0687,2.62112-68.90782-22.55562-80.0855-25.21137,1.01283,12.0583,29.43362,82.44848,24.20372,87.57969-5.14418.87214-6.90252-.7159-10.34602-3.62803-14.76202-12.48405-34.05088-40.96212-49.33982-56.97778-1.79366-1.87892-1.67798-7.55008-5.54922-3.67449-2.6654,21.77586-6.61733,44.97811-12.08272,66.16554-1.35903,5.26851-5.39402,27.68404-12.94602,14.74643l-15.9805-79.97988c-3.26811-.66143-4.60271,1.68146-6.54296,3.68951-14.86687,15.38644-27.05023,34.0365-41.85967,49.45599-4.49021,4.67517-14.27437,17.00107-18.36823,5.95541l25.76283-81.46159-76.40974,24.21505c-.35412-.31688-4.61475.86708-6.65785-1.81133-1.77099-2.32169,1.16499-5.09708,1.06608-5.64194ZM218.02667,169.73549c0-28.72775-23.29602-52.01619-52.03311-52.01619s-52.03311,23.28844-52.03311,52.01619,23.29602,52.01619,52.03311,52.01619,52.03311-23.28844,52.03311-52.01619Z"/>
  <ellipse class="c" cx="165.99356" cy="169.73549" rx="52.03311" ry="52.01619"/>
</svg>