<?xml version="1.0" encoding="UTF-8"?>
<svg id="a" data-name="Layer 1" xmlns="http://www.w3.org/2000/svg" viewBox="0 0 536.515 792.61853">
  <defs>
    <style>
      .c {
        fill: #0b3d9f;
      }

      .d {
        fill: #1e1e1e;
      }

      .e {
        fill: none;
      }

      .f {
        fill: #f5f5f6;
      }

      .g {
        fill: #cf2e2c;
      }

      .h {
        fill: #db88b9;
      }
    </style>
  </defs>
  <path class="e" d="M130.35891,611.13465c-2.35742-4.66638-4.78223-9.29272-7.47021-13.75842,2.68799,4.46582,5.11279,9.09204,7.47021,13.75842Z"/>
  <path class="e" d="M142.49612,634.24402c-2.67871-4.46606-5.09814-9.09241-7.45312-13.75879,2.35498,4.66638,4.77393,9.29272,7.45312,13.75879Z"/>
  <path class="e" d="M400.88772,53.13727c2.26416,1.57141,4.35107,3.29523,6.26318,5.14679-1.87354-1.82452-3.95801-3.54712-6.26318-5.14679Z"/>
  <path class="e" d="M139.82375,706.31165c15.00439-1.77637,29.25391,7.91333,40.521,20.65967-10.94531-12.77759-25.05469-22.49072-40.521-20.65967Z"/>
  <path class="e" d="M201.94094,776.16053c-.10107-.89502-.1748-1.79736-.25488-2.698.0791.96802.16309,1.88635.25488,2.698Z"/>
  <path class="e" d="M88.16946,546.00599c-3.01025-5.60852-5.19043-13.45581-8.01416-19.51904,2.57715,6.17236,5.00293,13.91064,8.01416,19.51904Z"/>
  <g>
    <path class="c" d="M505.59036,332.52198c-16.03613,6.45111-23.66602,21.38354-37.20557,28.68231-5.44531,2.93567-12.7334,6.77399-11.32764-2.59436,3.57275-23.81604,30.86572-34.71118,46.7666-48.69659,14.98242-13.17688,29.59717-32.51349,26.82666-53.7384-2.26904-17.38007-21.23291-5.99127-28.53613.93201-7.35352,6.97052-18.66113,26.04419-27.8584,28.61298-5.89746,1.64709-5.18408-2.70831-4.65918-7.34448,3.2876-29.0163,38.99463-44.24817,49.33301-71.01324,8.61133-22.29504-4.40723-45.14264-25.18018-21.81836-2.98291,3.3493-10.53076,16.23279-15.11963,15.7951-4.19287-.39984-2.06592-12.46716-1.60254-15.70892,3.52246-24.61841,11.20801-37.6424,5.48584-64.19025-1.57129-7.28949-7.62158-27.1272-17.46533-27.90527-1.75098-.13837-3.61963.31555-5.60693,1.56177-9.98926,6.26453-16.26758,38.22864-16.18799,49.42676.05811,8.19446,2.75684,17.73285,2.7666,25.56848.02197,17.216-10.86035-2.27118-14.47217-6.42621-10.14209-11.66809-26.33398-17.80054-27.05322,3.89478-1.08105,32.61151,35.22998,44.8382,39.96973,74.62482.65381,4.10773,1.1792,15.9646-1.08252,19.25439-1.75391,2.55151-6.73242-3.05212-7.81592-4.30469-4.07568-4.71155-7.0083-10.92761-11.10547-15.78766-4.59082-5.44556-11.02393-11.51703-18.13281-13.13049.30762,14.992-.1709,30.0484,0,45.04572l23.8125,26.2757c6.10059,10.57874,9.09863,22.90643,5.43066,34.90283-.7251,2.37189-.45703,4.00494-3.05615,3.07495-6.47656-2.31738-15.49951-27.1925-25.51465-29.2926.88916,14.55115,2.49219,27.32239,5.22021,39.06067,5.9043,25.40839,17.09229,45.96625,37.80859,69.18347,3.13721-4.7041,7.11133-9.43054,11.42188-13.11823,20.53613-17.56848,52.30225-17.42291,66.68311-44.25018,10.60449-19.7818-.33984-35.50848-22.54297-26.57678Z"/>
    <path class="c" d="M142.21291,476.08399c-4.83057,0-8.74658,3.91589-8.74658,8.74622,0,4.83057,3.91602,8.74634,8.74658,8.74634,4.83008,0,8.74609-3.91577,8.74609-8.74634,0-4.83032-3.91602-8.74622-8.74609-8.74622Z"/>
    <path class="c" d="M330.83938,648.94275c-2.3252-7.30518-2.47705-14.48022-2.50146-22.03809-.01172-3.54175-.26758-7.54016.08154-11.01172.21045-2.09131,1.05371-4.63281,1.83252-7.05835.74365-2.31555,1.42871-4.52539,1.44727-6.13354.12891-11.10327-3.6958-24.61841-9.06201-34.30298-1.16211-2.09778-4.02197-8.38818-6.41797-7.07446-1.07324.58838-6.43262,9.18481-7.29639,10.86914-1.3252,2.58423-2.42969,5.11304-3.38818,7.62048-3.46582,9.0658-4.90723,17.83459-6.93701,27.77209-2.06787,10.12256-7.60938,17.39758-7.23779,29.40417.2085,6.73022,3.28271,14.03967,2.68945,21.51428,8.23193,19.05054,19.3999,34.5752,16.63574,56.63904-1.31738,10.51245-9.11084,18.82202-8.55615,30.4209.23096,4.83826,2.55127,10.63733,2.48926,15.28357-.12988,9.75928-7.81445,17.56799-7.40918,27.37854.02783.67468.09277,1.35864.20215,2.05359,10.86914-1.48682,21.15674-3.26318,31.59912-6.72327,1.16504-7.30823,1.89307-14.68054,2.43555-22.07239.08496-1.15869.17725-2.31641.25342-3.47595,1.0293-15.66113-1.33643-30.33215,3.72559-45.69043,4.34082-13.17065,10.43945-18.33899,9.07275-34.00427-1.00781-11.55322-10.30518-18.83765-13.6582-29.37036Z"/>
    <path class="c" d="M240.85159,753.71937c-1.21777-12.52161-10.71289-18.84473-14.34375-30.02734-3.40723-10.49463-2.81982-18.99915-.64746-26.69531,4.21094-14.91748,14.3877-26.79224,13.04785-44.19678-1.02734-13.34741-7.6709-18.7395-12.66797-29.68872-1.81543-3.97754-3.15625-10.81958-4.93311-13.89185-1.72705-2.98633-4.92432,3.09497-6.19922,4.96802-.34131.50171-.67725,1.02515-1.01611,1.53809-2.30078,3.4834-4.53467,7.20483-6.63867,11.10962-7.45996,13.84656-13.31348,29.83875-14.9248,44.44287-.19092,1.72998-.64551,5.53223-.67236,6.72339-.00635.27563,0,.57019-.00342.8501-.19775,16.23206,4.22559,39.60791,6.0542,56.29736.00049.00232.00049.00549.00098.00781.15576,1.41455.81104,6.0166.98047,7.59155.69873,6.48389,1.04736,10.11902,1.70801,16.60425.36035.88184.62842,8.45667,1.08984,14.11011.08008.90063.15381,1.80298.25488,2.698.15576,1.37708-.15967,2.34863.50732,3.85803,1.33691,3.02563,12.89697,5.55396,16.42285,6.44104,5.30127,1.33423,10.61279,2.302,16.01367,3.14746-2.12939-12.92517,7.20459-23.15796,5.9668-35.8877Z"/>
    <path class="c" d="M259.62209,424.06019c-38.80713,2.34662-70.6543,28.59033-92.53857,58.78552-.67822,2.44958,4.27246,7.81555,5.96582,9.91199,11.9209,14.76099,25.51514,26.67065,40.06836,35.32178,13.20898,7.85181,27.20801,13.01648,41.46924,15.17676,32.12061,4.86548,65.56396-5.49585,94.26514-34.67236,2.82666-2.87354,18.56982-21.25964,18.34473-23.76904-.07275-.81104-6.13037-8.125-7.27783-9.50098-25.71826-30.83008-58.2749-53.79468-100.29688-51.25366ZM253.68655,520.36463c-18.44482-3.57239-41.2627-16.91931-53.43604-31.27673-.99268-1.17078-3.92529-4.41248-3.6167-5.58997.34521-1.31689,11.15674-11.59985,13.05664-13.22668,12.58594-10.77356,31.20557-20.91858,47.90234-22.69177,32.26562-3.42676,60.36523,15.33252,80.78125,38.38086-20.30566,24.59106-52.33496,40.67041-84.6875,34.4043Z"/>
  </g>
  <g>
    <path class="h" d="M286.97805,7.01001c-31.36182,11.08191-59.8999,34.0177-74.95215,63.88257,38.78271-15.36469,80.80859-14.05017,117.65674,6.0509,9.95361-28.72205,45.52148-41.62823,71.20508-23.80621,2.30518,1.59967,4.38965,3.32227,6.26318,5.14679,18.56201,17.97644,20.55566,48.03906,6.9668,68.46405-7.10645,10.68146-20.36768,15.54022-23.92627,16.08313,11.36719,25.95575,15.55859,57.23871,16.13574,85.38519,7.10889,1.61346,13.54199,7.68494,18.13281,13.13049,4.09717,4.86005,7.02979,11.07611,11.10547,15.78766,1.0835,1.25256,6.06201,6.8562,7.81592,4.30469,2.26172-3.28979,1.73633-15.14667,1.08252-19.25439-4.73975-29.78662-41.05078-42.01331-39.96973-74.62482.71924-21.69531,16.91113-15.56287,27.05322-3.89478,3.61182,4.15503,14.49414,23.64221,14.47217,6.42621-.00977-7.83563-2.7085-17.37402-2.7666-25.56848-.07959-11.19812,6.19873-43.16223,16.18799-49.42676,1.9873-1.24622,3.85596-1.70013,5.60693-1.56177C433.92092,5.26673,341.24807-12.16638,286.97805,7.01001Z"/>
    <circle class="h" cx="133.49221" cy="446.20417" r="19.52927"/>
    <path class="h" d="M406.32717,273.26215c.1333,11.68445-.03809,23.33502.67236,34.96088,10.01514,2.1001,19.03809,26.97522,25.51465,29.2926,2.59912.92999,2.33105-.70306,3.05615-3.07495,3.66797-11.9964.66992-24.3241-5.43066-34.90283l-23.8125-26.2757Z"/>
    <path class="h" d="M198.58596,742.35779c-2.81396-4.49255-20.83203-45.51575-29.98193-59.59351-9.80566-15.08667-22.55225-28.7522-32.1626-43.81006-5.84277-9.15479-10.26367-19.26758-15.73682-28.63647-24.5498-42.02417-116.42139-144.0918-116.42725-144.09839-1.48877,2.84082-1.68896,6.44189-2.00977,9.75525-.57959,5.98181-.26709,12.78528-.68604,18.81177-1.41309,20.32776-7.49609,52.06213,19.50391,58.1626,14.90869,3.36853,43.47607-1.08728,51.4585,15.43835,4.07764,8.44177-.87256,11.59802-8.83838,12.72668-12.63037,1.78955-26.12354-.60706-38.58594-2.6167-5.96875-.96252-15.15674-3.58984-20.62646-3.81836-3.33447-.13928-2.39502,4.00073-2.22607,6.83801,1.45605,24.42529,9.65283,49.05737,38.98828,44.04297,16.18311-2.76624,32.17529-13.67883,49.6167-8.26868,8.56104,2.65552,13.7041,10.4967,3.94727,15.77869-5.13672,2.78101-38.06445,12.08862-42.80664,13.33203-1.15479.30286-22.61768,5.38098-24.17236,6.41406-2.69873,1.79272.44971,6.21326,1.70312,8.32349,9.62158,16.20337,26.18652,27.60498,45.32812,20.22339,14.85986-5.73047,27.47607-25.40112,44.71289-23.53223,9.6709,1.04871,8.2002,8.23682,3.3667,14.12793-9.62354,11.72888-21.78223,16.56091-34.6333,22.85083-.15967.07812-14.71875,6.98608-15.47754,7.71301-3.01123,2.88416,5.28662,6.77576,7.62061,7.87561,9.76172,4.59912,20.67969,6.43738,31.38867,4.58105,9.18848-1.5929,18.87598-7.59045,27.97412-8.66748,15.46631-1.83105,29.57568,7.88208,40.521,20.65967,9.07959,10.27173,16.22412,22.52625,20.25146,32.3811-.66064-6.48523-1.00928-10.12036-1.70801-16.60425-.06201-.03662-.16357-.16931-.30225-.39038Z"/>
    <path class="h" d="M195.45461,546.33838c-1.41504-1.4823-2.76562-2.72192-3.91309-3.5116-2.2041-1.51709-3.26172,1.64185-4.04443,3.41016-6.50684,14.70801-13.40674,47.97559-27.44727,56.59363-11.08447,6.80383-14.92285-5.13245-13.73975-14.41174,3.61963-28.38672,35.53857-59.92126-1.73926-81.97375-1.6582-.98083-11.62402-6.21277-12.54932-5.26965-1.53369,11.77246-1.38281,24.72498-5.37012,35.98486-2.0332,5.74231-6.98584,16.65125-14.47559,10.41943-10.44629-8.69189-.98682-39.00195-3.08398-52.04553-2.00146-12.44629-12.33838-20.90918-24.57715-22.34827-13.24512-1.55737-25.19238-1.20593-39.22559-3.6051-4.05957-.69409-8.84131-1.20764-12.77393-2.01697-.31543,1.44128,28.65967,13.45996,47.63965,58.92224.00049.00037.00049.00061.00049.00085,2.82373,6.06323,5.00391,13.91052,8.01416,19.51904.00342.00684.00684.01465.01074.02161,1.38037,2.56799,2.9458,5.18176,4.61768,7.82214,9.02832,14.25818,21.58496,29.39404,30.09082,43.52649,2.68799,4.4657,5.11279,9.09204,7.47021,13.75842.78564,1.55542,1.56396,3.11523,2.34229,4.67517s1.55664,3.11987,2.3418,4.67542c2.35498,4.66638,4.77441,9.29272,7.45312,13.75879,5.20117,8.67065,11.21436,16.69336,17.11914,24.84326,2.21436,3.05615,4.41357,6.13037,6.54932,9.26331,1.42334,2.08862,2.81885,4.20325,4.17139,6.35632,1.06689,1.698,2.09766,3.42847,3.104,5.18005.9082,1.57971,1.79834,3.17493,2.64648,4.80725.00293.00562.00586.01172.00879.01733.35889.69067.73193,1.43384,1.11182,2.20044.31982.64319.63281,1.28882.94336,1.93555.1333.27808.26611.5542.40137.83936.17627.3728.354.74512.52734,1.11902,7.87842,16.82361,18.34424,43.96765,18.82715,44.34241.00049.00012.00049.00049.00049.00049-1.82861-16.68945-6.25195-40.06531-6.0542-56.29736.00342-.27991-.00293-.57446.00342-.8501.09521-2.70154-1.42529-12.75171-1.37207-15.82751.29688-17.17712,8.17383-31.828,14.43408-46.54822,7.2041-16.94006,12.26611-33.97217,1.16406-55.05212-1.90869-3.62439-6.54199-9.95691-10.62744-14.23511Z"/>
  </g>
  <g>
    <path class="f" d="M365.67434,201.30079c-10.41895-53.30414-53.04932-96.41718-110.08643-91.216-85.90625,7.83368-137.04492,135.59186-74.1709,196.13922,7.70703,7.42206,11.81787,7.4856,13.72168,19.89478,2.54492,16.59363-.54248,38.98279,10.27881,52.91937,17.79346,22.91577,77.10156,23.57751,100.26465,9.7309,26.89062-16.07495,15.62451-48.17621,23.31738-72.82477,2.73975-8.77875,10.07617-13.28998,15.81982-19.8136,23.87012-27.11255,27.6416-60.1098,20.85498-94.8299ZM206.3218,273.92383c-44.70947-3.98102-42.68457-72.49963,1.51953-77.12177,54.75586-5.72552,54.62988,82.1214-1.51953,77.12177ZM224.08938,362.30707c-1.10791,7.02075-10.16992,5.95197-11.33252-2.71021-.93652-6.97699-1.55664-22.06415-.74707-28.86688.27002-2.27069,1.42383-4.99377,3.85742-5.55359,3.84668-.88495,6.20752.92108,7.28906,4.52386,1.44775,4.8222,1.76221,27.35699.93311,32.60681ZM245.59866,362.97431c-.74365,4.85382-6.38428,7.17981-9.39014,3.42627-3.03662-3.79144-1.93262-20.745-1.96875-26.27014-.02344-3.578-1.6416-10.41077,1.50635-13.56592,4.59033-4.60046,9.18848.24969,9.82129,5.60052.71631,6.05676.91992,25.00854.03125,30.80927ZM241.77248,301.70435c-1.50684-7.68268,3.89697-19.8399,6.9165-27.07611,1.72021-4.12323,3.79004-9.04175,5.88721-12.93774.19141-.35547,1.2583-2.53351,2.27686-3.80725.50781-.63538,1.51611-.24384,1.47852.56885-.30957,6.64642.08008,22.94183.05664,24.53101-.06006,4.1098.97607,17.77106-1.33936,20.17468-2.58057,2.67828-14.45752,2.72253-15.27637-1.45343ZM267.09719,362.28589c-1.18604,8.76184-10.51709,8.70258-11.39795-1.25812-.61475-6.95715-.75244-18.47662-.66895-25.54309.04199-3.54474,1.11768-9.48956,5.22412-10.3374,3.44482-.7113,5.63281,1.58136,6.44141,4.71442,1.13965,4.41656,1.0874,27.35596.40137,32.42419ZM265.83938,287.01703c-.07959-1.59125-.99121-22.04944-.77246-28.31573.02783-.79999.94775-1.51263,1.9624-.7558.8916.66528,6.92969,13.85156,7.8374,16.01013,2.41895,5.75018,8.48584,20.2193,7.70898,25.8194-.43604,3.14331-2.12109,4.46008-5.16162,4.92535-14.8999,2.28003-11.05127-7.19128-11.57471-17.68335ZM288.58694,360.24421c-.39551,3.64502-1.26953,7.67578-5.64453,7.86127-4.06299.17218-5.30371-2.83905-5.70361-6.4303-.70361-6.32233-.80859-24.72968.06396-30.86798.27441-1.9314,1.80957-5.05463,3.77686-5.63751,4.88525-1.44751,7.10498,1.85022,7.59326,6.24609.74121,6.66968.64307,22.10773-.08594,28.82843ZM309.47024,361.63044c-1.22852,6.56042-8.86621,6.95795-10.396,1.06836-.98926-3.80786-.87402-26.69775-.25928-31.22125.35449-2.61115,2.29395-6.4942,5.14307-7.01593,5.10938-.93549,6.51904,5.38177,6.6416,9.0899.23828,7.22644.1543,21.22699-1.12939,28.07892ZM338.18752,263.61469c-10.25146,10.263-26.39307,12.76965-39.68262,7.54468-38.1626-15.00446-28.18164-78.8233,18.05664-74.53131,31.70459,2.94299,43.06494,45.52411,21.62598,66.98663Z"/>
    <path class="f" d="M391.86282,446.73133c-20.82471-22.92645-24.08887-53.27881-18.16602-82.72827,2.72168-13.5318,9.35791-27.90009,11.48633-40.95428.19385-1.18945.77197-3.03729-.03076-4.06531-17.31348,26.33069-35.12451,53.2616-33.31543,86.42273.9209,16.88068,8.22119,36.05121,18.59082,49.3139,14.91406,19.07556,37.9165,28.97266,51.12402,49.45923,9.05811-9.00049,22.81494-9.81592,30.54736-8.70337-13.50195-23.01355-42.79932-29.54761-60.23633-48.74463Z"/>
    <path class="f" d="M257.5928,447.57947c-16.69678,1.77319-35.31641,11.91821-47.90234,22.69177-1.8999,1.62683-12.71143,11.90979-13.05664,13.22668-.30859,1.17749,2.62402,4.41919,3.6167,5.58997,12.17334,14.35742,34.99121,27.70435,53.43604,31.27673,32.35254,6.26611,64.38184-9.81323,84.6875-34.4043-20.41602-23.04834-48.51562-41.80762-80.78125-38.38086ZM266.12893,516.29676c-17.54395,0-31.7666-14.22241-31.7666-31.76685s14.22266-31.76685,31.7666-31.76685,31.76709,14.22241,31.76709,31.76685-14.22266,31.76685-31.76709,31.76685Z"/>
    <path class="f" d="M140.40871,331.76893l-9.05518-20.18097c.80078,41.71649,31.50342,71.58978,38.67529,111.57922,1.93994,10.81732,2.54834,23.77032,1.6499,34.64056-.4917,5.95557-1.98389,11.8938-2.67822,17.82068,1.38184.2887,1.56006-.68542,2.14355-1.54724,7.9292-11.70227,13.75049-39.23157,13.34277-53.27295-1.07715-37.13562-27.39111-58.90631-44.07812-89.03931Z"/>
  </g>
  <g>
    <path class="d" d="M276.90774,721.69971c4.02979,13.71008,12.62256,18.33313,11.08008,35.2887-1.19482,13.12744-13.24658,21.45215-11.42236,35.31128,7.04297.25891,13.96338-1.07886,20.8457-2.02026-.10938-.69495-.17432-1.37891-.20215-2.05359-.40527-9.81055,7.2793-17.61926,7.40918-27.37854.06201-4.64624-2.2583-10.44531-2.48926-15.28357-.55469-11.59888,7.23877-19.90845,8.55615-30.4209,2.76416-22.06384-8.40381-37.5885-16.63574-56.63904-1.896,23.87866-24.80078,37.13745-17.1416,63.19592Z"/>
    <path class="d" d="M448.68362,694.80945l14.7915-21.5144c-13.4624-7.927-13.57617-23.41772-22.87012-34.61206l-4.01953-3.70703c.4751,4.87964-.96338,9.57593-.66211,14.44324.7041,11.3783,5.19775,16.00525.31299,28.57263-7.30908,18.80505-33.01709,22.53296-48.06152,10.7666-5.10156-3.98975-10.06445-13.0835-10.75732-19.49731-1.4585-13.49829,7.68994-24.08789,12.77051-35.62976-.47949-.49792-4.07764,2.47375-4.71191,3.01257-6.5293,5.5437-15.48438,17.20239-24.58936,18.4397-4.08691.55542-7.69189.35742-10.88721-.44165-12.03516-3.01001-18.18213-14.65967-21.66162-27.7373.02441,7.55786.17627,14.73291,2.50146,22.03809,3.35303,10.53271,12.65039,17.81714,13.6582,29.37036,1.3667,15.66528-4.73193,20.83362-9.07275,34.00427-5.06201,15.35828-2.69629,30.0293-3.72559,45.69043-.07617,1.15955-.16846,2.31726-.25342,3.47595-.54248,7.39185-1.27051,14.76416-2.43555,22.07239,7.12402-2.36047,9.11865-6.43567,14.78125-11.10315,30.76367-25.35742,64.58984-14.5874,95.16162-41.32019,6.70703-5.86475,22.43408-24.11096,24.875-32.2699.28955-.96753.45654-1.927.3623-2.94067-.36621-1.62903-13.2041-1.22998-15.50684-1.11279Z"/>
    <path class="d" d="M532.55959,437.41883c-1.51074.25586-10.72266,6.10181-12.81641,7.41528-9.77051,6.13062-16.88965,11.99097-24.65576,20.42065-.70166.76172-1.96436.87341-2.03027.96436.00098-2.94482-6.56738-7.97485-5.97949-10.28259.22998-.90125,10.83789-11.27209,12.68457-13.60315,8.6377-10.90497,14.82764-24.23187,19.02246-37.45276,1.30713-4.11932,4.14795-12.58948,4.3877-16.52448.11865-1.94855-.21191-3.53491-2.55859-3.22809-3.60986.47205-12.97168,4.52411-16.77686,6.14941-18.53467,7.91626-32.9082,19.05115-44.1333,35.91656-.85645.18213-5.77002-5.05298-6.65771-6.01263-1.25098-1.35254-2.27393-3.88104-3.01758-4.71423-20.71631-23.21722-31.9043-43.77509-37.80859-69.18347-2.72803-11.73828-4.33105-24.50952-5.22021-39.06067-.71045-11.62585-.53906-23.27643-.67236-34.96088-.1709-14.99731.30762-30.05371,0-45.04572-.57715-28.14648-4.76855-59.42944-16.13574-85.38519-1.75342-4.00439-3.79932-8.00439-6.09277-11.95764-12.66895-21.83716-32.98047-42.23645-54.41602-53.93011-36.84814-20.10107-78.87402-21.41559-117.65674-6.0509-18.33545,7.26404-37.90186,21.00482-51.09668,35.63318-29.51758,32.72424-43.2085,77.78979-45.07764,121.32245-1.58057,36.80432,8.06445,73.00574,4.06592,109.95703-2.3335,21.56543-7.31201,35.36383-18.15283,53.78595-2.35352-7.03809-5.61084-13.81512-7.57324-21.00055-1.64844-6.03473-2.84326-7.04791.30957-12.81976,5.86914-10.74573,12.8374-18.24121,16.67627-30.72278,5.05078-16.42413,4.68945-43.4151-3.24023-58.9502-1.13184-2.21741-1.61035-4.39117-4.38232-2.8111-1.57422.89691-10.6167,12.00647-11.875,14.02625-9.63916,15.47382-10.7583,32.5191-11.42969,50.09503-.03125.81329.50635,2.50073-.66455,2.34222l-9.25977-25.36871c-.03467-36.24457-9.6709-61.20325-41.49512-81.51855-11.84033-7.55847-26.02051-5.31348-23.02637,11.57532,3.63916,20.52789,18.3457,45.16986,33.78809,58.99292,4.32031,3.86737,17.85596,12.24164,20.11475,15.51813,3.25146,4.71564,8.35645,20.35999,10.4707,26.50702,2.25,6.54047,4.20605,13.17645,6.03271,19.84167l-9.06104-11.43475c-13.59863-16.40149-32.99609-28.99664-55.16602-27.58167-15.33301.97864-13.34131,7.10895-7.38428,18.19348,11.16211,20.76996,29.21533,33.73883,52.56201,37.52942,8.04248,1.30585,16.35059.9472,24.26953,2.95605l10.24902,28.74939c-.45361.62628-.81201,1.77502-2.01709,3.36157-21.25977-18.15295-50.81982-27.04041-77.97607-17.13037-3.67871,1.34253-9.11963,2.85748-6.33838,7.65961,1.06982,1.84729,8.64062,9.05865,10.67725,10.83337,16.65479,14.51282,37.71289,19.93225,59.51855,16.11786-11.15186,13.49518-22.72852,27.09552-30.25488,43.02875,14.0332,2.39917,25.98047,2.04773,39.22559,3.6051,12.23877,1.43909,22.57568,9.90198,24.57715,22.34827,2.09717,13.04358-7.3623,43.35364,3.08398,52.04553,7.48975,6.23181,12.44238-4.67712,14.47559-10.41943,3.9873-11.25989,3.83643-24.2124,5.37012-35.98486.92529-.94312,10.89111,4.28882,12.54932,5.26965,37.27783,22.05249,5.35889,53.58704,1.73926,81.97375-1.18311,9.2793,2.65527,21.21558,13.73975,14.41174,14.04053-8.61804,20.94043-41.88562,27.44727-56.59363.78271-1.76831,1.84033-4.92725,4.04443-3.41016,1.14746.78967,2.49805,2.0293,3.91309,3.5116,4.08545,4.2782,8.71875,10.61072,10.62744,14.23511,11.10205,21.07996,6.04004,38.11206-1.16406,55.05212-6.26025,14.72021-14.13721,29.37109-14.43408,46.54822-.05322,3.07581,1.46729,13.12598,1.37207,15.82751.02686-1.19116.48145-4.99341.67236-6.72339,1.61133-14.60413,7.46484-30.59631,14.9248-44.44287,2.104-3.90479,4.33789-7.62622,6.63867-11.10962.33691-.52527.67578-1.03821,1.01611-1.53809,1.2749-1.87305,4.47217-7.95435,6.19922-4.96802,1.77686,3.07227,3.11768,9.91431,4.93311,13.89185,4.99707,10.94922,11.64062,16.34131,12.66797,29.68872,1.33984,17.40454-8.83691,29.2793-13.04785,44.19678-2.17236,7.69617-2.75977,16.20068.64746,26.69531,3.63086,11.18262,13.12598,17.50574,14.34375,30.02734,1.23779,12.72974-8.09619,22.96252-5.9668,35.8877,6.66553,1.04346,13.4043,2.18713,20.17334,2.02051-1.77637-9.82446,3.39941-16.47327,6.56006-24.70264,9.7793-25.46191-12.82471-33.28101-13.94775-55.64966-1.37158-27.3103,26.19482-39.82703,15.57178-70.03577-2.98877-8.50049-9.94629-15.38904-13.47021-23.50745-10.1333-23.3468,1.12988-48.14404,18.72217-64.1106.45654,14.80859-1.37842,30.05444,2.21484,44.51807,3.62793,14.60205,13.74805,25.83667,20.65088,38.84998-.37158-12.00659,5.16992-19.28162,7.23779-29.40417,2.02979-9.9375,3.47119-18.7063,6.93701-27.77209.9585-2.50745,2.06299-5.03625,3.38818-7.62048.86377-1.68433,6.22314-10.28076,7.29639-10.86914,2.396-1.31372,5.25586,4.97668,6.41797,7.07446,5.36621,9.68457,9.19092,23.19971,9.06201,34.30298,5.80518-9.52039,14.27734-17.08447,25.89551-18.14209,5.55518-.50562,10.94238.8479,16.46094.65491-9.66357-7.03308-19.53906-9.66565-26.09961-20.62012-17.23096-28.77246,18.64062-68.58484,47.16895-49.85803,13.83789,9.0835,12.81934,25.40222,18.93066,38.8822,1.23682-.79736.84717-1.89954,1.02637-3.00769,2.11182-13.03931-5.3418-21.67188-.11377-36,1.57861-4.32666,3.87402-7.73877,6.5835-10.43091-13.20752-20.48657-36.20996-30.38367-51.12402-49.45923-10.36963-13.2627-17.66992-32.43323-18.59082-49.3139-1.80908-33.16113,16.00195-60.09204,33.31543-86.42273.80273,1.02802.22461,2.87585.03076,4.06531-2.12842,13.0542-8.76465,27.42249-11.48633,40.95428-5.92285,29.44946-2.65869,59.80182,18.16602,82.72827,17.43701,19.19702,46.73438,25.73108,60.23633,48.74463,1.37158.19727,2.55811.45337,3.49023.73621,8.88818,2.69885,14.10742,9.51355,18.64258,17.74207,4.86816,8.83179,5.42773,17.59729,1.85645,27.06836-1.34473,3.56555-6.91553,13.38184-8.30664,15.22571-1.44141,1.91101-6.57666,7.09802-6.98633,8.47974-.27686.93396.06299,1.20569.98584.98193.55811-.13538,13.37598-12.55066,15.8125-14.77795,3.80957-3.48218,11.21338-8.78015,16.13574-10.08484,7.51318-9.05676,15.89697-16.95093,22.46338-26.95251,14.74316-22.4552,17.53418-39.42236,19.92822-68.52588.3457-4.20703,1.62988-8.82959-3.56152-7.94995ZM142.21291,493.57654c-4.83057,0-8.74658-3.91577-8.74658-8.74634,0-4.83032,3.91602-8.74622,8.74658-8.74622,4.83008,0,8.74609,3.91589,8.74609,8.74622,0,4.83057-3.91602,8.74634-8.74609,8.74634ZM133.49221,465.73328c-10.78564,0-19.5293-8.74341-19.5293-19.52905s8.74365-19.5293,19.5293-19.5293,19.5293,8.74353,19.5293,19.5293-8.74365,19.52905-19.5293,19.52905ZM131.35354,311.58796l9.05518,20.18097c16.68701,30.133,43.00098,51.90369,44.07812,89.03931.40771,14.04138-5.41357,41.57068-13.34277,53.27295-.5835.86182-.76172,1.83594-2.14355,1.54724.69434-5.92688,2.18652-11.86511,2.67822-17.82068.89844-10.87024.29004-23.82324-1.6499-34.64056-7.17188-39.98944-37.87451-69.86273-38.67529-111.57922ZM359.91897,475.31385c1.14746,1.37598,7.20508,8.68994,7.27783,9.50098.2251,2.5094-15.51807,20.89551-18.34473,23.76904-28.70117,29.17651-62.14453,39.53784-94.26514,34.67236-14.26123-2.16028-28.26025-7.32495-41.46924-15.17676-14.55322-8.65112-28.14746-20.56079-40.06836-35.32178-1.69336-2.09644-6.64404-7.4624-5.96582-9.91199,21.88428-30.19519,53.73145-56.4389,92.53857-58.78552,42.02197-2.54102,74.57861,20.42358,100.29688,51.25366ZM344.81936,296.13068c-5.74365,6.52362-13.08008,11.03485-15.81982,19.8136-7.69287,24.64856,3.57324,56.74982-23.31738,72.82477-23.16309,13.84662-82.47119,13.18488-100.26465-9.7309-10.82129-13.93658-7.73389-36.32574-10.27881-52.91937-1.90381-12.40918-6.01465-12.47272-13.72168-19.89478-62.87402-60.54736-11.73535-188.30554,74.1709-196.13922,57.03711-5.20117,99.66748,37.91187,110.08643,91.216,6.78662,34.72009,3.01514,67.71735-20.85498,94.8299Z"/>
    <path class="d" d="M473.5635,607.41077c-.34326,1.90234.45166,1.10449,1.47412,1.51196,5.38232,2.14453,11.50879,2.99304,16.6748,5.88013l2.01709-7.39563c-6.5332.89954-13.53271-.45703-20.16602.00354Z"/>
    <path class="d" d="M439.19924,598.47278c0-10.54517-8.54834-19.09375-19.09326-19.09375s-19.09375,8.54858-19.09375,19.09375,8.54834,19.09363,19.09375,19.09363,19.09326-8.54858,19.09326-19.09363Z"/>
    <path class="d" d="M200.59621,759.35242c-4.02734-9.85486-11.17188-22.10938-20.25146-32.3811-11.26709-12.74634-25.5166-22.43604-40.521-20.65967-9.09814,1.07703-18.78564,7.07458-27.97412,8.66748,28.43604,22.54395,60.3946,46.34691,91.04987,65.73448-.0918-.81165-1.13434-6.28307-1.21345-7.25109-.46143-5.65344-.72949-13.22827-1.08984-14.11011Z"/>
    <path class="d" d="M63.70559,581.11402c7.96582-1.12866,12.91602-4.28491,8.83838-12.72668-7.98242-16.52563-36.5498-12.06982-51.4585-15.43835-.34424,8.745,2.48584,17.08643,4.03418,25.54834,12.4624,2.00964,25.95557,4.40625,38.58594,2.6167Z"/>
    <path class="d" d="M90.87209,617.29126c-17.44141-5.41016-33.43359,5.50244-49.6167,8.26868,2.0127,7.63977,7.08789,14.01587,10.75732,20.84204,4.74219-1.24341,37.66992-10.55103,42.80664-13.33203,9.75684-5.28198,4.61377-13.12317-3.94727-15.77869Z"/>
    <path class="d" d="M122.9512,671.95862c4.8335-5.89111,6.3042-13.07922-3.3667-14.12793-17.23682-1.8689-29.85303,17.80176-44.71289,23.53223,3.84082,5.10669,8.33447,9.60193,13.44629,13.44653,12.85107-6.28992,25.00977-11.12195,34.6333-22.85083Z"/>
    <path class="d" d="M136.44143,638.95423c9.61035,15.05786,22.35693,28.72339,32.1626,43.81006,9.1499,14.07776,27.16797,55.10095,29.98193,59.59351.13867.22107.24023.35376.30225.39038-.16943-1.57495-.82471-6.177-.98047-7.59155-.00049-.00232-.00049-.00549-.00098-.00781,0,0,0-.00037-.00049-.00049-.48291-.37476-10.94873-27.5188-18.82715-44.34241-.17334-.3739-.35107-.74622-.52734-1.11902-.13525-.28516-.26807-.56128-.40137-.83936-.31055-.64673-.62354-1.29236-.94336-1.93555-.37988-.7666-.75293-1.50977-1.11182-2.20044-.00293-.00562-.00586-.01172-.00879-.01733-.84814-1.63232-1.73828-3.22754-2.64648-4.80725-1.00635-1.75159-2.03711-3.48206-3.104-5.18005-1.35254-2.15308-2.74805-4.2677-4.17139-6.35632-2.13574-3.13293-4.33496-6.20715-6.54932-9.26331-5.90479-8.1499-11.91797-16.17261-17.11914-24.84326-2.6792-4.46606-5.09814-9.09241-7.45312-13.75879-.78516-1.55554-1.56348-3.11548-2.3418-4.67542s-1.55664-3.11975-2.34229-4.67517c-2.35742-4.66638-4.78223-9.2926-7.47021-13.75842-8.50586-14.13245-21.0625-29.26831-30.09082-43.52649-1.67188-2.64038-3.2373-5.25415-4.61768-7.82214-.00391-.00696-.00732-.01477-.01074-.02161-3.01123-5.6084-5.43701-13.34668-8.01416-19.51904,0-.00024,0-.00049-.00049-.00085-18.97998-45.46228-47.95508-57.48096-47.63965-58.92224-5.86719-1.20776-22.98584-8.03638-27.625-3.05664-.52686.56543-.39502,1.29712-.61279,1.71191v.00024c.00586.00659,91.87744,102.07422,116.42725,144.09839,5.47314,9.3689,9.89404,19.48169,15.73682,28.63647Z"/>
    <path class="d" d="M207.84133,196.80207c-44.2041,4.62213-46.229,73.14075-1.51953,77.12177,56.14941,4.99963,56.27539-82.84729,1.51953-77.12177Z"/>
    <path class="d" d="M316.56155,196.62806c-46.23828-4.29199-56.21924,59.52686-18.05664,74.53131,13.28955,5.22498,29.43115,2.71832,39.68262-7.54468,21.43896-21.46252,10.07861-64.04364-21.62598-66.98663Z"/>
    <path class="d" d="M258.38821,282.9831c.02344-1.58917-.36621-17.88458-.05664-24.53101.0376-.81268-.9707-1.20422-1.47852-.56885-1.01855,1.27374-2.08545,3.45178-2.27686,3.80725-2.09717,3.896-4.16699,8.81451-5.88721,12.93774-3.01953,7.23621-8.42334,19.39343-6.9165,27.07611.81885,4.17596,12.6958,4.13171,15.27637,1.45343,2.31543-2.40363,1.2793-16.06488,1.33936-20.17468Z"/>
    <path class="d" d="M282.57571,299.77503c.77686-5.6001-5.29004-20.06921-7.70898-25.8194-.90771-2.15857-6.9458-15.34485-7.8374-16.01013-1.01465-.75684-1.93457-.04419-1.9624.7558-.21875,6.2663.69287,26.72449.77246,28.31573.52344,10.49207-3.3252,19.96338,11.57471,17.68335,3.04053-.46527,4.72559-1.78204,5.16162-4.92535Z"/>
    <path class="d" d="M260.25442,325.14728c-4.10645.84784-5.18213,6.79266-5.22412,10.3374-.0835,7.06647.0542,18.58594.66895,25.54309.88086,9.96069,10.21191,10.01996,11.39795,1.25812.68604-5.06824.73828-28.00763-.40137-32.42419-.80859-3.13306-2.99658-5.42572-6.44141-4.71442Z"/>
    <path class="d" d="M235.74612,326.56452c-3.14795,3.15515-1.52979,9.98792-1.50635,13.56592.03613,5.52515-1.06787,22.4787,1.96875,26.27014,3.00586,3.75354,8.64648,1.42755,9.39014-3.42627.88867-5.80072.68506-24.7525-.03125-30.80927-.63281-5.35083-5.23096-10.20099-9.82129-5.60052Z"/>
    <path class="d" d="M281.07961,325.16968c-1.96729.58289-3.50244,3.70612-3.77686,5.63751-.87256,6.13831-.76758,24.54565-.06396,30.86798.3999,3.59125,1.64062,6.60248,5.70361,6.4303,4.375-.18549,5.24902-4.21625,5.64453-7.86127.729-6.7207.82715-22.15875.08594-28.82843-.48828-4.39587-2.70801-7.6936-7.59326-6.24609Z"/>
    <path class="d" d="M215.86721,325.1764c-2.43359.55981-3.5874,3.2829-3.85742,5.55359-.80957,6.80273-.18945,21.88989.74707,28.86688,1.1626,8.66217,10.22461,9.73096,11.33252,2.71021.8291-5.24982.51465-27.78461-.93311-32.60681-1.08154-3.60278-3.44238-5.40881-7.28906-4.52386Z"/>
    <path class="d" d="M303.95803,324.46161c-2.84912.52173-4.78857,4.40479-5.14307,7.01593-.61475,4.5235-.72998,27.41339.25928,31.22125,1.52979,5.88959,9.16748,5.49207,10.396-1.06836,1.28369-6.85193,1.36768-20.85248,1.12939-28.07892-.12256-3.70813-1.53223-10.02539-6.6416-9.0899Z"/>
    <path class="d" d="M266.12893,452.76307c-17.54395,0-31.7666,14.22241-31.7666,31.76685s14.22266,31.76685,31.7666,31.76685,31.76709-14.22241,31.76709-31.76685-14.22266-31.76685-31.76709-31.76685Z"/>
  </g>
  <g>
    <path class="g" d="M270.70901,598.13953c-3.59326-14.46362-1.7583-29.70947-2.21484-44.51807-17.59229,15.96655-28.85547,40.76379-18.72217,64.1106,3.52393,8.11841,10.48145,15.00696,13.47021,23.50745,10.62305,30.20874-16.94336,42.72546-15.57178,70.03577,1.12305,22.36865,23.72705,30.18774,13.94775,55.64966-3.16064,8.22937-8.33643,14.87817-6.56006,24.70264,0,0,5.28955,1.67224,21.50732.67212-1.82422-13.85913,10.22754-22.18384,11.42236-35.31128,1.54248-16.95557-7.05029-21.57861-11.08008-35.2887-7.65918-26.05847,15.24561-39.31726,17.1416-63.19592.59326-7.47461-2.48096-14.78406-2.68945-21.51428-6.90283-13.01331-17.02295-24.24792-20.65088-38.84998Z"/>
    <path class="g" d="M384.09866,130.8736c2.29346,3.95325,4.33936,7.95325,6.09277,11.95764,3.55859-.54291,16.81982-5.40167,23.92627-16.08313,13.58887-20.42499,11.59521-50.48761-6.9668-68.46405-1.91211-1.85156-3.99902-3.57538-6.26318-5.14679-25.68359-17.82202-61.25146-4.91583-71.20508,23.80621,21.43555,11.69366,41.74707,32.09296,54.41602,53.93011Z"/>
    <path class="g" d="M160.92922,106.52576c-4.20312-21.39886-9.68408-42.45734-16.56982-63.1228-.15576-.46741-.59619-.79419-1.08887-.78088-.40625.01099-.7959.08887-1.19531.34045-1.08496.68347-7.93994,21.06573-8.89062,24.05334-8.89844,27.96777-14.73828,57.2066-16.28955,86.56921-11.229-26.12592-22.58643-52.4408-37.71045-76.58466-1.59766-2.55115-12.97021-19.81329-14.15869-20.14233-.84619-.23419-1.42383-.19519-1.93799.57111-.27246.40656-.9458,8.30066-1.01807,9.73792-2.13721,42.33575,6.94678,86.30005,20.56396,126.05792,2.41748,7.05865,5.99072,14.25684,7.02197,21.54486-2.89697-2.3905-4.44873-5.97406-6.7085-8.8924-15.51709-20.03973-33.43408-40.77209-53.11182-57.34125-.6543-.55121-2.375-2.06995-3.95068-3.04388-1.17969-.72906-2.69434.22937-2.52832,1.60614,2.62256,21.7489,11.0332,43.67859,20.6875,63.2019,12.44824,25.17181,29.65674,47.63959,47.63574,69.01263,1.2583-2.01978,10.30078-13.12933,11.875-14.02625,2.77197-1.58008,3.25049.59369,4.38232,2.8111,7.92969,15.5351,8.29102,42.52606,3.24023,58.9502,2.71191,3.62701,5.08691,8.03107,8.74023,10.75714,3.99854-36.95129-5.64648-73.15271-4.06592-109.95703,1.86914-43.53265,15.56006-88.59821,45.07764-121.32245Z"/>
    <path class="g" d="M493.72952,607.40723c25.61426-3.52649,41.84131-31.91711,27.4458-54.67493-5.67236-8.96729-16.80127-14.70654-27.4458-11.88513-4.92236,1.30469-12.32617,6.60266-16.13574,10.08484-2.43652,2.22729-15.25439,14.64258-15.8125,14.77795-.92285.22375-1.2627-.04797-.98584-.98193.40967-1.38171,5.54492-6.56873,6.98633-8.47974,1.39111-1.84387,6.96191-11.66016,8.30664-15.22571,3.57129-9.47107,3.01172-18.23657-1.85645-27.06836-4.53516-8.22852-9.75439-15.04321-18.64258-17.74207-.93213-.28284-2.11865-.53894-3.49023-.73621-7.73242-1.11255-21.48926-.29712-30.54736,8.70337-2.70947,2.69214-5.00488,6.10425-6.5835,10.43091-5.22803,14.32812,2.22559,22.96069.11377,36-.1792,1.10815.21045,2.21033-1.02637,3.00769-6.11133-13.47998-5.09277-29.79871-18.93066-38.8822-28.52832-18.72681-64.3999,21.08557-47.16895,49.85803,6.56055,10.95447,16.43604,13.58704,26.09961,20.62012-5.51855.19299-10.89821-1.06923-16.46094-.65491-47.29295,3.52247-32.46194,71.44468-6.28145,71.70637,3.29355.03292,9.16337.18501,13.10345-1.03448,8.77138-2.71484,14.53005-13.04323,21.05935-18.58693.63428-.53882,4.23242-3.5105,4.71191-3.01257-5.08057,11.54187-14.229,22.13147-12.77051,35.62976.69287,6.41382,5.65576,15.50757,10.75732,19.49731,15.04443,11.76636,40.75244,8.03845,48.06152-10.7666,4.88477-12.56738.39111-17.19434-.31299-28.57263-.30127-4.86731,1.13721-9.5636.66211-14.44324l4.01953,3.70703c9.29395,11.19434,9.40771,26.68506,22.87012,34.61206,23.21094,13.6676,53.54395-8.69775,47.30469-34.86682-2.34619-9.83862-10.38867-18.77551-19.06738-23.62537-5.16602-2.88708-11.29248-3.7356-16.6748-5.88013-1.02246-.40747-1.81738.39038-1.47412-1.51196,6.6333-.46057,13.63281.896,20.16602-.00354ZM420.10598,617.56641c-10.54541,0-19.09375-8.54858-19.09375-19.09363s8.54834-19.09375,19.09375-19.09375,19.09326,8.54858,19.09326,19.09375-8.54834,19.09363-19.09326,19.09363Z"/>
  </g>
</svg>