<?xml version="1.0" encoding="UTF-8"?>
<svg id="a" data-name="Layer 1" xmlns="http://www.w3.org/2000/svg" viewBox="0 0 353.22066 663.34186">
  <defs>
    <style>
      .c {
        fill: #e9b22b;
      }

      .d {
        fill: #e191ba;
      }

      .e {
        fill: #020102;
      }
    </style>
  </defs>
  <g>
    <path class="c" d="M93.90341,257.59179c-.3413,3.2852,3.25415,5.51745,6.0438,3.74915,20.16224-12.78039,34.46456-14.64104,40.36649-14.77101,1.95093-.04296,3.73563-1.06446,4.77644-2.71512,2.85915-4.53442,8.38278-13.17594,10.43146-15.55494,11.55664-13.41992,52.71683-57.034,65.82327-62.9422,55.65967-25.09131,100.40527,38.46338,57.56836,89.21533-11.7251,13.8916-54.58887,57.4873-69.41113,62.90479-28.59668,10.45117-38.70685-7.29704-58.39278-2.82489-8.57292,1.94756-30.62795,13.50498-23.72414,23.77011,12.91797,19.20654,47.405,29.27694,69.56321,27.97616,43.65771-2.56396,88.94043-51.0166,116.47705-82.91992,78.86865-91.37402-22.88818-212.52539-119.19873-154.54297-17.84766,10.74463-78.06885,72.80029-88.07715,90.82666-6.51793,11.74073-10.8591,24.4778-12.24614,37.82885Z"/>
    <path class="e" d="M233.1725,418.38983c15.44233-18.22361,24.28032-39.73555,27.19618-63.136.23296-1.8696-1.91632-3.10361-3.42028-1.96882-7.09759,5.35539-19.81853,16.56343-38.06897,20.55952-2.73717.59933-5.22247,2.01279-7.21103,3.98685-6.57553,6.5276-21.6416,24.73166-34.88792,38.20987-9.51318,9.68018-29.83698,27.96722-41.08502,33.47454-53.49902,26.19336-101.40869-33.98779-65.61963-80.49414,7.6709-9.96777,50.81396-52.95508,60.56641-58.70361,13.32617-7.85498,24.32223-10.15645,39.13375-6.96407,4.23389.9126,12.09208,5.58409,16.35624,6.24376,15.00525,2.31986,25.84657-4.6526,36.174-14.67546,1.96558-1.90761,2.13245-5.04185.36645-7.13559-33.55747-39.78521-92.10336-38.10295-131.13787-5.37928-53.46826,44.82471-113.28369,113.55664-57.72168,182.57129,67.85449,84.28369,149.42627,12.33789,199.35938-46.58887Z"/>
  </g>
  <g>
    <path class="d" d="M184.17203,60.71942c1.20703-6.46143,1.16943-47.53076-.05762-53.98438-1.36719-7.18848-10.02734-8.64893-14.41357-4.25488-2.07373,2.07764-2.14062,6.80957-2.38525,9.71191-.80566,9.56445-1.46338,38.16064.12305,46.61328,1.86426,9.93457,15.05566,10.89502,16.7334,1.91406Z"/>
    <path class="d" d="M239.23941,76.6203c2.38867-2.22803,24.41162-33.23193,25.58154-36.00342,1.34131-3.17725,1.7749-7.47461-.96484-10.18066-4.36816-4.31445-9.64941-2.35498-13.59863,1.32959-3.77197,3.51904-26.53027,36.45166-26.76123,40.12354-.53076,8.45752,9.22754,10.80957,15.74316,4.73096Z"/>
    <path class="d" d="M114.13248,78.53387c8.02832,5.83643,16.94727-.91846,13.11865-11.21826-.79199-2.13086-23.91846-35.33594-25.64795-36.76172-7.13379-5.88037-17.35596-.25195-13.36035,10.52002.97754,2.63574,24.04736,36.12109,25.88965,37.45996Z"/>
  </g>
  <g>
    <rect class="d" x="0" y="564.80133" width="353.22066" height="98.54053" rx="49.27021" ry="49.27021"/>
    <g>
      <circle class="e" cx="58.90447" cy="614.07159" r="15.80653"/>
      <circle class="e" cx="117.7574" cy="614.07159" r="15.80653"/>
      <circle class="e" cx="176.61033" cy="614.07159" r="15.80653"/>
      <circle class="e" cx="235.46326" cy="614.07159" r="15.80653"/>
      <circle class="e" cx="294.31619" cy="614.07159" r="15.80653"/>
    </g>
  </g>
</svg>