<?xml version="1.0" encoding="UTF-8"?>
<svg id="a" data-name="Layer 1" xmlns="http://www.w3.org/2000/svg" viewBox="0 0 976.99328 978.36679">
  <defs>
    <style>
      .b {
        fill: #0e0e10;
      }
    </style>
  </defs>
  <path class="b" d="M860.11978,356.29254c19.22952-15.29034,42.0358-25.01204,62.44727-38.37499,5.90103-3.86328,22.4224-18.11655,27.01586-19.34792,9.44176-2.53105,17.36752,3.63909,20.00346,12.4125,8.04817,26.78736,8.70397,82.43868,5.9044,110.54542-4.21288,42.29583-20.72114,74.72088-31.54916,114.03908-12.6262,45.84765,5.42169,90.42677-27.20216,129.1704-11.54821,13.71449-26.05117,21.67861-42.86741,27.23064-4.69371,1.54967-12.32627,1.56436-15.3531,5.13709-2.6421,3.1186-10.61106,20.37266-12.62502,25.12008-13.808,32.549-18.16573,68.69173-33.04552,101.75841-35.60136,79.1153-147.0056,163.95731-236.89333,153.47333-31.62765-3.68887-56.40047-23.00128-88.45706-22.71101-29.70555.26898-55.15439,19.14387-85.19975,22.70718-91.17027,10.8126-206.17718-76.25958-240.12141-157.78662-16.98241-40.78825-20.86851-86.07647-44.30419-124.46272-35.34579-5.70415-64.55723-27.72203-74.91174-62.59588-6.46108-21.76085-2.05049-43.43624-3.49401-65.52561-2.10888-32.27123-20.45574-66.79801-28.85519-98.39972-11.59146-43.61118-15.1401-112.08308-3.2463-155.77015,2.89195-10.6224,10.25542-17.79682,21.86474-13.82766,5.30912,1.81516,23.59332,17.54098,30.76695,22.07517,18.84089,11.90862,39.7109,20.85792,57.06185,35.13296-4.60861-47.30732,6.70239-93.38772,30.12872-134.26481-20.17411-51.99208-24.38327-109.65243-9.32107-163.61451,4.08476-14.63414,19.34344-53.30619,35.24903-57.49477,22.55515-5.93966,21.90129,18.33175,25.77416,32.52489,7.65439,28.05148,18.51118,54.59804,36.83962,77.47411,2.39451,2.98863,15.70258,18.24152,18.69013,17.71762,8.51368-6.99379,17.16854-13.9083,26.23085-20.18317,113.28395-78.43935,270.68887-85.09575,390.37936-16.56025,18.75296,10.73806,35.79136,23.82601,53.2631,36.39834,36.20963-29.57318,50.76995-75.46622,60.47005-119.64718,25.97996-29.01512,48.61318,28.11747,54.31432,47.84843,15.89694,55.01731,10.08203,112.93621-8.08296,166.52359,23.56229,40.30997,34.13349,86.54415,29.1255,133.27771ZM172.08325,56.49686c-15.84653,48.13117-14.00618,101.66098,3.49457,149.08199,5.64162,15.28685,22.27295,50.39147,38.31381,55.50973,32.0739,10.23403,70.73909-17.9319,73.55277-50.94051,2.50018-29.33077-19.51537-31.39453-39.1404-44.94246-30.30383-20.91993-54.41938-51.92005-68.13152-86.08418l-8.08924-22.62457ZM806.17674,57.56551c-1.76027-1.90029-1.82455.44897-2.16613,1.58569-14.19602,47.24202-40.21492,84.39516-82.03207,111.02098-14.39031,9.1626-30.79308,12.17723-32.23838,32.45797-2.97508,41.7469,59.27814,82.7428,88.38446,47.4136,36.57773-44.39799,44.38502-122.0936,32.04153-176.50416-.51402-2.26583-3.42996-15.37013-3.9894-15.97407ZM792.16216,328.25076c-61.94573,15.9426-130.44771-6.55154-182.81089-39.87669-57.60803-36.66309-101.41628-92.67205-120.76195-158.56277-25.82767,92.19965-103.55947,166.51472-194.9087,193.3375-34.56197,10.1484-72.41129,14.97344-107.56083,5.10458-4.71601,16.14268-8.94849,32.72499-11.57963,49.38242-5.75227,36.41688-2.88255,72.79634-3.61568,109.56817,5.42917,2.10204,11.09508,3.77563,16.25917,6.5695,2.16826,1.17307,6.25961,2.57946,5.41698,5.36353-52.08503,28.39151-73.67671,86.91044-60.98315,144.02968,7.28967,32.80251,27.47771,56.77531,37.75287,88.42361,11.67519,35.9605,16.3801,67.96841,36.76119,101.27803,35.9865,58.81418,130.63964,124.20734,202.15237,110.6681,25.6367-4.8537,43.85525-19.43232,72.70432-21.11922,35.74715-2.09026,48.94979,9.84159,79.5707,18.67083,75.25734,21.69971,177.29736-49.75045,213.46003-112.79698,20.47544-35.69718,23.59946-70.97672,37.83297-107.75528,7.34862-18.98842,19.55965-35.2498,26.71585-54.16651,23.13402-61.15255,9.43509-125.22486-45.83873-162.35368-7.27049-4.88377-12.41432-3.72912-2.3609-9.86556,4.98545-3.04304,10.57941-4.69431,15.868-6.9971-1.2758-27.97251,1.54905-57.19319-.05917-85.01629-1.44005-24.91359-8.43539-49.7355-14.0148-73.88588ZM876.29639,656.09664c41.61233-20.59573,24.89846-68.09173,30.48341-104.84868,4.40562-28.99525,19.27206-57.79695,27.1994-86.0359,11.11862-39.60701,12.34351-79.96389,8.07982-120.78168-21.76533,13.57892-45.85196,23.80218-65.26316,40.95127-29.09171,25.70147-47.16403,64.32918-41.01057,103.61723l4.89988,12.87567c9.70141-42.44613,35.4667-82.73436,74.41306-103.52259.92455,31.37449-21.32549,56.77511-32.08978,84.90895-7.53165,19.68492-13.25599,47.61701-10.92297,68.65348.75145,6.77566,4.33242,14.30699,5.83019,21.13061,6.14328,27.98785,4.6031,55.22561-1.61928,83.05164ZM137.54786,501.87455c9.28489-30.08365,3.44216-65.00231-14.21201-90.91646-21.22341-31.15336-55.05506-47.0103-86.58372-65.45472-1.10965.75093-1.39592,1.4348-1.62651,2.71796-6.08422,33.85755-1.84544,80.53072,6.99412,113.75679,8.89971,33.45219,27.40462,66.8785,29.70012,101.86851,1.41539,21.57464-4.45236,43.74196,3.43551,64.50567,4.86689,12.8114,14.966,22.25349,26.70572,28.8225-6.9569-23.30751-8.7958-48.42814-5.0668-72.47895,3.31841-21.40267,9.96879-31.29731,8.30149-55.30356-3.36167-48.40199-38.56544-82.62977-42.82357-122.16747-.17666-1.64036-1.36474-9.49798,1.83709-8.34842,28.06495,16.62529,49.1904,41.64384,62.41276,71.34451l10.9258,31.65365Z"/>
  <g>
    <path class="b" d="M311.18145,666.876c-14.80203-5.16235-34.20846-8.69985-49.08712-2.17607-9.22126,4.0432-5.77499,7.50147-1.77869,14.76867,28.57696,51.96669,136.63303,91.50841,192.82318,98.35323,75.74533,9.22694,166.43934-15.84773,227.85701-60.88722,8.97631-6.58261,41.86347-36.51317,40.70336-47.38158-1.16728-10.93555-46.66674-9.41689-54.61879-2.6723-2.39496-2.2809,13.82548-13.275,15.44153-14.20433,52.30007-30.07586,107.62125,13.41446,100.8993,70.70321-.17802,1.5172-2.34772,11.44572-5.26038,9.28263-.88237-.65529-5.89035-16.33004-8.18835-20.39955-4.53782-8.03598-10.80445-15.71047-18.77343-20.57659-6.93559,45.54435-21.22418,93.23343-46.5843,131.90667-2.86543,4.36968-8.71006,9.91616-10.80759,13.99633-2.46644,4.79779-3.17312,12.23803-5.12974,17.51732-7.30143,19.70052-21.21302,44.70209-44.76834,26.35691-2.17504-1.69395-7.12439-8.01517-8.86544-8.43047-1.73081-.41285-12.51964,2.75547-15.98104,3.04696-31.83848,2.68115-63.77514-12.68123-95.03869-17.08427-25.91568-3.64986-52.28808-3.11636-78.05585,1.44074-28.88358,5.10814-56.86052,18.08008-86.7732,15.6432-3.74752-.3053-14.90082-3.55195-17.0628-3.04219-1.72225.40608-6.70474,6.73496-8.86242,8.42605-23.36983,18.3162-37.59086-6.53892-44.76837-26.35694-1.8327-5.06031-2.75728-13.54626-4.89131-17.75575-3.38312-6.67335-13.46281-17.08134-18.16954-24.96772-15.62689-26.18372-28.3887-62.72896-34.63285-92.62206-1.2309-5.89277-2.34608-23.44613-4.25908-27.01574-1.04273-1.94571-1.34806-.44571-2.15283.03038-8.82741,5.22226-16.57352,17.66068-20.49373,26.96712-1.04482,2.48037-3.28915,12.4946-3.80813,12.92414-4.16739,3.44917-6.26954-10.64501-6.49449-13.44277-4.53336-56.38265,52.81725-95.59377,102.81653-66.14983,1.61913.95348,16.97578,11.78525,14.7656,13.80181ZM306.32705,759.65278c-1.37857.0535-2.39029,6.65504-2.54935,8.20098-2.55204,24.80358.00614,54.04082,6.87256,78.04486,2.65942,9.29697,5.09914,24.64448,14.80643,11.57543,9.85788-13.2718,20.05332-35.26829,25.65151-50.91722,1.70541-4.76724,7.91337-18.68936,3.64098-22.0157-16.55297-7.50358-32.86534-15.48139-48.42214-24.88835ZM670.84536,759.64718c-14.81542,10.17403-31.34975,17.48553-47.92262,24.30858-4.79294,3.39234.41098,14.44386,2.06759,19.36752,5.25587,15.62115,15.08521,36.43642,24.37655,50.03522,10.26285,15.0207,11.1563,11.58049,16.08312-4.22461,6.56451-21.05881,12.79238-65.83588,6.96302-86.76256-.32684-1.1733-.36275-1.98434-1.56766-2.72414Z"/>
    <path class="b" d="M439.51049,556.887c4.49253,3.2389,1.21811,44.59128-.28218,52.00558-.61623,3.04534-3.09688,15.96431-6.50091,15.75915-2.99735-.18066-9.00568-3.53338-13.27392-4.02663-22.66348-2.61906-46.69865,13.7973-44.62132,38.15943.60661,7.11404,4.79101,14.95983,12.02872,17.07236,9.09969,2.656,11.14554-4.15663,18.94581-5.48402,19.56805-3.32994,26.5249,10.39942,39.66643,20.21269,26.02906,19.43689,58.17121,20.46325,84.97595,1.97877,14.13538-9.74772,23.32223-25.59034,43.07754-22.18918,8.3656,1.44026,11.27597,10.42352,21.24643,3.47479,3.3037-2.30245,6.35661-8.43693,7.10006-12.31263,5.85934-30.5455-31.84162-50.32219-57.2434-36.96589-2.334-.33905-5.86935-16.11928-6.46959-19.12383-2.45648-12.29602-3.64504-26.86576-2.645-39.38586.23359-2.92449.78827-7.92472,2.68205-10.23728,2.38021.07671,15.83658,32.91824,23.23444,36.14555,1.32082.5762,10.20496-.75596,13.41975-.55785,45.67566,2.81474,78.52759,59.74723,49.5268,98.02242-14.16352,18.69299-28.16908,18.85163-49.46805,18.38421-17.82604-.39121-15.82321,3.4572-28.26733,11.72356-32.37766,21.50779-73.10277,25.28341-107.4515,5.36431-10.30481-5.97584-16.79669-15.92278-29.33332-17.03073-14.24996-1.25937-21.15471,3.24803-36.85585-3.05461-54.69762-21.95632-30.44029-106.87679,26.37567-113.13218,4.2935-.47271,15.82368,1.11117,17.50052.26871,1.92055-.9649,11.09194-15.61158,12.74275-18.55487,2.34521-4.18134,3.95536-10.94728,6.83202-14.7363.64888-.85468,1.72356-2.74131,3.05743-1.77966Z"/>
    <path class="b" d="M439.50821,490.01517c-2.04006.49704-2.07449-.74908-3.03476-1.80286-6.5348-7.17114-12.16378-16.70065-19.04553-24.09137-34.65715-37.22033-84.25044-55.4123-134.86775-55.02502-22.95095.1756-46.83333,7.80488-68.65724-2.4304-5.54683-2.60143-21.41494-13.30096-19.04484-20.53083.97573-2.97643,10.30503-3.59984,13.64216-4.73488,23.30286-7.92591,42.86886-23.13876,65.29427-32.84299,84.62345-36.61942,157.25605,6.43023,167.74554,96.84414,1.71727,14.80201,2.39391,30.29815-2.03184,44.6142Z"/>
    <path class="b" d="M537.6654,490.01519c-11.6728-67.45578,21.41263-148.15755,97.60792-154.19527,58.7347-4.65414,84.87425,27.19884,133.67255,45.3125,8.91739,3.31008,20.05542,1.47602,10.72731,13.89048-18.00016,23.95578-54.35219,14.86983-79.66678,14.06858-50.05157-1.58421-103.29512,16.29745-138.09893,52.8724-7.52277,7.9056-13.90744,19.16406-21.03688,26.41376-1.02886,1.04622-1.3926,2.05019-3.20519,1.63755Z"/>
    <path class="b" d="M315.28529,479.55712c40.56214-3.38412,88.38181,26.79685,89.78712,70.29927.10872,3.36562-1.39768,11.55098-5.79158,11.16049-4.59321-.4082-16.42381-13.59438-20.72342-17.04502-31.24443-25.07514-68.21106-28.58555-103.28742-8.44934-6.60077,3.78929-22.40732,18.45837-28.18365,18.08723-12.67844-.81461-2.19079-24.134.99041-30.18243,12.84012-24.41302,39.75023-41.57933,67.20854-43.87019Z"/>
    <path class="b" d="M647.44181,479.55674c34.20634-3.0897,70.76204,16.6355,84.5256,48.55415,2.60393,6.0387,9.18335,23.58783-.99467,25.36802-5.80814,1.01588-22.65568-14.22756-29.06401-17.9564-34.81379-20.25728-72.19644-16.52424-103.28742,8.44933-3.75572,3.01675-13.64562,14.14267-16.76615,15.59152-12.46222,5.78618-8.21669-17.55486-6.47009-23.72972,8.95849-31.67138,40.01354-53.38259,72.05673-56.27691Z"/>
  </g>
</svg>