<?xml version="1.0" encoding="UTF-8"?>
<svg id="a" data-name="Layer 1" fill="#1e1e1e" xmlns="http://www.w3.org/2000/svg" viewBox="0 0 1099.03448 1099.03448">
  <path d="M538.66927.47931c124.61891-6.07569,265.00958,46.01901,354.25675,132.96726,80.68988,78.61139,125.29,183.58666,120.79707,297.38167,5.87744,6.63769,11.70445,10.66376,12.95512,20.23366,2.65442,20.3111,1.19504,61.39811.1394,82.92376-.43498,8.86962-.97894,18.19709-4.78947,26.18674-1.19216,2.49963-4.01338,4.96589-4.61474,6.44313-2.36973,5.82123,4.42965,29.48075,4.97883,38.08188,1.90799,29.88288-7.07331,60.77746-25.03265,84.58114-19.51941,25.87142-49.03466,39.25923-66.19362,67.66783-27.30805,45.21155-26.40032,101.42618-31.62452,152.02011-8.85779,85.78359-70.05384,126.43361-143.06618,158.9518-77.53848,34.53404-130.87959,30.95223-213.74917,30.73134-39.29162-.10473-80.03315,2.53152-119.11223-4.69684-57.44883-10.62617-138.90608-48.13521-180.68199-89.2535-70.64324-69.53121-23.04234-175.17533-77.2637-253.5179-17.74719-25.6423-47.49193-39.70598-65.7654-64.77717-25.02973-34.34077-29.23499-75.66896-16.93868-115.9948-3.76686-8.40923-8.84489-13.37578-9.80613-23.20434-2.03489-20.80659-4.09293-78.32085.29814-97.03465,2.78669-11.87625,12.94214-16.30148,13.86582-19.32296,1.40353-4.59112-.11378-17.08745.21862-23.01353,7.24995-129.25202,66.67641-237.44974,172.87862-310.5714C337.83353,43.96171,444.31844,5.07931,538.66927.47931ZM121.94528,427.05796c1.71144,1.46485,29.22281-1.49556,32.39904-3.30975,2.87415-1.64165,9.63019-12.52632,12.80817-15.95544,70.9261-76.53112,252.48043-41.20159,346.80003-38.08449,74.10198,2.44894,146.46672-7.68885,220.25063-9.96373,61.95574-1.9102,151.2492-.03264,196.88784,48.61796,4.13427,4.40712,9.37511,14.70587,14.64442,16.33179,3.97663,1.22704,30.06747,3.65015,32.43007,2.00566,1.65587-1.15257,1.24137-21.87568,1.08153-25.56063C969.17249,168.87893,714.4476,12.53175,497.59394,45.69483,309.60618,74.4435,125.8127,210.18841,121.8749,414.50423c-.08191,4.25001-2.2016,7.92979.07038,12.55373ZM325.1547,382.15035c-76.07096,2.2446-158.47214,14.30601-163.49246,106.44302-3.89016,71.39541,15.8116,129.35863,89.60085,150.4421,61.62408,17.60758,117.75273,2.00907,170.51304-30.82742,25.32723-15.76293,47.94283-36.16436,75.43947-48.46534,88.89502-39.76835,140.34436,40.87527,215.07893,70.73514,88.90231,35.52053,209.8217,15.03212,221.54303-96.54364,8.0077-76.22556-6.90108-124.18128-86.24636-142.74456-92.20715-21.57239-191.58202.72208-284.85635,2.85708-79.18556,1.81251-158.88397-14.21844-237.58014-11.89638ZM957.87336,450.56949c-.93688.2488-2.04969,1.20162-2.4785,2.0669-1.35279,2.72972,2.53955,21.93636,2.83315,27.04917,1.23913,21.57826-.95958,42.87703-2.24286,64.21759-.4651,7.73444-1.22579,9.88822,7.15009,9.39251,6.77481-.40096,27.94593-3.0556,33.82242-4.91821,1.50687-.47762,3.69798-2.01555,4.15903-3.58502.50367-1.71452,1.14007-10.42562,1.30589-13.07592,1.50477-24.05038-.9205-49.68854-.20033-73.89934-.80512-2.672-4.61108-3.50327-7.07559-3.98734l-37.27332-3.26033ZM99.99407,547.47298c3.82562,3.08514,30.40675,3.00472,36.8229,5.87681,2.20928.11971,3.95422-.99008,4.74643-3.0619-3.07079-25.23225-4.30402-50.68089-2.0243-76.07361.5699-6.34787,2.55655-12.82841,3.06522-19.16467.41194-5.1314-7.31677-3.71843-11.42403-3.57193-5.21516.18603-27.13892,2.02941-30.64082,3.65024-1.00874.46689-1.98359.8337-2.51769,1.90749-.46648.93785-1.55367,12.55748-1.68779,14.90661-.92391,16.18193.49206,32.64805,1.19756,48.67691.25354,5.76039-1.58561,23.58947,2.46252,26.85405ZM534.24475,572.43342c-38.00502,4.08908-85.67234,49.54084-120.72151,68.45459-84.27376,45.47704-201.23799,44.85235-256.082-44.10472-2.87973-4.67093-6.22736-15.93507-11.21887-17.54474-3.26517-1.05296-22.70037-3.75958-26.11531-3.66132-7.15592.20591-9.25246,15.94197-10.1459,21.72749-7.65642,49.57952,28.16948,94.83568,76.90408,102.80973,26.99797,4.41746,53.79137-.41846,80.11472,8.38871,25.74012,8.61203,43.70778,29.62353,47.32214,56.66939.54921,4.10968-1.78114,13.41175,4.11382,14.7371,1.52311.34244,8.60145-1.13417,11.98927-.95955,6.04967.31182,13.47278,2.66519,18.78884,5.53887,3.26107,1.76282,10.25103,8.56684,12.19915,8.8912,4.77849.79562,8.75462-3.04078,13.27914-4.37953,13.07318-3.86819,27.01745-1.83515,38.4791,5.65256,2.55752,1.67078,8.74286,8.59228,11.21101,8.64941,1.80687.04183,8.95434-3.79385,12.03158-4.57613,11.6511-2.96186,23.93474-2.47322,34.66629,3.28911,3.97203,2.13279,11.17344,9.87468,14.24847,10.16566,2.65877.2516,13.52924-6.10948,18.15089-7.23507,11.64804-2.83686,22.91907-1.31219,33.58518,4.10022,2.86432,1.45347,7.54058,6.09539,10.24362,6.46567,4.07741.55855,11.75491-6.73483,16.75022-8.62051,10.79493-4.07496,22.33214-3.98774,33.2477-.55948,4.17796,1.31217,10.81581,6.33782,14.00647,5.88746,2.49337-.35194,8.51575-6.99446,11.31116-8.71506,11.15288-6.86473,25.12424-8.01948,37.6036-4.77899,3.33224.86528,10.41896,4.79582,12.85297,4.42962,3.30933-.49789,7.3096-6.40285,10.38998-8.50053,10.73305-7.30899,28.0052-9.07831,40.1669-5.13067,4.01251,1.30244,6.71823,4.68126,11.59294,3.859,2.26834-.38262,7.52685-5.91018,10.20617-7.56507,5.25596-3.24636,13.56953-6.27766,19.72227-6.81998,5.75893-.5076,16.1509,3.41444,18.01436-3.01324,1.28483-4.4318.3826-12.72972,1.88334-19.13698,17.55489-74.94889,106.32304-41.22583,154.75697-65.39533,31.84034-15.88897,51.73337-51.1161,49.35052-86.69514-.36933-5.51464-3.73441-28.89333-10.41037-29.23437-7.83304,2.90049-25.44552.83798-31.0097,6.59291-4.19234,4.33607-10.04401,18.44369-14.74195,25.0846-52.95948,74.86246-163.88932,76.33814-240.70755,41.08501-49.73251-22.82306-102.94972-81.77812-158.02972-75.8519ZM744.98432,949.69317c-2.61591,2.1513-6.29576,7.85457-9.69169,10.75164-10.64463,9.08098-22.2593,13.74286-36.54232,12.14717-3.92135-.43809-9.96069-3.99111-13.02259-3.16406-1.09027.29449-10.61057,9.36376-13.26304,11.16091-9.11658,6.17682-20.04157,10.44142-31.22209,9.67433-6.33656-.43475-17.00932-5.89492-20.92737-5.50909-4.28624.4221-6.017,4.52975-8.9812,6.61313-15.98477,11.23483-34.98285,13.55173-52.94555,5.42494-4.18214-1.89211-5.91011-5.83235-11.19632-5.49795-3.40564.21544-7.36878,4.29958-10.84889,5.84162-15.60039,6.91257-33.425,5.54651-48.0028-3.31099-3.06082-1.85976-9.4485-8.65547-12.00228-9.08707-4.68391-.7916-7.09476,2.33056-10.9507,3.39478-15.62607,4.31271-30.81001,1.43178-43.66166-8.45245-3.35799-2.58264-8.29755-9.54171-11.97973-10.25081-2.74736-.52908-9.68305,2.83468-14.07477,3.19484-13.0322,1.06876-25.02437-3.249-34.77421-11.76842-2.84212-2.48345-8.75315-10.66156-10.85259-11.27326-4.50897-1.31375-12.73972.286-18.2891-.51788-49.76787-7.20937-65.45477-110.92039-75.50851-149.06897-7.37653-27.99-23.15538-62.41441-55.87304-65.26064-2.05288,2.07624,7.50559,22.01147,8.86729,25.97555,9.86095,28.70648,16.2614,60.57281,19.88031,90.74899,7.3784,61.52459.80448,98.11338,53.69999,141.00757,99.93352,81.03841,218.65787,76.28212,340.66116,70.78855,54.87102-2.47074,96.2122-14.37754,144.44059-40.31033,49.15422-26.43062,88.36755-55.29079,97.17271-114.12925,7.05006-47.11045,7.56642-88.51644,21.73382-135.35978,1.54145-5.09668,14.1845-37.23754,12.71596-38.72136-8.25311.11363-15.31438,2.82557-22.02277,7.28869-32.42898,21.5751-36.53419,72.48606-45.54517,107.12326-7.7388,29.74708-32.04878,96.60794-67.96306,100.19323-5.08344.50748-16.18553-1.98648-19.03036.35309ZM322.86723,796.94187c-10.76911,2.23445-11.75203,14.86223-12.83332,23.6678-.47013,3.82855-1.13084,10.50311-1.23057,14.24968-.39836,14.96545.57348,14.43844,13.2751,19.89065,4.75955,2.04305,18.0676,7.42856,22.50979,5.94715,3.11546-1.03896,1.60281-11.3683,1.82538-14.77071.62979-9.62799,3.92513-26.05071,1.679-34.89137-2.68975-10.58672-15.01846-16.21099-25.22537-14.0932ZM765.39709,796.95728c-8.59504,1.32205-15.11653,7.77891-17.14495,16.03461l1.97734,45.06c.19755,1.59737,1.3726,3.35894,2.94953,3.73106,2.93795.69328,29.74699-9.07866,32.36691-11.49733,3.40982-3.14789,2.63094-21.08052,2.25534-26.48533-1.06106-15.26823-3.24262-29.79038-22.40417-26.84302ZM403.55643,810.33282c-9.28246-9.28383-27.79748-7.87518-34.40268,4.1254-5.09477,9.25637-6.7725,33.58158-7.25296,44.74515-.18596,4.32091-.73954,7.3435,3.39614,9.85544,4.53566,2.75488,32.25698,10.42231,36.9673,9.49982.87425-.17122,1.73527-.21651,2.292-1.04089l4.98465-51.52811c.06501-4.65786-2.73938-12.41127-5.98446-15.65682ZM733.34731,868.33175c.55518-.78434,1.41914-6.6063,1.4016-7.99085-.12315-9.71881-1.92629-32.80632-5.04251-41.50443-6.83481-19.07761-34.59651-19.28568-40.88304-1.10656-3.62564,10.48448.68403,31.82239,1.62385,43.68462.34681,4.37739-1.19776,14.26391,1.64727,17.16626,2.08049,2.12241,7.72394.04607,10.53748-.57963,4.0668-.90441,29.46421-7.90187,30.71535-9.66941ZM443.46093,814.64625c-4.54632.85721-10.83751,4.7833-13.45941,8.66398-4.69198,6.94462-6.50416,26.96885-7.25686,35.88856-.38248,4.53242-1.86657,19.76768-.89824,23.00876.47199,1.57978,2.01798,2.52704,3.42189,3.21405,4.11622,2.01428,37.48312,8.33041,40.92929,7.31159,2.37192-.70123,2.77748-2.57287,3.05555-4.72651,1.10701-8.57362.54294-18.98674,1.06502-27.69868.76143-12.7059,5.6494-27.88275-3.50278-38.55936-5.29043-6.17163-15.44516-8.59369-23.35446-7.10238ZM672.49072,884.92811c3.43339-2.91268-.03595-37.91182-.9964-44.38722-.72735-4.90386-1.56623-10.53838-3.82534-14.98164-7.83766-15.41527-33.84468-14.71958-41.192.62518-4.91975,10.27483-.85056,30.13936-.13733,41.81045.32295,5.28466-1.16513,20.2227,1.5903,23.84821,1.71335,2.25437,10.02214.19759,13.11569-.19991,4.45757-.57276,29.43801-5.01239,31.44508-6.71507ZM487.17617,895.98401c1.00951.8704,11.16594,2.18003,13.56199,2.47111,8.34424,1.01367,20.50182,2.15735,28.75504,2.31181,7.97565.14927,9.91669-1.80688,10.55257-9.45158.99891-12.00928,1.30582-47.51126-3.50076-57.43064-7.72623-15.94469-33.18988-17.38273-42.82728-2.17291-6.22247,9.82035-7.59581,39.37446-7.96429,51.76746-.08277,2.78364-.46657,10.8758,1.42274,12.50477ZM557.97844,899.30347c1.30972,1.13149,7.13624,1.5101,9.14416,1.45101,8.41832-.24774,20.33871-1.22801,28.74072-2.29847,8.12218-1.03481,15.20529-.17422,14.9793-10.45322-.26998-12.27955-1.36074-33.19595-3.84653-44.91609-6.63976-31.3055-47.73693-28.55591-50.43856,2.788-1.09839,12.74332-.93749,34.79415-.00653,47.65728.11645,1.60893.24164,4.74705,1.42743,5.77149ZM312.9012,868.75307c-1.7326.46704-2.65558,2.06319-2.97534,3.74396-1.52344,8.00768.31906,33.01333,3.56942,40.6193,5.00876,11.72069,30.7115,28.13468,32.93081,9.15681.5195-4.44237.4449-39.38683-.5736-41.51402-.77052-1.60928-3.13327-2.36532-4.67712-3.06693-4.35238-1.97796-20.32776-7.82089-24.59866-8.65069-1.30029-.25263-2.25761-.67063-3.67551-.28843ZM786.43509,869.98739c-1.15974-1.36296-3.54708-1.2926-5.23984-.91722-4.41676.97943-21.48414,6.90395-25.47407,8.91794-1.60617.81075-4.22115,2.27522-4.95115,3.89919-1.1386,2.53294-1.08357,33.59129-.57522,38.153,2.31422,20.76652,25.72848,7.67675,32.29644-4.21919,3.96248-7.17688,4.92879-17.46546,5.31039-25.66578.17876-3.84142.6128-17.84175-1.36654-20.16793ZM363.08346,886.38795c-1.65808,1.41046-1.32282,21.0885-1.18223,24.78673.48522,12.76398.60038,26.77082,10.44927,36.01505,9.45361,8.87323,30.31923,12.79524,32.58796-4.01818.61991-4.59412.61767-42.47839-.45219-44.71199-.94014-1.96279-4.38193-2.91067-6.32977-3.62687-3.94576-1.45082-33.69589-9.61623-35.07304-8.44475ZM733.51383,886.39246c-1.52422-.40999-3.08992-.09997-4.60845.17293-7.06931,1.27046-25.48302,6.29296-32.07355,8.86759-1.59773.62416-3.93799,1.39623-4.71591,3.02814-1.02004,2.13983-1.13023,41.23864-.57573,45.9387.42802,3.62798,2.02479,6.20453,5.16933,8.10627,11.66959,7.05745,28.42428-2.35204,33.79712-13.44165,3.76376-7.76846,4.89271-36.26221,4.25016-45.62045-.1662-2.42053-.80374-4.70143-1.24298-7.05153ZM421.62977,904.54821v40.93284c0,2.46159,3.16947,10.54812,4.61731,13.08338,9.36394,16.39686,39.9684,21.48263,42.83066-2.14308,1.13668-9.38244,1.04391-30.19601.17387-39.75514-.28106-3.08805-.34229-6.31411-3.92335-7.13958l-38.86808-7.71373c-1.53281-.45833-4.4857,1.51991-4.8304,2.73532ZM669.19881,901.99684l-41.30918,8.5722c-1.41409,2.01444-1.13366,44.5949-.41813,49.2226,3.16157,20.44747,36.2839,13.52069,44.05668-4.47776,3.36465-7.79108,4.49441-38.40474,3.46292-47.46735-.46983-4.1279-1.21477-6.36833-5.79228-5.84969ZM485.79476,915.61114v40.93284c0,2.26684,2.03348,9.91599,3.12836,12.35974,4.47985,9.99901,18.75189,16.89021,29.38612,15.78791,8.35908-.86647,19.15294-8.38864,20.51965-17.15266.74732-4.79223,1.00655-14.41608,1.22695-19.79262.19648-4.79312.9134-28.78436-1.89523-30.56404l-47.61857-3.99793c-1.37415-.24111-4.44741,1.46143-4.74728,2.42676ZM609.44508,914.21087c-2.11283-2.08241-27.48209,1.56734-32.39247,1.9421-9.04243.69012-19.56181-4.01784-20.50023,7.15485-.84528,10.06379-1.02359,31.03519.16765,40.8577,3.33743,27.51911,43.14113,25.83632,51.28798,1.74982,2.35032-6.94883,3.43643-35.44798,2.85026-43.71361-.12513-1.76442-.41316-7.00523-1.41319-7.99086Z"/>
  <g>
    <path d="M752.7847,330.56165c-6.81029-6.50612-3.75702-14.97659,2.78366-20.25463,10.04533-38.88434,23.52065-77.46819,30.91877-116.83968-7.59413-11.93655-1.28598-21.33966,11.93461-22.85549,9.69478-1.11156,9.08205,2.93158,14.93427,5.89704,6.35695,3.22122,13.36915,5.26654,19.83546,8.92816,84.88508,48.06722,29.52546,166.70122-72.39334,148.72852-2.51833-.44409-6.18327-1.85551-8.01344-3.60393ZM810.63305,200.46927c-1.26201.42342-1.5946,1.54031-1.79772,2.69404-8.82417,36.31945-21.06498,71.8693-28.80844,108.38223.61789,4.27346,8.01895,2.93937,11.51715,2.65113,48.49998-3.99623,79.91182-67.43653,39.93397-102.70769-3.29947-2.91102-16.96673-12.32089-20.84496-11.01971Z"/>
    <path d="M318.52256,159.79117c3.65378-.29536,6.90916-.48229,10.59114-.18697,3.34732.26848,21.11353,3.34232,23.23352,4.42012,8.91138,4.53056,12.18949,17.79519,3.28947,24.03129-9.7658,6.84274-18.18492-4.0714-28.71218-5.24266-27.30162-3.03757-60.65229,25.27366-28.42753,45.01826,25.1243,15.39403,67.80684,19.70758,71.9295,57.49842,5.84339,53.56402-73.80836,70.97142-109.11809,40.53634-8.09793-6.97998-6.94748-18.28681,3.52245-21.73367,10.81974-3.56203,13.04172,5.27314,21.08041,9.29998,17.36171,8.69705,48.64746,7.4014,57.37893-12.7129,13.18335-30.36989-35.71181-40.91314-54.06063-50.34522-55.22026-28.38557-22.60777-86.38749,29.293-90.58297Z"/>
    <path d="M436.28629,258.18666c-2.39758,2.07178-1.32956,25.24895-1.33606,30.20243-.00345,2.63488-1.22285,5.08294-1.24703,7.70264-.09648,10.4563,8.94969,30.09635-11.52754,29.40759-15.46412-.52015-10.61597-16.98128-10.45684-26.04777.54528-31.06667.51775-61.99348,1.01497-93.01982.10609-6.61971,3.21764-20.25644.0225-26.19896-.67277-1.25127-3.56063-2.42359-4.99461-4.14249-7.34776-8.80774.28968-18.54351,9.64334-21.40826,30.94858-9.47864,86.80974-9.47702,97.70888,29.11395,10.04667,35.57259-19.26733,61.48817-50.75292,69.83779-4.82905,1.28061-26.99871,3.62312-28.07471,4.55291ZM438.48605,174.10369c-2.52952,2.51337-1.19305,27.88421-1.32255,33.52558-.10099,4.39959-3.1521,24.46695-.11552,26.5755,4.00427,2.78051,24.59817-2.65325,29.70753-4.72755,34.60177-14.04761,36.25664-53.73565-4.88104-57.7142-3.86954-.37423-21.08992.05685-23.38841,2.34067Z"/>
    <path d="M598.0835,293.32135c8.05508.80893,17.26588,3.82222,16.02177,13.7297-.49861,3.97069-4.90539,8.10951-8.75265,9.02476-14.54339.45849-29.24183-1.61637-43.81619-.66803-8.91823.5803-21.56923,7.06371-25.19729-6.80075-1.69557-6.47952.52243-6.8424,1.17757-11.68692,1.67388-12.37768,3.02386-24.80516,4.8834-37.1563,3.69837-24.56463,13.746-62.56382,13.89296-85.68107.05131-8.07078-5.90473-15.22574,4.77369-21.7701,6.8195-4.17938,9.73118-1.67748,15.95351-1.65278,13.79393.05475,31.93083-.74545,45.30567,1.15198,14.98247,2.1255,13.37189,19.25254.94907,21.77655-8.76991,1.78183-36.9663-3.60082-41.88606.15314-3.31523,2.52964-7.02777,35.72032-8.05003,41.98065.84431.10179,2.22019,1.26494,2.61873,1.26494h29.86991c7.14945,0,13.85868,7.70448,10.77411,15.20754-5.98444,14.55684-35.73774.9224-47.30846,7.99794-3.79994,16.86212-6.09021,34.24618-8.1179,51.29033.19401.60384,1.12063,1.83841,1.50682,1.83841,11.00743,0,24.81561-1.06308,35.40137,0Z"/>
    <path d="M672.88049,297.62808c1.3762,1.61807,35.27358,2.34925,42.17823,4.83546,12.83916,4.62308,8.19628,21.15347-4.17051,21.87687-9.65375-1.69033-20.06461-3.96036-29.84341-4.45722-7.58917-.38561-18.08974,1.73532-24.20517,1.03184-10.56695-1.21555-11.4496-8.9605-10.35-17.90903,4.95149-40.29485,21.6018-83.62387,27.29393-124.36296-1.28283-8.77724-2.57883-17.36753,7.06135-21.59641,6.99976-3.07061,17.84291.55149,25.66028,1.30201,8.68831.83414,37.08217.91925,41.3548,8.42511,4.77419,8.38696-2.79778,16.92257-11.47517,17.03296-9.74799.12402-23.92948-4.23703-34.25508-4.39495l-5.55638,3.30946c-.50188,4.95652-9.16466,37.01152-7.87516,38.74754,4.23941,5.70742,46.56281-2.89334,42.50488,16.8317-1.62524,7.90003-10.53476,8.88441-16.94911,8.53736-8.11137-.43887-18.34746-3.37206-26.61345-3.1458-1.62521.04449-3.30465.86453-4.34369,2.09601-1.66839,1.97738-9.61929,36.88578-10.25734,41.72955-.44142,3.35099-.46944,6.75766-.159,10.11049Z"/>
  </g>
  <g>
    <g>
      <path d="M754.39567,425.29508c64.32194-4.0185,154.55799,18.28148,130.70953,103.05221-30.85243,109.66673-273.29895,68.98453-241.6696-41.43058,12.89813-45.02617,69.96646-59.06056,110.96007-61.62163ZM756.60891,448.52789c-36.16142,2.29654-105.77787,18.2132-90.83857,69.16807,17.78473,60.66007,182.25264,78.15295,197.88633-.84067,12.18413-61.56375-63.07904-71.11977-107.04776-68.3274Z"/>
      <path d="M307.4535,425.29526c47.69997-2.80582,125.03875,7.30983,138.82771,62.9738,29.15938,117.71203-233.5598,150.53433-240.36695,22.42749-3.20412-60.29972,50.28344-82.38631,101.53924-85.40129ZM306.3477,448.52791c-41.75421,2.88559-88.08626,21.55961-75.37394,72.51027,10.95039,43.8889,67.91159,51.95185,105.88335,47.60887,29.95047-3.42556,83.01423-19.7009,87.80545-54.9063,8.03404-59.03334-77.04794-68.06476-118.31486-65.21284Z"/>
      <circle cx="520.36932" cy="463.8042" r="8.86245"/>
      <circle cx="383.19765" cy="604.10954" r="8.84473"/>
      <circle cx="706.79015" cy="604.07216" r="8.82078"/>
      <circle cx="444.60906" cy="410.78493" r="8.7466"/>
      <circle cx="799.48532" cy="619.61477" r="8.70632"/>
      <path d="M290.29139,613.35007c7.99859-8.01219,20.49093,3.65237,13.47982,11.82312-6.92695,8.07266-22.30687-2.98106-13.47982-11.82312Z"/>
      <circle cx="650.07959" cy="410.66699" r="8.65883"/>
      <circle cx="883.26278" cy="585.16498" r="8.60242"/>
      <circle cx="574.21957" cy="463.48383" r="8.58031"/>
      <circle cx="190.3" cy="548.57374" r="8.5669"/>
      <circle cx="547.68607" cy="421.79618" r="8.54895"/>
      <circle cx="902.31562" cy="457.37408" r="8.5469"/>
      <circle cx="745.16548" cy="404.21275" r="8.50115"/>
      <circle cx="395.63186" cy="408.18207" r="8.4574"/>
      <circle cx="252.59774" cy="608.71942" r="8.44887"/>
      <circle cx="845.06015" cy="608.78155" r="8.4419"/>
      <circle cx="305.93162" cy="403.83069" r="8.42629"/>
      <circle cx="905.33073" cy="548.48972" r="8.40726"/>
      <circle cx="470.02597" cy="481.30108" r="8.37921"/>
      <circle cx="621.48657" cy="547.28529" r="8.39927"/>
      <circle cx="872.56689" cy="426.71863" r="8.34926"/>
      <circle cx="224.14883" cy="425.71191" r="8.32766"/>
      <circle cx="911.838" cy="502.8726" r="8.36404"/>
      <circle cx="213.38974" cy="586.75265" r="8.2795"/>
      <circle cx="194.11025" cy="456.85939" r="8.30623"/>
      <circle cx="698.84723" cy="408.74594" r="8.27806"/>
      <circle cx="462.69876" cy="548.10146" r="8.25327"/>
      <circle cx="183.97775" cy="502.79478" r="8.21186"/>
      <path d="M423.45888,574.64703c7.15867-.37441,11.21214,8.4039,5.85642,13.44224-11.85868,11.15593-21.74598-12.61119-5.85642-13.44224Z"/>
      <circle cx="660.31679" cy="579.16637" r="8.11597"/>
      <circle cx="619.52433" cy="481.79197" r="8.07811"/>
      <circle cx="752.75398" cy="619.36305" r="8.06991"/>
      <path d="M831.77787,403.01631c8.93772-1.61201,14.10073,12.37765,5.03444,15.08862-13.14226,3.92975-14.85036-13.31821-5.03444-15.08862Z"/>
      <circle cx="498.38944" cy="421.52967" r="7.9238"/>
      <circle cx="597.30517" cy="421.43964" r="7.89677"/>
      <circle cx="790.35025" cy="404.11431" r="7.85728"/>
      <path d="M523.10304,514.74284c9.34138-2.55866,13.61419,14.54027,2.83824,16.2367-10.46371,1.64727-11.4241-13.88498-2.83824-16.2367Z"/>
      <circle cx="341.05364" cy="619.35754" r="7.84723"/>
      <circle cx="350.59038" cy="405.03676" r="7.82265"/>
      <circle cx="571.22037" cy="525.79115" r="7.79764"/>
      <circle cx="262.61247" cy="410.31411" r="7.77467"/>
      <circle cx="467.26425" cy="441.15971" r="7.57112"/>
      <circle cx="626.40469" cy="441.96185" r="7.4875"/>
      <circle cx="488.84639" cy="510.75445" r="7.28203"/>
      <circle cx="602.1153" cy="510.21213" r="6.88106"/>
      <path d="M493.16487,528.04677c7.69242-.64239,9.11806,14.12229-.18017,14.11216-8.81918-.00961-7.38028-13.4808.18017-14.11216Z"/>
      <path d="M598.32297,529.1552c9.17442-2.72569,9.26733,12.03353,1.90701,13.11477-7.95364,1.1684-9.518-10.85357-1.90701-13.11477Z"/>
      <path d="M544.19834,603.31478c5.48882-.49004,10.67165,1.49836,15.34695,4.01173,21.51576,11.56652,58.12677,78.12468,60.09315,102.53148,3.11346,38.64449-38.01233,60.06625-63.04087,27.63994-2.39987-3.10921-5.85166-12.45715-9.45829-12.77995-4.60669-.4123-11.89599,14.26645-16.10266,18.19532-24.53067,22.91073-58.11452,3.95518-58.55284-27.59876-.32605-23.47148,25.48433-67.3577,39.61706-86.47821,7.37874-9.98289,18.82679-24.33672,32.0975-25.52153Z"/>
    </g>
    <g>
      <circle cx="980.25925" cy="518.79604" r="8.23602"/>
      <path d="M975.06121,471.7184c8.37277-8.8242,17.63256,8.3402,8.53698,12.42631-8.09135,3.63497-13.31912-7.38633-8.53698-12.42631Z"/>
    </g>
    <g>
      <path d="M117.11283,510.32647c9.97434-1.78827,12.81484,14.51835,3.01648,16.41024-12.60247,2.43331-11.75583-14.84338-3.01648-16.41024Z"/>
      <circle cx="118.50182" cy="477.10973" r="7.33694"/>
    </g>
  </g>
</svg>