<?xml version="1.0" encoding="UTF-8"?>
<svg id="a" data-name="Layer 1" fill="#1e1e1e" xmlns="http://www.w3.org/2000/svg" viewBox="0 0 1099.03448 1099.03448">
  <path d="M645.7656,326.8409c26.18543-20.78698,59.05495-34.36943,92.74258-36.33211,6.51581-.37962,23.35995-.99365,29.04766.07009,1.54391.28875,3.54266,1.72956,4.15033,3.10748,1.30963,2.96969.83236,27.60347.58491,32.679-.34314,7.03838-1.3373,15.56199-2.26364,22.62025-2.12729,16.20903-6.14963,32.08237-13.29167,46.81896.70219,1.10417,1.36728,1.28481,2.57865,1.51509,12.5964,2.39455,22.23694,3.64182,34.0628,9.4834,13.8151,6.8242,38.69122,27.32264,49.42959,38.69882,3.69451,3.91395,3.44574,6.03849.48074,9.93047-13.28266,17.43537-37.25708,35.10816-53.50269,50.17208l-19.6047,13.0392,52.19988,11.48987c7.25951-33.96902,38.50998-41.36369,67.0699-51.35711,21.70565-7.59504,44.97149-14.81039,67.12997-21.00048,12.07774-3.37398,32.84132-10.38143,44.39471-11.58519,14.41073-1.50147,14.46862,6.197,18.81662,17.25259,33.75163,85.81989,52.73721,177.13147,78.78985,265.4326.57175,4.90896,1.46033,9.86974-3.49172,12.56552-41.99786,6.71605-84.21907,12.07524-126.18944,18.96656-21.57734,3.54289-52.24562,14.01044-72.51698,6.85183-12.8568-4.54024-22.92074-15.82219-27.47986-28.5089-1.01188-2.81577-1.91467-12.03402-3.97999-12.65378-2.35987-.70814-30.73709,7.48267-35.40395,8.98123-11.05505,3.54985-21.7619,8.13144-32.38822,12.73265,23.736,33.26268-8.45823,78.21931-47.6885,65.76668-12.49066,18.71375-26.55181,35.53899-51.31747,33.74028-2.82232-.20498-7.77322-2.69235-9.84463-1.60261-1.01291.53288-11.11125,14.58363-14.51573,17.69955-12.94789,11.85043-28.93852,18.77992-46.02589,10.74384-2.53486-1.19213-12.66761-9.04678-14.03624-8.10696-3.3217,7.13547-7.98598,13.66443-13.03454,19.6547-18.06234,21.43152-44.42046,35.71157-71.73128,19.86045-3.95728-2.29679-12.83518-11.99873-13.73925-12.18059-3.04337-.61218-8.63543,2.17233-12.11524,2.56441-17.02606,1.91841-30.84381-3.15402-41.90668-15.93725-1.73354-2.00312-5.79396-9.35987-6.88793-9.73003-2.1635-.73205-15.06253,1.29949-20.2981.62732-11.43219-1.46773-23.36054-9.37922-30.24411-18.48712-3.48965-4.61728-4.36007-9.52748-7.80303-13.88637-37.77522,5.55276-69.41816-37.32456-39.46285-67.91723-37.81098-20.58151-78.99573-36.6419-121.66433-43.61247-2.66884,6.32125-3.38884,12.07888-6.72654,18.3692-8.07536,15.21903-23.87066,24.65579-41.13087,25.32375-59.79759-11.15468-119.98819-20.08158-180.29601-28.20813C2.64116,741.36908,1.1971,739.50708,0,735.60469c21.85775-82.95266,44.02312-166.73498,71.91038-248.01531,3.52836-10.28377,7.80384-26.14713,12.39443-35.29969,3.44236-6.86326,8.322-6.84655,15.29664-5.94397,30.52628,3.95036,76.47604,20.13345,106.30129,30.55423,18.93238,6.61487,47.45593,14.46752,60.39726,29.80685,5.00635,5.93402,6.90578,11.99674,11.02614,17.99683l50.10201-7.6047c-15.40564-9.34504-29.3674-20.89221-42.53107-33.13652-1.62706-1.51343-2.45979-3.69613-4.08127-5.25018-6.68801-6.4099-18.86783-15.62626-23.87098-22.78538-1.8799-2.68999-3.26787-5.3422-1.0911-8.35339,21.77267-20.79431,43.03883-41.79033,73.43703-48.9045,2.63349-.61632,13.35255-1.02874,13.71202-2.90481.24353-1.27097-7.69319-20.03629-8.82209-24.3319-5.0794-19.32787-9.044-54.56759-6.75551-74.16444.24019-2.05678,1.15012-5.25652,3.13179-6.19967,2.47062-1.17586,28.05256-.8142,32.65175-.50535,32.2952,2.16875,63.67356,15.11331,88.64838,35.24042,1.62752-15.77859,6.37099-30.73664,13.98624-44.60475,13.6525-24.86251,37.31683-43.45136,56.02535-64.24679,8.67748-9.64544,16.01334-20.72004,25.08296-29.86409,1.58846-.35843,3.33298-.51651,4.9374-.20641,3.74341.72352,21.62263,25.26855,25.93929,30.0707,14.97722,16.66173,33.25195,31.71572,46.38313,50.04195,12.71039,17.73896,20.99435,37.67084,21.55414,59.84708ZM549.02275,218.08579c-1.57505.39978-11.92676,13.6059-14.1808,15.98645-19.60962,20.71025-44.39378,40.8998-55.46126,67.92137-13.3909,32.69428-4.85281,51.40312,13.52972,78.67516,1.48581,2.20433,5.13282,8.66103,7.40408,9.27046,2.22419.5968,14.94508-4.76946,18.72342-5.77842,3.24937-.8677,19.82451-3.58963,20.46957-4.41432.81704-1.04455,1.41696-6.06252,1.56504-7.76642,1.29811-14.93655-2.20399-34.57571.02213-48.70883,1.52176-9.66126,14.47625-10.48674,17.34803-.87696,2.03045,16.82244-1.9475,37.3967.17133,53.74378.83479,6.44053,10.00892,4.83228,15.63674,6.13666,4.03137.93437,22.01164,7.26281,23.79683,6.31608,2.1119-1.11999,19.86687-29.59585,21.50902-33.51492,21.10988-50.37979-22.74899-87.40778-53.13322-119.46129-3.8877-4.10129-9.99573-13.06792-13.92321-16.14066-1.17015-.91549-1.68072-1.84421-3.47743-1.38817ZM350.92242,312.47002c-1.37014.44811-1.4701,1.19076-1.70188,2.44582-.82217,4.45188-.37818,17.77136-.04084,22.85448,1.33113,20.05816,8.0405,40.63479,17.49086,58.19765,2.95361,5.48909,13.37919,15.21391,5.30362,20.49571-3.95483,2.58664-19.92205.08977-26.36423.59818-24.70734,1.94986-46.51544,16.8956-62.72595,34.7171,17.236,17.42924,34.33999,35.57889,55.94778,47.71631,9.06688,5.09301,23.34299,12.30938,33.69488,11.89886l61.71244-8.81368,2.04631-3.13783c-.89098-8.55408,2.29265-16.94299.5912-25.41357-7.7925-4.58191-27.87035-2.87948-25.03809-16.58629,2.94639-14.25913,25.40544-.2782,30.71715-3.55546.74774-4.8161,13.73083-24.48726,13.51195-26.94065-.17319-1.94122-4.65164-5.79747-6.25813-7.3243-10.34995-9.83665-26.8694-20.38173-35.83302-30.52441-7.60865-8.60948,2.51061-19.75726,11.66431-13.73435l43.53097,36.36199c.96534.14318,15.74689-10.15625,12.31444-13.38269-20.83867-35.87327-44.4477-66.24039-85.5957-79.289-8.64906-2.74274-37.38727-9.0632-44.96807-6.58389ZM750.48024,312.3204c-52.39576-1.18512-93.15679,24.1137-122.1604,66.03435-2.84022,4.10513-10.91469,15.04305-12.20821,18.95767-.40415,1.2231-.72418,1.91053.05292,3.13358.5141.80913,14.51014,11.51271,15.45438,11.34718l41.78705-36.04721c9.57847-6.95068,19.70524,3.07767,12.78865,12.78862l-39.99673,34.64958-1.50865,2.71681c4.09406,9.19972,9.72098,18.12169,14.14321,27.37241,4.99048,3.61879,25.97454-10.19557,28.71772,4.41816,2.7812,14.81625-18.92609,11.10375-22.88927,15.59034-2.43976,2.76197-.28691,7.89968-.24676,10.65182.06122,4.19662-1.48036,14.622,2.32013,16.33378l60.54233,9.95328c15.10489,1.10509,36.33178-12.0322,48.41146-20.7868,15.07932-10.92855,27.99722-24.56372,41.12518-37.65501-16.18385-17.63981-37.25138-32.3266-61.80588-34.60034-6.83875-.63327-23.07522,1.99726-27.28353-.71234-8.08073-5.20294,2.35194-15.06322,5.30284-20.4983,14.07232-25.91895,19.82686-54.19769,17.45357-83.64756ZM530.44165,507.54214c-7.47291.93935-11.72273,4.23212-17.72698,8.19367-25.76,16.99619-55.80917,41.31971-79.98413,61.02459-8.76559,7.14478-21.69823,13.3628-3.46125,19.96335,34.65135,12.54142,75.17986-5.39723,103.2329-24.99861,18.10059,4.95459,44.34503-.35875,61.27207,3.57602,6.41932,1.4922,20.78919,13.1628,26.98496,17.59868,57.68322,41.29849,110.8216,88.74702,161.82199,137.87875l83.54375-26.48826c2.94346-41.56361-8.63315-84.32784-25.26286-122.05395-2.33356-5.2939-13.24306-28.91002-16.84193-30.8522-74.56954-18.47694-150.92421-32.33902-227.51891-39.98293-18.02015-1.79835-49.12783-5.98743-66.05961-3.85911ZM227.68569,508.52631c-24.62432,2.61214-50.17223,51.14651-58.62847,72.06261-15.52646,38.40399-23.0616,88.10535-15.48966,129.05442,4.10549,22.20255,11.09546,43.91273,38.48425,40.13396,30.97611-4.2737,20.28364-46.94944,21.35626-67.81196,1.58169-30.76394,9.65502-62.54751,20.96612-91.01139,4.797-12.07144,22.17943-41.74912,23.34694-51.32416,1.9382-15.89568-14.28505-32.77429-30.03544-31.1035ZM867.38809,508.55788c-15.06581,2.0186-27.71928,17.86881-24.39195,33.1816,21.65568,42.12029,40.58987,88.04696,43.29336,136.07821.84882,15.08042-3.40084,42.33864,1.28141,54.70734,7.94967,20.99995,37.55255,24.11407,49.3284,5.2138,32.43754-52.0623.26221-181.09065-45.90698-220.1483-6.94918-5.87879-13.97855-10.32235-23.60424-9.03265ZM476.75203,517.62806c-39.58297,4.61359-79.12815,9.86143-118.54379,15.7149-27.13132,4.02917-54.57251,7.90041-81.31521,13.56121-19.40467,38.6439-38.36173,79.98411-42.74983,123.65462-.54953,5.46896-2.46125,31.86637.22845,34.48751,1.30082,1.26767,30.33644,7.45161,35.23829,8.82682,34.72288,9.74149,67.93396,22.78826,99.04723,41.03064,3.61312.4695,12.56742-10.17617,15.80538-12.82461,27.87282-22.79811,54.64245-17.38503,73.21425,12.88897,24.95102-13.75075,53.19522-1.60084,62.58519,24.53944,18.11307-2.80193,34.05482.65497,45.63259,15.4866,7.69516,9.85784,8.30387,12.95525,19.38251,21.05382,14.27559,10.43556,22.95378,19.4814,36.13906,30.21798,11.72779,9.54977,18.7488,16.5451,34.01845,7.11359,5.39374-3.33152,17.84364-15.71482,14.66608-22.6215-37.59221-37.2412-78.78243-70.51787-118.21917-105.73051-5.87779-7.33017.81299-17.05262,9.95225-14.0929,1.6559.53626,5.83778,4.35258,7.68852,5.78013,40.69092,31.38659,76.98309,71.50424,116.65655,103.15116,13.90164,11.08913,23.61936,11.41145,36.32595-2.06225,11.57638-12.27527,12.17117-16.10296.52189-27.52779-42.29062-41.47579-87.03567-80.5334-132.80996-118.10344-5.52141-7.24276-1.25267-16.95839,8.28677-15.5778,3.07248.44466,11.44268,7.88139,14.5662,10.35175,50.33454,39.80903,94.80611,86.73203,143.63933,128.01027,19.28757,6.4986,35.93456-16.02136,26.35807-33.61631-5.85343-10.75454-31.84954-34.58749-41.90907-44.14774-46.47508-44.16838-97.55902-83.6767-149.63141-120.98091-17.29046-3.80775-36.20534-.87124-54.02909-3.90373-32.57237,20.6054-70.60197,34.71499-109.48282,24.33326-18.90945-5.04909-38.82101-21.26357-23.8364-41.47554,23.81748-19.6253,49.3959-37.21286,72.57373-57.53764ZM413.25674,748.06501c-11.02107,1.40758-28.98276,20.29386-36.57303,28.74528-3.92858,4.3743-12.04338,12.69193-12.8861,18.2264-2.54654,16.72428,21.07009,30.81638,35.14372,21.65732,3.32947-2.16681,12.60813-13.23625,16.13402-17.04451,5.17308-5.58737,19.50481-20.54973,22.4839-26.24265,7.24805-13.85073-10.67967-27.08172-24.30252-25.34185ZM479.51891,768.92647c-8.18709.02708-14.58704,4.2617-20.40777,9.43859-14.46545,12.86542-26.65052,31.6854-40.86923,45.18834-8.43688,12.18219,6.35111,26.59721,18.58593,27.9223,12.65683,1.37079,15.98486-3.21596,23.86799-11.38987,10.38792-10.77111,29.63388-31.40111,37.65952-43.21316,9.16276-13.48565-4.65404-27.9931-18.83643-27.9462ZM530.43957,797.80153c-11.69238,1.23604-23.53917,17.01319-31.41004,25.66607-4.47717,4.922-26.60212,29.83957-27.28241,33.9762-1.50713,9.16442,11.8685,18.01424,20.03458,18.91791,16.05568,1.77674,20.53677-5.10729,30.08671-15.53962,7.26108-7.93199,25.8525-27.72396,30.38511-35.97224,7.80558-14.20432-7.77864-28.53204-21.81396-27.04832ZM570.80169,834.07377c-1.75501.40073-3.19173,1.57906-4.40057,2.85038l-34.14236,40.52247c-3.21823,8.79754,10.81347,13.95119,17.54219,14.50582,15.75295,1.29848,24.97167-6.189,34.80879-17.11998,8.28634-9.20777,17.22857-19.25726,7.20746-31.10925-4.53222-5.36027-13.70552-11.31856-21.01552-9.64945Z"/>
  <g>
    <circle cx="916.35887" cy="651.78811" r="14.71187"/>
    <circle cx="915.73059" cy="710.4096" r="14.63835"/>
    <circle cx="902.12824" cy="595.18914" r="14.5447"/>
    <circle cx="877.16883" cy="545.23464" r="14.22836"/>
  </g>
  <g>
    <circle cx="183.86867" cy="651.88484" r="14.63571"/>
    <circle cx="184.4759" cy="710.46504" r="14.54262"/>
    <circle cx="197.99301" cy="595.28917" r="14.53386"/>
    <circle cx="223.08194" cy="545.2872" r="14.24746"/>
  </g>
</svg>