<?xml version="1.0" encoding="UTF-8"?>
<svg id="a" data-name="Layer 1" fill="#1e1e1e" xmlns="http://www.w3.org/2000/svg" viewBox="0 0 1099.03448 1099.03448">
  <path d="M848.64941,543.91851c7.01404-1.16357,13.10086-12.70283,17.89547-17.92361,33.04175-35.9786,75.1294-56.47065,124.64918-42.03817,27.11318,7.90211,48.72945,27.09174,58.94671,53.4854,10.10175,2.15719,20.06928,5.10416,29.51558,9.28843,6.99931,3.10037,28.57884,12.6752,14.96294,21.27856-7.33054,4.63189-26.51367,9.31399-36.20558,13.54311-6.9241,3.02138-20.0918,8.67908-25.69357,13.11043-6.14558,4.86154-15.97034,20.05181-21.87304,26.88071-45.81245,53.00102-95.55061,97.384-162.44938,122.11331-7.01957,2.5948-22.96118,5.93754-28.02651,8.78754-3.01645,1.69721-12.80246,16.29741-16.48179,20.33226-72.49075,79.49518-223.14041,104.06918-323.89127,126.83216-43.88313,9.91467-87.67444,22.01206-131.87511,29.41421-8.08492.03788-10.10371-5.83338-7.94602-13.02925,5.17315-17.25237,59.97868-49.16325,76.79512-57.52154,7.91911-3.93604,25.72283-9.66522,31.55597-14.21285,2.98198-2.32481,8.62517-11.95865,12.06719-15.79209,10.9334-12.17671,28.19-24.26247,42.62638-31.9967,6.43536-3.44772,21.19239-8.08162,25.52189-11.29217,2.71786-2.01543,7.15921-10.48436,10.00079-13.87859,8.27594-9.88549,20.89462-19.24752,32.13681-25.57171,4.47782-2.51896,13.74449-5.52731,16.90489-7.7194.98115-.68054,3.67309-5.54909,1.66913-6.53153-37.87989-9.81465-74.02277-26.93415-111.43619-37.81244-44.75536-13.01302-80.54895-7.16532-125.69593-.33399-114.13732,17.27048-224.29159,50.06781-334.73122,82.16044-29.78014,1.18733-15.76959-16.74384-1.55199-27.41869,37.90929-28.46305,97.48127-54.14619,142.07846-70.84608,9.44628-3.53726,25.36094-6.93897,33.40312-11.37073,5.9736-3.29184,12.39768-12.23259,17.84272-16.98138,27.566-24.04117,66.36003-37.03918,101.49551-45.26835l-28.76425-15.49489c-10.06809-6.61448-19.72356-14.06758-26.78043-23.96327-3.02488-4.24172-8.3941-17.22053-10.14286-18.7114-6.4043-5.45985-26.67377-14.06309-35.4678-19.2558-16.79731-9.9185-80.25154-49.47708-85.93547-65.2909-1.59911-4.44905-1.08724-8.49322,3.96586-10.051,6.98503-2.15336,25.18574,3.90529,32.88746,6.02208,121.16721,33.30237,248.21947,90.87689,372.76158,106.81611,42.38063,5.42398,82.82243,2.79459,124.72282-4.84396l-10.95112-8.43532c-7.58715-7.32685-16.92532-16.87293-14.46781-28.429,1.06992-5.03112,5.04774-8.03978,7.44441-12.23938-10.10456-9.43522-22.15544-22.00925-21.88861-36.96298.07874-4.41296,3.48957-9.58571,2.92112-11.70326-.50449-1.87925-5.98164-5.12643-7.85508-7.16106-7.49802-8.14309-18.45693-22.53056-18.91042-33.90797-.11802-2.96091,2.03547-8.95569,1.47564-10.44861-.4559-1.21577-16.04599-14.60428-18.86744-17.84367-6.72144-7.71707-16.33152-21.70541-17.94607-31.80273-.92092-5.75941.61916-10.15345-.38892-15.26164-16.45935-14.00115-38.9329-37.78629-41.59917-60.1758-.45853-3.85041,1.673-10.95682,1.19481-12.22321-.82987-2.19773-19.73095-18.45329-23.35814-22.30839-11.21343-11.91804-41.54293-50.66809-43.66307-65.77946-2.32753-16.58954,9.56431-16.56548,21.10899-10.16894,41.6992,23.10419,85.00734,54.32487,126.14186,79.81786,69.08581,42.81571,141.15788,82.06248,203.3636,134.92772,23.4867,19.96006,63.03112,57.4551,59.22863,91.01861-2.82546,24.9396-42.33343,21.35799-45.68486,45.85302-.78077,5.7065-.04543,12.66694.90782,18.31992,9.78596-1.14719,23.00418,1.54818,32.33667,0ZM690.9362,358.85286c-7.55727-16.82786-24.03048-28.83853-38.47884-39.6165-40.85885-30.47929-88.3802-60.55098-131.33872-88.55064-9.17991-5.98332-18.37919-12.11811-28.16284-17.09835-.68806.74785,5.56227,10.40588,6.54851,11.84836,17.32239,25.33573,47.03158,50.3921,71.73144,68.55996,36.33138,26.72337,77.46722,48.99162,119.70044,64.85717ZM719.79993,407.59705c-3.87418-12.99363-14.87411-22.2217-25.95289-29.25795-26.03631-16.53594-58.61591-28.66073-86.15368-44.18797-24.1967-13.64337-46.98553-29.42407-69.96351-44.94586-1.12627,1.43729,4.04914,11.27823,5.15814,13.23871,25.13365,44.43106,108.42851,86.2051,156.25014,100.45327,2.88821.86053,19.44184,5.62593,20.6618,4.6998ZM578.52361,360.84359c-.54055.6781,1.65383,5.24802,2.12611,6.32103,18.33145,41.64901,106.29674,75.95775,148.87653,81.9579,6.72143.94715,12.51483,3.3041,8.575-5.59464-8.50933-19.21965-57.4075-32.25321-76.97281-40.42998-28.59853-11.95195-56.22091-26.052-82.60483-42.25432ZM612.34338,422.54137c15.16818,38.19284,66.00788,53.3091,103.29276,59.37541,8.97684,1.46055,46.77414,8.43251,27.56958-9.6601-10.53237-9.92254-42.12226-15.7834-57.00199-20.60596-25.29657-8.19869-49.49113-18.62106-73.86035-29.10935ZM749.30307,506.45349c-7.35857-8.21849-47.46777-13.59187-60.35446-16.75369-17.80415-4.36835-35.16989-10.24367-52.71627-15.42921-.02284,13.77258,14.46367,24.83254,25.81466,30.39113,18.43352,9.02692,59.81648,15.15014,80.17494,13.42226,7.93317-.67331,13.86394-4.05505,7.08113-11.63049ZM373.54899,564.80287c-8.40021-11.7823-23.92711-17.48222-36.84707-23.33868-23.97521-10.86767-50.04712-21.2098-74.60367-30.86362-30.36865-11.93871-61.0186-23.74422-92.51837-32.34077,57.88216,46.70874,129.64915,78.17055,203.96911,86.54307ZM1033.22259,542.90629c-21.92939-50.279-82.3568-50.74083-121.84834-19.84081-17.7598,13.89609-23.59111,28.77778-37.32916,43.26377-3.83003,4.03854-7.81645,5.98194-13.41581,6.48368-14.39188,1.28962-31.07637-.61355-45.85003-.08121-64.07841,2.30894-134.91348,14.20872-196.23404,32.61008-52.79236,15.84218-102.54259,39.5688-151.46359,64.43605.68147,1.54638,22.78702,7.21455,26.39859,8.42551,36.83084,12.34945,72.2578,29.2157,110.33131,37.8461,8.16167-5.53162,15.49342-11.85206,24.15437-16.71416,4.74997-2.66655,14.8215-6.13726,18.18958-8.67474,2.36021-1.77816,7.98253-11.55224,10.93573-14.9336,34.36936-39.35222,118.86163-53.25302,168.71532-50.26208,16.38696.98312,26.27309,3.15668,28.19308,21.55563,2.05129,19.65722-4.3073,42.03159-11.05537,60.33843-2.19273,5.94866-6.93607,13.75825-8.53143,19.33271-.3263,1.14014-.95179,2.6606,1.19385,2.19833,8.06201-1.73693,21.94557-8.32008,29.81665-11.98665,49.14153-22.89146,91.0903-59.86565,126.5163-100.33788,4.69081-5.35899,20.22863-22.19298,22.45297-27.29642,2.46934-5.66555-.9171-16.7144-.08318-23.96107,1.09097-9.48038,10.0304-19.43093,18.91322-22.4017ZM653.85386,521.23962c-9.50856,2.1272-1.23823,13.02171,2.7399,16.73461,22.39898,20.90562,55.66585,14.66549,83.58856,10.90427,6.00602-.80902,16.35713-1.0051,11.50631-9.49297-4.95042-8.66215-38.80357-9.03029-49.15921-10.53291-13.68706-1.98601-31.0892-6.79964-44.0596-7.71866-1.63977-.11619-2.94416-.26835-4.61597.10565ZM269.08158,554.86864c3.7137,8.59632,13.25356,15.29373,20.97344,20.30779,20.63436,13.40201,50.34428,23.96161,74.99512,25.49731,3.80714.23718,36.35346.36137,36.33821-3.52414-5.81144-6.09075-14.03901-9.0481-21.66025-12.1488l-110.64651-30.13216ZM1069.03785,559.84783c-.76669-.7236-18.27017-4.65196-20.51687-4.86046-14.57441-1.35259-22.75695,7.67645-17.28191,21.76267,11.1015-6.71174,24.93597-9.62023,36.39956-14.82703.85992-.39058,3.12105-.45013,1.39923-2.07517ZM391.45262,623.52762c-38.89297-13.51784-79.02312-7.79711-116.92128,5.94089-19.01824,6.89407-39.03742,16.33951-54.20801,29.85715,23.13624-4.86625,46.1809-10.35453,69.46372-14.60145,31.0519-5.66404,63.0927-7.9162,93.23261-17.20966l8.43297-3.98693ZM773.53111,646.40546c-36.2108,2.96081-78.26557,10.55976-103.47933,38.78952,19.81429-4.00409,40.09328-6.11884,59.88246-10.25306,16.70232-3.48933,41.2614-8.0873,43.59687-28.53647ZM373.5441,656.36073c-26.08878-.06667-52.14953,2.47399-77.93465,6.12558-72.99836,10.33776-144.33925,31.94121-209.62265,65.98528-9.47875,4.94299-19.08548,10.28756-27.84449,16.42168l315.40178-88.53254ZM748.64988,687.20046c-28.77156,2.33084-57.6527,6.36086-85.32864,14.65606-18.34345,5.49801-37.19434,13.39733-49.98321,28.11209,28.73615-5.39189,58.10996-8.45932,86.76913-14.21059,18.64284-3.74121,40.72344-9.13735,48.54272-28.55757ZM715.82005,728.99372c-34.51663,2.14791-70.12523,6.5704-103.2447,16.6395-20.86911,6.3447-43.73658,14.89857-57.94081,32.09418,15.74546-1.98584,31.02041-6.6194,46.55675-9.64911,20.52991-4.00349,41.44733-6.50893,61.91627-10.71687,19.45563-3.99963,42.60366-9.57947,52.71249-28.3677ZM678.00646,769.7831c-44.73729,4.48828-90.50955,11.99812-133.08931,26.59388-20.54377,7.04212-42.39889,16.4707-59.39198,30.15572-1.10627.89091-10.0366,7.50886-8.49388,8.90796,24.98118-6.02177,49.59043-13.45247,74.60478-19.41009,33.53959-7.98807,103.74943-15.65608,124.88906-43.2613.76402-.9977,1.93052-1.2609,1.48133-2.98617ZM630.25225,815.55649c-39.83571,4.43082-80.16032,13.7354-118.60635,25.15724-38.95992,11.57451-78.09747,25.48505-111.94989,48.24099l-9.22744,7.17453c47.7138-12.96869,95.93073-24.5325,143.48626-38.08146,33.21815-9.46413,70.40499-18.65474,96.29742-42.49129Z"/>
  <circle cx="968.88481" cy="545.60614" r="19.77159"/>
</svg>