<?xml version="1.0" encoding="UTF-8"?>
<svg id="a" data-name="Layer 1" xmlns="http://www.w3.org/2000/svg" viewBox="0 0 1023.01995 1256.31318">
  <defs>
    <style>
      .b {
        fill: #e9b22b;
      }

      .c {
        fill: #c8151c;
      }

      .d {
        fill: #fff;
      }

      .e {
        fill: #e5e1d5;
      }

      .f {
        fill: #1e1e1e;
      }

      .g {
        fill: #050505;
      }

      .h {
        fill: #e293c4;
      }

      .i {
        fill: #f5f5f6;
      }

      .j {
        fill: #f9f4f2;
      }

      .k {
        fill: #0433a9;
      }
    </style>
  </defs>
  <g>
    <path class="c" d="M592.10009,672.42658c.30028,3.81926-.3232,7.7791,0,11.59373-52.69578,9.90713-102.03643,38.4796-133.03283,82.47902-11.18059,15.87086-17.49456,31.46021-25.48836,48.91656.03641-46.34438.05189-92.78039,0-139.12474,30.74751,4.38159,62.67515.69409,93.83921,2.01197l64.68198-5.87655Z"/>
    <path class="c" d="M836.6085,419.33647c-9.58798-18.79599-37.03542-82.49192-17.33909-98.55773,22.87954-18.66263,47.56228,49.36146,55.07582,61.80478,3.98319-22.93248-2.2976-50.66222-9.16026-72.96643-34.90049-113.43033-153.41407-196.08108-265.33054-221.729-94.73286-21.71013-193.58428-12.52139-285.34452,14.26646l8.5082,27.14905-35.93705,11.25146-7.75697-24.7526c-83.8024,33.75236-154.41778,108.78821-175.37584,197.19621-7.52041,31.72382-7.42508,62.25713-6.7437,94.70437,66.10076-1.68509,134.82197-.78173,201.0514,0,8.05971-19.03222,30.25368-37.52563,38.81316-54.91934,1.10574-2.24701,2.54958-4.107,1.70352-6.82278l-94.63635-54.18519,106.31403-19.34451-30.91931-100.4576,95.56468,56.01201,57.12362-100.45961,21.2995,104.33776,94.70588-36.70169-31.90744,81.10673c83.67993-61.99912,196.23522-13.15066,239.82083,73.37891,25.66652,50.95507,18.85982,92.73045,27.94435,145.0084,13.95785,4.18508,51.00902,40.7152,50.31542,4.92727-.50228-25.91464-26.1244-57.38012-37.78934-80.24693Z"/>
    <g>
      <path class="e" d="M433.57887,676.29116c-.07271-65.01579,4.75303-140.27045.07472-203.93086-1.50984-20.5424-8.34268-42.91832-26.86056-54.30816-22.90031-14.08518-80.50192-10.01805-108.53708-10.3491-66.22943-.78173-134.95064-1.68509-201.0514,0-46.17792,1.17745-82.88195,4.8378-87.06837,60.79185-6.00487,80.25329-1.85799,599.08457-1.85799,599.08457,0,36.53214,29.06769,58.41382,62.75304,60.94229,47.06352,3.53302,98.51132-2.79016,146.03088-.07506,10.80095-4.57778,30.74976-10.16113,42.46312-12.62694,26.0681-5.48785,55.00981-6.75141,81.24679-2.82602l9.67996-48.31268,81.19385-164.24434c3.54542-27.73677,1.91093-56.86444,1.93304-85.02073.03652-46.34445.05194-92.78038,0-139.12483Z"/>
      <path d="M104.11211,1136.4831c-11.34829.00067-22.61081-.29353-33.59454-1.11848-40.68605-3.05387-69.10169-30.92802-69.10169-67.78485-.16888-21.14117-4.07986-519.97623,1.87642-599.59656,2.10293-28.09731,12.39373-46.58269,31.46213-56.51228,16.85825-8.77894,39.0777-10.03681,62.27556-10.62788,63.94154-1.6298,130.2715-.84439,194.41677-.0831l6.88913.08176c5.069.05897,11.28932-.02882,17.8809-.12331,31.14046-.44699,73.782-1.0528,94.1706,11.48835,22.26769,13.69649,28.66493,39.99781,30.10977,59.65058,3.13361,42.63551,2.03859,90.36885.97976,136.53068-.5455,23.74068-1.06017,46.16921-1.03605,67.89475h0c.05629,50.45213.02949,100.86002,0,139.1389-.00536,6.74907.08712,13.70521.17692,20.43216.28816,21.59888.58571,43.93359-2.16458,65.45273l-.14609,1.14059-81.30375,164.46582-10.78537,53.83437-6.46157-.96702c-24.77807-3.70726-52.77285-2.72817-78.8175,2.75431-11.84554,2.49429-31.22624,8.00358-41.19939,12.23021l-1.47299.62458-1.59629-.09181c-22.42853-1.28199-46.29788-.50462-69.37913.24795-14.2554.46441-28.78556.93754-43.17901.93754ZM180.72885,413.61139c-28.00148,0-55.9078.25265-83.34904.95228-47.58188,1.2123-76.73736,5.48181-80.40039,54.44353-5.91473,79.05473-1.88044,593.33202-1.83889,598.51762,0,34.50125,28.32852,52.04641,56.40371,54.15403,24.1803,1.81409,50.16865.96769,75.30056.14944,22.8534-.74521,46.46675-1.51521,69.03869-.31899,11.30808-4.56036,30.34834-9.90345,42.22739-12.40445,25.36378-5.34041,52.51015-6.64117,77.19574-3.7602l8.59398-42.8962.39941-.80887,80.68051-163.2046c2.47553-20.23111,2.19005-41.66045,1.91394-62.39819-.0898-6.77453-.18362-13.78026-.17826-20.62583.02949-38.27285.05629-88.6727,0-139.11277h0c-.02413-21.89174.49189-44.39801,1.03873-68.22513,1.05213-45.83681,2.14045-93.23373-.94491-135.20915-1.21029-16.45751-6.28867-38.31172-23.61201-48.96708-16.99228-10.45097-58.99049-9.85051-86.78556-9.45512-6.68138.09583-12.99686.18563-18.23742.12331l-6.89047-.08109c-36.43463-.43225-73.57694-.87253-110.55573-.87253Z"/>
    </g>
    <g>
      <path class="g" d="M386.15708,651.37962c7.30258,8.2713,2.9711,21.47831-7.92796,23.61986-36.1429,1.43066-67.52016.79307-108.79718.15127-16.10795-.25046-19.30675-27.38066,1.66894-28.6716,39.77946.10838,62.89435,1.68563,104.23208-.13913,3.18334-.14052,8.85082,2.80453,10.82413,5.0396Z"/>
      <path class="g" d="M386.15708,714.35644c7.30258,8.2713,2.9711,21.47831-7.92796,23.61986-36.1429,1.43066-67.52016.79307-108.79718.15127-16.10795-.25046-19.30675-27.38066,1.66894-28.6716,39.77946.10838,62.89435,1.68563,104.23208-.13913,3.18334-.14052,8.85082,2.80453,10.82413,5.0396Z"/>
      <g>
        <path class="g" d="M386.15708,833.16677c7.30258,8.2713,2.9711,21.47831-7.92796,23.61986-36.1429,1.43066-265.18894.79307-306.46595.15127-16.10795-.25046-19.30675-27.38066,1.66894-28.6716,39.77946.10838,260.56312,1.68563,301.90085-.13913,3.18334-.14052,8.85082,2.80453,10.82413,5.0396Z"/>
        <path class="g" d="M386.15708,900.76921c7.30258,8.2713,2.9711,21.47831-7.92796,23.61986-36.1429,1.43066-265.18894.79307-306.46595.15127-16.10795-.25046-19.30675-27.38066,1.66894-28.6716,39.77946.10838,260.56312,1.68563,301.90085-.13913,3.18334-.14052,8.85082,2.80453,10.82413,5.0396Z"/>
        <path class="g" d="M386.15708,968.37164c7.30258,8.2713,2.9711,21.47831-7.92796,23.61986-36.1429,1.43066-265.18894.79307-306.46595.15127-16.10795-.25046-19.30675-27.38066,1.66894-28.6716,39.77946.10838,260.56312,1.68563,301.90085-.13913,3.18334-.14052,8.85082,2.80453,10.82413,5.0396Z"/>
      </g>
    </g>
    <path class="h" d="M706.1837,904.30146l-36.46361,101.95002c-2.10896,4.00715-5.85525,8.4566-9.33416,6.67903-35.59192-18.18314-72.90579-34.89932-109.5036-51.00634-24.81057-10.91973-61.0336-21.19277-83.02369-32.9522-7.31919-3.914-28.3183-22.1015-36.21281-28.53526-16.9504-13.81377-32.73139-32.72134-36.26559-55.5352-2.43013-15.6865,4.02039-48.3931-24.11211-44.56219-21.5436,2.93391-27.55081,27.60476-26.61578,45.99329.46089,9.06141,2.94413,19.12604,6.26572,27.55215,2.23143,5.66141,8.05518,12.30493,9.17266,15.96093,2.35859,7.71676-7.77323,3.61345-10.95809,2.46502-9.35129-3.37198-28.92505-7.93912-36.72524-7.57222-14.29427.67283-28.83749,12.60449-28.19549,27.74147.36322,8.56952,4.38169,20.78364,4.38169,20.78364,0,0-10.32427,6.3419-11.83872,18.45745-1.89945,15.1956,7.9542,24.03767,7.9542,24.03767,0,0-5.69593,1.24983-8.54205,5.9861-4.64497,7.73016-4.37305,20.32292,1.09586,27.5937,1.88697,2.50837,7.46981,6.1151,7.46981,6.1151,0,0-5.66895,6.61302-6.87757,10.47073-5.19198,16.56976,4.11873,28.67565,19.92485,32.46936,11.90351,2.85718,40.39253,6.24277,52.67199,6.28733,1.48002.00536,10.31828,2.2001,14.26361,4.06814,14.86037,7.03555,39.74332,9.0135,56.64798,16.83681,27.00966,12.49961,59.21717,37.27131,86.30976,52.85494,26.18019,15.05857,52.60397,30.25888,79.26097,44.44223,64.07273,34.09129,130.65063,79.47425,197.46041,22.79745l24.22201-23.13017c1.57049-2.97445,3.87178-6.23138,5.79963-9.6612,6.42287-11.42771,15.07164-21.95105,21.59821-33.48229,26.85101-47.43981,53.64237-95.06659,73.12844-146.1949l-202.95932-88.91061Z"/>
    <path class="j" d="M912.99453,86.96754c-45.45107-9.747-65.51224-44.308-74.40366-86.96754-5.47825,13.16826-7.20614,27.59751-13.57581,40.53457-12.78313,25.96308-36.01232,39.27179-62.81428,47.37498,45.12272,9.13648,67.13941,43.35436,76.37076,85.97708,4.68857-10.38301,5.96212-21.57813,10.29383-32.2213,7.77759-19.10984,19.50945-33.42745,37.72423-43.44938l26.40494-11.24841Z"/>
    <path class="k" d="M912.99453,86.96754l-26.40494,11.24841c-18.21478,10.02193-29.94663,24.33954-37.72423,43.44938-4.33171,10.64317-5.60525,21.8383-10.29383,32.2213-9.23135-42.62272-31.24804-76.84059-76.37076-85.97708,26.80196-8.10319,50.03115-21.4119,62.81428-47.37498,6.36967-12.93706,8.09756-27.36632,13.57581-40.53457,8.89142,42.65954,28.95259,77.22054,74.40366,86.96754Z"/>
    <rect class="h" x="273.8462" y="54.06023" width="37.65709" height="82.76276" transform="translate(-15.1473 91.80878) rotate(-17.38506)"/>
    <path class="b" d="M874.34513,382.58338c5.31011,8.7943,8.75848,12.19926,11.13039-1.43463,7.77244-44.67648-1.18875-144.12972,37.34567-175.22334,16.22034-13.08827,37.27238-8.61063,40.27969,13.55024,6.91033,50.92227-28.01244,98.11629-34.13175,145.24713-.6319,4.86689-3.13874,30.49063,6.69266,21.13498,7.95662-7.5716,16.65526-28.53154,25.73361-38.96481,24.76509-28.46122,54.21526-24.29077,47.40394,18.39746-8.93255,55.98252-76.14216,85.23276-81.77276,130.84341-3.74565,30.34166,29.50239-6.45935,38.82536-11.45835,27.2577-14.61565,44.02165,2.44867,34.52823,30.64688-13.22498,39.28204-60.24241,52.07329-73.91339,92.29847-3.00729,8.84856-5.9556,18.85116-1.58737,27.81139,8.72758,5.42428,23.73026-11.95925,31.24414-15.55911,14.58236-6.98632,31.39178-6.18634,32.41322,12.89367,1.84032,34.37618-49.81811,65.68533-58.58366,97.08837-20.88251-15.29381-47.97955-36.67905-73.00664-45.83483-2.36105-11.93792-15.55064-20.50662-15.46548-32.8489,29.26927-9.36245,63.05547-30.91043,48.40215-66.73541-6.5604-16.03911-21.81062-20.00119-33.86096-29.92126-18.32272-15.08361-27.90501-36.63954-31.93985-59.85865,13.95806,4.18519,51.00913,40.71527,50.3155,4.92737-.50227-25.91476-26.12434-57.38012-37.78923-80.24718-9.58807-18.79581-37.0355-82.49154-17.33918-98.55764,22.87944-18.66254,47.56226,49.36139,55.07572,61.80475Z"/>
    <path class="c" d="M841.48098,651.17141c-.08516,12.34228,13.10444,20.91098,15.46548,32.8489l-102.44949-17.40983,46.743-6.38805c12.6694-3.52113,27.9546-5.12093,40.241-9.05102Z"/>
    <path class="h" d="M704.20701,152.65793c2.05456,14.0992,2.30619,28.23295,1.96104,42.50352l-40.61296,1.93119-1.93619-42.52432,40.58811-1.9104Z"/>
    <path class="h" d="M199.03491,350.54373c-12.68735-6.48382-24.35948-14.45799-35.79785-22.99803l21.92829-34.23876,35.80042,23.03034-21.93086,34.20645Z"/>
    <path class="j" d="M686.83702,457.93367l12.7355-77.3415c-45.3409-12.42958-99.01343-21.04065-133.56059-55.98722-8.27248-8.36814-13.07661-19.13173-19.79954-28.47896-.69829-.97071-.34479-3.87446-3.38794-2.41756-6.20239,2.9701-38.07582,64.13991-43.24401,74.65588-4.00581,8.15102-33.88505,71.09806-31.20932,74.11038l34.68806,5.91004c-1.94745,41.52776-14.08166,86.22633,14.77476,121.4691,15.7634,19.25169,44.0636,30.89585,68.46655,33.01051,33.56924,2.90844,77.19457-10.88522,92.95177-42.41135,1.64857-1.15634,15.13212,7.0131,19.17295,7.62998,28.14255,4.29565,55.81365-11.15496,65.2996-38.10799,17.05595-48.46346-29.34815-94.48859-76.88781-72.04129Z"/>
    <path class="h" d="M698.42527,568.08303c2.19811,36.84861,5.43216,66.65136,36.86941,89.72945,3.76082,2.76082,9.80157,1.92462,6.65858,6.91322-3.29931,5.2367-21.36394,20.54611-27.15027,25.03716-27.30879,21.19564-72.5399,41.71257-107.31308,32.01301-18.23661-5.08688-14.01976-21.58506-15.38983-37.75555-.3232-3.81463.30028-7.77447,0-11.59373-1.8191-23.13732-3.39234-46.47957-5.79956-69.56237,33.56917,2.90865,77.19454-10.88518,92.95173-42.41136,1.6487-1.15623,15.13213,7.0134,19.17301,7.63017Z"/>
    <path class="g" d="M652.83503,403.99878c-15.07834-19.119-41.20575-28.5701-65.10308-24.8166-6.88025,1.08061-30.71575,11.1258-32.05169,18.17275-1.34985,7.11899,18.0347,27.11689,24.17259,31.28521,17.36673,11.79394,39.73612,12.3371,59.18299,5.68788,21.40772-7.3197,28.968-11.09498,13.79919-30.32924Z"/>
    <ellipse class="k" cx="709.29511" cy="511.02574" rx="32.18444" ry="32.1695"/>
    <ellipse class="c" cx="620.13618" cy="488.50097" rx="27.95177" ry="27.9388"/>
    <path class="g" d="M588.07618,529.40218c-15.06405,43.12762-72.16153,41.07734-64.33916-10.74509.24963-1.65379,1.9904-2.66321,3.53546-2.02279,19.08881,7.91212,37.97988,9.1562,58.36412,9.3264,1.77201.0148,3.02392,1.76852,2.43958,3.44148Z"/>
    <path class="j" d="M651.87882,421.05688c-1.01062,1.43332-23.02569,8.78492-26.9144,7.88183,7.57044-8.47083,10.59238-21.58366,7.5426-32.73431,2.59276,1.37074,23.19875,19.42487,19.3718,24.85248Z"/>
    <path class="j" d="M575.47878,414.37772c-3.94386-.18931-14.63962-14.0717-12.3654-16.30044,8.24721-8.0823,18.61248-10.01301,18.61248-10.01301-3.38425,5.72318-7.40418,18.58706-6.24708,26.31345Z"/>
    <path class="g" d="M980.76246,914.83653c-1.42239-67.38175,2.41756-138.96634-50.41728-189.2965-1.51085-1.43914-48.37165-32.36415-73.39868-41.51972l-102.44961-17.40979,46.74319-6.38819c12.66932-3.52096,27.95457-5.12094,40.24091-9.05102,29.26924-9.36231,63.05544-30.91026,48.40214-66.73539-6.56042-16.039-21.81065-20.00092-33.86093-29.92112-18.3227-15.0837-27.90515-36.6397-31.93978-59.85866-9.08453-52.27795-2.27783-94.05332-27.94435-145.0084-43.58562-86.52957-156.1409-135.37803-239.82083-73.37891l31.90744-81.10673-94.70588,36.70169-21.2995-104.33776-57.12362,100.45961-95.56468-56.01201,30.91931,100.4576-106.31403,19.34451,94.63635,54.18519c.84606,2.71578-.59777,4.57577-1.70352,6.82278-8.55947,17.3937-30.75345,35.88712-38.81316,54.91934,28.03516.33105,85.63676-3.73608,108.53708,10.3491,18.51788,11.38984,25.35071,33.76576,26.86056,54.30816,4.67831,63.66042-.14743,138.91507-.07472,203.93086,30.74742,4.38177,62.6753.69394,93.83921,2.01212l64.68206-5.87653c-1.81912-23.13755-3.39229-46.47982-5.79963-69.56241-24.40295-2.11465-52.70315-13.75882-68.46655-33.01051-28.85642-35.24277-16.72221-79.94134-14.77476-121.4691l-34.68806-5.91004c-2.67574-3.01232,27.2035-65.95936,31.20932-74.11038,5.16818-10.51597,37.04162-71.68578,43.24401-74.65588,3.04314-1.4569,2.68964,1.44685,3.38794,2.41756,6.72293,9.34723,11.52706,20.11082,19.79954,28.47896,34.54716,34.94657,88.21968,43.55764,133.56059,55.98722l-12.7355,77.3415c47.53966-22.44729,93.94376,23.57783,76.88781,72.04129-9.48595,26.95304-37.15705,42.40364-65.2996,38.10799,2.19809,36.84878,5.43222,66.65129,36.86956,89.72953,3.76071,2.76068,9.80159,1.92467,6.6586,6.91325-3.29948,5.23654-21.364,20.54608-27.15039,25.03708-27.30888,21.19579-72.53988,41.71272-107.31305,32.01299-18.23658-5.08676-14.01967-21.58481-15.38979-37.75549-52.69578,9.90714-102.03647,38.47959-133.03284,82.47919-11.18076,15.87079-17.49456,31.46012-25.48843,48.91648-.02211,28.15629,1.61238,57.28395-1.93304,85.02073,7.89452,6.43376,28.89362,24.62125,36.21281,28.53526,21.99008,11.75943,58.21312,22.03247,83.02369,32.9522,36.59781,16.10702,73.91168,32.8232,109.5036,51.00634,3.47891,1.77757,11.11843,12.95062,15.61412,9.30669,9.37538-7.59915-8.38892-11.97857-6.27996-15.98572l36.46361-101.95002,202.95932,88.91061c-19.48607,51.12831-46.27744,98.75509-73.12844,146.1949-3.28289,5.80013-7.1024,11.34528-10.90566,16.87903.00017-.00067.0005-.00101.0005-.00134l-40.7147,49.39597c-66.80978,56.6768-133.38769,11.29384-197.46041-22.79745-26.657-14.18336-53.08078-29.38366-79.26097-44.44223-27.09259-15.58363-59.3001-40.35533-86.30976-52.85494-16.90466-7.82331-41.78761-9.80126-56.64798-16.83681-3.94533-1.86804-4.52467-5.80148-5.94103-6.12315-3.48025-.79011-6.84255,2.06037-8.32257,2.05501l-9.67996,48.31268c-26.23698-3.92539-55.17868-2.66183-81.24679,2.82602-11.71336,2.46581-31.66217,8.04915-42.46312,12.62694-25.54087,10.82491-58.43142,36.75329-76.38369,57.94539-7.12318,8.40869-43.17984,62.01386-35.7484,69.58486,227.48122,1.52308,483.05456-2.66451,710.52088-1.9317.4304-14.83307-.32067-38.4377,1.35236-59.84024,41.37094-19.27615,132.37844-59.43614,163.86704-27.11287-1.4239-84.00076,1.86502-168.25551.09215-252.2556ZM165.98558,1236.83951c-7.67119,0-13.88983-6.21596-13.88983-13.88347s6.21864-13.88313,13.88983-13.88313,13.88983,6.21563,13.88983,13.88313-6.21864,13.88347-13.88983,13.88347ZM214.91446,1200.60358c-8.56986,0-15.51729-6.94441-15.51729-15.51059s6.94743-15.51025,15.51729-15.51025,15.51762,6.94441,15.51762,15.51025-6.94743,15.51059-15.51762,15.51059ZM276.52556,1180.73502c-8.66686,0-15.69287-7.02249-15.69287-15.68549s7.026-15.68549,15.69287-15.68549,15.69287,7.02249,15.69287,15.68549-7.02584,15.68549-15.69287,15.68549ZM305.90387,1237.11578c-7.75027,0-14.03291-6.27979-14.03291-14.02637s6.28264-14.02654,14.03291-14.02654,14.03291,6.27996,14.03291,14.02654-6.28264,14.02637-14.03291,14.02637ZM341.86939,1180.56781c-8.62179,0-15.61128-6.98596-15.61128-15.60407s6.98948-15.60374,15.61128-15.60374,15.61111,6.98596,15.61111,15.60374-6.98931,15.60407-15.61111,15.60407ZM405.00408,1200.51981c-8.49983,0-15.39013-6.88712-15.39013-15.38292s6.8903-15.38292,15.39013-15.38292,15.38996,6.88712,15.38996,15.38292-6.89047,15.38292-15.38996,15.38292ZM454.29232,1236.80818c-7.57636,0-13.71811-6.13906-13.71811-13.71174s6.14174-13.71191,13.71811-13.71191,13.71811,6.13923,13.71811,13.71191-6.14191,13.71174-13.71811,13.71174Z"/>
    <path class="h" d="M991.65003,1167.09231c3.2195,3.30483,13.95831,20.27254,16.46668,25.08516,4.77026,9.15232,20.74514,57.28113,12.6533,62.95656-2.54419,1.78443-44.20917,1.03336-51.43133.92323-56.76096-.86558-113.77705-1.82758-171.00716-2.01198.73132-25.20796,9.64865-49.49111,21.26504-71.49466,1.57044-2.97469,13.65306-23.0038,45.07403-37.06913,41.29437-18.48506,95.29361-10.91487,126.97945,21.61082Z"/>
    <path class="j" d="M812.4832,1043.42588c-.21587.01069-2.04515,1.39844-3.86637,1.93229.98818-1.4195,3.66604-1.65322,3.86637-1.93229Z"/>
    <path class="j" d="M806.68365,1047.29045c.48101-.85,1.51256-1.32807,1.93319-1.93229-.48117.14104-1.19826,1.77635-1.93319,1.93229Z"/>
    <path class="j" d="M570.8068,743.93087l13.48582,33.98483,38.74295-5.00144-9.67594,36.69653,34.79783,15.4395-34.64966,16.64702,11.46323,31.66573-40.69371-2.99802-20.00155,35.77755-10.8485-36.61171-50.64176,11.01136,21.64736-41.91452-30.96659-16.44899,30.97391-12.57713-11.59254-34.75195c13.1846-.6974,38.64255,3.8461,38.64255,3.8461l19.3166-34.76487ZM584.24495,824.43268c0-8.5384-6.92495-15.46014-15.46732-15.46014s-15.46732,6.92174-15.46732,15.46014,6.92495,15.46014,15.46732,15.46014,15.46732-6.92174,15.46732-15.46014Z"/>
    <path class="j" d="M795.99251,692.54713c1.14202-1.05381,2.97483-.01218,2.63897,1.50503-3.05836,13.8158-24.55655,31.08918-26.37028,39.70163-1.45212,6.89537,8.89635,16.08325,7.40343,17.82998-.03137.03671-.08582.05394-.13397.05037-9.85715-.7307-13.13944-4.34627-22.14658,1.95152-32.50645,22.72851-38.52504,93.4316-50.72292,129.02409-.367,1.07089-.62933,2.40734-.96974,3.69542-.70063,2.65109-4.69418,1.68201-4.13648-1.00279,7.97358-38.38549,8.53736-78.92588,26.79489-114.3689,2.76024-5.35841,17.80064-26.10129,18.01028-28.27526.61526-6.3803-13.91073-15.24461-11.25292-17.993.03424-.0354.08787-.05298.13663-.04606,8.20729,1.16565,16.67803,3.73955,24.97713.9187.02017-.00685.03895-.01799.0546-.03244l35.71695-32.9583Z"/>
    <polygon class="j" points="617.24295 929.45632 635.59675 912.0677 653.92752 932.31935 635.59675 952.57011 627.96489 940.91381 617.24295 929.45632"/>
    <ellipse class="j" cx="276.52558" cy="1165.04959" rx="15.69281" ry="15.68552"/>
    <ellipse class="j" cx="341.86936" cy="1164.96386" rx="15.61121" ry="15.60397"/>
    <ellipse class="j" cx="214.91458" cy="1185.09312" rx="15.51748" ry="15.51028"/>
    <ellipse class="j" cx="405.00398" cy="1185.13689" rx="15.39001" ry="15.38287"/>
    <ellipse class="j" cx="305.90386" cy="1223.08939" rx="14.03293" ry="14.02642"/>
    <ellipse class="j" cx="165.98563" cy="1222.95608" rx="13.88981" ry="13.88336"/>
    <ellipse class="j" cx="454.29231" cy="1223.09643" rx="13.71812" ry="13.71175"/>
    <ellipse class="j" cx="771.40701" cy="874.37445" rx="15.61121" ry="15.60397" transform="translate(-65.83698 62.81919) rotate(-4.47262)"/>
    <ellipse class="j" cx="835.92251" cy="889.56263" rx="15.39001" ry="15.38287" transform="translate(-66.82493 67.89654) rotate(-4.47262)"/>
    <ellipse class="j" cx="888.02094" cy="923.56294" rx="13.71812" ry="13.71175" transform="translate(-69.31772 72.06286) rotate(-4.47262)"/>
    <path class="j" d="M769.26037,1039.84373c19.66848-6.56774,23.37489,22.3589,4.00524,16.70598-6.70413-1.95656-10.80128-14.43663-4.00524-16.70598ZM781.54245,1053.07721c5.89607-5.8701-10.00346-15.07753-11.57919-6.72413-.92494,4.90333,9.64291,8.65188,11.57919,6.72413Z"/>
    <g>
      <path class="g" d="M828.42595,1004.52695c-.1453.2865-2.58669.88474-3.29729,2.33763-.30247.61843-1.18754,1.20749-1.51073,2.06168-4.97422,1.88554-5.32412-4.85701-8.91277-8.38542-12.02667-11.82479-30.51939-15.01497-43.07114-1.88736-1.51081,1.58013-1.22302,5.26277-3.00447,6.00748-3.82511,1.59904-10.49399.87826-14.82402,2.24065.53043-7.65756,6.63211-16.81785,5.33953-24.58343-8.26628,11.17034-12.28655,30.23246-13.32143,44.10591-9.48469-.40116-8.46533-10.92903-19.78304-9.73925,26.88284,24.38449,17.97915,36.41064,33.961,62.84191,1.96348,3.24727,6.07158,3.65655,6.19828,7.73521-8.38987,3.60182-12.01472-1.55029-18.64868-2.58398-2.33409,13.09828-10.28805,22.83736-18.34341,32.0574l-21.10402,8.7402c16.73855,5.05214,25.9805-7.17641,44.51377-5.60381,11.34778.96289,26.64948,9.79789,32.57812,19.29034-17.29896,12.43385-36.26491,24.62857-56.1152,8.50819-5.56309-4.51778-8.69457-13.8828-11.32559-15.90547-1.33935-1.02967-29.8832-11.95757-31.57036-12.05157-1.02277-.05698-3.01708.01714-2.54956,1.32838,12.5146,6.98752,17.94311,19.40922,23.22691,32.06327-19.79321.39026-39.53275,5.57851-53.83062-11.92023-4.03032-4.93259-7.566-15.92124-10.32089-18.34313-4.90791-4.31467-14.11739,1.94951-12.9705-7.17089,4.0402-.96879,8.53261-.88002,12.51466-1.94089-.16871-2.65893,1.29741-5.56818.33669-7.89815-1.51374-3.67114-14.17349-12.29646-17.05212-20.10104-2.10677-5.71191-1.94716-12.34714-3.22699-18.27624.96517-1.58531,19.84286,9.57115,21.03307,11.45039,2.44842,3.86585-.72844,12.98392,1.80355,17.914l3.16684-18.26432c2.74817-2.30666,16.95312-14.57387,19.46903-12.63886,5.52684,18.24728-10.33381,26.58504-17.8948,38.35748-3.35649,5.22605,1.8219,6.93723-7.63528,9.45675.08197,1.29192.13298,3.24631,1.72713,3.41826,7.63721-.91013,15.18414-2.78943,22.85693-3.46894,6.06091-.53676,8.87828,3.36979,18.13797-1.15246,5.79018-2.82781,3.45791-5.77022,5.97319-9.87171,13.37013-21.8017,23.74825-22.98368,48.85817-20.45719l-18.7167-16.59678c-10.46037-11.75976-15.32405-46.78488,4.94938-48.91612-3.15321-2.86017-5.90709-1.67515-6.56795-6.99325-1.31607-10.59079,9.07126-22.10254,17.88031-26.69731,5.30274-2.76589,20.31701-9.53819,21.79211-.6761,6.62978-8.95892,14.98832-15.00998,26.96053-11.9267,3.7591.9681,6.77996,5.45438,9.96257,5.86202,4.68039.59948,9.00184-1.91837,14.64123-.52145,10.20943,2.52896,23.21756,17.94828,17.71656,28.79489Z"/>
      <path class="g" d="M828.42595,1004.52695c11.60432-2.38543,17.04933,19.53727,15.10913,29.27696-3.70207,18.58419-14.44482,13.47873-29.9205,16.88115,2.33627-8.92108,5.82542-17.54258,8.11207-26.51095,1.22036-4.78634.09993-10.51336,1.89128-15.24785.65692-.24902,1.08619-1.86265,1.51073-2.06168,1.60688-.75333,3.09932-2.29694,3.29729-2.33763Z"/>
      <path class="g" d="M769.49482,1061.16613l19.58698,2.45704c14.14524-5.88298,30.03809-12.48301,45.67692-12.55119,5.97239-.02604,3.23335,9.09177,1.7838,12.45447-5.08693,11.80076-29.59009,27.27129-41.49983,29.8138-24.29132,5.18575-40.23471-31.57-44.77613-50.23935-2.52886-10.3959-2.664-31.80265,10.45092-34.86709,8.82725-2.06258,6.12219,6.41296,8.88859,12.79033,3.8382,8.84819,10.40105,19.54172,16.9998,26.52024l-2.81975-12.34559c11.12608,2.34706,20.07765,1.70138,30.62727-2.90207,3.60405,8.33353-12.75708,23.90171-19.0135,24.86809l-25.90507,4.00133Z"/>
      <path class="g" d="M780.82296,995.82496c31.70992-12.61267,56.21397,35.93764,16.47462,37.11755-25.7111.76339-34.62656-29.89758-16.47462-37.11755ZM787.97016,1007.38636c-5.95664,3.06733-.38877,14.01596,6.08615,14.86713,18.70742,2.45922,11.15299-23.74431-6.08615-14.86713Z"/>
      <path class="g" d="M645.89709,1030.89601c4.87791,10.7007,16.20797,17.0813,19.2555,28.80765l-16.72758,11.01273c-3.36021-2.77618,3.62206-21.75092-4.82272-19.36618.45223,5.41658.95454,11.84701.75763,17.22432-.05942,1.62276,1.26179,3.99948-2.17497,3.09941-.87774-.22987-15.45296-7.78018-16.0511-8.46214-3.11388-3.55025,1.462-9.8941,3.49013-13.36871,1.72494-2.95518,13.82809-20.21714,16.2731-18.94708Z"/>
      <path class="g" d="M584.09348,1096.88247c3.19547-.20621,38.24304,13.84314,36.62928,17.5648-4.30849,9.93628-51.39077-16.61221-36.62928-17.5648Z"/>
      <path class="g" d="M568.78918,1083.88331c5.89958-.35502,10.59656,9.7602,3.64587,10.46713-9.56631.97295-9.27858-10.12817-3.64587-10.46713Z"/>
      <path class="g" d="M801.20969,1017.8629c-1.51424,2.05793-11.81562.10221-11.66077-4.56124.26381-7.94473,16.2717-1.70526,11.66077,4.56124Z"/>
    </g>
    <path class="g" d="M480.72954,958.25048c.93766,1.34257.13638,6.59628.75052,9.04265,1.67068,6.65501,21.14484,9.82822,26.8923,7.44801,3.73409-1.5464,4.74928-13.33786,10.88065-9.21533,5.23639,3.52078-4.45967,10.09352-4.76224,14.7148-.42156,6.43848,7.60416,25.06072,14.12313,27.51348,3.5911,1.35115,11.31085-1.41174,12.40899,1.99346,1.9216,5.95868-8.58648,4.96261-11.34148,7.17036-5.67154,4.54497-12.30469,29.99477-8.78866,36.55381,1.1252,2.09902,8.14029,5.61543,5.59587,9.63567-3.48543,5.50703-9.27211-3.9884-12.78979-4.24451-9.35074-.68081-26.57678,12.16725-24.60174,23.55218.25275,1.45694-.72766,2.83125-2.20356,2.92231l-.04527.00279c-1.47319.09089-2.62302-1.14925-2.54346-2.6231.63044-11.67919-18.11515-20.11126-26.92039-16.4264-3.65326,1.52884-4.55687,13.47797-10.41003,7.31289-3.6121-3.80459,3.91211-7.66622,4.37478-11.5372.7802-6.52767-6.92567-27.5869-14.63118-26.99836-2.82005.21539-7.30037,3.8511-7.10459-2.59096.13492-4.43954,4.84724-2.79604,7.63936-3.82342,5.78728-2.12947,11.40386-25.94373,10.08943-31.90203-.87301-3.95732-7.73168-5.50894-6.22997-8.9826,2.77953-6.42943,8.27795,1.76563,11.07765,1.56192,5.18418-.3772,19.70476-12.57345,21.48147-17.22333,1.58034-4.13597-2.57425-14.29258,3.84169-14.82276.47015-.03885,2.37832-.23452,3.21653.96565ZM503.63345,981.5833c-7.63833,1.37996-13.53955-1.18727-20.52306-3.4518-.50576-.164-1.047.1876-1.08111.71819-.55993,8.70912,1.68571,24.16607,13.62318,17.33566.82585-.47254,7.27422-10.30192,8.74175-13.6898.21428-.49468-.23025-1.00809-.76075-.91224ZM474.83964,981.58907l-16.7077,12.51434c-.58137.43546-.72403,1.24778-.31194,1.84594,2.46474,3.57755,7.14693,8.46748,10.97684,6.96765,10.33738-4.04823,8.1434-11.83429,7.39017-20.7278-.05579-.65876-.81823-.99646-1.34738-.60013ZM507.70525,988.56847c-.31643.27824-.60287.58525-.85795.92064-3.73886,4.91596-7.79233,10.39249-5.72092,16.30607,4.11191,11.73891,9.64228,6.94148,18.78632,5.68809.67493-.09251,1.04728-.82817.69468-1.41105l-4.72928-7.81791c-2.63835-4.36141-4.72706-9.55317-5.89313-14.56755-.09894-.42547-.60596-.59003-.934-.30158l-1.34572,1.18331ZM446.71493,1027.07823c3.3961-1.47563,8.56762-1.25193,11.45124-3.29631,2.83326-2.00868,5.90634-11.7408,4.17392-14.97375-.30043-.56065-7.50108-6.64091-7.90784-6.97655-1.41681-1.16912-2.00958,1.49782-2.24029,2.92688-1.30649,8.09265-2.20887,14.61154-5.47704,22.31974ZM486.68261,1012.21549c.31338-.30115,3.57978-6.9897,3.17843-8.08877-.38032-1.04148-3.09236-2.47272-4.85318-2.90678-.71726-.17681-1.4028.35836-1.37496,1.09657.13494,3.57783-.0625,12.88969,3.04972,9.89898ZM475.56359,1003.62497l-4.38812,3.06741c-.70793.28684-.99905,1.12975-.61845,1.792,1.19524,2.07978,4.86491,5.30389,5.74332,5.60984,2.79005.97178,1.33821-6.26579.98077-9.44702-.09294-.82714-.9461-1.3348-1.71752-1.02223ZM496.65652,1008.33126c-.15013-.58999-.8756-.79788-1.31835-.38002-.64586.60956-1.43869,1.37675-1.70292,1.71261-.61881.78656-3.17872,3.98426-4.03446,5.92219-.29231.66198.20643,1.39732.9287,1.35285l6.66662-.41043c.55206-.03399.96332-.52228.89017-1.07053-.23152-1.73501-.9523-5.25028-1.42976-7.12667ZM467.63828,1022.20763c11.66498.24961,4.57229-5.86569.9999-7.34367-.78282-.32387-1.65235.20965-1.74044,1.05223l-.51049,4.88266c-.07754.74168.50548,1.39283,1.25103,1.40878ZM521.34344,1019.12729c.27053-.69331-.3298-1.42229-1.05647-1.26163-8.45688,1.86971-14.43123-.45436-16.5527,9.9824-2.36316,11.62574,1.46194,11.70732,9.27255,18.68768,1.29192-4.84297,1.40217-10.18142,2.81398-15.01288.50437-1.72603,4.22787-9.07733,5.52265-12.39556ZM498.18167,1021.62281l-7.33987,1.38267c-.77842.14664-1.21749.98076-.88989,1.70195.84517,1.8606,3.45257,4.72387,5.06474,6.07986.44825.37702,1.13833.17742,1.33886-.3729l2.78975-7.6563c.22737-.62399-.31095-1.25822-.9636-1.13527ZM475.18664,1026.57281l-8.56807,1.77018,1.62865,6.08561c1.58162,1.24218,8.40543-6.68788,6.93942-7.85579ZM458.23946,1053.62757c.50389-.48511,6.64732-11.38033,6.7093-12.27303.84093-12.11172-9.69924-13.49572-17.82466-7.45406,5.1327,5.68654,5.89094,13.25625,8.63896,19.15457.57288,1.22963,2.14997.88679,2.4764.57252ZM480.43191,1031.20677c-3.14019-.51019-6.64931,7.9604-5.63933,9.00398l6.24591.86218-.60658-9.86617ZM491.82258,1037.77124c1.58985-3.12351-5.38795-8.2363-6.43699-6.87017l.60833,9.8645c.50164.49429,5.68007-2.70242,5.82866-2.99433ZM509.05656,1052.9686c-12.5092-20.03535-25.19479-10.17372-20.38091,11.17842.69155.70361,9.61662-6.9334,11.438-7.97729,2.75142-1.57693,5.75872-2.83852,8.94291-3.20112ZM482.56288,1065.76328c-1.00392-4.13747.47086-14.17841-1.66513-17.25365-1.37221-1.97561-9.5277-4.2177-11.72429-2.73597-.66637.4495-6.30974,12.10624-8.05938,13.87052,3.77265-.34682,7.5888.13989,11.19951,1.21467,4.20875,1.2528,6.30727,4.15414,10.24929,4.90443Z"/>
    <g>
      <g>
        <ellipse class="d" cx="147.35784" cy="698.1841" rx="84.8574" ry="84.81814"/>
        <path class="f" d="M147.35813,786.43374c-48.6836,0-88.28938-39.58902-88.28938-88.24984s39.60577-88.24917,88.28938-88.24917,88.28804,39.58835,88.28804,88.24917-39.60577,88.24984-88.28804,88.24984ZM147.35813,616.79705c-44.89861,0-81.42706,36.50969-81.42706,81.38685s36.52845,81.38752,81.42706,81.38752,81.42572-36.51036,81.42572-81.38752-36.52711-81.38685-81.42572-81.38685Z"/>
      </g>
      <g>
        <path class="f" d="M199.77152,695.43302c-15.54246,13.5009-40.70307,48.13525-60.10005,21.73089,8.16329-21.88773,41.4265-14.91733,45.76984-38.31973.60671-4.92192-1.19853-11.07167,6.37999-10.24548,10.84181,3.19039,20.24825,19.1444,7.95021,26.83432Z"/>
        <path class="f" d="M192.51334,732.05598c-20.33781,38.42597-39.12783,2.59829-66.36312,14.55252-.11849.05201-.24675.08689-.37553.09951-14.6842,1.4393-23.51981-9.81551-28.5536-21.92921-.12096-.29108-.3486-.51839-.63578-.64832-10.93331-4.94697-22.82575-25.44713-8.32546-31.7436.58301-.25316,1.26015-.00191,1.56382.55646,8.29539,15.25285,19.58391,19.93448,36.05727,24.4647.03652.01004.0729.0214.10855.03421,7.01388,2.52051,13.16146,11.25502,23.84136,13.34222,22.68037,4.4325,37.68561-9.83599,48.64554-25.71036,2.99756-4.34166,9.69807-3.13985,10.97044,1.98036,1.63066,6.56197-1.03426,16.53811-6.09805,19.30738-3.16862,2.3156-7.62871,2.76244-10.56295,5.34315-.11132.09791-.20314.21996-.27248.35098Z"/>
        <path class="f" d="M157.79058,647.32145c-43.27855-7.66957-51.89612,18.45156-36.36129,51.16997-22.67811-10.54697-.90552-35.43839-18.65905-33.34419-13.24888,3.75935-10.06455,20.70747-6.4802,26.51377,13.54742,21.9455,25.58356,15.38401,38.04397,23.88459,10.48446-15.56713,4.83341-16.75897-5.52379-28.94515-15.43476-26.87659,46.42519-36.84221,34.55409-8.25679-6.10479,6.31684-13.93643-1.59035-20.2988,4.17568.35485-12.96397,13.9573-2.93725,16.32385-10.14454-5.0301-12.50451-33.45852-2.81858-24.6147,10.86678,4.9725,7.69469,12.42423,17.85814,22.07549,9.44344,30.95417-5.69956,31.74405-38.83657.94044-45.36356Z"/>
      </g>
    </g>
    <g>
      <g>
        <g>
          <path class="i" d="M240.94617,629.12219v-3.15414c0-14.16788-11.48539-25.6532-25.65325-25.65321h-3.15396c-14.16786,0-25.65326,11.48531-25.65326,25.65317v3.15417c0,7.42463,3.15764,14.10882,8.19923,18.79321,1.63387-6.20944,3.14046-11.03362,4.08141-11.99797,3.05164-3.12797,10.14642-2.78442,10.14642-2.78442l.58528-1.15751c-3.50431-1.6064-5.95102-5.12378-5.95102-9.23074,0-5.61771,4.55434-10.17192,10.1722-10.17192,5.61787,0,10.17199,4.55421,10.17199,10.17192,0,4.10913-2.44897,7.62841-5.95594,9.23342l.58385,1.15483s7.09478-.34354,10.14641,2.78443c.94095.96436,2.44753,5.78854,4.0814,11.99798,5.04159-4.68438,8.19924-11.36857,8.19924-18.7932Z"/>
          <path d="M194.68536,649.28786c-.34178,0-.67685-.128-.93419-.36724-5.48986-5.09983-8.63821-12.31599-8.63821-19.7982v-3.15439c0-14.90209,12.12433-27.02575,27.02575-27.02575h3.15372c14.90142,0,27.02575,12.12366,27.02575,27.02575v3.15439c0,7.48154-3.14836,14.6977-8.63687,19.7982-.35384.32837-.85109.44565-1.31617.31296-.46374-.1347-.82294-.50261-.94491-.96903-2.50367-9.51343-3.49415-11.12379-3.73943-11.39051-2.14582-2.20144-7.2939-2.46011-9.09525-2.36964-.56561.01608-1.04811-.2694-1.29205-.75258l-.58303-1.15534c-.16888-.33306-.193-.72041-.0697-1.07224.12331-.3525.38467-.63865.72376-.79413,3.13093-1.43345,5.15478-4.5684,5.15478-7.98549,0-4.85187-3.94717-8.79905-8.80039-8.79905-4.85187,0-8.79905,3.94717-8.79905,8.79905,0,3.41575,2.02117,6.54936,5.15076,7.98281.3391.15547.60045.4423.72376.7948s.0965.73917-.07104,1.07224l-.58571,1.15802c-.24393.48318-.74789.77-1.29071.75191-1.796-.08779-6.95748.17692-9.09794,2.37166-.24259.26471-1.23307,1.87508-3.73675,11.3885-.12197.46642-.48117.83433-.94491.96903-.12599.03619-.25466.05428-.38198.05428ZM212.1387,601.68721c-13.38823,0-24.28082,10.89259-24.28082,24.28082v3.15439c0,5.93953,2.20881,11.69208,6.12516,16.11238,2.12437-7.75496,3.11485-9.57173,3.80108-10.27539,2.26644-2.3234,6.26321-2.98015,8.81915-3.15305-2.75029-2.15989-4.42834-5.49254-4.42834-9.06175,0-6.36507,5.17891-11.54398,11.54398-11.54398,6.36641,0,11.54532,5.17891,11.54532,11.54398,0,3.56921-1.67805,6.90186-4.42968,9.06242,2.55729.17357,6.54869.83098,8.81379,3.15238.68623.70366,1.67671,2.51976,3.80108,10.27472,3.91501-4.4203,6.12382-10.17352,6.12382-16.11171v-3.15439c0-13.38823-10.89259-24.28082-24.28082-24.28082h-3.15372Z"/>
        </g>
        <g>
          <path class="f" d="M232.06502,650.26534l-.53412-2.03006c-2.52489-9.59613-3.52068-11.18252-3.76564-11.44017-2.17884-2.23327-7.36879-2.49378-9.18541-2.4062l-.81468.0395-1.54178-3.04939,1.18857-.54415c3.17217-1.45174,5.22188-4.62739,5.22188-8.09016,0-4.91553-3.99914-8.91467-8.91467-8.91467-4.91573,0-8.91487,3.99914-8.91487,8.91467,0,3.46011,2.04807,6.63494,5.21758,8.08791l1.18775.54435-1.54301,3.05143-.81468-.0395c-1.81948-.08554-7.01456.18131-9.18562,2.4064-.24475.25744-1.24055,1.84384-3.76544,11.43996l-.53412,2.03006-1.53769-1.42882c-5.46581-5.07884-8.60074-12.26427-8.60074-19.7143v-3.15417c0-14.83847,12.07211-26.91058,26.91059-26.91058h3.15396c14.83847,0,26.91058,12.07211,26.91058,26.91059v3.15417c0,7.45004-3.13493,14.63547-8.60075,19.7143l-1.53769,1.42882ZM212.13892,601.57213c-13.45202,0-24.39593,10.9439-24.39593,24.39592v3.15417c0,6.0382,2.27215,11.88527,6.29543,16.34711,2.1727-7.95407,3.18466-9.77069,3.82806-10.43005,2.33416-2.39269,6.53569-2.99823,9.05137-3.13738-2.86787-2.13054-4.62821-5.52046-4.62821-9.15717,0-6.30219,5.12734-11.42932,11.42953-11.42932,6.30219,0,11.42932,5.12713,11.42932,11.42933,0,3.63794-1.75973,7.02724-4.62801,9.15737,2.5165.13998,6.7125.74654,9.04502,3.13739.64319.65916,1.65515,2.47577,3.82785,10.42985,4.02329-4.46183,6.29544-10.3089,6.29544-16.3471v-3.15417c0-13.45202-10.9439-24.39593-24.39592-24.39593h-3.15396Z"/>
          <path d="M195.36623,651.63807c-.34178,0-.67685-.128-.93419-.36724l-1.53732-1.42876c-5.74451-5.33773-9.03896-12.88964-9.03896-20.71965v-3.15439c0-15.59502,12.68725-28.28295,28.28295-28.28295h3.15372c15.59569,0,28.28295,12.68792,28.28295,28.28295v3.15439c0,7.83001-3.29445,15.38192-9.03896,20.71965l-1.53732,1.42876c-.35384.32837-.85243.44632-1.31617.31296-.46374-.1347-.82294-.50261-.94491-.9697l-.53344-2.03055c-2.44872-9.30166-3.38023-10.75923-3.47807-10.8946-1.62444-1.65728-6.1533-2.01715-8.08065-1.92869l-.81356.03954c-.56829.01407-1.04811-.26873-1.29205-.75191l-1.54134-3.04985c-.16754-.33306-.193-.72041-.07104-1.07224.12331-.3525.38467-.63932.72376-.7948l1.1875-.54416c2.68595-1.22905,4.42164-3.91434,4.42164-6.84222,0-4.15827-3.38291-7.54185-7.54185-7.54185s-7.54185,3.38358-7.54185,7.54185c0,2.9252,1.73434,5.61048,4.41762,6.84021l1.1875.54416c.3391.15547.60045.4423.72376.7948.12197.35183.0965.73917-.07104,1.07224l-1.54268,3.05186c-.24393.48318-.71304.76799-1.29205.75191l-.8149-.03954c-1.92065-.09181-6.46023.27543-8.13694,1.99369-.04021.07037-.97306,1.52928-3.42044,10.83027l-.53478,2.03122c-.12197.46642-.48117.83366-.94491.96836-.12599.03619-.25466.05428-.38198.05428ZM193.72034,646.80429c.29218.30559.59375.6038.90202.89532.1099-.41348.21579-.81222.31899-1.19756-.16486.14475-.36456.24997-.58571.30224-.21311.05093-.43024.04892-.6353,0ZM232.49111,646.50339c.1032.384.20909.78273.31899,1.19554.30827-.29084.60849-.58973.90068-.89465-.20507.04892-.42219.05093-.6353,0-.21981-.05227-.41951-.15681-.58437-.3009ZM223.5835,630.8695c2.50636.44364,5.16148,1.36442,6.96418,3.21135.69293.71103,1.58557,2.03993,3.44724,8.45727,2.80122-3.9016,4.32112-8.57924,4.32112-13.4157v-3.15439c0-12.69529-10.32833-23.02362-23.02362-23.02362h-3.15372c-12.69529,0-23.02362,10.32833-23.02362,23.02362v3.15439c0,4.83512,1.5199,9.51276,4.32112,13.4157,1.86167-6.41667,2.75431-7.74625,3.44724-8.45727,1.80538-1.84961,4.46319-2.76972,6.97088-3.21269-1.87239-2.27113-2.93659-5.14875-2.93659-8.12354,0-7.05867,5.74317-12.80185,12.80118-12.80185,7.05934,0,12.80252,5.74317,12.80252,12.80185,0,2.97613-1.0642,5.85375-2.93793,8.12488ZM208.19287,631.3949c.11258.28146.13135.59844.04021.90202-.0898.29822-.27476.54885-.51601.72175.56158-.01675.96769-.00804,1.12719-.00335l.49725-.98579c-.39807-.18831-.78139-.40075-1.14863-.63463ZM219.08948,633.00861c.17692,0,.38869.00201.63128.00871-.24125-.1729-.42487-.42286-.51467-.72041-.09114-.30358-.07238-.62123.04021-.90269-.36858.23522-.75325.44833-1.154.63798l.49591.98311c.09248-.00268.26404-.0067.50127-.0067Z"/>
        </g>
      </g>
      <g>
        <path class="b" d="M218.51911,633.13299l-.58385-1.15483c3.50697-1.60502,5.95594-5.12429,5.95594-9.23342,0-5.61771-4.55413-10.17192-10.17199-10.17192-5.61787,0-10.1722,4.5542-10.1722,10.17192,0,4.10696,2.44671,7.62434,5.95102,9.23074l-.58528,1.15751s-7.09478-.34355-10.14642,2.78442c-.94095.96436-2.44753,5.78854-4.08141,11.99797,4.57869,4.25446,10.71061,6.86,17.45402,6.86h3.15396c6.7434,0,12.87533-2.60554,17.45402-6.85999-1.63387-6.20944-3.14045-11.03362-4.0814-11.99798-3.05164-3.12797-10.14641-2.78443-10.14641-2.78443Z"/>
        <g>
          <path class="f" d="M215.29287,655.82324h-3.15396c-6.75977,0-13.21176-2.53574-18.1672-7.14021-.28302-.26297-.39844-.66059-.30001-1.03427,2.55784-9.72157,3.66557-11.76719,4.34478-12.46318,2.48908-2.55149,7.17029-3.02974,9.52594-3.10157-3.10955-2.05748-5.04323-5.56261-5.04323-9.3393,0-6.18657,5.0332-11.21977,11.21998-11.21977,6.18657,0,11.21977,5.0332,11.21977,11.21977,0,3.77751-1.93327,7.28223-5.04282,9.33951,2.3581.07265,7.03256.55254,9.51939,3.10157.67901.69579,1.78674,2.7414,4.34457,12.46298.09843.37368-.01699.7713-.30001,1.03427-4.95544,4.60447-11.40743,7.1402-18.1672,7.1402ZM195.86077,647.56712c4.50174,3.97745,10.25753,6.16058,16.27814,6.16058h3.15396c6.0206,0,11.7764-2.18313,16.27814-6.16057-2.4285-9.13466-3.40915-10.6656-3.65533-10.91792-2.68308-2.75041-9.27975-2.47209-9.34667-2.46964-.41113.01944-.79852-.20505-.98495-.57382l-.58385-1.1548c-.12872-.25437-.14816-.54988-.05382-.81898.09414-.2689.29366-.48787.55274-.60656,3.24646-1.48571,5.34426-4.73606,5.34426-8.28068,0-5.03115-4.09307-9.12422-9.12422-9.12422-5.03115,0-9.12443,4.09307-9.12443,9.12422,0,3.54196,2.09595,6.79129,5.33996,8.27843.25887.11869.4584.33766.55233.60656s.07449.56441-.05403.81857l-.58528,1.15746c-.18643.36877-.57525.59633-.98495.57382-.06692-.00246-6.66359-.28057-9.34646,2.46943-.24639.25253-1.22704,1.78347-3.65554,10.91812Z"/>
          <path d="M215.29242,657.19561h-3.15372c-7.10759,0-13.89084-2.66652-19.10057-7.50767-.65675-.60648-.92212-1.52392-.69293-2.39109,2.74627-10.43756,3.86006-12.21882,4.68702-13.06924,1.87508-1.92199,4.72455-2.80993,7.21482-3.21135-1.99034-2.2651-3.12021-5.18829-3.12021-8.27164,0-6.94341,5.64935-12.59209,12.59209-12.59209s12.59209,5.64868,12.59209,12.59209c0,3.08469-1.12853,6.00788-3.11887,8.27298,2.48759.40209,5.33304,1.28937,7.20544,3.21001.82696.8464,1.94075,2.62564,4.6897,13.07192.22651.8665-.03887,1.78125-.69293,2.38908-5.20973,4.84048-11.99298,7.507-19.10191,7.507ZM197.41018,647.08441c4.14822,3.40502,9.34455,5.27072,14.72852,5.27072h3.15372c5.38397,0,10.58164-1.86569,14.72986-5.27072-2.18334-8.08467-3.04247-9.40218-3.13629-9.52884-1.71156-1.75244-6.14794-2.08282-8.26025-2.00508-.94089.04691-1.83621-.47514-2.26644-1.32555l-.58437-1.154c-.29487-.58437-.34044-1.27328-.12465-1.89116.21579-.61721.68087-1.12853,1.27596-1.40195,2.76101-1.26323,4.54495-4.02357,4.54495-7.03321,0-4.27421-3.47807-7.75161-7.75228-7.75161s-7.75228,3.4774-7.75228,7.75161c0,3.00696,1.78259,5.76663,4.54093,7.03053.59509.27342,1.06017.78407,1.27596,1.40195.21579.61855.16888,1.30813-.12733,1.89183l-.58303,1.15534c-.43426.85846-1.33226,1.39123-2.28655,1.32555-2.0855-.08109-6.52859.25399-8.2884,2.05736-.04691.07439-.9047,1.3919-3.08804,9.47724ZM218.51182,632.80824h-.0067.0067ZM208.89787,632.80757h.00938-.00938ZM218.37511,632.12804l.34044.67417c.00402,0,.0067,0,.01072-.00067-.06433-.10454-.11527-.21914-.15011-.34178-.03887-.13537-.05495-.27208-.05227-.40745-.04959.02547-.09918.05093-.14877.07573ZM208.71291,632.80154h.00402l.02413-.04825-.02815.04825ZM208.91529,632.05231c.00268.1347-.0134.27208-.05227.40678-.01876.06634-.04289.13068-.07104.19233l.26672-.52674c-.04825-.02346-.0965-.04825-.14341-.07238Z"/>
        </g>
      </g>
    </g>
  </g>
  <g>
    <rect x="79.91446" y="501.64156" width="17.03626" height="54.5746"/>
    <path d="M88.40184,474.60029c-3.03181,0-5.63289,1.00411-7.80385,3.01088-2.17157,2.00823-3.25672,4.44554-3.25672,7.31241,0,2.82685,1.08515,5.2539,3.25672,7.28166,2.17096,2.02775,4.77204,3.04163,7.80385,3.04163,3.07238,0,5.69372-1.00265,7.8653-3.01088,2.17096-2.00676,3.25672-4.42455,3.25672-7.25091,0-2.90788-1.08576-5.36569-3.25672-7.37392-2.17157-2.00677-4.79291-3.01088-7.8653-3.01088Z"/>
    <path d="M150.73453,503.49651c-2.83124-1.69191-6.15063-2.53835-9.95816-2.53835-4.81653,0-8.64847,1.3258-11.49582,3.97838-2.40497,2.2401-4.26358,5.08501-5.58889,8.51959l-.29325-11.81457h-16.01115v54.5746h17.03626v-31.14365c0-2.14784.39052-3.96959,1.17155-5.46722.78103-1.49665,1.87936-2.64379,3.29498-3.44142,1.41562-.79763,3.03431-1.19595,4.85704-1.19595,2.79853,0,4.97908.87085,6.54114,2.61157,1.56206,1.74072,2.3431,4.14142,2.3431,7.20014v31.43654h17.03626v-34.75592c0-4.10042-.78103-7.69609-2.34309-10.788-1.56207-3.09093-3.75872-5.48284-6.58996-7.17573h0Z"/>
    <polygon points="222.76227 501.64156 203.38291 501.64156 187.76227 521.36262 186.98124 521.36262 186.98124 483.48257 169.94498 483.48257 169.94498 556.21616 186.98124 556.21616 186.98124 539.72028 190.58002 535.38751 203.87106 556.21616 223.5433 556.21616 203.27576 525.44937 222.76227 501.64156"/>
    <rect x="228.27586" y="483.48257" width="17.03626" height="72.73359"/>
    <path d="M299.12229,508.10948c-2.3597-2.35969-5.14211-4.14045-8.34728-5.34519-3.20517-1.20376-6.72859-1.80614-10.56834-1.80614-5.46722,0-10.21882,1.17936-14.25383,3.53905-4.03549,2.35969-7.15133,5.65467-9.34797,9.88494-2.19664,4.23124-3.29499,9.14491-3.29499,14.74198,0,5.82552,1.09832,10.83682,3.29499,15.03487,2.19664,4.19805,5.36129,7.42761,9.49441,9.68967,4.13264,2.26207,9.04728,3.39261,14.74197,3.39261,4.42552,0,8.33947-.63459,11.73988-1.90377,3.40041-1.26917,6.21604-3.0675,8.44491-5.394s3.79972-5.0523,4.7106-8.17643l-15.1813-2.48954c-.45593,1.20474-1.13055,2.22985-2.02579,3.07531-.89526.84645-1.96917,1.48103-3.22175,1.90376-1.25258.42371-2.64379.63459-4.17363.63459-2.21324,0-4.14924-.46374-5.80892-1.39121-1.6597-.92748-2.95328-2.3265-3.88076-4.19805-.83747-1.68996-1.27619-3.77775-1.35747-6.22385h36.43069v-4.29568c0-4.52315-.64239-8.50934-1.92818-11.95955-1.28577-3.44923-3.10754-6.3537-5.46722-8.71339h-.00002ZM274.73945,514.79707c1.52984-.99288,3.40041-1.48884,5.61367-1.48884s4.0682.48814,5.56485,1.46444c1.49665.97629,2.62818,2.37629,3.39262,4.19805.51645,1.23159.84369,2.63989,1.01138,4.19805h-20.15556c.16506-1.55523.51877-2.96792,1.08282-4.22245.79763-1.77392,1.96039-3.15634,3.49023-4.14923h-.00002Z"/>
    <path d="M365.23956,528.78242c0-4.52315-.64239-8.50934-1.92818-11.95955-1.28577-3.44923-3.10754-6.3537-5.46722-8.71339-2.3597-2.35969-5.14211-4.14045-8.34728-5.34519-3.20517-1.20376-6.72859-1.80614-10.56834-1.80614-5.46722,0-10.21882,1.17936-14.25383,3.53905-4.03501,2.35969-7.15133,5.65467-9.34797,9.88494-2.19664,4.23124-3.29499,9.14491-3.29499,14.74198,0,5.82552,1.09832,10.83682,3.29499,15.03486,2.19664,4.19805,5.36179,7.42761,9.49441,9.68967,4.13264,2.26207,9.04728,3.39261,14.74197,3.39261,4.42552,0,8.33947-.63459,11.73988-1.90377,3.40041-1.26917,6.21604-3.0675,8.44491-5.394,2.22887-2.3265,3.79972-5.0523,4.7106-8.17643l-15.1813-2.48954c-.45593,1.20474-1.13055,2.22985-2.02579,3.07531-.89526.84645-1.96917,1.48103-3.22175,1.90376-1.25258.42371-2.64379.63459-4.17363.63459-2.21324,0-4.14924-.46374-5.80892-1.39121-1.6597-.92748-2.95328-2.3265-3.88076-4.19805-.83741-1.68996-1.27625-3.77775-1.35752-6.22385h36.43075v-4.29568h-.00002ZM333.46132,514.79707c1.52984-.99288,3.40041-1.48884,5.61367-1.48884s4.0682.48814,5.56485,1.46444,2.62818,2.37629,3.39262,4.19805c.51645,1.23159.84376,2.63989,1.01144,4.19805h-20.15563c.16511-1.55523.51877-2.96792,1.08282-4.22245.79763-1.77392,1.96039-3.15634,3.49023-4.14923h0Z"/>
  </g>
  <g>
    <path class="b" d="M157.92953,1071.84533c-14.21022-26.32765-42.95578-41.43216-72.71005-38.20588-29.75427,3.22606-54.59081,24.14028-62.82265,52.90146-8.23184,28.76076,1.78097,59.64028,25.3259,78.10745,31.43602,24.65582,76.81162,19.73597,102.22703-11.08444,19.03549-23.08385,22.19041-55.39094,7.97976-81.71859Z"/>
    <path class="g" d="M127.04214,1068.86444c1.78957-1.49129,3.10621-1.4728,5.00318-.37016.73965.42993,11.07678,10.79953,11.42124,11.53428.62451,1.33213.81281,2.46641,0,3.77683l-60.61304,61.56316-1.4116.4791c-2.47881.00504-31.22168-30.53226-34.8594-34.84322-.00465-2.21475,11.79783-12.66382,14.82128-13.86354,2.42174-.01407,16.71225,16.65465,20.03812,19.09153l45.60022-47.36798Z"/>
  </g>
</svg>