<?xml version="1.0" encoding="UTF-8"?>
<svg id="a" data-name="Layer 1" xmlns="http://www.w3.org/2000/svg" viewBox="0 0 818.04165 1356.08412">
  <defs>
    <style>
      .b {
        fill: #cf2e2c;
      }
    </style>
  </defs>
  <path class="b" d="M51.48038,121.04862c13.24909-.77155-25.81451-26.85994-31.7437-25.86359-3.01152-.36563-10.43308,1.33681-10.80394.94122-1.44812-1.54467-1.12857-14.30115,5.76909-15.50183,14.60927-9.16647,66.37606,42.70492,47.56916,10.42603-14.56506-27.80909-52.13537-30.1457-36.10052-41.51802,16.01155-10.97667,34.49976,17.3205,46.61644,25.80155,27.3609,23.64917-26.95625-55.11635-12.48683-54.99316,22.93493-7.3574,22.70348,36.54622,37.8752,47.74993,2.928-18.01844-3.01161-40.23837-9.36551-56.49795,25.97092-15.63213,18.22738,37.34111,30.6575,48.19537,8.6576-16.35452,9.68857-36.28289,4.66624-53.9736,31.63578-10.0503,6.40855,60.35104,20.37426,51.00591,7.93287-12.06561,15.77342-34.06748,18.03892-47.90837,1.48207-1.06966,10.73056,3.51725,11.89641,6.25774,4.14453,9.74231-13.95155,38.77649-10.85942,50.8517,11.07288-4.32805,31.76469-58.31313,37.9573-31.15618-11.084,25.63318-46.56052,60.73401,5.95099,23.6962,7.6779-4.90554,17.29901-22.24123,21.28392-6.33413,6.81336,9.02323-53.36956,45.21414-30.98053,41.28481,9.91351-3.78941,36.28274-18.84314,46.01479-15.86508,21.86209,25.30596-38.37848,22.12681-48.05412,40.81414,13.62279,1.88041,44.56394-9.08769,56.379-1.64643,17.73246,27.41533-56.52028,11.10854-42.90167,25.52043,7.67779,3.94833,36.64545,7.77694,39.98286,15.08077,6.62506,31.38091-69.95271-14.47331-50.5833,8.2848,9.38396,11.74718,47.05367,19.92406,30.12586,39.22722-13.02708.379-28.21627-17.88665-40.98239-23.47327-9.33132-4.7815-7.52624-.25887-4.00405,7.11877,4.64865,12.74515,42.87832,45.94877,14.52894,48.82931-.0016-.00215-35.75543-46.79192-35.75543-46.79192-3.40642,8.7191,18.42796,57.63978,16.57682,60.16421-23.19255,17.25593-20.34447-22.81519-29.30895-38.61727-11.08552-29.63554-8.12449-3.01329-9.12643,8.09154-1.3532,12.62367,13.11604,46.34197-10.38337,39.4619-6.95629-8.45406-.28322-58.63259-9.26102-65.97917-4.5495,3.84759-15.36491,54.24966-17.77632,63.21377-14.26446,1.01266-13.54893-1.86917-12.20964-13.76654,20.00711-83.81013,3.14212-59.09142-30.24807-4.24153-32.78194-3.80349,23.34191-54.44275,22.83184-64.93915-4.48472-2.31252-77.76491,68.35133-56.0471,21.27195,13.68517-15.03338,37.16316-26.26666,49.30745-42.04439-22.2449,7.18307-46.73766,23.57275-70.42035,19.82936-12.07144-23.01869,41.39952-25.2898,54.59421-34.62184,8.14897-7.50033-25.36074-2.68169-30.35037-3.88922-10.54757-4.71329-39.65352,8.00661-28.03023-12.98191,13.34604-3.27589,34.88767,3.2141,48.78608-.51409Z"/>
  <path class="b" d="M279.8168,88.86316c13.15085-69.14141,181.19841-68.62494,226.68737-38.33416,9.31083,14.41794,19.96681,49.31871-6.00377,44.63783-62.02876-9.32999-150.22794,2.40371-220.6836-6.30367Z"/>
  <path class="b" d="M364.92401,172.96064c20.89075-1.24147,17.78743,3.55998,17.64269,21.80484-3.04413,13.57342,1.83406,27.28117-1.03937,41.52757.20093,68.03845,4.85851,68.29484-62.26788,64.35557,5.13298-19.13645,23.58504-130.7479,45.66456-127.68798Z"/>
  <path class="b" d="M331.71144,326.62024c17.53747,2.63771,37.80684,1.7553,56.05207,3.11149.08869,16.61422,6.38033,55.85921-17.87829,61.54802-20.10964,6.83449-56.68515,1.95141-52.70284-26.24587.27736-15.17114-8.80458-44.9703,14.52907-38.41363Z"/>
  <path class="b" d="M501.92586,296.51127c-18.44798,68.55698-61.23046,158.39698-146.3516,148.47182-10.24952-35.64413,59.61315-13.83907,88.22643-58.1514,16.25254-8.26345,64.49628-130.68709,58.12517-90.32041Z"/>
  <path class="b" d="M456.25858,183.34305c31.15449,28.29614-27.09471,67.58629-41.51894,29.06933-8.79212-24.43738,21.88346-45.90392,41.51894-29.06933Z"/>
  <path class="b" d="M314.06726,184.38129c9.63906,27.03035-23.00486,43.188-43.59288,26.99164-4.79516-6.11276-2.55991-23.9936-1.85854-30.40894,9.97837-14.3449,39.05448-15.57325,45.45142,3.4173Z"/>
  <path class="b" d="M162.53491,746.06941c-27.16137-6.42212-1.99237-44.6052,13.55472-25.49686,8.17701,9.66621-.32269,26.46752-13.55472,25.49686Z"/>
  <path class="b" d="M69.12456,816.66976c20.66199,7.58049,19.53158,35.34891,20.31115,53.99134-13.20263,5.81472-34.41708,7.54353-47.34401.36673-1.54647-16.63736,6.78847-53.50018,27.03286-54.35807Z"/>
  <path class="b" d="M56.66984,990.05593c28.2235-8.48045,27.41759,33.35181,22.59744,50.63497-6.90254,4.07388-38.37392,6.01449-45.41711,2.30545-.66197-18.24586,8.26411-41.30655,22.81967-52.94042Z"/>
  <path class="b" d="M39.02567,942.29686c17.70362-65.36381,45.11356-43.22179,45.51087,11.71884-8.79954,9.04087-55.49434,13.49603-45.51087-11.71884Z"/>
  <path class="b" d="M145.92863,819.78448c26.12548,36.62459,15.7832,67.00882-33.1032,48.68837-1.09805-16.4392,9.65127-66.65093,33.1032-48.68837Z"/>
  <path class="b" d="M153.19388,940.22038c4.78512,14.69082-5.27327,16.61648-17.6466,17.64947-8.70943-.38876-33.43674,3.58603-29.05746-11.41983,7.19961-48.2953,36.68888-65.89568,46.70406-6.22964Z"/>
  <path class="b" d="M142.81495,987.97944c24.008,45.18234,19.74679,58.45672-33.21217,50.87155-1.57989-18.91984,5.8057-60.98806,33.21217-50.87155Z"/>
  <path class="b" d="M648.26875,263.28757c25.3964-22.48734,33.8785-59.10641,24.79613-92.80919-13.99157-39.15285-73.80951-15.68743-102.14445-19.30358,9.18105-42.71677,64.12382-84.24818,105.36005-97.10259,27.23412,4.23384,23.90842-34.50885,35.23757-52.99808,13.82201-10.08689,15.18968,54.07198,19.793,58.7085,67.26068-53.52722,67.17178-61.03186,35.28087,22.84632,77.0598-11.35423,47.67018,3.23097,3.10992,37.36827,10.1851,1.50206,42.73943,25.16472,48.33981,28.04336-9.36252,16.99147-44.36841-.56149-61.82917,2.09433,52.24366,149.74333,37.77595,314.29546,38.32605,470.22529-14.96352-.29048-54.51342,10.05783-53.55669-13.20646-1.48901-40.62351-5.96469-81.12862-12.76122-121.20747-15.38418,40.37091-26.72041,102.9793-33.25207,152.14495-115.99949-87.04719-206.19529,29.82274-141.14988,6.23917,111.88022-38.39333,24.12183,17.17319,26.5712,70.7005,4.00965,3.00033,15.0419-9.28119,19.87242-10.17609,17.54226-12.50263,37.47362-28.6252,53.1935-38.73338-1.74411,25.50527-12.69715,56.18151-6.2599,80.70895,3.69682,11.38683,15.54857-15.31056,19.75386-20.48623,7.64261-10.04346,18.17454-19.90346,25.94838-30.11027,12.47356-7.24358,24.99737-22.64138,37.18364-25.05079-.45264-3.03575,1.22122-1.2254,3.1017-2.14322.71472-.76087-.64636-3.93281,1.73688-2.90806,49.14436,43.6115,63.85708,91.6227,63.8411,156.76838-19.44327,7.75603-155.48413-14.83237-136.99486,30.61998-.04752,45.72821-3.82023,92.12219-5.23588,137.91619,37.91407,5.63485,81.38092,4.96967,122.91438,3.55491,1.20725-.05851,7.78984,1.00278,4.7876-1.82061,3.50386-1.16707,9.46118,2.33656,13.37929.9271,1.55519-42.29947-1.71306-89.68772,1.15203-132.78367,5.41724,105.63074.91602,342.87584.00729,492.12811-3.73247-9.26238-160.41733,14.11553-143.24105-8.30843.95855-8.19444,1.43563-20.73208.93217-28.96341-1.44393-1.64871-23.72353-3.69266-12.82419-9.48178,20.50252,4.16656,11.21507-3.13506,12.79172-20.62261-4.05356-1.21281-15.86437-2.1125-14.39546-7.37361,21.33904.60548,13.64008-4.73485,14.48573-22.79299-23.48333-2.57824-22.79521-8.68247.04612-10.43892-.08899-3.38076-1.50523-15.87436-1.02396-18.68939-2.12822-2.13144-16.70729,3.85775-16.60775-1.56074,6.92063-4.27072,16.18201-.52763,16.6635-10.39972-11.60481-27.52713-87.84771.8892-98.66073,25.45661-.00322.0047-122.99411,1.0424-122.99411,1.0424-16.11992,149.79425,21.73342,109.97356-126.19857,109.98404,5.13997-30.70184,5.0379-73.87779,7.47309-105.39826-9.34814-14.58029-82.09011.32154-103.90061-2.51272-2.7451.04109-16.80903-2.0037-14.53069,2.07749-5.82383-.46743-12.92157-2.48608-17.94993-.02208-5.90614,27.02192-3.79235,59.19702-5.92425,87.23657.84128,7.23044-1.37674,13.44506-1.03779,20.76518.0014.00028-92.31163-.57829-92.31163-.57829-82.13203-55.99641-38.528-198.82179-45.73842-285.97688,16.68434-.33856,42.42435,1.4181,62.28541-3.11317,23.90988-.7041,57.76185.70285,79.92256-5.70522-1.02562-83.1664,8.88928-167.86412,3.10373-250.19222-39.52667-14.87431-87.53445-5.57266-129.73066-10.9363,7.64337-105.74935,91.14125-119.94435,84.66045-177.52759-54.16166-25.78439-106.60771-103.19947-2.03821-49.93368,6.77536-.86357.33254-80.51833,2.48833-84.01209-9.87802-1.68578-22.14898,27.76324-32.20187,20.27216-5.97626-4.45331,8.94914-41.45545,7.29-43.10175-34.04078-5.83751-66.17152,42.17182-98.70339,36.95604-3.59456-11.53273,20.10076-24.96845,27.08521-32.80888,14.6081-15.52438,36.76905-24.67712,49.82233-40.48888-22.33669-16.77506-58.54801-18.24648-83.0335-30.10939-14.34415-28.60884,102.32558,6.64792,80.92459-18.13662-53.73464-56.33699-85.66691-101.25355,10.40816-31.70661,4.18516-3.73069-45.69799-90.85417-7.73324-59.22519.00075.00225,25.90338,30.15587,25.90338,30.15587-11.98895-54.90807-4.13805-47.79926,22.84585-8.31044,5.5426-3.46173,3.16435-26.39742,11.63803-27.85252,10.09977-1.52414,9.35956,25.09009,13.25969,26.81837,13.24437-27.91913,20.22868-12.57283,18.15653,11.42739,29.98138-41.11505,35.8077-31.36756,22.83479,14.53584-.4642,1.71431-1.47813,2.26569-1.0365,4.15217-2.74444,6.52535.83245,1.68113,2.07447,1.03717,27.51653-18.6733,42.48295-.37335,17.13743,22.85651-10.29913,10.52927-17.22076,13.22769,2.63547,13.94814,53.89027,15.20597,11.92231,29.84877-10.41212,36.38502.02729,2.91801,41.11423,22.1356,30.0954,39.48118-54.89324,12.18811-36.03644-20.67556-32.34057,46.02225-4.94507,7.73348-21.82925-16.60373-27.39867-16.46264-4.63805.11749-5.0542,13.90923-9.84066,16.09939-28.46604-10.17367-15.74026,47.14854-19.74113,65.36988-12.42507,124.63661,32.04395,29.43528,109.02122,23.9149,103.68964-21.95335,70.97273-4.79614,154.64717,20.26043,31.88849,5.8112,79.35191-10.50084,101.72501-33.24607.8114.79171,19.28684,1.66712,20.81465.59837,2.21095-108.09896.96234-251.3702,107.87494-311.01889ZM715.45981,76.63684c-14.39429,2.80133-10.58281,30.13287,2.80937,29.94406,17.53-.24716,17.81044-33.95695-2.80937-29.94406ZM625.14091,458.78321c-21.87049-7.80344-17.52007,51.22367-21.49741,64.5885-5.38239,14.87408,1.88796,77.79482,21.60865,43.32127,2.61197-34.35623,10.93574-75.32766-.11124-107.90976ZM253.86948,616.28934c-8.20348-4.00406-57.7014-4.20613-41.57452,9.8865,35.04086,6.71753,74.20452,20.06669,97.63494,48.49371,36.15652,38.57783-6.09553-53.65507-56.06041-58.38022ZM368.03769,653.666c.52476,27.96997,19.75899,6.66087,11.20276-9.66394-7.29805-16.33585-10.74165,1.65404-11.20276,9.66394ZM490.50904,643.2836c-3.47612,5.51138-12.0721,25.97364-1.03789,25.95601,12.0573,2.84887,7.4385-39.81614,1.03789-25.95601ZM264.24841,678.58377c-22.03329-31.63387-94.26353-40.90217-110.01488-7.27549,44.1713-9.10377,94.44833,12.14386,123.50734,45.69044,17.85722,8.18035-6.87455-36.94883-13.49246-38.41496ZM438.10924,651.59308c-2.8652.69-8.95585,24.02694-.87961,24.68056,9.7732.79095,5.16381-25.71228.87961-24.68056ZM199.39468,730.69462c.66208-45.37731-70.59181-45.3776-69.92388.00312-.66228,45.37419,70.59162,45.37448,69.92388-.00312ZM770.7401,774.1019c56.37421-94.81363-99.73154-97.59988-103.77473,47.76823.93855-1.33349,5.00481.43042,5.00737.22935.20064.09476.10026,1.85916.78898,1.92815,4.00193-2.92997,7.99315.42726,8.71936-6.3199.48883-3.42863,2.54047-6.65406,2.07471-10.38236,3.82076-20.00951,11.93581-51.31353,30.09237-62.29082-3.83032,31.36802,33.38826,54.35941,57.09194,29.06734ZM276.70312,790.71375c-9.15661-7.19974-8.10713-30.86296-15.49489-40.83573-14.50572-13.31599-8.27985,46.22086-11.47336,56.71412-6.4914,4.3872-11.33626,10.16501-16.10977,16.30158-25.40988-109.29737-29.42881,63.78939,7.75147,71.15983,48.41104,6.30625,127.14992-3.18638,148.45585-55.58047,10.08324-9.25344,12.80237-32.27405,5.19084-43.60543-11.63043-6.00064-33.61801-1.8358-48.77497-3.12548,56.46471-87.14106,16.51068-43.13267-24.33627-4.08511-.00134-.00173-6.80686.9802-6.80686.9802,2.06108-9.06042,2.77098-22.31497,4.152-31.14712,1.5124-12.41862,15.94371-71.33412-4.18352-33.7735-13.94799,21.1107-6.98299,65.54699-38.37051,66.9971ZM540.93857,734.06511c-56.02289-29.69198-124.25184,78.50562-72.91953,44.02157,42.76973-30.48432,91.85506-17.06231,128.29712,15.67496,5.45836-26.89956-33.55165-51.25201-55.37759-59.69653ZM521.11288,775.63788c-20.13355.37258-19.29768,43.61649-2.86321,47.01605,24.30879,5.36069,23.63742-46.39389,2.86321-47.01605ZM720.82022,794.93657c-4.62719-2.64292-10.24847,11.63917-5.97529,14.31731,12.68632,3.59332,10.62189-6.6341,5.97529-14.31731ZM771.51822,799.29549c-2.02789-2.3875-6.17998-.96614-7.91721,1.41328-9.44036,20.98902,20.76631,14.98171,7.91721-1.41328ZM479.09222,848.85522c34.6653,19.90906,103.98217,7.88442,115.61854-31.55604-33.30254-2.31102-72.21086,21.0954-111.24186,4.84764-54.78902-31.11845-35.58726,9.02477-4.37667,26.7084ZM242.45266,938.1439c-.04283,8.68809-2.79661,65.93022.0126,68.51983,1.14712.82493,4.27505-2.29706,5.17686-3.11068,2.68545-1.58983,9.9231-2.58806,9.34104-5.1912,2.20302-.66481.04625,1.74911,1.55015,2.07096,21.32692-12.89276,52.9383-12.29415,70.06942-30.84351-14.96218-27.66809-54.99265-40.5733-80.67903-58.21382-9.71103-4.75566-4.16289,21.31374-5.47105,26.76842ZM489.47115,937.10566c-7.44824,14.94932-21.49079,55.55283,2.07228,61.25756,23.92322,8.01042,11.79584-80.21846-2.07228-61.25756ZM557.97207,1000.43833c24.71252,13.86644,19.10818-67.39073,6.2397-61.26372.06675-3.06025.70202-5.5803-2.35734-3.11424-8.34818,11.31263-21.38025,57.8456-3.88237,64.37796ZM418.89444,956.83223c-8.44361-56.5988-38.735,38.43193-17.64363,44.64257,23.66364,12.21066,26.09226-34.69174,17.64363-44.64257ZM739.60332,1054.42684c-71.03639-68.64193-137.10765-66.36504-23.87016,13.49598,6.20676,6.04981,18.80953,14.81015,18.68085,23.88052-19.13215,25.20387-46.39055,45.51751-67.46184,69.56346-6.87644,2.34806-11.23518,11.96929-10.46597,20.23564,9.27101,29.4051,39.18256-23.80836,53.01514-24.38999,20.54735,34.97276,24.09525,75.01904,21.79458,115.24609,1.29828,15.17266-3.49403,39.30613,6.21325,48.42693,26.08214,14.50267,16.0474-83.72487,18.70462-99.29952,2.23454-28.15915-5.40419-79.6449-45.67561-66.44885,2.48929-8.48951,74.80095-65.97497,48.78384-80.98393-3.07611-1.77457-2.85944-9.59825-7.26399-7.26744-2.81722-6.8765-8.15283-7.90045-12.45471-12.45889ZM638.92771,1020.1649c-21.07384,2.66114-145.56025,63.11037-139.09622,82.55551,6.69182,3.77523,62.42297-1.38613,50.87454,13.99711-8.24267,11.94431-19.84774,92.93375,9.24253,64.57967,4.47878-10.15847,13.07383-71.7108,26.04642-68.72988,11.32083-.27742,25.60991,6.11745,36.72341,3.14608,11.38241,10.42905,4.16382,63.40235,10.88482,69.37259.681,10.68843,14.77505-.23854,16.21676,5.34533,6.20759-4.52675,2.48598-16.67209,2.59996-22.83611-4.12494-19.77451,16.20218-165.90712-13.49221-147.43029ZM241.41477,1046.12091c-1.6337,20.15139-.69437,43.44695-1.03916,65.40907-4.09963,7.19449,4.65229,3.07095,8.67845,3.03916,105.70208-30.66388,87.49879-29.56157,7.59999-84.21647-21.95767-20.50133-14.49081-2.40762-15.23928,15.76823ZM463.52383,1045.08267c-35.91878-44.69338-100.20879,2.60542-92.36265,53.98925-1.24093,29.89069-3.3779,59.98155,9.84185,86.16829,12.05836-13.09052,11.83648-32.77518,18.17307-48.79157,11.699-22.91171,14.03837,44.92903,17.64225,51.90921,10.34143,35.05446,15.0019-49.84241,22.05851-52.67125,18.46072-7.87978,8.47966,50.98942,19.45806,56.82464,10.92284,4.17537,20.40103-103.85138,17.66812-102.81742,6.22314-11.8076-3.22321-35.87909-12.47921-44.61116ZM177.96751,1102.03867c.63738-11.74125,10.45939-41.17549-13.29671-31.9815.11511,6.7479-1.08955,25.105-.06752,32.13532.46484.48184,12.87961.30632,13.36423-.15381ZM118.94341,1073.11517c-31.27922-2.84576-21.38416,2.86534-22.83345,28.03376,31.55567,2.39369,20.51448-4.61782,22.83345-28.03376ZM58.74563,1085.57405c3.31888-13.42665-9.8007-7.68995-18.6881-9.34952,1.32635,4.21519-2.80885,24.60956,1.69453,25.87518,14.5467-.78144,19.1811,1.42768,16.99357-16.52566ZM85.73084,1103.22414c-2.6299,1.08368-14.74903.07037-15.43411,1.18162-.84196,1.36571-.02911,30.75565.91129,32.05549,2.41566-1.48666,14.52282,1.14021,14.52282-1.57078v-31.66634ZM126.20866,1133.33312c.16679,1.01094-.62524,2.84061.57993,3.16802,31.49686,4.01828,23.90648-7.35901,23.29498-32.24637-34.47832.57872-23.42474-1.55027-23.87491,29.07835ZM240.37687,1197.70403c-.03091,1.80542-1.35526,7.21585,1.0375,9.34439,1.34676-2.92665,97.75263,6.16872,84.32024-6.73086-15.04773-17.92918-48.53039-40.90777-72.57452-57.44981-24.78872-23.0466-9.44604,42.22413-12.78323,54.83627ZM56.66984,1173.8245c-.82607-13.979,8.70229-41.04675-18.68651-32.18725,2.84533,21.5101-12.71357,37.02464,18.68651,32.18725ZM99.38296,1174.70023c4.41197-1.81601,7.81588,4.60083,10.98354-1.66825,1.50424-3.2561,3.05008-26.02954,2.35085-29.8362-5.11272-5.68657-18.38485-3.58129-14.48344,6.06843-5.29534,3.15299,1.03107-.59912.04607,5.40595-4.65143,6.14233.21491,12.38207-2.18844,19.65819,2.83169,3.32235,1.84426-5.47769,3.29142.37189ZM178.10888,1142.67071c-29.82984-2.60519-28.54903,5.14741-25.99398,31.73233,33.52346,3.17771,28.03346-4.61786,25.99398-31.73233ZM57.70774,1200.81875c-5.06936,16.57212,7.81637,10.33553,18.69047,10.37347-.83718-8.09813,3.18745-23.0264,1.09178-30.49705-23.3795-3.38536-20.09516-2.11241-19.78225,20.12358ZM116.86763,1200.81875c-.02706,1.40532-.51895,10.38241,0,10.38241h20.23891c3.90448,0,2.42743-20.88272,2.54726-24.44538,6.74376-12.68496-16.54187-4.8761-21.60001-5.52032-2.45988,1.52094-.16184,6.50251-.14827,7.12441.80935,4.61987-1.24363,8.05485-1.03789,12.45889ZM711.58021,1223.66004c1.14802-30.98939-41.22378-37.14869-54.96818-12.94507-2.27427,14.27744,15.61681,9.46449,21.46921,14.28088,15.75097,20.4274,4.207,79.90276,9.92107,99.0832,32.45294,29.98699,23.65105-83.27387,23.5779-100.41901ZM80.54138,1236.11893c-5.24351,24.43394,15.38822,12.95305,29.38422,13.29801,3.09415-.49113,6.47026-45.51049-1.83644-33.94063-31.00221-2.07098-25.29297-8.43522-27.54778,20.64262ZM175.50857,1213.27764c-3.07179.35131-19.98436-2.83481-21.27663,2.59432,1.01283,4.75512-3.33428,27.15286-1.02296,29.57596.99972,1.04807,19.57462-.86316,22.82392-1.01945-2.40998-9.80511,4.63607-22.91836-.52433-31.15083ZM368.76618,1270.60833c-14.64963-9.26921-33.70121-29.33793-39.05444.71269,4.54015-.97434,43.20261,6.91009,39.05444-.71269ZM406.43972,1278.68679c22.07312,1.79596,12.23749-6.9705,1.54645-16.59925-3.37509-3.60386-3.86805-9.51913-10.83908-6.73538-24.65072,18.0233-17.15936,21.12764,9.29263,23.33464ZM373.21917,1304.65641c-25.29249-13.01939-27.52341-24.82219-47.61123,1.69222,3.62127,11.88105,43.44772,6.80859,47.61123-1.69222ZM412.31861,1297.7523c-5.67817-.96758-7.81625-9.76116-14.20262-8.27163-2.09914,1.86669-19.74252,15.86448-19.696,19.30826.09109,1.42867,23.30856-2.64023,13.49523,2.07114,9.79033.09784,44.71791,1.92278,20.40339-13.10777ZM364.91609,1343.07783c-25.57279-25.10349-18.83239-21.01185-40.46234,3.59795.0295,4.80388,42.24692,1.33978,40.46234-3.59795ZM418.89384,1339.93219c-16.57658-8.14777-28.5165-21.84598-40.52996.58271,3.89747,11.73204,28.76945,3.30768,38.45823,1.4982.25926-.25928-3.10852-2.87484,2.07172-2.08091Z"/>
  <path class="b" d="M582.8815,1282.83975c11.57017-10.30363,22.30031,61.39145,31.13871,70.58816-1.2634-1.21972-52.93965,4.44865-49.8226-4.13674,5.71057-21.27594,12.73009-45.35573,18.68389-66.45141Z"/>
  <path class="b" d="M717.80757,848.85522c18.71095-17.82023,22.30548-14.16377,36.83055.79059,1.53222.11788,16.72615-11.77598,22.61284-10.97503,8.30543,2.73901,24.13549,16.31402,13.20854,24.71949-2.62175,4.59507-15.77158,8.96321-13.98831,13.46743,20.70271,21.91553,18.92129,24.52492-1.47185,46.45666,6.53125,14.57864,25.93429,17.84011,8.19195,35.59401-33.40668,45.12406-27.00729-24.84907-46.70246,10.38147-16.56981,23.72803-21.4254.97533-33.18201-8.96049-12.55685,6.28382-18.88873,25.62212-31.16673.65256-1.22486-8.32727,14.92229-21.69378,14.81646-30.85346,6.72578-2.38077-11.74456-20.02974-13.77715-24.17014-1.41658-3.5224,3.93021-8.93832,4.15155-11.42041,3.93813-.59729,4.55841-4.89116,6.2547-7.53075,3.67038-5.71147,6.32652-2.9702,1.00934-11.15768-9.22741-11.37176-18.84174-20.27398-1.8195-29.31135,6.82419-1.26519,15.1545-11.09215,22.11502-7.07547,4.08578,1.19007,9.43612,16.81176,12.91705,9.39257ZM704.31496,891.42308c7.00851,20.45214,23.34704-4.35499,30.15906-10.94384.00263-1.94956-5.58666-7.66835-7.32542-9.82097-1.54255-1.90971-8.87184-11.86926-9.54375-12.25887-14.46311,5.71952-31.59307,18.10375-13.28989,33.02368ZM768.65411,875.85081c-10.15344-25.86818-19.38773-10.09128-29.88706,3.42814,4.21683,15.36409,15.86024,21.07568,23.72682,3.34895,1.80309-3.16852-.42616-4.48545,4.08868-2.63042-2.54279-6.70676,1.90294-3.84533,2.07156-4.14667ZM701.20128,913.22613c-7.52783,7.19979-15.71427,11.1313-6.22498,20.76474,3.98798,3.51785,7.52642,18.0013,12.4402,12.46069.72492,8.2494,7.07735-7.32279,9.34947-9.57863,2.79185-3.74599,9.56944-7.62436,7.88184-13.32098-8.51909-7.45185-12.90515-26.19553-23.44654-10.32582ZM761.1082,929.62805c5.775-3.96719-4.65104-16.7498-9.42414-18.40041-3.64047,4.93605-17.68953,13.36964-19.0747,18.34411-1.72191,6.18378,8.52581,18.05272,14.53955,16.85806,1.48255-1.52696,12.54623-13.11221,11.28622-16.48442.47258-.31289,1.99759.14668,2.67308-.31735Z"/>
  <path class="b" d="M444.84176,1057.54156c13.54921,26.25289-21.00546,53.10041-40.48027,29.0697-11.59285-27.21702,19.82633-52.76253,40.48027-29.0697Z"/>
  <path class="b" d="M736.81206,756.12539c-8.6324-7.71368-5.05016-28.61954,7.51451-30.75962,33.83135-4.97912,17.76665,45.93557-7.51451,30.75962Z"/>
  <path class="b" d="M710.54232,1257.92198c-.20751-1.08004.1917-1.04775,1.01622-.51895-.00006-.00017-1.01622.51895-1.01622.51895Z"/>
  <path class="b" d="M504.00165,1304.6428c6.06821,48.47085,24.02474,51.80275-33.21449,48.79345,7.52561-18.96943,21.84138-117.59431,33.21449-48.79345Z"/>
  <path class="b" d="M540.3279,1277.64855c14.36971,18.52107,8.98763,55.80284,18.6809,75.7917.00117-.00015-42.55243-.00015-42.55243-.00015,8.78411-21.99079,11.58487-56.46796,23.87153-75.79156Z"/>
  <path class="b" d="M451.06911,1276.61031c6.75925,24.78458,9.05504,51.84832,12.45454,76.82984-3.51908-.69365-25.03801.92627-25.95177.00465,2.06114-15.92508,2.34936-71.12219,13.49723-76.83448Z"/>
  <path class="b" d="M216.50534,1334.75178c-47.61172-10.81923-13.99278-36.8158,16.60875-29.58824,8.52944,12.39799,3.77771,38.38093-16.60875,29.58824Z"/>
  <path class="b" d="M218.58112,1259.99846c14.97741,2.25445,22.79365-4.69282,20.75648,15.57384-.44471,19.74534-16.37095,12.0031-30.33596,11.13961-19.21801-4.49238-14.76163-24.74333,3.87865-24.67941,4.45998,1.26458,2.45785-2.2844,5.70083-2.03405Z"/>
  <path class="b" d="M294.3473,1288.03095c-11.72685,2.20948-34.56339,2.72738-31.1023-15.02953,11.80335-20.2873,63.74554-7.96233,31.1023,15.02953Z"/>
  <path class="b" d="M280.85469,1307.75752c10.89579-.00048,18.24586,5.52717,14.5291,16.61347-3.48483,27.63199-74.15318-14.30792-14.5291-16.61347Z"/>
  <path class="b" d="M324.44619,814.59328c29.75109,3.28348,18.13106,46.23514-9.34214,36.33373-18.97519-7.16612-11.68917-38.56512,9.34214-36.33373Z"/>
  <path class="b" d="M265.2863,829.12865c61.48394,7.45646-24.1337,72.41481-14.02257,11.40801,2.44679-4.71706,9.72647-10.95552,14.02257-11.40801Z"/>
</svg>