<?xml version="1.0" encoding="UTF-8"?>
<svg id="a" data-name="Layer 1" xmlns="http://www.w3.org/2000/svg" viewBox="0 0 992.67822 635.00597">
  <defs>
    <style>
      .b {
        fill: #e9b22b;
      }

      .c {
        fill: #e5e1d5;
      }

      .d {
        fill: #1e1e1e;
      }

      .e {
        fill: #cf2e2c;
      }

      .f {
        fill: #a30f13;
      }

      .g {
        fill: #2934bd;
      }
    </style>
  </defs>
  <g>
    <path class="b" d="M809.14502,342.20835c1.98808,15.77251-.97882,108.22067-2.97062,132.97817-18.80008-28.22381-36.75612-57.97926-53.4514-87.65864-4.8548-8.63043-11.05931-17.90347-13.04803-27.58908,22.63535-2.2941,48.54651-8.72004,69.47006-17.73044Z"/>
    <path class="b" d="M886.0055,289.01701c13.76889,39.47828,27.39282,78.87536,36.93735,119.68019-30.98765-23.38483-63.02365-45.70722-93.3174-69.9706-1.9558-1.56647-4.43908-2.07015-4.22149-5.38348,21.68389-12.32466,41.55946-29.12077,60.60154-44.32611Z"/>
    <path class="b" d="M658.38021,348.1185c14.83801,9.52227,36.28667,11.2163,53.21111,13.29783,3.5733.43948,8.45857,2.80813,13.30525,1.48434,1.81278,1.8637-6.50653,18.86094-8.10169,22.18649-9.80574,20.44273-25.95693,48.87666-39.47009,66.92343-.81498,1.0884-5.45874,9.10687-7.11246,6.91584l-14.78828-112.28547c.34799.20752,1.05196-.1928,1.47809,0,.45653.50772.89787,1.10519,1.47809,1.47754Z"/>
    <path class="b" d="M863.83421,224.00539c-15.21996-9.49431-48.21703-26.04434-65.0358-31.02828l69.45532-85.6967-4.41953,116.72497Z"/>
    <path class="b" d="M785.49564,190.02203c-22.0761-4.39017-48.51841-5.13113-70.94814-2.95507,3.84285-25.89999,4.78787-53.09963,9.06942-78.8474.46506-2.7967,2.17916-16.76609,6.43426-15.7128l55.44446,97.51528Z"/>
    <path class="b" d="M693.85428,190.02203c-15.09415,3.43089-42.80295,14.32693-56.16728,22.16306-.76359-28.62128-2.81734-57.69494-1.53905-86.49686.28829-6.4956.78922-15.91283,1.46762-22.17346.24269-2.23966.13691-3.66587,2.28922-5.07091l53.9495,91.57817Z"/>
    <path class="b" d="M646.55552,342.20835c-18.67626,12.34261-38.09888,31.00753-57.64537,41.37104-2.90111,1.53817-19.0587,8.81227-20.68801,7.37763,2.71396-9.23746,4.62897-18.85328,7.38523-28.06315,5.81946-19.44532,12.79752-39.72826,22.17129-57.62394,12.37576,11.28414,34.59206,28.20963,48.77685,36.93843Z"/>
    <path class="f" d="M658.38021,348.1185c-.58021-.37235-1.02155-.96982-1.47809-1.47754.56783.25692,1.04154.99685,1.47809,1.47754Z"/>
    <path class="c" d="M869.53647,221.69156c-15.92734-9.9356-50.45807-27.25492-68.05859-32.47052-3.271-.96927-10.21294-2.35497-13.92129-3.09236-23.10195-4.59425-50.77324-5.36968-74.24573-3.09243-7.22228.70063-14.58959,1.48648-21.65486,3.09243-15.79573,3.5903-44.79249,14.99283-58.77802,23.19316-9.5946,5.62568-19.83609,16.15686-29.41099,22.39803l-44.82818,41.77729c11.87185,9.36486,21.17954,22.93601,32.47587,33.23603,12.95095,11.80869,36.19992,29.52083,51.04416,38.65531,2.21159,1.36101,5.93964,2.6463,9.28057,4.63865.36427.21718,1.1008-.20176,1.54671,0,.59436.26885,1.08995,1.0432,1.547,1.54622,15.52767,9.96486,37.9733,11.73768,55.6843,13.91594,9.96401.91217,19.67165-.56139,29.38872-1.54622,23.68775-2.40072,50.80293-9.12535,72.69902-18.55458,4.41947-1.90313,12.41454-6.66254,17.01472-9.27722,22.69172-12.8975,43.49129-30.47432,63.41845-46.38638l30.92716-30.13475c-18.63052-10.8188-36.21277-26.7223-54.12902-37.89858Z"/>
    <path class="g" d="M729.00243,209.64307c32.55586-3.92326,71.55582,10.14105,76.80131,46.51431,7.33542,50.86521-32.80821,83.83756-81.49073,75.55111-68.81813-11.71381-64.079-113.77822,4.68942-122.06541ZM736.31741,246.50832c-19.49287,4.01396-30.83261,40.93883-5.86096,49.508,43.13716,14.80276,48.54584-58.29765,5.86096-49.508Z"/>
    <path class="d" d="M736.31741,246.50832c42.68488-8.78965,37.2762,64.31076-5.86096,49.508-24.97166-8.56916-13.63192-45.49404,5.86096-49.508Z"/>
  </g>
  <path class="c" d="M419.67785,321.35639c-87.07005-10.59323-148.47146,1.99543-178.86235,22.45222-17.80601,11.98563-30.68934.6234-38.30596-10.84209-3.21642-4.84175-10.67223-3.36985-11.7947,2.33348l-15.45089,78.50724c-1.42445,7.23774,4.62626,13.75952,11.9503,12.88068l96.29932-11.55527c6.00849-.72098,7.8351-8.50103,2.81364-11.87841-9.34134-6.28289-18.76665-14.82365-17.05012-22.93816,3.26958-15.4562,34.43237-34.77646,165.2625-38.64051,6.29081-.1858-8.61425-19.55909-14.86174-20.31918Z"/>
  <path class="c" d="M514.92476,158.21999c-87.07005-10.59323-148.47146,1.99543-178.86235,22.45222-17.80601,11.98563-30.68934.6234-38.30596-10.84209-3.21642-4.84175-10.67223-3.36985-11.7947,2.33348l-15.45089,78.50724c-1.42445,7.23774,4.62626,13.75952,11.9503,12.88068l96.29932-11.55527c6.00849-.72098,7.8351-8.50103,2.81364-11.87841-9.34134-6.28289-18.76665-14.82365-17.05012-22.93816,3.26958-15.4562,34.43237-34.77646,165.2625-38.64051,6.29081-.1858-8.61425-19.55909-14.86174-20.31918Z"/>
  <path class="c" d="M573.18258,432.62739c-87.07005-10.59323-148.47146,1.99543-178.86235,22.45222-17.80601,11.98563-30.68934.6234-38.30596-10.84209-3.21642-4.84175-10.67223-3.36985-11.7947,2.33348l-15.45089,78.50724c-1.42445,7.23774,4.62626,13.75952,11.9503,12.88068l96.29932-11.55527c6.00849-.72098,7.8351-8.50103,2.81364-11.87841-9.34134-6.28289-18.76665-14.82365-17.05012-22.93816,3.26958-15.4562,34.43237-34.77646,165.2625-38.64051,6.29081-.1858-8.61425-19.55909-14.86174-20.31918Z"/>
  <path class="b" d="M94.58092,490.79365c42.68488-8.78965,37.2762,64.31076-5.86096,49.508-24.97166-8.56916-13.63192-45.49404,5.86096-49.508Z"/>
  <path class="b" d="M153.81655,490.79365c42.68488-8.78965,37.2762,64.31076-5.86096,49.508-24.97166-8.56916-13.63192-45.49404,5.86096-49.508Z"/>
  <path class="e" d="M224.79796,490.79365c42.68488-8.78965,37.2762,64.31076-5.86096,49.508-24.97166-8.56916-13.63192-45.49404,5.86096-49.508Z"/>
</svg>