<?xml version="1.0" encoding="UTF-8"?>
<svg id="a" xmlns="http://www.w3.org/2000/svg" version="1.1" viewBox="0 0 992.68 635.01">
  <!-- Generator: Adobe Illustrator 29.8.1, SVG Export Plug-In . SVG Version: 2.1.1 Build 2)  -->
  <defs>
    <style>
      .st0 {
        fill: #1e1e1e;
      }

      .st1 {
        fill: #fafafb;
      }

      .st2 {
        fill: #db88b9;
      }
    </style>
  </defs>
  <path class="st2" d="M70.71,555.45l-2.04-71.66c1.2-2.69-.34-78.89,12.6-110.92.08-.19-.08-.48,0-.67.07-.17.54-.38.67-.67.21-.45.44-.9.67-1.34.1-.19.51-.38.67-.67,1.76-3.21,5.04-7.35,6.03-10.71,1.53.09,1.73-1.01,2.43-1.93,7.35-9.69,16.1-16.42,26.37-22.85,9.65-6.04,19.34-10.55,30.67-12.52,3.22-.56,21.16-1.8,21.96-2.84l-.37-25.12c.77-15.67.75-31.49,1.32-47.22,1.72-48.19,8.49-121.04,54.92-147.95,63.44-36.78,157.66-35.65,196.58,34.13,27.79,49.83,29.78,100.52,13.22,154.51-11.79,38.43-27.07,52.97-4.31,92.99,12.77,22.46,29.93,42.23,41.98,65.15.71-11.67.18-23.46.35-35.13.58-39.56,1.48-79.2,1.99-118.84.73-57.94,1.47-115.76,1.37-173.76-.02-13.25-.28-26.26,0-39.45.07-3.48-.71-15.95.59-17.99,1.09-1.71,13.72-2.35,16.4-2.5.52-.03.95-.62,1.07-.62,1.11-.03,2.23,0,3.35,0,3.67-.01,9.24.52,13.39.67,1.11.04,2.24-.05,3.35,0,44.6,1.94,90.7,7.05,133.95,18.41,100.12,26.28,179.01,94.31,209.13,194.65,2.05,6.83,6.42,21.01,6.54,27.62.01.75.21,1.18-.68,1.01-.04-.76-.49-1.47-.99-2.03-73.14-81.42-148.79-130.99-258.07-151.75-29.82-5.66-60.25-6.81-90.55-8.23.14,6.13-.16,12.3-.02,18.44.43,19.22.97,38.57.7,57.88-.08,5.84-.59,11.58-.67,17.41-.45,32.7-.99,65.61-1.34,98.41-.12,11.69-.61,23.52-.7,35.12-.23,27.62,2.15,59.46.03,86.43-.16,2.06.33,1.72-2.01,1.64-6.44-1.22-24.58-1.53-30.09,1.72-2.5,1.48-4.83,4.92-4.69,7.93.22,4.82,4.6,6.95,8.66,8.08,6.27,1.76,21.34,2.36,27.46,1.67v8.7c-7.35-.77-26.1-1.3-33,.16-9.08,1.92-13.47,12.21-3.87,16.95,6.57,3.25,28.93,4.8,36.2,3.64v9.37c-3.43-.71-14.98-.23-19.12-.03-3.78.19-10.23.64-13.71,1.69-9.04,2.73-10.38,12.18-.42,15.17,7.55,2.27,25.63,2.96,33.92,2.58-.04,8.72.42,17.53-1.34,26.11-1.31.71-2.24,1.09-3.76,1.26-6.13.71-13.85.9-20.04.77-1.7-.03-3.35-.87-5-.7l-20.42-22.6s-22.08,12.43-39.88,24.14c-16.45,10.82-36.92,13.61-55.61,7.4l-50.14-16.67-6.73,33.17-38.58.35c-8.18.07-16.26-1.78-23.58-5.42l-34.27-17.02-62.23,18.05c-14.51,4.21-29.86,4.65-44.59,1.27l-36.17-8.29c-4.75-1.09-6.82-6.69-3.93-10.61l4.41-5.97h0Z"/>
  <path class="st1" d="M803.24,220.89c-13.85-15.98-25.25-30.59-41.87-44.17-66.08-53.99-151.52-75.35-235.72-78.35-2.11-.08-7.3-1.62-9.09-.37-2.41,1.69.07,11.55-.63,14.44,19.81-.45,39.57.86,59.19,3.43,30.68,4.01,65.19,14.37,94.35,24.85,47.85,17.2,94.59,47.91,133.11,80.84l.67-.67h0Z"/>
  <path class="st1" d="M512.58,480.65c-7.35-.77-26.1-1.31-33,.16-9.08,1.92-13.47,12.21-3.87,16.95,6.57,3.25,28.93,4.8,36.2,3.64,10.1-1.6,11.14-19.65.67-20.75Z"/>
  <path class="st1" d="M512.58,530.19c2.16-.1,3.5.53,5.41-.95,5.73-4.46.14-17.17-6.08-18.46-3.43-.71-14.98-.23-19.11-.03-3.78.19-10.23.64-13.71,1.69-9.03,2.73-10.38,12.18-.42,15.17,7.55,2.27,25.63,2.96,33.92,2.58Z"/>
  <path class="st1" d="M512.58,471.95c12.45-1.41,10.84-17.1-1.34-19.41-6.44-1.22-24.58-1.53-30.09,1.72-2.5,1.48-4.83,4.92-4.69,7.93.22,4.82,4.6,6.95,8.66,8.08,6.27,1.76,21.34,2.36,27.46,1.67Z"/>
  <path class="st1" d="M339.79,108.42l7.37,1.34c20.98,4.52,32.03,12.19,45.89,28.11,26.65,30.62,27.23,67.88,23.76,106.78-1.68,18.87-6.43,38.37-28,41.97-2.08,12.95-.27,41.96-10.5,51.42-17.14,15.85-64.16,19.58-85.55,12.55-38.33-12.59-39.34-46.62-48.24-79.64-5.53-20.5-13.41-40.36-15.21-61.79-5.76-68.57,44.2-109.76,110.5-100.75h0Z"/>
  <g>
    <path class="st0" d="M374.08,171.55c-12.66-.92-26.89,6.03-31.74,18.09-10.57,26.3,8.87,48.63,35.95,45.97,36.88-3.62,38.22-60.98-4.21-64.07h0Z"/>
    <path class="st0" d="M287.71,167.51c-42.11-5.7-54.67,54.03-18.78,64.3,16.59,4.75,36.77-4.44,42.25-21.1,5.9-17.95-3.37-40.48-23.47-43.2h0Z"/>
    <path class="st0" d="M323.71,222.1c-.38.04-.71.27-.86.62-4.71,11.15-12.93,21.58-16.87,33-.62,1.81-2.28,7.19.08,7.93,4.75.15,9.92,1.37,14.68.8,1.37-.16,1.86-.19,2.48-1.53l2.56-27.63c.02-4,1.86-13.55-2.07-13.19h0Z"/>
    <path class="st0" d="M331.24,264.25c1.43,1.41,14.25,1.05,15.94-.15,3.54-2.5-2.26-15.39-3.5-18.32-2.76-6.54-6.45-13.35-9.6-19.52-.66-1.29-1.23-2.6-2.3-3.4-.46-.34-1.11.05-.99.61,1.77,8.4-2.36,37.99.45,40.77Z"/>
    <path class="st0" d="M331.24,287.96c-5.16-.68-5.85,5.12-6.17,8.93-.49,5.79-1.33,18.74-.7,24.11.86,7.24,8.64,6.8,9.91.5,1.81-9,.67-20.03,2.15-29.28-.38-2.01-3.28-4-5.19-4.25h0Z"/>
    <path class="st0" d="M346.68,289.37c-2.47,3.13-2.1,18.47-2.18,22.94-.03,1.99-.81,3.76-.74,6,.29,9.13,7.56,10.26,9.78,2.37,2.3-8.19,1.21-18.69,3.03-27.13-.19-4.88-6.88-7.99-9.89-4.18Z"/>
    <path class="st0" d="M288.37,285.31c-.61.62-1.38,4.44-1.48,5.55-.56,5.99-1.32,18.41-.68,24.09.86,7.57,7.74,7.35,9.87,1.16,1.29-3.75,2.03-22.96,1.53-27.28-.56-4.86-6.41-6.41-9.24-3.52h0Z"/>
    <path class="st0" d="M316.82,287.36c-2.3-2.85-7.54-1.98-8.87,1.79-1.38,3.92-1.63,23.98-.94,28.44.66,4.23,6.43,6.14,8.6,2.65.67-1.08,1.17-4.6,1.32-6.05.68-6.65,1.34-16.83.78-23.37-.11-1.24-.06-2.43-.9-3.46h0Z"/>
    <path class="st0" d="M274.33,281.26c-2.21-.46-4.81.57-5.7,2.73-.64,1.54-1.15,9.35-1.2,11.52-.09,3.99-.27,17.09,2.65,19.5,2.79,2.31,6.01.7,6.98-2.51.68-2.25,1.01-9.41,1.14-12.25.17-3.68.56-12.21-.04-15.41-.29-1.55-2.32-3.27-3.82-3.58h0Z"/>
    <path class="st0" d="M363.39,319.82c2.62,2.62,7.73.82,8.92-3.15,1.02-3.42,2.49-20.01,2.35-23.79-.16-4.17-4.91-6.48-8.35-4.29-2.62,1.67-3.58,11.15-3.78,14.3-.17,2.66-.38,15.7.86,16.94h0Z"/>
  </g>
  <g>
    <path class="st1" d="M288.99,410.45c-77.19-17.41-94.54-4.4-160.83,18.28-10.39,3.55-19.91-7.25-14.97-17.06,4.4-8.74,10.6-12.58,16.99-15.02,40.35-15.46,151.67-32.45,172.63-4.37,7.08,9.48-2.27,20.78-13.81,18.18h0Z"/>
    <path class="st1" d="M107.5,475.1c.55-5.9,4.97-10.7,10.79-11.78,31.98-5.96,62.79-29.49,85.02-35.75,22.74-6.4,88.77-1.53,94.48,1.54,9.5,5.11,10.96,13.17.97,26.93-6.38,1.36-61.82-7.02-81.36-1.37-24.49,7.08-49.66,31.32-89.78,40.26-11.19,2.49-21.49-6.78-20.29-18.18.06-.55.11-1.1.16-1.65Z"/>
    <path class="st1" d="M127.75,527.51c-5.6-22.41,112.06-67.24,151.08-57.94,7.2,1.71,29.26,1.93,26.07,14-3.05,35.73-38.24,13.13-59.49,15.92-20.03,2.63-75.17,27.41-95.25,39.22-15.93,3.4-19.75-.56-22.41-11.21h0Z"/>
    <path class="st1" d="M61.85,434.46c-.03.73.2,1.69-.67,2.01.04-.73-.21-1.69.67-2.01Z"/>
    <path class="st1" d="M61.18,439.14l-.67.67c.02-.48.66-.62.67-.67Z"/>
  </g>
</svg>