<?xml version="1.0" encoding="UTF-8"?>
<svg id="a" data-name="Layer 1" xmlns="http://www.w3.org/2000/svg" viewBox="0 0 992.67822 635.00597">
  <defs>
    <style>
      .b {
        fill: #e9b22b;
      }

      .c {
        fill: #f5f5f6;
      }

      .d {
        fill: #105f2d;
      }

      .e {
        fill: #db88b9;
      }
    </style>
  </defs>
  <path class="c" d="M313.05257,276.59361s-8.90767-97.84272,19.65817-100.26857c28.56584-2.42585,107.67329-16.17235,107.67329-16.17235l18.6178,95.41687-145.94926,21.02406Z"/>
  <path class="e" d="M420.21561,109.24699c389.29704-13.05206,524.97786-40.13116,532.10009,64.70666,3.0139,44.36404,5.4809,98.50339,7.09979,139.84711,1.40517,35.88579-8.13144,68.10422-21.37202,72.30458-41.69196,13.22611-562.08868,32.91532-562.72542-18.04013-2.33555-186.90411-5.14701-257.14037,44.89755-258.81823Z"/>
  <path class="d" d="M466.72914,138.42789c326.59064-10.32025,440.41654-31.73166,446.39155,51.16347,2.52844,35.07859,4.59806,77.88651,5.95619,110.57693,1.17883,28.37485-6.82166,53.84992-17.9295,57.17114-34.97639,10.45787-471.5497,26.0261-472.08387-14.2643-1.95935-147.78484-4.31795-203.32056,37.66563-204.64724Z"/>
  <path class="e" d="M666.48553,201.89665c58.95742-10.69717,80.904,77.85373,39.56812,106.81258-49.01185,34.33644-96.7199-1.53115-83.88183-62.06989,4.17781-19.70072,25.80231-41.384,44.31371-44.74269Z"/>
  <path class="c" d="M116.75074,289.85401c23.19395-.19444,46.26549-1.53756,69.49742-1.48977,17.98733.037-11.05892,1.94449,7.11214.04959,73.03793-7.61648,135.34249-57.06207,205.40612-73.50458,64.14694-15.05398,125.2013-21.6263,184.99304-54.21429,10.73171-5.84905,17.5194-14.33634,31.35135-12.8886,9.30896.97433,16.16297,9.68395,17.70197,19.38038,6.09921,38.42785-45.02833,58.11798-71.15299,67.86561-19.66251,7.33648-42.13907,14.96837-62.11241,21.38171-20.8848,6.706-42.40592,11.84106-63.48735,17.7866-1.77543,5.41453,5.70906,6.1922,10.0694,6.94972,33.65836,5.84739,62.0152,1.12654,95.0706-2.70371,16.14998-1.87135,32.67673-3.5387,48.75749-5.87861,16.54184-2.407,41.50243-10.44679,56.99824-9.7704,19.79607.8641,29.17519,16.53194,15.94643,34.16385-34.5567,46.05877-144.23965,36.06477-194.29559,44.21218-12.17967,1.98244-28.47264,6.28479-8.11423,14.11803,54.40528,20.93336,121.99853,3.75893,176.89945,13.14604,18.24478,3.11954,43.84715,10.90485,34.18837,37.39458-3.30029,9.05123-18.13846,12.98744-26.2196,14.4697-25.70293,4.71448-82.78481,1.11328-110.75466-1.07231-28.6461-2.23844-68.37309-13.17396-95.29703-10.01611-6.5805.77181-4.34021,4.04591-.52675,7.81604,33.09371,32.71775,116.31151,27.80535,143.04099,76.56799,6.8012,12.40743,7.44052,36.79008-6.91697,42.92364-26.36016,11.26115-63.92912-22.08546-86.97915-34.39765-59.03273-31.53239-91.65056-36.22378-156.94904-40.28472-38.71894-2.40795-66.44658-5.32769-104.69623-11.14604-37.88941-5.76356-30.72153,2.76476-69.25596-.10365l-40.27506-2.91178v-157.84344Z"/>
  <path class="d" d="M138.27578,266.67672c15.09564,167.13983,28.73399,224.79992-10.05924,230.62239-16.41606,2.46389-36.48116,4.94968-51.81092,6.73393-13.30602,1.54871-25.53634-1.70644-27.44648-7.29228-6.01465-17.58871-27.02742-240.95558-8.098-242.57019,69.43292-5.92236,95.47408-8.97986,97.41464,12.50614Z"/>
  <path class="b" d="M80.19769,277.08297c32.36774-5.87277,44.41646,42.74186,21.72298,58.64032-26.9076,18.85077-53.09942-.8406-46.05129-34.0765,2.29363-10.81574,14.16552-22.7199,24.32832-24.56383Z"/>
</svg>