<?xml version="1.0" encoding="UTF-8"?>
<svg id="a" data-name="Layer 1" xmlns="http://www.w3.org/2000/svg" viewBox="0 0 1532.00273 1101.4074">
  <defs>
    <style>
      .b {
        fill: #e9b22b;
      }

      .c {
        fill: #f1f0f2;
      }

      .d {
        fill: #0b3d9f;
      }

      .e {
        fill: #1e1e1e;
      }

      .f {
        fill: #105f2d;
      }

      .g {
        fill: #7e74b2;
      }

      .h {
        fill: #cf2e2c;
      }

      .i {
        fill: #db88b9;
      }

      .j {
        fill: #897dba;
      }
    </style>
  </defs>
  <path class="c" d="M657.51193,492.84171c93.35287,153.6368,451.61152,171.52836,592.96889,8.61933-77.88494-116.36269-404.21374-200.66077-592.96889-8.61933Z"/>
  <path class="f" d="M936.7783,1005.86769c-6.5099-26.0776-22.14208-48.74584-31.68257-73.56833-1.5505-4.03409,1.87007-8.25975,6.14431-7.62042,37.60628,5.62509,47.72632,54.85615,73.93629,76.82233,5.62548-35.44954,14.85928-86.31891-20.18257-106.15599-14.9454-8.46055-27.25681-20.90886-34.89212-36.29222-38.10341-76.76939-13.82334-118.19118,44.59755-.73758,25.85417,14.28227-19.49736-122.41963,26.12639-139.83163,4.33948-1.65614,9.01546,1.55897,9.19326,6.20033,1.04974,27.40368,6.0876,62.19529,3.79644,89.0179,30.15964-20.80611,23.68754-76.33792,59.4745-90.7126,4.93221-1.98114,10.12875,1.99955,9.47258,7.27411-2.1293,17.11623-10.97042,37.12988-16.98171,51.52136-7.22724,23.69917.2536,44.54744-24.92475,59.45241-34.43474,20.38451-17.40704,99.68601-25.8597,139.4104,16.37238-76.94417,88.79531-141.07399,48.38321-9.86256-26.18408,85.01514-87.66585,84.40396-98.91194,73.55337-6.85205-6.61084-25.38319-29.23361-27.68914-38.47087Z"/>
  <path class="d" d="M1277.02127,409.20484c22.3381,18.0412,48.69194,42.25002,67.16379,64.14039,16.37104,12.95394,2.64318,28.98293-6.07206,42.09001-84.72807,137.34672-261.07268,183.72755-412.3651,186.82042-74.86556-.87337-149.78574-25.00443-216.8756-56.1746-35.73712-22.20141-72.9951-40.95997-106.29858-67.15579-26.39082-20.79753-80.33835-89.24106-76.99199-91.57791,166.68039-228.18484,537.84896-256.48786,751.43954-78.14252ZM911.69489,386.0054c-88.78796,7.11962-192.45218,40.55129-254.18252,106.83869-.00057,1.16459,11.49961,14.00743,13.41687,15.9523,139.18279,129.29259,377.67049,135.0949,527.25644,20.03966,6.95302-6.83461,27.00976-21.69421,28.80554-31.04407-.21727-2.20369-14.9319-16.49131-17.80827-18.96196-74.60559-63.60368-203.23276-105.29535-297.48807-92.82461Z"/>
  <path class="e" d="M967.47953,384.78438c136.6865,15.66259,115.90446,242.52282-24.44505,224.66785-144.16504-15.5578-120.13234-244.49849,24.44505-224.66785Z"/>
  <g>
    <g>
      <path class="g" d="M1523.25106,121.08554c-39.51868-41.93002-43.92942-49.87448.19929-91.54485,3.23207-3.05202,8.55239-.76968,8.55239,3.67567v84.39489c0,4.58443-5.60734,6.81049-8.75167,3.4743Z"/>
      <path class="j" d="M1442.76714,45.2434c75.44515,84.51049-.03825,140.95374-93.83343,126.1321-103.22047-41.26968,7.21191-203.85647,93.83343-126.1321ZM1376.23588,69.40619c-61.49373,23.96376,6.4517,111.19407,49.90293,50.54951,11.66366-18.36664,4.26447-36.91572-10.57512-46.82578-11.59812-7.74538-26.33307-8.7877-39.32782-3.72373Z"/>
    </g>
    <path class="c" d="M1532.00273,268.44035v-87.96392c0-6.03398-6.33843-9.93357-11.74743-7.2593-95.10877,47.02287-143.47377,112.96981-1.76742,109.07533,7.51544-.20654,13.51484-6.33383,13.51484-13.85211Z"/>
    <path class="i" d="M1476.01051,372.92626c-.43239-19.77016,7.74036-31.7497,17.71947-39.0081,5.45885-3.97054,2.35708-12.55787-4.37868-12.11774-37.89853,2.47635-90.2685,16.59317-91.40213,75.54962-2.12552,110.54163,93.62713,31.33546,94.06423,86.29722.32703,41.12213-52.28905,40.44904-80.32798,53.78197-3.06191,1.45598-2.01439,6.05274,1.37595,6.02467,25.8377-.21387,79.06194-.53861,105.71468.1335,4.99363.12593,9.10779-3.8904,9.10779-8.88562.00005-24.05757.00006-91.12265.00007-118.65675,0-6.62235-5.64351-11.83596-12.24474-11.30741-17.50946,1.40193-38.87014,2.86999-39.62865-31.81136Z"/>
  </g>
  <path class="i" d="M797.367,930.69145c56.03259-19.10107,86.03259-54.6875,86.03259-54.6875-52.76538-35.68018-128.3905-24.0498-172.99622-12.31348,2.72681-6.52686,4.23767-13.68799,4.23767-21.20361,0-.89453-.02527-1.7832-.06738-2.66748,22.01294-4.79297,48.75745-11.50488,61.85571-17.4707,68.1427-31.03418,99.3595-79.0957,99.3595-79.0957,0,0-114.03674-15.29346-173.34485,35.64746l-19.37889-96.40099c-1.34022-6.66699-10.62355-7.30076-12.85742-.87777l-29.08388,83.62398c-48.09998-85.84082-117.16504-111.55811-117.16504-111.55811,0,0,3.60291,99.34424,87.55847,161.97998-4.43762,7.93701-6.97717,17.07959-6.97717,26.81934,0,.50635.02454,1.00684.03821,1.50977-71.26575-72.97168-149.60815-90.00391-149.60815-90.00391,0,0,3.95215,111.87695,138.00037,162.80957-4.21265,8.54248-6.58923,18.15234-6.58923,28.32129,0,9.21533,1.9585,17.96826,5.45825,25.88818-70.35547-22.63965-156.92261-11.00781-156.92261-11.00781,0,0,47.35278,70.05127,137.10352,77.2417,23.21166,4.40281,27.06905,20.60236,29.16732,39.49285.5907,5.31802,5.09547,9.33918,10.4462,9.33918l64.90576.00002c5.51488,0,10.08933-4.25842,10.48634-9.75899,1.25147-17.33928,4.04617-36.30646,17.05089-36.21808,147.94348,1.00684,172.79749-41.76123,172.79749-41.76123,0,0-84.40186-26.91895-169.08215-24.38818,4.37146-8.66895,6.84875-18.45605,6.84875-28.82764,0-2.4707-.15381-4.9043-.42578-7.30225,34.21069.50586,67.04553-1.63916,83.15173-7.12988Z"/>
  <path class="c" d="M454.88136,484.99265c-20.75431,24.40249-35.32894,88.80714-48.1661,106.86976-13.54942-28.6614,42.00002-235.13919-13.12066-231.4126-10.04381.67904-14.92027,14.79598-16.79314,25.34764-41.69405,234.90221-48.09707,281.02854-45.92134,20.51102.13933-16.68257.94417-38.12223-12.04032-47.4146-68.57944-49.07898-27.14624,317.82049-56.54198,212.8575-14.33973-51.2027,1.99812-230.74914-48.75203-214.7227-35.69016,11.27063-1.47123,278.7001-27.96662,232.54871-7.84887-139.22905-18.85978-214.33213-49.35793-214.23642-41.72654.13095-4.97094,217.59694-4.97094,217.59694,0,0-8.29885.87892-11.98873-7.74584-49.05686-114.66615-144.82889-98.99519-112.86948-34.82754,25.16228,50.52047,60.81981,177.48675,114.38026,185.16178,51.1714,7.33268,42.69696,62.81252,43.52536,103.07894.24858,12.08265,9.35569,21.80832,20.67908,22.04715,40.09643.84569,127.29972,2.46958,171.38565,1.64214,14.45306-.27127,26.5707-11.57714,28.89342-26.80197,16.3271-107.01975,107.44757-236.72554,101.09418-338.81148-1.05307-16.92066-20.78867-24.24576-31.4687-11.68841Z"/>
  <path class="b" d="M188.70268,842.04243c272.62575,18.78045,203.65954-70.71217,210.12581,217.33548.34537,15.38505-12.44666,27.85602-27.81309,27.02423-204.36905-11.06265-249.12213,57.02655-224.55986-169.29723,2.54446-23.4454,4.6388-45.03912,13.7397-60.39331,5.87158-9.90598,17.0193-15.46056,28.50746-14.66917ZM185.46883,906.5265c-24.44394,15.25886,7.41801,45.62393,20.20531,20.1956,2.6452-12.86566-6.86466-24.10095-20.20531-20.1956ZM254.73515,907.76556c-22.1445,3.19552-11.1593,41.44681,10.79844,28.47934,14.90384-8.80169,3.40395-30.52879-10.79844-28.47934ZM322.6238,909.07241c-21.66876,8.67484-6.50919,37.39908,13.26803,28.32556,16.49746-8.10946,7.73251-32.6445-13.26803-28.32556Z"/>
  <path class="h" d="M576.45765,336.03619c-42.18628-117.56874,56.56837-162.09249,14.15065-267.19342-1.34904-3.3426,1.32458-6.93682,4.91149-6.58054,77.79176,7.72684,57.91939,119.65476,66.96664,174.42163.30113,5.11682,20.42886,59.55636,25.02783,42.25437-.50398-18.65706-4.15975-31.55654-.64118-51.35469,12.26915-39.57131,31.3932-78.88623,11.59529-118.39961-1.12555-2.24642.05583-5.0203,2.46999-5.7168,14.89099-4.2962,37.51971,4.10971,47.37872,14.48366,38.28791,46.3881-29.08274,116.41473,26.83831,156.33688,1.37112,1.13522,1.96446,2.96739,4.26552,2.43637-9.80645-25.5743-10.09119-51.96124-4.75451-78.62319,28.47079-74.37078,42.39971-73.34023,25.98654-155.39953.35535-15.71522,5.81113-14.47485,18.8395-9.31017,74.45509,33.46002,21.3652,152.8073,65.61374,198.16026,63.2122-8.27017-.58334-132.41852,46.04192-173.77919,9.82617-12.66417,24.16734-22.76576,40.09326-25.65879,3.5382-.64273,6.56889,2.54309,5.69934,6.03248-3.72235,14.93727-8.34653,30.94481-8.04522,46.08244.86824,41.66533,37.34989,75.50628,35.32622,119.8408-.39573,8.66961-12.67549,40.11823,4.91889,25.66197,45.65116-50.73414,12.27797-157.33943,84.67033-192.56293,25.12982-10.04728,7.41818,14.43282,3.63488,26.83812-18.9097,47.086,17.07549,70.85111,31.13806,109.83921,6.36705,31.79768-25.28793,75.4452,5.16257,96.77781,23.01636-100.5269,43.29636-85.11075,17.43519-194.6133-.27296-1.1558-.48596-2.33869-.52109-3.52576-.84376-28.5183,66.70457-63.36907,45.98356-35.11407-37.5483,63.02745,52.08259,100.06708,36.40087,162.13939-12.15805,30.35268-41.343,89.63489,7.00571,101.64559-1.42817-30.01125,18.41599-65.69477,48.20985-74.54445,18.469-7.16159,23.36512.25461,19.76747,10.34632-6.55034,18.37423-5.82304,33.85472-2.74559,45.66296,6.76426,25.95464,3.73808,53.5407-9.57342,76.82594-90.58842,158.46239-178.4202-210.57961-610.9367,18.76359-41.37263,21.93797-92.49864,1.90411-108.31462-42.17337Z"/>
  <path class="f" d="M486.66689,313.06156c-10.34576,11.0931-334.74718,4.86-427.62473,2.96867-12.74438-.25952-42.2069,3.4571-42.2069-23.41291v-.00005c0-12.93329,10.4845-23.41778,23.41778-23.41778h424.26259c10.2806,0,19.34766,6.6381,22.49128,16.36055.19569.60523.34863,1.21753.49026,1.83764.9711,4.25192,4.20311,20.26689-.83029,25.66388Z"/>
  <path class="j" d="M48.22443,41.01141s318.12939-31.10553,397.03571-7.96905c32.01405,9.38699,31.23067,107.06952,27.87791,164.84758-1.36478,23.51922-21.22557,41.66392-44.77352,40.94949l-397.87807-12.0713-6.59845-160.30004c0-13.62792,10.72228-24.84378,24.33641-25.45668Z"/>
  <path class="e" d="M427.48823,86.16814c80.62573,90.31355-.04088,150.63259-100.27668,134.79319-110.30829-44.10353,7.70713-217.85464,100.27668-134.79319ZM356.38849,111.99011c-65.71631,25.60927,6.89472,118.82942,53.32961,54.02058,12.46457-19.62781,4.5573-39.4506-11.30127-50.04116-12.39453-8.27723-28.14128-9.39113-42.02833-3.97942Z"/>
  <path class="c" d="M468.99329,90.7974c-247.28455,172.52327-186.58316,204.60978-447.37271,2.09307-6.30953-4.89968-15.47934-.37219-15.43292,7.61623.3547,61.03987-7.59723,129.10837.40473,185.96389,1.17263,8.33173,8.47216,14.39644,16.8744,13.95465,151.34419-7.95763,303.0594-9.88988,454.60051-10.62533,9.64408-.0468,17.42077-7.89005,17.39702-17.53421-.13469-54.69276.5285-112.27895-.34653-168.12059-.2086-13.31253-15.20519-20.96581-26.12451-13.34772Z"/>
  <path class="c" d="M1407.79614,642.68968c44.26024,5.07168,37.53084,78.53093-7.91551,72.74934-46.68185-5.03775-38.89986-79.17067,7.91551-72.74934Z"/>
  <path class="b" d="M455.12045.39395c44.26024,5.07168,37.53084,78.53093-7.91551,72.74934-46.68185-5.03775-38.89986-79.17067,7.91551-72.74934Z"/>
  <g>
    <path class="i" d="M1486.87879,820.68361s-25.84615-33.51023-38.93997-25.85009-56.20955,62.63322-54.55967,72.4256c1.64989,9.79238,20.0422,45.37312,42.04464,40.31127,22.00244-5.06185,56.48519-73.89485,51.455-86.88678Z"/>
    <path class="i" d="M1426.77005,787.18661c2.33991-5.93624,1.03291-12.68344-3.33631-17.33361-9.92276-10.5608-31.65735-31.71438-41.58763-25.90498-13.09383,7.66014-56.20955,62.63322-54.55967,72.4256s31.49648,47.40107,50.77902,35.65742c11.38072-6.9312,40.46086-43.93043,48.70459-64.84444Z"/>
    <path class="g" d="M1376.43273,682.28647s147.75534,97.45371,153.24962,108.62767c5.49428,11.17396-11.81455,19.52528-16.50694,19.02645-4.69239-.49882-126.74948-94.85443-131.77274-93.56629-5.02326,1.28814-68.0145,94.11292-76.6624,97.06246s-31.47338-24.49361-29.08087-30.17494,86.5864-102.23182,90.20587-103.87441c3.61947-1.64259,10.56745,2.89906,10.56745,2.89906Z"/>
    <path class="g" d="M1255.50621,798.65877c12.36187,1.14278,177.3438,135.70672,183.78905,142.06979,7.17429,7.08281,28.82665-19.49292,37.26262-31.05879,7.75259-10.62895,31.37178,2.74185,29.67655,13.7847s-26.31664,37.47114-35.17554,45.16794c-19.26973,16.74196-31.934,19.61006-47.65613,5.79033-13.90276-12.2205-158.0727-120.90277-191.25335-145.89265-4.06055-3.05819-4.76855-8.85363-1.59629-12.8257,6.3174-7.91018,16.75477-17.79351,24.95309-17.03563Z"/>
    <path class="c" d="M1269.62588,917.1029c-6.06592,4.76144-28.17063-14.64432-30.18224-16.14982s-51.7826-28.64929-47.0723-35.3983c4.7103-6.74901,18.52847-32.8861,42.91027-17.80326,24.3818,15.08285,45.40173,29.09992,42.15748,44.0812-3.24425,14.98128-3.56215,21.93331-7.81321,25.27017Z"/>
    <path class="c" d="M1120.37814,955.14603c3.84308-3.37771,9.499-3.68821,13.63793-.68031,22.58232,16.41133,64.41955,40.79866,63.319,46.08356-1.21402,5.82977-10.66123,26.59899-43.9821,13.72997-33.32087-12.86902-41.56192-44.25797-39.42197-50.8425.93095-2.86447,3.66029-5.84134,6.44714-8.29072Z"/>
    <path class="c" d="M1178.03159,879.51514c2.42816-3.03437,6.71087-3.81834,10.03018-1.79706,22.65929,13.79838,67.07469,40.87985,66.14795,47.21707-1.00856,6.89674-11.85548,13.42572-17.79487,13.79769-5.93939.37197-58.76766-39.1878-63.18011-45.04332-2.64481-3.50978,1.25103-9.74331,4.79685-14.17439Z"/>
    <path class="c" d="M1231.03846,952.24654c3.28091,7.58826-12.15749,13.32726-18.78042,12.52663-6.62293-.80064-52.47014-39.98249-57.57708-45.26771s8.46171-17.81716,14.48236-17.9235c6.02066-.10634,59.18023,44.43167,61.87514,50.66458Z"/>
    <path class="c" d="M1203.90389,972.38618c2.96285,2.94689,3.46852,7.61505,1.08651,11.04851-2.05844,2.96706-4.32543,4.79541-5.78021,4.77851-2.35252-.02733-63.2728-39.29902-63.89336-43.79563-.62056-4.49661,10.9742-17.15605,17.96463-16.64787,5.68935.4136,38.5772,32.63614,50.62243,44.61648Z"/>
    <path class="g" d="M1445.81807,688.70524c5.17004-24.65448-6.62201-35.89203-6.62201-35.89203,0,0,5.82514-10.34261,12.9105-11.19696,7.08536-.85435,24.35136,21.9091,29.87949,19.87683,5.52814-2.03227,29.92206-18.79144,17.31868-25.86633-12.60338-7.07489-71.29272-55.52942-77.38557-54.89415-6.09284.63526-23.53765,18.4828-18.60461,21.53367,4.93304,3.05087,23.88955,13.46863,20.9383,18.9688-2.95124,5.50017-6.57349,11.78085-10.58187,13.71577,0,0-16.83934-5.64337-35.35238,2.71454-6.35595,2.86946-9.11408,10.99505-10.21549,15.77722-.51438,2.23339.34234,4.55167,2.17807,5.92378,4.67232,3.4923,13.94371,9.23804,18.692,4.04001.91525-1.00194,4.51722-7.06756,9.13246-8.24154,13.41362-3.41203,22.68159,2.26782,23.17703,16.09973.16114,4.49881-2.02557,11.13366-1.22903,12.00389,1.49988,1.63863,11.39154,4.36602,16.95844,8.67425,3.22722,2.49755,7.96846.75644,8.80598-3.23746Z"/>
    <path class="g" d="M1144.13008,1023.91916c1.19813-5.57179-25.79148-27.46681-27.87924-26.01378s-25.97935,39.26248-29.11819,47.074,3.92968,6.05192-.1796,13.13956c-4.10928,7.08764-19.43098,27.42672-18.61892,31.36409.81207,3.93737,1.76658,5.8527,5.01778,2.91301,3.2512-2.93968,21.74155-23.43951,26.01223-28.41122,4.27069-4.97171,10.09303-.35936,14.76358-5.70792,4.67055-5.34856,28.14072-25.70041,30.00235-34.35774Z"/>
  </g>
  <path class="c" d="M1264.19158,1065.19232c-23.46703,2.96577-103.49439,13.06045-138.39463,23.37768-10.90084,3.22251-7.60593,10.00851,4.19911,8.69778,52.83683-5.86654,119.54871-15.00747,141.70044-18.08655,3.7323-.51879,2.9406-3.17207,1.59852-4.55646l-4.73182-7.49453c-1.54921-1.59804-.05772-2.48311-4.37163-1.93792Z"/>
  <path class="c" d="M1389.40027,1086.5171c-23.6518-.29914-104.30663-1.3383-140.2963,4.06688-11.24112,1.68827-8.91362,8.86386,2.95939,9.19381,53.141,1.47678,120.47606,1.62411,142.84076,1.62961,3.76818.00093,3.34999-2.73619,2.21167-4.29245l-3.65295-8.07552c-1.314-1.79644.2853-2.46734-4.06258-2.52233Z"/>
  <g>
    <rect class="e" x="257.41432" y="667.31311" width="107.29267" height="11.18293" transform="translate(-360.50276 358.95892) rotate(-40.13515)"/>
    <rect class="e" x="267.81878" y="610.73759" width="11.18399" height="220.09914" transform="translate(-20.00194 7.9081) rotate(-1.59863)"/>
    <rect class="e" x="299.10586" y="700.87952" width="11.18343" height="120.79221" transform="translate(-400.7139 343.21361) rotate(-37.53334)"/>
    <polygon class="e" points="183.38506 733.45926 180.85992 722.5636 261.09855 703.97457 394.43277 716.9301 393.3515 728.06167 261.83905 715.28308 183.38506 733.45926"/>
    <polygon class="e" points="230.54789 811.27978 220.19177 807.05957 259.88404 709.64849 204.00992 639.11613 212.77582 632.172 272.70413 707.82235 230.54789 811.27978"/>
    <path class="e" d="M275.88349,793.30129c-2.19857.00109-4.3622-.80385-6.43626-2.7403-3.97338-3.71125-17.39745-6.85457-24.61025-8.54309-5.81917-1.36305-8.46664-2.00635-10.23379-3.00024-1.10092-.61927-4.4452-2.50111-16.26158-26.67886-12.01952-24.59278-11.35219-29.07075-11.10099-30.75599.95566-6.41769,13.45684-54.04361,14.87887-59.45321l.84754-3.22195,3.23724-.78965c4.73354-1.15226,17.91515-4.56207,22.01194-6.46029,1.32155-.61272,3.91658-2.71845,6.2069-4.57626,6.36636-5.16495,12.94242-10.51121,19.6266-9.55773,8.34431,1.18393,49.53615,21.51281,49.92169,21.71377,4.84713,2.52732,4.82091,8.40657,4.78924,15.84982-.01747,4.00723-.03713,8.54964.72412,12.10362.81586,3.80409,7.1156,12.55797,10.87928,17.78736,1.78354,2.47817,3.32353,4.61777,4.43865,6.34888,1.34339,2.08389,3.84231,5.96443,1.00481,9.5337-.92399,1.16209-2.44868,2.14396-4.39387,2.2084-4.63415,5.17588-16.20369,27.99276-24.97505,47.71548l-9.67678-4.30322-.02403,5.02625h-.00765c-2.63108,0-8.8773,6.19052-12.61149,9.89085-5.5079,5.45875-12.01078,11.90266-18.23516,11.90266ZM240.48133,769.39222c1.37288.44124,4.40151,1.15007,6.90481,1.73658,11.98457,2.80474,23.22318,5.74381,29.09587,10.72528,2.25537-.95785,6.89825-5.55923,9.76415-8.39892,6.5138-6.45592,13.25042-13.13137,20.48834-13.13137h.0557l-.02184,4.69531c1.63282-3.6206,6.68637-14.70849,12.14403-25.48619,3.92969-7.76217,7.31656-13.8817,10.0656-18.18929,1.23199-1.92989,2.82767-4.42991,4.7532-6.41114-.78528-1.11622-1.65357-2.32199-2.44432-3.42073-6.47667-8.99962-11.52804-16.33148-12.73709-21.97699-1.01573-4.73682-.9928-9.92143-.97314-14.4966.00983-2.18765.02184-5.02843-.16929-6.58917-8.42841-4.19618-40.08873-19.11983-44.9304-19.85269-2.11338-.10922-8.11058,4.81982-11.00816,7.17021-3.2012,2.59831-5.96662,4.84167-8.55073,6.0387-4.49217,2.08171-15.27861,4.95744-20.82255,6.36854-5.3965,20.5921-12.88126,49.74913-13.75064,54.79285.59633,6.42315,17.37998,40.4852,22.13645,46.4256Z"/>
    <path class="e" d="M285.43794,745.38376c-1.54108-2.0828-2.90959-5.87706-.67934-12.12765,3.21868-9.02365,13.15758-20.38131,27.3713-23.99098l2.75231,10.83887c-13.80852,3.50811-20.51455,16.51496-20.09734,19.35902-.01311-.08628-.10157-.38663-.35605-.73067l-8.99089,6.65142Z"/>
    <path class="e" d="M313.18168,720.28639c-2.31981,0-5.5352-.74269-8.75497-3.88709-8.0942-7.90525-11.69296-26.83832-11.44721-33.17737l11.17526.43251c-.28506,7.37336,5.35499,24.59933,9.06079,25.45233l.63893,11.15888c-.21516.01311-.43906.02075-.67279.02075Z"/>
    <path class="e" d="M299.23464,688.14467c-13.20162,2.02453-19.58799-4.2414-23.815-8.38754-1.45056-1.42377-2.82023-2.76732-3.93566-3.22668l4.25564-10.34301c3.13493,1.29049,5.3602,3.47372,7.51338,5.58595,3.69713,3.62681,6.61693,6.49251,14.28607,5.31697l1.69557,11.05431Z"/>
    <path class="e" d="M245.625,716.27328l-9.27049-6.25605c2.06969-3.06795,5.04372-16.59579,6.61101-27.37021l.56466-3.87945,3.84013-.79184c2.16253-.4467,4.22458-.70118,6.21891-.94583,6.32595-.77982,10.50466-1.29424,14.31421-6.84365l9.22024,6.32813c-6.66016,9.70518-15.25895,10.76351-22.16703,11.61541-.52753.06444-1.04522.12888-1.55746.19441-1.27131,7.69337-4.09679,22.49906-7.77419,27.94907Z"/>
    <path class="e" d="M247.84595,742.46325c-1.01137-1.7475-2.01945-3.98758-3.08652-6.35981-2.12103-4.7117-6.06928-13.48305-9.49984-14.30328l2.60159-10.87818c8.77245,2.09918,13.38803,12.35264,17.09601,20.59101.94802,2.10574,1.84252,4.09352,2.56992,5.34953l-9.68115,5.60074Z"/>
    <path class="e" d="M275.82233,755.18505l-5.09396-3.67521c-5.49589-3.87508-12.33516-8.69927-16.23427-8.88604l.53517-11.17089c5.89235.28288,12.1058,3.98321,18.23516,8.18594,4.8504-4.11645,12.54268-6.61865,21.45929-1.77371l-5.33861,9.8275c-6.05727-3.29076-9.34148.51551-10.47189,2.30452l-3.09089,5.18789Z"/>
  </g>
</svg>