<?xml version="1.0" encoding="UTF-8"?>
<svg id="a" data-name="Layer 1" xmlns="http://www.w3.org/2000/svg" viewBox="0 0 975.73207 1249.92931">
  <defs>
    <style>
      .b {
        fill: #fff;
      }
    </style>
  </defs>
  <path class="b" d="M503.27491,245.87687c1.97762-.39095,2.12687.52456,2.97826,1.87476,7.93936,12.59083,11.11071,33.62241,9.94561,48.255-2.1646,27.18542-20.84121,40.89424-11.31483,70.66317,1.96805,6.14996,5.61162,11.36855,8.09132,17.24082-18.76528-7.78278-36.89409-17.19403-55.01473-26.39584-14.00251-7.11059-27.46665-14.17662-42.07115-20.47789-1.98201-.85516-5.48667-2.85607-7.51111-2.19468l16.02062,17.41069c44.95421,24.30916,95.0528,44.4468,138.91484,70.30086,18.37059,10.82837,27.81279,20.11658,29.51302,42.74188,2.30999,30.73939-.80554,63.13352-1.16494,93.82109-.35528,30.33597-.03422,60.68536-.85246,90.99556l212.29574,83.72858c11.99499,5.75172,20.6679,11.06479,25.29084,24.31701,6.694,19.18918-1.15103,68.71694-2.65863,91.11278-2.37384,35.26413-2.6005,75.42964-7.56417,109.98485-3.30973,23.04108-18.53977,39.68203-31.92206,57.58775-38.7669,51.87077-80.45877,101.65067-119.57826,153.26489-10.91754,11.79498-21.57119,17.9782-38.36561,14.60895-44.15622-19.15967-86.2903-42.75859-129.3354-64.23194,3.41201,7.70649,7.4209,15.34643,9.20757,23.67359,5.33222,24.85188,5.83132,40.07735,27.43504,57.76105,21.34194,17.46942,49.95456,21.66602,76.57691,16.70814.34701,1.57882-.15874,1.74231-1.13238,2.63122-3.65755,3.33927-17.13804,9.99013-22.20247,12.30717-49.74544,22.75922-117.55161,22.85202-164.6361-6.52701-4.87729-3.04325-25.84526-18.54657-26.64964-22.96372-.70645-3.87937,4.04353.42765,5.3777,1.09847,22.54112,11.33365,47.30961,17.26895,71.20628,5.88597-20.03212-14.37242-35.88062-31.86243-58.92551-41.8923-47.14272-20.51803-87.52366-3.68963-135.59484-8.91498-51.47941-5.59583-102.03321-33.50149-128.11299-78.94584-8.36931-14.58363-12.88129-31.16419-20.82148-46.04127-1.54505-2.89488-10.21137-14.68224-10.24693-15.61543-.0529-1.38815,1.48452-1.28005,2.83945-.72507,2.59812,1.0642,7.08381,4.78548,9.51097,6.68798,14.71167,11.53156,24.91146,29.22004,41.63786,38.16607,29.6407,15.85318,50.71334-.33103,39.25247-32.78188-17.24574-48.83039-63.18454-56.03389-105.36006-69.34584-68.09992-21.49451-100.13267-83.91839-91.27759-153.21888,2.97638-23.29335,11.8883-44.25501,23.58812-64.317,2.0338-.10725,2.20105-.50583,2.17892,1.63176-.06609,6.3841-2.80843,14.80251-3.26256,21.56225-2.4412,36.33676,6.0504,73.39288,30.70891,100.83744,14.52986,16.17153,44.58323,36.52307,66.74315,25.73227,5.47081-2.66402,10.1893-8.6609,11.20247-14.68068,5.63058-33.45418-30.5888-50.14737-45.49145-74.78027-17.5767-29.0529-12.31919-59.09176-24.92513-89.3886-18.06625-43.42001-57.81421-69.67843-71.37654-115.1921-18.51528-62.13526,4.22522-132.47893,52.52386-174.41731,1.27166-1.1042,10.90726-9.05936,11.87259-8.06739l-18.17412,33.04037c-20.00738,44.96058-19.51443,97.53337,13.31385,136.28071,13.14723,15.51772,40.21292,34.58998,47.44825,52.84587,9.18811,23.18306,2.86776,49.95548,3.79025,73.86805.05035,1.30516-.81206,4.01123,1.06626,3.75698l3.25389-14.01887,3.21891,1.08302c-.5118-14.33028,2.92475-28.39479,4.42433-42.5961l-19.51291-189.82736c-.28389-28.1185,12.55982-37.93758,34.86378-50.31001,50.0014-27.73671,106.91593-53.81228,158.86746-78.38746,12.43747-5.88343,25.22674-11.85875,38.13075-16.34053-22.56566-27.25553-19.81705-66.4631-2.60857-95.8824,25.58654-43.74227,77.21077-62.31117,102.38512-107.90901,17.76795-32.18277,18.0603-69.22068,1.80093-102.13614C441.8334,18.28315,430.17366.84954,431.02551,0c16.79002,7.96391,31.52884,23.20803,41.85221,38.47993,28.4872,42.14259,26.47299,92.73068-.42915,135.05098-17.94931,28.23643-55.88537,53.65827-65.46005,84.44192-19.96643,64.1942,57.5735,85.86028,87.13879,32.13878,3.62799-6.59222,9.14761-21.3294,9.14761-28.59749v-15.63726ZM523.95437,460.34144c-.67713-.77667,1.80561-7.70362,2.00747-10.05275,1.38944-16.1697-5.1719-23.24294-16.28445-33.41232-34.59875-16.20261-69.56785-38.43205-104.88459-52.5664-59.39007-23.7689-113.61438,5.33181-166.12034,30.54291-24.2091,11.62417-50.64178,24.12911-74.04805,37.03039-10.37239,5.71714-28.00511,12.01509-13.27051,24.10095,12.17158,9.98359,33.76746,21.1067,47.89332,29.75368,36.91344,22.59613,80.83031,52.15038,118.8937,70.91024,14.18142,6.98943,20.83709,7.05026,35.2544.37859,33.2976-15.40861,69.96843-39.7529,102.78193-57.90435,23.0955-12.77574,46.53987-24.99959,69.73636-37.57313.48957-1.8087-1.45003-.62373-1.95923-1.20778ZM571.21049,642.73608l1.12852-16.66765c-3.2112-47.17529,4.74305-97.90435,1.07274-144.59307-2.06489-26.26664-16.59083-15.45333-32.41478-7.53329-53.62432,26.83948-110.63302,59.44094-162.46636,89.8866-9.55078,5.6099-22.08303,11.16024-27.49259,21.03682-7.60468,13.88436-3.52599,37.41136-3.01268,52.97668.95077,28.83073,2.85612,57.58051,4.31367,86.27457,1.35589,26.69274.38979,55.50157,3.32662,81.86978,1.34118,12.04176,3.84991,14.82667,15.34192,10.22178,14.05433-5.63161,29.31197-17.73745,42.74794-25.19395l85.72612-101.92095c-.9136-18.61981,14.81532-45.46658,34.65578-47.38377,4.32056-.4175,6.6664,1.96455,9.57462,1.97253,2.73314.0075,6.60547-2.57004,9.80057-3.00535,6.50606-.88642,11.56863.64667,17.69792,2.05929ZM317.40208,579.49453c-4.96901-5.14488-15.91574-10.78155-22.35453-14.85107-49.74743-31.44193-101.48567-59.94223-151.23947-91.40851-5.74446-2.42816-12.01195-4.41186-12.6112,3.94629,6.3675,64.5021,9.41941,132.05766,18.48622,196.16,4.03812,28.54952,7.97801,31.24204,30.36277,47.2843,39.72019,28.46585,85.11306,57.60592,126.61491,83.67923,4.41907,2.77626,21.86014,14.59512,25.63611,14.24611,6.84302-.63251,3.90702-15.73733,3.83225-19.9887-.97535-55.4568-3.97423-113.91965-7.57106-169.29197-.99393-15.3013-.24541-38.47892-11.15599-49.77567ZM555.89307,661.36641c-13.40785,1.2611-27.65278,21.4708-36.41517,31.54681-40.82207,46.94201-78.94295,96.34376-120.17536,142.96191-4.63577,6.27565-9.14564,14.58708-3.71299,21.85352,2.85914,3.82425,22.924,12.93473,28.57315,15.64281,59.65427,28.597,126.16802,59.82177,187.30502,84.4597,22.88898,9.22415,28.8961,12.92319,45.97758-7.24466,45.89846-54.19163,85.79328-116.92874,130.95705-172.08218,9.56766-14.25849,15.13802-21.59912-3.2704-31.00406-17.2791-8.82796-39.93804-16.21866-58.35246-23.60833-48.29012-19.37876-101.61983-42.73299-150.68952-58.52617-6.84441-2.20289-12.82558-4.69268-20.19691-3.99936ZM376.01965,835.78951c-10.42563,4.77108-19.69589,10.61718-31.68496,9.55777-12.65893-1.1186-27.60863-12.09443-38.32155-18.82625-48.97161-30.77294-97.77196-68.81294-147.29193-97.5118-1.55621-.90189-2.8213-2.44403-4.85256-2.14639.77278,9.19847,3.41008,14.60913,11.51759,19.20664l152.8847,101.62512c6.23947,14.50068,6.10188,29.71323,1.68813,44.71942-7.60516,25.85658-20.2498,36.96838-14.84183,67.64995,6.11498,34.69267,35.52323,61.09564,70.90403,62.28175l-15.15065-138.52532c-1.74323-18.11932,4.29236-33.95215,15.14901-48.03089ZM652.19217,1154.89663c2.70922,1.82419,6.34133-2.47472,8.00232-4.20783,11.84735-12.36172,25.06667-31.88034,36.07433-45.88662,28.50511-36.27025,59.01629-74.21918,85.66388-111.68908,23.60965-33.19817,20.19023-59.05266,23.29144-98.57131,2.35506-30.01041,5.58111-62.87625,6.52663-92.689.80345-25.33323-1.1864-22.3646-14.49151-5.86413-39.66754,49.19409-80.27729,103.10376-117.54904,154.21568-30.16134,41.36119-24.80454,43.01759-26.48884,93.21705-1.13347,33.78236-4.68947,72.06021-2.25152,105.68998.08708,1.20116.59521,5.363,1.22233,5.78525ZM381.40662,1071.9499l-48.54701-24.23611c-45.22567-23.16436-78.46453-70.82811-75.51224-123.00951.66504-11.7545,4.83776-24.87907,4.34374-36.60803-1.81862-43.17788-42.732-76.29801-83.02377-82.5027,14.64894,17.10863,28.36745,37.74242,30.17902,60.93774,2.32984,29.83122-16.66733,45.67626-.86681,77.43511,9.02197,18.13405,27.487,28.88086,40.25917,43.85849,11.03799,12.944,22.06743,33.15735,25.69888,49.79132,4.25629,19.4961.10934,36.36113,13.20542,53.65733,24.63719,32.53874,60.9847,12.60343,93.4317,17.64674,17.48914,2.71837,33.47791,10.88252,48.27787,20.19153-8.13644-17.12289-21.19354-30.75737-28.54866-48.54819-1.34266-3.24767-2.46733-10.72931-3.71942-12.45705-2.98835-4.12357-15.24558-12.70314-19.52899-17.13768-3.05713-3.165-4.80364-7.78511-8.57357-10.28793-.4083,5.32591,2.33413,10.11503,3.78174,15.07976l9.14295,16.18919ZM385.38941,879.12685c-4.87785,1.48488-4.06279,12.4104-3.96463,16.4958,7.21678,40.31716,5.80763,86.23881,14.30358,125.88906,4.20287,19.61462,35.63305,43.57391,52.52346,53.16282,46.74127,26.53564,101.92399,53.60393,150.61673,76.9323,5.34717,2.56179,23.14959,11.63924,27.62519,10.74465,5.10299-1.01999,5.87974-9.78055,6.23152-14.32812,3.58513-46.34651-1.53118-97.73786,1.07802-144.58657-1.07321-12.50807-8.21673-19.04607-19.06387-24.07338-70.71479-29.0249-138.40859-65.82946-208.87222-95.24545-5.91156-2.46786-14.02685-6.95485-20.4778-4.9911Z"/>
  <path class="b" d="M603.56354,152.05883l-13.70346,23.49142c-10.13359,21.46594-12.68049,43.07461-6.23741,66.00829,10.99095,39.12149,51.28061,59.78555,72.15943,92.84058,25.10772,39.75016,24.75604,79.80497,2.27082,120.71654-9.82724,17.88054-27.13518,35.30374-28.57925,56.60722-1.50748,22.23901,13.48455,34.75982,34.52798,24.83172,24.62021-11.61558,37.81909-48.76473,36.60837-74.44294-.07467-1.58374-3.30932-14.29085.02451-11.88912,2.05816,1.48272,8.03326,16.64701,9.11923,20.00886,9.24939,28.63366,6.33207,57.04789-8.56642,83.01868-12.2859,21.41656-34.44574,38.43057-32.90708,66.27374,1.78809,32.35684,45.14636,43.75495,57.14493,71.7408l-123.83956-49.23763.88759-184.22093c-1.40463-11.89778-6.68306-22.07305-14.0425-31.29043,7.40094-8.67638,11.96723-16.80081,13.90766-28.19283,7.37492-43.29708-31.31223-67.33568-46.40764-103.18996-21.27653-50.53555-4.88051-107.28825,39.74766-138.5682,1.19263-.83592,7.13346-5.25569,7.88515-4.5058Z"/>
  <path class="b" d="M253.07584,356.94039l-80.86314,38.83686c-13.15536-28.71188-12.96516-60.54966-.52009-89.47285,35.21923-81.85185,129.64426-74.29965,137.41206-185.03894.76939-10.96859,4.87939,1.47892,6.22192,5.74596,11.36937,36.13585,1.36656,72.09127-20.82023,101.51848-22.3426,29.63386-67.03318,57.14067-61.79806,99.72696.7172,5.83421,4.96851,14.78323,9.00542,19.03412,1.89996,2.00067,12.68323,7.83406,11.36212,9.64941Z"/>
  <g>
    <path class="b" d="M727.58224,235.08902c.31816.37583,1.09995,7.77019,1.61935,9.71429,3.22663,12.07712,7.00769,23.30542,13.2998,34.15102,29.84837,51.44914,99.88062,59.34894,98.36212,133.5897-1.19817,58.5794-71.19984,104.1471-41.21816,164.07029,22.48636,44.9426,86.079,34.81254,69.49724-20.96782-3.29786-11.09387-9.47329-20.76478-11.66339-32.5523-5.39867-29.05656,3.95512-59.90038,24.31435-80.94257-7.10655,25.88215-6.74725,49.80111,7.1067,73.24701,19.34022,32.73066,43.65826,45.37049,42.55657,90.18037-1.36105,55.35918-58.50859,82.92035-60.47845,132.56087-1.15743,29.16715,21.23613,42.89414,47.1425,29.88689,31.82202-15.97743,47.54702-60.36898,47.80682-94.00718,1.7078-.32094,2.35424.35563,2.9869,1.855,2.16276,5.12562,4.76979,21.78402,5.50116,27.93014,7.74582,65.09204-19.10778,109.73494-69.62509,146.87223-30.57357,22.47585-48.04316,31.77739-70.27489,64.57122-.64574.95253-2.72624,7.30531-3.39995,1.97145-.34542-2.73471-.12595-6.83849.0133-9.71391,2.0281-41.87975,8.87996-85.48868,9.73983-127.22207.92871-45.07435-27.3291-53.85405-63.66921-67.46133-1.08319-1.5073,6.98536-8.35316,8.42965-10.42429,15.15936-21.73871,3.35074-46.64465-12.69607-63.48345-27.08141-28.41799-45.72645-46.7642-43.17684-90.5264,4.59507-78.87101,101.93476-117.66852,36.6259-200.56974-27.12903-34.43682-50.26208-58.50653-41.88589-107.73984.10742-.63141,1.02401-7.42508,3.08575-4.98959Z"/>
    <path class="b" d="M723.2644,1172.25114c-1.61353,1.68165-1.86322-.38293-2.26817-1.49515-3.41053-9.3672-2.18127-26.57122-.64183-36.47606,2.5106-16.15332,7.0644-23.75437,16.06167-36.78147,24.89289-36.04228,55.13457-68.58714,78.97353-105.43825,1.64172-2.53783,6.25546-12.72999,8.6305-12.80552,3.20692-.10198,7.78766,2.41617,13.05551,2.1638,17.4651-.83672,36.10195-17.06503,46.2543-30.33955,12.97933-16.97089,19.30517-38.9668,36.20866-52.75092.29328,1.8695-.25014,3.36923-.83346,5.08748-13.79799,40.64443-14.06415,73.92511-40.33603,110.64378-42.2234,59.01318-118.54525,69.56372-149.1467,139.87293-1.34846,3.09819-5.29113,17.62393-5.95798,18.31892Z"/>
  </g>
  <g>
    <g>
      <path class="b" d="M414.60668,575.05393c20.25349-2.4035,22.28909,21.35573,17.53319,35.91341-5.43114,16.62458-29.85537,42.20812-47.52381,26.95076-19.61468-16.938,7.07495-60.14475,29.99062-62.86417Z"/>
      <path class="b" d="M527.7953,512.50704c20.93852-3.58168,25.48784,15.19783,21.09339,31.87588-3.18544,12.08956-16.51237,31.63297-29.37543,34.25286-18.32324,3.732-25.41088-8.00324-23.77699-24.85663,1.40278-14.46949,16.74201-38.65203,32.05902-41.27212Z"/>
      <path class="b" d="M418.88369,704.46219c7.10506-1.01974,12.8654,1.48985,16.65682,7.6295,15.79987,25.5856-26.9774,74.77322-47.64622,53.03837-16.76423-17.62888,9.56869-57.59352,30.98939-60.66788Z"/>
      <path class="b" d="M472.79321,609.56875c22.15447-3.80117,25.16303,17.14896,19.73883,33.75154-5.38512,16.48296-28.52686,41.52324-46.43662,26.94199-14.14789-11.51852-2.64032-37.78455,7.54159-48.58212,4.24205-4.49855,13.04551-11.06296,19.15621-12.11141Z"/>
    </g>
    <path class="b" d="M339.09323,420.86194c11.65203-1.57043,24.04517-.41006,33.59835,6.82375,25.23359,19.10723-1.99289,43.30722-25.20144,44.70585-11.28104.67984-26.23611-2.608-33.50264-11.88413-14.7101-18.77824,6.74738-37.17119,25.10573-39.64548Z"/>
    <g>
      <path class="b" d="M264.65497,582.58827c17.89482-3.61814,35.38293,26.04034,38.60872,40.70201,3.01627,13.70941,1.46276,30.98978-17.03825,27.81294-14.73527-2.53021-30.33485-29.78258-31.95228-43.52948-.99948-8.49476-.0965-22.86688,10.38182-24.98548Z"/>
      <path class="b" d="M220.4192,614.92182c22.67762-5.12761,51.3907,49.71956,33.65575,64.9417-7.52588,6.45956-17.95261.63792-24.14746-4.80588-11.66351-10.24947-25.59909-39.08057-17.20997-53.80678,1.14537-2.01057,5.44161-5.81802,7.70168-6.32904Z"/>
      <path class="b" d="M177.31412,642.96345c21.03577-4.04819,46.32305,43.0237,35.70022,60.54495-11.35144,18.72302-34.55459-10.21669-39.92855-21.21691-5.00546-10.24593-12.71391-36.06762,4.22833-39.32804Z"/>
    </g>
  </g>
  <g>
    <g>
      <path class="b" d="M619.50341,864.12505c10.10068-1.07425,22.26087,2.63561,29.87728,9.42061,28.93963,25.78059-22.0941,65.92047-53.37349,40.43231-24.48187-19.94917-1.92293-47.14949,23.49621-49.85292Z"/>
      <path class="b" d="M481.44461,805.86379c22.33688-3.03466,50.72347,15.55533,36.05736,39.28922-11.65051,18.85381-42.7365,23.42963-58.97079,7.86959-19.82772-19.00423.70434-44.14151,22.91343-47.15881Z"/>
      <path class="b" d="M599.97555,779.02995c12.41679.44304,28.64096,9.54887,30.45642,22.86905,4.45193,32.66401-51.58423,44.648-66.55625,18.03396-13.39643-23.81328,14.48555-41.67422,36.09983-40.90301Z"/>
      <path class="b" d="M706.91963,750.84882c27.65691-1.00878,50.71467,27.23619,23.81127,47.63111-13.75764,10.42939-37.73114,11.308-50.47547-1.10314-21.12247-20.57023,2.75306-45.65582,26.6642-46.52798Z"/>
      <path class="b" d="M570.99443,698.0592c42.91283-3.51893,48.90839,46.79893,6.04271,53.49187-47.76715,7.45824-54.2745-49.53677-6.04271-53.49187Z"/>
    </g>
    <g>
      <path class="b" d="M422.11072,923.39236c14.01297-2.39777,28.87161,6.47602,37.99741,16.48467,8.08561,8.86783,18.93963,27.53787,5.9685,37.18394-18.88799,14.04618-57.57342-18.40814-56.55504-39.21795.33501-6.84575,5.72387-13.27594,12.58913-14.45066Z"/>
      <path class="b" d="M486.8276,994.55952c20.22891-2.82943,53.82069,25.95158,47.2417,47.25842-.53231,1.72396-4.4796,5.97514-6.03232,6.90918-19.62619,11.80622-57.04882-18.36475-55.76993-39.59262.45627-7.57342,7.277-13.55622,14.56055-14.57498Z"/>
      <path class="b" d="M554.75603,1068.98304c14.85942-2.53321,33.48122,9.48021,42.31649,20.79236,5.08823,6.51467,10.34985,17.2513,5.87059,25.22982-13.67347,24.35539-64.61115-8.80385-60.77303-33.81478.90738-5.91289,6.79883-11.22083,12.58595-12.20741Z"/>
    </g>
    <path class="b" d="M746.72851,936.30275c19.88381-3.3413,8.12937,32.14698,3.70803,41.49068-4.58515,9.68988-19.84318,34.11746-32.60852,30.05216-11.7661-3.74708-3.6536-28.2018-.44669-36.1466,4.10723-10.17528,17.83812-33.46225,29.34719-35.39625Z"/>
  </g>
</svg>